<?xml version="1.0" encoding="UTF-8" standalone="no"?><svg xmlns="http://www.w3.org/2000/svg" xmlns:xlink="http://www.w3.org/1999/xlink" contentStyleType="text/css" height="895px" preserveAspectRatio="none" style="width:1854px;height:895px;background:#FFFFFF;" version="1.1" viewBox="0 0 1854 895" width="1854px" zoomAndPan="magnify"><defs/><g><rect fill="none" height="27.6094" id="_title" style="stroke:none;stroke-width:1.0;" width="984" x="434" y="10"/><text fill="#000000" font-family="sans-serif" font-size="14" font-weight="bold" lengthAdjust="spacing" textLength="974" x="439" y="29.5332">Sequence Diagram / As a Project Manager, I want to know the number of active subscriptions or canceled subscriptions in a specific month</text><rect fill="#FFFFFF" height="641.3828" style="stroke:#181818;stroke-width:1.0;" width="10" x="196" y="153.5703"/><rect fill="#FFFFFF" height="594.6797" style="stroke:#181818;stroke-width:1.0;" width="10" x="1006" y="209.2734"/><rect fill="#FFFFFF" height="564.3281" style="stroke:#181818;stroke-width:1.0;" width="10" x="1011" y="239.625"/><rect fill="#FFFFFF" height="533.9766" style="stroke:#181818;stroke-width:1.0;" width="10" x="1016" y="269.9766"/><rect fill="#FFFFFF" height="503.625" style="stroke:#181818;stroke-width:1.0;" width="10" x="1021" y="300.3281"/><rect fill="#FFFFFF" height="373.2188" style="stroke:#181818;stroke-width:1.0;" width="10" x="1026" y="330.6797"/><rect fill="#FFFFFF" height="30.3516" style="stroke:#181818;stroke-width:1.0;" width="10" x="1436" y="368.0313"/><rect fill="#FFFFFF" height="30.3516" style="stroke:#181818;stroke-width:1.0;" width="10" x="1436" y="428.7344"/><rect fill="#FFFFFF" height="30.3516" style="stroke:#181818;stroke-width:1.0;" width="10" x="1596" y="514.7891"/><rect fill="#FFFFFF" height="30.3516" style="stroke:#181818;stroke-width:1.0;" width="10" x="1596" y="575.4922"/><rect fill="#FFFFFF" height="30.3516" style="stroke:#181818;stroke-width:1.0;" width="10" x="1596" y="636.1953"/><rect fill="#FFFFFF" height="30.3516" style="stroke:#181818;stroke-width:1.0;" width="10" x="1760.5" y="734.25"/><rect fill="none" height="170.1094" style="stroke:#000000;stroke-width:1.5;" width="972.5" x="116" y="168.5703"/><rect fill="none" height="200.4609" style="stroke:#000000;stroke-width:1.5;" width="749.5" x="933.5" y="474.0859"/><line style="stroke:#181818;stroke-width:0.5;stroke-dasharray:5.0,5.0;" x1="60" x2="60" y1="121.2188" y2="812.9531"/><line style="stroke:#181818;stroke-width:0.5;stroke-dasharray:5.0,5.0;" x1="201" x2="201" y1="121.2188" y2="812.9531"/><line style="stroke:#181818;stroke-width:0.5;stroke-dasharray:5.0,5.0;" x1="1010.5" x2="1010.5" y1="121.2188" y2="812.9531"/><line style="stroke:#181818;stroke-width:0.5;stroke-dasharray:5.0,5.0;" x1="1441" x2="1441" y1="121.2188" y2="812.9531"/><line style="stroke:#181818;stroke-width:0.5;stroke-dasharray:5.0,5.0;" x1="1601" x2="1601" y1="121.2188" y2="812.9531"/><line style="stroke:#181818;stroke-width:0.5;stroke-dasharray:5.0,5.0;" x1="1765" x2="1765" y1="121.2188" y2="812.9531"/><text fill="#000000" font-family="sans-serif" font-size="14" lengthAdjust="spacing" textLength="104" x="5" y="118.1426">Project Manager</text><ellipse cx="60" cy="52.1094" fill="#E2E2F0" rx="8" ry="8" style="stroke:#181818;stroke-width:0.5;"/><path d="M60,60.1094 L60,87.1094 M47,68.1094 L73,68.1094 M60,87.1094 L47,102.1094 M60,87.1094 L73,102.1094 " fill="none" style="stroke:#181818;stroke-width:0.5;"/><text fill="#000000" font-family="sans-serif" font-size="14" lengthAdjust="spacing" textLength="104" x="5" y="826.4863">Project Manager</text><ellipse cx="60" cy="838.0625" fill="#E2E2F0" rx="8" ry="8" style="stroke:#181818;stroke-width:0.5;"/><path d="M60,846.0625 L60,873.0625 M47,854.0625 L73,854.0625 M60,873.0625 L47,888.0625 M60,873.0625 L73,888.0625 " fill="none" style="stroke:#181818;stroke-width:0.5;"/><rect fill="#E2E2F0" height="31.6094" rx="2.5" ry="2.5" style="stroke:#181818;stroke-width:0.5;" width="150" x="126" y="88.6094"/><text fill="#000000" font-family="sans-serif" font-size="14" lengthAdjust="spacing" textLength="136" x="133" y="110.1426">:DashboardController</text><rect fill="#E2E2F0" height="31.6094" rx="2.5" ry="2.5" style="stroke:#181818;stroke-width:0.5;" width="150" x="126" y="811.9531"/><text fill="#000000" font-family="sans-serif" font-size="14" lengthAdjust="spacing" textLength="136" x="133" y="833.4863">:DashboardController</text><rect fill="#E2E2F0" height="31.6094" rx="2.5" ry="2.5" style="stroke:#181818;stroke-width:0.5;" width="135" x="943.5" y="88.6094"/><text fill="#000000" font-family="sans-serif" font-size="14" lengthAdjust="spacing" textLength="121" x="950.5" y="110.1426">:DashboardService</text><rect fill="#E2E2F0" height="31.6094" rx="2.5" ry="2.5" style="stroke:#181818;stroke-width:0.5;" width="135" x="943.5" y="811.9531"/><text fill="#000000" font-family="sans-serif" font-size="14" lengthAdjust="spacing" textLength="121" x="950.5" y="833.4863">:DashboardService</text><rect fill="#E2E2F0" height="31.6094" rx="2.5" ry="2.5" style="stroke:#181818;stroke-width:0.5;" width="156" x="1363" y="88.6094"/><text fill="#000000" font-family="sans-serif" font-size="14" lengthAdjust="spacing" textLength="142" x="1370" y="110.1426">:DashboardRepository</text><rect fill="#E2E2F0" height="31.6094" rx="2.5" ry="2.5" style="stroke:#181818;stroke-width:0.5;" width="156" x="1363" y="811.9531"/><text fill="#000000" font-family="sans-serif" font-size="14" lengthAdjust="spacing" textLength="142" x="1370" y="833.4863">:DashboardRepository</text><rect fill="#E2E2F0" height="31.6094" rx="2.5" ry="2.5" style="stroke:#181818;stroke-width:0.5;" width="144" x="1529" y="88.6094"/><text fill="#000000" font-family="sans-serif" font-size="14" lengthAdjust="spacing" textLength="130" x="1536" y="110.1426">:CreatePlansMapper</text><rect fill="#E2E2F0" height="31.6094" rx="2.5" ry="2.5" style="stroke:#181818;stroke-width:0.5;" width="144" x="1529" y="811.9531"/><text fill="#000000" font-family="sans-serif" font-size="14" lengthAdjust="spacing" textLength="130" x="1536" y="833.4863">:CreatePlansMapper</text><rect fill="#E2E2F0" height="31.6094" rx="2.5" ry="2.5" style="stroke:#181818;stroke-width:0.5;" width="165" x="1683" y="88.6094"/><text fill="#000000" font-family="sans-serif" font-size="14" lengthAdjust="spacing" textLength="151" x="1690" y="110.1426">:DashboardViewMapper</text><rect fill="#E2E2F0" height="31.6094" rx="2.5" ry="2.5" style="stroke:#181818;stroke-width:0.5;" width="165" x="1683" y="811.9531"/><text fill="#000000" font-family="sans-serif" font-size="14" lengthAdjust="spacing" textLength="151" x="1690" y="833.4863">:DashboardViewMapper</text><rect fill="#FFFFFF" height="641.3828" style="stroke:#181818;stroke-width:1.0;" width="10" x="196" y="153.5703"/><rect fill="#FFFFFF" height="594.6797" style="stroke:#181818;stroke-width:1.0;" width="10" x="1006" y="209.2734"/><rect fill="#FFFFFF" height="564.3281" style="stroke:#181818;stroke-width:1.0;" width="10" x="1011" y="239.625"/><rect fill="#FFFFFF" height="533.9766" style="stroke:#181818;stroke-width:1.0;" width="10" x="1016" y="269.9766"/><rect fill="#FFFFFF" height="503.625" style="stroke:#181818;stroke-width:1.0;" width="10" x="1021" y="300.3281"/><rect fill="#FFFFFF" height="373.2188" style="stroke:#181818;stroke-width:1.0;" width="10" x="1026" y="330.6797"/><rect fill="#FFFFFF" height="30.3516" style="stroke:#181818;stroke-width:1.0;" width="10" x="1436" y="368.0313"/><rect fill="#FFFFFF" height="30.3516" style="stroke:#181818;stroke-width:1.0;" width="10" x="1436" y="428.7344"/><rect fill="#FFFFFF" height="30.3516" style="stroke:#181818;stroke-width:1.0;" width="10" x="1596" y="514.7891"/><rect fill="#FFFFFF" height="30.3516" style="stroke:#181818;stroke-width:1.0;" width="10" x="1596" y="575.4922"/><rect fill="#FFFFFF" height="30.3516" style="stroke:#181818;stroke-width:1.0;" width="10" x="1596" y="636.1953"/><rect fill="#FFFFFF" height="30.3516" style="stroke:#181818;stroke-width:1.0;" width="10" x="1760.5" y="734.25"/><polygon fill="#181818" points="184,149.5703,194,153.5703,184,157.5703,188,153.5703" style="stroke:#181818;stroke-width:1.0;"/><line style="stroke:#181818;stroke-width:1.0;" x1="60" x2="190" y1="153.5703" y2="153.5703"/><text fill="#000000" font-family="sans-serif" font-size="13" font-weight="bold" lengthAdjust="spacing" textLength="7" x="67" y="148.7139">1</text><text fill="#000000" font-family="sans-serif" font-size="13" lengthAdjust="spacing" textLength="89" x="78" y="148.7139">Get /dashboard</text><path d="M116,168.5703 L177,168.5703 L177,176.9219 L167,186.9219 L116,186.9219 L116,168.5703 " fill="#EEEEEE" style="stroke:#000000;stroke-width:1.5;"/><rect fill="none" height="170.1094" style="stroke:#000000;stroke-width:1.5;" width="972.5" x="116" y="168.5703"/><text fill="#000000" font-family="sans-serif" font-size="13" font-weight="bold" lengthAdjust="spacing" textLength="16" x="131" y="183.0654">alt</text><text fill="#000000" font-family="sans-serif" font-size="11" font-weight="bold" lengthAdjust="spacing" textLength="102" x="192" y="181.9893">[Depending on url]</text><polygon fill="#181818" points="994,205.2734,1004,209.2734,994,213.2734,998,209.2734" style="stroke:#181818;stroke-width:1.0;"/><line style="stroke:#181818;stroke-width:1.0;" x1="206" x2="1000" y1="209.2734" y2="209.2734"/><text fill="#000000" font-family="sans-serif" font-size="13" font-weight="bold" lengthAdjust="spacing" textLength="7" x="213" y="204.417">2</text><text fill="#000000" font-family="sans-serif" font-size="13" lengthAdjust="spacing" textLength="648" x="224" y="204.417">getDashboardView(int year,int month,boolean onlyActive,boolean onlyCancelled,String startDate,String endDate)</text><polygon fill="#181818" points="999,235.625,1009,239.625,999,243.625,1003,239.625" style="stroke:#181818;stroke-width:1.0;"/><line style="stroke:#181818;stroke-width:1.0;" x1="206" x2="1005" y1="239.625" y2="239.625"/><text fill="#000000" font-family="sans-serif" font-size="13" font-weight="bold" lengthAdjust="spacing" textLength="7" x="213" y="234.7686">3</text><text fill="#000000" font-family="sans-serif" font-size="13" lengthAdjust="spacing" textLength="733" x="224" y="234.7686">getTotalNewSubscriptionsByDate(int year,int month,boolean onlyActive,boolean onlyCancelled,String startDate,String endDate)</text><polygon fill="#181818" points="1004,265.9766,1014,269.9766,1004,273.9766,1008,269.9766" style="stroke:#181818;stroke-width:1.0;"/><line style="stroke:#181818;stroke-width:1.0;" x1="206" x2="1010" y1="269.9766" y2="269.9766"/><text fill="#000000" font-family="sans-serif" font-size="13" font-weight="bold" lengthAdjust="spacing" textLength="7" x="213" y="265.1201">4</text><text fill="#000000" font-family="sans-serif" font-size="13" lengthAdjust="spacing" textLength="690" x="224" y="265.1201">getTotalNewSubscriptions(int year,int month,boolean onlyActive,boolean onlyCancelled,String startDate,String endDate)</text><polygon fill="#181818" points="1009,296.3281,1019,300.3281,1009,304.3281,1013,300.3281" style="stroke:#181818;stroke-width:1.0;"/><line style="stroke:#181818;stroke-width:1.0;" x1="206" x2="1015" y1="300.3281" y2="300.3281"/><text fill="#000000" font-family="sans-serif" font-size="13" font-weight="bold" lengthAdjust="spacing" textLength="7" x="213" y="295.4717">5</text><text fill="#000000" font-family="sans-serif" font-size="13" lengthAdjust="spacing" textLength="722" x="224" y="295.4717">getTotalCancelledSubscriptions(int year,int month,boolean onlyActive,boolean onlyCancelled,String startDate,String endDate)</text><polygon fill="#181818" points="1014,326.6797,1024,330.6797,1014,334.6797,1018,330.6797" style="stroke:#181818;stroke-width:1.0;"/><line style="stroke:#181818;stroke-width:1.0;" x1="206" x2="1020" y1="330.6797" y2="330.6797"/><text fill="#000000" font-family="sans-serif" font-size="13" font-weight="bold" lengthAdjust="spacing" textLength="7" x="213" y="325.8232">6</text><text fill="#000000" font-family="sans-serif" font-size="13" lengthAdjust="spacing" textLength="765" x="224" y="325.8232">getTotalCancelledSubscriptionsByDate(int year,int month,boolean onlyActive,boolean onlyCancelled,String startDate,String endDate)</text><polygon fill="#181818" points="1424,364.0313,1434,368.0313,1424,372.0313,1428,368.0313" style="stroke:#181818;stroke-width:1.0;"/><line style="stroke:#181818;stroke-width:1.0;" x1="1036" x2="1430" y1="368.0313" y2="368.0313"/><text fill="#000000" font-family="sans-serif" font-size="13" font-weight="bold" lengthAdjust="spacing" textLength="7" x="1043" y="363.1748">7</text><text fill="#000000" font-family="sans-serif" font-size="13" lengthAdjust="spacing" textLength="351" x="1054" y="363.1748">findTotalActiveSubscriptions(String startDate,String endDate)</text><polygon fill="#181818" points="1047,394.3828,1037,398.3828,1047,402.3828,1043,398.3828" style="stroke:#181818;stroke-width:1.0;"/><line style="stroke:#181818;stroke-width:1.0;stroke-dasharray:2.0,2.0;" x1="1041" x2="1440" y1="398.3828" y2="398.3828"/><text fill="#000000" font-family="sans-serif" font-size="13" font-weight="bold" lengthAdjust="spacing" textLength="7" x="1053" y="393.5264">8</text><text fill="#000000" font-family="sans-serif" font-size="13" lengthAdjust="spacing" textLength="105" x="1064" y="393.5264">activeSubscription</text><polygon fill="#181818" points="1424,424.7344,1434,428.7344,1424,432.7344,1428,428.7344" style="stroke:#181818;stroke-width:1.0;"/><line style="stroke:#181818;stroke-width:1.0;" x1="1036" x2="1430" y1="428.7344" y2="428.7344"/><text fill="#000000" font-family="sans-serif" font-size="13" font-weight="bold" lengthAdjust="spacing" textLength="7" x="1043" y="423.8779">9</text><text fill="#000000" font-family="sans-serif" font-size="13" lengthAdjust="spacing" textLength="370" x="1054" y="423.8779">findTotalCanceledSubscriptions(String startDate,String endDate)</text><polygon fill="#181818" points="1047,455.0859,1037,459.0859,1047,463.0859,1043,459.0859" style="stroke:#181818;stroke-width:1.0;"/><line style="stroke:#181818;stroke-width:1.0;stroke-dasharray:2.0,2.0;" x1="1041" x2="1440" y1="459.0859" y2="459.0859"/><text fill="#000000" font-family="sans-serif" font-size="13" font-weight="bold" lengthAdjust="spacing" textLength="14" x="1053" y="454.2295">10</text><text fill="#000000" font-family="sans-serif" font-size="13" lengthAdjust="spacing" textLength="124" x="1071" y="454.2295">canceledSubscription</text><path d="M933.5,474.0859 L994.5,474.0859 L994.5,482.4375 L984.5,492.4375 L933.5,492.4375 L933.5,474.0859 " fill="#EEEEEE" style="stroke:#000000;stroke-width:1.5;"/><rect fill="none" height="200.4609" style="stroke:#000000;stroke-width:1.5;" width="749.5" x="933.5" y="474.0859"/><text fill="#000000" font-family="sans-serif" font-size="13" font-weight="bold" lengthAdjust="spacing" textLength="16" x="948.5" y="488.5811">alt</text><text fill="#000000" font-family="sans-serif" font-size="11" font-weight="bold" lengthAdjust="spacing" textLength="102" x="1009.5" y="487.5049">[Depending on url]</text><polygon fill="#181818" points="1584,510.7891,1594,514.7891,1584,518.7891,1588,514.7891" style="stroke:#181818;stroke-width:1.0;"/><line style="stroke:#181818;stroke-width:1.0;" x1="1036" x2="1590" y1="514.7891" y2="514.7891"/><text fill="#000000" font-family="sans-serif" font-size="13" font-weight="bold" lengthAdjust="spacing" textLength="14" x="1043" y="509.9326">11</text><text fill="#000000" font-family="sans-serif" font-size="13" lengthAdjust="spacing" textLength="326" x="1061" y="509.9326">Dashboard obj  = create(Integer active, Integer canceled)</text><polygon fill="#181818" points="1047,541.1406,1037,545.1406,1047,549.1406,1043,545.1406" style="stroke:#181818;stroke-width:1.0;"/><line style="stroke:#181818;stroke-width:1.0;stroke-dasharray:2.0,2.0;" x1="1041" x2="1600" y1="545.1406" y2="545.1406"/><text fill="#000000" font-family="sans-serif" font-size="13" font-weight="bold" lengthAdjust="spacing" textLength="14" x="1053" y="540.2842">12</text><text fill="#000000" font-family="sans-serif" font-size="13" lengthAdjust="spacing" textLength="17" x="1071" y="540.2842">obj</text><polygon fill="#181818" points="1584,571.4922,1594,575.4922,1584,579.4922,1588,575.4922" style="stroke:#181818;stroke-width:1.0;"/><line style="stroke:#181818;stroke-width:1.0;" x1="1036" x2="1590" y1="575.4922" y2="575.4922"/><text fill="#000000" font-family="sans-serif" font-size="13" font-weight="bold" lengthAdjust="spacing" textLength="14" x="1043" y="570.6357">13</text><text fill="#000000" font-family="sans-serif" font-size="13" lengthAdjust="spacing" textLength="258" x="1061" y="570.6357">Dashboard obj  = createActive(Integer active)</text><polygon fill="#181818" points="1047,601.8438,1037,605.8438,1047,609.8438,1043,605.8438" style="stroke:#181818;stroke-width:1.0;"/><line style="stroke:#181818;stroke-width:1.0;stroke-dasharray:2.0,2.0;" x1="1041" x2="1600" y1="605.8438" y2="605.8438"/><text fill="#000000" font-family="sans-serif" font-size="13" font-weight="bold" lengthAdjust="spacing" textLength="14" x="1053" y="600.9873">14</text><text fill="#000000" font-family="sans-serif" font-size="13" lengthAdjust="spacing" textLength="17" x="1071" y="600.9873">obj</text><polygon fill="#181818" points="1584,632.1953,1594,636.1953,1584,640.1953,1588,636.1953" style="stroke:#181818;stroke-width:1.0;"/><line style="stroke:#181818;stroke-width:1.0;" x1="1036" x2="1590" y1="636.1953" y2="636.1953"/><text fill="#000000" font-family="sans-serif" font-size="13" font-weight="bold" lengthAdjust="spacing" textLength="14" x="1043" y="631.3389">15</text><text fill="#000000" font-family="sans-serif" font-size="13" lengthAdjust="spacing" textLength="302" x="1061" y="631.3389">Dashboard obj  = createCancelled(Integer cancelled)</text><polygon fill="#181818" points="1047,662.5469,1037,666.5469,1047,670.5469,1043,666.5469" style="stroke:#181818;stroke-width:1.0;"/><line style="stroke:#181818;stroke-width:1.0;stroke-dasharray:2.0,2.0;" x1="1041" x2="1600" y1="666.5469" y2="666.5469"/><text fill="#000000" font-family="sans-serif" font-size="13" font-weight="bold" lengthAdjust="spacing" textLength="14" x="1053" y="661.6904">16</text><text fill="#000000" font-family="sans-serif" font-size="13" lengthAdjust="spacing" textLength="17" x="1071" y="661.6904">obj</text><polygon fill="#181818" points="217,699.8984,207,703.8984,217,707.8984,213,703.8984" style="stroke:#181818;stroke-width:1.0;"/><line style="stroke:#181818;stroke-width:1.0;stroke-dasharray:2.0,2.0;" x1="211" x2="1020" y1="703.8984" y2="703.8984"/><text fill="#000000" font-family="sans-serif" font-size="13" font-weight="bold" lengthAdjust="spacing" textLength="14" x="223" y="699.042">17</text><text fill="#000000" font-family="sans-serif" font-size="13" lengthAdjust="spacing" textLength="60" x="241" y="699.042">dashboard</text><polygon fill="#181818" points="1748.5,730.25,1758.5,734.25,1748.5,738.25,1752.5,734.25" style="stroke:#181818;stroke-width:1.0;"/><line style="stroke:#181818;stroke-width:1.0;" x1="206" x2="1754.5" y1="734.25" y2="734.25"/><text fill="#000000" font-family="sans-serif" font-size="13" font-weight="bold" lengthAdjust="spacing" textLength="14" x="213" y="729.3936">18</text><text fill="#000000" font-family="sans-serif" font-size="13" lengthAdjust="spacing" textLength="162" x="231" y="729.3936">toDahboardView(dashboard)</text><polygon fill="#181818" points="217,760.6016,207,764.6016,217,768.6016,213,764.6016" style="stroke:#181818;stroke-width:1.0;"/><line style="stroke:#181818;stroke-width:1.0;stroke-dasharray:2.0,2.0;" x1="211" x2="1764.5" y1="764.6016" y2="764.6016"/><text fill="#000000" font-family="sans-serif" font-size="13" font-weight="bold" lengthAdjust="spacing" textLength="14" x="223" y="759.7451">19</text><text fill="#000000" font-family="sans-serif" font-size="13" lengthAdjust="spacing" textLength="88" x="241" y="759.7451">dashboardView</text><polygon fill="#181818" points="71,790.9531,61,794.9531,71,798.9531,67,794.9531" style="stroke:#181818;stroke-width:1.0;"/><line style="stroke:#181818;stroke-width:1.0;stroke-dasharray:2.0,2.0;" x1="65" x2="200" y1="794.9531" y2="794.9531"/><text fill="#000000" font-family="sans-serif" font-size="13" font-weight="bold" lengthAdjust="spacing" textLength="14" x="77" y="790.0967">20</text><text fill="#000000" font-family="sans-serif" font-size="13" lengthAdjust="spacing" textLength="94" x="95" y="790.0967">show dashboard</text><!--MD5=[98bc5ece61a7857e021b9fa834247b18]
@startuml
'https://plantuml.com/sequence-diagram
autoactivate on
autonumber
title Sequence Diagram / As a Project Manager, I want to know the number of active subscriptions or canceled subscriptions in a specific month

autonumber

actor "Project Manager" as Ac
participant ":DashboardController" as Ctrl
participant ":DashboardService" as Serv
participant ":DashboardRepository" as Repo
participant ":CreatePlansMapper" as Mapper
participant ":DashboardViewMapper" as View


Ac -> Ctrl : Get /dashboard
alt Depending on url
Ctrl -> Serv :getDashboardView(int year,int month,boolean onlyActive,boolean onlyCancelled,String startDate,String endDate)
Ctrl -> Serv :getTotalNewSubscriptionsByDate(int year,int month,boolean onlyActive,boolean onlyCancelled,String startDate,String endDate)
Ctrl -> Serv :getTotalNewSubscriptions(int year,int month,boolean onlyActive,boolean onlyCancelled,String startDate,String endDate)
Ctrl -> Serv :getTotalCancelledSubscriptions(int year,int month,boolean onlyActive,boolean onlyCancelled,String startDate,String endDate)
Ctrl -> Serv :getTotalCancelledSubscriptionsByDate(int year,int month,boolean onlyActive,boolean onlyCancelled,String startDate,String endDate)

end
Serv -> Repo :findTotalActiveSubscriptions(String startDate,String endDate)
Repo - -> Serv: activeSubscription
Serv -> Repo :findTotalCanceledSubscriptions(String startDate,String endDate)
Repo - -> Serv: canceledSubscription
alt Depending on url
Serv -> Mapper :Dashboard obj  = create(Integer active, Integer canceled)
Mapper - -> Serv: obj

Serv -> Mapper :Dashboard obj  = createActive(Integer active)
Mapper - -> Serv: obj

Serv -> Mapper :Dashboard obj  = createCancelled(Integer cancelled)
Mapper - -> Serv: obj

end

Serv - ->Ctrl: dashboard
Ctrl ->View: toDahboardView(dashboard)
View - ->Ctrl: dashboardView

Ac <- - Ctrl : show dashboard

@enduml

@startuml
autoactivate on
autonumber
title Sequence Diagram / As a Project Manager, I want to know the number of active subscriptions or canceled subscriptions in a specific month

autonumber

actor "Project Manager" as Ac
participant ":DashboardController" as Ctrl
participant ":DashboardService" as Serv
participant ":DashboardRepository" as Repo
participant ":CreatePlansMapper" as Mapper
participant ":DashboardViewMapper" as View


Ac -> Ctrl : Get /dashboard
alt Depending on url
Ctrl -> Serv :getDashboardView(int year,int month,boolean onlyActive,boolean onlyCancelled,String startDate,String endDate)
Ctrl -> Serv :getTotalNewSubscriptionsByDate(int year,int month,boolean onlyActive,boolean onlyCancelled,String startDate,String endDate)
Ctrl -> Serv :getTotalNewSubscriptions(int year,int month,boolean onlyActive,boolean onlyCancelled,String startDate,String endDate)
Ctrl -> Serv :getTotalCancelledSubscriptions(int year,int month,boolean onlyActive,boolean onlyCancelled,String startDate,String endDate)
Ctrl -> Serv :getTotalCancelledSubscriptionsByDate(int year,int month,boolean onlyActive,boolean onlyCancelled,String startDate,String endDate)

end
Serv -> Repo :findTotalActiveSubscriptions(String startDate,String endDate)
Repo - -> Serv: activeSubscription
Serv -> Repo :findTotalCanceledSubscriptions(String startDate,String endDate)
Repo - -> Serv: canceledSubscription
alt Depending on url
Serv -> Mapper :Dashboard obj  = create(Integer active, Integer canceled)
Mapper - -> Serv: obj

Serv -> Mapper :Dashboard obj  = createActive(Integer active)
Mapper - -> Serv: obj

Serv -> Mapper :Dashboard obj  = createCancelled(Integer cancelled)
Mapper - -> Serv: obj

end

Serv - ->Ctrl: dashboard
Ctrl ->View: toDahboardView(dashboard)
View - ->Ctrl: dashboardView

Ac <- - Ctrl : show dashboard

@enduml

PlantUML version 1.2022.12(Sun Oct 23 19:12:26 BST 2022)
(GPL source distribution)
Java Runtime: OpenJDK Runtime Environment
JVM: OpenJDK 64-Bit Server VM
Default Encoding: Cp1252
Language: pt
Country: PT
--></g></svg>