<?xml version="1.0" encoding="us-ascii" standalone="no"?><svg xmlns="http://www.w3.org/2000/svg" xmlns:xlink="http://www.w3.org/1999/xlink" contentStyleType="text/css" height="659px" preserveAspectRatio="none" style="width:1332px;height:659px;background:#FFFFFF;" version="1.1" viewBox="0 0 1332 659" width="1332px" zoomAndPan="magnify"><defs/><g><!--class SubscriptionsRepository--><g id="elem_SubscriptionsRepository"><rect codeLine="30" fill="#F1F1F1" height="155.5508" id="SubscriptionsRepository" rx="2.5" ry="2.5" style="stroke:#181818;stroke-width:0.5;" width="658" x="7" y="278.95"/><text fill="#000000" font-family="sans-serif" font-size="12" font-style="italic" lengthAdjust="spacing" textLength="62" x="305" y="295.5516">&#171;interface&#187;</text><text fill="#000000" font-family="sans-serif" font-size="14" font-style="italic" lengthAdjust="spacing" textLength="166" x="253" y="311.618">SubscriptionsRepository</text><line style="stroke:#181818;stroke-width:0.5;" x1="8" x2="664" y1="319.5711" y2="319.5711"/><line style="stroke:#181818;stroke-width:0.5;" x1="8" x2="664" y1="327.5711" y2="327.5711"/><ellipse cx="18" cy="341.3152" fill="#84BE84" rx="3" ry="3" style="stroke:#038048;stroke-width:1.0;"/><text fill="#000000" font-family="sans-serif" font-size="14" lengthAdjust="spacing" textLength="632" x="27" y="345.1062">findByActiveStatus_ActiveAndUser(Boolean true, String username): Optional&lt;Subscriptions&gt;</text><ellipse cx="18" cy="357.8035" fill="#84BE84" rx="3" ry="3" style="stroke:#038048;stroke-width:1.0;"/><text fill="#000000" font-family="sans-serif" font-size="14" lengthAdjust="spacing" textLength="288" x="27" y="361.5945">save(S entity) : &lt;S extends Subscriptions&gt;</text><ellipse cx="18" cy="374.2918" fill="#84BE84" rx="3" ry="3" style="stroke:#038048;stroke-width:1.0;"/><text fill="#000000" font-family="sans-serif" font-size="14" lengthAdjust="spacing" textLength="414" x="27" y="378.0828">getPlansFromOtherAPI(String name): HttpResponse&lt;String&gt;</text><ellipse cx="18" cy="390.7801" fill="#84BE84" rx="3" ry="3" style="stroke:#038048;stroke-width:1.0;"/><text fill="#000000" font-family="sans-serif" font-size="14" lengthAdjust="spacing" textLength="413" x="27" y="394.5711">getUserFromOtherAPI(String name) : HttpResponse&lt;String&gt;</text><ellipse cx="18" cy="407.2684" fill="#84BE84" rx="3" ry="3" style="stroke:#038048;stroke-width:1.0;"/><text fill="#000000" font-family="sans-serif" font-size="14" lengthAdjust="spacing" textLength="496" x="27" y="411.0594">getSubsFromOtherApi(String name,String auth) : HttpResponse&lt;String&gt;</text><ellipse cx="18" cy="423.7566" fill="#84BE84" rx="3" ry="3" style="stroke:#038048;stroke-width:1.0;"/><text fill="#000000" font-family="sans-serif" font-size="14" lengthAdjust="spacing" textLength="445" x="27" y="427.5477">planExists(String plan,String auth,String resource): Subscriptions</text></g><!--class Subscriptions--><g id="elem_Subscriptions"><rect codeLine="4" fill="#F1F1F1" height="141.418" id="Subscriptions" rx="2.5" ry="2.5" style="stroke:#181818;stroke-width:0.5;" width="118" x="277" y="511.5"/><text fill="#000000" font-family="sans-serif" font-size="14" lengthAdjust="spacing" textLength="93" x="289.5" y="530.0352">Subscriptions</text><line style="stroke:#181818;stroke-width:0.5;" x1="278" x2="394" y1="537.9883" y2="537.9883"/><rect fill="none" height="6" style="stroke:#C82930;stroke-width:1.0;" width="6" x="285" y="548.7324"/><text fill="#000000" font-family="sans-serif" font-size="14" lengthAdjust="spacing" textLength="62" x="297" y="555.5234">startDate</text><rect fill="none" height="6" style="stroke:#C82930;stroke-width:1.0;" width="6" x="285" y="565.2207"/><text fill="#000000" font-family="sans-serif" font-size="14" lengthAdjust="spacing" textLength="57" x="297" y="572.0117">endDate</text><rect fill="none" height="6" style="stroke:#C82930;stroke-width:1.0;" width="6" x="285" y="581.709"/><text fill="#000000" font-family="sans-serif" font-size="14" lengthAdjust="spacing" textLength="92" x="297" y="588.5">paymentType</text><rect fill="none" height="6" style="stroke:#C82930;stroke-width:1.0;" width="6" x="285" y="598.1973"/><text fill="#000000" font-family="sans-serif" font-size="14" lengthAdjust="spacing" textLength="30" x="297" y="604.9883">plan</text><rect fill="none" height="6" style="stroke:#C82930;stroke-width:1.0;" width="6" x="285" y="614.6855"/><text fill="#000000" font-family="sans-serif" font-size="14" lengthAdjust="spacing" textLength="30" x="297" y="621.4766">user</text><rect fill="none" height="6" style="stroke:#C82930;stroke-width:1.0;" width="6" x="285" y="631.1738"/><text fill="#000000" font-family="sans-serif" font-size="14" lengthAdjust="spacing" textLength="81" x="297" y="637.9648">activeStatus</text><line style="stroke:#181818;stroke-width:0.5;" x1="278" x2="394" y1="644.918" y2="644.918"/></g><!--class SubscriptionsViewMapper--><g id="elem_SubscriptionsViewMapper"><rect codeLine="15" fill="#F1F1F1" height="58.9766" id="SubscriptionsViewMapper" rx="2.5" ry="2.5" style="stroke:#181818;stroke-width:0.5;" width="486" x="89" y="142.97"/><text fill="#000000" font-family="sans-serif" font-size="14" lengthAdjust="spacing" textLength="177" x="243.5" y="161.5052">SubscriptionsViewMapper</text><line style="stroke:#181818;stroke-width:0.5;" x1="90" x2="574" y1="169.4583" y2="169.4583"/><line style="stroke:#181818;stroke-width:0.5;" x1="90" x2="574" y1="177.4583" y2="177.4583"/><ellipse cx="100" cy="191.2024" fill="#84BE84" rx="3" ry="3" style="stroke:#038048;stroke-width:1.0;"/><text fill="#000000" font-family="sans-serif" font-size="14" lengthAdjust="spacing" textLength="460" x="109" y="194.9934">toSubscriptionsView(Subscription subscriptions):SubscriptionsView</text></g><!--class SubscriptionsController--><g id="elem_SubscriptionsController"><rect codeLine="18" fill="#F1F1F1" height="58.9766" id="SubscriptionsController" rx="2.5" ry="2.5" style="stroke:#181818;stroke-width:0.5;" width="728" x="10" y="7"/><text fill="#000000" font-family="sans-serif" font-size="14" lengthAdjust="spacing" textLength="163" x="292.5" y="25.5352">SubscriptionsController</text><line style="stroke:#181818;stroke-width:0.5;" x1="11" x2="737" y1="33.4883" y2="33.4883"/><line style="stroke:#181818;stroke-width:0.5;" x1="11" x2="737" y1="41.4883" y2="41.4883"/><text fill="#000000" font-family="sans-serif" font-size="14" lengthAdjust="spacing" textLength="716" x="16" y="59.0234">create(final CreateSubscriptionsRequest resource, final String auth):ResponseEntity&lt;SubscriptionsView&gt;</text></g><!--class SubscriptionsService--><g id="elem_SubscriptionsService"><rect codeLine="21" fill="#F1F1F1" height="58.9766" id="SubscriptionsService" rx="2.5" ry="2.5" style="stroke:#181818;stroke-width:0.5;" width="426" x="610" y="142.97"/><text fill="#000000" font-family="sans-serif" font-size="14" lengthAdjust="spacing" textLength="141" x="752.5" y="161.5052">SubscriptionsService</text><line style="stroke:#181818;stroke-width:0.5;" x1="611" x2="1035" y1="169.4583" y2="169.4583"/><line style="stroke:#181818;stroke-width:0.5;" x1="611" x2="1035" y1="177.4583" y2="177.4583"/><ellipse cx="621" cy="191.2024" fill="#84BE84" rx="3" ry="3" style="stroke:#038048;stroke-width:1.0;"/><text fill="#000000" font-family="sans-serif" font-size="14" lengthAdjust="spacing" textLength="400" x="630" y="194.9934">create(createSubscriptionsMapper resource):Subscriptions</text></g><!--class CreateSubscriptionsMapper--><g id="elem_CreateSubscriptionsMapper"><rect codeLine="26" fill="#F1F1F1" height="58.9766" id="CreateSubscriptionsMapper" rx="2.5" ry="2.5" style="stroke:#181818;stroke-width:0.5;" width="625" x="700.5" y="327.24"/><text fill="#000000" font-family="sans-serif" font-size="14" lengthAdjust="spacing" textLength="190" x="918" y="345.7752">CreateSubscriptionsMapper</text><line style="stroke:#181818;stroke-width:0.5;" x1="701.5" x2="1324.5" y1="353.7283" y2="353.7283"/><line style="stroke:#181818;stroke-width:0.5;" x1="701.5" x2="1324.5" y1="361.7283" y2="361.7283"/><ellipse cx="711.5" cy="375.4724" fill="#84BE84" rx="3" ry="3" style="stroke:#038048;stroke-width:1.0;"/><text fill="#000000" font-family="sans-serif" font-size="14" lengthAdjust="spacing" textLength="599" x="720.5" y="379.2634">create(CreateSubscriptionsRequest request, String planName,String user):Subscriptions</text></g><!--link SubscriptionsController to SubscriptionsService--><g id="link_SubscriptionsController_SubscriptionsService"><path codeLine="42" d="M470.87,66.39 C546.28,88.89 644.7004,118.2649 720.1604,140.7749 " fill="none" id="SubscriptionsController-to-SubscriptionsService" style="stroke:#181818;stroke-width:1.0;stroke-dasharray:7.0,7.0;"/><polygon fill="#181818" points="725.91,142.49,718.429,136.0842,721.1186,141.0607,716.1421,143.7504,725.91,142.49" style="stroke:#181818;stroke-width:1.0;"/><polygon fill="#000000" points="634.7913,106.0549,626.9641,100.6524,625.2835,106.2849,634.7913,106.0549" style="stroke:#000000;stroke-width:1.0;"/><text fill="#000000" font-family="sans-serif" font-size="13" lengthAdjust="spacing" textLength="29" x="639" y="109.5384">uses</text></g><!--link SubscriptionsService to SubscriptionsRepository--><g id="link_SubscriptionsService_SubscriptionsRepository"><path codeLine="43" d="M745.56,202.44 C690.68,222.98 619.9193,249.4668 547.9693,276.3968 " fill="none" id="SubscriptionsService-to-SubscriptionsRepository" style="stroke:#181818;stroke-width:1.0;stroke-dasharray:7.0,7.0;"/><polygon fill="#181818" points="542.35,278.5,552.1811,279.0913,547.0327,276.7473,549.3768,271.599,542.35,278.5" style="stroke:#181818;stroke-width:1.0;"/><polygon fill="#000000" points="665.3173,242.358,674.8186,241.9397,672.7582,236.4349,665.3173,242.358" style="stroke:#000000;stroke-width:1.0;"/><text fill="#000000" font-family="sans-serif" font-size="13" lengthAdjust="spacing" textLength="29" x="679" y="245.5184">uses</text></g><!--link SubscriptionsService to CreateSubscriptionsMapper--><g id="link_SubscriptionsService_CreateSubscriptionsMapper"><path codeLine="45" d="M853.11,202.34 C888.68,236.47 943.1905,288.7561 978.7005,322.8261 " fill="none" id="SubscriptionsService-to-CreateSubscriptionsMapper" style="stroke:#181818;stroke-width:1.0;stroke-dasharray:7.0,7.0;"/><polygon fill="#181818" points="983.03,326.98,979.305,317.8627,979.4221,323.5184,973.7664,323.6354,983.03,326.98" style="stroke:#181818;stroke-width:1.0;"/><polygon fill="#000000" points="908.6081,244.0667,904.1156,235.6841,900.0464,239.9257,908.6081,244.0667" style="stroke:#000000;stroke-width:1.0;"/><text fill="#000000" font-family="sans-serif" font-size="13" lengthAdjust="spacing" textLength="29" x="914" y="245.5184">uses</text></g><!--link SubscriptionsRepository to Subscriptions--><g id="link_SubscriptionsRepository_Subscriptions"><path codeLine="46" d="M336,434.95 C336,459.68 336,480.91 336,505.1 " fill="none" id="SubscriptionsRepository-to-Subscriptions" style="stroke:#181818;stroke-width:1.0;stroke-dasharray:7.0,7.0;"/><polygon fill="#181818" points="336,511.1,340,502.1,336,506.1,332,502.1,336,511.1" style="stroke:#181818;stroke-width:1.0;"/><polygon fill="#000000" points="341,468.1553,338.0611,477.2004,343.9389,477.2004,341,468.1553" style="stroke:#000000;stroke-width:1.0;"/><text fill="#000000" font-family="sans-serif" font-size="13" lengthAdjust="spacing" textLength="40" x="350" y="478.0684">record</text></g><!--link SubscriptionsController to SubscriptionsViewMapper--><g id="link_SubscriptionsController_SubscriptionsViewMapper"><path codeLine="48" d="M364.99,66.23 C357.9,88.83 349.8744,114.4546 342.7944,137.0446 " fill="none" id="SubscriptionsController-to-SubscriptionsViewMapper" style="stroke:#181818;stroke-width:1.0;stroke-dasharray:7.0,7.0;"/><polygon fill="#181818" points="341,142.77,347.5085,135.3782,342.4953,137.9988,339.8747,132.9856,341,142.77" style="stroke:#181818;stroke-width:1.0;"/><polygon fill="#000000" points="359.5046,109.3964,365.0142,101.6443,359.4054,99.8864,359.5046,109.3964" style="stroke:#000000;stroke-width:1.0;"/><text fill="#000000" font-family="sans-serif" font-size="13" lengthAdjust="spacing" textLength="29" x="370" y="109.5384">uses</text></g><!--SRC=[VLJ1Rjim3BthAtXqaAmVO1W6qgp3UkXQrDkkWoQpZG17qYWwgr7itoTRTkB6TdonQF7fFVBHskiIGMbI5GfLIU-Xg7zxHTgnjiO_exDUiwK6iamRHdgH2lDSp2N3ku3mVF8iYJzBnXYYAS-1ayq13NzltF2XaYQkQeyKLrAnFcB1acil_Wano_PJuzy7wHnIf5spdUmduo_WnzkhT98Tg6PuTjOmsQeQU1HXg2PvqKPMiEk2YvRzgT4p47fRay8DnDI2IPjNa3NlL-apUXToySwmvYQRICaxgbaz1T9HAmnYrhqKDHKH6tFIS56iQ9iQZzujOVkczXHNw-pUcw70rj1lye2RFcvjlUGFzATXMXeuyIxMeNFbRRCTZSEl66nD-IEScznQMw4qm5JZIK7BQ8A2LGgFtQco-jZXNAozF69I07RzNq4AMGZUECpgHRj3xYloKoZAVo5xUEGzqlRfFkcvUfwlp6xmD8jR4TYgNCJ15M0huWnqUWpSZ6TfyP3MYBitxTad8sl6s65z7XEO-2J4mjy0DpVvx6IchG4USZ6tEKMT7Jy1bv6BupfFEhg-9hp1yb2uibHUBN7XpXdu_WC0]--></g></svg>