<?xml version="1.0" encoding="us-ascii" standalone="no"?><svg xmlns="http://www.w3.org/2000/svg" xmlns:xlink="http://www.w3.org/1999/xlink" contentStyleType="text/css" height="528px" preserveAspectRatio="none" style="width:616px;height:528px;background:#FFFFFF;" version="1.1" viewBox="0 0 616 528" width="616px" zoomAndPan="magnify"><defs/><g><rect fill="#FFFFFF" height="345.75" style="stroke:#181818;stroke-width:1.0;" width="10" x="51.5" y="91.4883"/><rect fill="#FFFFFF" height="145.1973" style="stroke:#181818;stroke-width:1.0;" width="10" x="254.5" y="277.041"/><rect fill="none" height="133.1973" style="stroke:#000000;stroke-width:1.5;" width="479.5" x="10" y="297.041"/><line style="stroke:#181818;stroke-width:0.5;stroke-dasharray:5.0,5.0;" x1="56" x2="56" y1="81.4883" y2="447.2383"/><line style="stroke:#181818;stroke-width:0.5;stroke-dasharray:5.0,5.0;" x1="259.5" x2="259.5" y1="81.4883" y2="447.2383"/><text fill="#000000" font-family="sans-serif" font-size="14" lengthAdjust="spacing" textLength="67" x="20" y="78.5352">Costumer</text><ellipse cx="56.5" cy="13.5" fill="#E2E2F0" rx="8" ry="8" style="stroke:#181818;stroke-width:0.5;"/><path d="M56.5,21.5 L56.5,48.5 M43.5,29.5 L69.5,29.5 M56.5,48.5 L43.5,63.5 M56.5,48.5 L69.5,63.5 " fill="none" style="stroke:#181818;stroke-width:0.5;"/><text fill="#000000" font-family="sans-serif" font-size="14" lengthAdjust="spacing" textLength="67" x="20" y="459.7734">Costumer</text><ellipse cx="56.5" cy="471.2266" fill="#E2E2F0" rx="8" ry="8" style="stroke:#181818;stroke-width:0.5;"/><path d="M56.5,479.2266 L56.5,506.2266 M43.5,487.2266 L69.5,487.2266 M56.5,506.2266 L43.5,521.2266 M56.5,506.2266 L69.5,521.2266 " fill="none" style="stroke:#181818;stroke-width:0.5;"/><rect fill="#E2E2F0" height="30.4883" rx="2.5" ry="2.5" style="stroke:#181818;stroke-width:0.5;" width="66" x="226.5" y="50"/><text fill="#000000" font-family="sans-serif" font-size="14" lengthAdjust="spacing" textLength="52" x="233.5" y="70.5352">:System</text><rect fill="#E2E2F0" height="30.4883" rx="2.5" ry="2.5" style="stroke:#181818;stroke-width:0.5;" width="66" x="226.5" y="446.2383"/><text fill="#000000" font-family="sans-serif" font-size="14" lengthAdjust="spacing" textLength="52" x="233.5" y="466.7734">:System</text><rect fill="#FFFFFF" height="345.75" style="stroke:#181818;stroke-width:1.0;" width="10" x="51.5" y="91.4883"/><rect fill="#FFFFFF" height="145.1973" style="stroke:#181818;stroke-width:1.0;" width="10" x="254.5" y="277.041"/><polygon fill="#181818" points="247.5,108.7988,257.5,112.7988,247.5,116.7988,251.5,112.7988" style="stroke:#181818;stroke-width:1.0;"/><line style="stroke:#181818;stroke-width:1.0;" x1="61.5" x2="253.5" y1="112.7988" y2="112.7988"/><text fill="#000000" font-family="sans-serif" font-size="13" lengthAdjust="spacing" textLength="174" x="68.5" y="108.0566">POST /subscriptions/create</text><line style="stroke:#181818;stroke-width:1.0;stroke-dasharray:2.0,2.0;" x1="259.5" x2="301.5" y1="142.1094" y2="142.1094"/><line style="stroke:#181818;stroke-width:1.0;stroke-dasharray:2.0,2.0;" x1="301.5" x2="301.5" y1="142.1094" y2="155.1094"/><line style="stroke:#181818;stroke-width:1.0;stroke-dasharray:2.0,2.0;" x1="260.5" x2="301.5" y1="155.1094" y2="155.1094"/><polygon fill="#181818" points="270.5,151.1094,260.5,155.1094,270.5,159.1094,266.5,155.1094" style="stroke:#181818;stroke-width:1.0;"/><text fill="#000000" font-family="sans-serif" font-size="13" lengthAdjust="spacing" textLength="124" x="266.5" y="137.3672">Gets data from Post</text><line style="stroke:#181818;stroke-width:1.0;stroke-dasharray:2.0,2.0;" x1="259.5" x2="301.5" y1="184.4199" y2="184.4199"/><line style="stroke:#181818;stroke-width:1.0;stroke-dasharray:2.0,2.0;" x1="301.5" x2="301.5" y1="184.4199" y2="197.4199"/><line style="stroke:#181818;stroke-width:1.0;stroke-dasharray:2.0,2.0;" x1="260.5" x2="301.5" y1="197.4199" y2="197.4199"/><polygon fill="#181818" points="270.5,193.4199,260.5,197.4199,270.5,201.4199,266.5,197.4199" style="stroke:#181818;stroke-width:1.0;"/><text fill="#000000" font-family="sans-serif" font-size="13" lengthAdjust="spacing" textLength="253" x="266.5" y="179.6777">Validates if plan exist locally or external</text><line style="stroke:#181818;stroke-width:1.0;stroke-dasharray:2.0,2.0;" x1="259.5" x2="301.5" y1="226.7305" y2="226.7305"/><line style="stroke:#181818;stroke-width:1.0;stroke-dasharray:2.0,2.0;" x1="301.5" x2="301.5" y1="226.7305" y2="239.7305"/><line style="stroke:#181818;stroke-width:1.0;stroke-dasharray:2.0,2.0;" x1="260.5" x2="301.5" y1="239.7305" y2="239.7305"/><polygon fill="#181818" points="270.5,235.7305,260.5,239.7305,270.5,243.7305,266.5,239.7305" style="stroke:#181818;stroke-width:1.0;"/><text fill="#000000" font-family="sans-serif" font-size="13" lengthAdjust="spacing" textLength="253" x="266.5" y="221.9883">Validates if user exist locally or external</text><line style="stroke:#181818;stroke-width:1.0;stroke-dasharray:2.0,2.0;" x1="259.5" x2="306.5" y1="264.041" y2="264.041"/><line style="stroke:#181818;stroke-width:1.0;stroke-dasharray:2.0,2.0;" x1="306.5" x2="306.5" y1="264.041" y2="277.041"/><line style="stroke:#181818;stroke-width:1.0;stroke-dasharray:2.0,2.0;" x1="265.5" x2="306.5" y1="277.041" y2="277.041"/><polygon fill="#181818" points="275.5,273.041,265.5,277.041,275.5,281.041,271.5,277.041" style="stroke:#181818;stroke-width:1.0;"/><text fill="#000000" font-family="sans-serif" font-size="13" lengthAdjust="spacing" textLength="338" x="271.5" y="259.2988">Validates if user has a subscription locally or external</text><path d="M10,297.041 L72,297.041 L72,304.3516 L62,314.3516 L10,314.3516 L10,297.041 " fill="#EEEEEE" style="stroke:#000000;stroke-width:1.5;"/><rect fill="none" height="133.1973" style="stroke:#000000;stroke-width:1.5;" width="479.5" x="10" y="297.041"/><text fill="#000000" font-family="sans-serif" font-size="13" font-weight="bold" lengthAdjust="spacing" textLength="17" x="25" y="310.6094">alt</text><text fill="#000000" font-family="sans-serif" font-size="11" font-weight="bold" lengthAdjust="spacing" textLength="278" x="87" y="309.6758">[successful case - data is accepted and validated]</text><line style="stroke:#181818;stroke-width:1.0;stroke-dasharray:2.0,2.0;" x1="264.5" x2="306.5" y1="335.6621" y2="335.6621"/><line style="stroke:#181818;stroke-width:1.0;stroke-dasharray:2.0,2.0;" x1="306.5" x2="306.5" y1="335.6621" y2="348.6621"/><line style="stroke:#181818;stroke-width:1.0;stroke-dasharray:2.0,2.0;" x1="265.5" x2="306.5" y1="348.6621" y2="348.6621"/><polygon fill="#181818" points="275.5,344.6621,265.5,348.6621,275.5,352.6621,271.5,348.6621" style="stroke:#181818;stroke-width:1.0;"/><text fill="#000000" font-family="sans-serif" font-size="13" lengthAdjust="spacing" textLength="206" x="271.5" y="330.9199">Advance to create a subscription</text><polygon fill="#181818" points="72.5,373.9727,62.5,377.9727,72.5,381.9727,68.5,377.9727" style="stroke:#181818;stroke-width:1.0;"/><line style="stroke:#181818;stroke-width:1.0;stroke-dasharray:2.0,2.0;" x1="66.5" x2="253.5" y1="377.9727" y2="377.9727"/><text fill="#000000" font-family="sans-serif" font-size="13" lengthAdjust="spacing" textLength="167" x="78.5" y="373.2305">Informs operation success</text><line style="stroke:#000000;stroke-width:1.0;stroke-dasharray:2.0,2.0;" x1="10" x2="489.5" y1="386.9727" y2="386.9727"/><text fill="#000000" font-family="sans-serif" font-size="11" font-weight="bold" lengthAdjust="spacing" textLength="199" x="15" y="397.6074">[failure case - data is not accepted]</text><polygon fill="#181818" points="72.5,418.2383,62.5,422.2383,72.5,426.2383,68.5,422.2383" style="stroke:#181818;stroke-width:1.0;"/><line style="stroke:#181818;stroke-width:1.0;stroke-dasharray:2.0,2.0;" x1="66.5" x2="258.5" y1="422.2383" y2="422.2383"/><text fill="#000000" font-family="sans-serif" font-size="13" lengthAdjust="spacing" textLength="133" x="78.5" y="417.4961">Shows error message</text><!--SRC=[hP51QyCm38Nl_XMFt4FlEGp60cE7iaB6xfgjh0R73fQIjVz-tbhQ4aBPOKUXfwTFJsGrPLHFINGQE5SWmROrXgpwcPH_YcsB-W5Lqnr5UQZGOFVQlM4ZquVOx4VrASh6PYvwSvNLYw5dLe4Z9VGv3TYLbNVKxnHy4RF0znW3HV31Yo8aIo4SKQZve9mZXR-wJCBvdrps9IR2RG2hbeQ25fMrBD9F0PQ4KPz2yCMXD4Pb1ueEytc9ksP_ORZ3zkXcYfQX2QSFBBWMe-MN3LvYd_8WI2Dd-eK_Cnh3eH3svCEKUOaRarwGpPfljqzV0iwvP30KE_fautZb7CFHtNQsxJS0]--></g></svg>