<?xml version="1.0" encoding="us-ascii" standalone="no"?><svg xmlns="http://www.w3.org/2000/svg" xmlns:xlink="http://www.w3.org/1999/xlink" contentStyleType="text/css" height="612px" preserveAspectRatio="none" style="width:999px;height:612px;background:#FFFFFF;" version="1.1" viewBox="0 0 999 612" width="999px" zoomAndPan="magnify"><defs/><g><!--class SubscriptionsRepository--><g id="elem_SubscriptionsRepository"><rect codeLine="35" fill="#F1F1F1" height="97.8242" id="SubscriptionsRepository" rx="2.5" ry="2.5" style="stroke:#181818;stroke-width:0.5;" width="576" x="103.5" y="291"/><text fill="#000000" font-family="sans-serif" font-size="12" font-style="italic" lengthAdjust="spacing" textLength="61" x="361" y="308.9492">&#171;interface&#187;</text><text fill="#000000" font-family="sans-serif" font-size="14" font-style="italic" lengthAdjust="spacing" textLength="153" x="315" y="327.0684">SubscriptionsRepository</text><line style="stroke:#181818;stroke-width:0.5;" x1="104.5" x2="678.5" y1="335.582" y2="335.582"/><line style="stroke:#181818;stroke-width:0.5;" x1="104.5" x2="678.5" y1="343.582" y2="343.582"/><ellipse cx="114.5" cy="358.3926" fill="#84BE84" rx="3" ry="3" style="stroke:#038048;stroke-width:1.0;"/><text fill="#000000" font-family="sans-serif" font-size="14" lengthAdjust="spacing" textLength="550" x="123.5" y="362.6895">findByActiveStatus_ActiveAndUser(boolean active, User user): Optional&lt;Subscriptions&gt;</text><ellipse cx="114.5" cy="377.0137" fill="#84BE84" rx="3" ry="3" style="stroke:#038048;stroke-width:1.0;"/><text fill="#000000" font-family="sans-serif" font-size="14" lengthAdjust="spacing" textLength="266" x="123.5" y="381.3105">save(S entity) : &lt;S extends Subscriptions&gt;</text></g><!--class UserRepository--><g id="elem_UserRepository"><rect codeLine="29" fill="#F1F1F1" height="79.2031" id="UserRepository" rx="2.5" ry="2.5" style="stroke:#181818;stroke-width:0.5;" width="277" x="715" y="300.5"/><text fill="#000000" font-family="sans-serif" font-size="12" font-style="italic" lengthAdjust="spacing" textLength="61" x="823" y="318.4492">&#171;interface&#187;</text><text fill="#000000" font-family="sans-serif" font-size="14" font-style="italic" lengthAdjust="spacing" textLength="98" x="804.5" y="336.5684">UserRepository</text><line style="stroke:#181818;stroke-width:0.5;" x1="716" x2="991" y1="345.082" y2="345.082"/><line style="stroke:#181818;stroke-width:0.5;" x1="716" x2="991" y1="353.082" y2="353.082"/><ellipse cx="726" cy="367.8926" fill="#84BE84" rx="3" ry="3" style="stroke:#038048;stroke-width:1.0;"/><text fill="#000000" font-family="sans-serif" font-size="14" lengthAdjust="spacing" textLength="251" x="735" y="372.1895">findById(Long objectId): Optional&lt;User&gt;</text></g><!--class Subscriptions--><g id="elem_Subscriptions"><rect codeLine="7" fill="#F1F1F1" height="137.7266" id="Subscriptions" rx="2.5" ry="2.5" style="stroke:#181818;stroke-width:0.5;" width="283" x="250" y="468"/><text fill="#000000" font-family="sans-serif" font-size="14" lengthAdjust="spacing" textLength="85" x="349" y="488.1074">Subscriptions</text><line style="stroke:#181818;stroke-width:0.5;" x1="251" x2="532" y1="496.6211" y2="496.6211"/><rect fill="none" height="6" style="stroke:#C82930;stroke-width:1.0;" width="6" x="258" y="508.4316"/><text fill="#000000" font-family="sans-serif" font-size="14" lengthAdjust="spacing" textLength="58" x="270" y="515.7285">startDate</text><rect fill="none" height="6" style="stroke:#C82930;stroke-width:1.0;" width="6" x="258" y="527.0527"/><text fill="#000000" font-family="sans-serif" font-size="14" lengthAdjust="spacing" textLength="54" x="270" y="534.3496">endDate</text><rect fill="none" height="6" style="stroke:#C82930;stroke-width:1.0;" width="6" x="258" y="545.6738"/><text fill="#000000" font-family="sans-serif" font-size="14" lengthAdjust="spacing" textLength="86" x="270" y="552.9707">paymentType</text><rect fill="none" height="6" style="stroke:#C82930;stroke-width:1.0;" width="6" x="258" y="564.2949"/><text fill="#000000" font-family="sans-serif" font-size="14" lengthAdjust="spacing" textLength="77" x="270" y="571.5918">activeStatus</text><line style="stroke:#181818;stroke-width:0.5;" x1="251" x2="532" y1="579.1055" y2="579.1055"/><ellipse cx="261" cy="593.916" fill="#84BE84" rx="3" ry="3" style="stroke:#038048;stroke-width:1.0;"/><text fill="#000000" font-family="sans-serif" font-size="14" lengthAdjust="spacing" textLength="257" x="270" y="598.2129">checkChange(long desiredVersion): void</text></g><!--class SubscriptionsViewMapper--><g id="elem_SubscriptionsViewMapper"><rect codeLine="17" fill="#F1F1F1" height="63.2422" id="SubscriptionsViewMapper" rx="2.5" ry="2.5" style="stroke:#181818;stroke-width:0.5;" width="445" x="36" y="149"/><text fill="#000000" font-family="sans-serif" font-size="14" lengthAdjust="spacing" textLength="162" x="177.5" y="169.1074">SubscriptionsViewMapper</text><line style="stroke:#181818;stroke-width:0.5;" x1="37" x2="480" y1="177.6211" y2="177.6211"/><line style="stroke:#181818;stroke-width:0.5;" x1="37" x2="480" y1="185.6211" y2="185.6211"/><ellipse cx="47" cy="200.4316" fill="#84BE84" rx="3" ry="3" style="stroke:#038048;stroke-width:1.0;"/><text fill="#000000" font-family="sans-serif" font-size="14" lengthAdjust="spacing" textLength="419" x="56" y="204.7285">toSubscriptionsView(Subscription subscriptions):SubscriptionsView</text></g><!--class SubscriptionsController--><g id="elem_SubscriptionsController"><rect codeLine="20" fill="#F1F1F1" height="63.2422" id="SubscriptionsController" rx="2.5" ry="2.5" style="stroke:#181818;stroke-width:0.5;" width="585" x="7" y="7"/><text fill="#000000" font-family="sans-serif" font-size="14" lengthAdjust="spacing" textLength="147" x="226" y="27.1074">SubscriptionsController</text><line style="stroke:#181818;stroke-width:0.5;" x1="8" x2="591" y1="35.6211" y2="35.6211"/><line style="stroke:#181818;stroke-width:0.5;" x1="8" x2="591" y1="43.6211" y2="43.6211"/><ellipse cx="18" cy="58.4316" fill="#84BE84" rx="3" ry="3" style="stroke:#038048;stroke-width:1.0;"/><text fill="#000000" font-family="sans-serif" font-size="14" lengthAdjust="spacing" textLength="559" x="27" y="62.7285">renewAnualSubscription(final WebRequest request):ResponseEntity&lt;SubscriptionsView&gt;</text></g><!--class SubscriptionsService--><g id="elem_SubscriptionsService"><rect codeLine="23" fill="#F1F1F1" height="63.2422" id="SubscriptionsService" rx="2.5" ry="2.5" style="stroke:#181818;stroke-width:0.5;" width="403" x="516" y="149"/><text fill="#000000" font-family="sans-serif" font-size="14" lengthAdjust="spacing" textLength="132" x="651.5" y="169.1074">SubscriptionsService</text><line style="stroke:#181818;stroke-width:0.5;" x1="517" x2="918" y1="177.6211" y2="177.6211"/><line style="stroke:#181818;stroke-width:0.5;" x1="517" x2="918" y1="185.6211" y2="185.6211"/><ellipse cx="527" cy="200.4316" fill="#84BE84" rx="3" ry="3" style="stroke:#038048;stroke-width:1.0;"/><text fill="#000000" font-family="sans-serif" font-size="14" lengthAdjust="spacing" textLength="377" x="536" y="204.7285">renewAnualSubscription(long desiredVersion):Subscriptions</text></g><!--link SubscriptionsController to SubscriptionsService--><g id="link_SubscriptionsController_SubscriptionsService"><path codeLine="43" d="M390.72,70.05 C458.86,92.88 551.82,124.01 621.17,147.24 " fill="none" id="SubscriptionsController-to-SubscriptionsService" style="stroke:#181818;stroke-width:1.0;stroke-dasharray:7.0,7.0;"/><polygon fill="#181818" points="626.12,148.89,618.8528,142.2426,621.378,147.3046,616.3161,149.8298,626.12,148.89" style="stroke:#181818;stroke-width:1.0;"/><polygon fill="#000000" points="543.2411,111.2336,535.5978,105.574,533.7309,111.1475,543.2411,111.2336" style="stroke:#000000;stroke-width:1.0;"/><text fill="#000000" font-family="sans-serif" font-size="13" lengthAdjust="spacing" textLength="28" x="547.5" y="115.0283">uses</text></g><!--link SubscriptionsService to SubscriptionsRepository--><g id="link_SubscriptionsService_SubscriptionsRepository"><path codeLine="44" d="M654.26,212.05 C609.32,233.76 547.96,263.41 495.83,288.6 " fill="none" id="SubscriptionsService-to-SubscriptionsRepository" style="stroke:#181818;stroke-width:1.0;stroke-dasharray:7.0,7.0;"/><polygon fill="#181818" points="491.13,290.86,500.9736,290.5381,495.6303,288.6811,497.4873,283.3377,491.13,290.86" style="stroke:#181818;stroke-width:1.0;"/><polygon fill="#000000" points="583.998,253.8208,593.4208,252.5319,590.8636,247.2395,583.998,253.8208" style="stroke:#000000;stroke-width:1.0;"/><text fill="#000000" font-family="sans-serif" font-size="13" lengthAdjust="spacing" textLength="28" x="597.5" y="257.0283">uses</text></g><!--link SubscriptionsService to UserRepository--><g id="link_SubscriptionsService_UserRepository"><path codeLine="45" d="M744.05,212.24 C764.75,236.22 793.74,269.8 816.69,296.37 " fill="none" id="SubscriptionsService-to-UserRepository" style="stroke:#181818;stroke-width:1.0;stroke-dasharray:7.0,7.0;"/><polygon fill="#181818" points="820.03,300.24,817.1719,290.815,816.7608,296.4568,811.1189,296.0457,820.03,300.24" style="stroke:#181818;stroke-width:1.0;"/><polygon fill="#000000" points="793.7676,255.43,790.0809,246.6631,785.6319,250.5044,793.7676,255.43" style="stroke:#000000;stroke-width:1.0;"/><text fill="#000000" font-family="sans-serif" font-size="13" lengthAdjust="spacing" textLength="28" x="799.5" y="257.0283">uses</text></g><!--link SubscriptionsRepository to Subscriptions--><g id="link_SubscriptionsRepository_Subscriptions"><path codeLine="46" d="M391.5,389.2 C391.5,411.31 391.5,438.02 391.5,462.55 " fill="none" id="SubscriptionsRepository-to-Subscriptions" style="stroke:#181818;stroke-width:1.0;stroke-dasharray:7.0,7.0;"/><polygon fill="#181818" points="391.5,467.75,395.5,458.75,391.5,462.75,387.5,458.75,391.5,467.75" style="stroke:#181818;stroke-width:1.0;"/><polygon fill="#000000" points="396.5,423.6455,393.5611,432.6906,399.4389,432.6906,396.5,423.6455" style="stroke:#000000;stroke-width:1.0;"/><text fill="#000000" font-family="sans-serif" font-size="13" lengthAdjust="spacing" textLength="36" x="405.5" y="434.0283">record</text></g><!--link SubscriptionsController to SubscriptionsViewMapper--><g id="link_SubscriptionsController_SubscriptionsViewMapper"><path codeLine="47" d="M290.5,70.22 C284.15,91.92 275.61,121.07 268.95,143.81 " fill="none" id="SubscriptionsController-to-SubscriptionsViewMapper" style="stroke:#181818;stroke-width:1.0;stroke-dasharray:7.0,7.0;"/><polygon fill="#181818" points="267.48,148.85,273.84,141.33,268.88,144.05,266.16,139.09,267.48,148.85" style="stroke:#181818;stroke-width:1.0;"/><polygon fill="#000000" points="285.0948,114.444,290.4573,106.5894,284.8163,104.9375,285.0948,114.444" style="stroke:#000000;stroke-width:1.0;"/><text fill="#000000" font-family="sans-serif" font-size="13" lengthAdjust="spacing" textLength="28" x="295.5" y="115.0283">uses</text></g><!--SRC=[XLDDRzim3BthL_1M1scJks4OIDiT2cmOaApjiM0aDj6cI9f4fpMA_VSfTjiuiRtv88DVxr6FrCMMsSTyFlS6BLSxCvDkDvS6OxnI6ZS1TsAh5O7KGHeIJGHMrJhAe3rhP-EIl8kQNQYXABHb2iyegIpVS-yZXT4KCGG8RmBITnKP0zyYKskILKV3OxqZopzg_-v0oNfFAqQkOkEPoYt9NpTRj1lAZBCRK1Hr8FL08IQQIGvxfvNu8uQxUD3qyWszfz2sCsNNYsTT3yHkU9BtiXFL0C-DinoSCPyyWIozB6o5ffkNFMkB1XvflQJV5KM6qFud-PAYJq3qnRBckkZnbWtk8FcAmbvBIinZj8FAdM28HiBFgPuDNBo9QMfTNTTtAljw07FhdoJvJgK1V6yGq1I7cl8CPsJ9Ze2BpiYVMcDXrG4gMpjd22sqMt7Pz0HLEhga9mIbc4RSKxO2QcISG0v5CbuvxTsPQcsdOcICC9kLWohdXmuYb68esAywNld_XQUQ3-Tt7c6FAzqrxPDqGVthLYFluuFkBm00]--></g></svg>