<?xml version="1.0" encoding="us-ascii" standalone="no"?><svg xmlns="http://www.w3.org/2000/svg" xmlns:xlink="http://www.w3.org/1999/xlink" contentStyleType="text/css" height="556px" preserveAspectRatio="none" style="width:1123px;height:556px;background:#FFFFFF;" version="1.1" viewBox="0 0 1123 556" width="1123px" zoomAndPan="magnify"><defs/><g><rect fill="#FFFFFF" height="338.4922" style="stroke:#181818;stroke-width:1.0;" width="10" x="243" y="116.9121"/><rect fill="#FFFFFF" height="316.2012" style="stroke:#181818;stroke-width:1.0;" width="10" x="535" y="148.2031"/><rect fill="#FFFFFF" height="98.873" style="stroke:#181818;stroke-width:1.0;" width="10" x="540" y="325.2402"/><rect fill="#FFFFFF" height="68.873" style="stroke:#181818;stroke-width:1.0;" width="10" x="885" y="179.4941"/><rect fill="#FFFFFF" height="31.291" style="stroke:#181818;stroke-width:1.0;" width="10" x="885" y="361.5313"/><line style="stroke:#181818;stroke-width:0.5;stroke-dasharray:5.0,5.0;" x1="42" x2="42" y1="83.6211" y2="473.4043"/><line style="stroke:#181818;stroke-width:0.5;stroke-dasharray:5.0,5.0;" x1="247.5" x2="247.5" y1="83.6211" y2="473.4043"/><line style="stroke:#181818;stroke-width:0.5;stroke-dasharray:5.0,5.0;" x1="540" x2="540" y1="83.6211" y2="473.4043"/><line style="stroke:#181818;stroke-width:0.5;stroke-dasharray:5.0,5.0;" x1="889.5" x2="889.5" y1="83.6211" y2="473.4043"/><text fill="#000000" font-family="sans-serif" font-size="14" lengthAdjust="spacing" textLength="68" x="5" y="80.1074">Subscriber</text><ellipse cx="42" cy="13.5" fill="#E2E2F0" rx="8" ry="8" style="stroke:#181818;stroke-width:0.5;"/><path d="M42,21.5 L42,48.5 M29,29.5 L55,29.5 M42,48.5 L29,63.5 M42,48.5 L55,63.5 " fill="none" style="stroke:#181818;stroke-width:0.5;"/><text fill="#000000" font-family="sans-serif" font-size="14" lengthAdjust="spacing" textLength="68" x="5" y="487.5117">Subscriber</text><ellipse cx="42" cy="499.5254" fill="#E2E2F0" rx="8" ry="8" style="stroke:#181818;stroke-width:0.5;"/><path d="M42,507.5254 L42,534.5254 M29,515.5254 L55,515.5254 M42,534.5254 L29,549.5254 M42,534.5254 L55,549.5254 " fill="none" style="stroke:#181818;stroke-width:0.5;"/><rect fill="#E2E2F0" height="32.6211" rx="2.5" ry="2.5" style="stroke:#181818;stroke-width:0.5;" width="123" x="186.5" y="50"/><text fill="#000000" font-family="sans-serif" font-size="14" lengthAdjust="spacing" textLength="109" x="193.5" y="72.1074">:DeviceController</text><rect fill="#E2E2F0" height="32.6211" rx="2.5" ry="2.5" style="stroke:#181818;stroke-width:0.5;" width="123" x="186.5" y="472.4043"/><text fill="#000000" font-family="sans-serif" font-size="14" lengthAdjust="spacing" textLength="109" x="193.5" y="494.5117">:DeviceController</text><rect fill="#E2E2F0" height="32.6211" rx="2.5" ry="2.5" style="stroke:#181818;stroke-width:0.5;" width="108" x="486" y="50"/><text fill="#000000" font-family="sans-serif" font-size="14" lengthAdjust="spacing" textLength="94" x="493" y="72.1074">:DeviceService</text><rect fill="#E2E2F0" height="32.6211" rx="2.5" ry="2.5" style="stroke:#181818;stroke-width:0.5;" width="108" x="486" y="472.4043"/><text fill="#000000" font-family="sans-serif" font-size="14" lengthAdjust="spacing" textLength="94" x="493" y="494.5117">:DeviceService</text><rect fill="#E2E2F0" height="32.6211" rx="2.5" ry="2.5" style="stroke:#181818;stroke-width:0.5;" width="129" x="825.5" y="50"/><text fill="#000000" font-family="sans-serif" font-size="14" lengthAdjust="spacing" textLength="115" x="832.5" y="72.1074">:DeviceRepository</text><rect fill="#E2E2F0" height="32.6211" rx="2.5" ry="2.5" style="stroke:#181818;stroke-width:0.5;" width="129" x="825.5" y="472.4043"/><text fill="#000000" font-family="sans-serif" font-size="14" lengthAdjust="spacing" textLength="115" x="832.5" y="494.5117">:DeviceRepository</text><rect fill="#FFFFFF" height="338.4922" style="stroke:#181818;stroke-width:1.0;" width="10" x="243" y="116.9121"/><rect fill="#FFFFFF" height="316.2012" style="stroke:#181818;stroke-width:1.0;" width="10" x="535" y="148.2031"/><rect fill="#FFFFFF" height="98.873" style="stroke:#181818;stroke-width:1.0;" width="10" x="540" y="325.2402"/><rect fill="#FFFFFF" height="68.873" style="stroke:#181818;stroke-width:1.0;" width="10" x="885" y="179.4941"/><rect fill="#FFFFFF" height="31.291" style="stroke:#181818;stroke-width:1.0;" width="10" x="885" y="361.5313"/><polygon fill="#181818" points="231,112.9121,241,116.9121,231,120.9121,235,116.9121" style="stroke:#181818;stroke-width:1.0;"/><line style="stroke:#181818;stroke-width:1.0;" x1="42" x2="237" y1="116.9121" y2="116.9121"/><text fill="#000000" font-family="sans-serif" font-size="13" font-weight="bold" lengthAdjust="spacing" textLength="7" x="49" y="111.6494">1</text><text fill="#000000" font-family="sans-serif" font-size="13" lengthAdjust="spacing" textLength="171" x="60" y="111.6494">DELETE /device/macAddress</text><polygon fill="#181818" points="523,144.2031,533,148.2031,523,152.2031,527,148.2031" style="stroke:#181818;stroke-width:1.0;"/><line style="stroke:#181818;stroke-width:1.0;" x1="253" x2="529" y1="148.2031" y2="148.2031"/><text fill="#000000" font-family="sans-serif" font-size="13" font-weight="bold" lengthAdjust="spacing" textLength="7" x="260" y="142.9404">2</text><text fill="#000000" font-family="sans-serif" font-size="13" lengthAdjust="spacing" textLength="252" x="271" y="142.9404">deleteDevice(macAddress, desiredVersion);</text><polygon fill="#181818" points="873,175.4941,883,179.4941,873,183.4941,877,179.4941" style="stroke:#181818;stroke-width:1.0;"/><line style="stroke:#181818;stroke-width:1.0;" x1="545" x2="879" y1="179.4941" y2="179.4941"/><text fill="#000000" font-family="sans-serif" font-size="13" font-weight="bold" lengthAdjust="spacing" textLength="7" x="552" y="174.2314">3</text><text fill="#000000" font-family="sans-serif" font-size="13" lengthAdjust="spacing" textLength="310" x="563" y="174.2314">device findByMacAddress_MacAddress(macAddress)</text><polygon fill="#181818" points="556,244.3672,546,248.3672,556,252.3672,552,248.3672" style="stroke:#181818;stroke-width:1.0;"/><line style="stroke:#181818;stroke-width:1.0;stroke-dasharray:2.0,2.0;" x1="550" x2="889" y1="248.3672" y2="248.3672"/><text fill="#000000" font-family="sans-serif" font-size="13" font-weight="bold" lengthAdjust="spacing" textLength="7" x="562" y="243.1045">4</text><text fill="#000000" font-family="sans-serif" font-size="13" lengthAdjust="spacing" textLength="36" x="573" y="243.1045">device</text><path d="M900,192.4941 L900,288.4941 L1116,288.4941 L1116,202.4941 L1106,192.4941 L900,192.4941 " fill="#FEFFDD" style="stroke:#181818;stroke-width:0.5;"/><path d="M1106,192.4941 L1106,202.4941 L1116,202.4941 L1106,192.4941 " fill="#FEFFDD" style="stroke:#181818;stroke-width:0.5;"/><text fill="#000000" font-family="sans-serif" font-size="13" lengthAdjust="spacing" textLength="117" x="906" y="211.5225">if a device hasn't the</text><text fill="#000000" font-family="sans-serif" font-size="13" lengthAdjust="spacing" textLength="111" x="906" y="228.8135">same mac address</text><text fill="#000000" font-family="sans-serif" font-size="13" lengthAdjust="spacing" textLength="195" x="906" y="246.1045">has the one provided the code will</text><text fill="#000000" font-family="sans-serif" font-size="13" lengthAdjust="spacing" textLength="110" x="906" y="263.3955">end here and throw</text><text fill="#000000" font-family="sans-serif" font-size="13" lengthAdjust="spacing" textLength="159" x="906" y="280.6865">a EntityNotFoundException</text><line style="stroke:#181818;stroke-width:1.0;" x1="545" x2="592" y1="312.2402" y2="312.2402"/><line style="stroke:#181818;stroke-width:1.0;" x1="592" x2="592" y1="312.2402" y2="325.2402"/><line style="stroke:#181818;stroke-width:1.0;" x1="551" x2="592" y1="325.2402" y2="325.2402"/><polygon fill="#181818" points="561,321.2402,551,325.2402,561,329.2402,557,325.2402" style="stroke:#181818;stroke-width:1.0;"/><text fill="#000000" font-family="sans-serif" font-size="13" font-weight="bold" lengthAdjust="spacing" textLength="7" x="557" y="306.9775">5</text><text fill="#000000" font-family="sans-serif" font-size="13" lengthAdjust="spacing" textLength="212" x="568" y="306.9775">Check if user can access this device</text><polygon fill="#181818" points="873,357.5313,883,361.5313,873,365.5313,877,361.5313" style="stroke:#181818;stroke-width:1.0;"/><line style="stroke:#181818;stroke-width:1.0;" x1="550" x2="879" y1="361.5313" y2="361.5313"/><text fill="#000000" font-family="sans-serif" font-size="13" font-weight="bold" lengthAdjust="spacing" textLength="7" x="557" y="356.2686">6</text><text fill="#000000" font-family="sans-serif" font-size="13" lengthAdjust="spacing" textLength="295" x="568" y="356.2686">deleteByIdIfMatches(device.getId(), desiredVersion)</text><polygon fill="#181818" points="561,388.8223,551,392.8223,561,396.8223,557,392.8223" style="stroke:#181818;stroke-width:1.0;"/><line style="stroke:#181818;stroke-width:1.0;stroke-dasharray:2.0,2.0;" x1="555" x2="889" y1="392.8223" y2="392.8223"/><text fill="#000000" font-family="sans-serif" font-size="13" font-weight="bold" lengthAdjust="spacing" textLength="7" x="567" y="387.5596">7</text><text fill="#000000" font-family="sans-serif" font-size="13" lengthAdjust="spacing" textLength="4" x="578" y="387.5596">&#160;</text><polygon fill="#181818" points="264,420.1133,254,424.1133,264,428.1133,260,424.1133" style="stroke:#181818;stroke-width:1.0;"/><line style="stroke:#181818;stroke-width:1.0;stroke-dasharray:2.0,2.0;" x1="258" x2="534" y1="424.1133" y2="424.1133"/><text fill="#000000" font-family="sans-serif" font-size="13" font-weight="bold" lengthAdjust="spacing" textLength="7" x="270" y="418.8506">8</text><text fill="#000000" font-family="sans-serif" font-size="13" lengthAdjust="spacing" textLength="4" x="281" y="418.8506">&#160;</text><polygon fill="#181818" points="53,451.4043,43,455.4043,53,459.4043,49,455.4043" style="stroke:#181818;stroke-width:1.0;"/><line style="stroke:#181818;stroke-width:1.0;stroke-dasharray:2.0,2.0;" x1="47" x2="247" y1="455.4043" y2="455.4043"/><text fill="#000000" font-family="sans-serif" font-size="13" font-weight="bold" lengthAdjust="spacing" textLength="7" x="59" y="450.1416">9</text><text fill="#000000" font-family="sans-serif" font-size="13" lengthAdjust="spacing" textLength="4" x="70" y="450.1416">&#160;</text><!--SRC=[RL5BJyCm3BxdLrYxi4cKtWj2saQH9W47G5oHSRmrearAuWxsxqcoZZ71AOxzFVmuQqJwK9LbtwALeMilo7Lbu8-1BN6X3MuyTWe7SKXYjYWCpkQ_7Retzkeq9d4U9a_3Mo1lOce2661EgaSlXamVJM1ItV3M42-T5U_QTaGjnRV_ufxOfoU3Klmlw95x5qnqtsLS-YgbvWJ5TLQ62cxgk_gvXb9dGjaXpRNs789I6H6HIHugpIqBxtMdHzWvQ0x6itvX7uopiylea1cHcGoZnruRriRgnUx-X_fw37y9pbHc5J_68rrP5zVipQOH1M3MW0VT1eCz4v26Oo5Wnn3L0CSn8DLJCPw8eVTkQpJhd22d6JvDsqOGMmqDUmQqgUZTPqmYr5QCx1wStBh1wlgBk9SufKhmrD1nrh7PPSFqdjeR0diWj814iO-eQS9Xb9C5fG7JQXUxbLwjxr6euJ3T8oysB2izdVtPiZhTKdMG70zRvIjV5SLuPlKD]--></g></svg>