<?xml version="1.0" encoding="us-ascii" standalone="no"?><svg xmlns="http://www.w3.org/2000/svg" xmlns:xlink="http://www.w3.org/1999/xlink" contentStyleType="text/css" height="612px" preserveAspectRatio="none" style="width:1274px;height:612px;background:#FFFFFF;" version="1.1" viewBox="0 0 1274 612" width="1274px" zoomAndPan="magnify"><defs/><g><!--class SubscriptionsRepository--><g id="elem_SubscriptionsRepository"><rect codeLine="30" fill="#F1F1F1" height="97.8242" id="SubscriptionsRepository" rx="2.5" ry="2.5" style="stroke:#181818;stroke-width:0.5;" width="576" x="7" y="291"/><text fill="#000000" font-family="sans-serif" font-size="12" font-style="italic" lengthAdjust="spacing" textLength="61" x="264.5" y="308.9492">&#171;interface&#187;</text><text fill="#000000" font-family="sans-serif" font-size="14" font-style="italic" lengthAdjust="spacing" textLength="153" x="218.5" y="327.0684">SubscriptionsRepository</text><line style="stroke:#181818;stroke-width:0.5;" x1="8" x2="582" y1="335.582" y2="335.582"/><line style="stroke:#181818;stroke-width:0.5;" x1="8" x2="582" y1="343.582" y2="343.582"/><ellipse cx="18" cy="358.3926" fill="#84BE84" rx="3" ry="3" style="stroke:#038048;stroke-width:1.0;"/><text fill="#000000" font-family="sans-serif" font-size="14" lengthAdjust="spacing" textLength="550" x="27" y="362.6895">findByActiveStatus_ActiveAndUser(boolean active, User user): Optional&lt;Subscriptions&gt;</text><ellipse cx="18" cy="377.0137" fill="#84BE84" rx="3" ry="3" style="stroke:#038048;stroke-width:1.0;"/><text fill="#000000" font-family="sans-serif" font-size="14" lengthAdjust="spacing" textLength="266" x="27" y="381.3105">save(S entity) : &lt;S extends Subscriptions&gt;</text></g><!--class PlansRepository--><g id="elem_PlansRepository"><rect codeLine="24" fill="#F1F1F1" height="79.2031" id="PlansRepository" rx="2.5" ry="2.5" style="stroke:#181818;stroke-width:0.5;" width="649" x="618.5" y="300.5"/><text fill="#000000" font-family="sans-serif" font-size="12" font-style="italic" lengthAdjust="spacing" textLength="61" x="912.5" y="318.4492">&#171;interface&#187;</text><text fill="#000000" font-family="sans-serif" font-size="14" font-style="italic" lengthAdjust="spacing" textLength="103" x="891.5" y="336.5684">PlansRepository</text><line style="stroke:#181818;stroke-width:0.5;" x1="619.5" x2="1266.5" y1="345.082" y2="345.082"/><line style="stroke:#181818;stroke-width:0.5;" x1="619.5" x2="1266.5" y1="353.082" y2="353.082"/><ellipse cx="629.5" cy="367.8926" fill="#84BE84" rx="3" ry="3" style="stroke:#038048;stroke-width:1.0;"/><text fill="#000000" font-family="sans-serif" font-size="14" lengthAdjust="spacing" textLength="623" x="638.5" y="372.1895">findAllByPlanAndActiveStatus_Active(Plans plan, boolean activeStatus_active): List&lt;Subscriptions&gt;</text></g><!--class Subscriptions--><g id="elem_Subscriptions"><rect codeLine="6" fill="#F1F1F1" height="137.7266" id="Subscriptions" rx="2.5" ry="2.5" style="stroke:#181818;stroke-width:0.5;" width="345" x="122.5" y="468"/><text fill="#000000" font-family="sans-serif" font-size="14" lengthAdjust="spacing" textLength="85" x="252.5" y="488.1074">Subscriptions</text><line style="stroke:#181818;stroke-width:0.5;" x1="123.5" x2="466.5" y1="496.6211" y2="496.6211"/><rect fill="none" height="6" style="stroke:#C82930;stroke-width:1.0;" width="6" x="130.5" y="508.4316"/><text fill="#000000" font-family="sans-serif" font-size="14" lengthAdjust="spacing" textLength="58" x="142.5" y="515.7285">startDate</text><rect fill="none" height="6" style="stroke:#C82930;stroke-width:1.0;" width="6" x="130.5" y="527.0527"/><text fill="#000000" font-family="sans-serif" font-size="14" lengthAdjust="spacing" textLength="54" x="142.5" y="534.3496">endDate</text><rect fill="none" height="6" style="stroke:#C82930;stroke-width:1.0;" width="6" x="130.5" y="545.6738"/><text fill="#000000" font-family="sans-serif" font-size="14" lengthAdjust="spacing" textLength="86" x="142.5" y="552.9707">paymentType</text><rect fill="none" height="6" style="stroke:#C82930;stroke-width:1.0;" width="6" x="130.5" y="564.2949"/><text fill="#000000" font-family="sans-serif" font-size="14" lengthAdjust="spacing" textLength="77" x="142.5" y="571.5918">activeStatus</text><line style="stroke:#181818;stroke-width:0.5;" x1="123.5" x2="466.5" y1="579.1055" y2="579.1055"/><ellipse cx="133.5" cy="593.916" fill="#84BE84" rx="3" ry="3" style="stroke:#038048;stroke-width:1.0;"/><text fill="#000000" font-family="sans-serif" font-size="14" lengthAdjust="spacing" textLength="319" x="142.5" y="598.2129">changePlan(long desiredVersion, Plans plan): void</text></g><!--class SubscriptionsController--><g id="elem_SubscriptionsController"><rect codeLine="15" fill="#F1F1F1" height="63.2422" id="SubscriptionsController" rx="2.5" ry="2.5" style="stroke:#181818;stroke-width:0.5;" width="554" x="342" y="7"/><text fill="#000000" font-family="sans-serif" font-size="14" lengthAdjust="spacing" textLength="147" x="545.5" y="27.1074">SubscriptionsController</text><line style="stroke:#181818;stroke-width:0.5;" x1="343" x2="895" y1="35.6211" y2="35.6211"/><line style="stroke:#181818;stroke-width:0.5;" x1="343" x2="895" y1="43.6211" y2="43.6211"/><ellipse cx="353" cy="58.4316" fill="#84BE84" rx="3" ry="3" style="stroke:#038048;stroke-width:1.0;"/><text fill="#000000" font-family="sans-serif" font-size="14" lengthAdjust="spacing" textLength="528" x="362" y="62.7285">migrateAllToPlan(WebRequest request, String actualPlan, final String newPlan):void</text></g><!--class SubscriptionsService--><g id="elem_SubscriptionsService"><rect codeLine="18" fill="#F1F1F1" height="63.2422" id="SubscriptionsService" rx="2.5" ry="2.5" style="stroke:#181818;stroke-width:0.5;" width="512" x="363" y="149"/><text fill="#000000" font-family="sans-serif" font-size="14" lengthAdjust="spacing" textLength="132" x="553" y="169.1074">SubscriptionsService</text><line style="stroke:#181818;stroke-width:0.5;" x1="364" x2="874" y1="177.6211" y2="177.6211"/><line style="stroke:#181818;stroke-width:0.5;" x1="364" x2="874" y1="185.6211" y2="185.6211"/><ellipse cx="374" cy="200.4316" fill="#84BE84" rx="3" ry="3" style="stroke:#038048;stroke-width:1.0;"/><text fill="#000000" font-family="sans-serif" font-size="14" lengthAdjust="spacing" textLength="486" x="383" y="204.7285">migrateAllToPlan(long desiredVersion,String actualPlan, String newPlan):void</text></g><!--link SubscriptionsController to SubscriptionsService--><g id="link_SubscriptionsController_SubscriptionsService"><path codeLine="38" d="M619,70.22 C619,91.92 619,121.07 619,143.81 " fill="none" id="SubscriptionsController-to-SubscriptionsService" style="stroke:#181818;stroke-width:1.0;stroke-dasharray:7.0,7.0;"/><polygon fill="#181818" points="619,148.85,623,139.85,619,143.85,615,139.85,619,148.85" style="stroke:#181818;stroke-width:1.0;"/><polygon fill="#000000" points="624,114.6455,626.9389,105.6004,621.0611,105.6004,624,114.6455" style="stroke:#000000;stroke-width:1.0;"/><text fill="#000000" font-family="sans-serif" font-size="13" lengthAdjust="spacing" textLength="28" x="633" y="115.0283">uses</text></g><!--link SubscriptionsService to SubscriptionsRepository--><g id="link_SubscriptionsService_SubscriptionsRepository"><path codeLine="39" d="M556.15,212.05 C511.49,233.76 450.5,263.41 398.69,288.6 " fill="none" id="SubscriptionsService-to-SubscriptionsRepository" style="stroke:#181818;stroke-width:1.0;stroke-dasharray:7.0,7.0;"/><polygon fill="#181818" points="394.02,290.86,403.8632,290.5259,398.5175,288.6755,400.368,283.3298,394.02,290.86" style="stroke:#181818;stroke-width:1.0;"/><polygon fill="#000000" points="487.5032,253.8316,496.9229,252.52,494.353,247.2338,487.5032,253.8316" style="stroke:#000000;stroke-width:1.0;"/><text fill="#000000" font-family="sans-serif" font-size="13" lengthAdjust="spacing" textLength="28" x="501" y="257.0283">uses</text></g><!--link SubscriptionsService to PlansRepository--><g id="link_SubscriptionsService_PlansRepository"><path codeLine="40" d="M681.85,212.05 C732.33,236.59 803.67,271.27 859.04,298.18 " fill="none" id="SubscriptionsService-to-PlansRepository" style="stroke:#181818;stroke-width:1.0;stroke-dasharray:7.0,7.0;"/><polygon fill="#181818" points="863.67,300.44,857.3315,292.9019,859.1752,298.2499,853.8272,300.0936,863.67,300.44" style="stroke:#181818;stroke-width:1.0;"/><polygon fill="#000000" points="790.4969,253.8314,783.6468,247.2339,781.0771,252.5203,790.4969,253.8314" style="stroke:#000000;stroke-width:1.0;"/><text fill="#000000" font-family="sans-serif" font-size="13" lengthAdjust="spacing" textLength="28" x="795" y="257.0283">uses</text></g><!--link SubscriptionsRepository to Subscriptions--><g id="link_SubscriptionsRepository_Subscriptions"><path codeLine="41" d="M295,389.2 C295,411.31 295,438.02 295,462.55 " fill="none" id="SubscriptionsRepository-to-Subscriptions" style="stroke:#181818;stroke-width:1.0;stroke-dasharray:7.0,7.0;"/><polygon fill="#181818" points="295,467.75,299,458.75,295,462.75,291,458.75,295,467.75" style="stroke:#181818;stroke-width:1.0;"/><polygon fill="#000000" points="300,423.6455,297.0611,432.6906,302.9389,432.6906,300,423.6455" style="stroke:#000000;stroke-width:1.0;"/><text fill="#000000" font-family="sans-serif" font-size="13" lengthAdjust="spacing" textLength="36" x="309" y="434.0283">record</text></g><!--SRC=[XPDDJyCm38Rl-HM-CRIotQkfqWP7913bupXbgTaYfKb9t465-E-uxSQsBXCzj7MS-7dzaQiDKHNIwRGoqb9TcebovLGP6S9DeUNQor9iT86Wj5S6HUU1l5u5vNL5sjdmX9KBcfnlO3RJbj2_IuLPjjlxo84lxua5X6y1_Dm4afxk965leYqEHYMR4YqzDzLkGIhIMyn9KXswbR7QIBl65ZyopgwXmA0z5g_e0rEINXYqUL-di7Mw43yYgkVMMVBE6FIzi76fkIw4SsEUNHV_3LTF-55Z8F3zDu6Sl6OgwwgbQNSbyAwjD7k7nS_7ZjsXsxW_CNYEVgiLClaS6qihWeq2ksJ_EZ7ialWMOrPRC6lHjBuv_nzLUDaReqCD4rWvPr1QEEx4iZUumFSwqEmaismWuS9GxQKiceW0blKIq8zEsGcqYr3pYyaFNKHfXlHna9n13Zn6cffhI676nXVnd0rwq2iL5uO29fCishEqLH0W4p7d-Qb3olyV7BGhVk3eqft1E5aULULy8Nu1]--></g></svg>