<?xml version="1.0" encoding="us-ascii" standalone="no"?><svg xmlns="http://www.w3.org/2000/svg" xmlns:xlink="http://www.w3.org/1999/xlink" contentStyleType="text/css" height="960px" preserveAspectRatio="none" style="width:1810px;height:960px;background:#FFFFFF;" version="1.1" viewBox="0 0 1810 960" width="1810px" zoomAndPan="magnify"><defs/><g><rect fill="#FFFFFF" height="742.0215" style="stroke:#181818;stroke-width:1.0;" width="10" x="255.5" y="116.9121"/><rect fill="#FFFFFF" height="650.5029" style="stroke:#181818;stroke-width:1.0;" width="10" x="651.5" y="148.2031"/><rect fill="#FFFFFF" height="77.5186" style="stroke:#181818;stroke-width:1.0;" width="10" x="1228.5" y="179.4941"/><rect fill="#FFFFFF" height="77.5186" style="stroke:#181818;stroke-width:1.0;" width="10" x="1356.5" y="334.5313"/><rect fill="#FFFFFF" height="77.5186" style="stroke:#181818;stroke-width:1.0;" width="10" x="1509.5" y="489.5684"/><rect fill="#FFFFFF" height="31.291" style="stroke:#181818;stroke-width:1.0;" width="10" x="1509.5" y="707.1875"/><rect fill="#FFFFFF" height="31.291" style="stroke:#181818;stroke-width:1.0;" width="10" x="1702" y="644.6055"/><line style="stroke:#181818;stroke-width:0.5;stroke-dasharray:5.0,5.0;" x1="65" x2="65" y1="83.6211" y2="876.9336"/><line style="stroke:#181818;stroke-width:0.5;stroke-dasharray:5.0,5.0;" x1="260" x2="260" y1="83.6211" y2="876.9336"/><line style="stroke:#181818;stroke-width:0.5;stroke-dasharray:5.0,5.0;" x1="656.5" x2="656.5" y1="83.6211" y2="876.9336"/><line style="stroke:#181818;stroke-width:0.5;stroke-dasharray:5.0,5.0;" x1="1233" x2="1233" y1="83.6211" y2="876.9336"/><line style="stroke:#181818;stroke-width:0.5;stroke-dasharray:5.0,5.0;" x1="1361" x2="1361" y1="83.6211" y2="876.9336"/><line style="stroke:#181818;stroke-width:0.5;stroke-dasharray:5.0,5.0;" x1="1514" x2="1514" y1="83.6211" y2="876.9336"/><line style="stroke:#181818;stroke-width:0.5;stroke-dasharray:5.0,5.0;" x1="1707" x2="1707" y1="83.6211" y2="876.9336"/><text fill="#000000" font-family="sans-serif" font-size="14" lengthAdjust="spacing" textLength="91" x="17" y="80.1074">New Costumer</text><ellipse cx="65.5" cy="13.5" fill="#E2E2F0" rx="8" ry="8" style="stroke:#181818;stroke-width:0.5;"/><path d="M65.5,21.5 L65.5,48.5 M52.5,29.5 L78.5,29.5 M65.5,48.5 L52.5,63.5 M65.5,48.5 L78.5,63.5 " fill="none" style="stroke:#181818;stroke-width:0.5;"/><text fill="#000000" font-family="sans-serif" font-size="14" lengthAdjust="spacing" textLength="91" x="17" y="891.041">New Costumer</text><ellipse cx="65.5" cy="903.0547" fill="#E2E2F0" rx="8" ry="8" style="stroke:#181818;stroke-width:0.5;"/><path d="M65.5,911.0547 L65.5,938.0547 M52.5,919.0547 L78.5,919.0547 M65.5,938.0547 L52.5,953.0547 M65.5,938.0547 L78.5,953.0547 " fill="none" style="stroke:#181818;stroke-width:0.5;"/><rect fill="#E2E2F0" height="32.6211" rx="2.5" ry="2.5" style="stroke:#181818;stroke-width:0.5;" width="165" x="178" y="50"/><text fill="#000000" font-family="sans-serif" font-size="14" lengthAdjust="spacing" textLength="151" x="185" y="72.1074">:SubscriptionsController</text><rect fill="#E2E2F0" height="32.6211" rx="2.5" ry="2.5" style="stroke:#181818;stroke-width:0.5;" width="165" x="178" y="875.9336"/><text fill="#000000" font-family="sans-serif" font-size="14" lengthAdjust="spacing" textLength="151" x="185" y="898.041">:SubscriptionsController</text><rect fill="#E2E2F0" height="32.6211" rx="2.5" ry="2.5" style="stroke:#181818;stroke-width:0.5;" width="150" x="581.5" y="50"/><text fill="#000000" font-family="sans-serif" font-size="14" lengthAdjust="spacing" textLength="136" x="588.5" y="72.1074">:SubscriptionsService</text><rect fill="#E2E2F0" height="32.6211" rx="2.5" ry="2.5" style="stroke:#181818;stroke-width:0.5;" width="150" x="581.5" y="875.9336"/><text fill="#000000" font-family="sans-serif" font-size="14" lengthAdjust="spacing" textLength="136" x="588.5" y="898.041">:SubscriptionsService</text><rect fill="#E2E2F0" height="32.6211" rx="2.5" ry="2.5" style="stroke:#181818;stroke-width:0.5;" width="121" x="1173" y="50"/><text fill="#000000" font-family="sans-serif" font-size="14" lengthAdjust="spacing" textLength="107" x="1180" y="72.1074">:PlansRepository</text><rect fill="#E2E2F0" height="32.6211" rx="2.5" ry="2.5" style="stroke:#181818;stroke-width:0.5;" width="121" x="1173" y="875.9336"/><text fill="#000000" font-family="sans-serif" font-size="14" lengthAdjust="spacing" textLength="107" x="1180" y="898.041">:PlansRepository</text><rect fill="#E2E2F0" height="32.6211" rx="2.5" ry="2.5" style="stroke:#181818;stroke-width:0.5;" width="115" x="1304" y="50"/><text fill="#000000" font-family="sans-serif" font-size="14" lengthAdjust="spacing" textLength="101" x="1311" y="72.1074">:UserRepository</text><rect fill="#E2E2F0" height="32.6211" rx="2.5" ry="2.5" style="stroke:#181818;stroke-width:0.5;" width="115" x="1304" y="875.9336"/><text fill="#000000" font-family="sans-serif" font-size="14" lengthAdjust="spacing" textLength="101" x="1311" y="898.041">:UserRepository</text><rect fill="#E2E2F0" height="32.6211" rx="2.5" ry="2.5" style="stroke:#181818;stroke-width:0.5;" width="171" x="1429" y="50"/><text fill="#000000" font-family="sans-serif" font-size="14" lengthAdjust="spacing" textLength="157" x="1436" y="72.1074">:SubscriptionsRepository</text><rect fill="#E2E2F0" height="32.6211" rx="2.5" ry="2.5" style="stroke:#181818;stroke-width:0.5;" width="171" x="1429" y="875.9336"/><text fill="#000000" font-family="sans-serif" font-size="14" lengthAdjust="spacing" textLength="157" x="1436" y="898.041">:SubscriptionsRepository</text><rect fill="#E2E2F0" height="32.6211" rx="2.5" ry="2.5" style="stroke:#181818;stroke-width:0.5;" width="194" x="1610" y="50"/><text fill="#000000" font-family="sans-serif" font-size="14" lengthAdjust="spacing" textLength="180" x="1617" y="72.1074">:CreateSubscriptionsMapper</text><rect fill="#E2E2F0" height="32.6211" rx="2.5" ry="2.5" style="stroke:#181818;stroke-width:0.5;" width="194" x="1610" y="875.9336"/><text fill="#000000" font-family="sans-serif" font-size="14" lengthAdjust="spacing" textLength="180" x="1617" y="898.041">:CreateSubscriptionsMapper</text><rect fill="#FFFFFF" height="742.0215" style="stroke:#181818;stroke-width:1.0;" width="10" x="255.5" y="116.9121"/><rect fill="#FFFFFF" height="650.5029" style="stroke:#181818;stroke-width:1.0;" width="10" x="651.5" y="148.2031"/><rect fill="#FFFFFF" height="77.5186" style="stroke:#181818;stroke-width:1.0;" width="10" x="1228.5" y="179.4941"/><rect fill="#FFFFFF" height="77.5186" style="stroke:#181818;stroke-width:1.0;" width="10" x="1356.5" y="334.5313"/><rect fill="#FFFFFF" height="77.5186" style="stroke:#181818;stroke-width:1.0;" width="10" x="1509.5" y="489.5684"/><rect fill="#FFFFFF" height="31.291" style="stroke:#181818;stroke-width:1.0;" width="10" x="1509.5" y="707.1875"/><rect fill="#FFFFFF" height="31.291" style="stroke:#181818;stroke-width:1.0;" width="10" x="1702" y="644.6055"/><polygon fill="#181818" points="243.5,112.9121,253.5,116.9121,243.5,120.9121,247.5,116.9121" style="stroke:#181818;stroke-width:1.0;"/><line style="stroke:#181818;stroke-width:1.0;" x1="65.5" x2="249.5" y1="116.9121" y2="116.9121"/><text fill="#000000" font-family="sans-serif" font-size="13" font-weight="bold" lengthAdjust="spacing" textLength="7" x="72.5" y="111.6494">1</text><text fill="#000000" font-family="sans-serif" font-size="13" lengthAdjust="spacing" textLength="160" x="83.5" y="111.6494">POST /subscriptions/create</text><polygon fill="#181818" points="639.5,144.2031,649.5,148.2031,639.5,152.2031,643.5,148.2031" style="stroke:#181818;stroke-width:1.0;"/><line style="stroke:#181818;stroke-width:1.0;" x1="265.5" x2="645.5" y1="148.2031" y2="148.2031"/><text fill="#000000" font-family="sans-serif" font-size="13" font-weight="bold" lengthAdjust="spacing" textLength="7" x="272.5" y="142.9404">2</text><text fill="#000000" font-family="sans-serif" font-size="13" lengthAdjust="spacing" textLength="356" x="283.5" y="142.9404">subscriptions = create(CreateSubscriptionsRequest resource)</text><polygon fill="#181818" points="1216.5,175.4941,1226.5,179.4941,1216.5,183.4941,1220.5,179.4941" style="stroke:#181818;stroke-width:1.0;"/><line style="stroke:#181818;stroke-width:1.0;" x1="661.5" x2="1222.5" y1="179.4941" y2="179.4941"/><text fill="#000000" font-family="sans-serif" font-size="13" font-weight="bold" lengthAdjust="spacing" textLength="7" x="668.5" y="174.2314">3</text><text fill="#000000" font-family="sans-serif" font-size="13" lengthAdjust="spacing" textLength="537" x="679.5" y="174.2314">Plans plan = plansRepository.findByActive_ActiveAndName_Name(true, resource.getName())</text><polygon fill="#181818" points="672.5,253.0127,662.5,257.0127,672.5,261.0127,668.5,257.0127" style="stroke:#181818;stroke-width:1.0;"/><line style="stroke:#181818;stroke-width:1.0;stroke-dasharray:2.0,2.0;" x1="666.5" x2="1232.5" y1="257.0127" y2="257.0127"/><text fill="#000000" font-family="sans-serif" font-size="13" font-weight="bold" lengthAdjust="spacing" textLength="7" x="678.5" y="251.75">4</text><text fill="#000000" font-family="sans-serif" font-size="13" lengthAdjust="spacing" textLength="31" x="689.5" y="251.75">plans</text><path d="M1243,192.4941 L1243,305.4941 L1507,305.4941 L1507,202.4941 L1497,192.4941 L1243,192.4941 " fill="#FEFFDD" style="stroke:#181818;stroke-width:0.5;"/><path d="M1497,192.4941 L1497,202.4941 L1507,202.4941 L1497,192.4941 " fill="#FEFFDD" style="stroke:#181818;stroke-width:0.5;"/><text fill="#000000" font-family="sans-serif" font-size="13" lengthAdjust="spacing" textLength="243" x="1249" y="211.5225">This retrieves the information of the logged</text><text fill="#000000" font-family="sans-serif" font-size="13" lengthAdjust="spacing" textLength="155" x="1249" y="228.8135">in user from the repository.</text><text fill="#000000" font-family="sans-serif" font-size="13" lengthAdjust="spacing" textLength="197" x="1249" y="246.1045">if the user is trying to subscribe to</text><text fill="#000000" font-family="sans-serif" font-size="13" lengthAdjust="spacing" textLength="221" x="1249" y="263.3955">a plan with a name that does not exist</text><text fill="#000000" font-family="sans-serif" font-size="13" lengthAdjust="spacing" textLength="197" x="1249" y="280.6865">the code will end here and throw a</text><text fill="#000000" font-family="sans-serif" font-size="13" lengthAdjust="spacing" textLength="148" x="1249" y="297.9775">EntityNotFoundException</text><polygon fill="#181818" points="1344.5,330.5313,1354.5,334.5313,1344.5,338.5313,1348.5,334.5313" style="stroke:#181818;stroke-width:1.0;"/><line style="stroke:#181818;stroke-width:1.0;" x1="661.5" x2="1350.5" y1="334.5313" y2="334.5313"/><text fill="#000000" font-family="sans-serif" font-size="13" font-weight="bold" lengthAdjust="spacing" textLength="7" x="668.5" y="329.2686">5</text><text fill="#000000" font-family="sans-serif" font-size="13" lengthAdjust="spacing" textLength="356" x="679.5" y="329.2686">User user = userRepository.findById(Long.valueOf(newString))</text><polygon fill="#181818" points="672.5,408.0498,662.5,412.0498,672.5,416.0498,668.5,412.0498" style="stroke:#181818;stroke-width:1.0;"/><line style="stroke:#181818;stroke-width:1.0;stroke-dasharray:2.0,2.0;" x1="666.5" x2="1360.5" y1="412.0498" y2="412.0498"/><text fill="#000000" font-family="sans-serif" font-size="13" font-weight="bold" lengthAdjust="spacing" textLength="7" x="678.5" y="406.7871">6</text><text fill="#000000" font-family="sans-serif" font-size="13" lengthAdjust="spacing" textLength="25" x="689.5" y="406.7871">user</text><path d="M1371,347.5313 L1371,460.5313 L1576,460.5313 L1576,357.5313 L1566,347.5313 L1371,347.5313 " fill="#FEFFDD" style="stroke:#181818;stroke-width:0.5;"/><path d="M1566,347.5313 L1566,357.5313 L1576,357.5313 L1566,347.5313 " fill="#FEFFDD" style="stroke:#181818;stroke-width:0.5;"/><text fill="#000000" font-family="sans-serif" font-size="13" lengthAdjust="spacing" textLength="57" x="1377" y="366.5596">if the user</text><text fill="#000000" font-family="sans-serif" font-size="13" lengthAdjust="spacing" textLength="148" x="1377" y="383.8506">who is trying to subscribe</text><text fill="#000000" font-family="sans-serif" font-size="13" lengthAdjust="spacing" textLength="179" x="1377" y="401.1416">is does not exist in the system</text><text fill="#000000" font-family="sans-serif" font-size="13" lengthAdjust="spacing" textLength="72" x="1377" y="418.4326">the code will</text><text fill="#000000" font-family="sans-serif" font-size="13" lengthAdjust="spacing" textLength="110" x="1377" y="435.7236">end here and throw</text><text fill="#000000" font-family="sans-serif" font-size="13" lengthAdjust="spacing" textLength="184" x="1377" y="453.0146">a UsernameNotFoundException</text><polygon fill="#181818" points="1497.5,485.5684,1507.5,489.5684,1497.5,493.5684,1501.5,489.5684" style="stroke:#181818;stroke-width:1.0;"/><line style="stroke:#181818;stroke-width:1.0;" x1="661.5" x2="1503.5" y1="489.5684" y2="489.5684"/><text fill="#000000" font-family="sans-serif" font-size="13" font-weight="bold" lengthAdjust="spacing" textLength="7" x="668.5" y="484.3057">7</text><text fill="#000000" font-family="sans-serif" font-size="13" lengthAdjust="spacing" textLength="441" x="679.5" y="484.3057">Optional &lt;Subscriptions&gt; existingSubscription = repository.findByUser(user)</text><polygon fill="#181818" points="672.5,563.0869,662.5,567.0869,672.5,571.0869,668.5,567.0869" style="stroke:#181818;stroke-width:1.0;"/><line style="stroke:#181818;stroke-width:1.0;stroke-dasharray:2.0,2.0;" x1="666.5" x2="1513.5" y1="567.0869" y2="567.0869"/><text fill="#000000" font-family="sans-serif" font-size="13" font-weight="bold" lengthAdjust="spacing" textLength="7" x="678.5" y="561.8242">8</text><text fill="#000000" font-family="sans-serif" font-size="13" lengthAdjust="spacing" textLength="77" x="689.5" y="561.8242">subscriptions</text><path d="M1524,502.5684 L1524,615.5684 L1703,615.5684 L1703,512.5684 L1693,502.5684 L1524,502.5684 " fill="#FEFFDD" style="stroke:#181818;stroke-width:0.5;"/><path d="M1693,502.5684 L1693,512.5684 L1703,512.5684 L1693,502.5684 " fill="#FEFFDD" style="stroke:#181818;stroke-width:0.5;"/><text fill="#000000" font-family="sans-serif" font-size="13" lengthAdjust="spacing" textLength="57" x="1530" y="521.5967">if the user</text><text fill="#000000" font-family="sans-serif" font-size="13" lengthAdjust="spacing" textLength="148" x="1530" y="538.8877">who is trying to subscribe</text><text fill="#000000" font-family="sans-serif" font-size="13" lengthAdjust="spacing" textLength="156" x="1530" y="556.1787">already has a subscription,</text><text fill="#000000" font-family="sans-serif" font-size="13" lengthAdjust="spacing" textLength="72" x="1530" y="573.4697">the code will</text><text fill="#000000" font-family="sans-serif" font-size="13" lengthAdjust="spacing" textLength="110" x="1530" y="590.7607">end here and throw</text><text fill="#000000" font-family="sans-serif" font-size="13" lengthAdjust="spacing" textLength="158" x="1530" y="608.0518">a IllegalArgumentException</text><polygon fill="#181818" points="1690,640.6055,1700,644.6055,1690,648.6055,1694,644.6055" style="stroke:#181818;stroke-width:1.0;"/><line style="stroke:#181818;stroke-width:1.0;" x1="661.5" x2="1696" y1="644.6055" y2="644.6055"/><text fill="#000000" font-family="sans-serif" font-size="13" font-weight="bold" lengthAdjust="spacing" textLength="7" x="668.5" y="639.3428">9</text><text fill="#000000" font-family="sans-serif" font-size="13" lengthAdjust="spacing" textLength="441" x="679.5" y="639.3428">Subscriptions obj = createSubscriptionsMapper.create(user, plan, resource);</text><polygon fill="#181818" points="672.5,671.8965,662.5,675.8965,672.5,679.8965,668.5,675.8965" style="stroke:#181818;stroke-width:1.0;"/><line style="stroke:#181818;stroke-width:1.0;stroke-dasharray:2.0,2.0;" x1="666.5" x2="1706" y1="675.8965" y2="675.8965"/><text fill="#000000" font-family="sans-serif" font-size="13" font-weight="bold" lengthAdjust="spacing" textLength="14" x="678.5" y="670.6338">10</text><text fill="#000000" font-family="sans-serif" font-size="13" lengthAdjust="spacing" textLength="17" x="696.5" y="670.6338">obj</text><polygon fill="#181818" points="1497.5,703.1875,1507.5,707.1875,1497.5,711.1875,1501.5,707.1875" style="stroke:#181818;stroke-width:1.0;"/><line style="stroke:#181818;stroke-width:1.0;" x1="661.5" x2="1503.5" y1="707.1875" y2="707.1875"/><text fill="#000000" font-family="sans-serif" font-size="13" font-weight="bold" lengthAdjust="spacing" textLength="14" x="668.5" y="701.9248">11</text><text fill="#000000" font-family="sans-serif" font-size="13" lengthAdjust="spacing" textLength="51" x="686.5" y="701.9248">save(obj)</text><polygon fill="#181818" points="672.5,734.4785,662.5,738.4785,672.5,742.4785,668.5,738.4785" style="stroke:#181818;stroke-width:1.0;"/><line style="stroke:#181818;stroke-width:1.0;stroke-dasharray:2.0,2.0;" x1="666.5" x2="1513.5" y1="738.4785" y2="738.4785"/><text fill="#000000" font-family="sans-serif" font-size="13" font-weight="bold" lengthAdjust="spacing" textLength="14" x="678.5" y="733.2158">12</text><text fill="#000000" font-family="sans-serif" font-size="13" lengthAdjust="spacing" textLength="17" x="696.5" y="733.2158">obj</text><polygon fill="#181818" points="276.5,794.7061,266.5,798.7061,276.5,802.7061,272.5,798.7061" style="stroke:#181818;stroke-width:1.0;"/><line style="stroke:#181818;stroke-width:1.0;stroke-dasharray:2.0,2.0;" x1="270.5" x2="655.5" y1="798.7061" y2="798.7061"/><text fill="#000000" font-family="sans-serif" font-size="13" font-weight="bold" lengthAdjust="spacing" textLength="14" x="282.5" y="793.4434">13</text><text fill="#000000" font-family="sans-serif" font-size="13" lengthAdjust="spacing" textLength="17" x="300.5" y="793.4434">obj</text><path d="M5,751.4785 L5,830.4785 L251,830.4785 L251,761.4785 L241,751.4785 L5,751.4785 " fill="#FEFFDD" style="stroke:#181818;stroke-width:0.5;"/><path d="M241,751.4785 L241,761.4785 L251,761.4785 L241,751.4785 " fill="#FEFFDD" style="stroke:#181818;stroke-width:0.5;"/><text fill="#000000" font-family="sans-serif" font-size="13" lengthAdjust="spacing" textLength="135" x="11" y="770.5068">The controller here also</text><text fill="#000000" font-family="sans-serif" font-size="13" lengthAdjust="spacing" textLength="157" x="11" y="787.7979">creates an ResponseEntity</text><text fill="#000000" font-family="sans-serif" font-size="13" lengthAdjust="spacing" textLength="166" x="11" y="805.0889">to show the user the obj with</text><text fill="#000000" font-family="sans-serif" font-size="13" lengthAdjust="spacing" textLength="225" x="11" y="822.3799">"subscriptionsViewMapper" as objView</text><polygon fill="#181818" points="76.5,854.9336,66.5,858.9336,76.5,862.9336,72.5,858.9336" style="stroke:#181818;stroke-width:1.0;"/><line style="stroke:#181818;stroke-width:1.0;stroke-dasharray:2.0,2.0;" x1="70.5" x2="259.5" y1="858.9336" y2="858.9336"/><text fill="#000000" font-family="sans-serif" font-size="13" font-weight="bold" lengthAdjust="spacing" textLength="14" x="82.5" y="853.6709">14</text><text fill="#000000" font-family="sans-serif" font-size="13" lengthAdjust="spacing" textLength="45" x="100.5" y="853.6709">objView</text><!--SRC=[dPHHRzem4CVV_IbEl0oa0k-ihSHG9rNQIWNTNYkJ78adnyvi1ygttvsJ00cqglO2zlb_bxkVVVSb3w7qi-cqrDA4gj2Jn1PJZtyhD0cEKoKp9miXgs1b4jHE1WHhujvKnGQT488Eh8F14-vXOJq5GJS0wM6UY5Awe19LKcmOpDRLnYTEbK5PunVM16UrRiIBuFH7yZMwdKemQddTqpvJ-dw5fVMAaZb46TlOr9F-ykXwojRqKG8z5pgxuh5mI8GwVZzbMJOrrainJs1y7mk66JmlroymzUSUqoH64L51IYwNb1qDt46j6bxvv8glpmTmw6tb4Xo96892jKYW1WPywnIgxDARR9L9lntcVE7uMl_DJVea2tpbds5m5TuSmqyo3D4y6edZ1yQdn6DqOImz7QUoF0Y0brnvyWzEuGuzX1n1cQrrXUG2m6wZITiimvJaoa15LmHRPujuuawvyd4jZnAA6zn1cGo2RP5ja3QaatMzUnLoMXjAcVnaWDHI3fGVu9lod1v7IsoA9DKQqAIGeqEGj0YvitkG97emGON3amtVRMNIXxS48tt1SYvM7ActpmlYswlpl8j_5ymVq-4FQxB9JkeAbzkXmVsQA9cCs1x3dB7b8ABBzem6xVQvVOS9ItslTYRDplxW0nPz4hI_P16vSchCypCqciw1sJ8gf8RRpkkzhrEXTC_D1CprOV5NXrmdFV0cwFYTVlb_Hb9JWwK7oAc1PIVepUVvFDASowIUkuocemaVuQc717I73zZDdsFBNnalasOOS44tyPMVsdFqLJGnMpWp3jU_3m8cTpYaaqkQvmxDwAfD3LQDMwBw4bcqKxt1e3rrNfqTyJEmGbzIsbXtZuYqS-geOmFpWglbBXKmwDpYRuNxitbAChQS8D9alHsFsz7Q7ly3]--></g></svg>