<?xml version="1.0" encoding="us-ascii" standalone="no"?><svg xmlns="http://www.w3.org/2000/svg" xmlns:xlink="http://www.w3.org/1999/xlink" contentStyleType="text/css" height="419px" preserveAspectRatio="none" style="width:477px;height:419px;background:#FFFFFF;" version="1.1" viewBox="0 0 477 419" width="477px" zoomAndPan="magnify"><defs/><g><rect fill="#FFFFFF" height="232.377" style="stroke:#181818;stroke-width:1.0;" width="10" x="63.5" y="93.6211"/><rect fill="#FFFFFF" height="154.7949" style="stroke:#181818;stroke-width:1.0;" width="10" x="252.5" y="156.2031"/><rect fill="none" height="142.7949" style="stroke:#000000;stroke-width:1.5;" width="460.5" x="10" y="176.2031"/><line style="stroke:#181818;stroke-width:0.5;stroke-dasharray:5.0,5.0;" x1="68" x2="68" y1="83.6211" y2="335.998"/><line style="stroke:#181818;stroke-width:0.5;stroke-dasharray:5.0,5.0;" x1="257.5" x2="257.5" y1="83.6211" y2="335.998"/><text fill="#000000" font-family="sans-serif" font-size="14" lengthAdjust="spacing" textLength="91" x="20" y="80.1074">New Costumer</text><ellipse cx="68.5" cy="13.5" fill="#E2E2F0" rx="8" ry="8" style="stroke:#181818;stroke-width:0.5;"/><path d="M68.5,21.5 L68.5,48.5 M55.5,29.5 L81.5,29.5 M68.5,48.5 L55.5,63.5 M68.5,48.5 L81.5,63.5 " fill="none" style="stroke:#181818;stroke-width:0.5;"/><text fill="#000000" font-family="sans-serif" font-size="14" lengthAdjust="spacing" textLength="91" x="20" y="350.1055">New Costumer</text><ellipse cx="68.5" cy="362.1191" fill="#E2E2F0" rx="8" ry="8" style="stroke:#181818;stroke-width:0.5;"/><path d="M68.5,370.1191 L68.5,397.1191 M55.5,378.1191 L81.5,378.1191 M68.5,397.1191 L55.5,412.1191 M68.5,397.1191 L81.5,412.1191 " fill="none" style="stroke:#181818;stroke-width:0.5;"/><rect fill="#E2E2F0" height="32.6211" rx="2.5" ry="2.5" style="stroke:#181818;stroke-width:0.5;" width="64" x="225.5" y="50"/><text fill="#000000" font-family="sans-serif" font-size="14" lengthAdjust="spacing" textLength="50" x="232.5" y="72.1074">:System</text><rect fill="#E2E2F0" height="32.6211" rx="2.5" ry="2.5" style="stroke:#181818;stroke-width:0.5;" width="64" x="225.5" y="334.998"/><text fill="#000000" font-family="sans-serif" font-size="14" lengthAdjust="spacing" textLength="50" x="232.5" y="357.1055">:System</text><rect fill="#FFFFFF" height="232.377" style="stroke:#181818;stroke-width:1.0;" width="10" x="63.5" y="93.6211"/><rect fill="#FFFFFF" height="154.7949" style="stroke:#181818;stroke-width:1.0;" width="10" x="252.5" y="156.2031"/><polygon fill="#181818" points="245.5,112.9121,255.5,116.9121,245.5,120.9121,249.5,116.9121" style="stroke:#181818;stroke-width:1.0;"/><line style="stroke:#181818;stroke-width:1.0;" x1="73.5" x2="251.5" y1="116.9121" y2="116.9121"/><text fill="#000000" font-family="sans-serif" font-size="13" lengthAdjust="spacing" textLength="160" x="80.5" y="111.6494">POST /subscriptions/create</text><line style="stroke:#181818;stroke-width:1.0;stroke-dasharray:2.0,2.0;" x1="257.5" x2="304.5" y1="143.2031" y2="143.2031"/><line style="stroke:#181818;stroke-width:1.0;stroke-dasharray:2.0,2.0;" x1="304.5" x2="304.5" y1="143.2031" y2="156.2031"/><line style="stroke:#181818;stroke-width:1.0;stroke-dasharray:2.0,2.0;" x1="263.5" x2="304.5" y1="156.2031" y2="156.2031"/><polygon fill="#181818" points="273.5,152.2031,263.5,156.2031,273.5,160.2031,269.5,156.2031" style="stroke:#181818;stroke-width:1.0;"/><text fill="#000000" font-family="sans-serif" font-size="13" lengthAdjust="spacing" textLength="117" x="269.5" y="137.9404">Gets data from Post</text><path d="M10,176.2031 L71,176.2031 L71,185.4941 L61,195.4941 L10,195.4941 L10,176.2031 " fill="#EEEEEE" style="stroke:#000000;stroke-width:1.5;"/><rect fill="none" height="142.7949" style="stroke:#000000;stroke-width:1.5;" width="460.5" x="10" y="176.2031"/><text fill="#000000" font-family="sans-serif" font-size="13" font-weight="bold" lengthAdjust="spacing" textLength="16" x="25" y="191.2314">alt</text><text fill="#000000" font-family="sans-serif" font-size="11" font-weight="bold" lengthAdjust="spacing" textLength="197" x="86" y="190.0732">[successful case - data is accepted]</text><line style="stroke:#181818;stroke-width:1.0;stroke-dasharray:2.0,2.0;" x1="262.5" x2="304.5" y1="218.7852" y2="218.7852"/><line style="stroke:#181818;stroke-width:1.0;stroke-dasharray:2.0,2.0;" x1="304.5" x2="304.5" y1="218.7852" y2="231.7852"/><line style="stroke:#181818;stroke-width:1.0;stroke-dasharray:2.0,2.0;" x1="263.5" x2="304.5" y1="231.7852" y2="231.7852"/><polygon fill="#181818" points="273.5,227.7852,263.5,231.7852,273.5,235.7852,269.5,231.7852" style="stroke:#181818;stroke-width:1.0;"/><text fill="#000000" font-family="sans-serif" font-size="13" lengthAdjust="spacing" textLength="189" x="269.5" y="213.5225">Advance to create a subscription</text><polygon fill="#181818" points="84.5,259.0762,74.5,263.0762,84.5,267.0762,80.5,263.0762" style="stroke:#181818;stroke-width:1.0;"/><line style="stroke:#181818;stroke-width:1.0;stroke-dasharray:2.0,2.0;" x1="78.5" x2="251.5" y1="263.0762" y2="263.0762"/><text fill="#000000" font-family="sans-serif" font-size="13" lengthAdjust="spacing" textLength="152" x="90.5" y="257.8135">Informs operation success</text><line style="stroke:#000000;stroke-width:1.0;stroke-dasharray:2.0,2.0;" x1="10" x2="470.5" y1="272.0762" y2="272.0762"/><text fill="#000000" font-family="sans-serif" font-size="11" font-weight="bold" lengthAdjust="spacing" textLength="192" x="15" y="283.9463">[failure case - data is not accepted]</text><polygon fill="#181818" points="84.5,306.998,74.5,310.998,84.5,314.998,80.5,310.998" style="stroke:#181818;stroke-width:1.0;"/><line style="stroke:#181818;stroke-width:1.0;stroke-dasharray:2.0,2.0;" x1="78.5" x2="256.5" y1="310.998" y2="310.998"/><text fill="#000000" font-family="sans-serif" font-size="13" lengthAdjust="spacing" textLength="126" x="90.5" y="305.7354">Shows error message</text><!--SRC=[VP3DQiD038Jl-nJ2bvvSttqeb1fA3qa3xWkektAoi3-kf4testTDQ1rCw57CQFID7awgi_HTDmTCMc9uj3bsGb-5agNMUJmoHeDMCqEpfmkyPAa-uWPGO3UOHVDdL5g6tG3j4pJz-2rAiO4U3k_Z1tHIFiModzNd99rbgdwpsjhDqYkfW4D5c3X7EDIJ1eE256j9P2e1B0f1UpLv0Qp2hEHMch-yV-uykpFMcg0Phao0S8kwMQtjUdXBK-Oea6TYN4o_LCPGg4mJ-b2Oje0fwmfvBtSyvOi0CTT7nng7HpAExjGnbDojiXj-0000]--></g></svg>