<?xml version="1.0" encoding="us-ascii" standalone="no"?><svg xmlns="http://www.w3.org/2000/svg" xmlns:xlink="http://www.w3.org/1999/xlink" contentStyleType="text/css" height="594px" preserveAspectRatio="none" style="width:1867px;height:594px;background:#FFFFFF;" version="1.1" viewBox="0 0 1867 594" width="1867px" zoomAndPan="magnify"><defs/><g><!--class SubscriptionsRepository--><g id="elem_SubscriptionsRepository"><rect codeLine="43" fill="#F1F1F1" height="97.8242" id="SubscriptionsRepository" rx="2.5" ry="2.5" style="stroke:#181818;stroke-width:0.5;" width="327" x="7" y="291"/><text fill="#000000" font-family="sans-serif" font-size="12" font-style="italic" lengthAdjust="spacing" textLength="61" x="140" y="308.9492">&#171;interface&#187;</text><text fill="#000000" font-family="sans-serif" font-size="14" font-style="italic" lengthAdjust="spacing" textLength="153" x="94" y="327.0684">SubscriptionsRepository</text><line style="stroke:#181818;stroke-width:0.5;" x1="8" x2="333" y1="335.582" y2="335.582"/><line style="stroke:#181818;stroke-width:0.5;" x1="8" x2="333" y1="343.582" y2="343.582"/><ellipse cx="18" cy="358.3926" fill="#84BE84" rx="3" ry="3" style="stroke:#038048;stroke-width:1.0;"/><text fill="#000000" font-family="sans-serif" font-size="14" lengthAdjust="spacing" textLength="301" x="27" y="362.6895">findByUser(User user): Optional&lt;Subscriptions&gt;</text><ellipse cx="18" cy="377.0137" fill="#84BE84" rx="3" ry="3" style="stroke:#038048;stroke-width:1.0;"/><text fill="#000000" font-family="sans-serif" font-size="14" lengthAdjust="spacing" textLength="266" x="27" y="381.3105">save(S entity) : &lt;S extends Subscriptions&gt;</text></g><!--class UserRepository--><g id="elem_UserRepository"><rect codeLine="37" fill="#F1F1F1" height="79.2031" id="UserRepository" rx="2.5" ry="2.5" style="stroke:#181818;stroke-width:0.5;" width="277" x="369" y="300.5"/><text fill="#000000" font-family="sans-serif" font-size="12" font-style="italic" lengthAdjust="spacing" textLength="61" x="477" y="318.4492">&#171;interface&#187;</text><text fill="#000000" font-family="sans-serif" font-size="14" font-style="italic" lengthAdjust="spacing" textLength="98" x="458.5" y="336.5684">UserRepository</text><line style="stroke:#181818;stroke-width:0.5;" x1="370" x2="645" y1="345.082" y2="345.082"/><line style="stroke:#181818;stroke-width:0.5;" x1="370" x2="645" y1="353.082" y2="353.082"/><ellipse cx="380" cy="367.8926" fill="#84BE84" rx="3" ry="3" style="stroke:#038048;stroke-width:1.0;"/><text fill="#000000" font-family="sans-serif" font-size="14" lengthAdjust="spacing" textLength="251" x="389" y="372.1895">findById(Long objectId): Optional&lt;User&gt;</text></g><!--class PlansRepository--><g id="elem_PlansRepository"><rect codeLine="32" fill="#F1F1F1" height="79.2031" id="PlansRepository" rx="2.5" ry="2.5" style="stroke:#181818;stroke-width:0.5;" width="603" x="681" y="300.5"/><text fill="#000000" font-family="sans-serif" font-size="12" font-style="italic" lengthAdjust="spacing" textLength="61" x="952" y="318.4492">&#171;interface&#187;</text><text fill="#000000" font-family="sans-serif" font-size="14" font-style="italic" lengthAdjust="spacing" textLength="103" x="931" y="336.5684">PlansRepository</text><line style="stroke:#181818;stroke-width:0.5;" x1="682" x2="1283" y1="345.082" y2="345.082"/><line style="stroke:#181818;stroke-width:0.5;" x1="682" x2="1283" y1="353.082" y2="353.082"/><ellipse cx="692" cy="367.8926" fill="#84BE84" rx="3" ry="3" style="stroke:#038048;stroke-width:1.0;"/><text fill="#000000" font-family="sans-serif" font-size="14" lengthAdjust="spacing" textLength="577" x="701" y="372.1895">findByActive_ActiveAndName_Name(boolean active, String name_name)  : Optional&lt;Plans&gt;</text></g><!--class Subscriptions--><g id="elem_Subscriptions"><rect codeLine="8" fill="#F1F1F1" height="119.1055" id="Subscriptions" rx="2.5" ry="2.5" style="stroke:#181818;stroke-width:0.5;" width="112" x="114.5" y="468"/><text fill="#000000" font-family="sans-serif" font-size="14" lengthAdjust="spacing" textLength="85" x="128" y="488.1074">Subscriptions</text><line style="stroke:#181818;stroke-width:0.5;" x1="115.5" x2="225.5" y1="496.6211" y2="496.6211"/><rect fill="none" height="6" style="stroke:#C82930;stroke-width:1.0;" width="6" x="122.5" y="508.4316"/><text fill="#000000" font-family="sans-serif" font-size="14" lengthAdjust="spacing" textLength="58" x="134.5" y="515.7285">startDate</text><rect fill="none" height="6" style="stroke:#C82930;stroke-width:1.0;" width="6" x="122.5" y="527.0527"/><text fill="#000000" font-family="sans-serif" font-size="14" lengthAdjust="spacing" textLength="54" x="134.5" y="534.3496">endDate</text><rect fill="none" height="6" style="stroke:#C82930;stroke-width:1.0;" width="6" x="122.5" y="545.6738"/><text fill="#000000" font-family="sans-serif" font-size="14" lengthAdjust="spacing" textLength="86" x="134.5" y="552.9707">paymentType</text><rect fill="none" height="6" style="stroke:#C82930;stroke-width:1.0;" width="6" x="122.5" y="564.2949"/><text fill="#000000" font-family="sans-serif" font-size="14" lengthAdjust="spacing" textLength="77" x="134.5" y="571.5918">activeStatus</text><line style="stroke:#181818;stroke-width:0.5;" x1="115.5" x2="225.5" y1="579.1055" y2="579.1055"/></g><!--class SubscriptionsViewMapper--><g id="elem_SubscriptionsViewMapper"><rect codeLine="17" fill="#F1F1F1" height="63.2422" id="SubscriptionsViewMapper" rx="2.5" ry="2.5" style="stroke:#181818;stroke-width:0.5;" width="445" x="66" y="149"/><text fill="#000000" font-family="sans-serif" font-size="14" lengthAdjust="spacing" textLength="162" x="207.5" y="169.1074">SubscriptionsViewMapper</text><line style="stroke:#181818;stroke-width:0.5;" x1="67" x2="510" y1="177.6211" y2="177.6211"/><line style="stroke:#181818;stroke-width:0.5;" x1="67" x2="510" y1="185.6211" y2="185.6211"/><ellipse cx="77" cy="200.4316" fill="#84BE84" rx="3" ry="3" style="stroke:#038048;stroke-width:1.0;"/><text fill="#000000" font-family="sans-serif" font-size="14" lengthAdjust="spacing" textLength="419" x="86" y="204.7285">toSubscriptionsView(Subscription subscriptions):SubscriptionsView</text></g><!--class SubscriptionsController--><g id="elem_SubscriptionsController"><rect codeLine="20" fill="#F1F1F1" height="63.2422" id="SubscriptionsController" rx="2.5" ry="2.5" style="stroke:#181818;stroke-width:0.5;" width="566" x="46.5" y="7"/><text fill="#000000" font-family="sans-serif" font-size="14" lengthAdjust="spacing" textLength="147" x="256" y="27.1074">SubscriptionsController</text><line style="stroke:#181818;stroke-width:0.5;" x1="47.5" x2="611.5" y1="35.6211" y2="35.6211"/><line style="stroke:#181818;stroke-width:0.5;" x1="47.5" x2="611.5" y1="43.6211" y2="43.6211"/><text fill="#000000" font-family="sans-serif" font-size="14" lengthAdjust="spacing" textLength="554" x="52.5" y="62.7285">create(final CreateSubscriptionsRequest resource):ResponseEntity&lt;SubscriptionsView&gt;</text></g><!--class SubscriptionsService--><g id="elem_SubscriptionsService"><rect codeLine="23" fill="#F1F1F1" height="63.2422" id="SubscriptionsService" rx="2.5" ry="2.5" style="stroke:#181818;stroke-width:0.5;" width="398" x="546.5" y="149"/><text fill="#000000" font-family="sans-serif" font-size="14" lengthAdjust="spacing" textLength="132" x="679.5" y="169.1074">SubscriptionsService</text><line style="stroke:#181818;stroke-width:0.5;" x1="547.5" x2="943.5" y1="177.6211" y2="177.6211"/><line style="stroke:#181818;stroke-width:0.5;" x1="547.5" x2="943.5" y1="185.6211" y2="185.6211"/><ellipse cx="557.5" cy="200.4316" fill="#84BE84" rx="3" ry="3" style="stroke:#038048;stroke-width:1.0;"/><text fill="#000000" font-family="sans-serif" font-size="14" lengthAdjust="spacing" textLength="372" x="566.5" y="204.7285">create(createSubscriptionsMapper resource):Subscriptions</text></g><!--class CreateSubscriptionsMapper--><g id="elem_CreateSubscriptionsMapper"><rect codeLine="28" fill="#F1F1F1" height="63.2422" id="CreateSubscriptionsMapper" rx="2.5" ry="2.5" style="stroke:#181818;stroke-width:0.5;" width="541" x="1319" y="308.5"/><text fill="#000000" font-family="sans-serif" font-size="14" lengthAdjust="spacing" textLength="176" x="1501.5" y="328.6074">CreateSubscriptionsMapper</text><line style="stroke:#181818;stroke-width:0.5;" x1="1320" x2="1859" y1="337.1211" y2="337.1211"/><line style="stroke:#181818;stroke-width:0.5;" x1="1320" x2="1859" y1="345.1211" y2="345.1211"/><ellipse cx="1330" cy="359.9316" fill="#84BE84" rx="3" ry="3" style="stroke:#038048;stroke-width:1.0;"/><text fill="#000000" font-family="sans-serif" font-size="14" lengthAdjust="spacing" textLength="515" x="1339" y="364.2285">create(User user, Plans plan, CreateSubscriptionsRequest request):Subscriptions</text></g><!--link SubscriptionsController to SubscriptionsService--><g id="link_SubscriptionsController_SubscriptionsService"><path codeLine="51" d="M420.28,70.05 C488.1,92.88 580.61,124.01 649.63,147.24 " fill="none" id="SubscriptionsController-to-SubscriptionsService" style="stroke:#181818;stroke-width:1.0;stroke-dasharray:7.0,7.0;"/><polygon fill="#181818" points="654.56,148.89,647.3108,142.223,649.8223,147.2917,644.7536,149.8033,654.56,148.89" style="stroke:#181818;stroke-width:1.0;"/><polygon fill="#000000" points="571.2388,111.2404,563.6037,105.5698,561.7288,111.1406,571.2388,111.2404" style="stroke:#000000;stroke-width:1.0;"/><text fill="#000000" font-family="sans-serif" font-size="13" lengthAdjust="spacing" textLength="28" x="575.5" y="115.0283">uses</text></g><!--link SubscriptionsService to SubscriptionsRepository--><g id="link_SubscriptionsService_SubscriptionsRepository"><path codeLine="52" d="M633.95,212.05 C550.29,234.97 434.33,266.73 339.34,292.75 " fill="none" id="SubscriptionsService-to-SubscriptionsRepository" style="stroke:#181818;stroke-width:1.0;stroke-dasharray:7.0,7.0;"/><polygon fill="#181818" points="334.26,294.14,343.9957,295.6286,339.0835,292.8232,341.8888,287.911,334.26,294.14" style="stroke:#181818;stroke-width:1.0;"/><polygon fill="#000000" points="509.6776,252.9665,519.1778,253.4113,517.6249,247.7423,509.6776,252.9665" style="stroke:#000000;stroke-width:1.0;"/><text fill="#000000" font-family="sans-serif" font-size="13" lengthAdjust="spacing" textLength="28" x="523.5" y="257.0283">uses</text></g><!--link SubscriptionsService to PlansRepository--><g id="link_SubscriptionsService_PlansRepository"><path codeLine="53" d="M791.48,212.05 C828.1,236.39 879.75,270.71 920.1,297.53 " fill="none" id="SubscriptionsService-to-PlansRepository" style="stroke:#181818;stroke-width:1.0;stroke-dasharray:7.0,7.0;"/><polygon fill="#181818" points="924.47,300.44,919.1674,292.1404,920.2988,297.683,914.7562,298.8144,924.47,300.44" style="stroke:#181818;stroke-width:1.0;"/><polygon fill="#000000" points="872.6642,254.413,866.7578,246.9589,863.5044,251.8542,872.6642,254.413" style="stroke:#000000;stroke-width:1.0;"/><text fill="#000000" font-family="sans-serif" font-size="13" lengthAdjust="spacing" textLength="28" x="877.5" y="257.0283">uses</text></g><!--link SubscriptionsService to UserRepository--><g id="link_SubscriptionsService_UserRepository"><path codeLine="54" d="M699.33,212.05 C662.55,236.39 610.69,270.71 570.16,297.53 " fill="none" id="SubscriptionsService-to-UserRepository" style="stroke:#181818;stroke-width:1.0;stroke-dasharray:7.0,7.0;"/><polygon fill="#181818" points="565.77,300.44,575.4838,298.8144,569.9412,297.683,571.0726,292.1404,565.77,300.44" style="stroke:#181818;stroke-width:1.0;"/><polygon fill="#000000" points="648.3303,254.4048,657.4952,251.864,654.2514,246.9623,648.3303,254.4048" style="stroke:#000000;stroke-width:1.0;"/><text fill="#000000" font-family="sans-serif" font-size="13" lengthAdjust="spacing" textLength="28" x="661.5" y="257.0283">uses</text></g><!--link SubscriptionsService to CreateSubscriptionsMapper--><g id="link_SubscriptionsService_CreateSubscriptionsMapper"><path codeLine="55" d="M908.98,212.01 C1056.17,239.48 1271.63,279.68 1420.5,307.46 " fill="none" id="SubscriptionsService-to-CreateSubscriptionsMapper" style="stroke:#181818;stroke-width:1.0;stroke-dasharray:7.0,7.0;"/><polygon fill="#181818" points="1425.77,308.45,1417.6535,302.8713,1420.8543,307.5355,1416.1902,310.7363,1425.77,308.45" style="stroke:#181818;stroke-width:1.0;"/><polygon fill="#000000" points="1177.4152,252.5627,1169.0627,248.0144,1167.9845,253.7926,1177.4152,252.5627" style="stroke:#000000;stroke-width:1.0;"/><text fill="#000000" font-family="sans-serif" font-size="13" lengthAdjust="spacing" textLength="28" x="1181.5" y="257.0283">uses</text></g><!--link SubscriptionsRepository to Subscriptions--><g id="link_SubscriptionsRepository_Subscriptions"><path codeLine="56" d="M170.5,389.25 C170.5,411.7 170.5,438.71 170.5,462.81 " fill="none" id="SubscriptionsRepository-to-Subscriptions" style="stroke:#181818;stroke-width:1.0;stroke-dasharray:7.0,7.0;"/><polygon fill="#181818" points="170.5,467.9,174.5,458.9,170.5,462.9,166.5,458.9,170.5,467.9" style="stroke:#181818;stroke-width:1.0;"/><polygon fill="#000000" points="175.5,423.6455,172.5611,432.6906,178.4389,432.6906,175.5,423.6455" style="stroke:#000000;stroke-width:1.0;"/><text fill="#000000" font-family="sans-serif" font-size="13" lengthAdjust="spacing" textLength="36" x="184.5" y="434.0283">record</text></g><!--link SubscriptionsController to SubscriptionsViewMapper--><g id="link_SubscriptionsController_SubscriptionsViewMapper"><path codeLine="58" d="M320.5,70.22 C314.15,91.92 305.61,121.07 298.95,143.81 " fill="none" id="SubscriptionsController-to-SubscriptionsViewMapper" style="stroke:#181818;stroke-width:1.0;stroke-dasharray:7.0,7.0;"/><polygon fill="#181818" points="297.48,148.85,303.84,141.33,298.88,144.05,296.16,139.09,297.48,148.85" style="stroke:#181818;stroke-width:1.0;"/><polygon fill="#000000" points="315.0948,114.444,320.4573,106.5894,314.8163,104.9375,315.0948,114.444" style="stroke:#000000;stroke-width:1.0;"/><text fill="#000000" font-family="sans-serif" font-size="13" lengthAdjust="spacing" textLength="28" x="325.5" y="115.0283">uses</text></g><!--SRC=[XPHDRvmm48Rl_XLpAsWtktU4aD9j3v6ID0fjhv7NJ197O5Dxs1H5_UyrXeJlB0SZCpFlOuzVy-MPgBJHVb_cN55Lv3kXYxt8kRKNcUHFXXViMMO8GXgH8_CHIAkZ5KQM9BMozrXgAqcR6k9OAaBpo0KcIPVxow8vatBdsEioR0aARmpSSs696_h62TifggoVbBmkKD7Fkkm-S47oX2bngYpxnvQLVqjylU5bYQP5R4ZFui7m2zXXE8ncsGwrm3beHKRd-Jj767Gh3nwbuZaS_6JIvZyLMWA3LbT6O1ZTeorT0ByhabJ7CsxYTHVXAPgJ5EZ8cuuhviIs2mFWACgQ3hRIXxNQheCTed42L6xOjYSEZUUsd-_LlwTa1_umoDGyx8rjN0-ph_MbF-s7zdMfibjUu4Cp14UjS-GAMZzi8IKZrHEe9g4PGe08VdWOpsCFICRGiQbxvbKMN6idfOylAEWg2mSwJOsN6UYiNAHUi2dg6pUK6vKcR6Fv2OCKq9iXT1k8tUGlkHinEVjs3Mp5ZB3R9OjUYPeLM4ZOKd1UrM_cVE7a2CyNZDj_Fd_LeCkbWr_HR5-khywMGfliqnQk_5BUUVy1]--></g></svg>