<?xml version="1.0" encoding="us-ascii" standalone="no"?><svg xmlns="http://www.w3.org/2000/svg" xmlns:xlink="http://www.w3.org/1999/xlink" contentStyleType="text/css" height="697px" preserveAspectRatio="none" style="width:1082px;height:697px;background:#FFFFFF;" version="1.1" viewBox="0 0 1082 697" width="1082px" zoomAndPan="magnify"><defs/><g><text fill="#000000" font-family="sans-serif" font-size="14" font-weight="bold" lengthAdjust="spacing" textLength="646" x="211" y="23.5352">Class Diagram / As marketing director, I want to know the price change history of a plan</text><!--class PlansRepository--><g id="elem_PlansRepository"><rect codeLine="35" fill="#F1F1F1" height="73.1094" id="PlansRepository" rx="2.5" ry="2.5" style="stroke:#181818;stroke-width:0.5;" width="416" x="7" y="316.4883"/><text fill="#000000" font-family="sans-serif" font-size="12" font-style="italic" lengthAdjust="spacing" textLength="62" x="184" y="333.0898">&#171;interface&#187;</text><text fill="#000000" font-family="sans-serif" font-size="14" font-style="italic" lengthAdjust="spacing" textLength="109" x="160.5" y="349.1563">PlansRepository</text><line style="stroke:#181818;stroke-width:0.5;" x1="8" x2="422" y1="357.1094" y2="357.1094"/><line style="stroke:#181818;stroke-width:0.5;" x1="8" x2="422" y1="365.1094" y2="365.1094"/><ellipse cx="18" cy="378.8535" fill="#84BE84" rx="3" ry="3" style="stroke:#038048;stroke-width:1.0;"/><text fill="#000000" font-family="sans-serif" font-size="14" lengthAdjust="spacing" textLength="390" x="27" y="382.6445">findByName_Name(String name_name): Optional&lt;Plans&gt;</text></g><!--class CrudRepository--><g id="elem_CrudRepository"><rect codeLine="40" fill="#F1F1F1" height="56.6211" id="CrudRepository" rx="2.5" ry="2.5" style="stroke:#181818;stroke-width:0.5;" width="113" x="129.5" y="181.4883"/><text fill="#000000" font-family="sans-serif" font-size="12" font-style="italic" lengthAdjust="spacing" textLength="62" x="155" y="198.0898">&#171;interface&#187;</text><text fill="#000000" font-family="sans-serif" font-size="14" font-style="italic" lengthAdjust="spacing" textLength="107" x="132.5" y="214.1563">CrudRepository</text><line style="stroke:#181818;stroke-width:0.5;" x1="130.5" x2="241.5" y1="222.1094" y2="222.1094"/><line style="stroke:#181818;stroke-width:0.5;" x1="130.5" x2="241.5" y1="230.1094" y2="230.1094"/></g><!--class Plans--><g id="elem_Plans"><rect codeLine="9" fill="#F1F1F1" height="223.8594" id="Plans" rx="2.5" ry="2.5" style="stroke:#181818;stroke-width:0.5;" width="204" x="113" y="466.4883"/><text fill="#000000" font-family="sans-serif" font-size="14" lengthAdjust="spacing" textLength="36" x="197" y="485.0234">Plans</text><line style="stroke:#181818;stroke-width:0.5;" x1="114" x2="316" y1="492.9766" y2="492.9766"/><rect fill="none" height="6" style="stroke:#C82930;stroke-width:1.0;" width="6" x="121" y="503.7207"/><text fill="#000000" font-family="sans-serif" font-size="14" lengthAdjust="spacing" textLength="38" x="133" y="510.5117">name</text><rect fill="none" height="6" style="stroke:#C82930;stroke-width:1.0;" width="6" x="121" y="520.209"/><text fill="#000000" font-family="sans-serif" font-size="14" lengthAdjust="spacing" textLength="77" x="133" y="527">description</text><rect fill="none" height="6" style="stroke:#C82930;stroke-width:1.0;" width="6" x="121" y="536.6973"/><text fill="#000000" font-family="sans-serif" font-size="14" lengthAdjust="spacing" textLength="124" x="133" y="543.4883">numberOfMinutes</text><rect fill="none" height="6" style="stroke:#C82930;stroke-width:1.0;" width="6" x="121" y="553.1855"/><text fill="#000000" font-family="sans-serif" font-size="14" lengthAdjust="spacing" textLength="178" x="133" y="559.9766">maximumNumberOfUsers</text><rect fill="none" height="6" style="stroke:#C82930;stroke-width:1.0;" width="6" x="121" y="569.6738"/><text fill="#000000" font-family="sans-serif" font-size="14" lengthAdjust="spacing" textLength="109" x="133" y="576.4648">musicCollection</text><rect fill="none" height="6" style="stroke:#C82930;stroke-width:1.0;" width="6" x="121" y="586.1621"/><text fill="#000000" font-family="sans-serif" font-size="14" lengthAdjust="spacing" textLength="117" x="133" y="592.9531">musicSuggestion</text><rect fill="none" height="6" style="stroke:#C82930;stroke-width:1.0;" width="6" x="121" y="602.6504"/><text fill="#000000" font-family="sans-serif" font-size="14" lengthAdjust="spacing" textLength="71" x="133" y="609.4414">annualFee</text><rect fill="none" height="6" style="stroke:#C82930;stroke-width:1.0;" width="6" x="121" y="619.1387"/><text fill="#000000" font-family="sans-serif" font-size="14" lengthAdjust="spacing" textLength="80" x="133" y="625.9297">monthlyFee</text><rect fill="none" height="6" style="stroke:#C82930;stroke-width:1.0;" width="6" x="121" y="635.627"/><text fill="#000000" font-family="sans-serif" font-size="14" lengthAdjust="spacing" textLength="39" x="133" y="642.418">active</text><rect fill="none" height="6" style="stroke:#C82930;stroke-width:1.0;" width="6" x="121" y="652.1152"/><text fill="#000000" font-family="sans-serif" font-size="14" lengthAdjust="spacing" textLength="68" x="133" y="658.9063">promoted</text><rect fill="none" height="6" style="stroke:#C82930;stroke-width:1.0;" width="6" x="121" y="668.6035"/><text fill="#000000" font-family="sans-serif" font-size="14" lengthAdjust="spacing" textLength="78" x="133" y="675.3945">feeRevision</text><line style="stroke:#181818;stroke-width:0.5;" x1="114" x2="316" y1="682.3477" y2="682.3477"/></g><!--class FeeRevisionViewMapper--><g id="elem_FeeRevisionViewMapper"><rect codeLine="23" fill="#F1F1F1" height="58.9766" id="FeeRevisionViewMapper" rx="2.5" ry="2.5" style="stroke:#181818;stroke-width:0.5;" width="462" x="278" y="180.4883"/><text fill="#000000" font-family="sans-serif" font-size="14" lengthAdjust="spacing" textLength="165" x="426.5" y="199.0234">FeeRevisionViewMapper</text><line style="stroke:#181818;stroke-width:0.5;" x1="279" x2="739" y1="206.9766" y2="206.9766"/><line style="stroke:#181818;stroke-width:0.5;" x1="279" x2="739" y1="214.9766" y2="214.9766"/><ellipse cx="289" cy="228.7207" fill="#84BE84" rx="3" ry="3" style="stroke:#038048;stroke-width:1.0;"/><text fill="#000000" font-family="sans-serif" font-size="14" lengthAdjust="spacing" textLength="436" x="298" y="232.5117">toFeesView(Iterable&lt;FeeRevision&gt; fees):List&lt;FeeRevisionView&gt;</text></g><!--class PlansController--><g id="elem_PlansController"><rect codeLine="27" fill="#F1F1F1" height="58.9766" id="PlansController" rx="2.5" ry="2.5" style="stroke:#181818;stroke-width:0.5;" width="366" x="366" y="44.4883"/><text fill="#000000" font-family="sans-serif" font-size="14" lengthAdjust="spacing" textLength="106" x="496" y="63.0234">PlansController</text><line style="stroke:#181818;stroke-width:0.5;" x1="367" x2="731" y1="70.9766" y2="70.9766"/><line style="stroke:#181818;stroke-width:0.5;" x1="367" x2="731" y1="78.9766" y2="78.9766"/><ellipse cx="377" cy="92.7207" fill="#84BE84" rx="3" ry="3" style="stroke:#038048;stroke-width:1.0;"/><text fill="#000000" font-family="sans-serif" font-size="14" lengthAdjust="spacing" textLength="340" x="386" y="96.5117">history(final String name) :List&lt;FeeRevisionView&gt;</text></g><!--class PlansService--><g id="elem_PlansService"><rect codeLine="30" fill="#F1F1F1" height="58.9766" id="PlansService" rx="2.5" ry="2.5" style="stroke:#181818;stroke-width:0.5;" width="300" x="775" y="180.4883"/><text fill="#000000" font-family="sans-serif" font-size="14" lengthAdjust="spacing" textLength="84" x="883" y="199.0234">PlansService</text><line style="stroke:#181818;stroke-width:0.5;" x1="776" x2="1074" y1="206.9766" y2="206.9766"/><line style="stroke:#181818;stroke-width:0.5;" x1="776" x2="1074" y1="214.9766" y2="214.9766"/><ellipse cx="786" cy="228.7207" fill="#84BE84" rx="3" ry="3" style="stroke:#038048;stroke-width:1.0;"/><text fill="#000000" font-family="sans-serif" font-size="14" lengthAdjust="spacing" textLength="274" x="795" y="232.5117">history(String name) :List&lt;FeeRevision&gt;</text></g><!--reverse link CrudRepository to PlansRepository--><g id="link_CrudRepository_PlansRepository"><path d="M195.94,259.3083 C199.77,277.9483 204.08,298.8983 207.63,316.1483 " fill="none" id="CrudRepository-backto-PlansRepository" style="stroke:#181818;stroke-width:1.0;"/><polygon fill="none" points="188.9,260.8483,191.73,239.8483,202.62,258.0283,188.9,260.8483" style="stroke:#181818;stroke-width:1.0;"/></g><!--link PlansController to PlansService--><g id="link_PlansController_PlansService"><path codeLine="44" d="M630.12,103.8983 C691.42,125.7483 775.42,155.6783 838.08,178.0083 " fill="none" id="PlansController-to-PlansService" style="stroke:#181818;stroke-width:1.0;stroke-dasharray:7.0,7.0;"/><polygon fill="#181818" points="842.7,180.0183,835.5723,173.2215,837.9919,178.3348,832.8787,180.7545,842.7,180.0183" style="stroke:#181818;stroke-width:1.0;"/><text fill="#000000" font-family="sans-serif" font-size="13" lengthAdjust="spacing" textLength="39" x="760" y="147.0566">uses&gt;</text></g><!--link PlansService to PlansRepository--><g id="link_PlansService_PlansRepository"><path codeLine="46" d="M779.18,239.9483 C669.92,261.6483 519.57,291.5083 401.55,314.9383 " fill="none" id="PlansService-to-PlansRepository" style="stroke:#181818;stroke-width:1.0;stroke-dasharray:7.0,7.0;"/><polygon fill="#181818" points="396.96,316.0483,406.5648,318.2271,401.8651,315.0787,405.0135,310.3789,396.96,316.0483" style="stroke:#181818;stroke-width:1.0;"/><text fill="#000000" font-family="sans-serif" font-size="13" lengthAdjust="spacing" textLength="39" x="613" y="283.0566">uses&gt;</text></g><!--link PlansRepository to Plans--><g id="link_PlansRepository_Plans"><path codeLine="47" d="M215,389.8983 C215,409.3983 215,434.7383 215,460.4483 " fill="none" id="PlansRepository-to-Plans" style="stroke:#181818;stroke-width:1.0;stroke-dasharray:7.0,7.0;"/><polygon fill="#181818" points="215,465.2883,219,456.2883,215,460.2883,211,456.2883,215,465.2883" style="stroke:#181818;stroke-width:1.0;"/><text fill="#000000" font-family="sans-serif" font-size="13" lengthAdjust="spacing" textLength="57" x="216" y="433.0566">&lt;records</text></g><!--link PlansController to FeeRevisionViewMapper--><g id="link_PlansController_FeeRevisionViewMapper"><path codeLine="48" d="M540.42,103.7383 C534.22,124.4883 525.83,152.6083 519.28,174.5583 " fill="none" id="PlansController-to-FeeRevisionViewMapper" style="stroke:#181818;stroke-width:1.0;stroke-dasharray:7.0,7.0;"/><polygon fill="#181818" points="517.57,179.2883,523.9772,171.8085,519.0002,174.4972,516.3114,169.5202,517.57,179.2883" style="stroke:#181818;stroke-width:1.0;"/><text fill="#000000" font-family="sans-serif" font-size="13" lengthAdjust="spacing" textLength="39" x="533" y="147.0566">uses&gt;</text></g><!--SRC=[VPB9JkD048Rl_HHr0mGaTykoD9CH4j808wAPAshQPRj4BrOl2H7YtQVisB4J5Xyizrz_VxMupfeOsv0jbwsMDYQZ5ygPfT8oXEkIPEsb4GsL28gyqYZw2FnXStZ4rWMApkyWpyb6z9LKM1I3P-LJ-QL5H8eQOTKxV-tpm19-133Ils0aMqD97XNVlO9Rs79n41syMBU5s22qdXGNrKXR8pGK-Xok0WbT8qBC2tqJmC-rbGRtNr1YK9xQICuEYatc6Vr3TKSsHGnxrSXNCidS3x6_0VqOIO7KocdD5OwGGLsdkiOmKwMrIUeRnD7bR6pqRX8aCpRZeVNEk8ZbSAmG7t53eSEzZrtTJE8_mksTR5lq-oule-DewEJpMvwtVDQOp_m5C35SPBzvPFa9fvWoz7DRSQ6-wt5a3tC-hyXA3Ulekz_KZVK2lW1srzxdp3Nw3Vyv1XvettDuLxYgm-vyM3ryZMZBqtKJR-AIgon_xkuP-zIzvdcU-cGPFFGh87NUKulZJ1-873sP2omMnL5V6QI0319pSN9DkD5usix1ca7Ew-zy6JvD-kaAZD3_]--></g></svg>