<?xml version="1.0" encoding="us-ascii" standalone="no"?><svg xmlns="http://www.w3.org/2000/svg" xmlns:xlink="http://www.w3.org/1999/xlink" contentStyleType="text/css" height="575px" preserveAspectRatio="none" style="width:1686px;height:575px;background:#FFFFFF;" version="1.1" viewBox="0 0 1686 575" width="1686px" zoomAndPan="magnify"><defs/><g><!--class DeviceRepository--><g id="elem_DeviceRepository"><rect codeLine="27" fill="#F1F1F1" height="97.8242" id="DeviceRepository" rx="2.5" ry="2.5" style="stroke:#181818;stroke-width:0.5;" width="478" x="7" y="291"/><text fill="#000000" font-family="sans-serif" font-size="12" font-style="italic" lengthAdjust="spacing" textLength="61" x="215.5" y="308.9492">&#171;interface&#187;</text><text fill="#000000" font-family="sans-serif" font-size="14" font-style="italic" lengthAdjust="spacing" textLength="110" x="191" y="327.0684">DeviceRepository</text><line style="stroke:#181818;stroke-width:0.5;" x1="8" x2="484" y1="335.582" y2="335.582"/><line style="stroke:#181818;stroke-width:0.5;" x1="8" x2="484" y1="343.582" y2="343.582"/><ellipse cx="18" cy="358.3926" fill="#84BE84" rx="3" ry="3" style="stroke:#038048;stroke-width:1.0;"/><text fill="#000000" font-family="sans-serif" font-size="14" lengthAdjust="spacing" textLength="452" x="27" y="362.6895">findByMacAddress_MacAddress(String macAddress): Optional&lt;Device&gt;</text><ellipse cx="18" cy="377.0137" fill="#84BE84" rx="3" ry="3" style="stroke:#038048;stroke-width:1.0;"/><text fill="#000000" font-family="sans-serif" font-size="14" lengthAdjust="spacing" textLength="224" x="27" y="381.3105">save(S entity) : &lt;S extends Device&gt;</text></g><!--class UserRepository--><g id="elem_UserRepository"><rect codeLine="33" fill="#F1F1F1" height="79.2031" id="UserRepository" rx="2.5" ry="2.5" style="stroke:#181818;stroke-width:0.5;" width="277" x="520.5" y="300.5"/><text fill="#000000" font-family="sans-serif" font-size="12" font-style="italic" lengthAdjust="spacing" textLength="61" x="628.5" y="318.4492">&#171;interface&#187;</text><text fill="#000000" font-family="sans-serif" font-size="14" font-style="italic" lengthAdjust="spacing" textLength="98" x="610" y="336.5684">UserRepository</text><line style="stroke:#181818;stroke-width:0.5;" x1="521.5" x2="796.5" y1="345.082" y2="345.082"/><line style="stroke:#181818;stroke-width:0.5;" x1="521.5" x2="796.5" y1="353.082" y2="353.082"/><ellipse cx="531.5" cy="367.8926" fill="#84BE84" rx="3" ry="3" style="stroke:#038048;stroke-width:1.0;"/><text fill="#000000" font-family="sans-serif" font-size="14" lengthAdjust="spacing" textLength="251" x="540.5" y="372.1895">findById(Long objectId): Optional&lt;User&gt;</text></g><!--class SubscriptionRepository--><g id="elem_SubscriptionRepository"><rect codeLine="38" fill="#F1F1F1" height="79.2031" id="SubscriptionRepository" rx="2.5" ry="2.5" style="stroke:#181818;stroke-width:0.5;" width="327" x="832.5" y="300.5"/><text fill="#000000" font-family="sans-serif" font-size="12" font-style="italic" lengthAdjust="spacing" textLength="61" x="965.5" y="318.4492">&#171;interface&#187;</text><text fill="#000000" font-family="sans-serif" font-size="14" font-style="italic" lengthAdjust="spacing" textLength="146" x="923" y="336.5684">SubscriptionRepository</text><line style="stroke:#181818;stroke-width:0.5;" x1="833.5" x2="1158.5" y1="345.082" y2="345.082"/><line style="stroke:#181818;stroke-width:0.5;" x1="833.5" x2="1158.5" y1="353.082" y2="353.082"/><ellipse cx="843.5" cy="367.8926" fill="#84BE84" rx="3" ry="3" style="stroke:#038048;stroke-width:1.0;"/><text fill="#000000" font-family="sans-serif" font-size="14" lengthAdjust="spacing" textLength="301" x="852.5" y="372.1895">findByUser(User user): Optional&lt;Subscriptions&gt;</text></g><!--class Device--><g id="elem_Device"><rect codeLine="8" fill="#F1F1F1" height="100.4844" id="Device" rx="2.5" ry="2.5" style="stroke:#181818;stroke-width:0.5;" width="104" x="194" y="468"/><text fill="#000000" font-family="sans-serif" font-size="14" lengthAdjust="spacing" textLength="43" x="224.5" y="488.1074">Device</text><line style="stroke:#181818;stroke-width:0.5;" x1="195" x2="297" y1="496.6211" y2="496.6211"/><rect fill="none" height="6" style="stroke:#C82930;stroke-width:1.0;" width="6" x="202" y="508.4316"/><text fill="#000000" font-family="sans-serif" font-size="14" lengthAdjust="spacing" textLength="78" x="214" y="515.7285">macAddress</text><rect fill="none" height="6" style="stroke:#C82930;stroke-width:1.0;" width="6" x="202" y="527.0527"/><text fill="#000000" font-family="sans-serif" font-size="14" lengthAdjust="spacing" textLength="35" x="214" y="534.3496">name</text><rect fill="none" height="6" style="stroke:#C82930;stroke-width:1.0;" width="6" x="202" y="545.6738"/><text fill="#000000" font-family="sans-serif" font-size="14" lengthAdjust="spacing" textLength="69" x="214" y="552.9707">description</text><line style="stroke:#181818;stroke-width:0.5;" x1="195" x2="297" y1="560.4844" y2="560.4844"/></g><!--class DeviceViewMapper--><g id="elem_DeviceViewMapper"><rect codeLine="13" fill="#F1F1F1" height="63.2422" id="DeviceViewMapper" rx="2.5" ry="2.5" style="stroke:#181818;stroke-width:0.5;" width="288" x="257" y="149"/><text fill="#000000" font-family="sans-serif" font-size="14" lengthAdjust="spacing" textLength="120" x="341" y="169.1074">DeviceViewMapper</text><line style="stroke:#181818;stroke-width:0.5;" x1="258" x2="544" y1="177.6211" y2="177.6211"/><line style="stroke:#181818;stroke-width:0.5;" x1="258" x2="544" y1="185.6211" y2="185.6211"/><ellipse cx="268" cy="200.4316" fill="#84BE84" rx="3" ry="3" style="stroke:#038048;stroke-width:1.0;"/><text fill="#000000" font-family="sans-serif" font-size="14" lengthAdjust="spacing" textLength="262" x="277" y="204.7285">toDeviceView(Device device): DeviceView</text></g><!--class DeviceController--><g id="elem_DeviceController"><rect codeLine="16" fill="#F1F1F1" height="63.2422" id="DeviceController" rx="2.5" ry="2.5" style="stroke:#181818;stroke-width:0.5;" width="619" x="132.5" y="7"/><text fill="#000000" font-family="sans-serif" font-size="14" lengthAdjust="spacing" textLength="105" x="389.5" y="27.1074">DeviceController</text><line style="stroke:#181818;stroke-width:0.5;" x1="133.5" x2="750.5" y1="35.6211" y2="35.6211"/><line style="stroke:#181818;stroke-width:0.5;" x1="133.5" x2="750.5" y1="43.6211" y2="43.6211"/><text fill="#000000" font-family="sans-serif" font-size="14" lengthAdjust="spacing" textLength="607" x="138.5" y="62.7285">create(final CreateDeviceRequest resource, final MultipartFile file):ResponseEntity&lt;DeviceView&gt;</text></g><!--class DeviceService--><g id="elem_DeviceService"><rect codeLine="19" fill="#F1F1F1" height="63.2422" id="DeviceService" rx="2.5" ry="2.5" style="stroke:#181818;stroke-width:0.5;" width="495" x="580.5" y="149"/><text fill="#000000" font-family="sans-serif" font-size="14" lengthAdjust="spacing" textLength="90" x="783" y="169.1074">DeviceService</text><line style="stroke:#181818;stroke-width:0.5;" x1="581.5" x2="1074.5" y1="177.6211" y2="177.6211"/><line style="stroke:#181818;stroke-width:0.5;" x1="581.5" x2="1074.5" y1="185.6211" y2="185.6211"/><ellipse cx="591.5" cy="200.4316" fill="#84BE84" rx="3" ry="3" style="stroke:#038048;stroke-width:1.0;"/><text fill="#000000" font-family="sans-serif" font-size="14" lengthAdjust="spacing" textLength="469" x="600.5" y="204.7285">create(createDeviceRequest resource, DeviceImage deviceImage): Device</text></g><!--class CreateDeviceMapper--><g id="elem_CreateDeviceMapper"><rect codeLine="23" fill="#F1F1F1" height="63.2422" id="CreateDeviceMapper" rx="2.5" ry="2.5" style="stroke:#181818;stroke-width:0.5;" width="484" x="1195" y="308.5"/><text fill="#000000" font-family="sans-serif" font-size="14" lengthAdjust="spacing" textLength="134" x="1370" y="328.6074">CreateDeviceMapper</text><line style="stroke:#181818;stroke-width:0.5;" x1="1196" x2="1678" y1="337.1211" y2="337.1211"/><line style="stroke:#181818;stroke-width:0.5;" x1="1196" x2="1678" y1="345.1211" y2="345.1211"/><ellipse cx="1206" cy="359.9316" fill="#84BE84" rx="3" ry="3" style="stroke:#038048;stroke-width:1.0;"/><text fill="#000000" font-family="sans-serif" font-size="14" lengthAdjust="spacing" textLength="458" x="1215" y="364.2285">create(Subscription subscription, CreateDeviceRequest request): Device</text></g><!--link DeviceController to DeviceService--><g id="link_DeviceController_DeviceService"><path codeLine="44" d="M526.23,70.05 C589.04,92.83 674.66,123.88 738.66,147.1 " fill="none" id="DeviceController-to-DeviceService" style="stroke:#181818;stroke-width:1.0;stroke-dasharray:7.0,7.0;"/><polygon fill="#181818" points="743.61,148.89,736.5072,142.0673,738.9081,147.1893,733.7861,149.5903,743.61,148.89" style="stroke:#181818;stroke-width:1.0;"/><polygon fill="#000000" points="667.7004,111.3504,660.1994,105.5034,658.1952,111.0291,667.7004,111.3504" style="stroke:#000000;stroke-width:1.0;"/><text fill="#000000" font-family="sans-serif" font-size="13" lengthAdjust="spacing" textLength="28" x="672" y="115.0283">uses</text></g><!--link DeviceService to DeviceRepository--><g id="link_DeviceService_DeviceRepository"><path codeLine="45" d="M715.09,212.05 C633.82,234.05 522.44,264.19 428.61,289.58 " fill="none" id="DeviceService-to-DeviceRepository" style="stroke:#181818;stroke-width:1.0;stroke-dasharray:7.0,7.0;"/><polygon fill="#181818" points="423.59,290.94,433.3216,292.4555,428.4171,289.6365,431.236,284.7321,423.59,290.94" style="stroke:#181818;stroke-width:1.0;"/><polygon fill="#000000" points="589.1736,252.9517,598.6724,253.4257,597.1369,247.7519,589.1736,252.9517" style="stroke:#000000;stroke-width:1.0;"/><text fill="#000000" font-family="sans-serif" font-size="13" lengthAdjust="spacing" textLength="28" x="603" y="257.0283">uses</text></g><!--link DeviceService to UserRepository--><g id="link_DeviceService_UserRepository"><path codeLine="46" d="M795.01,212.24 C769.18,236.32 732.96,270.07 704.39,296.7 " fill="none" id="DeviceService-to-UserRepository" style="stroke:#181818;stroke-width:1.0;stroke-dasharray:7.0,7.0;"/><polygon fill="#181818" points="700.59,300.24,709.905,297.0415,704.2519,296.8356,704.4579,291.1824,700.59,300.24" style="stroke:#181818;stroke-width:1.0;"/><polygon fill="#000000" points="759.3423,255.0545,767.9629,251.0375,763.9553,246.7376,759.3423,255.0545" style="stroke:#000000;stroke-width:1.0;"/><text fill="#000000" font-family="sans-serif" font-size="13" lengthAdjust="spacing" textLength="28" x="772" y="257.0283">uses</text></g><!--link DeviceService to SubscriptionRepository--><g id="link_DeviceService_SubscriptionRepository"><path codeLine="47" d="M860.79,212.24 C886.47,236.32 922.48,270.07 950.88,296.7 " fill="none" id="DeviceService-to-SubscriptionRepository" style="stroke:#181818;stroke-width:1.0;stroke-dasharray:7.0,7.0;"/><polygon fill="#181818" points="954.65,300.24,950.8187,291.1669,951.0019,296.8208,945.348,297.0039,954.65,300.24" style="stroke:#181818;stroke-width:1.0;"/><polygon fill="#000000" points="920.6477,255.0652,916.059,246.7348,912.0389,251.0229,920.6477,255.0652" style="stroke:#000000;stroke-width:1.0;"/><text fill="#000000" font-family="sans-serif" font-size="13" lengthAdjust="spacing" textLength="28" x="926" y="257.0283">uses</text></g><!--link DeviceRepository to Device--><g id="link_DeviceRepository_Device"><path codeLine="48" d="M246,389.09 C246,411.8 246,439.01 246,462.48 " fill="none" id="DeviceRepository-to-Device" style="stroke:#181818;stroke-width:1.0;stroke-dasharray:7.0,7.0;"/><polygon fill="#181818" points="246,467.74,250,458.74,246,462.74,242,458.74,246,467.74" style="stroke:#181818;stroke-width:1.0;"/><polygon fill="#000000" points="251,423.6455,248.0611,432.6906,253.9389,432.6906,251,423.6455" style="stroke:#000000;stroke-width:1.0;"/><text fill="#000000" font-family="sans-serif" font-size="13" lengthAdjust="spacing" textLength="36" x="260" y="434.0283">record</text></g><!--link DeviceService to CreateDeviceMapper--><g id="link_DeviceService_CreateDeviceMapper"><path codeLine="49" d="M946.14,212.05 C1051.95,239.42 1206.54,279.4 1313.85,307.15 " fill="none" id="DeviceService-to-CreateDeviceMapper" style="stroke:#181818;stroke-width:1.0;stroke-dasharray:7.0,7.0;"/><polygon fill="#181818" points="1318.93,308.46,1311.2068,302.3483,1314.0869,307.2171,1309.2182,310.0972,1318.93,308.46" style="stroke:#181818;stroke-width:1.0;"/><polygon fill="#000000" points="1141.8407,252.8975,1133.8196,247.7874,1132.3479,253.478,1141.8407,252.8975" style="stroke:#000000;stroke-width:1.0;"/><text fill="#000000" font-family="sans-serif" font-size="13" lengthAdjust="spacing" textLength="28" x="1146" y="257.0283">uses</text></g><!--link DeviceController to DeviceViewMapper--><g id="link_DeviceController_DeviceViewMapper"><path codeLine="50" d="M433,70.22 C426.65,91.92 418.11,121.07 411.45,143.81 " fill="none" id="DeviceController-to-DeviceViewMapper" style="stroke:#181818;stroke-width:1.0;stroke-dasharray:7.0,7.0;"/><polygon fill="#181818" points="409.98,148.85,416.34,141.33,411.38,144.05,408.66,139.09,409.98,148.85" style="stroke:#181818;stroke-width:1.0;"/><polygon fill="#000000" points="427.5948,114.444,432.9573,106.5894,427.3163,104.9375,427.5948,114.444" style="stroke:#000000;stroke-width:1.0;"/><text fill="#000000" font-family="sans-serif" font-size="13" lengthAdjust="spacing" textLength="28" x="438" y="115.0283">uses</text></g><!--SRC=[XLFBJWCX5Dtp5UmSKsttJJE9pwI9ZOcDRWt2jM8O6E6EsXZ_NSeyWB7MMJ0NEFUS- -Be1R5syzciLanZKwafDzMCA-RSgP1iOrb5NgG0ogNb2aYuePVmBZdSGMsSH6EtTB6G6i4-CmvbsO7k7TX_8ElcoN4hQvH6_mabcUWNeVuxhHW_4yA2S-rUimfQIy10IRuprmS97ojMrs1RaWcQU56q9XNXTpnFV4Oq5qQZDKhrDDm2GoYUfMQANeHDNv-t1XnI7wLfB8SJsc9MZK9PCulNKe4_Krxk3bnjj8ChZHAtYoXU1eqyWZNOhXIJJfmVb6tFbnNRzFa5UqYI31ccuMUbwdJIXb6NR4x-o3pyez0t8KDhVqqH-I8JNo5nlbqDtNsCPh56A_M6njPxtjkWpbHNiP9C77ltSL88XJocSxhmcqy4BVhobNaO-Pp689QYk35Uppoz0iUbIDLsFYEQ_RCSwNOknMwXZLzIijJJ1LOodZGwdPPvy-Sx6aTBafqck1Z30MYU-m7W_kn63iaJZd7u1lWvuCQAFRI_vsr4cPTW_8vxy0y0]--></g></svg>