<?xml version="1.0" encoding="us-ascii" standalone="no"?><svg xmlns="http://www.w3.org/2000/svg" xmlns:xlink="http://www.w3.org/1999/xlink" contentStyleType="text/css" height="619px" preserveAspectRatio="none" style="width:1165px;height:619px;background:#FFFFFF;" version="1.1" viewBox="0 0 1165 619" width="1165px" zoomAndPan="magnify"><defs/><g><rect fill="#FFFFFF" height="401.0742" style="stroke:#181818;stroke-width:1.0;" width="10" x="218" y="116.9121"/><rect fill="#FFFFFF" height="378.7832" style="stroke:#181818;stroke-width:1.0;" width="10" x="577" y="148.2031"/><rect fill="#FFFFFF" height="161.4551" style="stroke:#181818;stroke-width:1.0;" width="10" x="582" y="325.2402"/><rect fill="#FFFFFF" height="68.873" style="stroke:#181818;stroke-width:1.0;" width="10" x="927" y="179.4941"/><rect fill="#FFFFFF" height="31.291" style="stroke:#181818;stroke-width:1.0;" width="10" x="927" y="424.1133"/><rect fill="#FFFFFF" height="31.291" style="stroke:#181818;stroke-width:1.0;" width="10" x="1073" y="361.5313"/><line style="stroke:#181818;stroke-width:0.5;stroke-dasharray:5.0,5.0;" x1="42" x2="42" y1="83.6211" y2="535.9863"/><line style="stroke:#181818;stroke-width:0.5;stroke-dasharray:5.0,5.0;" x1="222.5" x2="222.5" y1="83.6211" y2="535.9863"/><line style="stroke:#181818;stroke-width:0.5;stroke-dasharray:5.0,5.0;" x1="582" x2="582" y1="83.6211" y2="535.9863"/><line style="stroke:#181818;stroke-width:0.5;stroke-dasharray:5.0,5.0;" x1="931.5" x2="931.5" y1="83.6211" y2="535.9863"/><line style="stroke:#181818;stroke-width:0.5;stroke-dasharray:5.0,5.0;" x1="1077.5" x2="1077.5" y1="83.6211" y2="535.9863"/><text fill="#000000" font-family="sans-serif" font-size="14" lengthAdjust="spacing" textLength="68" x="5" y="80.1074">Subscriber</text><ellipse cx="42" cy="13.5" fill="#E2E2F0" rx="8" ry="8" style="stroke:#181818;stroke-width:0.5;"/><path d="M42,21.5 L42,48.5 M29,29.5 L55,29.5 M42,48.5 L29,63.5 M42,48.5 L55,63.5 " fill="none" style="stroke:#181818;stroke-width:0.5;"/><text fill="#000000" font-family="sans-serif" font-size="14" lengthAdjust="spacing" textLength="68" x="5" y="550.0938">Subscriber</text><ellipse cx="42" cy="562.1074" fill="#E2E2F0" rx="8" ry="8" style="stroke:#181818;stroke-width:0.5;"/><path d="M42,570.1074 L42,597.1074 M29,578.1074 L55,578.1074 M42,597.1074 L29,612.1074 M42,597.1074 L55,612.1074 " fill="none" style="stroke:#181818;stroke-width:0.5;"/><rect fill="#E2E2F0" height="32.6211" rx="2.5" ry="2.5" style="stroke:#181818;stroke-width:0.5;" width="123" x="161.5" y="50"/><text fill="#000000" font-family="sans-serif" font-size="14" lengthAdjust="spacing" textLength="109" x="168.5" y="72.1074">:DeviceController</text><rect fill="#E2E2F0" height="32.6211" rx="2.5" ry="2.5" style="stroke:#181818;stroke-width:0.5;" width="123" x="161.5" y="534.9863"/><text fill="#000000" font-family="sans-serif" font-size="14" lengthAdjust="spacing" textLength="109" x="168.5" y="557.0938">:DeviceController</text><rect fill="#E2E2F0" height="32.6211" rx="2.5" ry="2.5" style="stroke:#181818;stroke-width:0.5;" width="108" x="528" y="50"/><text fill="#000000" font-family="sans-serif" font-size="14" lengthAdjust="spacing" textLength="94" x="535" y="72.1074">:DeviceService</text><rect fill="#E2E2F0" height="32.6211" rx="2.5" ry="2.5" style="stroke:#181818;stroke-width:0.5;" width="108" x="528" y="534.9863"/><text fill="#000000" font-family="sans-serif" font-size="14" lengthAdjust="spacing" textLength="94" x="535" y="557.0938">:DeviceService</text><rect fill="#E2E2F0" height="32.6211" rx="2.5" ry="2.5" style="stroke:#181818;stroke-width:0.5;" width="129" x="867.5" y="50"/><text fill="#000000" font-family="sans-serif" font-size="14" lengthAdjust="spacing" textLength="115" x="874.5" y="72.1074">:DeviceRepository</text><rect fill="#E2E2F0" height="32.6211" rx="2.5" ry="2.5" style="stroke:#181818;stroke-width:0.5;" width="129" x="867.5" y="534.9863"/><text fill="#000000" font-family="sans-serif" font-size="14" lengthAdjust="spacing" textLength="115" x="874.5" y="557.0938">:DeviceRepository</text><rect fill="#E2E2F0" height="32.6211" rx="2.5" ry="2.5" style="stroke:#181818;stroke-width:0.5;" width="61" x="1047.5" y="50"/><text fill="#000000" font-family="sans-serif" font-size="14" lengthAdjust="spacing" textLength="47" x="1054.5" y="72.1074">:Device</text><rect fill="#E2E2F0" height="32.6211" rx="2.5" ry="2.5" style="stroke:#181818;stroke-width:0.5;" width="61" x="1047.5" y="534.9863"/><text fill="#000000" font-family="sans-serif" font-size="14" lengthAdjust="spacing" textLength="47" x="1054.5" y="557.0938">:Device</text><rect fill="#FFFFFF" height="401.0742" style="stroke:#181818;stroke-width:1.0;" width="10" x="218" y="116.9121"/><rect fill="#FFFFFF" height="378.7832" style="stroke:#181818;stroke-width:1.0;" width="10" x="577" y="148.2031"/><rect fill="#FFFFFF" height="161.4551" style="stroke:#181818;stroke-width:1.0;" width="10" x="582" y="325.2402"/><rect fill="#FFFFFF" height="68.873" style="stroke:#181818;stroke-width:1.0;" width="10" x="927" y="179.4941"/><rect fill="#FFFFFF" height="31.291" style="stroke:#181818;stroke-width:1.0;" width="10" x="927" y="424.1133"/><rect fill="#FFFFFF" height="31.291" style="stroke:#181818;stroke-width:1.0;" width="10" x="1073" y="361.5313"/><polygon fill="#181818" points="206,112.9121,216,116.9121,206,120.9121,210,116.9121" style="stroke:#181818;stroke-width:1.0;"/><line style="stroke:#181818;stroke-width:1.0;" x1="42" x2="212" y1="116.9121" y2="116.9121"/><text fill="#000000" font-family="sans-serif" font-size="13" font-weight="bold" lengthAdjust="spacing" textLength="7" x="49" y="111.6494">1</text><text fill="#000000" font-family="sans-serif" font-size="13" lengthAdjust="spacing" textLength="146" x="60" y="111.6494">PUT /device/macAddress</text><polygon fill="#181818" points="565,144.2031,575,148.2031,565,152.2031,569,148.2031" style="stroke:#181818;stroke-width:1.0;"/><line style="stroke:#181818;stroke-width:1.0;" x1="228" x2="571" y1="148.2031" y2="148.2031"/><text fill="#000000" font-family="sans-serif" font-size="13" font-weight="bold" lengthAdjust="spacing" textLength="7" x="235" y="142.9404">2</text><text fill="#000000" font-family="sans-serif" font-size="13" lengthAdjust="spacing" textLength="319" x="246" y="142.9404">update(macAddress, resource, image, desiredVersion);</text><polygon fill="#181818" points="915,175.4941,925,179.4941,915,183.4941,919,179.4941" style="stroke:#181818;stroke-width:1.0;"/><line style="stroke:#181818;stroke-width:1.0;" x1="587" x2="921" y1="179.4941" y2="179.4941"/><text fill="#000000" font-family="sans-serif" font-size="13" font-weight="bold" lengthAdjust="spacing" textLength="7" x="594" y="174.2314">3</text><text fill="#000000" font-family="sans-serif" font-size="13" lengthAdjust="spacing" textLength="310" x="605" y="174.2314">device findByMacAddress_MacAddress(macAddress)</text><polygon fill="#181818" points="598,244.3672,588,248.3672,598,252.3672,594,248.3672" style="stroke:#181818;stroke-width:1.0;"/><line style="stroke:#181818;stroke-width:1.0;stroke-dasharray:2.0,2.0;" x1="592" x2="931" y1="248.3672" y2="248.3672"/><text fill="#000000" font-family="sans-serif" font-size="13" font-weight="bold" lengthAdjust="spacing" textLength="7" x="604" y="243.1045">4</text><text fill="#000000" font-family="sans-serif" font-size="13" lengthAdjust="spacing" textLength="36" x="615" y="243.1045">device</text><path d="M942,192.4941 L942,288.4941 L1158,288.4941 L1158,202.4941 L1148,192.4941 L942,192.4941 " fill="#FEFFDD" style="stroke:#181818;stroke-width:0.5;"/><path d="M1148,192.4941 L1148,202.4941 L1158,202.4941 L1148,192.4941 " fill="#FEFFDD" style="stroke:#181818;stroke-width:0.5;"/><text fill="#000000" font-family="sans-serif" font-size="13" lengthAdjust="spacing" textLength="117" x="948" y="211.5225">if a device hasn't the</text><text fill="#000000" font-family="sans-serif" font-size="13" lengthAdjust="spacing" textLength="111" x="948" y="228.8135">same mac address</text><text fill="#000000" font-family="sans-serif" font-size="13" lengthAdjust="spacing" textLength="195" x="948" y="246.1045">has the one provided the code will</text><text fill="#000000" font-family="sans-serif" font-size="13" lengthAdjust="spacing" textLength="110" x="948" y="263.3955">end here and throw</text><text fill="#000000" font-family="sans-serif" font-size="13" lengthAdjust="spacing" textLength="159" x="948" y="280.6865">a EntityNotFoundException</text><line style="stroke:#181818;stroke-width:1.0;" x1="587" x2="634" y1="312.2402" y2="312.2402"/><line style="stroke:#181818;stroke-width:1.0;" x1="634" x2="634" y1="312.2402" y2="325.2402"/><line style="stroke:#181818;stroke-width:1.0;" x1="593" x2="634" y1="325.2402" y2="325.2402"/><polygon fill="#181818" points="603,321.2402,593,325.2402,603,329.2402,599,325.2402" style="stroke:#181818;stroke-width:1.0;"/><text fill="#000000" font-family="sans-serif" font-size="13" font-weight="bold" lengthAdjust="spacing" textLength="7" x="599" y="306.9775">5</text><text fill="#000000" font-family="sans-serif" font-size="13" lengthAdjust="spacing" textLength="212" x="610" y="306.9775">Check if user can access this device</text><polygon fill="#181818" points="1061,357.5313,1071,361.5313,1061,365.5313,1065,361.5313" style="stroke:#181818;stroke-width:1.0;"/><line style="stroke:#181818;stroke-width:1.0;" x1="592" x2="1067" y1="361.5313" y2="361.5313"/><text fill="#000000" font-family="sans-serif" font-size="13" font-weight="bold" lengthAdjust="spacing" textLength="7" x="599" y="356.2686">6</text><text fill="#000000" font-family="sans-serif" font-size="13" lengthAdjust="spacing" textLength="451" x="610" y="356.2686">update(desiredVersion, resource.getName(), resource.getDescription(), image)</text><polygon fill="#181818" points="603,388.8223,593,392.8223,603,396.8223,599,392.8223" style="stroke:#181818;stroke-width:1.0;"/><line style="stroke:#181818;stroke-width:1.0;stroke-dasharray:2.0,2.0;" x1="597" x2="1077" y1="392.8223" y2="392.8223"/><text fill="#000000" font-family="sans-serif" font-size="13" font-weight="bold" lengthAdjust="spacing" textLength="7" x="609" y="387.5596">7</text><text fill="#000000" font-family="sans-serif" font-size="13" lengthAdjust="spacing" textLength="36" x="620" y="387.5596">device</text><polygon fill="#181818" points="915,420.1133,925,424.1133,915,428.1133,919,424.1133" style="stroke:#181818;stroke-width:1.0;"/><line style="stroke:#181818;stroke-width:1.0;" x1="592" x2="921" y1="424.1133" y2="424.1133"/><text fill="#000000" font-family="sans-serif" font-size="13" font-weight="bold" lengthAdjust="spacing" textLength="7" x="599" y="418.8506">8</text><text fill="#000000" font-family="sans-serif" font-size="13" lengthAdjust="spacing" textLength="70" x="610" y="418.8506">save(device)</text><polygon fill="#181818" points="603,451.4043,593,455.4043,603,459.4043,599,455.4043" style="stroke:#181818;stroke-width:1.0;"/><line style="stroke:#181818;stroke-width:1.0;stroke-dasharray:2.0,2.0;" x1="597" x2="931" y1="455.4043" y2="455.4043"/><text fill="#000000" font-family="sans-serif" font-size="13" font-weight="bold" lengthAdjust="spacing" textLength="7" x="609" y="450.1416">9</text><text fill="#000000" font-family="sans-serif" font-size="13" lengthAdjust="spacing" textLength="36" x="620" y="450.1416">device</text><polygon fill="#181818" points="239,482.6953,229,486.6953,239,490.6953,235,486.6953" style="stroke:#181818;stroke-width:1.0;"/><line style="stroke:#181818;stroke-width:1.0;stroke-dasharray:2.0,2.0;" x1="233" x2="576" y1="486.6953" y2="486.6953"/><text fill="#000000" font-family="sans-serif" font-size="13" font-weight="bold" lengthAdjust="spacing" textLength="14" x="245" y="481.4326">10</text><text fill="#000000" font-family="sans-serif" font-size="13" lengthAdjust="spacing" textLength="36" x="263" y="481.4326">device</text><polygon fill="#181818" points="53,513.9863,43,517.9863,53,521.9863,49,517.9863" style="stroke:#181818;stroke-width:1.0;"/><line style="stroke:#181818;stroke-width:1.0;stroke-dasharray:2.0,2.0;" x1="47" x2="222" y1="517.9863" y2="517.9863"/><text fill="#000000" font-family="sans-serif" font-size="13" font-weight="bold" lengthAdjust="spacing" textLength="14" x="59" y="512.7236">11</text><text fill="#000000" font-family="sans-serif" font-size="13" lengthAdjust="spacing" textLength="64" x="77" y="512.7236">deviceView</text><!--SRC=[RLB1Rjim3BthAuXSMWDrVNU70LdQtLOKxTRhe4fiJCoMN8bAbhyVfJZnlELYItoFVEGJhphcCRPDC_RQSHhwM-E79k97GcUmjgItGGzA9_RQCEqq8tXNxYuDRnZKycpO1rYzfBTe0abe1Jh2sgXH1oP3euZ0ght77HdSUCV1z_t4sd3eB_9UCEHV8UNpHT8pZZwIg1yABrylyWhwu9Zue9HQ6wW_5sLeuUd7TsXiOJM3Dcjh0yQeL865bhMXJQCL4wvdmWt8rwTWy0Peq5lvMOmKqBvYYEHTTITA9LcAvCP4woW3x-JibyEtSwsVy_4lXKgLhFhSmvIkd9Vd2BJjM07GE-XJtKv7TyN07GeGzO0WrK1F4q76CoXFYJ06loEBjWICjmXxwdiXeRFGOK3GBeF1xoMe9_CUFN_roTc7tmP7bYbLfkU6vbcdPZSTcb-vlHGnWD4Ej37IXzIaU1hbd7GiBscJqKilPxDljyYFCjbrjOpTOrwzqbA6oejKQghwluMBXsd5grsMp52bbhR_cp8jpXoMPVfKrwTjEaPV2VVg3m00]--></g></svg>