<?xml version="1.0" encoding="us-ascii" standalone="no"?><svg xmlns="http://www.w3.org/2000/svg" xmlns:xlink="http://www.w3.org/1999/xlink" contentStyleType="text/css" height="563px" preserveAspectRatio="none" style="width:588px;height:563px;background:#FFFFFF;" version="1.1" viewBox="0 0 588 563" width="588px" zoomAndPan="magnify"><defs/><g><text fill="#000000" font-family="sans-serif" font-size="14" font-weight="bold" lengthAdjust="spacing" textLength="560" x="10" y="30.1074">Software Design Document / As a new customer I want to know all existing plans</text><rect fill="#FFFFFF" height="329.6191" style="stroke:#181818;stroke-width:1.0;" width="10" x="56.75" y="133.2422"/><rect fill="#FFFFFF" height="184.4551" style="stroke:#181818;stroke-width:1.0;" width="10" x="242.75" y="240.1152"/><rect fill="none" height="172.4551" style="stroke:#000000;stroke-width:1.5;" width="512.5" x="34.25" y="260.1152"/><rect fill="none" height="63.582" style="stroke:#000000;stroke-width:1.5;" width="331" x="205.75" y="286.4063"/><line style="stroke:#181818;stroke-width:0.5;stroke-dasharray:5.0,5.0;" x1="61.25" x2="61.25" y1="123.2422" y2="480.8613"/><line style="stroke:#181818;stroke-width:0.5;stroke-dasharray:5.0,5.0;" x1="247.75" x2="247.75" y1="123.2422" y2="480.8613"/><text fill="#000000" font-family="sans-serif" font-size="14" lengthAdjust="spacing" textLength="29" x="44.25" y="119.7285">User</text><ellipse cx="61.75" cy="53.1211" fill="#E2E2F0" rx="8" ry="8" style="stroke:#181818;stroke-width:0.5;"/><path d="M61.75,61.1211 L61.75,88.1211 M48.75,69.1211 L74.75,69.1211 M61.75,88.1211 L48.75,103.1211 M61.75,88.1211 L74.75,103.1211 " fill="none" style="stroke:#181818;stroke-width:0.5;"/><text fill="#000000" font-family="sans-serif" font-size="14" lengthAdjust="spacing" textLength="29" x="44.25" y="494.9688">User</text><ellipse cx="61.75" cy="506.9824" fill="#E2E2F0" rx="8" ry="8" style="stroke:#181818;stroke-width:0.5;"/><path d="M61.75,514.9824 L61.75,541.9824 M48.75,522.9824 L74.75,522.9824 M61.75,541.9824 L48.75,556.9824 M61.75,541.9824 L74.75,556.9824 " fill="none" style="stroke:#181818;stroke-width:0.5;"/><rect fill="#E2E2F0" height="32.6211" rx="2.5" ry="2.5" style="stroke:#181818;stroke-width:0.5;" width="64" x="215.75" y="89.6211"/><text fill="#000000" font-family="sans-serif" font-size="14" lengthAdjust="spacing" textLength="50" x="222.75" y="111.7285">:System</text><rect fill="#E2E2F0" height="32.6211" rx="2.5" ry="2.5" style="stroke:#181818;stroke-width:0.5;" width="64" x="215.75" y="479.8613"/><text fill="#000000" font-family="sans-serif" font-size="14" lengthAdjust="spacing" textLength="50" x="222.75" y="501.9688">:System</text><rect fill="#FFFFFF" height="329.6191" style="stroke:#181818;stroke-width:1.0;" width="10" x="56.75" y="133.2422"/><rect fill="#FFFFFF" height="184.4551" style="stroke:#181818;stroke-width:1.0;" width="10" x="242.75" y="240.1152"/><polygon fill="#181818" points="235.75,152.5332,245.75,156.5332,235.75,160.5332,239.75,156.5332" style="stroke:#181818;stroke-width:1.0;"/><line style="stroke:#181818;stroke-width:1.0;" x1="66.75" x2="241.75" y1="156.5332" y2="156.5332"/><text fill="#000000" font-family="sans-serif" font-size="13" lengthAdjust="spacing" textLength="120" x="73.75" y="151.2705">POST public/register</text><line style="stroke:#181818;stroke-width:1.0;stroke-dasharray:2.0,2.0;" x1="247.75" x2="289.75" y1="187.8242" y2="187.8242"/><line style="stroke:#181818;stroke-width:1.0;stroke-dasharray:2.0,2.0;" x1="289.75" x2="289.75" y1="187.8242" y2="200.8242"/><line style="stroke:#181818;stroke-width:1.0;stroke-dasharray:2.0,2.0;" x1="248.75" x2="289.75" y1="200.8242" y2="200.8242"/><polygon fill="#181818" points="258.75,196.8242,248.75,200.8242,258.75,204.8242,254.75,200.8242" style="stroke:#181818;stroke-width:1.0;"/><text fill="#000000" font-family="sans-serif" font-size="13" lengthAdjust="spacing" textLength="117" x="254.75" y="182.5615">Gets data from Post</text><line style="stroke:#181818;stroke-width:1.0;stroke-dasharray:2.0,2.0;" x1="247.75" x2="294.75" y1="227.1152" y2="227.1152"/><line style="stroke:#181818;stroke-width:1.0;stroke-dasharray:2.0,2.0;" x1="294.75" x2="294.75" y1="227.1152" y2="240.1152"/><line style="stroke:#181818;stroke-width:1.0;stroke-dasharray:2.0,2.0;" x1="253.75" x2="294.75" y1="240.1152" y2="240.1152"/><polygon fill="#181818" points="263.75,236.1152,253.75,240.1152,263.75,244.1152,259.75,240.1152" style="stroke:#181818;stroke-width:1.0;"/><text fill="#000000" font-family="sans-serif" font-size="13" lengthAdjust="spacing" textLength="83" x="259.75" y="221.8525">Validates data</text><path d="M34.25,260.1152 L95.25,260.1152 L95.25,269.4063 L85.25,279.4063 L34.25,279.4063 L34.25,260.1152 " fill="#EEEEEE" style="stroke:#000000;stroke-width:1.5;"/><rect fill="none" height="172.4551" style="stroke:#000000;stroke-width:1.5;" width="512.5" x="34.25" y="260.1152"/><text fill="#000000" font-family="sans-serif" font-size="13" font-weight="bold" lengthAdjust="spacing" textLength="16" x="49.25" y="275.1436">alt</text><text fill="#000000" font-family="sans-serif" font-size="11" font-weight="bold" lengthAdjust="spacing" textLength="197" x="110.25" y="273.9854">[successful case - data is accepted]</text><path d="M205.75,286.4063 L266.75,286.4063 L266.75,295.6973 L256.75,305.6973 L205.75,305.6973 L205.75,286.4063 " fill="#EEEEEE" style="stroke:#000000;stroke-width:1.5;"/><rect fill="none" height="63.582" style="stroke:#000000;stroke-width:1.5;" width="331" x="205.75" y="286.4063"/><text fill="#000000" font-family="sans-serif" font-size="13" font-weight="bold" lengthAdjust="spacing" textLength="16" x="220.75" y="301.4346">alt</text><text fill="#000000" font-family="sans-serif" font-size="11" font-weight="bold" lengthAdjust="spacing" textLength="250" x="281.75" y="300.2764">[HTPP  API CALL TO ANOTHER USER INSTANCE]</text><line style="stroke:#181818;stroke-width:1.0;stroke-dasharray:2.0,2.0;" x1="252.75" x2="294.75" y1="328.9883" y2="328.9883"/><line style="stroke:#181818;stroke-width:1.0;stroke-dasharray:2.0,2.0;" x1="294.75" x2="294.75" y1="328.9883" y2="341.9883"/><line style="stroke:#181818;stroke-width:1.0;stroke-dasharray:2.0,2.0;" x1="253.75" x2="294.75" y1="341.9883" y2="341.9883"/><polygon fill="#181818" points="263.75,337.9883,253.75,341.9883,263.75,345.9883,259.75,341.9883" style="stroke:#181818;stroke-width:1.0;"/><text fill="#000000" font-family="sans-serif" font-size="13" lengthAdjust="spacing" textLength="85" x="259.75" y="323.7256">Returns a  404</text><line style="stroke:#181818;stroke-width:1.0;stroke-dasharray:2.0,2.0;" x1="252.75" x2="294.75" y1="380.2793" y2="380.2793"/><line style="stroke:#181818;stroke-width:1.0;stroke-dasharray:2.0,2.0;" x1="294.75" x2="294.75" y1="380.2793" y2="393.2793"/><line style="stroke:#181818;stroke-width:1.0;stroke-dasharray:2.0,2.0;" x1="253.75" x2="294.75" y1="393.2793" y2="393.2793"/><polygon fill="#181818" points="263.75,389.2793,253.75,393.2793,263.75,397.2793,259.75,393.2793" style="stroke:#181818;stroke-width:1.0;"/><text fill="#000000" font-family="sans-serif" font-size="13" lengthAdjust="spacing" textLength="146" x="259.75" y="375.0166">Advance to create a User</text><polygon fill="#181818" points="77.75,420.5703,67.75,424.5703,77.75,428.5703,73.75,424.5703" style="stroke:#181818;stroke-width:1.0;"/><line style="stroke:#181818;stroke-width:1.0;stroke-dasharray:2.0,2.0;" x1="71.75" x2="246.75" y1="424.5703" y2="424.5703"/><text fill="#000000" font-family="sans-serif" font-size="13" lengthAdjust="spacing" textLength="152" x="83.75" y="419.3076">Informs operation success</text><polygon fill="#181818" points="72.75,458.8613,62.75,462.8613,72.75,466.8613,68.75,462.8613" style="stroke:#181818;stroke-width:1.0;"/><line style="stroke:#181818;stroke-width:1.0;" x1="66.75" x2="246.75" y1="462.8613" y2="462.8613"/><text fill="#000000" font-family="sans-serif" font-size="13" lengthAdjust="spacing" textLength="68" x="78.75" y="457.5986">Shows user</text><!--SRC=[VL4xJyCm4DxpApvrOIfXOCg05144bMWRaS1-EDTYuTZ1ToRmxqb0F5G1YnT_xpjwK1saoFF1aTVKksCJ-bpuAR4tlEmixIFr6HaD4OjRuRW02TPLfbOT0qtOwKYHKR7OlKSLJEhPAtAK0eBd4IQ9XfuZLXWd5sZ0emyZo3dmYnMrVeyvW6IpatqcvTbYNM5vXaNHl8folq21Ujkq6DAzioQFl9-e7BDlmF80Viagw4W9knXwr47q7_GTEJk1-OEIaLD8CeP5Tid1a32M7sfsQZPz3ChTT-0lgNVcLLlNG5clS5vUNwFTejniswkB6zmsqxFQD6svER_uEyuDQuf-dX2d9wSP- -wVw6NtJDEzvcLDv3aDOJvMTi2P5YsmyhiGUq4OE9BQu3zhPXt_qkRGUbOfq3o4KP3UFNxGrjKR]--></g></svg>