<?xml version="1.0" encoding="us-ascii" standalone="no"?><svg xmlns="http://www.w3.org/2000/svg" xmlns:xlink="http://www.w3.org/1999/xlink" contentStyleType="text/css" height="984px" preserveAspectRatio="none" style="width:2003px;height:984px;background:#FFFFFF;" version="1.1" viewBox="0 0 2003 984" width="2003px" zoomAndPan="magnify"><defs/><g><rect fill="#FFFFFF" height="766.4395" style="stroke:#181818;stroke-width:1.0;" width="10" x="403" y="116.9121"/><rect fill="#FFFFFF" height="674.9209" style="stroke:#181818;stroke-width:1.0;" width="10" x="954" y="148.2031"/><rect fill="#FFFFFF" height="73.373" style="stroke:#181818;stroke-width:1.0;" width="10" x="959" y="218.5762"/><rect fill="#FFFFFF" height="31.291" style="stroke:#181818;stroke-width:1.0;" width="10" x="1502" y="330.2402"/><rect fill="#FFFFFF" height="77.5186" style="stroke:#181818;stroke-width:1.0;" width="10" x="1502" y="392.8223"/><rect fill="#FFFFFF" height="60.2275" style="stroke:#181818;stroke-width:1.0;" width="10" x="1658" y="547.8594"/><rect fill="none" height="111.873" style="stroke:#000000;stroke-width:1.5;" width="997.5" x="874" y="652.0234"/><line style="stroke:#181818;stroke-width:0.5;stroke-dasharray:5.0,5.0;" x1="65" x2="65" y1="83.6211" y2="901.3516"/><line style="stroke:#181818;stroke-width:0.5;stroke-dasharray:5.0,5.0;" x1="407.5" x2="407.5" y1="83.6211" y2="901.3516"/><line style="stroke:#181818;stroke-width:0.5;stroke-dasharray:5.0,5.0;" x1="959" x2="959" y1="83.6211" y2="901.3516"/><line style="stroke:#181818;stroke-width:0.5;stroke-dasharray:5.0,5.0;" x1="1506.5" x2="1506.5" y1="83.6211" y2="901.3516"/><line style="stroke:#181818;stroke-width:0.5;stroke-dasharray:5.0,5.0;" x1="1662.5" x2="1662.5" y1="83.6211" y2="901.3516"/><line style="stroke:#181818;stroke-width:0.5;stroke-dasharray:5.0,5.0;" x1="1809.5" x2="1809.5" y1="83.6211" y2="901.3516"/><text fill="#000000" font-family="sans-serif" font-size="14" lengthAdjust="spacing" textLength="114" x="5" y="80.1074">Marketing director</text><ellipse cx="65" cy="13.5" fill="#E2E2F0" rx="8" ry="8" style="stroke:#181818;stroke-width:0.5;"/><path d="M65,21.5 L65,48.5 M52,29.5 L78,29.5 M65,48.5 L52,63.5 M65,48.5 L78,63.5 " fill="none" style="stroke:#181818;stroke-width:0.5;"/><text fill="#000000" font-family="sans-serif" font-size="14" lengthAdjust="spacing" textLength="114" x="5" y="915.459">Marketing director</text><ellipse cx="65" cy="927.4727" fill="#E2E2F0" rx="8" ry="8" style="stroke:#181818;stroke-width:0.5;"/><path d="M65,935.4727 L65,962.4727 M52,943.4727 L78,943.4727 M65,962.4727 L52,977.4727 M65,962.4727 L78,977.4727 " fill="none" style="stroke:#181818;stroke-width:0.5;"/><rect fill="#E2E2F0" height="32.6211" rx="2.5" ry="2.5" style="stroke:#181818;stroke-width:0.5;" width="165" x="325.5" y="50"/><text fill="#000000" font-family="sans-serif" font-size="14" lengthAdjust="spacing" textLength="151" x="332.5" y="72.1074">:SubscriptionsController</text><rect fill="#E2E2F0" height="32.6211" rx="2.5" ry="2.5" style="stroke:#181818;stroke-width:0.5;" width="165" x="325.5" y="900.3516"/><text fill="#000000" font-family="sans-serif" font-size="14" lengthAdjust="spacing" textLength="151" x="332.5" y="922.459">:SubscriptionsController</text><rect fill="#E2E2F0" height="32.6211" rx="2.5" ry="2.5" style="stroke:#181818;stroke-width:0.5;" width="150" x="884" y="50"/><text fill="#000000" font-family="sans-serif" font-size="14" lengthAdjust="spacing" textLength="136" x="891" y="72.1074">:SubscriptionsService</text><rect fill="#E2E2F0" height="32.6211" rx="2.5" ry="2.5" style="stroke:#181818;stroke-width:0.5;" width="150" x="884" y="900.3516"/><text fill="#000000" font-family="sans-serif" font-size="14" lengthAdjust="spacing" textLength="136" x="891" y="922.459">:SubscriptionsService</text><rect fill="#E2E2F0" height="32.6211" rx="2.5" ry="2.5" style="stroke:#181818;stroke-width:0.5;" width="121" x="1446.5" y="50"/><text fill="#000000" font-family="sans-serif" font-size="14" lengthAdjust="spacing" textLength="107" x="1453.5" y="72.1074">:PlansRepository</text><rect fill="#E2E2F0" height="32.6211" rx="2.5" ry="2.5" style="stroke:#181818;stroke-width:0.5;" width="121" x="1446.5" y="900.3516"/><text fill="#000000" font-family="sans-serif" font-size="14" lengthAdjust="spacing" textLength="107" x="1453.5" y="922.459">:PlansRepository</text><rect fill="#E2E2F0" height="32.6211" rx="2.5" ry="2.5" style="stroke:#181818;stroke-width:0.5;" width="171" x="1577.5" y="50"/><text fill="#000000" font-family="sans-serif" font-size="14" lengthAdjust="spacing" textLength="157" x="1584.5" y="72.1074">:SubscriptionsRepository</text><rect fill="#E2E2F0" height="32.6211" rx="2.5" ry="2.5" style="stroke:#181818;stroke-width:0.5;" width="171" x="1577.5" y="900.3516"/><text fill="#000000" font-family="sans-serif" font-size="14" lengthAdjust="spacing" textLength="157" x="1584.5" y="922.459">:SubscriptionsRepository</text><rect fill="#E2E2F0" height="32.6211" rx="2.5" ry="2.5" style="stroke:#181818;stroke-width:0.5;" width="103" x="1758.5" y="50"/><text fill="#000000" font-family="sans-serif" font-size="14" lengthAdjust="spacing" textLength="89" x="1765.5" y="72.1074">:Subscriptions</text><rect fill="#E2E2F0" height="32.6211" rx="2.5" ry="2.5" style="stroke:#181818;stroke-width:0.5;" width="103" x="1758.5" y="900.3516"/><text fill="#000000" font-family="sans-serif" font-size="14" lengthAdjust="spacing" textLength="89" x="1765.5" y="922.459">:Subscriptions</text><rect fill="#FFFFFF" height="766.4395" style="stroke:#181818;stroke-width:1.0;" width="10" x="403" y="116.9121"/><rect fill="#FFFFFF" height="674.9209" style="stroke:#181818;stroke-width:1.0;" width="10" x="954" y="148.2031"/><rect fill="#FFFFFF" height="73.373" style="stroke:#181818;stroke-width:1.0;" width="10" x="959" y="218.5762"/><rect fill="#FFFFFF" height="31.291" style="stroke:#181818;stroke-width:1.0;" width="10" x="1502" y="330.2402"/><rect fill="#FFFFFF" height="77.5186" style="stroke:#181818;stroke-width:1.0;" width="10" x="1502" y="392.8223"/><rect fill="#FFFFFF" height="60.2275" style="stroke:#181818;stroke-width:1.0;" width="10" x="1658" y="547.8594"/><polygon fill="#181818" points="391,112.9121,401,116.9121,391,120.9121,395,116.9121" style="stroke:#181818;stroke-width:1.0;"/><line style="stroke:#181818;stroke-width:1.0;" x1="65" x2="397" y1="116.9121" y2="116.9121"/><text fill="#000000" font-family="sans-serif" font-size="13" font-weight="bold" lengthAdjust="spacing" textLength="7" x="72" y="111.6494">1</text><text fill="#000000" font-family="sans-serif" font-size="13" lengthAdjust="spacing" textLength="308" x="83" y="111.6494">PATCH /subscriptions/change/{actualPlan}/{newPlan}</text><polygon fill="#181818" points="942,144.2031,952,148.2031,942,152.2031,946,148.2031" style="stroke:#181818;stroke-width:1.0;"/><line style="stroke:#181818;stroke-width:1.0;" x1="413" x2="948" y1="148.2031" y2="148.2031"/><text fill="#000000" font-family="sans-serif" font-size="13" font-weight="bold" lengthAdjust="spacing" textLength="7" x="420" y="142.9404">2</text><text fill="#000000" font-family="sans-serif" font-size="13" lengthAdjust="spacing" textLength="511" x="431" y="142.9404">subscriptions = migrateAllToPlan(long desiredVersion,String actualPlan, String newPlan)</text><line style="stroke:#181818;stroke-width:1.0;" x1="964" x2="1011" y1="205.5762" y2="205.5762"/><line style="stroke:#181818;stroke-width:1.0;" x1="1011" x2="1011" y1="205.5762" y2="218.5762"/><line style="stroke:#181818;stroke-width:1.0;" x1="970" x2="1011" y1="218.5762" y2="218.5762"/><polygon fill="#181818" points="980,214.5762,970,218.5762,980,222.5762,976,218.5762" style="stroke:#181818;stroke-width:1.0;"/><text fill="#000000" font-family="sans-serif" font-size="13" font-weight="bold" lengthAdjust="spacing" textLength="7" x="976" y="200.3135">3</text><text fill="#000000" font-family="sans-serif" font-size="13" lengthAdjust="spacing" textLength="174" x="987" y="200.3135">if(actualPlan.equals(newPlan))</text><path d="M1173,161.2031 L1173,257.2031 L1390,257.2031 L1390,171.2031 L1380,161.2031 L1173,161.2031 " fill="#FEFFDD" style="stroke:#181818;stroke-width:0.5;"/><path d="M1380,161.2031 L1380,171.2031 L1390,171.2031 L1380,161.2031 " fill="#FEFFDD" style="stroke:#181818;stroke-width:0.5;"/><text fill="#000000" font-family="sans-serif" font-size="13" lengthAdjust="spacing" textLength="196" x="1179" y="180.2314">if the user who is trying to migrate</text><text fill="#000000" font-family="sans-serif" font-size="13" lengthAdjust="spacing" textLength="164" x="1179" y="197.5225">all users to their acutal plan,</text><text fill="#000000" font-family="sans-serif" font-size="13" lengthAdjust="spacing" textLength="72" x="1179" y="214.8135">the code will</text><text fill="#000000" font-family="sans-serif" font-size="13" lengthAdjust="spacing" textLength="110" x="1179" y="232.1045">end here and throw</text><text fill="#000000" font-family="sans-serif" font-size="13" lengthAdjust="spacing" textLength="171" x="1179" y="249.3955">a DuplicateRequestException</text><line style="stroke:#181818;stroke-width:1.0;stroke-dasharray:2.0,2.0;" x1="969" x2="1011" y1="290.9492" y2="290.9492"/><line style="stroke:#181818;stroke-width:1.0;stroke-dasharray:2.0,2.0;" x1="1011" x2="1011" y1="290.9492" y2="303.9492"/><line style="stroke:#181818;stroke-width:1.0;stroke-dasharray:2.0,2.0;" x1="964" x2="1011" y1="303.9492" y2="303.9492"/><polygon fill="#181818" points="974,299.9492,964,303.9492,974,307.9492,970,303.9492" style="stroke:#181818;stroke-width:1.0;"/><text fill="#000000" font-family="sans-serif" font-size="13" font-weight="bold" lengthAdjust="spacing" textLength="7" x="976" y="285.6865">4</text><text fill="#000000" font-family="sans-serif" font-size="13" lengthAdjust="spacing" textLength="4" x="987" y="285.6865">&#160;</text><polygon fill="#181818" points="1490,326.2402,1500,330.2402,1490,334.2402,1494,330.2402" style="stroke:#181818;stroke-width:1.0;"/><line style="stroke:#181818;stroke-width:1.0;" x1="964" x2="1496" y1="330.2402" y2="330.2402"/><text fill="#000000" font-family="sans-serif" font-size="13" font-weight="bold" lengthAdjust="spacing" textLength="7" x="971" y="324.9775">5</text><text fill="#000000" font-family="sans-serif" font-size="13" lengthAdjust="spacing" textLength="508" x="982" y="324.9775">Plans plan_old = plansRepository.findByActive_ActiveAndName_Name(true, actualPlan)</text><polygon fill="#181818" points="975,357.5313,965,361.5313,975,365.5313,971,361.5313" style="stroke:#181818;stroke-width:1.0;"/><line style="stroke:#181818;stroke-width:1.0;stroke-dasharray:2.0,2.0;" x1="969" x2="1506" y1="361.5313" y2="361.5313"/><text fill="#000000" font-family="sans-serif" font-size="13" font-weight="bold" lengthAdjust="spacing" textLength="7" x="981" y="356.2686">6</text><text fill="#000000" font-family="sans-serif" font-size="13" lengthAdjust="spacing" textLength="48" x="992" y="356.2686">plan_old</text><polygon fill="#181818" points="1490,388.8223,1500,392.8223,1490,396.8223,1494,392.8223" style="stroke:#181818;stroke-width:1.0;"/><line style="stroke:#181818;stroke-width:1.0;" x1="964" x2="1496" y1="392.8223" y2="392.8223"/><text fill="#000000" font-family="sans-serif" font-size="13" font-weight="bold" lengthAdjust="spacing" textLength="7" x="971" y="387.5596">7</text><text fill="#000000" font-family="sans-serif" font-size="13" lengthAdjust="spacing" textLength="502" x="982" y="387.5596">Plans plan_new = plansRepository.findByActive_ActiveAndName_Name(true, newPlan)</text><polygon fill="#181818" points="975,466.3408,965,470.3408,975,474.3408,971,470.3408" style="stroke:#181818;stroke-width:1.0;"/><line style="stroke:#181818;stroke-width:1.0;stroke-dasharray:2.0,2.0;" x1="969" x2="1506" y1="470.3408" y2="470.3408"/><text fill="#000000" font-family="sans-serif" font-size="13" font-weight="bold" lengthAdjust="spacing" textLength="7" x="981" y="465.0781">8</text><text fill="#000000" font-family="sans-serif" font-size="13" lengthAdjust="spacing" textLength="54" x="992" y="465.0781">plan_new</text><path d="M1517,405.8223 L1517,518.8223 L1807,518.8223 L1807,415.8223 L1797,405.8223 L1517,405.8223 " fill="#FEFFDD" style="stroke:#181818;stroke-width:0.5;"/><path d="M1797,405.8223 L1797,415.8223 L1807,415.8223 L1797,405.8223 " fill="#FEFFDD" style="stroke:#181818;stroke-width:0.5;"/><text fill="#000000" font-family="sans-serif" font-size="13" lengthAdjust="spacing" textLength="269" x="1523" y="424.8506">Both of this actions check the existence of the</text><text fill="#000000" font-family="sans-serif" font-size="13" lengthAdjust="spacing" textLength="184" x="1523" y="442.1416">specified plan int the repository.</text><text fill="#000000" font-family="sans-serif" font-size="13" lengthAdjust="spacing" textLength="227" x="1523" y="459.4326">if the user is trying to change from or to</text><text fill="#000000" font-family="sans-serif" font-size="13" lengthAdjust="spacing" textLength="221" x="1523" y="476.7236">a plan with a name that does not exist</text><text fill="#000000" font-family="sans-serif" font-size="13" lengthAdjust="spacing" textLength="197" x="1523" y="494.0146">the code will end here and throw a</text><text fill="#000000" font-family="sans-serif" font-size="13" lengthAdjust="spacing" textLength="148" x="1523" y="511.3057">EntityNotFoundException</text><polygon fill="#181818" points="1646,543.8594,1656,547.8594,1646,551.8594,1650,547.8594" style="stroke:#181818;stroke-width:1.0;"/><line style="stroke:#181818;stroke-width:1.0;" x1="964" x2="1652" y1="547.8594" y2="547.8594"/><text fill="#000000" font-family="sans-serif" font-size="13" font-weight="bold" lengthAdjust="spacing" textLength="7" x="971" y="542.5967">9</text><text fill="#000000" font-family="sans-serif" font-size="13" lengthAdjust="spacing" textLength="526" x="982" y="542.5967">List&lt;Subscriptions&gt; subs = repository.findAllByPlanAndActiveStatus_Active(plan_old, true)</text><polygon fill="#181818" points="975,604.0869,965,608.0869,975,612.0869,971,608.0869" style="stroke:#181818;stroke-width:1.0;"/><line style="stroke:#181818;stroke-width:1.0;stroke-dasharray:2.0,2.0;" x1="969" x2="1662" y1="608.0869" y2="608.0869"/><text fill="#000000" font-family="sans-serif" font-size="13" font-weight="bold" lengthAdjust="spacing" textLength="14" x="981" y="602.8242">10</text><text fill="#000000" font-family="sans-serif" font-size="13" lengthAdjust="spacing" textLength="28" x="999" y="602.8242">subs</text><path d="M1673,560.8594 L1673,639.8594 L1996,639.8594 L1996,570.8594 L1986,560.8594 L1673,560.8594 " fill="#FEFFDD" style="stroke:#181818;stroke-width:0.5;"/><path d="M1986,560.8594 L1986,570.8594 L1996,570.8594 L1986,560.8594 " fill="#FEFFDD" style="stroke:#181818;stroke-width:0.5;"/><text fill="#000000" font-family="sans-serif" font-size="13" lengthAdjust="spacing" textLength="164" x="1679" y="579.8877">if this list is empty, it means</text><text fill="#000000" font-family="sans-serif" font-size="13" lengthAdjust="spacing" textLength="211" x="1679" y="597.1787">that does not exist users subscribed</text><text fill="#000000" font-family="sans-serif" font-size="13" lengthAdjust="spacing" textLength="155" x="1679" y="614.4697">to the plan so the code will</text><text fill="#000000" font-family="sans-serif" font-size="13" lengthAdjust="spacing" textLength="302" x="1679" y="631.7607">end here and throw  a UsernameNotFoundException</text><path d="M874,652.0234 L947,652.0234 L947,661.3145 L937,671.3145 L874,671.3145 L874,652.0234 " fill="#EEEEEE" style="stroke:#000000;stroke-width:1.5;"/><rect fill="none" height="111.873" style="stroke:#000000;stroke-width:1.5;" width="997.5" x="874" y="652.0234"/><text fill="#000000" font-family="sans-serif" font-size="13" font-weight="bold" lengthAdjust="spacing" textLength="28" x="889" y="667.0518">loop</text><text fill="#000000" font-family="sans-serif" font-size="11" font-weight="bold" lengthAdjust="spacing" textLength="361" x="962" y="665.8936">[this will change all users from their actual plan to their new plan]</text><polygon fill="#181818" points="1793,690.6055,1803,694.6055,1793,698.6055,1797,694.6055" style="stroke:#181818;stroke-width:1.0;"/><line style="stroke:#181818;stroke-width:1.0;" x1="964" x2="1799" y1="694.6055" y2="694.6055"/><text fill="#000000" font-family="sans-serif" font-size="13" font-weight="bold" lengthAdjust="spacing" textLength="14" x="971" y="689.3428">11</text><text fill="#000000" font-family="sans-serif" font-size="13" lengthAdjust="spacing" textLength="298" x="989" y="689.3428">subscription.changePlan(desiredVersion, plan_new)</text><polygon fill="#181818" points="1646,751.8965,1656,755.8965,1646,759.8965,1650,755.8965" style="stroke:#181818;stroke-width:1.0;"/><line style="stroke:#181818;stroke-width:1.0;" x1="964" x2="1652" y1="755.8965" y2="755.8965"/><text fill="#000000" font-family="sans-serif" font-size="13" font-weight="bold" lengthAdjust="spacing" textLength="14" x="971" y="750.6338">12</text><text fill="#000000" font-family="sans-serif" font-size="13" lengthAdjust="spacing" textLength="51" x="989" y="750.6338">save(obj)</text><polygon fill="#181818" points="424,819.124,414,823.124,424,827.124,420,823.124" style="stroke:#181818;stroke-width:1.0;"/><line style="stroke:#181818;stroke-width:1.0;stroke-dasharray:2.0,2.0;" x1="418" x2="958" y1="823.124" y2="823.124"/><text fill="#000000" font-family="sans-serif" font-size="13" font-weight="bold" lengthAdjust="spacing" textLength="14" x="430" y="817.8613">13</text><text fill="#000000" font-family="sans-serif" font-size="13" lengthAdjust="spacing" textLength="4" x="448" y="817.8613">&#160;</text><path d="M152,775.8965 L152,854.8965 L398,854.8965 L398,785.8965 L388,775.8965 L152,775.8965 " fill="#FEFFDD" style="stroke:#181818;stroke-width:0.5;"/><path d="M388,775.8965 L388,785.8965 L398,785.8965 L388,775.8965 " fill="#FEFFDD" style="stroke:#181818;stroke-width:0.5;"/><text fill="#000000" font-family="sans-serif" font-size="13" lengthAdjust="spacing" textLength="135" x="158" y="794.9248">The controller here also</text><text fill="#000000" font-family="sans-serif" font-size="13" lengthAdjust="spacing" textLength="157" x="158" y="812.2158">creates an ResponseEntity</text><text fill="#000000" font-family="sans-serif" font-size="13" lengthAdjust="spacing" textLength="166" x="158" y="829.5068">to show the user the obj with</text><text fill="#000000" font-family="sans-serif" font-size="13" lengthAdjust="spacing" textLength="225" x="158" y="846.7979">"subscriptionsViewMapper" as objView</text><polygon fill="#181818" points="76,879.3516,66,883.3516,76,887.3516,72,883.3516" style="stroke:#181818;stroke-width:1.0;"/><line style="stroke:#181818;stroke-width:1.0;stroke-dasharray:2.0,2.0;" x1="70" x2="407" y1="883.3516" y2="883.3516"/><text fill="#000000" font-family="sans-serif" font-size="13" font-weight="bold" lengthAdjust="spacing" textLength="14" x="82" y="878.0889">14</text><text fill="#000000" font-family="sans-serif" font-size="13" lengthAdjust="spacing" textLength="45" x="100" y="878.0889">objView</text><!--SRC=[dLNBRjim4BppAnQ-r0Ryk1jf02TDqKCJ177QQq1JQuiDHQea5SS8-k_TfLwscYP5BxP43VSnCqj-o6CimtAnA8sqiIhCNBbY4V1dXLRXBDDovsKXP1MTL54_oOZWR7gtLR51BuIW3yx3w5hwHupQxY3J7dbj13B0IebI-gYLBYa3Z9RhQXEKrsNKpePBPwDtnc0DlepUl0LVet_I2XEMdmVOMseYt67fWgRqXmJZDLvwA-nW2trxRqUBe_PN2cRdgN9Omktg_l8BBC8nTg5oQNUuU26YAccue5-B5ulxz2JIJeh0_L24awtm4GfD2aHS6NFlUCFOEAOO0v6SVKSV23TTHy_4zmccq2mrQIP2fFXz7hqTz_0v2IvD6BTeWbj7KdkzowC00aFC4Qg07lQv0nqW-WF7Zwwja63Ic8G9l4mRjAUIgYWDiBscXE0eocK8UsqClQFD84UF8EaXvjxjEGnygagZ5GMzOoU6UFMiC34YU0ENrlRJDTGts2eEjHzIxWTdCYApF3N8VAjjTd5OiRFneVvRsUn65lZ0F-FeAvmUqJeHNV0-SvVWdHA8tFykePFnh_a9CH3jmiKS72j7Sl7qig5KZkenoO3FEaIUyXh3-eKIbTvgp598qEHxHlg-se4NJdnGsnostXL01q9qISeKQQ-f50cM6gBDCaBcCB2ETHL3OxnY2v04kh9HnyEDYvzTPRFNJ26EV5vFCIo_KeQpa-azJrD6OlXJ7MZ8BWxCC2bGIx6ECbQXqMNS2Zq5LcKYsXIpq_5zRNY8AKDrC6DObF4m1HsXGF92QluFIfevQaw33MOCIqDLCnhSFymIy_-DuZ3lRxDcd2lhAXF_ZPJzF2THsudcQQYhwCQSlSqhGcJONHHyFXwfCJZSvdMITAODZhFEqPDXl7Gk3nIci9B4SPiVazGJzoAEpeTqgJIQ6DoI9FU9kVRcQKWpWGohF58c6XSBTnXAyWhMfXFSQyY9qyxy_419axa5Z4uExkyQzzUoB9jxZM2yqbDEbyRPRDRU6ktdtm00]--></g></svg>