<?xml version="1.0" encoding="us-ascii" standalone="no"?><svg xmlns="http://www.w3.org/2000/svg" xmlns:xlink="http://www.w3.org/1999/xlink" contentStyleType="text/css" height="443px" preserveAspectRatio="none" style="width:506px;height:443px;background:#FFFFFF;" version="1.1" viewBox="0 0 506 443" width="506px" zoomAndPan="magnify"><defs/><g><rect fill="#FFFFFF" height="261.1289" style="stroke:#181818;stroke-width:1.0;" width="10" x="54.5" y="91.4883"/><rect fill="#FFFFFF" height="145.1973" style="stroke:#181818;stroke-width:1.0;" width="10" x="255.5" y="192.4199"/><rect fill="none" height="133.1973" style="stroke:#000000;stroke-width:1.5;" width="427.5" x="10" y="212.4199"/><line style="stroke:#181818;stroke-width:0.5;stroke-dasharray:5.0,5.0;" x1="59" x2="59" y1="81.4883" y2="362.6172"/><line style="stroke:#181818;stroke-width:0.5;stroke-dasharray:5.0,5.0;" x1="260.5" x2="260.5" y1="81.4883" y2="362.6172"/><text fill="#000000" font-family="sans-serif" font-size="14" lengthAdjust="spacing" textLength="73" x="20" y="78.5352">Subscriber</text><ellipse cx="59.5" cy="13.5" fill="#E2E2F0" rx="8" ry="8" style="stroke:#181818;stroke-width:0.5;"/><path d="M59.5,21.5 L59.5,48.5 M46.5,29.5 L72.5,29.5 M59.5,48.5 L46.5,63.5 M59.5,48.5 L72.5,63.5 " fill="none" style="stroke:#181818;stroke-width:0.5;"/><text fill="#000000" font-family="sans-serif" font-size="14" lengthAdjust="spacing" textLength="73" x="20" y="375.1523">Subscriber</text><ellipse cx="59.5" cy="386.6055" fill="#E2E2F0" rx="8" ry="8" style="stroke:#181818;stroke-width:0.5;"/><path d="M59.5,394.6055 L59.5,421.6055 M46.5,402.6055 L72.5,402.6055 M59.5,421.6055 L46.5,436.6055 M59.5,421.6055 L72.5,436.6055 " fill="none" style="stroke:#181818;stroke-width:0.5;"/><rect fill="#E2E2F0" height="30.4883" rx="2.5" ry="2.5" style="stroke:#181818;stroke-width:0.5;" width="66" x="227.5" y="50"/><text fill="#000000" font-family="sans-serif" font-size="14" lengthAdjust="spacing" textLength="52" x="234.5" y="70.5352">:System</text><rect fill="#E2E2F0" height="30.4883" rx="2.5" ry="2.5" style="stroke:#181818;stroke-width:0.5;" width="66" x="227.5" y="361.6172"/><text fill="#000000" font-family="sans-serif" font-size="14" lengthAdjust="spacing" textLength="52" x="234.5" y="382.1523">:System</text><rect fill="#FFFFFF" height="261.1289" style="stroke:#181818;stroke-width:1.0;" width="10" x="54.5" y="91.4883"/><rect fill="#FFFFFF" height="145.1973" style="stroke:#181818;stroke-width:1.0;" width="10" x="255.5" y="192.4199"/><polygon fill="#181818" points="248.5,108.7988,258.5,112.7988,248.5,116.7988,252.5,112.7988" style="stroke:#181818;stroke-width:1.0;"/><line style="stroke:#181818;stroke-width:1.0;" x1="64.5" x2="254.5" y1="112.7988" y2="112.7988"/><text fill="#000000" font-family="sans-serif" font-size="13" lengthAdjust="spacing" textLength="121" x="71.5" y="108.0566">GET /subscriptions</text><line style="stroke:#181818;stroke-width:1.0;" x1="260.5" x2="302.5" y1="142.1094" y2="142.1094"/><line style="stroke:#181818;stroke-width:1.0;" x1="302.5" x2="302.5" y1="142.1094" y2="155.1094"/><line style="stroke:#181818;stroke-width:1.0;" x1="261.5" x2="302.5" y1="155.1094" y2="155.1094"/><polygon fill="#181818" points="271.5,151.1094,261.5,155.1094,271.5,159.1094,267.5,155.1094" style="stroke:#181818;stroke-width:1.0;"/><text fill="#000000" font-family="sans-serif" font-size="13" lengthAdjust="spacing" textLength="232" x="267.5" y="137.3672">Check if User exist in both machines</text><line style="stroke:#181818;stroke-width:1.0;" x1="260.5" x2="307.5" y1="179.4199" y2="179.4199"/><line style="stroke:#181818;stroke-width:1.0;" x1="307.5" x2="307.5" y1="179.4199" y2="192.4199"/><line style="stroke:#181818;stroke-width:1.0;" x1="266.5" x2="307.5" y1="192.4199" y2="192.4199"/><polygon fill="#181818" points="276.5,188.4199,266.5,192.4199,276.5,196.4199,272.5,192.4199" style="stroke:#181818;stroke-width:1.0;"/><text fill="#000000" font-family="sans-serif" font-size="13" lengthAdjust="spacing" textLength="193" x="272.5" y="174.6777">Check if User has subscription</text><path d="M10,212.4199 L72,212.4199 L72,219.7305 L62,229.7305 L10,229.7305 L10,212.4199 " fill="#EEEEEE" style="stroke:#000000;stroke-width:1.5;"/><rect fill="none" height="133.1973" style="stroke:#000000;stroke-width:1.5;" width="427.5" x="10" y="212.4199"/><text fill="#000000" font-family="sans-serif" font-size="13" font-weight="bold" lengthAdjust="spacing" textLength="17" x="25" y="225.9883">alt</text><text fill="#000000" font-family="sans-serif" font-size="11" font-weight="bold" lengthAdjust="spacing" textLength="268" x="87" y="225.0547">[successful case - user and subscription exists]</text><line style="stroke:#181818;stroke-width:1.0;stroke-dasharray:2.0,2.0;" x1="265.5" x2="307.5" y1="251.041" y2="251.041"/><line style="stroke:#181818;stroke-width:1.0;stroke-dasharray:2.0,2.0;" x1="307.5" x2="307.5" y1="251.041" y2="264.041"/><line style="stroke:#181818;stroke-width:1.0;stroke-dasharray:2.0,2.0;" x1="266.5" x2="307.5" y1="264.041" y2="264.041"/><polygon fill="#181818" points="276.5,260.041,266.5,264.041,276.5,268.041,272.5,264.041" style="stroke:#181818;stroke-width:1.0;"/><text fill="#000000" font-family="sans-serif" font-size="13" lengthAdjust="spacing" textLength="153" x="272.5" y="246.2988">Gets data from database</text><polygon fill="#181818" points="75.5,289.3516,65.5,293.3516,75.5,297.3516,71.5,293.3516" style="stroke:#181818;stroke-width:1.0;"/><line style="stroke:#181818;stroke-width:1.0;stroke-dasharray:2.0,2.0;" x1="69.5" x2="254.5" y1="293.3516" y2="293.3516"/><text fill="#000000" font-family="sans-serif" font-size="13" lengthAdjust="spacing" textLength="167" x="81.5" y="288.6094">Informs operation success</text><line style="stroke:#000000;stroke-width:1.0;stroke-dasharray:2.0,2.0;" x1="10" x2="437.5" y1="302.3516" y2="302.3516"/><text fill="#000000" font-family="sans-serif" font-size="11" font-weight="bold" lengthAdjust="spacing" textLength="240" x="15" y="312.9863">[failure case - subscription does not exist]</text><polygon fill="#181818" points="75.5,333.6172,65.5,337.6172,75.5,341.6172,71.5,337.6172" style="stroke:#181818;stroke-width:1.0;"/><line style="stroke:#181818;stroke-width:1.0;stroke-dasharray:2.0,2.0;" x1="69.5" x2="259.5" y1="337.6172" y2="337.6172"/><text fill="#000000" font-family="sans-serif" font-size="13" lengthAdjust="spacing" textLength="133" x="81.5" y="332.875">Shows error message</text><!--SRC=[ZP4zKiGm38LxdqAJXYgaJq5368PYgy0155jPUuZjOCdyt1vd0smsimMTRUdfVK- -iI8pjqqpJnWa- -bMHzymlMKAcchZy9ZGAzGI4rHz7bWdDr2g01aEdLegxXs5bikXW_eEghR_OY5VGGkF3y_GyAgQnSN0wbpUzTvRqg_WHdXXIa2VZWLSW26A1O_Qka3_Ljj2jxKjd9EK5ws9USmJQ6I26lBIZC5SDA_UV8xsvxErtoSbOJ0e26EA_dGQYiTEKJRKmbCOO_8CSQQ49yCVCAKKJOLhH3VbHB-G5smc4aE8iaAgQ_Dx6pyOAANoPRwCnICfGrVIA0fcMpbqtm00]--></g></svg>