<?xml version="1.0" encoding="us-ascii" standalone="no"?><svg xmlns="http://www.w3.org/2000/svg" xmlns:xlink="http://www.w3.org/1999/xlink" contentStyleType="text/css" height="879px" preserveAspectRatio="none" style="width:1621px;height:879px;background:#FFFFFF;" version="1.1" viewBox="0 0 1621 879" width="1621px" zoomAndPan="magnify"><defs/><g><rect fill="#FFFFFF" height="667.7637" style="stroke:#181818;stroke-width:1.0;" width="10" x="221.5" y="112.7988"/><rect fill="#FFFFFF" height="583.1768" style="stroke:#181818;stroke-width:1.0;" width="10" x="445.5" y="142.1094"/><rect fill="#FFFFFF" height="54.7764" style="stroke:#181818;stroke-width:1.0;" width="10" x="796.5" y="171.4199"/><rect fill="#FFFFFF" height="35.3105" style="stroke:#181818;stroke-width:1.0;" width="10" x="796.5" y="416.8359"/><rect fill="#FFFFFF" height="35.3105" style="stroke:#181818;stroke-width:1.0;" width="10" x="796.5" y="549.0781"/><rect fill="none" height="118.2422" style="stroke:#000000;stroke-width:1.5;" width="854.5" x="361" y="378.2148"/><rect fill="none" height="160.5527" style="stroke:#000000;stroke-width:1.5;" width="1044.5" x="361" y="510.457"/><line style="stroke:#181818;stroke-width:0.5;stroke-dasharray:5.0,5.0;" x1="61" x2="61" y1="81.4883" y2="798.5625"/><line style="stroke:#181818;stroke-width:0.5;stroke-dasharray:5.0,5.0;" x1="226" x2="226" y1="81.4883" y2="798.5625"/><line style="stroke:#181818;stroke-width:0.5;stroke-dasharray:5.0,5.0;" x1="450" x2="450" y1="81.4883" y2="798.5625"/><line style="stroke:#181818;stroke-width:0.5;stroke-dasharray:5.0,5.0;" x1="801.5" x2="801.5" y1="81.4883" y2="798.5625"/><line style="stroke:#181818;stroke-width:0.5;stroke-dasharray:5.0,5.0;" x1="1400" x2="1400" y1="81.4883" y2="798.5625"/><text fill="#000000" font-family="sans-serif" font-size="14" lengthAdjust="spacing" textLength="73" x="22" y="78.5352">Subscriber</text><ellipse cx="61.5" cy="13.5" fill="#E2E2F0" rx="8" ry="8" style="stroke:#181818;stroke-width:0.5;"/><path d="M61.5,21.5 L61.5,48.5 M48.5,29.5 L74.5,29.5 M61.5,48.5 L48.5,63.5 M61.5,48.5 L74.5,63.5 " fill="none" style="stroke:#181818;stroke-width:0.5;"/><text fill="#000000" font-family="sans-serif" font-size="14" lengthAdjust="spacing" textLength="73" x="22" y="811.0977">Subscriber</text><ellipse cx="61.5" cy="822.5508" fill="#E2E2F0" rx="8" ry="8" style="stroke:#181818;stroke-width:0.5;"/><path d="M61.5,830.5508 L61.5,857.5508 M48.5,838.5508 L74.5,838.5508 M61.5,857.5508 L48.5,872.5508 M61.5,857.5508 L74.5,872.5508 " fill="none" style="stroke:#181818;stroke-width:0.5;"/><rect fill="#E2E2F0" height="30.4883" rx="2.5" ry="2.5" style="stroke:#181818;stroke-width:0.5;" width="181" x="136" y="50"/><text fill="#000000" font-family="sans-serif" font-size="14" lengthAdjust="spacing" textLength="167" x="143" y="70.5352">:SubscriptionsController</text><rect fill="#E2E2F0" height="30.4883" rx="2.5" ry="2.5" style="stroke:#181818;stroke-width:0.5;" width="181" x="136" y="797.5625"/><text fill="#000000" font-family="sans-serif" font-size="14" lengthAdjust="spacing" textLength="167" x="143" y="818.0977">:SubscriptionsController</text><rect fill="#E2E2F0" height="30.4883" rx="2.5" ry="2.5" style="stroke:#181818;stroke-width:0.5;" width="159" x="371" y="50"/><text fill="#000000" font-family="sans-serif" font-size="14" lengthAdjust="spacing" textLength="145" x="378" y="70.5352">:SubscriptionsService</text><rect fill="#E2E2F0" height="30.4883" rx="2.5" ry="2.5" style="stroke:#181818;stroke-width:0.5;" width="159" x="371" y="797.5625"/><text fill="#000000" font-family="sans-serif" font-size="14" lengthAdjust="spacing" textLength="145" x="378" y="818.0977">:SubscriptionsService</text><rect fill="#E2E2F0" height="30.4883" rx="2.5" ry="2.5" style="stroke:#181818;stroke-width:0.5;" width="184" x="709.5" y="50"/><text fill="#000000" font-family="sans-serif" font-size="14" lengthAdjust="spacing" textLength="170" x="716.5" y="70.5352">:SubscriptionsRepository</text><rect fill="#E2E2F0" height="30.4883" rx="2.5" ry="2.5" style="stroke:#181818;stroke-width:0.5;" width="184" x="709.5" y="797.5625"/><text fill="#000000" font-family="sans-serif" font-size="14" lengthAdjust="spacing" textLength="170" x="716.5" y="818.0977">:SubscriptionsRepository</text><rect fill="#E2E2F0" height="30.4883" rx="2.5" ry="2.5" style="stroke:#181818;stroke-width:0.5;" width="111" x="1345" y="50"/><text fill="#000000" font-family="sans-serif" font-size="14" lengthAdjust="spacing" textLength="97" x="1352" y="70.5352">:Subscriptions</text><rect fill="#E2E2F0" height="30.4883" rx="2.5" ry="2.5" style="stroke:#181818;stroke-width:0.5;" width="111" x="1345" y="797.5625"/><text fill="#000000" font-family="sans-serif" font-size="14" lengthAdjust="spacing" textLength="97" x="1352" y="818.0977">:Subscriptions</text><rect fill="#FFFFFF" height="667.7637" style="stroke:#181818;stroke-width:1.0;" width="10" x="221.5" y="112.7988"/><rect fill="#FFFFFF" height="583.1768" style="stroke:#181818;stroke-width:1.0;" width="10" x="445.5" y="142.1094"/><rect fill="#FFFFFF" height="54.7764" style="stroke:#181818;stroke-width:1.0;" width="10" x="796.5" y="171.4199"/><rect fill="#FFFFFF" height="35.3105" style="stroke:#181818;stroke-width:1.0;" width="10" x="796.5" y="416.8359"/><rect fill="#FFFFFF" height="35.3105" style="stroke:#181818;stroke-width:1.0;" width="10" x="796.5" y="549.0781"/><polygon fill="#181818" points="209.5,108.7988,219.5,112.7988,209.5,116.7988,213.5,112.7988" style="stroke:#181818;stroke-width:1.0;"/><line style="stroke:#181818;stroke-width:1.0;" x1="61.5" x2="215.5" y1="112.7988" y2="112.7988"/><text fill="#000000" font-family="sans-serif" font-size="13" font-weight="bold" lengthAdjust="spacing" textLength="9" x="68.5" y="108.0566">1</text><text fill="#000000" font-family="sans-serif" font-size="13" lengthAdjust="spacing" textLength="128" x="81.5" y="108.0566">GET /subscriptions/</text><polygon fill="#181818" points="433.5,138.1094,443.5,142.1094,433.5,146.1094,437.5,142.1094" style="stroke:#181818;stroke-width:1.0;"/><line style="stroke:#181818;stroke-width:1.0;" x1="231.5" x2="439.5" y1="142.1094" y2="142.1094"/><text fill="#000000" font-family="sans-serif" font-size="13" font-weight="bold" lengthAdjust="spacing" textLength="9" x="238.5" y="137.3672">2</text><text fill="#000000" font-family="sans-serif" font-size="13" lengthAdjust="spacing" textLength="182" x="251.5" y="137.3672">Plan plan = planDetails(auth)</text><polygon fill="#181818" points="784.5,167.4199,794.5,171.4199,784.5,175.4199,788.5,171.4199" style="stroke:#181818;stroke-width:1.0;"/><line style="stroke:#181818;stroke-width:1.0;" x1="455.5" x2="790.5" y1="171.4199" y2="171.4199"/><text fill="#000000" font-family="sans-serif" font-size="13" font-weight="bold" lengthAdjust="spacing" textLength="9" x="462.5" y="166.6777">3</text><text fill="#000000" font-family="sans-serif" font-size="13" lengthAdjust="spacing" textLength="158" x="475.5" y="166.6777">isPresent(auth,username)</text><line style="stroke:#181818;stroke-width:1.0;stroke-dasharray:2.0,2.0;" x1="806.5" x2="848.5" y1="225.1963" y2="225.1963"/><line style="stroke:#181818;stroke-width:1.0;stroke-dasharray:2.0,2.0;" x1="848.5" x2="848.5" y1="225.1963" y2="238.1963"/><line style="stroke:#181818;stroke-width:1.0;stroke-dasharray:2.0,2.0;" x1="801.5" x2="848.5" y1="238.1963" y2="238.1963"/><polygon fill="#181818" points="811.5,234.1963,801.5,238.1963,811.5,242.1963,807.5,238.1963" style="stroke:#181818;stroke-width:1.0;"/><text fill="#000000" font-family="sans-serif" font-size="13" font-weight="bold" lengthAdjust="spacing" textLength="9" x="813.5" y="220.4541">4</text><text fill="#000000" font-family="sans-serif" font-size="13" lengthAdjust="spacing" textLength="399" x="826.5" y="220.4541">HttpResponse&lt;String&gt; user = getUserFromOtherAPI(newString)</text><path d="M1237,184.4199 L1237,255.4199 L1495,255.4199 L1495,194.4199 L1485,184.4199 L1237,184.4199 " fill="#FEFFDD" style="stroke:#181818;stroke-width:0.5;"/><path d="M1485,184.4199 L1485,194.4199 L1495,194.4199 L1485,184.4199 " fill="#FEFFDD" style="stroke:#181818;stroke-width:0.5;"/><text fill="#000000" font-family="sans-serif" font-size="13" lengthAdjust="spacing" textLength="158" x="1243" y="201.9883">here the rep will do a call</text><text fill="#000000" font-family="sans-serif" font-size="13" lengthAdjust="spacing" textLength="217" x="1243" y="217.2988">for both user machines to check if</text><text fill="#000000" font-family="sans-serif" font-size="13" lengthAdjust="spacing" textLength="186" x="1243" y="232.6094">user exist if it does not it will</text><text fill="#000000" font-family="sans-serif" font-size="13" lengthAdjust="spacing" textLength="237" x="1243" y="247.9199">throw a UsernameNotFoundException</text><line style="stroke:#181818;stroke-width:1.0;stroke-dasharray:2.0,2.0;" x1="801.5" x2="843.5" y1="306.4385" y2="306.4385"/><line style="stroke:#181818;stroke-width:1.0;stroke-dasharray:2.0,2.0;" x1="843.5" x2="843.5" y1="306.4385" y2="319.4385"/><line style="stroke:#181818;stroke-width:1.0;stroke-dasharray:2.0,2.0;" x1="796.5" x2="843.5" y1="319.4385" y2="319.4385"/><polygon fill="#181818" points="806.5,315.4385,796.5,319.4385,806.5,323.4385,802.5,319.4385" style="stroke:#181818;stroke-width:1.0;"/><text fill="#000000" font-family="sans-serif" font-size="13" font-weight="bold" lengthAdjust="spacing" textLength="9" x="808.5" y="301.6963">5</text><text fill="#000000" font-family="sans-serif" font-size="13" lengthAdjust="spacing" textLength="523" x="821.5" y="301.6963">Optional&lt;Subscriptions&gt; sub = findByActiveStatus_ActiveAndUser(true, username)</text><path d="M1356,265.6621 L1356,336.6621 L1614,336.6621 L1614,275.6621 L1604,265.6621 L1356,265.6621 " fill="#FEFFDD" style="stroke:#181818;stroke-width:0.5;"/><path d="M1604,265.6621 L1604,275.6621 L1614,275.6621 L1604,265.6621 " fill="#FEFFDD" style="stroke:#181818;stroke-width:0.5;"/><text fill="#000000" font-family="sans-serif" font-size="13" lengthAdjust="spacing" textLength="158" x="1362" y="283.2305">here the rep will do a call</text><text fill="#000000" font-family="sans-serif" font-size="13" lengthAdjust="spacing" textLength="112" x="1362" y="298.541">locally to check if</text><text fill="#000000" font-family="sans-serif" font-size="13" lengthAdjust="spacing" textLength="189" x="1362" y="313.8516">subs exist if it does not it will</text><text fill="#000000" font-family="sans-serif" font-size="13" lengthAdjust="spacing" textLength="237" x="1362" y="329.1621">throw a UsernameNotFoundException</text><polygon fill="#181818" points="466.5,359.2148,456.5,363.2148,466.5,367.2148,462.5,363.2148" style="stroke:#181818;stroke-width:1.0;"/><line style="stroke:#181818;stroke-width:1.0;stroke-dasharray:2.0,2.0;" x1="460.5" x2="800.5" y1="363.2148" y2="363.2148"/><text fill="#000000" font-family="sans-serif" font-size="13" font-weight="bold" lengthAdjust="spacing" textLength="9" x="472.5" y="358.4727">6</text><text fill="#000000" font-family="sans-serif" font-size="13" lengthAdjust="spacing" textLength="79" x="485.5" y="358.4727">subscription</text><path d="M361,378.2148 L423,378.2148 L423,385.5254 L413,395.5254 L361,395.5254 L361,378.2148 " fill="#EEEEEE" style="stroke:#000000;stroke-width:1.5;"/><rect fill="none" height="118.2422" style="stroke:#000000;stroke-width:1.5;" width="854.5" x="361" y="378.2148"/><text fill="#000000" font-family="sans-serif" font-size="13" font-weight="bold" lengthAdjust="spacing" textLength="17" x="376" y="391.7832">alt</text><text fill="#000000" font-family="sans-serif" font-size="11" font-weight="bold" lengthAdjust="spacing" textLength="128" x="438" y="390.8496">[A - subs exist locally]</text><polygon fill="#181818" points="784.5,412.8359,794.5,416.8359,784.5,420.8359,788.5,416.8359" style="stroke:#181818;stroke-width:1.0;"/><line style="stroke:#181818;stroke-width:1.0;" x1="455.5" x2="790.5" y1="416.8359" y2="416.8359"/><text fill="#000000" font-family="sans-serif" font-size="13" font-weight="bold" lengthAdjust="spacing" textLength="9" x="462.5" y="412.0938">7</text><text fill="#000000" font-family="sans-serif" font-size="13" lengthAdjust="spacing" textLength="243" x="475.5" y="412.0938">PlansDetails subExistLocal(planName);</text><line style="stroke:#181818;stroke-width:1.0;stroke-dasharray:2.0,2.0;" x1="806.5" x2="848.5" y1="451.1465" y2="451.1465"/><line style="stroke:#181818;stroke-width:1.0;stroke-dasharray:2.0,2.0;" x1="848.5" x2="848.5" y1="451.1465" y2="464.1465"/><line style="stroke:#181818;stroke-width:1.0;stroke-dasharray:2.0,2.0;" x1="801.5" x2="848.5" y1="464.1465" y2="464.1465"/><polygon fill="#181818" points="811.5,460.1465,801.5,464.1465,811.5,468.1465,807.5,464.1465" style="stroke:#181818;stroke-width:1.0;"/><text fill="#000000" font-family="sans-serif" font-size="13" font-weight="bold" lengthAdjust="spacing" textLength="9" x="813.5" y="446.4043">8</text><text fill="#000000" font-family="sans-serif" font-size="13" lengthAdjust="spacing" textLength="377" x="826.5" y="446.4043">HttpResponse&lt;String&gt; plan = getPlansFromOtherAPI(plan2)</text><polygon fill="#181818" points="466.5,484.457,456.5,488.457,466.5,492.457,462.5,488.457" style="stroke:#181818;stroke-width:1.0;"/><line style="stroke:#181818;stroke-width:1.0;stroke-dasharray:2.0,2.0;" x1="460.5" x2="800.5" y1="488.457" y2="488.457"/><text fill="#000000" font-family="sans-serif" font-size="13" font-weight="bold" lengthAdjust="spacing" textLength="9" x="472.5" y="483.7148">9</text><text fill="#000000" font-family="sans-serif" font-size="13" lengthAdjust="spacing" textLength="27" x="485.5" y="483.7148">plan</text><path d="M361,510.457 L423,510.457 L423,517.7676 L413,527.7676 L361,527.7676 L361,510.457 " fill="#EEEEEE" style="stroke:#000000;stroke-width:1.5;"/><rect fill="none" height="160.5527" style="stroke:#000000;stroke-width:1.5;" width="1044.5" x="361" y="510.457"/><text fill="#000000" font-family="sans-serif" font-size="13" font-weight="bold" lengthAdjust="spacing" textLength="17" x="376" y="524.0254">alt</text><text fill="#000000" font-family="sans-serif" font-size="11" font-weight="bold" lengthAdjust="spacing" textLength="179" x="438" y="523.0918">[B - subs does not exist locally]</text><polygon fill="#181818" points="784.5,545.0781,794.5,549.0781,784.5,553.0781,788.5,549.0781" style="stroke:#181818;stroke-width:1.0;"/><line style="stroke:#181818;stroke-width:1.0;" x1="455.5" x2="790.5" y1="549.0781" y2="549.0781"/><text fill="#000000" font-family="sans-serif" font-size="13" font-weight="bold" lengthAdjust="spacing" textLength="18" x="462.5" y="544.3359">10</text><text fill="#000000" font-family="sans-serif" font-size="13" lengthAdjust="spacing" textLength="300" x="484.5" y="544.3359">PlansDetails subExistNotLocal(username, auth);</text><line style="stroke:#181818;stroke-width:1.0;stroke-dasharray:2.0,2.0;" x1="806.5" x2="848.5" y1="583.3887" y2="583.3887"/><line style="stroke:#181818;stroke-width:1.0;stroke-dasharray:2.0,2.0;" x1="848.5" x2="848.5" y1="583.3887" y2="596.3887"/><line style="stroke:#181818;stroke-width:1.0;stroke-dasharray:2.0,2.0;" x1="801.5" x2="848.5" y1="596.3887" y2="596.3887"/><polygon fill="#181818" points="811.5,592.3887,801.5,596.3887,811.5,600.3887,807.5,596.3887" style="stroke:#181818;stroke-width:1.0;"/><text fill="#000000" font-family="sans-serif" font-size="13" font-weight="bold" lengthAdjust="spacing" textLength="18" x="813.5" y="578.6465">11</text><text fill="#000000" font-family="sans-serif" font-size="13" lengthAdjust="spacing" textLength="412" x="835.5" y="578.6465">HttpResponse&lt;String&gt; user = getUserFromOtherAPI(String name)</text><line style="stroke:#181818;stroke-width:1.0;stroke-dasharray:2.0,2.0;" x1="801.5" x2="843.5" y1="625.6992" y2="625.6992"/><line style="stroke:#181818;stroke-width:1.0;stroke-dasharray:2.0,2.0;" x1="843.5" x2="843.5" y1="625.6992" y2="638.6992"/><line style="stroke:#181818;stroke-width:1.0;stroke-dasharray:2.0,2.0;" x1="796.5" x2="843.5" y1="638.6992" y2="638.6992"/><polygon fill="#181818" points="806.5,634.6992,796.5,638.6992,806.5,642.6992,802.5,638.6992" style="stroke:#181818;stroke-width:1.0;"/><text fill="#000000" font-family="sans-serif" font-size="13" font-weight="bold" lengthAdjust="spacing" textLength="18" x="808.5" y="620.957">12</text><text fill="#000000" font-family="sans-serif" font-size="13" lengthAdjust="spacing" textLength="563" x="830.5" y="620.957">HttpResponse&lt;String&gt; = subscriptiongetSubsFromOtherApi(String username,String auth)</text><polygon fill="#181818" points="466.5,659.0098,456.5,663.0098,466.5,667.0098,462.5,663.0098" style="stroke:#181818;stroke-width:1.0;"/><line style="stroke:#181818;stroke-width:1.0;stroke-dasharray:2.0,2.0;" x1="460.5" x2="800.5" y1="663.0098" y2="663.0098"/><text fill="#000000" font-family="sans-serif" font-size="13" font-weight="bold" lengthAdjust="spacing" textLength="18" x="472.5" y="658.2676">13</text><text fill="#000000" font-family="sans-serif" font-size="13" lengthAdjust="spacing" textLength="27" x="494.5" y="658.2676">plan</text><polygon fill="#181818" points="242.5,721.2861,232.5,725.2861,242.5,729.2861,238.5,725.2861" style="stroke:#181818;stroke-width:1.0;"/><line style="stroke:#181818;stroke-width:1.0;stroke-dasharray:2.0,2.0;" x1="236.5" x2="449.5" y1="725.2861" y2="725.2861"/><text fill="#000000" font-family="sans-serif" font-size="13" font-weight="bold" lengthAdjust="spacing" textLength="18" x="248.5" y="720.5439">14</text><text fill="#000000" font-family="sans-serif" font-size="13" lengthAdjust="spacing" textLength="27" x="270.5" y="720.5439">plan</text><path d="M5,683.0098 L5,754.0098 L217,754.0098 L217,693.0098 L207,683.0098 L5,683.0098 " fill="#FEFFDD" style="stroke:#181818;stroke-width:0.5;"/><path d="M207,683.0098 L207,693.0098 L217,693.0098 L207,683.0098 " fill="#FEFFDD" style="stroke:#181818;stroke-width:0.5;"/><text fill="#000000" font-family="sans-serif" font-size="13" lengthAdjust="spacing" textLength="149" x="11" y="700.5781">The controller here also</text><text fill="#000000" font-family="sans-serif" font-size="13" lengthAdjust="spacing" textLength="164" x="11" y="715.8887">creates an ResponseEntity</text><text fill="#000000" font-family="sans-serif" font-size="13" lengthAdjust="spacing" textLength="191" x="11" y="731.1992">to show the user the plan with</text><text fill="#000000" font-family="sans-serif" font-size="13" lengthAdjust="spacing" textLength="190" x="11" y="746.5098">"plansViewMapper" as objView</text><polygon fill="#181818" points="72.5,776.5625,62.5,780.5625,72.5,784.5625,68.5,780.5625" style="stroke:#181818;stroke-width:1.0;"/><line style="stroke:#181818;stroke-width:1.0;stroke-dasharray:2.0,2.0;" x1="66.5" x2="225.5" y1="780.5625" y2="780.5625"/><text fill="#000000" font-family="sans-serif" font-size="13" font-weight="bold" lengthAdjust="spacing" textLength="18" x="78.5" y="775.8203">15</text><text fill="#000000" font-family="sans-serif" font-size="13" lengthAdjust="spacing" textLength="78" x="100.5" y="775.8203">objViewView</text><!--SRC=[jPHDRnCn48Rl_XMZN4YaXaWSGrifBIaWGLirBLVaE9EimMilzcpJ_7jclBjjGfD23vpMzZmxde_NywOWgj9uDAgSzbINxgq9vIZXhngzmU72wbNKfT8r1Mt8tcj223xlVLtECIgbs10Yz6RrF9be-Qm7Ei74g4f7iiPMx1bwuzPUaGq-dGTFCJZNmkSKtKlu3EEzDPXPMR_4tc0LakMGDWrUp-NafJywJgc9WU5fZWR6y75w2wEq3OvKDZ4YGJ1opLK3AHsSvCy796rTwdDzYe5IcHAwYM4CDbr7JEWf4qTrmkXrYGFL4Z3Sfk4JD-S6KyLNu_6CelMhKv2V-BeLqXslBc8ehwZ0EBd-tFUuRgY1ye4x5Usg80N0PWI68685Q-iSB09eCDevjYwvU_D0HUEvrAQm7XDG05EW-GbsoL2suODDn7kmn1wOuLjaBIwPeIA6DVkzQzEw37GHQh-OFXZC1LJe5_8Fxi_tAaFQ7UzqvnIu1vpmqlh5sMOYAiGPQQhJzsOpyGkviK-nnYDugkahIk22B3P_v2oz_ryvipB6i2qkUKYEO0B3xNlRm9ufIOINMhK9FnNwYy1zqU6b5E2zsbTc6EzLLIjYLbLslIChiRqRF8kVzI-Md227diC_wy9_BDLk7l-M21UnoQLhvX7a5tKeerS_b0Q1Ws_laCkJdPQnPr7ga-VATfuV0s_tpK3uMmMxyhGpgBMgHiaEbopaMvQmUHoUZQorIq61YSZJEG7tiOjxwidIHeciKy4o5VtdgiWYTtnjgL3GatNwPd7zLLTLEvF3_8USFEcNX-FnSDXDnzQSaTy0]--></g></svg>