<?xml version="1.0" encoding="us-ascii" standalone="no"?><svg xmlns="http://www.w3.org/2000/svg" xmlns:xlink="http://www.w3.org/1999/xlink" contentStyleType="text/css" height="643px" preserveAspectRatio="none" style="width:621px;height:643px;background:#FFFFFF;" version="1.1" viewBox="0 0 621 643" width="621px" zoomAndPan="magnify"><defs/><g><!--class SubscriptionsRepository--><g id="elem_SubscriptionsRepository"><rect codeLine="28" fill="#F1F1F1" height="139.0625" id="SubscriptionsRepository" rx="2.5" ry="2.5" style="stroke:#181818;stroke-width:0.5;" width="518" x="15" y="278.95"/><text fill="#000000" font-family="sans-serif" font-size="12" font-style="italic" lengthAdjust="spacing" textLength="62" x="243" y="295.5516">&#171;interface&#187;</text><text fill="#000000" font-family="sans-serif" font-size="14" font-style="italic" lengthAdjust="spacing" textLength="166" x="191" y="311.618">SubscriptionsRepository</text><line style="stroke:#181818;stroke-width:0.5;" x1="16" x2="532" y1="319.5711" y2="319.5711"/><line style="stroke:#181818;stroke-width:0.5;" x1="16" x2="532" y1="327.5711" y2="327.5711"/><ellipse cx="26" cy="341.3152" fill="#84BE84" rx="3" ry="3" style="stroke:#038048;stroke-width:1.0;"/><text fill="#000000" font-family="sans-serif" font-size="14" lengthAdjust="spacing" textLength="492" x="35" y="345.1062">getSubsFromOtherApi(String name,String auth) :HttpResponse&lt;String&gt;</text><ellipse cx="26" cy="357.8035" fill="#84BE84" rx="3" ry="3" style="stroke:#038048;stroke-width:1.0;"/><text fill="#000000" font-family="sans-serif" font-size="14" lengthAdjust="spacing" textLength="414" x="35" y="361.5945">getPlansFromOtherAPI(String name): HttpResponse&lt;String&gt;</text><ellipse cx="26" cy="374.2918" fill="#84BE84" rx="3" ry="3" style="stroke:#038048;stroke-width:1.0;"/><text fill="#000000" font-family="sans-serif" font-size="14" lengthAdjust="spacing" textLength="451" x="35" y="378.0828">isPresent(String auth, String username): Optional&lt;Subscriptions&gt;</text><ellipse cx="26" cy="390.7801" fill="#84BE84" rx="3" ry="3" style="stroke:#038048;stroke-width:1.0;"/><text fill="#000000" font-family="sans-serif" font-size="14" lengthAdjust="spacing" textLength="307" x="35" y="394.5711">subExistLocal(String planName): PlansDetails</text><ellipse cx="26" cy="407.2684" fill="#84BE84" rx="3" ry="3" style="stroke:#038048;stroke-width:1.0;"/><text fill="#000000" font-family="sans-serif" font-size="14" lengthAdjust="spacing" textLength="414" x="35" y="411.0594">subExistNotLocal(String username, String auth): PlansDetails</text></g><!--class Subscriptions--><g id="elem_Subscriptions"><rect codeLine="7" fill="#F1F1F1" height="141.418" id="Subscriptions" rx="2.5" ry="2.5" style="stroke:#181818;stroke-width:0.5;" width="118" x="380" y="495.01"/><text fill="#000000" font-family="sans-serif" font-size="14" lengthAdjust="spacing" textLength="93" x="392.5" y="513.5452">Subscriptions</text><line style="stroke:#181818;stroke-width:0.5;" x1="381" x2="497" y1="521.4983" y2="521.4983"/><rect fill="none" height="6" style="stroke:#C82930;stroke-width:1.0;" width="6" x="388" y="532.2424"/><text fill="#000000" font-family="sans-serif" font-size="14" lengthAdjust="spacing" textLength="62" x="400" y="539.0334">startDate</text><rect fill="none" height="6" style="stroke:#C82930;stroke-width:1.0;" width="6" x="388" y="548.7307"/><text fill="#000000" font-family="sans-serif" font-size="14" lengthAdjust="spacing" textLength="57" x="400" y="555.5217">endDate</text><rect fill="none" height="6" style="stroke:#C82930;stroke-width:1.0;" width="6" x="388" y="565.219"/><text fill="#000000" font-family="sans-serif" font-size="14" lengthAdjust="spacing" textLength="92" x="400" y="572.01">paymentType</text><rect fill="none" height="6" style="stroke:#C82930;stroke-width:1.0;" width="6" x="388" y="581.7073"/><text fill="#000000" font-family="sans-serif" font-size="14" lengthAdjust="spacing" textLength="81" x="400" y="588.4983">activeStatus</text><rect fill="none" height="6" style="stroke:#C82930;stroke-width:1.0;" width="6" x="388" y="598.1955"/><text fill="#000000" font-family="sans-serif" font-size="14" lengthAdjust="spacing" textLength="69" x="400" y="604.9866">planName</text><rect fill="none" height="6" style="stroke:#C82930;stroke-width:1.0;" width="6" x="388" y="614.6838"/><text fill="#000000" font-family="sans-serif" font-size="14" lengthAdjust="spacing" textLength="68" x="400" y="621.4748">username</text><line style="stroke:#181818;stroke-width:0.5;" x1="381" x2="497" y1="628.428" y2="628.428"/></g><!--class PlansViewMapper--><g id="elem_PlansViewMapper"><rect codeLine="18" fill="#F1F1F1" height="58.9766" id="PlansViewMapper" rx="2.5" ry="2.5" style="stroke:#181818;stroke-width:0.5;" width="352" x="7" y="142.97"/><text fill="#000000" font-family="sans-serif" font-size="14" lengthAdjust="spacing" textLength="120" x="123" y="161.5052">PlansViewMapper</text><line style="stroke:#181818;stroke-width:0.5;" x1="8" x2="358" y1="169.4583" y2="169.4583"/><line style="stroke:#181818;stroke-width:0.5;" x1="8" x2="358" y1="177.4583" y2="177.4583"/><ellipse cx="18" cy="191.2024" fill="#84BE84" rx="3" ry="3" style="stroke:#038048;stroke-width:1.0;"/><text fill="#000000" font-family="sans-serif" font-size="14" lengthAdjust="spacing" textLength="326" x="27" y="194.9934">toPlansView(PlansDetails plan):PlansDetailsView</text></g><!--class SubscriptionsController--><g id="elem_SubscriptionsController"><rect codeLine="21" fill="#F1F1F1" height="58.9766" id="SubscriptionsController" rx="2.5" ry="2.5" style="stroke:#181818;stroke-width:0.5;" width="342" x="54" y="7"/><text fill="#000000" font-family="sans-serif" font-size="14" lengthAdjust="spacing" textLength="163" x="143.5" y="25.5352">SubscriptionsController</text><line style="stroke:#181818;stroke-width:0.5;" x1="55" x2="395" y1="33.4883" y2="33.4883"/><line style="stroke:#181818;stroke-width:0.5;" x1="55" x2="395" y1="41.4883" y2="41.4883"/><text fill="#000000" font-family="sans-serif" font-size="14" lengthAdjust="spacing" textLength="330" x="60" y="59.0234">planDetails():ResponseEntity&lt;PlansDetailsView&gt;</text></g><!--class SubscriptionsService--><g id="elem_SubscriptionsService"><rect codeLine="24" fill="#F1F1F1" height="58.9766" id="SubscriptionsService" rx="2.5" ry="2.5" style="stroke:#181818;stroke-width:0.5;" width="221" x="393.5" y="142.97"/><text fill="#000000" font-family="sans-serif" font-size="14" lengthAdjust="spacing" textLength="141" x="433.5" y="161.5052">SubscriptionsService</text><line style="stroke:#181818;stroke-width:0.5;" x1="394.5" x2="613.5" y1="169.4583" y2="169.4583"/><line style="stroke:#181818;stroke-width:0.5;" x1="394.5" x2="613.5" y1="177.4583" y2="177.4583"/><ellipse cx="404.5" cy="191.2024" fill="#84BE84" rx="3" ry="3" style="stroke:#038048;stroke-width:1.0;"/><text fill="#000000" font-family="sans-serif" font-size="14" lengthAdjust="spacing" textLength="195" x="413.5" y="194.9934">planDetails(String auth):Plan</text></g><!--link SubscriptionsController to SubscriptionsService--><g id="link_SubscriptionsController_SubscriptionsService"><path codeLine="41" d="M285.2,66.39 C332.13,88.93 391.5915,117.4824 438.5015,140.0124 " fill="none" id="SubscriptionsController-to-SubscriptionsService" style="stroke:#181818;stroke-width:1.0;stroke-dasharray:7.0,7.0;"/><polygon fill="#181818" points="443.91,142.61,437.5289,135.1079,439.4029,140.4453,434.0654,142.3193,443.91,142.61" style="stroke:#181818;stroke-width:1.0;"/><polygon fill="#000000" points="390.5072,106.7898,383.6259,100.2249,381.0813,105.5234,390.5072,106.7898" style="stroke:#000000;stroke-width:1.0;"/><text fill="#000000" font-family="sans-serif" font-size="13" lengthAdjust="spacing" textLength="29" x="395" y="109.5384">uses</text></g><!--link SubscriptionsService to SubscriptionsRepository--><g id="link_SubscriptionsService_SubscriptionsRepository"><path codeLine="42" d="M465.76,202.39 C438.3,223.17 404.8752,248.4604 369.7752,275.0104 " fill="none" id="SubscriptionsService-to-SubscriptionsRepository" style="stroke:#181818;stroke-width:1.0;stroke-dasharray:7.0,7.0;"/><polygon fill="#181818" points="364.99,278.63,374.5809,276.3908,368.9777,275.6137,369.7548,270.0104,364.99,278.63" style="stroke:#181818;stroke-width:1.0;"/><polygon fill="#000000" points="424.0126,243.622,432.9991,240.5084,429.4526,235.8209,424.0126,243.622" style="stroke:#000000;stroke-width:1.0;"/><text fill="#000000" font-family="sans-serif" font-size="13" lengthAdjust="spacing" textLength="29" x="437" y="245.5184">uses</text></g><!--link SubscriptionsService to Subscriptions--><g id="link_SubscriptionsService_Subscriptions"><path codeLine="43" d="M520.49,202.39 C531.26,223 544.33,251.76 550,278.95 C562.62,339.45 569.67,359.42 550,418.01 C539.38,449.65 522.7569,475.2889 502.2769,500.0189 " fill="none" id="SubscriptionsService-to-Subscriptions" style="stroke:#181818;stroke-width:1.0;stroke-dasharray:7.0,7.0;"/><polygon fill="#181818" points="498.45,504.64,507.2711,500.2596,501.6391,500.7891,501.1097,495.1571,498.45,504.64" style="stroke:#181818;stroke-width:1.0;"/><polygon fill="#000000" points="566.6946,353.6259,570.1805,344.7772,564.3136,344.4182,566.6946,353.6259" style="stroke:#000000;stroke-width:1.0;"/><text fill="#000000" font-family="sans-serif" font-size="13" lengthAdjust="spacing" textLength="29" x="576" y="353.5484">uses</text></g><!--link SubscriptionsRepository to Subscriptions--><g id="link_SubscriptionsRepository_Subscriptions"><path codeLine="44" d="M326.89,418.47 C345.55,442.82 362.8994,465.4484 381.6294,489.8784 " fill="none" id="SubscriptionsRepository-to-Subscriptions" style="stroke:#181818;stroke-width:1.0;stroke-dasharray:7.0,7.0;"/><polygon fill="#181818" points="385.28,494.64,382.9785,485.0638,382.2378,490.672,376.6297,489.9313,385.28,494.64" style="stroke:#181818;stroke-width:1.0;"/><polygon fill="#000000" points="362.9581,452.6971,366.1285,461.6636,370.7934,458.0876,362.9581,452.6971" style="stroke:#000000;stroke-width:1.0;"/><text fill="#000000" font-family="sans-serif" font-size="13" lengthAdjust="spacing" textLength="40" x="375" y="461.5784">record</text></g><!--link SubscriptionsController to PlansViewMapper--><g id="link_SubscriptionsController_PlansViewMapper"><path codeLine="45" d="M215.99,66.23 C208.9,88.83 200.8737,114.4444 193.7937,137.0444 " fill="none" id="SubscriptionsController-to-PlansViewMapper" style="stroke:#181818;stroke-width:1.0;stroke-dasharray:7.0,7.0;"/><polygon fill="#181818" points="192,142.77,198.5076,135.3774,193.4947,137.9987,190.8735,132.9858,192,142.77" style="stroke:#181818;stroke-width:1.0;"/><polygon fill="#000000" points="210.5045,109.3964,216.0143,101.6444,210.4055,99.8863,210.5045,109.3964" style="stroke:#000000;stroke-width:1.0;"/><text fill="#000000" font-family="sans-serif" font-size="13" lengthAdjust="spacing" textLength="29" x="221" y="109.5384">uses</text></g><!--SRC=[bPF9Ri8m48RlUGhV2cAxHr6agb2rKWk8LBqRCmLBZcrv9hGHwhlNsKYWeL9zodZc_sPpxWv45iFPp2gkAKlLL9Xq9XH7dEmatpkU1WUv0oQa4mg2qiEIR8l2IKlIQDo0DIZ9k9n5aTG4xeCBYEF0dvvmTWgOFnCaxcZE2IeJzAurBCzJqFIMs_g22v97I8XJXdM8htV9qzgV8JXTMDzjrhMFm7S9dw_SMd1LsX6Py_sW_9e3SQcG5S1XsBqgOZomfuS7eyaPfHfgeQr5Ws6u0RG-21QQ9ENHDJ8k9RtS1DnH2l3GKHUPa9DwptX6Xwh2eitpf6zj8pW5eprGuNrq9btH0TozbGsj6DUuIsRXatyBJV5HvOfBHjb22ra_To73aFKB9QuTeDzZju4ngurcPLw-AaldAhhen1Cmsow-9DAB4Lmrb6RpNjWTRHkzD9U29jCvTJN8ItLGFPqRQsRJQToxgh2W8uk3FkTlLRkTVmhxmpk_NeyYOWw4SRk_chhwIPeqFm00]--></g></svg>