<?xml version="1.0" encoding="us-ascii" standalone="no"?><svg xmlns="http://www.w3.org/2000/svg" xmlns:xlink="http://www.w3.org/1999/xlink" contentStyleType="text/css" height="612px" preserveAspectRatio="none" style="width:2022px;height:612px;background:#FFFFFF;" version="1.1" viewBox="0 0 2022 612" width="2022px" zoomAndPan="magnify"><defs/><g><!--class SubscriptionsRepository--><g id="elem_SubscriptionsRepository"><rect codeLine="45" fill="#F1F1F1" height="97.8242" id="SubscriptionsRepository" rx="2.5" ry="2.5" style="stroke:#181818;stroke-width:0.5;" width="576" x="7" y="291"/><text fill="#000000" font-family="sans-serif" font-size="12" font-style="italic" lengthAdjust="spacing" textLength="61" x="264.5" y="308.9492">&#171;interface&#187;</text><text fill="#000000" font-family="sans-serif" font-size="14" font-style="italic" lengthAdjust="spacing" textLength="153" x="218.5" y="327.0684">SubscriptionsRepository</text><line style="stroke:#181818;stroke-width:0.5;" x1="8" x2="582" y1="335.582" y2="335.582"/><line style="stroke:#181818;stroke-width:0.5;" x1="8" x2="582" y1="343.582" y2="343.582"/><ellipse cx="18" cy="358.3926" fill="#84BE84" rx="3" ry="3" style="stroke:#038048;stroke-width:1.0;"/><text fill="#000000" font-family="sans-serif" font-size="14" lengthAdjust="spacing" textLength="550" x="27" y="362.6895">findByActiveStatus_ActiveAndUser(boolean active, User user): Optional&lt;Subscriptions&gt;</text><ellipse cx="18" cy="377.0137" fill="#84BE84" rx="3" ry="3" style="stroke:#038048;stroke-width:1.0;"/><text fill="#000000" font-family="sans-serif" font-size="14" lengthAdjust="spacing" textLength="266" x="27" y="381.3105">save(S entity) : &lt;S extends Subscriptions&gt;</text></g><!--class UserRepository--><g id="elem_UserRepository"><rect codeLine="35" fill="#F1F1F1" height="79.2031" id="UserRepository" rx="2.5" ry="2.5" style="stroke:#181818;stroke-width:0.5;" width="277" x="618.5" y="300.5"/><text fill="#000000" font-family="sans-serif" font-size="12" font-style="italic" lengthAdjust="spacing" textLength="61" x="726.5" y="318.4492">&#171;interface&#187;</text><text fill="#000000" font-family="sans-serif" font-size="14" font-style="italic" lengthAdjust="spacing" textLength="98" x="708" y="336.5684">UserRepository</text><line style="stroke:#181818;stroke-width:0.5;" x1="619.5" x2="894.5" y1="345.082" y2="345.082"/><line style="stroke:#181818;stroke-width:0.5;" x1="619.5" x2="894.5" y1="353.082" y2="353.082"/><ellipse cx="629.5" cy="367.8926" fill="#84BE84" rx="3" ry="3" style="stroke:#038048;stroke-width:1.0;"/><text fill="#000000" font-family="sans-serif" font-size="14" lengthAdjust="spacing" textLength="251" x="638.5" y="372.1895">findById(Long objectId): Optional&lt;User&gt;</text></g><!--class PlansRepository--><g id="elem_PlansRepository"><rect codeLine="30" fill="#F1F1F1" height="79.2031" id="PlansRepository" rx="2.5" ry="2.5" style="stroke:#181818;stroke-width:0.5;" width="603" x="930.5" y="300.5"/><text fill="#000000" font-family="sans-serif" font-size="12" font-style="italic" lengthAdjust="spacing" textLength="61" x="1201.5" y="318.4492">&#171;interface&#187;</text><text fill="#000000" font-family="sans-serif" font-size="14" font-style="italic" lengthAdjust="spacing" textLength="103" x="1180.5" y="336.5684">PlansRepository</text><line style="stroke:#181818;stroke-width:0.5;" x1="931.5" x2="1532.5" y1="345.082" y2="345.082"/><line style="stroke:#181818;stroke-width:0.5;" x1="931.5" x2="1532.5" y1="353.082" y2="353.082"/><ellipse cx="941.5" cy="367.8926" fill="#84BE84" rx="3" ry="3" style="stroke:#038048;stroke-width:1.0;"/><text fill="#000000" font-family="sans-serif" font-size="14" lengthAdjust="spacing" textLength="577" x="950.5" y="372.1895">findByActive_ActiveAndName_Name(boolean active, String name_name)  : Optional&lt;Plans&gt;</text></g><!--class DeviceRepository--><g id="elem_DeviceRepository"><rect codeLine="40" fill="#F1F1F1" height="79.2031" id="DeviceRepository" rx="2.5" ry="2.5" style="stroke:#181818;stroke-width:0.5;" width="447" x="1568.5" y="300.5"/><text fill="#000000" font-family="sans-serif" font-size="12" font-style="italic" lengthAdjust="spacing" textLength="61" x="1761.5" y="318.4492">&#171;interface&#187;</text><text fill="#000000" font-family="sans-serif" font-size="14" font-style="italic" lengthAdjust="spacing" textLength="110" x="1737" y="336.5684">DeviceRepository</text><line style="stroke:#181818;stroke-width:0.5;" x1="1569.5" x2="2014.5" y1="345.082" y2="345.082"/><line style="stroke:#181818;stroke-width:0.5;" x1="1569.5" x2="2014.5" y1="353.082" y2="353.082"/><ellipse cx="1579.5" cy="367.8926" fill="#84BE84" rx="3" ry="3" style="stroke:#038048;stroke-width:1.0;"/><text fill="#000000" font-family="sans-serif" font-size="14" lengthAdjust="spacing" textLength="421" x="1588.5" y="372.1895">countBySubscription(Subscriptions (Subscription subscriptions): int</text></g><!--class Subscriptions--><g id="elem_Subscriptions"><rect codeLine="8" fill="#F1F1F1" height="137.7266" id="Subscriptions" rx="2.5" ry="2.5" style="stroke:#181818;stroke-width:0.5;" width="345" x="122.5" y="468"/><text fill="#000000" font-family="sans-serif" font-size="14" lengthAdjust="spacing" textLength="85" x="252.5" y="488.1074">Subscriptions</text><line style="stroke:#181818;stroke-width:0.5;" x1="123.5" x2="466.5" y1="496.6211" y2="496.6211"/><rect fill="none" height="6" style="stroke:#C82930;stroke-width:1.0;" width="6" x="130.5" y="508.4316"/><text fill="#000000" font-family="sans-serif" font-size="14" lengthAdjust="spacing" textLength="58" x="142.5" y="515.7285">startDate</text><rect fill="none" height="6" style="stroke:#C82930;stroke-width:1.0;" width="6" x="130.5" y="527.0527"/><text fill="#000000" font-family="sans-serif" font-size="14" lengthAdjust="spacing" textLength="54" x="142.5" y="534.3496">endDate</text><rect fill="none" height="6" style="stroke:#C82930;stroke-width:1.0;" width="6" x="130.5" y="545.6738"/><text fill="#000000" font-family="sans-serif" font-size="14" lengthAdjust="spacing" textLength="86" x="142.5" y="552.9707">paymentType</text><rect fill="none" height="6" style="stroke:#C82930;stroke-width:1.0;" width="6" x="130.5" y="564.2949"/><text fill="#000000" font-family="sans-serif" font-size="14" lengthAdjust="spacing" textLength="77" x="142.5" y="571.5918">activeStatus</text><line style="stroke:#181818;stroke-width:0.5;" x1="123.5" x2="466.5" y1="579.1055" y2="579.1055"/><ellipse cx="133.5" cy="593.916" fill="#84BE84" rx="3" ry="3" style="stroke:#038048;stroke-width:1.0;"/><text fill="#000000" font-family="sans-serif" font-size="14" lengthAdjust="spacing" textLength="319" x="142.5" y="598.2129">changePlan(long desiredVersion, Plans plan): void</text></g><!--class SubscriptionsViewMapper--><g id="elem_SubscriptionsViewMapper"><rect codeLine="18" fill="#F1F1F1" height="63.2422" id="SubscriptionsViewMapper" rx="2.5" ry="2.5" style="stroke:#181818;stroke-width:0.5;" width="445" x="309.5" y="149"/><text fill="#000000" font-family="sans-serif" font-size="14" lengthAdjust="spacing" textLength="162" x="451" y="169.1074">SubscriptionsViewMapper</text><line style="stroke:#181818;stroke-width:0.5;" x1="310.5" x2="753.5" y1="177.6211" y2="177.6211"/><line style="stroke:#181818;stroke-width:0.5;" x1="310.5" x2="753.5" y1="185.6211" y2="185.6211"/><ellipse cx="320.5" cy="200.4316" fill="#84BE84" rx="3" ry="3" style="stroke:#038048;stroke-width:1.0;"/><text fill="#000000" font-family="sans-serif" font-size="14" lengthAdjust="spacing" textLength="419" x="329.5" y="204.7285">toSubscriptionsView(Subscription subscriptions):SubscriptionsView</text></g><!--class SubscriptionsController--><g id="elem_SubscriptionsController"><rect codeLine="21" fill="#F1F1F1" height="63.2422" id="SubscriptionsController" rx="2.5" ry="2.5" style="stroke:#181818;stroke-width:0.5;" width="622" x="262" y="7"/><text fill="#000000" font-family="sans-serif" font-size="14" lengthAdjust="spacing" textLength="147" x="499.5" y="27.1074">SubscriptionsController</text><line style="stroke:#181818;stroke-width:0.5;" x1="263" x2="883" y1="35.6211" y2="35.6211"/><line style="stroke:#181818;stroke-width:0.5;" x1="263" x2="883" y1="43.6211" y2="43.6211"/><ellipse cx="273" cy="58.4316" fill="#84BE84" rx="3" ry="3" style="stroke:#038048;stroke-width:1.0;"/><text fill="#000000" font-family="sans-serif" font-size="14" lengthAdjust="spacing" textLength="596" x="282" y="62.7285">changePlan(final WebRequest request, final String name):ResponseEntity&lt;SubscriptionsView&gt;</text></g><!--class SubscriptionsService--><g id="elem_SubscriptionsService"><rect codeLine="24" fill="#F1F1F1" height="63.2422" id="SubscriptionsService" rx="2.5" ry="2.5" style="stroke:#181818;stroke-width:0.5;" width="410" x="790" y="149"/><text fill="#000000" font-family="sans-serif" font-size="14" lengthAdjust="spacing" textLength="132" x="929" y="169.1074">SubscriptionsService</text><line style="stroke:#181818;stroke-width:0.5;" x1="791" x2="1199" y1="177.6211" y2="177.6211"/><line style="stroke:#181818;stroke-width:0.5;" x1="791" x2="1199" y1="185.6211" y2="185.6211"/><ellipse cx="801" cy="200.4316" fill="#84BE84" rx="3" ry="3" style="stroke:#038048;stroke-width:1.0;"/><text fill="#000000" font-family="sans-serif" font-size="14" lengthAdjust="spacing" textLength="384" x="810" y="204.7285">changePlan(long desiredVersion, String name):Subscriptions</text></g><!--link SubscriptionsController to SubscriptionsService--><g id="link_SubscriptionsController_SubscriptionsService"><path codeLine="53" d="M665.09,70.05 C733.89,92.88 827.73,124.01 897.75,147.24 " fill="none" id="SubscriptionsController-to-SubscriptionsService" style="stroke:#181818;stroke-width:1.0;stroke-dasharray:7.0,7.0;"/><polygon fill="#181818" points="902.74,148.89,895.4548,142.2624,897.9937,147.3174,892.9387,149.8564,902.74,148.89" style="stroke:#181818;stroke-width:1.0;"/><polygon fill="#000000" points="818.7456,111.22,811.0861,105.5823,809.2353,111.1612,818.7456,111.22" style="stroke:#000000;stroke-width:1.0;"/><text fill="#000000" font-family="sans-serif" font-size="13" lengthAdjust="spacing" textLength="28" x="823" y="115.0283">uses</text></g><!--link SubscriptionsService to SubscriptionsRepository--><g id="link_SubscriptionsService_SubscriptionsRepository"><path codeLine="54" d="M859.2,212.05 C761.16,234.11 626.69,264.37 513.62,289.81 " fill="none" id="SubscriptionsService-to-SubscriptionsRepository" style="stroke:#181818;stroke-width:1.0;stroke-dasharray:7.0,7.0;"/><polygon fill="#181818" points="508.59,290.94,518.2446,292.8864,513.4703,289.8523,516.5043,285.078,508.59,290.94" style="stroke:#181818;stroke-width:1.0;"/><polygon fill="#000000" points="707.122,252.7431,716.5916,253.6248,715.3012,247.8903,707.122,252.7431" style="stroke:#000000;stroke-width:1.0;"/><text fill="#000000" font-family="sans-serif" font-size="13" lengthAdjust="spacing" textLength="28" x="721" y="257.0283">uses</text></g><!--link SubscriptionsService to PlansRepository--><g id="link_SubscriptionsService_PlansRepository"><path codeLine="55" d="M1040.98,212.05 C1077.6,236.39 1129.25,270.71 1169.6,297.53 " fill="none" id="SubscriptionsService-to-PlansRepository" style="stroke:#181818;stroke-width:1.0;stroke-dasharray:7.0,7.0;"/><polygon fill="#181818" points="1173.97,300.44,1168.6674,292.1404,1169.7988,297.683,1164.2562,298.8144,1173.97,300.44" style="stroke:#181818;stroke-width:1.0;"/><polygon fill="#000000" points="1122.1642,254.413,1116.2578,246.9589,1113.0044,251.8542,1122.1642,254.413" style="stroke:#000000;stroke-width:1.0;"/><text fill="#000000" font-family="sans-serif" font-size="13" lengthAdjust="spacing" textLength="28" x="1127" y="257.0283">uses</text></g><!--link SubscriptionsService to UserRepository--><g id="link_SubscriptionsService_UserRepository"><path codeLine="56" d="M948.83,212.05 C912.05,236.39 860.19,270.71 819.66,297.53 " fill="none" id="SubscriptionsService-to-UserRepository" style="stroke:#181818;stroke-width:1.0;stroke-dasharray:7.0,7.0;"/><polygon fill="#181818" points="815.27,300.44,824.9838,298.8144,819.4412,297.683,820.5726,292.1404,815.27,300.44" style="stroke:#181818;stroke-width:1.0;"/><polygon fill="#000000" points="897.8303,254.4048,906.9952,251.864,903.7514,246.9623,897.8303,254.4048" style="stroke:#000000;stroke-width:1.0;"/><text fill="#000000" font-family="sans-serif" font-size="13" lengthAdjust="spacing" textLength="28" x="911" y="257.0283">uses</text></g><!--link SubscriptionsService to DeviceRepository--><g id="link_SubscriptionsService_DeviceRepository"><path codeLine="57" d="M1150.5,212.03 C1262,233.95 1415.77,264.22 1551,291 C1564.91,293.76 1579.27,296.6 1593.74,299.48 " fill="none" id="SubscriptionsService-to-DeviceRepository" style="stroke:#181818;stroke-width:1.0;stroke-dasharray:7.0,7.0;"/><polygon fill="#181818" points="1598.64,300.45,1590.5897,294.7762,1593.7355,299.4777,1589.034,302.6234,1598.64,300.45" style="stroke:#181818;stroke-width:1.0;"/><polygon fill="#000000" points="1407.9054,252.6133,1399.6003,247.9792,1398.4625,253.7459,1407.9054,252.6133" style="stroke:#000000;stroke-width:1.0;"/><text fill="#000000" font-family="sans-serif" font-size="13" lengthAdjust="spacing" textLength="28" x="1412" y="257.0283">uses</text></g><!--link SubscriptionsRepository to Subscriptions--><g id="link_SubscriptionsRepository_Subscriptions"><path codeLine="58" d="M295,389.2 C295,411.31 295,438.02 295,462.55 " fill="none" id="SubscriptionsRepository-to-Subscriptions" style="stroke:#181818;stroke-width:1.0;stroke-dasharray:7.0,7.0;"/><polygon fill="#181818" points="295,467.75,299,458.75,295,462.75,291,458.75,295,467.75" style="stroke:#181818;stroke-width:1.0;"/><polygon fill="#000000" points="300,423.6455,297.0611,432.6906,302.9389,432.6906,300,423.6455" style="stroke:#000000;stroke-width:1.0;"/><text fill="#000000" font-family="sans-serif" font-size="13" lengthAdjust="spacing" textLength="36" x="309" y="434.0283">record</text></g><!--link SubscriptionsController to SubscriptionsViewMapper--><g id="link_SubscriptionsController_SubscriptionsViewMapper"><path codeLine="59" d="M564,70.22 C557.65,91.92 549.11,121.07 542.45,143.81 " fill="none" id="SubscriptionsController-to-SubscriptionsViewMapper" style="stroke:#181818;stroke-width:1.0;stroke-dasharray:7.0,7.0;"/><polygon fill="#181818" points="540.98,148.85,547.34,141.33,542.38,144.05,539.66,139.09,540.98,148.85" style="stroke:#181818;stroke-width:1.0;"/><polygon fill="#000000" points="558.5948,114.444,563.9573,106.5894,558.3163,104.9375,558.5948,114.444" style="stroke:#000000;stroke-width:1.0;"/><text fill="#000000" font-family="sans-serif" font-size="13" lengthAdjust="spacing" textLength="28" x="569" y="115.0283">uses</text></g><!--SRC=[XLJ9Rjim4BtpA-PM2Kxiko08I9eS0dI3tQP7WoOdDWE9LCcHMo7elvUKqcXrf0C5SfRtPkQH7qv4fKiscpBdcgeYNmjJR4JEdRkMYXyjBzX9IGIXhCYHDHROLGSdh2f96UssM1gdoDWQqbHfGll41MRPg-yFXtR1vPl7NafpXsSbyABJ735uOU2_QqVSqXqdRBUePRSfULsWfkzr-Nh01QapxeXJvPgJbJXnVSJ0CSgDFe94fopAHxJEerorx27qBqxWR9HaVncR9VIeyFTdNfPeMsOhCXDxr3y1rpV7oSJRGytWV3IQhCdpDvnU2KzAynn-uc6Blofq1BRzNq5hsP5LlaZD2uoJBRhIvyDxJOhgT0AVDUbdEUpGXe5v0eiD740Eah2cbMzp7Wk5lR2LPorlwvjcQllsTwFb5vzh7vReO4oEN4Cxrm7Ola44IE1h0yVpj0780ce7EXHmX_aWeq-X77DuHa4FCkxb2J6ZD6C1XqJ2L9fkwtxDqL32xye1VFOXo8MBEMvKA- -kNO7kf5FX42g_z0iR06HivVWPenrW8v3OjpBrcp_axzX83rbxAoxe5DRhR5O_IM3W86DpncbKL_9ou4XCom538IpxZoS-7z5xqYRb-7Rw-ocCbUyrxi8Ryn_k7m00]--></g></svg>