<?xml version="1.0" encoding="us-ascii" standalone="no"?><svg xmlns="http://www.w3.org/2000/svg" xmlns:xlink="http://www.w3.org/1999/xlink" contentStyleType="text/css" height="1252px" preserveAspectRatio="none" style="width:1897px;height:1252px;background:#FFFFFF;" version="1.1" viewBox="0 0 1897 1252" width="1897px" zoomAndPan="magnify"><defs/><g><rect fill="#FFFFFF" height="1034.2227" style="stroke:#181818;stroke-width:1.0;" width="10" x="290" y="116.9121"/><rect fill="#FFFFFF" height="942.7041" style="stroke:#181818;stroke-width:1.0;" width="10" x="691" y="148.2031"/><rect fill="#FFFFFF" height="99.3096" style="stroke:#181818;stroke-width:1.0;" width="10" x="696" y="679.751"/><rect fill="#FFFFFF" height="73.373" style="stroke:#181818;stroke-width:1.0;" width="10" x="696" y="856.4336"/><rect fill="#FFFFFF" height="77.5186" style="stroke:#181818;stroke-width:1.0;" width="10" x="1268" y="179.4941"/><rect fill="#FFFFFF" height="77.5186" style="stroke:#181818;stroke-width:1.0;" width="10" x="1396" y="334.5313"/><rect fill="#FFFFFF" height="31.291" style="stroke:#181818;stroke-width:1.0;" width="10" x="1549" y="489.5684"/><rect fill="#FFFFFF" height="31.291" style="stroke:#181818;stroke-width:1.0;" width="10" x="1549" y="999.3887"/><rect fill="#FFFFFF" height="31.291" style="stroke:#181818;stroke-width:1.0;" width="10" x="1709" y="552.1504"/><line style="stroke:#181818;stroke-width:0.5;stroke-dasharray:5.0,5.0;" x1="42" x2="42" y1="83.6211" y2="1169.1348"/><line style="stroke:#181818;stroke-width:0.5;stroke-dasharray:5.0,5.0;" x1="294.5" x2="294.5" y1="83.6211" y2="1169.1348"/><line style="stroke:#181818;stroke-width:0.5;stroke-dasharray:5.0,5.0;" x1="696" x2="696" y1="83.6211" y2="1169.1348"/><line style="stroke:#181818;stroke-width:0.5;stroke-dasharray:5.0,5.0;" x1="1272.5" x2="1272.5" y1="83.6211" y2="1169.1348"/><line style="stroke:#181818;stroke-width:0.5;stroke-dasharray:5.0,5.0;" x1="1400.5" x2="1400.5" y1="83.6211" y2="1169.1348"/><line style="stroke:#181818;stroke-width:0.5;stroke-dasharray:5.0,5.0;" x1="1553.5" x2="1553.5" y1="83.6211" y2="1169.1348"/><line style="stroke:#181818;stroke-width:0.5;stroke-dasharray:5.0,5.0;" x1="1713.5" x2="1713.5" y1="83.6211" y2="1169.1348"/><line style="stroke:#181818;stroke-width:0.5;stroke-dasharray:5.0,5.0;" x1="1839.5" x2="1839.5" y1="83.6211" y2="1169.1348"/><text fill="#000000" font-family="sans-serif" font-size="14" lengthAdjust="spacing" textLength="68" x="5" y="80.1074">Subscriber</text><ellipse cx="42" cy="13.5" fill="#E2E2F0" rx="8" ry="8" style="stroke:#181818;stroke-width:0.5;"/><path d="M42,21.5 L42,48.5 M29,29.5 L55,29.5 M42,48.5 L29,63.5 M42,48.5 L55,63.5 " fill="none" style="stroke:#181818;stroke-width:0.5;"/><text fill="#000000" font-family="sans-serif" font-size="14" lengthAdjust="spacing" textLength="68" x="5" y="1183.2422">Subscriber</text><ellipse cx="42" cy="1195.2559" fill="#E2E2F0" rx="8" ry="8" style="stroke:#181818;stroke-width:0.5;"/><path d="M42,1203.2559 L42,1230.2559 M29,1211.2559 L55,1211.2559 M42,1230.2559 L29,1245.2559 M42,1230.2559 L55,1245.2559 " fill="none" style="stroke:#181818;stroke-width:0.5;"/><rect fill="#E2E2F0" height="32.6211" rx="2.5" ry="2.5" style="stroke:#181818;stroke-width:0.5;" width="165" x="212.5" y="50"/><text fill="#000000" font-family="sans-serif" font-size="14" lengthAdjust="spacing" textLength="151" x="219.5" y="72.1074">:SubscriptionsController</text><rect fill="#E2E2F0" height="32.6211" rx="2.5" ry="2.5" style="stroke:#181818;stroke-width:0.5;" width="165" x="212.5" y="1168.1348"/><text fill="#000000" font-family="sans-serif" font-size="14" lengthAdjust="spacing" textLength="151" x="219.5" y="1190.2422">:SubscriptionsController</text><rect fill="#E2E2F0" height="32.6211" rx="2.5" ry="2.5" style="stroke:#181818;stroke-width:0.5;" width="150" x="621" y="50"/><text fill="#000000" font-family="sans-serif" font-size="14" lengthAdjust="spacing" textLength="136" x="628" y="72.1074">:SubscriptionsService</text><rect fill="#E2E2F0" height="32.6211" rx="2.5" ry="2.5" style="stroke:#181818;stroke-width:0.5;" width="150" x="621" y="1168.1348"/><text fill="#000000" font-family="sans-serif" font-size="14" lengthAdjust="spacing" textLength="136" x="628" y="1190.2422">:SubscriptionsService</text><rect fill="#E2E2F0" height="32.6211" rx="2.5" ry="2.5" style="stroke:#181818;stroke-width:0.5;" width="121" x="1212.5" y="50"/><text fill="#000000" font-family="sans-serif" font-size="14" lengthAdjust="spacing" textLength="107" x="1219.5" y="72.1074">:PlansRepository</text><rect fill="#E2E2F0" height="32.6211" rx="2.5" ry="2.5" style="stroke:#181818;stroke-width:0.5;" width="121" x="1212.5" y="1168.1348"/><text fill="#000000" font-family="sans-serif" font-size="14" lengthAdjust="spacing" textLength="107" x="1219.5" y="1190.2422">:PlansRepository</text><rect fill="#E2E2F0" height="32.6211" rx="2.5" ry="2.5" style="stroke:#181818;stroke-width:0.5;" width="115" x="1343.5" y="50"/><text fill="#000000" font-family="sans-serif" font-size="14" lengthAdjust="spacing" textLength="101" x="1350.5" y="72.1074">:UserRepository</text><rect fill="#E2E2F0" height="32.6211" rx="2.5" ry="2.5" style="stroke:#181818;stroke-width:0.5;" width="115" x="1343.5" y="1168.1348"/><text fill="#000000" font-family="sans-serif" font-size="14" lengthAdjust="spacing" textLength="101" x="1350.5" y="1190.2422">:UserRepository</text><rect fill="#E2E2F0" height="32.6211" rx="2.5" ry="2.5" style="stroke:#181818;stroke-width:0.5;" width="171" x="1468.5" y="50"/><text fill="#000000" font-family="sans-serif" font-size="14" lengthAdjust="spacing" textLength="157" x="1475.5" y="72.1074">:SubscriptionsRepository</text><rect fill="#E2E2F0" height="32.6211" rx="2.5" ry="2.5" style="stroke:#181818;stroke-width:0.5;" width="171" x="1468.5" y="1168.1348"/><text fill="#000000" font-family="sans-serif" font-size="14" lengthAdjust="spacing" textLength="157" x="1475.5" y="1190.2422">:SubscriptionsRepository</text><rect fill="#E2E2F0" height="32.6211" rx="2.5" ry="2.5" style="stroke:#181818;stroke-width:0.5;" width="129" x="1649.5" y="50"/><text fill="#000000" font-family="sans-serif" font-size="14" lengthAdjust="spacing" textLength="115" x="1656.5" y="72.1074">:DeviceRepository</text><rect fill="#E2E2F0" height="32.6211" rx="2.5" ry="2.5" style="stroke:#181818;stroke-width:0.5;" width="129" x="1649.5" y="1168.1348"/><text fill="#000000" font-family="sans-serif" font-size="14" lengthAdjust="spacing" textLength="115" x="1656.5" y="1190.2422">:DeviceRepository</text><rect fill="#E2E2F0" height="32.6211" rx="2.5" ry="2.5" style="stroke:#181818;stroke-width:0.5;" width="103" x="1788.5" y="50"/><text fill="#000000" font-family="sans-serif" font-size="14" lengthAdjust="spacing" textLength="89" x="1795.5" y="72.1074">:Subscriptions</text><rect fill="#E2E2F0" height="32.6211" rx="2.5" ry="2.5" style="stroke:#181818;stroke-width:0.5;" width="103" x="1788.5" y="1168.1348"/><text fill="#000000" font-family="sans-serif" font-size="14" lengthAdjust="spacing" textLength="89" x="1795.5" y="1190.2422">:Subscriptions</text><rect fill="#FFFFFF" height="1034.2227" style="stroke:#181818;stroke-width:1.0;" width="10" x="290" y="116.9121"/><rect fill="#FFFFFF" height="942.7041" style="stroke:#181818;stroke-width:1.0;" width="10" x="691" y="148.2031"/><rect fill="#FFFFFF" height="99.3096" style="stroke:#181818;stroke-width:1.0;" width="10" x="696" y="679.751"/><rect fill="#FFFFFF" height="73.373" style="stroke:#181818;stroke-width:1.0;" width="10" x="696" y="856.4336"/><rect fill="#FFFFFF" height="77.5186" style="stroke:#181818;stroke-width:1.0;" width="10" x="1268" y="179.4941"/><rect fill="#FFFFFF" height="77.5186" style="stroke:#181818;stroke-width:1.0;" width="10" x="1396" y="334.5313"/><rect fill="#FFFFFF" height="31.291" style="stroke:#181818;stroke-width:1.0;" width="10" x="1549" y="489.5684"/><rect fill="#FFFFFF" height="31.291" style="stroke:#181818;stroke-width:1.0;" width="10" x="1549" y="999.3887"/><rect fill="#FFFFFF" height="31.291" style="stroke:#181818;stroke-width:1.0;" width="10" x="1709" y="552.1504"/><polygon fill="#181818" points="278,112.9121,288,116.9121,278,120.9121,282,116.9121" style="stroke:#181818;stroke-width:1.0;"/><line style="stroke:#181818;stroke-width:1.0;" x1="42" x2="284" y1="116.9121" y2="116.9121"/><text fill="#000000" font-family="sans-serif" font-size="13" font-weight="bold" lengthAdjust="spacing" textLength="7" x="49" y="111.6494">1</text><text fill="#000000" font-family="sans-serif" font-size="13" lengthAdjust="spacing" textLength="218" x="60" y="111.6494">PATCH /subscriptions/change/{name}</text><polygon fill="#181818" points="679,144.2031,689,148.2031,679,152.2031,683,148.2031" style="stroke:#181818;stroke-width:1.0;"/><line style="stroke:#181818;stroke-width:1.0;" x1="300" x2="685" y1="148.2031" y2="148.2031"/><text fill="#000000" font-family="sans-serif" font-size="13" font-weight="bold" lengthAdjust="spacing" textLength="7" x="307" y="142.9404">2</text><text fill="#000000" font-family="sans-serif" font-size="13" lengthAdjust="spacing" textLength="361" x="318" y="142.9404">subscriptions = changePlan(long desiredVersion, String name)</text><polygon fill="#181818" points="1256,175.4941,1266,179.4941,1256,183.4941,1260,179.4941" style="stroke:#181818;stroke-width:1.0;"/><line style="stroke:#181818;stroke-width:1.0;" x1="701" x2="1262" y1="179.4941" y2="179.4941"/><text fill="#000000" font-family="sans-serif" font-size="13" font-weight="bold" lengthAdjust="spacing" textLength="7" x="708" y="174.2314">3</text><text fill="#000000" font-family="sans-serif" font-size="13" lengthAdjust="spacing" textLength="537" x="719" y="174.2314">Plans plan = plansRepository.findByActive_ActiveAndName_Name(true, resource.getName())</text><polygon fill="#181818" points="712,253.0127,702,257.0127,712,261.0127,708,257.0127" style="stroke:#181818;stroke-width:1.0;"/><line style="stroke:#181818;stroke-width:1.0;stroke-dasharray:2.0,2.0;" x1="706" x2="1272" y1="257.0127" y2="257.0127"/><text fill="#000000" font-family="sans-serif" font-size="13" font-weight="bold" lengthAdjust="spacing" textLength="7" x="718" y="251.75">4</text><text fill="#000000" font-family="sans-serif" font-size="13" lengthAdjust="spacing" textLength="31" x="729" y="251.75">plans</text><path d="M1283,192.4941 L1283,305.4941 L1547,305.4941 L1547,202.4941 L1537,192.4941 L1283,192.4941 " fill="#FEFFDD" style="stroke:#181818;stroke-width:0.5;"/><path d="M1537,192.4941 L1537,202.4941 L1547,202.4941 L1537,192.4941 " fill="#FEFFDD" style="stroke:#181818;stroke-width:0.5;"/><text fill="#000000" font-family="sans-serif" font-size="13" lengthAdjust="spacing" textLength="243" x="1289" y="211.5225">This retrieves the information of the logged</text><text fill="#000000" font-family="sans-serif" font-size="13" lengthAdjust="spacing" textLength="155" x="1289" y="228.8135">in user from the repository.</text><text fill="#000000" font-family="sans-serif" font-size="13" lengthAdjust="spacing" textLength="197" x="1289" y="246.1045">if the user is trying to subscribe to</text><text fill="#000000" font-family="sans-serif" font-size="13" lengthAdjust="spacing" textLength="221" x="1289" y="263.3955">a plan with a name that does not exist</text><text fill="#000000" font-family="sans-serif" font-size="13" lengthAdjust="spacing" textLength="197" x="1289" y="280.6865">the code will end here and throw a</text><text fill="#000000" font-family="sans-serif" font-size="13" lengthAdjust="spacing" textLength="148" x="1289" y="297.9775">EntityNotFoundException</text><polygon fill="#181818" points="1384,330.5313,1394,334.5313,1384,338.5313,1388,334.5313" style="stroke:#181818;stroke-width:1.0;"/><line style="stroke:#181818;stroke-width:1.0;" x1="701" x2="1390" y1="334.5313" y2="334.5313"/><text fill="#000000" font-family="sans-serif" font-size="13" font-weight="bold" lengthAdjust="spacing" textLength="7" x="708" y="329.2686">5</text><text fill="#000000" font-family="sans-serif" font-size="13" lengthAdjust="spacing" textLength="356" x="719" y="329.2686">User user = userRepository.findById(Long.valueOf(newString))</text><polygon fill="#181818" points="712,408.0498,702,412.0498,712,416.0498,708,412.0498" style="stroke:#181818;stroke-width:1.0;"/><line style="stroke:#181818;stroke-width:1.0;stroke-dasharray:2.0,2.0;" x1="706" x2="1400" y1="412.0498" y2="412.0498"/><text fill="#000000" font-family="sans-serif" font-size="13" font-weight="bold" lengthAdjust="spacing" textLength="7" x="718" y="406.7871">6</text><text fill="#000000" font-family="sans-serif" font-size="13" lengthAdjust="spacing" textLength="25" x="729" y="406.7871">user</text><path d="M1411,347.5313 L1411,460.5313 L1616,460.5313 L1616,357.5313 L1606,347.5313 L1411,347.5313 " fill="#FEFFDD" style="stroke:#181818;stroke-width:0.5;"/><path d="M1606,347.5313 L1606,357.5313 L1616,357.5313 L1606,347.5313 " fill="#FEFFDD" style="stroke:#181818;stroke-width:0.5;"/><text fill="#000000" font-family="sans-serif" font-size="13" lengthAdjust="spacing" textLength="57" x="1417" y="366.5596">if the user</text><text fill="#000000" font-family="sans-serif" font-size="13" lengthAdjust="spacing" textLength="148" x="1417" y="383.8506">who is trying to subscribe</text><text fill="#000000" font-family="sans-serif" font-size="13" lengthAdjust="spacing" textLength="179" x="1417" y="401.1416">is does not exist in the system</text><text fill="#000000" font-family="sans-serif" font-size="13" lengthAdjust="spacing" textLength="72" x="1417" y="418.4326">the code will</text><text fill="#000000" font-family="sans-serif" font-size="13" lengthAdjust="spacing" textLength="110" x="1417" y="435.7236">end here and throw</text><text fill="#000000" font-family="sans-serif" font-size="13" lengthAdjust="spacing" textLength="184" x="1417" y="453.0146">a UsernameNotFoundException</text><polygon fill="#181818" points="1537,485.5684,1547,489.5684,1537,493.5684,1541,489.5684" style="stroke:#181818;stroke-width:1.0;"/><line style="stroke:#181818;stroke-width:1.0;" x1="701" x2="1543" y1="489.5684" y2="489.5684"/><text fill="#000000" font-family="sans-serif" font-size="13" font-weight="bold" lengthAdjust="spacing" textLength="7" x="708" y="484.3057">7</text><text fill="#000000" font-family="sans-serif" font-size="13" lengthAdjust="spacing" textLength="494" x="719" y="484.3057">Subscriptions subscription = repository.findByActiveStatus_ActiveAndUser(true, user)</text><polygon fill="#181818" points="712,516.8594,702,520.8594,712,524.8594,708,520.8594" style="stroke:#181818;stroke-width:1.0;"/><line style="stroke:#181818;stroke-width:1.0;stroke-dasharray:2.0,2.0;" x1="706" x2="1553" y1="520.8594" y2="520.8594"/><text fill="#000000" font-family="sans-serif" font-size="13" font-weight="bold" lengthAdjust="spacing" textLength="7" x="718" y="515.5967">8</text><text fill="#000000" font-family="sans-serif" font-size="13" lengthAdjust="spacing" textLength="77" x="729" y="515.5967">subscriptions</text><polygon fill="#181818" points="1697,548.1504,1707,552.1504,1697,556.1504,1701,552.1504" style="stroke:#181818;stroke-width:1.0;"/><line style="stroke:#181818;stroke-width:1.0;" x1="701" x2="1703" y1="552.1504" y2="552.1504"/><text fill="#000000" font-family="sans-serif" font-size="13" font-weight="bold" lengthAdjust="spacing" textLength="7" x="708" y="546.8877">9</text><text fill="#000000" font-family="sans-serif" font-size="13" lengthAdjust="spacing" textLength="412" x="719" y="546.8877">int activeDevices= deviceRepository.countBySubscription(subscription);</text><polygon fill="#181818" points="712,579.4414,702,583.4414,712,587.4414,708,583.4414" style="stroke:#181818;stroke-width:1.0;"/><line style="stroke:#181818;stroke-width:1.0;stroke-dasharray:2.0,2.0;" x1="706" x2="1713" y1="583.4414" y2="583.4414"/><text fill="#000000" font-family="sans-serif" font-size="13" font-weight="bold" lengthAdjust="spacing" textLength="14" x="718" y="578.1787">10</text><text fill="#000000" font-family="sans-serif" font-size="13" lengthAdjust="spacing" textLength="78" x="736" y="578.1787">activeDevices</text><line style="stroke:#181818;stroke-width:1.0;" x1="701" x2="748" y1="666.751" y2="666.751"/><line style="stroke:#181818;stroke-width:1.0;" x1="748" x2="748" y1="666.751" y2="679.751"/><line style="stroke:#181818;stroke-width:1.0;" x1="707" x2="748" y1="679.751" y2="679.751"/><polygon fill="#181818" points="717,675.751,707,679.751,717,683.751,713,679.751" style="stroke:#181818;stroke-width:1.0;"/><text fill="#000000" font-family="sans-serif" font-size="13" font-weight="bold" lengthAdjust="spacing" textLength="14" x="713" y="661.4883">11</text><text fill="#000000" font-family="sans-serif" font-size="13" lengthAdjust="spacing" textLength="172" x="731" y="661.4883">if(activeDevices &gt; deviceLimit)</text><path d="M915,596.4414 L915,744.4414 L1140,744.4414 L1140,606.4414 L1130,596.4414 L915,596.4414 " fill="#FEFFDD" style="stroke:#181818;stroke-width:0.5;"/><path d="M1130,596.4414 L1130,606.4414 L1140,606.4414 L1130,596.4414 " fill="#FEFFDD" style="stroke:#181818;stroke-width:0.5;"/><text fill="#000000" font-family="sans-serif" font-size="13" lengthAdjust="spacing" textLength="57" x="921" y="615.4697">if the user</text><text fill="#000000" font-family="sans-serif" font-size="13" lengthAdjust="spacing" textLength="204" x="921" y="632.7607">who is trying to upgrade/downgrade</text><text fill="#000000" font-family="sans-serif" font-size="13" lengthAdjust="spacing" textLength="177" x="921" y="650.0518">to a plan with a limit of devices</text><text fill="#000000" font-family="sans-serif" font-size="13" lengthAdjust="spacing" textLength="181" x="921" y="667.3428">lower than the actual number of</text><text fill="#000000" font-family="sans-serif" font-size="13" lengthAdjust="spacing" textLength="153" x="921" y="684.6338">active devices by the user,</text><text fill="#000000" font-family="sans-serif" font-size="13" lengthAdjust="spacing" textLength="72" x="921" y="701.9248">the code will</text><text fill="#000000" font-family="sans-serif" font-size="13" lengthAdjust="spacing" textLength="110" x="921" y="719.2158">end here and throw</text><text fill="#000000" font-family="sans-serif" font-size="13" lengthAdjust="spacing" textLength="158" x="921" y="736.5068">a IllegalArgumentException</text><line style="stroke:#181818;stroke-width:1.0;stroke-dasharray:2.0,2.0;" x1="706" x2="748" y1="778.0605" y2="778.0605"/><line style="stroke:#181818;stroke-width:1.0;stroke-dasharray:2.0,2.0;" x1="748" x2="748" y1="778.0605" y2="791.0605"/><line style="stroke:#181818;stroke-width:1.0;stroke-dasharray:2.0,2.0;" x1="701" x2="748" y1="791.0605" y2="791.0605"/><polygon fill="#181818" points="711,787.0605,701,791.0605,711,795.0605,707,791.0605" style="stroke:#181818;stroke-width:1.0;"/><text fill="#000000" font-family="sans-serif" font-size="13" font-weight="bold" lengthAdjust="spacing" textLength="14" x="713" y="772.7979">12</text><text fill="#000000" font-family="sans-serif" font-size="13" lengthAdjust="spacing" textLength="4" x="731" y="772.7979">&#160;</text><line style="stroke:#181818;stroke-width:1.0;" x1="701" x2="748" y1="843.4336" y2="843.4336"/><line style="stroke:#181818;stroke-width:1.0;" x1="748" x2="748" y1="843.4336" y2="856.4336"/><line style="stroke:#181818;stroke-width:1.0;" x1="707" x2="748" y1="856.4336" y2="856.4336"/><polygon fill="#181818" points="717,852.4336,707,856.4336,717,860.4336,713,856.4336" style="stroke:#181818;stroke-width:1.0;"/><text fill="#000000" font-family="sans-serif" font-size="13" font-weight="bold" lengthAdjust="spacing" textLength="14" x="713" y="838.1709">13</text><text fill="#000000" font-family="sans-serif" font-size="13" lengthAdjust="spacing" textLength="350" x="731" y="838.1709">if(subscription.getPlan().getName().getName().equals(name))</text><path d="M1093,799.0605 L1093,895.0605 L1293,895.0605 L1293,809.0605 L1283,799.0605 L1093,799.0605 " fill="#FEFFDD" style="stroke:#181818;stroke-width:0.5;"/><path d="M1283,799.0605 L1283,809.0605 L1293,809.0605 L1283,799.0605 " fill="#FEFFDD" style="stroke:#181818;stroke-width:0.5;"/><text fill="#000000" font-family="sans-serif" font-size="13" lengthAdjust="spacing" textLength="57" x="1099" y="818.0889">if the user</text><text fill="#000000" font-family="sans-serif" font-size="13" lengthAdjust="spacing" textLength="177" x="1099" y="835.3799">is trying to upgrade/downgrade</text><text fill="#000000" font-family="sans-serif" font-size="13" lengthAdjust="spacing" textLength="179" x="1099" y="852.6709">to his actual plan, the code will</text><text fill="#000000" font-family="sans-serif" font-size="13" lengthAdjust="spacing" textLength="110" x="1099" y="869.9619">end here and throw</text><text fill="#000000" font-family="sans-serif" font-size="13" lengthAdjust="spacing" textLength="158" x="1099" y="887.2529">a IllegalArgumentException</text><line style="stroke:#181818;stroke-width:1.0;stroke-dasharray:2.0,2.0;" x1="706" x2="748" y1="928.8066" y2="928.8066"/><line style="stroke:#181818;stroke-width:1.0;stroke-dasharray:2.0,2.0;" x1="748" x2="748" y1="928.8066" y2="941.8066"/><line style="stroke:#181818;stroke-width:1.0;stroke-dasharray:2.0,2.0;" x1="701" x2="748" y1="941.8066" y2="941.8066"/><polygon fill="#181818" points="711,937.8066,701,941.8066,711,945.8066,707,941.8066" style="stroke:#181818;stroke-width:1.0;"/><text fill="#000000" font-family="sans-serif" font-size="13" font-weight="bold" lengthAdjust="spacing" textLength="14" x="713" y="923.5439">14</text><text fill="#000000" font-family="sans-serif" font-size="13" lengthAdjust="spacing" textLength="4" x="731" y="923.5439">&#160;</text><polygon fill="#181818" points="1823,964.0977,1833,968.0977,1823,972.0977,1827,968.0977" style="stroke:#181818;stroke-width:1.0;"/><line style="stroke:#181818;stroke-width:1.0;" x1="701" x2="1829" y1="968.0977" y2="968.0977"/><text fill="#000000" font-family="sans-serif" font-size="13" font-weight="bold" lengthAdjust="spacing" textLength="14" x="708" y="962.835">15</text><text fill="#000000" font-family="sans-serif" font-size="13" lengthAdjust="spacing" textLength="268" x="726" y="962.835">subscription.changePlan(desiredVersion, plan)</text><polygon fill="#181818" points="1537,995.3887,1547,999.3887,1537,1003.3887,1541,999.3887" style="stroke:#181818;stroke-width:1.0;"/><line style="stroke:#181818;stroke-width:1.0;" x1="701" x2="1543" y1="999.3887" y2="999.3887"/><text fill="#000000" font-family="sans-serif" font-size="13" font-weight="bold" lengthAdjust="spacing" textLength="14" x="708" y="994.126">16</text><text fill="#000000" font-family="sans-serif" font-size="13" lengthAdjust="spacing" textLength="104" x="726" y="994.126">save(subscription)</text><polygon fill="#181818" points="712,1026.6797,702,1030.6797,712,1034.6797,708,1030.6797" style="stroke:#181818;stroke-width:1.0;"/><line style="stroke:#181818;stroke-width:1.0;stroke-dasharray:2.0,2.0;" x1="706" x2="1553" y1="1030.6797" y2="1030.6797"/><text fill="#000000" font-family="sans-serif" font-size="13" font-weight="bold" lengthAdjust="spacing" textLength="14" x="718" y="1025.417">17</text><text fill="#000000" font-family="sans-serif" font-size="13" lengthAdjust="spacing" textLength="70" x="736" y="1025.417">subscription</text><polygon fill="#181818" points="311,1086.9072,301,1090.9072,311,1094.9072,307,1090.9072" style="stroke:#181818;stroke-width:1.0;"/><line style="stroke:#181818;stroke-width:1.0;stroke-dasharray:2.0,2.0;" x1="305" x2="695" y1="1090.9072" y2="1090.9072"/><text fill="#000000" font-family="sans-serif" font-size="13" font-weight="bold" lengthAdjust="spacing" textLength="14" x="317" y="1085.6445">18</text><text fill="#000000" font-family="sans-serif" font-size="13" lengthAdjust="spacing" textLength="70" x="335" y="1085.6445">subscription</text><path d="M39,1043.6797 L39,1122.6797 L285,1122.6797 L285,1053.6797 L275,1043.6797 L39,1043.6797 " fill="#FEFFDD" style="stroke:#181818;stroke-width:0.5;"/><path d="M275,1043.6797 L275,1053.6797 L285,1053.6797 L275,1043.6797 " fill="#FEFFDD" style="stroke:#181818;stroke-width:0.5;"/><text fill="#000000" font-family="sans-serif" font-size="13" lengthAdjust="spacing" textLength="135" x="45" y="1062.708">The controller here also</text><text fill="#000000" font-family="sans-serif" font-size="13" lengthAdjust="spacing" textLength="157" x="45" y="1079.999">creates an ResponseEntity</text><text fill="#000000" font-family="sans-serif" font-size="13" lengthAdjust="spacing" textLength="219" x="45" y="1097.29">to show the user the subscription with</text><text fill="#000000" font-family="sans-serif" font-size="13" lengthAdjust="spacing" textLength="225" x="45" y="1114.5811">"subscriptionsViewMapper" as objView</text><polygon fill="#181818" points="53,1147.1348,43,1151.1348,53,1155.1348,49,1151.1348" style="stroke:#181818;stroke-width:1.0;"/><line style="stroke:#181818;stroke-width:1.0;stroke-dasharray:2.0,2.0;" x1="47" x2="294" y1="1151.1348" y2="1151.1348"/><text fill="#000000" font-family="sans-serif" font-size="13" font-weight="bold" lengthAdjust="spacing" textLength="14" x="59" y="1145.8721">19</text><text fill="#000000" font-family="sans-serif" font-size="13" lengthAdjust="spacing" textLength="98" x="77" y="1145.8721">subscriptionView</text><!--SRC=[jLPDRzim3BthLn2zB07oSU_M0MdNOGMwhcYwNWl5PcmDikH9Sj9Ws7yVATk9xRHTTzYbaQL7wl697tsNXr3wq_cyrDA4gj2pn1PpZpyhD0bEKoKp9miXgs1b4jH61WHhuhUfYXKw8GGTM0Sdoshb4wTexmIaXqKYIkc2IbH9dk7aj3alWxB6NrWJdDMw0Ly4fr-3Bz5jL88Ho-i1zfR8-piihLT4PHTXlCTR0-XtZsw0RBTU8p0meRDdB3uXann0QVDlpbkNfEKYWUd7A0USmktY_k8Bp7qNEqzoQJAS_pAomDyY8ic2HI6B7XJEe0Qp52DjJGOfUkKmVK3d2J61PN2AjjdNM4GVvAjL3cfTWLE3V9LzaMThPTBptOAp0X_hduL9RyZL8_yP1LVX11nwMxa4Pnc6k3qUY_q5qmFpw5qOI_dbL9O70N2VAq_sH14tw27a2CgihIiaXmTs7RUqpJ9C2QuCLFIIi7QsY2Vkm9MFQtY4aD_WTXnviArcAwGFmiawtgqAEQrP6RAJ0L9B78WVu9FoJ8-z9JP5WceDQ5B8qI58MeJSsIr80bsQeCBkneRFjZBfvLE2yMq4mpbOiLUzpKA8ALhpF8i_HvfVfQDhUitPHkeAlwr71hVrGvAsUpSTRTc9w6lRKOE-jhbzGHE6-a7ih3GR-vqFM0oLeEzZBQAkJ8trV8iQJO51lr1w-KtgkEUpSHbagFmX9_dY9XqvOChqnllqXSevy6Ygbm0KTO3O0x6kStz6vTGlU6gUbGddkoxfKTVp-BreFNRkxddjQ52VglMe1u2FpRtNgb1X_6yFMvNKprESftPhuegVpmwINhDZhg-qeGHKPLlAHog4-kc9K2Krr2E0aFo-aMDh0glTdiVaxIboHHCXathXigf04rxEaBqyuZczkf9puuaDS7neGPqLJJgf_IXsmDUrV8kEtB4QRLZGoN-CEyNzGERHqIcSGJRFEaDWsF-P94LzL7VaGMwmdxf7LTE_va2GPzBWh15MuvfqlO-QjFE_aKDxQhw9Gug793HmXxwaIiIwWOhOb79ggliU7ZjGjnrmyWeuwHNoWyBjLrcMpRyPTlM3TmwgqhZzC9ssyxPh6d5_0000]--></g></svg>