<?xml version="1.0" encoding="us-ascii" standalone="no"?><svg xmlns="http://www.w3.org/2000/svg" xmlns:xlink="http://www.w3.org/1999/xlink" contentStyleType="text/css" height="510px" preserveAspectRatio="none" style="width:627px;height:510px;background:#FFFFFF;" version="1.1" viewBox="0 0 627 510" width="627px" zoomAndPan="magnify"><defs/><g><rect fill="#FFFFFF" height="327.75" style="stroke:#181818;stroke-width:1.0;" width="10" x="64" y="91.4883"/><rect fill="#FFFFFF" height="307.4395" style="stroke:#181818;stroke-width:1.0;" width="10" x="265" y="112.7988"/><rect fill="#FFFFFF" height="145.1973" style="stroke:#181818;stroke-width:1.0;" width="10" x="270" y="259.041"/><rect fill="none" height="133.1973" style="stroke:#000000;stroke-width:1.5;" width="524" x="20" y="279.041"/><line style="stroke:#181818;stroke-width:0.5;stroke-dasharray:5.0,5.0;" x1="69" x2="69" y1="81.4883" y2="429.2383"/><line style="stroke:#181818;stroke-width:0.5;stroke-dasharray:5.0,5.0;" x1="270" x2="270" y1="81.4883" y2="429.2383"/><text fill="#000000" font-family="sans-serif" font-size="14" lengthAdjust="spacing" textLength="72" x="30" y="78.5352">subscriber</text><ellipse cx="69" cy="13.5" fill="#E2E2F0" rx="8" ry="8" style="stroke:#181818;stroke-width:0.5;"/><path d="M69,21.5 L69,48.5 M56,29.5 L82,29.5 M69,48.5 L56,63.5 M69,48.5 L82,63.5 " fill="none" style="stroke:#181818;stroke-width:0.5;"/><text fill="#000000" font-family="sans-serif" font-size="14" lengthAdjust="spacing" textLength="72" x="30" y="441.7734">subscriber</text><ellipse cx="69" cy="453.2266" fill="#E2E2F0" rx="8" ry="8" style="stroke:#181818;stroke-width:0.5;"/><path d="M69,461.2266 L69,488.2266 M56,469.2266 L82,469.2266 M69,488.2266 L56,503.2266 M69,488.2266 L82,503.2266 " fill="none" style="stroke:#181818;stroke-width:0.5;"/><rect fill="#E2E2F0" height="30.4883" rx="2.5" ry="2.5" style="stroke:#181818;stroke-width:0.5;" width="66" x="237" y="50"/><text fill="#000000" font-family="sans-serif" font-size="14" lengthAdjust="spacing" textLength="52" x="244" y="70.5352">:System</text><rect fill="#E2E2F0" height="30.4883" rx="2.5" ry="2.5" style="stroke:#181818;stroke-width:0.5;" width="66" x="237" y="428.2383"/><text fill="#000000" font-family="sans-serif" font-size="14" lengthAdjust="spacing" textLength="52" x="244" y="448.7734">:System</text><rect fill="#FFFFFF" height="327.75" style="stroke:#181818;stroke-width:1.0;" width="10" x="64" y="91.4883"/><rect fill="#FFFFFF" height="307.4395" style="stroke:#181818;stroke-width:1.0;" width="10" x="265" y="112.7988"/><rect fill="#FFFFFF" height="145.1973" style="stroke:#181818;stroke-width:1.0;" width="10" x="270" y="259.041"/><polygon fill="#181818" points="253,108.7988,263,112.7988,253,116.7988,257,112.7988" style="stroke:#181818;stroke-width:1.0;"/><line style="stroke:#181818;stroke-width:1.0;" x1="74" x2="259" y1="112.7988" y2="112.7988"/><text fill="#000000" font-family="sans-serif" font-size="13" lengthAdjust="spacing" textLength="147" x="81" y="108.0566">PATCH /subscriptions/</text><line style="stroke:#181818;stroke-width:1.0;stroke-dasharray:2.0,2.0;" x1="275" x2="317" y1="166.4199" y2="166.4199"/><line style="stroke:#181818;stroke-width:1.0;stroke-dasharray:2.0,2.0;" x1="317" x2="317" y1="166.4199" y2="179.4199"/><line style="stroke:#181818;stroke-width:1.0;stroke-dasharray:2.0,2.0;" x1="276" x2="317" y1="179.4199" y2="179.4199"/><polygon fill="#181818" points="286,175.4199,276,179.4199,286,183.4199,282,179.4199" style="stroke:#181818;stroke-width:1.0;"/><text fill="#000000" font-family="sans-serif" font-size="13" lengthAdjust="spacing" textLength="253" x="282" y="161.6777">Validates if user exist locally or external</text><line style="stroke:#181818;stroke-width:1.0;stroke-dasharray:2.0,2.0;" x1="275" x2="317" y1="208.7305" y2="208.7305"/><line style="stroke:#181818;stroke-width:1.0;stroke-dasharray:2.0,2.0;" x1="317" x2="317" y1="208.7305" y2="221.7305"/><line style="stroke:#181818;stroke-width:1.0;stroke-dasharray:2.0,2.0;" x1="276" x2="317" y1="221.7305" y2="221.7305"/><polygon fill="#181818" points="286,217.7305,276,221.7305,286,225.7305,282,221.7305" style="stroke:#181818;stroke-width:1.0;"/><text fill="#000000" font-family="sans-serif" font-size="13" lengthAdjust="spacing" textLength="338" x="282" y="203.9883">Validates if user has a subscription locally or external</text><line style="stroke:#181818;stroke-width:1.0;stroke-dasharray:2.0,2.0;" x1="275" x2="322" y1="246.041" y2="246.041"/><line style="stroke:#181818;stroke-width:1.0;stroke-dasharray:2.0,2.0;" x1="322" x2="322" y1="246.041" y2="259.041"/><line style="stroke:#181818;stroke-width:1.0;stroke-dasharray:2.0,2.0;" x1="281" x2="322" y1="259.041" y2="259.041"/><polygon fill="#181818" points="291,255.041,281,259.041,291,263.041,287,259.041" style="stroke:#181818;stroke-width:1.0;"/><text fill="#000000" font-family="sans-serif" font-size="13" lengthAdjust="spacing" textLength="227" x="287" y="241.2988">Advance to check if sub is activated</text><path d="M20,279.041 L82,279.041 L82,286.3516 L72,296.3516 L20,296.3516 L20,279.041 " fill="#EEEEEE" style="stroke:#000000;stroke-width:1.5;"/><rect fill="none" height="133.1973" style="stroke:#000000;stroke-width:1.5;" width="524" x="20" y="279.041"/><text fill="#000000" font-family="sans-serif" font-size="13" font-weight="bold" lengthAdjust="spacing" textLength="17" x="35" y="292.6094">alt</text><text fill="#000000" font-family="sans-serif" font-size="11" font-weight="bold" lengthAdjust="spacing" textLength="381" x="97" y="291.6758">[successful case - if user exists and haves a subscription activated]</text><line style="stroke:#181818;stroke-width:1.0;" x1="280" x2="322" y1="317.6621" y2="317.6621"/><line style="stroke:#181818;stroke-width:1.0;" x1="322" x2="322" y1="317.6621" y2="330.6621"/><line style="stroke:#181818;stroke-width:1.0;" x1="281" x2="322" y1="330.6621" y2="330.6621"/><polygon fill="#181818" points="291,326.6621,281,330.6621,291,334.6621,287,330.6621" style="stroke:#181818;stroke-width:1.0;"/><text fill="#000000" font-family="sans-serif" font-size="13" lengthAdjust="spacing" textLength="245" x="287" y="312.9199">Advance to deactivate the subscription</text><polygon fill="#181818" points="85,355.9727,75,359.9727,85,363.9727,81,359.9727" style="stroke:#181818;stroke-width:1.0;"/><line style="stroke:#181818;stroke-width:1.0;stroke-dasharray:2.0,2.0;" x1="79" x2="269" y1="359.9727" y2="359.9727"/><text fill="#000000" font-family="sans-serif" font-size="13" lengthAdjust="spacing" textLength="167" x="91" y="355.2305">Informs operation success</text><line style="stroke:#000000;stroke-width:1.0;stroke-dasharray:2.0,2.0;" x1="20" x2="544" y1="368.9727" y2="368.9727"/><text fill="#000000" font-family="sans-serif" font-size="11" font-weight="bold" lengthAdjust="spacing" textLength="499" x="25" y="379.6074">[failure case - if user exists and his subscription is deactivate or if user does not exists]</text><polygon fill="#181818" points="85,400.2383,75,404.2383,85,408.2383,81,404.2383" style="stroke:#181818;stroke-width:1.0;"/><line style="stroke:#181818;stroke-width:1.0;stroke-dasharray:2.0,2.0;" x1="79" x2="264" y1="404.2383" y2="404.2383"/><text fill="#000000" font-family="sans-serif" font-size="13" lengthAdjust="spacing" textLength="133" x="91" y="399.4961">Shows error message</text><!--SRC=[bP6nJiCm48PtFyKf2rF8dW6feWCCbP2AsA_sfR5mxE2p2trxBX2QfD1AZ8xl__BzvvisfPxhgkeT-fGxTwj3Lp6zPVAQIcDn7x5Jg5E8K73UiOvsHx40PDYirN1Z3vXeE6pMKDv1KM-FdAWhe8QdrVFz0rHZhaysUAuav19mrfgOc-n08nEKC9y2-h2S9le9gYPyUVQp5tJMo323RI0pnMy8kA3HkIE4uKEYwD7zYz9ALLpQ_G-vCWUKRK8Ae5lIhmDPS625EnOqbvQog2BpteZFWNuPJQ3hExjePkWKJ2qju6VLv9bhUFHDY1r3w2dYby7ehXGvCM_GkXpfMWsflwWWvvc4hFOdP8BqzI6DQVMNpxODxmmKe-GwqS0zgHbjseKYR-Otc_Kd]--></g></svg>