<?xml version="1.0" encoding="us-ascii" standalone="no"?><svg xmlns="http://www.w3.org/2000/svg" xmlns:xlink="http://www.w3.org/1999/xlink" contentStyleType="text/css" height="926px" preserveAspectRatio="none" style="width:1951px;height:926px;background:#FFFFFF;" version="1.1" viewBox="0 0 1951 926" width="1951px" zoomAndPan="magnify"><defs/><g><rect fill="#FFFFFF" height="714.7637" style="stroke:#181818;stroke-width:1.0;" width="10" x="223.5" y="112.7988"/><rect fill="#FFFFFF" height="622.5215" style="stroke:#181818;stroke-width:1.0;" width="10" x="788.5" y="142.1094"/><rect fill="#FFFFFF" height="438.0371" style="stroke:#181818;stroke-width:1.0;" width="10" x="1295.5" y="205.041"/><rect fill="#FFFFFF" height="40.3105" style="stroke:#181818;stroke-width:1.0;" width="10" x="1300.5" y="275.9727"/><rect fill="#FFFFFF" height="40.3105" style="stroke:#181818;stroke-width:1.0;" width="10" x="1300.5" y="384.9043"/><rect fill="#FFFFFF" height="40.3105" style="stroke:#181818;stroke-width:1.0;" width="10" x="1300.5" y="500.8359"/><rect fill="#FFFFFF" height="29.3105" style="stroke:#181818;stroke-width:1.0;" width="10" x="1295.5" y="672.3887"/><rect fill="#FFFFFF" height="29.3105" style="stroke:#181818;stroke-width:1.0;" width="10" x="1788.5" y="584.457"/><rect fill="none" height="101.9316" style="stroke:#000000;stroke-width:1.5;" width="485" x="1198.5" y="338.2832"/><rect fill="none" height="101.9316" style="stroke:#000000;stroke-width:1.5;" width="478" x="1198.5" y="454.2148"/><line style="stroke:#181818;stroke-width:0.5;stroke-dasharray:5.0,5.0;" x1="44" x2="44" y1="81.4883" y2="845.5625"/><line style="stroke:#181818;stroke-width:0.5;stroke-dasharray:5.0,5.0;" x1="228" x2="228" y1="81.4883" y2="845.5625"/><line style="stroke:#181818;stroke-width:0.5;stroke-dasharray:5.0,5.0;" x1="793" x2="793" y1="81.4883" y2="845.5625"/><line style="stroke:#181818;stroke-width:0.5;stroke-dasharray:5.0,5.0;" x1="1300.5" x2="1300.5" y1="81.4883" y2="845.5625"/><line style="stroke:#181818;stroke-width:0.5;stroke-dasharray:5.0,5.0;" x1="1678" x2="1678" y1="81.4883" y2="845.5625"/><line style="stroke:#181818;stroke-width:0.5;stroke-dasharray:5.0,5.0;" x1="1793" x2="1793" y1="81.4883" y2="845.5625"/><text fill="#000000" font-family="sans-serif" font-size="14" lengthAdjust="spacing" textLength="73" x="5" y="78.5352">Subscriber</text><ellipse cx="44.5" cy="13.5" fill="#E2E2F0" rx="8" ry="8" style="stroke:#181818;stroke-width:0.5;"/><path d="M44.5,21.5 L44.5,48.5 M31.5,29.5 L57.5,29.5 M44.5,48.5 L31.5,63.5 M44.5,48.5 L57.5,63.5 " fill="none" style="stroke:#181818;stroke-width:0.5;"/><text fill="#000000" font-family="sans-serif" font-size="14" lengthAdjust="spacing" textLength="73" x="5" y="858.0977">Subscriber</text><ellipse cx="44.5" cy="869.5508" fill="#E2E2F0" rx="8" ry="8" style="stroke:#181818;stroke-width:0.5;"/><path d="M44.5,877.5508 L44.5,904.5508 M31.5,885.5508 L57.5,885.5508 M44.5,904.5508 L31.5,919.5508 M44.5,904.5508 L57.5,919.5508 " fill="none" style="stroke:#181818;stroke-width:0.5;"/><rect fill="#E2E2F0" height="30.4883" rx="2.5" ry="2.5" style="stroke:#181818;stroke-width:0.5;" width="181" x="138" y="50"/><text fill="#000000" font-family="sans-serif" font-size="14" lengthAdjust="spacing" textLength="167" x="145" y="70.5352">:SubscriptionsController</text><rect fill="#E2E2F0" height="30.4883" rx="2.5" ry="2.5" style="stroke:#181818;stroke-width:0.5;" width="181" x="138" y="844.5625"/><text fill="#000000" font-family="sans-serif" font-size="14" lengthAdjust="spacing" textLength="167" x="145" y="865.0977">:SubscriptionsController</text><rect fill="#E2E2F0" height="30.4883" rx="2.5" ry="2.5" style="stroke:#181818;stroke-width:0.5;" width="159" x="714" y="50"/><text fill="#000000" font-family="sans-serif" font-size="14" lengthAdjust="spacing" textLength="145" x="721" y="70.5352">:SubscriptionsService</text><rect fill="#E2E2F0" height="30.4883" rx="2.5" ry="2.5" style="stroke:#181818;stroke-width:0.5;" width="159" x="714" y="844.5625"/><text fill="#000000" font-family="sans-serif" font-size="14" lengthAdjust="spacing" textLength="145" x="721" y="865.0977">:SubscriptionsService</text><rect fill="#E2E2F0" height="30.4883" rx="2.5" ry="2.5" style="stroke:#181818;stroke-width:0.5;" width="184" x="1208.5" y="50"/><text fill="#000000" font-family="sans-serif" font-size="14" lengthAdjust="spacing" textLength="170" x="1215.5" y="70.5352">:SubscriptionsRepository</text><rect fill="#E2E2F0" height="30.4883" rx="2.5" ry="2.5" style="stroke:#181818;stroke-width:0.5;" width="184" x="1208.5" y="844.5625"/><text fill="#000000" font-family="sans-serif" font-size="14" lengthAdjust="spacing" textLength="170" x="1215.5" y="865.0977">:SubscriptionsRepository</text><rect fill="#E2E2F0" height="30.4883" rx="2.5" ry="2.5" style="stroke:#181818;stroke-width:0.5;" width="111" x="1623" y="50"/><text fill="#000000" font-family="sans-serif" font-size="14" lengthAdjust="spacing" textLength="97" x="1630" y="70.5352">:Subscriptions</text><rect fill="#E2E2F0" height="30.4883" rx="2.5" ry="2.5" style="stroke:#181818;stroke-width:0.5;" width="111" x="1623" y="844.5625"/><text fill="#000000" font-family="sans-serif" font-size="14" lengthAdjust="spacing" textLength="97" x="1630" y="865.0977">:Subscriptions</text><rect fill="#E2E2F0" height="30.4883" rx="2.5" ry="2.5" style="stroke:#181818;stroke-width:0.5;" width="99" x="1744" y="50"/><text fill="#000000" font-family="sans-serif" font-size="14" lengthAdjust="spacing" textLength="85" x="1751" y="70.5352">subscription</text><rect fill="#E2E2F0" height="30.4883" rx="2.5" ry="2.5" style="stroke:#181818;stroke-width:0.5;" width="99" x="1744" y="844.5625"/><text fill="#000000" font-family="sans-serif" font-size="14" lengthAdjust="spacing" textLength="85" x="1751" y="865.0977">subscription</text><rect fill="#FFFFFF" height="714.7637" style="stroke:#181818;stroke-width:1.0;" width="10" x="223.5" y="112.7988"/><rect fill="#FFFFFF" height="622.5215" style="stroke:#181818;stroke-width:1.0;" width="10" x="788.5" y="142.1094"/><rect fill="#FFFFFF" height="438.0371" style="stroke:#181818;stroke-width:1.0;" width="10" x="1295.5" y="205.041"/><rect fill="#FFFFFF" height="40.3105" style="stroke:#181818;stroke-width:1.0;" width="10" x="1300.5" y="275.9727"/><rect fill="#FFFFFF" height="40.3105" style="stroke:#181818;stroke-width:1.0;" width="10" x="1300.5" y="384.9043"/><rect fill="#FFFFFF" height="40.3105" style="stroke:#181818;stroke-width:1.0;" width="10" x="1300.5" y="500.8359"/><rect fill="#FFFFFF" height="29.3105" style="stroke:#181818;stroke-width:1.0;" width="10" x="1295.5" y="672.3887"/><rect fill="#FFFFFF" height="29.3105" style="stroke:#181818;stroke-width:1.0;" width="10" x="1788.5" y="584.457"/><polygon fill="#181818" points="211.5,108.7988,221.5,112.7988,211.5,116.7988,215.5,112.7988" style="stroke:#181818;stroke-width:1.0;"/><line style="stroke:#181818;stroke-width:1.0;" x1="44.5" x2="217.5" y1="112.7988" y2="112.7988"/><text fill="#000000" font-family="sans-serif" font-size="13" font-weight="bold" lengthAdjust="spacing" textLength="9" x="51.5" y="108.0566">1</text><text fill="#000000" font-family="sans-serif" font-size="13" lengthAdjust="spacing" textLength="147" x="64.5" y="108.0566">PATCH /subscriptions/</text><polygon fill="#181818" points="776.5,138.1094,786.5,142.1094,776.5,146.1094,780.5,142.1094" style="stroke:#181818;stroke-width:1.0;"/><line style="stroke:#181818;stroke-width:1.0;" x1="233.5" x2="782.5" y1="142.1094" y2="142.1094"/><text fill="#000000" font-family="sans-serif" font-size="13" font-weight="bold" lengthAdjust="spacing" textLength="9" x="240.5" y="137.3672">2</text><text fill="#000000" font-family="sans-serif" font-size="13" lengthAdjust="spacing" textLength="523" x="253.5" y="137.3672">Subscriptions subscriptions = cancelSubscription(long desiredVersion, String auth)</text><polygon fill="#181818" points="1283.5,201.041,1293.5,205.041,1283.5,209.041,1287.5,205.041" style="stroke:#181818;stroke-width:1.0;"/><line style="stroke:#181818;stroke-width:1.0;" x1="798.5" x2="1289.5" y1="205.041" y2="205.041"/><text fill="#000000" font-family="sans-serif" font-size="13" font-weight="bold" lengthAdjust="spacing" textLength="9" x="805.5" y="200.2988">3</text><text fill="#000000" font-family="sans-serif" font-size="13" lengthAdjust="spacing" textLength="465" x="818.5" y="200.2988">Subscriptions cancelSub(String username,String auth,long desiredVersion)</text><path d="M1310,155.1094 L1310,241.1094 L1636,241.1094 L1636,165.1094 L1626,155.1094 L1310,155.1094 " fill="#FEFFDD" style="stroke:#181818;stroke-width:0.5;"/><path d="M1626,155.1094 L1626,165.1094 L1636,165.1094 L1626,155.1094 " fill="#FEFFDD" style="stroke:#181818;stroke-width:0.5;"/><text fill="#000000" font-family="sans-serif" font-size="13" lengthAdjust="spacing" textLength="275" x="1316" y="172.6777">This retrieves the information of the logged</text><text fill="#000000" font-family="sans-serif" font-size="13" lengthAdjust="spacing" textLength="173" x="1316" y="187.9883">in user from the repository.</text><text fill="#000000" font-family="sans-serif" font-size="13" lengthAdjust="spacing" textLength="305" x="1316" y="203.2988">If the user who is trying to cancel a subscription</text><text fill="#000000" font-family="sans-serif" font-size="13" lengthAdjust="spacing" textLength="267" x="1316" y="218.6094">does not exist in the system  the code will</text><text fill="#000000" font-family="sans-serif" font-size="13" lengthAdjust="spacing" textLength="296" x="1316" y="233.9199">end here and throw a EntityNotFoundException</text><line style="stroke:#181818;stroke-width:1.0;" x1="1305.5" x2="1352.5" y1="262.9727" y2="262.9727"/><line style="stroke:#181818;stroke-width:1.0;" x1="1352.5" x2="1352.5" y1="262.9727" y2="275.9727"/><line style="stroke:#181818;stroke-width:1.0;" x1="1311.5" x2="1352.5" y1="275.9727" y2="275.9727"/><polygon fill="#181818" points="1321.5,271.9727,1311.5,275.9727,1321.5,279.9727,1317.5,275.9727" style="stroke:#181818;stroke-width:1.0;"/><text fill="#000000" font-family="sans-serif" font-size="13" font-weight="bold" lengthAdjust="spacing" textLength="9" x="1317.5" y="258.2305">4</text><text fill="#000000" font-family="sans-serif" font-size="13" lengthAdjust="spacing" textLength="244" x="1330.5" y="258.2305">User findById(Long.valueOf(newString))</text><line style="stroke:#181818;stroke-width:1.0;stroke-dasharray:2.0,2.0;" x1="1310.5" x2="1352.5" y1="315.2832" y2="315.2832"/><line style="stroke:#181818;stroke-width:1.0;stroke-dasharray:2.0,2.0;" x1="1352.5" x2="1352.5" y1="315.2832" y2="328.2832"/><line style="stroke:#181818;stroke-width:1.0;stroke-dasharray:2.0,2.0;" x1="1305.5" x2="1352.5" y1="328.2832" y2="328.2832"/><polygon fill="#181818" points="1315.5,324.2832,1305.5,328.2832,1315.5,332.2832,1311.5,328.2832" style="stroke:#181818;stroke-width:1.0;"/><text fill="#000000" font-family="sans-serif" font-size="13" font-weight="bold" lengthAdjust="spacing" textLength="9" x="1317.5" y="310.541">5</text><text fill="#000000" font-family="sans-serif" font-size="13" lengthAdjust="spacing" textLength="27" x="1330.5" y="310.541">user</text><path d="M1198.5,338.2832 L1260.5,338.2832 L1260.5,345.5938 L1250.5,355.5938 L1198.5,355.5938 L1198.5,338.2832 " fill="#EEEEEE" style="stroke:#000000;stroke-width:1.5;"/><rect fill="none" height="101.9316" style="stroke:#000000;stroke-width:1.5;" width="485" x="1198.5" y="338.2832"/><text fill="#000000" font-family="sans-serif" font-size="13" font-weight="bold" lengthAdjust="spacing" textLength="17" x="1213.5" y="351.8516">alt</text><text fill="#000000" font-family="sans-serif" font-size="11" font-weight="bold" lengthAdjust="spacing" textLength="287" x="1275.5" y="350.918">[A - will check if user&#180;s subscription exist locally]</text><line style="stroke:#181818;stroke-width:1.0;" x1="1305.5" x2="1352.5" y1="371.9043" y2="371.9043"/><line style="stroke:#181818;stroke-width:1.0;" x1="1352.5" x2="1352.5" y1="371.9043" y2="384.9043"/><line style="stroke:#181818;stroke-width:1.0;" x1="1311.5" x2="1352.5" y1="384.9043" y2="384.9043"/><polygon fill="#181818" points="1321.5,380.9043,1311.5,384.9043,1321.5,388.9043,1317.5,384.9043" style="stroke:#181818;stroke-width:1.0;"/><text fill="#000000" font-family="sans-serif" font-size="13" font-weight="bold" lengthAdjust="spacing" textLength="9" x="1317.5" y="367.1621">6</text><text fill="#000000" font-family="sans-serif" font-size="13" lengthAdjust="spacing" textLength="341" x="1330.5" y="367.1621">Subscriptions findByActiveStatus_ActiveAndUser(user)</text><line style="stroke:#181818;stroke-width:1.0;stroke-dasharray:2.0,2.0;" x1="1310.5" x2="1352.5" y1="424.2148" y2="424.2148"/><line style="stroke:#181818;stroke-width:1.0;stroke-dasharray:2.0,2.0;" x1="1352.5" x2="1352.5" y1="424.2148" y2="437.2148"/><line style="stroke:#181818;stroke-width:1.0;stroke-dasharray:2.0,2.0;" x1="1305.5" x2="1352.5" y1="437.2148" y2="437.2148"/><polygon fill="#181818" points="1315.5,433.2148,1305.5,437.2148,1315.5,441.2148,1311.5,437.2148" style="stroke:#181818;stroke-width:1.0;"/><text fill="#000000" font-family="sans-serif" font-size="13" font-weight="bold" lengthAdjust="spacing" textLength="9" x="1317.5" y="419.4727">7</text><text fill="#000000" font-family="sans-serif" font-size="13" lengthAdjust="spacing" textLength="79" x="1330.5" y="419.4727">subscription</text><path d="M1198.5,454.2148 L1260.5,454.2148 L1260.5,461.5254 L1250.5,471.5254 L1198.5,471.5254 L1198.5,454.2148 " fill="#EEEEEE" style="stroke:#000000;stroke-width:1.5;"/><rect fill="none" height="101.9316" style="stroke:#000000;stroke-width:1.5;" width="478" x="1198.5" y="454.2148"/><text fill="#000000" font-family="sans-serif" font-size="13" font-weight="bold" lengthAdjust="spacing" textLength="17" x="1213.5" y="467.7832">alt</text><text fill="#000000" font-family="sans-serif" font-size="11" font-weight="bold" lengthAdjust="spacing" textLength="308" x="1275.5" y="466.8496">[B - will check if user&#180;s subscription exist not locally]</text><path d="M1681.5,459.2148 L1681.5,545.2148 L1944.5,545.2148 L1944.5,469.2148 L1934.5,459.2148 L1681.5,459.2148 " fill="#FEFFDD" style="stroke:#181818;stroke-width:0.5;"/><path d="M1934.5,459.2148 L1934.5,469.2148 L1944.5,469.2148 L1934.5,459.2148 " fill="#FEFFDD" style="stroke:#181818;stroke-width:0.5;"/><text fill="#000000" font-family="sans-serif" font-size="13" lengthAdjust="spacing" textLength="181" x="1687.5" y="476.7832">if the user is trying to cancel</text><text fill="#000000" font-family="sans-serif" font-size="13" lengthAdjust="spacing" textLength="242" x="1687.5" y="492.0938">a subscription does not have an active</text><text fill="#000000" font-family="sans-serif" font-size="13" lengthAdjust="spacing" textLength="163" x="1687.5" y="507.4043">subscription the code will</text><text fill="#000000" font-family="sans-serif" font-size="13" lengthAdjust="spacing" textLength="121" x="1687.5" y="522.7148">end here and throw</text><text fill="#000000" font-family="sans-serif" font-size="13" lengthAdjust="spacing" textLength="171" x="1687.5" y="538.0254">a EntityNotFoundException</text><line style="stroke:#181818;stroke-width:1.0;" x1="1305.5" x2="1352.5" y1="487.8359" y2="487.8359"/><line style="stroke:#181818;stroke-width:1.0;" x1="1352.5" x2="1352.5" y1="487.8359" y2="500.8359"/><line style="stroke:#181818;stroke-width:1.0;" x1="1311.5" x2="1352.5" y1="500.8359" y2="500.8359"/><polygon fill="#181818" points="1321.5,496.8359,1311.5,500.8359,1321.5,504.8359,1317.5,500.8359" style="stroke:#181818;stroke-width:1.0;"/><text fill="#000000" font-family="sans-serif" font-size="13" font-weight="bold" lengthAdjust="spacing" textLength="9" x="1317.5" y="483.0938">8</text><text fill="#000000" font-family="sans-serif" font-size="13" lengthAdjust="spacing" textLength="334" x="1330.5" y="483.0938">Subscriptions getSubsFromOtherApi(newString, auth)</text><line style="stroke:#181818;stroke-width:1.0;stroke-dasharray:2.0,2.0;" x1="1310.5" x2="1352.5" y1="540.1465" y2="540.1465"/><line style="stroke:#181818;stroke-width:1.0;stroke-dasharray:2.0,2.0;" x1="1352.5" x2="1352.5" y1="540.1465" y2="553.1465"/><line style="stroke:#181818;stroke-width:1.0;stroke-dasharray:2.0,2.0;" x1="1305.5" x2="1352.5" y1="553.1465" y2="553.1465"/><polygon fill="#181818" points="1315.5,549.1465,1305.5,553.1465,1315.5,557.1465,1311.5,553.1465" style="stroke:#181818;stroke-width:1.0;"/><text fill="#000000" font-family="sans-serif" font-size="13" font-weight="bold" lengthAdjust="spacing" textLength="9" x="1317.5" y="535.4043">9</text><text fill="#000000" font-family="sans-serif" font-size="13" lengthAdjust="spacing" textLength="79" x="1330.5" y="535.4043">subscription</text><polygon fill="#181818" points="1776.5,580.457,1786.5,584.457,1776.5,588.457,1780.5,584.457" style="stroke:#181818;stroke-width:1.0;"/><line style="stroke:#181818;stroke-width:1.0;" x1="1305.5" x2="1782.5" y1="584.457" y2="584.457"/><text fill="#000000" font-family="sans-serif" font-size="13" font-weight="bold" lengthAdjust="spacing" textLength="18" x="1312.5" y="579.7148">10</text><text fill="#000000" font-family="sans-serif" font-size="13" lengthAdjust="spacing" textLength="165" x="1334.5" y="579.7148">deactivate(desiredVersion)</text><polygon fill="#181818" points="1316.5,609.7676,1306.5,613.7676,1316.5,617.7676,1312.5,613.7676" style="stroke:#181818;stroke-width:1.0;"/><line style="stroke:#181818;stroke-width:1.0;stroke-dasharray:2.0,2.0;" x1="1310.5" x2="1792.5" y1="613.7676" y2="613.7676"/><text fill="#000000" font-family="sans-serif" font-size="13" font-weight="bold" lengthAdjust="spacing" textLength="18" x="1322.5" y="609.0254">11</text><text fill="#000000" font-family="sans-serif" font-size="13" lengthAdjust="spacing" textLength="79" x="1344.5" y="609.0254">subscription</text><polygon fill="#181818" points="809.5,639.0781,799.5,643.0781,809.5,647.0781,805.5,643.0781" style="stroke:#181818;stroke-width:1.0;"/><line style="stroke:#181818;stroke-width:1.0;stroke-dasharray:2.0,2.0;" x1="803.5" x2="1299.5" y1="643.0781" y2="643.0781"/><text fill="#000000" font-family="sans-serif" font-size="13" font-weight="bold" lengthAdjust="spacing" textLength="18" x="815.5" y="638.3359">12</text><text fill="#000000" font-family="sans-serif" font-size="13" lengthAdjust="spacing" textLength="79" x="837.5" y="638.3359">subscription</text><polygon fill="#181818" points="1283.5,668.3887,1293.5,672.3887,1283.5,676.3887,1287.5,672.3887" style="stroke:#181818;stroke-width:1.0;"/><line style="stroke:#181818;stroke-width:1.0;" x1="798.5" x2="1289.5" y1="672.3887" y2="672.3887"/><text fill="#000000" font-family="sans-serif" font-size="13" font-weight="bold" lengthAdjust="spacing" textLength="18" x="805.5" y="667.6465">13</text><text fill="#000000" font-family="sans-serif" font-size="13" lengthAdjust="spacing" textLength="115" x="827.5" y="667.6465">save(subscription)</text><polygon fill="#181818" points="809.5,697.6992,799.5,701.6992,809.5,705.6992,805.5,701.6992" style="stroke:#181818;stroke-width:1.0;"/><line style="stroke:#181818;stroke-width:1.0;stroke-dasharray:2.0,2.0;" x1="803.5" x2="1299.5" y1="701.6992" y2="701.6992"/><text fill="#000000" font-family="sans-serif" font-size="13" font-weight="bold" lengthAdjust="spacing" textLength="18" x="815.5" y="696.957">14</text><text fill="#000000" font-family="sans-serif" font-size="13" lengthAdjust="spacing" textLength="79" x="837.5" y="696.957">subscription</text><polygon fill="#181818" points="244.5,760.6309,234.5,764.6309,244.5,768.6309,240.5,764.6309" style="stroke:#181818;stroke-width:1.0;"/><line style="stroke:#181818;stroke-width:1.0;stroke-dasharray:2.0,2.0;" x1="238.5" x2="792.5" y1="764.6309" y2="764.6309"/><text fill="#000000" font-family="sans-serif" font-size="13" font-weight="bold" lengthAdjust="spacing" textLength="18" x="250.5" y="759.8887">15</text><text fill="#000000" font-family="sans-serif" font-size="13" lengthAdjust="spacing" textLength="79" x="272.5" y="759.8887">subscription</text><path d="M9,714.6992 L9,800.6992 L218,800.6992 L218,724.6992 L208,714.6992 L9,714.6992 " fill="#FEFFDD" style="stroke:#181818;stroke-width:0.5;"/><path d="M208,714.6992 L208,724.6992 L218,724.6992 L208,714.6992 " fill="#FEFFDD" style="stroke:#181818;stroke-width:0.5;"/><text fill="#000000" font-family="sans-serif" font-size="13" lengthAdjust="spacing" textLength="149" x="19" y="732.2676">The controller here also</text><text fill="#000000" font-family="sans-serif" font-size="13" lengthAdjust="spacing" textLength="164" x="15" y="747.5781">creates an ResponseEntity</text><text fill="#000000" font-family="sans-serif" font-size="13" lengthAdjust="spacing" textLength="184" x="19" y="762.8887">to show the user the obj with</text><text fill="#000000" font-family="sans-serif" font-size="13" lengthAdjust="spacing" textLength="171" x="19" y="778.1992">"subscriptionsViewMapper"</text><text fill="#000000" font-family="sans-serif" font-size="13" lengthAdjust="spacing" textLength="126" x="19" y="793.5098">as subscriptionView</text><polygon fill="#181818" points="55.5,823.5625,45.5,827.5625,55.5,831.5625,51.5,827.5625" style="stroke:#181818;stroke-width:1.0;"/><line style="stroke:#181818;stroke-width:1.0;stroke-dasharray:2.0,2.0;" x1="49.5" x2="227.5" y1="827.5625" y2="827.5625"/><text fill="#000000" font-family="sans-serif" font-size="13" font-weight="bold" lengthAdjust="spacing" textLength="18" x="61.5" y="822.8203">16</text><text fill="#000000" font-family="sans-serif" font-size="13" lengthAdjust="spacing" textLength="108" x="83.5" y="822.8203">subscriptionView</text><!--SRC=[bLN1Rjim3BthAuXSvW19Sm-s0MxHOWMsTMYwNWj5Pc9jikH9TDByrxvWNpPATX8xxThk9ejFZq-F5Fsk9Ah3V3QhZRJKLEPCkMeMy5U3Lk6qq7BjPILaGqugqXj92CwcRzjKI_H220uu3wD5impAQzuRWGoGAr5BJrhfcfbXDE_YDMbdmuMpv9qn7VY2l7a9la2_qGeJDgvVmjvYxO9cIRiMtYpZpaidzZWXSWNJZqaDpE5RVdVn2MQX3vs956HGbC6W0H4CiF01b6GNJH-J6MVNK63G7ejxz87t9h0WhtcRRIt7x6ZYZZbQxK_I76Ypxc0Jq5jPuQH7D7ac4vDRnoNqUbsI0BWhTG2FV0Wt681A16rNpbSo9WAtIbl6hTTOC5pRb0bMtbKfuWzUdt7ukeKdoBPqmDpaTr4FkKupo857VAXmd9X50JxgG355v0YxG5X1MYjN86orCOn6Mq297a7oWahljinuQKdJxgkZAzVOul9HOKiUmV6wOkzZtzBlwIBQ5kUxwoBxp5wTRQHfy6QLMTosFex7nwE3SiGhniut13bCapXG9QgVe5Sf-EVti1cwsncdf36xPmKDIzmgo-ERmmL9Qi93-v7R8ahFOfP_oHjOp2uaeUV_8pGMvErYrqXnuuhRueOhvlDQ7qsST6tzHgc3_jIzZdgccnWnxATZDvLo4vi4qjH21WvWhxTLedwriKI1Xx4O1qZFga6-EHo1sUcJx2FPd8xZn9g1UpmUJiAd8uF3R43MnunVusWfklbtoj_MnU2AotANtDiFyCuu4vnG7lc28Vf-Yw7cri3MGX5h5af-hOToneLR_k0AK2bWD9YSzngtNsHTyzz1nDdS3yROiG0yiDzFf_k9_GJt5m00]--></g></svg>