<?xml version="1.0" encoding="us-ascii" standalone="no"?><svg xmlns="http://www.w3.org/2000/svg" xmlns:xlink="http://www.w3.org/1999/xlink" contentStyleType="text/css" height="643px" preserveAspectRatio="none" style="width:1135px;height:643px;background:#FFFFFF;" version="1.1" viewBox="0 0 1135 643" width="1135px" zoomAndPan="magnify"><defs/><g><!--class SubscriptionsRepository--><g id="elem_SubscriptionsRepository"><rect codeLine="30" fill="#F1F1F1" height="139.0625" id="SubscriptionsRepository" rx="2.5" ry="2.5" style="stroke:#181818;stroke-width:0.5;" width="658" x="216" y="278.95"/><text fill="#000000" font-family="sans-serif" font-size="12" font-style="italic" lengthAdjust="spacing" textLength="62" x="514" y="295.5516">&#171;interface&#187;</text><text fill="#000000" font-family="sans-serif" font-size="14" font-style="italic" lengthAdjust="spacing" textLength="166" x="462" y="311.618">SubscriptionsRepository</text><line style="stroke:#181818;stroke-width:0.5;" x1="217" x2="873" y1="319.5711" y2="319.5711"/><line style="stroke:#181818;stroke-width:0.5;" x1="217" x2="873" y1="327.5711" y2="327.5711"/><ellipse cx="227" cy="341.3152" fill="#84BE84" rx="3" ry="3" style="stroke:#038048;stroke-width:1.0;"/><text fill="#000000" font-family="sans-serif" font-size="14" lengthAdjust="spacing" textLength="632" x="236" y="345.1062">findByActiveStatus_ActiveAndUser(Boolean true, String username): Optional&lt;Subscriptions&gt;</text><ellipse cx="227" cy="357.8035" fill="#84BE84" rx="3" ry="3" style="stroke:#038048;stroke-width:1.0;"/><text fill="#000000" font-family="sans-serif" font-size="14" lengthAdjust="spacing" textLength="288" x="236" y="361.5945">save(S entity) : &lt;S extends Subscriptions&gt;</text><ellipse cx="227" cy="374.2918" fill="#84BE84" rx="3" ry="3" style="stroke:#038048;stroke-width:1.0;"/><text fill="#000000" font-family="sans-serif" font-size="14" lengthAdjust="spacing" textLength="413" x="236" y="378.0828">getUserFromOtherAPI(String name) : HttpResponse&lt;String&gt;</text><ellipse cx="227" cy="390.7801" fill="#84BE84" rx="3" ry="3" style="stroke:#038048;stroke-width:1.0;"/><text fill="#000000" font-family="sans-serif" font-size="14" lengthAdjust="spacing" textLength="496" x="236" y="394.5711">getSubsFromOtherApi(String name,String auth) : HttpResponse&lt;String&gt;</text><ellipse cx="227" cy="407.2684" fill="#84BE84" rx="3" ry="3" style="stroke:#038048;stroke-width:1.0;"/><text fill="#000000" font-family="sans-serif" font-size="14" lengthAdjust="spacing" textLength="445" x="236" y="411.0594">planExists(String plan,String auth,String resource): Subscriptions</text></g><!--class Subscriptions--><g id="elem_Subscriptions"><rect codeLine="6" fill="#F1F1F1" height="141.418" id="Subscriptions" rx="2.5" ry="2.5" style="stroke:#181818;stroke-width:0.5;" width="118" x="686" y="495.01"/><text fill="#000000" font-family="sans-serif" font-size="14" lengthAdjust="spacing" textLength="93" x="698.5" y="513.5452">Subscriptions</text><line style="stroke:#181818;stroke-width:0.5;" x1="687" x2="803" y1="521.4983" y2="521.4983"/><rect fill="none" height="6" style="stroke:#C82930;stroke-width:1.0;" width="6" x="694" y="532.2424"/><text fill="#000000" font-family="sans-serif" font-size="14" lengthAdjust="spacing" textLength="62" x="706" y="539.0334">startDate</text><rect fill="none" height="6" style="stroke:#C82930;stroke-width:1.0;" width="6" x="694" y="548.7307"/><text fill="#000000" font-family="sans-serif" font-size="14" lengthAdjust="spacing" textLength="57" x="706" y="555.5217">endDate</text><rect fill="none" height="6" style="stroke:#C82930;stroke-width:1.0;" width="6" x="694" y="565.219"/><text fill="#000000" font-family="sans-serif" font-size="14" lengthAdjust="spacing" textLength="92" x="706" y="572.01">paymentType</text><rect fill="none" height="6" style="stroke:#C82930;stroke-width:1.0;" width="6" x="694" y="581.7073"/><text fill="#000000" font-family="sans-serif" font-size="14" lengthAdjust="spacing" textLength="81" x="706" y="588.4983">activeStatus</text><rect fill="none" height="6" style="stroke:#C82930;stroke-width:1.0;" width="6" x="694" y="598.1955"/><text fill="#000000" font-family="sans-serif" font-size="14" lengthAdjust="spacing" textLength="30" x="706" y="604.9866">plan</text><rect fill="none" height="6" style="stroke:#C82930;stroke-width:1.0;" width="6" x="694" y="614.6838"/><text fill="#000000" font-family="sans-serif" font-size="14" lengthAdjust="spacing" textLength="30" x="706" y="621.4748">user</text><line style="stroke:#181818;stroke-width:0.5;" x1="687" x2="803" y1="628.428" y2="628.428"/></g><!--class SubscriptionsViewMapper--><g id="elem_SubscriptionsViewMapper"><rect codeLine="16" fill="#F1F1F1" height="58.9766" id="SubscriptionsViewMapper" rx="2.5" ry="2.5" style="stroke:#181818;stroke-width:0.5;" width="486" x="7" y="142.97"/><text fill="#000000" font-family="sans-serif" font-size="14" lengthAdjust="spacing" textLength="177" x="161.5" y="161.5052">SubscriptionsViewMapper</text><line style="stroke:#181818;stroke-width:0.5;" x1="8" x2="492" y1="169.4583" y2="169.4583"/><line style="stroke:#181818;stroke-width:0.5;" x1="8" x2="492" y1="177.4583" y2="177.4583"/><ellipse cx="18" cy="191.2024" fill="#84BE84" rx="3" ry="3" style="stroke:#038048;stroke-width:1.0;"/><text fill="#000000" font-family="sans-serif" font-size="14" lengthAdjust="spacing" textLength="460" x="27" y="194.9934">toSubscriptionsView(Subscription subscriptions):SubscriptionsView</text></g><!--class SubscriptionsController--><g id="elem_SubscriptionsController"><rect codeLine="19" fill="#F1F1F1" height="58.9766" id="SubscriptionsController" rx="2.5" ry="2.5" style="stroke:#181818;stroke-width:0.5;" width="546" x="19" y="7"/><text fill="#000000" font-family="sans-serif" font-size="14" lengthAdjust="spacing" textLength="163" x="210.5" y="25.5352">SubscriptionsController</text><line style="stroke:#181818;stroke-width:0.5;" x1="20" x2="564" y1="33.4883" y2="33.4883"/><line style="stroke:#181818;stroke-width:0.5;" x1="20" x2="564" y1="41.4883" y2="41.4883"/><text fill="#000000" font-family="sans-serif" font-size="14" lengthAdjust="spacing" textLength="534" x="25" y="59.0234">cancelSubscription(WebRequest request):ResponseEntity&lt;SubscriptionsView&gt;</text></g><!--class SubscriptionsService--><g id="elem_SubscriptionsService"><rect codeLine="22" fill="#F1F1F1" height="58.9766" id="SubscriptionsService" rx="2.5" ry="2.5" style="stroke:#181818;stroke-width:0.5;" width="601" x="527.5" y="142.97"/><text fill="#000000" font-family="sans-serif" font-size="14" lengthAdjust="spacing" textLength="141" x="757.5" y="161.5052">SubscriptionsService</text><line style="stroke:#181818;stroke-width:0.5;" x1="528.5" x2="1127.5" y1="169.4583" y2="169.4583"/><line style="stroke:#181818;stroke-width:0.5;" x1="528.5" x2="1127.5" y1="177.4583" y2="177.4583"/><ellipse cx="538.5" cy="191.2024" fill="#84BE84" rx="3" ry="3" style="stroke:#038048;stroke-width:1.0;"/><text fill="#000000" font-family="sans-serif" font-size="14" lengthAdjust="spacing" textLength="575" x="547.5" y="194.9934">cancelSubscription(long desiredVersion,String username, String auth):Subscriptions</text></g><!--link SubscriptionsController to SubscriptionsService--><g id="link_SubscriptionsController_SubscriptionsService"><path codeLine="41" d="M407.64,66.39 C497.66,88.89 616.199,118.5254 706.279,141.0354 " fill="none" id="SubscriptionsController-to-SubscriptionsService" style="stroke:#181818;stroke-width:1.0;stroke-dasharray:7.0,7.0;"/><polygon fill="#181818" points="712.1,142.49,704.3382,136.4274,707.2492,141.2778,702.3988,144.1888,712.1,142.49" style="stroke:#181818;stroke-width:1.0;"/><polygon fill="#000000" points="602.8508,105.8377,594.7883,100.7932,593.363,106.4956,602.8508,105.8377" style="stroke:#000000;stroke-width:1.0;"/><text fill="#000000" font-family="sans-serif" font-size="13" lengthAdjust="spacing" textLength="29" x="607" y="109.5384">uses</text></g><!--link SubscriptionsService to SubscriptionsRepository--><g id="link_SubscriptionsService_SubscriptionsRepository"><path codeLine="42" d="M780.95,202.39 C747.16,223.17 705.2511,248.9373 662.0711,275.4873 " fill="none" id="SubscriptionsService-to-SubscriptionsRepository" style="stroke:#181818;stroke-width:1.0;stroke-dasharray:7.0,7.0;"/><polygon fill="#181818" points="656.96,278.63,666.7218,277.3234,661.2193,276.0111,662.5316,270.5086,656.96,278.63" style="stroke:#181818;stroke-width:1.0;"/><polygon fill="#000000" points="729.7408,243.2242,738.9852,240.99,735.9064,235.983,729.7408,243.2242" style="stroke:#000000;stroke-width:1.0;"/><text fill="#000000" font-family="sans-serif" font-size="13" lengthAdjust="spacing" textLength="29" x="743" y="245.5184">uses</text></g><!--link SubscriptionsService to Subscriptions--><g id="link_SubscriptionsService_Subscriptions"><path codeLine="43" d="M851.51,202.33 C866.32,222.46 884.1,250.69 892,278.95 C908.64,338.47 915.68,360.92 892,418.01 C874.18,460.98 841.6716,494.1373 809.1616,520.1973 " fill="none" id="SubscriptionsService-to-Subscriptions" style="stroke:#181818;stroke-width:1.0;stroke-dasharray:7.0,7.0;"/><polygon fill="#181818" points="804.48,523.95,814.0042,521.4419,808.3813,520.8227,809.0005,515.1999,804.48,523.95" style="stroke:#181818;stroke-width:1.0;"/><polygon fill="#000000" points="911.3397,353.5915,915.4474,345.0137,909.621,344.2375,911.3397,353.5915" style="stroke:#000000;stroke-width:1.0;"/><text fill="#000000" font-family="sans-serif" font-size="13" lengthAdjust="spacing" textLength="29" x="921" y="353.5484">uses</text></g><!--link SubscriptionsRepository to Subscriptions--><g id="link_SubscriptionsRepository_Subscriptions"><path codeLine="44" d="M609.11,418.47 C633.67,444.91 657.4861,470.5343 681.5861,496.4743 " fill="none" id="SubscriptionsRepository-to-Subscriptions" style="stroke:#181818;stroke-width:1.0;stroke-dasharray:7.0,7.0;"/><polygon fill="#181818" points="685.67,500.87,682.4746,491.5539,682.2668,497.2069,676.6137,496.9991,685.67,500.87" style="stroke:#181818;stroke-width:1.0;"/><polygon fill="#000000" points="652.5966,453.0023,656.6003,461.6291,660.9064,457.6282,652.5966,453.0023" style="stroke:#000000;stroke-width:1.0;"/><text fill="#000000" font-family="sans-serif" font-size="13" lengthAdjust="spacing" textLength="40" x="665" y="461.5784">record</text></g><!--link SubscriptionsController to SubscriptionsViewMapper--><g id="link_SubscriptionsController_SubscriptionsViewMapper"><path codeLine="45" d="M282.99,66.23 C275.9,88.83 267.8737,114.4444 260.7937,137.0444 " fill="none" id="SubscriptionsController-to-SubscriptionsViewMapper" style="stroke:#181818;stroke-width:1.0;stroke-dasharray:7.0,7.0;"/><polygon fill="#181818" points="259,142.77,265.5076,135.3774,260.4947,137.9987,257.8735,132.9858,259,142.77" style="stroke:#181818;stroke-width:1.0;"/><polygon fill="#000000" points="277.5045,109.3964,283.0143,101.6444,277.4055,99.8863,277.5045,109.3964" style="stroke:#000000;stroke-width:1.0;"/><text fill="#000000" font-family="sans-serif" font-size="13" lengthAdjust="spacing" textLength="29" x="288" y="109.5384">uses</text></g><!--SRC=[bLDDRzim3BthL-Ws1qcJks4OIB_G7OOMyTOT1rLc4m6of99qLgFOVvzinutRE0FcYyMFnoS-Kbzsp87IrIfOvRYkx5BxQgMj8heeZTgYgiJEb22rGMr1T15Pr4-aqGGstj46WYV37XkPPSOnuBFIaET2J6NBDo7ZTq6iaAyLGs-2Auz6K4q5ZhytuU1GciqU2bPSqo4bNhS_rGGe_aoJFHhu_Ks50DYppjcVn9EnHz8uF4jFiYFJ1C-LTupUse57AwV1ZbEId_2qWPSQY2Ns_rcw0GeH3JUE3JVP2LdU5PjaB03tHaEacq-GMU-siWGo2EKZ84NVec0qqTlAvLG52tbmg9ftdneLdPv2l0_ptC35cvW_6rTUDklHX7xrnjgLFo9PSkcz1UKaOtra7QunI-LzLrNPZ_tdOavg3qaXeLDd9bEPHUELuwfy4YFcRe5RiblqrJtl0DSFNvC3LKSJqNTnqmV5ipxM0zjQHs0mO-1YhDBP8kqsthmQOXgmhMUC7Su8v6lKRTyV9UyKFxDKShdC9yUVjZgIpCLKy1Hr7Dn_0gVJHmz_0f75NhN7ybzDdNci0zrV]--></g></svg>