<?xml version="1.0" encoding="us-ascii" standalone="no"?><svg xmlns="http://www.w3.org/2000/svg" xmlns:xlink="http://www.w3.org/1999/xlink" contentStyleType="text/css" height="612px" preserveAspectRatio="none" style="width:893px;height:612px;background:#FFFFFF;" version="1.1" viewBox="0 0 893 612" width="893px" zoomAndPan="magnify"><defs/><g><!--class SubscriptionsRepository--><g id="elem_SubscriptionsRepository"><rect codeLine="35" fill="#F1F1F1" height="97.8242" id="SubscriptionsRepository" rx="2.5" ry="2.5" style="stroke:#181818;stroke-width:0.5;" width="327" x="172" y="291"/><text fill="#000000" font-family="sans-serif" font-size="12" font-style="italic" lengthAdjust="spacing" textLength="61" x="305" y="308.9492">&#171;interface&#187;</text><text fill="#000000" font-family="sans-serif" font-size="14" font-style="italic" lengthAdjust="spacing" textLength="153" x="259" y="327.0684">SubscriptionsRepository</text><line style="stroke:#181818;stroke-width:0.5;" x1="173" x2="498" y1="335.582" y2="335.582"/><line style="stroke:#181818;stroke-width:0.5;" x1="173" x2="498" y1="343.582" y2="343.582"/><ellipse cx="183" cy="358.3926" fill="#84BE84" rx="3" ry="3" style="stroke:#038048;stroke-width:1.0;"/><text fill="#000000" font-family="sans-serif" font-size="14" lengthAdjust="spacing" textLength="301" x="192" y="362.6895">findByUser(User user): Optional&lt;Subscriptions&gt;</text><ellipse cx="183" cy="377.0137" fill="#84BE84" rx="3" ry="3" style="stroke:#038048;stroke-width:1.0;"/><text fill="#000000" font-family="sans-serif" font-size="14" lengthAdjust="spacing" textLength="266" x="192" y="381.3105">save(S entity) : &lt;S extends Subscriptions&gt;</text></g><!--class UserRepository--><g id="elem_UserRepository"><rect codeLine="29" fill="#F1F1F1" height="79.2031" id="UserRepository" rx="2.5" ry="2.5" style="stroke:#181818;stroke-width:0.5;" width="277" x="534" y="300.5"/><text fill="#000000" font-family="sans-serif" font-size="12" font-style="italic" lengthAdjust="spacing" textLength="61" x="642" y="318.4492">&#171;interface&#187;</text><text fill="#000000" font-family="sans-serif" font-size="14" font-style="italic" lengthAdjust="spacing" textLength="98" x="623.5" y="336.5684">UserRepository</text><line style="stroke:#181818;stroke-width:0.5;" x1="535" x2="810" y1="345.082" y2="345.082"/><line style="stroke:#181818;stroke-width:0.5;" x1="535" x2="810" y1="353.082" y2="353.082"/><ellipse cx="545" cy="367.8926" fill="#84BE84" rx="3" ry="3" style="stroke:#038048;stroke-width:1.0;"/><text fill="#000000" font-family="sans-serif" font-size="14" lengthAdjust="spacing" textLength="251" x="554" y="372.1895">findById(Long objectId): Optional&lt;User&gt;</text></g><!--class Subscriptions--><g id="elem_Subscriptions"><rect codeLine="8" fill="#F1F1F1" height="137.7266" id="Subscriptions" rx="2.5" ry="2.5" style="stroke:#181818;stroke-width:0.5;" width="291" x="463" y="468"/><text fill="#000000" font-family="sans-serif" font-size="14" lengthAdjust="spacing" textLength="85" x="566" y="488.1074">Subscriptions</text><line style="stroke:#181818;stroke-width:0.5;" x1="464" x2="753" y1="496.6211" y2="496.6211"/><rect fill="none" height="6" style="stroke:#C82930;stroke-width:1.0;" width="6" x="471" y="508.4316"/><text fill="#000000" font-family="sans-serif" font-size="14" lengthAdjust="spacing" textLength="58" x="483" y="515.7285">startDate</text><rect fill="none" height="6" style="stroke:#C82930;stroke-width:1.0;" width="6" x="471" y="527.0527"/><text fill="#000000" font-family="sans-serif" font-size="14" lengthAdjust="spacing" textLength="54" x="483" y="534.3496">endDate</text><rect fill="none" height="6" style="stroke:#C82930;stroke-width:1.0;" width="6" x="471" y="545.6738"/><text fill="#000000" font-family="sans-serif" font-size="14" lengthAdjust="spacing" textLength="86" x="483" y="552.9707">paymentType</text><rect fill="none" height="6" style="stroke:#C82930;stroke-width:1.0;" width="6" x="471" y="564.2949"/><text fill="#000000" font-family="sans-serif" font-size="14" lengthAdjust="spacing" textLength="77" x="483" y="571.5918">activeStatus</text><line style="stroke:#181818;stroke-width:0.5;" x1="464" x2="753" y1="579.1055" y2="579.1055"/><ellipse cx="474" cy="593.916" fill="#84BE84" rx="3" ry="3" style="stroke:#038048;stroke-width:1.0;"/><text fill="#000000" font-family="sans-serif" font-size="14" lengthAdjust="spacing" textLength="265" x="483" y="598.2129">deactivate(final long desiredVersion): void</text></g><!--class SubscriptionsViewMapper--><g id="elem_SubscriptionsViewMapper"><rect codeLine="17" fill="#F1F1F1" height="63.2422" id="SubscriptionsViewMapper" rx="2.5" ry="2.5" style="stroke:#181818;stroke-width:0.5;" width="445" x="7" y="149"/><text fill="#000000" font-family="sans-serif" font-size="14" lengthAdjust="spacing" textLength="162" x="148.5" y="169.1074">SubscriptionsViewMapper</text><line style="stroke:#181818;stroke-width:0.5;" x1="8" x2="451" y1="177.6211" y2="177.6211"/><line style="stroke:#181818;stroke-width:0.5;" x1="8" x2="451" y1="185.6211" y2="185.6211"/><ellipse cx="18" cy="200.4316" fill="#84BE84" rx="3" ry="3" style="stroke:#038048;stroke-width:1.0;"/><text fill="#000000" font-family="sans-serif" font-size="14" lengthAdjust="spacing" textLength="419" x="27" y="204.7285">toSubscriptionsView(Subscription subscriptions):SubscriptionsView</text></g><!--class SubscriptionsController--><g id="elem_SubscriptionsController"><rect codeLine="20" fill="#F1F1F1" height="63.2422" id="SubscriptionsController" rx="2.5" ry="2.5" style="stroke:#181818;stroke-width:0.5;" width="508" x="16.5" y="7"/><text fill="#000000" font-family="sans-serif" font-size="14" lengthAdjust="spacing" textLength="147" x="197" y="27.1074">SubscriptionsController</text><line style="stroke:#181818;stroke-width:0.5;" x1="17.5" x2="523.5" y1="35.6211" y2="35.6211"/><line style="stroke:#181818;stroke-width:0.5;" x1="17.5" x2="523.5" y1="43.6211" y2="43.6211"/><text fill="#000000" font-family="sans-serif" font-size="14" lengthAdjust="spacing" textLength="496" x="22.5" y="62.7285">cancelSubscription(WebRequest request):ResponseEntity&lt;SubscriptionsView&gt;</text></g><!--class SubscriptionsService--><g id="elem_SubscriptionsService"><rect codeLine="23" fill="#F1F1F1" height="63.2422" id="SubscriptionsService" rx="2.5" ry="2.5" style="stroke:#181818;stroke-width:0.5;" width="370" x="487.5" y="149"/><text fill="#000000" font-family="sans-serif" font-size="14" lengthAdjust="spacing" textLength="132" x="606.5" y="169.1074">SubscriptionsService</text><line style="stroke:#181818;stroke-width:0.5;" x1="488.5" x2="856.5" y1="177.6211" y2="177.6211"/><line style="stroke:#181818;stroke-width:0.5;" x1="488.5" x2="856.5" y1="185.6211" y2="185.6211"/><ellipse cx="498.5" cy="200.4316" fill="#84BE84" rx="3" ry="3" style="stroke:#038048;stroke-width:1.0;"/><text fill="#000000" font-family="sans-serif" font-size="14" lengthAdjust="spacing" textLength="344" x="507.5" y="204.7285">cancelSubscription(long desiredVersion):Subscriptions</text></g><!--link SubscriptionsController to SubscriptionsService--><g id="link_SubscriptionsController_SubscriptionsService"><path codeLine="43" d="M358.22,70.05 C423.76,92.88 513.16,124.01 579.85,147.24 " fill="none" id="SubscriptionsController-to-SubscriptionsService" style="stroke:#181818;stroke-width:1.0;stroke-dasharray:7.0,7.0;"/><polygon fill="#181818" points="584.62,148.89,577.4376,142.1511,579.8985,147.2446,574.805,149.7055,584.62,148.89" style="stroke:#181818;stroke-width:1.0;"/><polygon fill="#000000" points="506.2218,111.29,498.6466,105.5396,496.7133,111.0905,506.2218,111.29" style="stroke:#000000;stroke-width:1.0;"/><text fill="#000000" font-family="sans-serif" font-size="13" lengthAdjust="spacing" textLength="28" x="510.5" y="115.0283">uses</text></g><!--link SubscriptionsService to SubscriptionsRepository--><g id="link_SubscriptionsService_SubscriptionsRepository"><path codeLine="44" d="M607.12,212.05 C560.67,233.76 497.23,263.41 443.35,288.6 " fill="none" id="SubscriptionsService-to-SubscriptionsRepository" style="stroke:#181818;stroke-width:1.0;stroke-dasharray:7.0,7.0;"/><polygon fill="#181818" points="438.49,290.86,448.3372,290.6771,443.0206,288.7448,444.9528,283.4282,438.49,290.86" style="stroke:#181818;stroke-width:1.0;"/><polygon fill="#000000" points="534.9704,253.7628,544.409,252.5951,541.92,247.2702,534.9704,253.7628" style="stroke:#000000;stroke-width:1.0;"/><text fill="#000000" font-family="sans-serif" font-size="13" lengthAdjust="spacing" textLength="28" x="548.5" y="257.0283">uses</text></g><!--link SubscriptionsService to UserRepository--><g id="link_SubscriptionsService_UserRepository"><path codeLine="45" d="M672.5,212.24 C672.5,235.82 672.5,268.7 672.5,295.06 " fill="none" id="SubscriptionsService-to-UserRepository" style="stroke:#181818;stroke-width:1.0;stroke-dasharray:7.0,7.0;"/><polygon fill="#181818" points="672.5,300.24,676.5,291.24,672.5,295.24,668.5,291.24,672.5,300.24" style="stroke:#181818;stroke-width:1.0;"/><polygon fill="#000000" points="677.5,256.6455,680.4389,247.6004,674.5611,247.6004,677.5,256.6455" style="stroke:#000000;stroke-width:1.0;"/><text fill="#000000" font-family="sans-serif" font-size="13" lengthAdjust="spacing" textLength="28" x="686.5" y="257.0283">uses</text></g><!--link SubscriptionsService to Subscriptions--><g id="link_SubscriptionsService_Subscriptions"><path codeLine="46" d="M743.52,212.22 C775.65,230.16 810.41,256.21 828.5,291 C848.59,329.65 849.03,350.59 828.5,389 C812.2,419.5 786.45,444.78 758.23,465.27 " fill="none" id="SubscriptionsService-to-Subscriptions" style="stroke:#181818;stroke-width:1.0;stroke-dasharray:7.0,7.0;"/><polygon fill="#181818" points="754.05,468.26,763.7012,466.2966,758.1225,465.3592,759.0599,459.7806,754.05,468.26" style="stroke:#181818;stroke-width:1.0;"/><polygon fill="#000000" points="848.7902,345.1371,851.1992,335.9367,845.3313,336.2778,848.7902,345.1371" style="stroke:#000000;stroke-width:1.0;"/><text fill="#000000" font-family="sans-serif" font-size="13" lengthAdjust="spacing" textLength="28" x="857.5" y="345.5283">uses</text></g><!--link SubscriptionsRepository to Subscriptions--><g id="link_SubscriptionsRepository_Subscriptions"><path codeLine="47" d="M402.98,389.2 C434.92,412.02 473.7,439.72 508.93,464.88 " fill="none" id="SubscriptionsRepository-to-Subscriptions" style="stroke:#181818;stroke-width:1.0;stroke-dasharray:7.0,7.0;"/><polygon fill="#181818" points="513.21,467.94,508.2142,459.4523,509.1423,465.0325,503.5621,465.9606,513.21,467.94" style="stroke:#181818;stroke-width:1.0;"/><polygon fill="#000000" points="465.4314,425.7393,471.0834,433.3882,474.4998,428.6052,465.4314,425.7393" style="stroke:#000000;stroke-width:1.0;"/><text fill="#000000" font-family="sans-serif" font-size="13" lengthAdjust="spacing" textLength="36" x="478.5" y="434.0283">record</text></g><!--link SubscriptionsController to SubscriptionsViewMapper--><g id="link_SubscriptionsController_SubscriptionsViewMapper"><path codeLine="48" d="M261.5,70.22 C255.15,91.92 246.61,121.07 239.95,143.81 " fill="none" id="SubscriptionsController-to-SubscriptionsViewMapper" style="stroke:#181818;stroke-width:1.0;stroke-dasharray:7.0,7.0;"/><polygon fill="#181818" points="238.48,148.85,244.84,141.33,239.88,144.05,237.16,139.09,238.48,148.85" style="stroke:#181818;stroke-width:1.0;"/><polygon fill="#000000" points="256.0948,114.444,261.4573,106.5894,255.8163,104.9375,256.0948,114.444" style="stroke:#000000;stroke-width:1.0;"/><text fill="#000000" font-family="sans-serif" font-size="13" lengthAdjust="spacing" textLength="28" x="266.5" y="115.0283">uses</text></g><!--SRC=[bLFBRiCW4Bpp5Tpgo6fojomV-ZX4QbKfRjCpWKr2XO72EgqLzT-BdQHnOjAg7B3sCJFh0QxMYDPdaubLJ6DTgJ4trOGhvlsra6pbM4NMKW3bqd45fAlGibvuxgH5QRIVWJLUed4DpNEf4ToISIYAVU-B1tUn9Qm88zqI6jQrH-RmZY7iGj3Y65ZMLA3nkR7x1ECeDr0YmzftcLH0bmkGP2arKrGPlQ82l7GWvk1yq1fbT6Ea85_nIUOIFXwPjU1s8wLe1lMadw6-NnvbW-wW5D6vDHgTKUgWmvdceFejoIiiPl1UWqVgTjzHDWDl0nhkDKfiye5OqP555Kjm6yaXoAKHiQXJ9tZIMVPpbcV7JBOa3PwBcsOgaeUMp2pUWEDK1CEVEWQcyXPJdF5Sk5f7mXQKj1kjmzQdEu4M9FLi0qb9eJDdH3EQX-0JmpKwys8t0xbm8dGyBgBUPUq4dXOaLXoYZZ_pD_3KpNyAnTjxRp22oCEbuiQ9tqouy38ESjy0]--></g></svg>