<?xml version="1.0" encoding="us-ascii" standalone="no"?><svg xmlns="http://www.w3.org/2000/svg" xmlns:xlink="http://www.w3.org/1999/xlink" contentStyleType="text/css" height="680px" preserveAspectRatio="none" style="width:532px;height:680px;background:#FFFFFF;" version="1.1" viewBox="0 0 532 680" width="532px" zoomAndPan="magnify"><defs/><g><text fill="#000000" font-family="sans-serif" font-size="14" font-weight="bold" lengthAdjust="spacing" textLength="504" x="10" y="23.5352">Class Diagram / As a new customer I want to know all existing plans</text><!--class PlansRepository--><g id="elem_PlansRepository"><rect codeLine="29" fill="#F1F1F1" height="56.6211" id="PlansRepository" rx="2.5" ry="2.5" style="stroke:#181818;stroke-width:0.5;" width="115" x="331.25" y="541.4883"/><text fill="#000000" font-family="sans-serif" font-size="12" font-style="italic" lengthAdjust="spacing" textLength="62" x="357.75" y="558.0898">&#171;interface&#187;</text><text fill="#000000" font-family="sans-serif" font-size="14" font-style="italic" lengthAdjust="spacing" textLength="109" x="334.25" y="574.1563">PlansRepository</text><line style="stroke:#181818;stroke-width:0.5;" x1="332.25" x2="445.25" y1="582.1094" y2="582.1094"/><line style="stroke:#181818;stroke-width:0.5;" x1="332.25" x2="445.25" y1="590.1094" y2="590.1094"/></g><!--class CrudRepository--><g id="elem_CrudRepository"><rect codeLine="34" fill="#F1F1F1" height="73.1094" id="CrudRepository" rx="2.5" ry="2.5" style="stroke:#181818;stroke-width:0.5;" width="168" x="262.75" y="316.4883"/><text fill="#000000" font-family="sans-serif" font-size="12" font-style="italic" lengthAdjust="spacing" textLength="62" x="315.75" y="333.0898">&#171;interface&#187;</text><text fill="#000000" font-family="sans-serif" font-size="14" font-style="italic" lengthAdjust="spacing" textLength="107" x="293.25" y="349.1563">CrudRepository</text><line style="stroke:#181818;stroke-width:0.5;" x1="263.75" x2="429.75" y1="357.1094" y2="357.1094"/><line style="stroke:#181818;stroke-width:0.5;" x1="263.75" x2="429.75" y1="365.1094" y2="365.1094"/><ellipse cx="273.75" cy="378.8535" fill="#84BE84" rx="3" ry="3" style="stroke:#038048;stroke-width:1.0;"/><text fill="#000000" font-family="sans-serif" font-size="14" lengthAdjust="spacing" textLength="142" x="282.75" y="382.6445">Iterable&lt;T&gt; findAll()</text></g><!--class Plans--><g id="elem_Plans"><rect codeLine="8" fill="#F1F1F1" height="207.3711" id="Plans" rx="2.5" ry="2.5" style="stroke:#181818;stroke-width:0.5;" width="204" x="91.75" y="466.4883"/><text fill="#000000" font-family="sans-serif" font-size="14" lengthAdjust="spacing" textLength="36" x="175.75" y="485.0234">Plans</text><line style="stroke:#181818;stroke-width:0.5;" x1="92.75" x2="294.75" y1="492.9766" y2="492.9766"/><rect fill="none" height="6" style="stroke:#C82930;stroke-width:1.0;" width="6" x="99.75" y="503.7207"/><text fill="#000000" font-family="sans-serif" font-size="14" lengthAdjust="spacing" textLength="38" x="111.75" y="510.5117">name</text><rect fill="none" height="6" style="stroke:#C82930;stroke-width:1.0;" width="6" x="99.75" y="520.209"/><text fill="#000000" font-family="sans-serif" font-size="14" lengthAdjust="spacing" textLength="77" x="111.75" y="527">description</text><rect fill="none" height="6" style="stroke:#C82930;stroke-width:1.0;" width="6" x="99.75" y="536.6973"/><text fill="#000000" font-family="sans-serif" font-size="14" lengthAdjust="spacing" textLength="124" x="111.75" y="543.4883">numberOfMinutes</text><rect fill="none" height="6" style="stroke:#C82930;stroke-width:1.0;" width="6" x="99.75" y="553.1855"/><text fill="#000000" font-family="sans-serif" font-size="14" lengthAdjust="spacing" textLength="178" x="111.75" y="559.9766">maximumNumberOfUsers</text><rect fill="none" height="6" style="stroke:#C82930;stroke-width:1.0;" width="6" x="99.75" y="569.6738"/><text fill="#000000" font-family="sans-serif" font-size="14" lengthAdjust="spacing" textLength="109" x="111.75" y="576.4648">musicCollection</text><rect fill="none" height="6" style="stroke:#C82930;stroke-width:1.0;" width="6" x="99.75" y="586.1621"/><text fill="#000000" font-family="sans-serif" font-size="14" lengthAdjust="spacing" textLength="117" x="111.75" y="592.9531">musicSuggestion</text><rect fill="none" height="6" style="stroke:#C82930;stroke-width:1.0;" width="6" x="99.75" y="602.6504"/><text fill="#000000" font-family="sans-serif" font-size="14" lengthAdjust="spacing" textLength="71" x="111.75" y="609.4414">annualFee</text><rect fill="none" height="6" style="stroke:#C82930;stroke-width:1.0;" width="6" x="99.75" y="619.1387"/><text fill="#000000" font-family="sans-serif" font-size="14" lengthAdjust="spacing" textLength="80" x="111.75" y="625.9297">monthlyFee</text><rect fill="none" height="6" style="stroke:#C82930;stroke-width:1.0;" width="6" x="99.75" y="635.627"/><text fill="#000000" font-family="sans-serif" font-size="14" lengthAdjust="spacing" textLength="39" x="111.75" y="642.418">active</text><rect fill="none" height="6" style="stroke:#C82930;stroke-width:1.0;" width="6" x="99.75" y="652.1152"/><text fill="#000000" font-family="sans-serif" font-size="14" lengthAdjust="spacing" textLength="68" x="111.75" y="658.9063">promoted</text><line style="stroke:#181818;stroke-width:0.5;" x1="92.75" x2="294.75" y1="665.8594" y2="665.8594"/></g><!--class PlansController--><g id="elem_PlansController"><rect codeLine="21" fill="#F1F1F1" height="58.9766" id="PlansController" rx="2.5" ry="2.5" style="stroke:#181818;stroke-width:0.5;" width="199" x="123.25" y="44.4883"/><text fill="#000000" font-family="sans-serif" font-size="14" lengthAdjust="spacing" textLength="106" x="169.75" y="63.0234">PlansController</text><line style="stroke:#181818;stroke-width:0.5;" x1="124.25" x2="321.25" y1="70.9766" y2="70.9766"/><line style="stroke:#181818;stroke-width:0.5;" x1="124.25" x2="321.25" y1="78.9766" y2="78.9766"/><ellipse cx="134.25" cy="92.7207" fill="#84BE84" rx="3" ry="3" style="stroke:#038048;stroke-width:1.0;"/><text fill="#000000" font-family="sans-serif" font-size="14" lengthAdjust="spacing" textLength="173" x="143.25" y="96.5117">findAll() :Iterable&lt;Plans&gt;</text></g><!--class PlansService--><g id="elem_PlansService"><rect codeLine="24" fill="#F1F1F1" height="58.9766" id="PlansService" rx="2.5" ry="2.5" style="stroke:#181818;stroke-width:0.5;" width="199" x="247.25" y="180.4883"/><text fill="#000000" font-family="sans-serif" font-size="14" lengthAdjust="spacing" textLength="84" x="304.75" y="199.0234">PlansService</text><line style="stroke:#181818;stroke-width:0.5;" x1="248.25" x2="445.25" y1="206.9766" y2="206.9766"/><line style="stroke:#181818;stroke-width:0.5;" x1="248.25" x2="445.25" y1="214.9766" y2="214.9766"/><ellipse cx="258.25" cy="228.7207" fill="#84BE84" rx="3" ry="3" style="stroke:#038048;stroke-width:1.0;"/><text fill="#000000" font-family="sans-serif" font-size="14" lengthAdjust="spacing" textLength="173" x="267.25" y="232.5117">findAll() :Iterable&lt;Plans&gt;</text></g><!--reverse link CrudRepository to PlansRepository--><g id="link_CrudRepository_PlansRepository"><path d="M357.8,410.5383 C366.01,452.5983 376.87,508.1883 383.3,541.1083 " fill="none" id="CrudRepository-backto-PlansRepository" style="stroke:#181818;stroke-width:1.0;"/><polygon fill="none" points="350.74,411.9483,353.78,390.9783,364.48,409.2583,350.74,411.9483" style="stroke:#181818;stroke-width:1.0;"/></g><!--link PlansController to PlansService--><g id="link_PlansController_PlansService"><path codeLine="39" d="M249.35,103.7383 C268.97,124.9283 295.69,153.8083 316.18,175.9583 " fill="none" id="PlansController-to-PlansService" style="stroke:#181818;stroke-width:1.0;stroke-dasharray:7.0,7.0;"/><polygon fill="#181818" points="319.19,179.2883,316.0096,169.967,315.7927,175.6197,310.14,175.4028,319.19,179.2883" style="stroke:#181818;stroke-width:1.0;"/><text fill="#000000" font-family="sans-serif" font-size="13" lengthAdjust="spacing" textLength="39" x="293.75" y="147.0566">uses&gt;</text></g><!--link PlansController to Plans--><g id="link_PlansController_Plans"><path codeLine="40" d="M221.07,103.6783 C217.07,171.6783 206.87,345.4783 200.13,460.3483 " fill="none" id="PlansController-to-Plans" style="stroke:#181818;stroke-width:1.0;stroke-dasharray:7.0,7.0;"/><polygon fill="#181818" points="199.79,465.1083,204.3233,456.3648,200.0903,460.1173,196.3378,455.8843,199.79,465.1083" style="stroke:#181818;stroke-width:1.0;"/></g><!--link PlansService to CrudRepository--><g id="link_PlansService_CrudRepository"><path codeLine="41" d="M346.75,239.8583 C346.75,260.1283 346.75,287.5383 346.75,310.1883 " fill="none" id="PlansService-to-CrudRepository" style="stroke:#181818;stroke-width:1.0;stroke-dasharray:7.0,7.0;"/><polygon fill="#181818" points="346.75,315.1383,350.75,306.1383,346.75,310.1383,342.75,306.1383,346.75,315.1383" style="stroke:#181818;stroke-width:1.0;"/><text fill="#000000" font-family="sans-serif" font-size="13" lengthAdjust="spacing" textLength="39" x="347.75" y="283.0566">uses&gt;</text></g><!--link CrudRepository to Plans--><g id="link_CrudRepository_Plans"><path codeLine="42" d="M316.07,389.8283 C308.26,399.3183 300.03,409.6583 292.75,419.4883 C282.85,432.8683 272.77,447.1683 263.01,461.4383 " fill="none" id="CrudRepository-to-Plans" style="stroke:#181818;stroke-width:1.0;stroke-dasharray:7.0,7.0;"/><polygon fill="#181818" points="259.71,465.2783,268.076,460.0812,262.5196,461.1423,261.4585,455.5859,259.71,465.2783" style="stroke:#181818;stroke-width:1.0;"/><text fill="#000000" font-family="sans-serif" font-size="13" lengthAdjust="spacing" textLength="57" x="293.75" y="433.0566">records&gt;</text></g><!--SRC=[VLB9QiCm4BthA-RMbf3uRe8Xk1How4BJVe0YJMnHBKPB5aB-lV9Qno7rINxpthmt6ZsKtbSkJP9AKks3aWjcLC8aTMxE1IqiLQGK7849ooIIfW8VaUm-iJ9EU6DFi5mAxT7kACCiwpYv3VmkXNZX9KBUC9zR7qXWvO22nWEmuBnHQ64DXvWBl84VRGv0fGGy2kU5Bg2ExCWuqfb0_EQQAcnFmD4nAoelZEuG7TGMxVlkLUZWqRMeeaUXWdhhQjyERLy9Jh3SI8biQDAXcr0Kw4OerJfG-OBOiupsfJpz0JJssFS_bJNAUEJaSZL37aMszhFjDBETq7mbvUCJfEjuWtGhSTamiwP-6OitQFU2OLJ-9wiTXstSB1EF7ZMVBf2S9xARycom-SfWSAz5axbWiSYkugOG7CPSTtbap6xWQ_U-mUJD3VeKB39ZUQJy0W00]--></g></svg>