<?xml version="1.0" encoding="us-ascii" standalone="no"?><svg xmlns="http://www.w3.org/2000/svg" xmlns:xlink="http://www.w3.org/1999/xlink" contentStyleType="text/css" height="447px" preserveAspectRatio="none" style="width:805px;height:447px;background:#FFFFFF;" version="1.1" viewBox="0 0 805 447" width="805px" zoomAndPan="magnify"><defs/><g><text fill="#000000" font-family="sans-serif" font-size="14" font-weight="bold" lengthAdjust="spacing" textLength="531" x="136" y="28.5352">Sequence Diagram / As a new customer I want to know all existing plans</text><rect fill="#FFFFFF" height="198.4844" style="stroke:#181818;stroke-width:1.0;" width="10" x="234.5" y="150.2871"/><rect fill="#FFFFFF" height="113.8975" style="stroke:#181818;stroke-width:1.0;" width="10" x="482.5" y="179.5977"/><rect fill="#FFFFFF" height="29.3105" style="stroke:#181818;stroke-width:1.0;" width="10" x="730.5" y="208.9082"/><line style="stroke:#181818;stroke-width:0.5;stroke-dasharray:5.0,5.0;" x1="118" x2="118" y1="118.9766" y2="366.7715"/><line style="stroke:#181818;stroke-width:0.5;stroke-dasharray:5.0,5.0;" x1="239" x2="239" y1="118.9766" y2="366.7715"/><line style="stroke:#181818;stroke-width:0.5;stroke-dasharray:5.0,5.0;" x1="487.5" x2="487.5" y1="118.9766" y2="366.7715"/><line style="stroke:#181818;stroke-width:0.5;stroke-dasharray:5.0,5.0;" x1="735" x2="735" y1="118.9766" y2="366.7715"/><text fill="#000000" font-family="sans-serif" font-size="14" lengthAdjust="spacing" textLength="100" x="65" y="116.0234">New Customer</text><ellipse cx="118" cy="50.9883" fill="#E2E2F0" rx="8" ry="8" style="stroke:#181818;stroke-width:0.5;"/><path d="M118,58.9883 L118,85.9883 M105,66.9883 L131,66.9883 M118,85.9883 L105,100.9883 M118,85.9883 L131,100.9883 " fill="none" style="stroke:#181818;stroke-width:0.5;"/><text fill="#000000" font-family="sans-serif" font-size="14" lengthAdjust="spacing" textLength="100" x="65" y="379.3066">New Customer</text><ellipse cx="118" cy="390.7598" fill="#E2E2F0" rx="8" ry="8" style="stroke:#181818;stroke-width:0.5;"/><path d="M118,398.7598 L118,425.7598 M105,406.7598 L131,406.7598 M118,425.7598 L105,440.7598 M118,425.7598 L131,440.7598 " fill="none" style="stroke:#181818;stroke-width:0.5;"/><rect fill="#E2E2F0" height="30.4883" rx="2.5" ry="2.5" style="stroke:#181818;stroke-width:0.5;" width="117" x="181" y="87.4883"/><text fill="#000000" font-family="sans-serif" font-size="14" lengthAdjust="spacing" textLength="103" x="188" y="108.0234">:PlanController</text><rect fill="#E2E2F0" height="30.4883" rx="2.5" ry="2.5" style="stroke:#181818;stroke-width:0.5;" width="117" x="181" y="365.7715"/><text fill="#000000" font-family="sans-serif" font-size="14" lengthAdjust="spacing" textLength="103" x="188" y="386.3066">:PlanController</text><rect fill="#E2E2F0" height="30.4883" rx="2.5" ry="2.5" style="stroke:#181818;stroke-width:0.5;" width="102" x="436.5" y="87.4883"/><text fill="#000000" font-family="sans-serif" font-size="14" lengthAdjust="spacing" textLength="88" x="443.5" y="108.0234">:PlansService</text><rect fill="#E2E2F0" height="30.4883" rx="2.5" ry="2.5" style="stroke:#181818;stroke-width:0.5;" width="102" x="436.5" y="365.7715"/><text fill="#000000" font-family="sans-serif" font-size="14" lengthAdjust="spacing" textLength="88" x="443.5" y="386.3066">:PlansService</text><rect fill="#E2E2F0" height="30.4883" rx="2.5" ry="2.5" style="stroke:#181818;stroke-width:0.5;" width="127" x="672" y="87.4883"/><text fill="#000000" font-family="sans-serif" font-size="14" lengthAdjust="spacing" textLength="113" x="679" y="108.0234">:PlansRepository</text><rect fill="#E2E2F0" height="30.4883" rx="2.5" ry="2.5" style="stroke:#181818;stroke-width:0.5;" width="127" x="672" y="365.7715"/><text fill="#000000" font-family="sans-serif" font-size="14" lengthAdjust="spacing" textLength="113" x="679" y="386.3066">:PlansRepository</text><rect fill="#FFFFFF" height="198.4844" style="stroke:#181818;stroke-width:1.0;" width="10" x="234.5" y="150.2871"/><rect fill="#FFFFFF" height="113.8975" style="stroke:#181818;stroke-width:1.0;" width="10" x="482.5" y="179.5977"/><rect fill="#FFFFFF" height="29.3105" style="stroke:#181818;stroke-width:1.0;" width="10" x="730.5" y="208.9082"/><polygon fill="#181818" points="222.5,146.2871,232.5,150.2871,222.5,154.2871,226.5,150.2871" style="stroke:#181818;stroke-width:1.0;"/><line style="stroke:#181818;stroke-width:1.0;" x1="118" x2="228.5" y1="150.2871" y2="150.2871"/><text fill="#000000" font-family="sans-serif" font-size="13" font-weight="bold" lengthAdjust="spacing" textLength="9" x="125" y="145.5449">1</text><text fill="#000000" font-family="sans-serif" font-size="13" lengthAdjust="spacing" textLength="66" x="138" y="145.5449">Get /plans</text><polygon fill="#181818" points="470.5,175.5977,480.5,179.5977,470.5,183.5977,474.5,179.5977" style="stroke:#181818;stroke-width:1.0;"/><line style="stroke:#181818;stroke-width:1.0;" x1="244.5" x2="476.5" y1="179.5977" y2="179.5977"/><text fill="#000000" font-family="sans-serif" font-size="13" font-weight="bold" lengthAdjust="spacing" textLength="9" x="251.5" y="174.8555">2</text><text fill="#000000" font-family="sans-serif" font-size="13" lengthAdjust="spacing" textLength="206" x="264.5" y="174.8555">Iterable&lt;Plans&gt; plans = findAll()</text><polygon fill="#181818" points="718.5,204.9082,728.5,208.9082,718.5,212.9082,722.5,208.9082" style="stroke:#181818;stroke-width:1.0;"/><line style="stroke:#181818;stroke-width:1.0;" x1="492.5" x2="724.5" y1="208.9082" y2="208.9082"/><text fill="#000000" font-family="sans-serif" font-size="13" font-weight="bold" lengthAdjust="spacing" textLength="9" x="499.5" y="204.166">3</text><text fill="#000000" font-family="sans-serif" font-size="13" lengthAdjust="spacing" textLength="206" x="512.5" y="204.166">Iterable&lt;Plans&gt; plans = findAll()</text><polygon fill="#181818" points="503.5,234.2188,493.5,238.2188,503.5,242.2188,499.5,238.2188" style="stroke:#181818;stroke-width:1.0;"/><line style="stroke:#181818;stroke-width:1.0;stroke-dasharray:2.0,2.0;" x1="497.5" x2="734.5" y1="238.2188" y2="238.2188"/><text fill="#000000" font-family="sans-serif" font-size="13" font-weight="bold" lengthAdjust="spacing" textLength="9" x="509.5" y="233.4766">4</text><text fill="#000000" font-family="sans-serif" font-size="13" lengthAdjust="spacing" textLength="34" x="522.5" y="233.4766">plans</text><polygon fill="#181818" points="255.5,289.4951,245.5,293.4951,255.5,297.4951,251.5,293.4951" style="stroke:#181818;stroke-width:1.0;"/><line style="stroke:#181818;stroke-width:1.0;stroke-dasharray:2.0,2.0;" x1="249.5" x2="486.5" y1="293.4951" y2="293.4951"/><text fill="#000000" font-family="sans-serif" font-size="13" font-weight="bold" lengthAdjust="spacing" textLength="9" x="261.5" y="288.7529">5</text><text fill="#000000" font-family="sans-serif" font-size="13" lengthAdjust="spacing" textLength="34" x="274.5" y="288.7529">plans</text><path d="M5,251.2188 L5,322.2188 L230,322.2188 L230,261.2188 L220,251.2188 L5,251.2188 " fill="#FEFFDD" style="stroke:#181818;stroke-width:0.5;"/><path d="M220,251.2188 L220,261.2188 L230,261.2188 L220,251.2188 " fill="#FEFFDD" style="stroke:#181818;stroke-width:0.5;"/><text fill="#000000" font-family="sans-serif" font-size="13" lengthAdjust="spacing" textLength="149" x="11" y="268.7871">The controller here also</text><text fill="#000000" font-family="sans-serif" font-size="13" lengthAdjust="spacing" textLength="164" x="11" y="284.0977">creates an ResponseEntity</text><text fill="#000000" font-family="sans-serif" font-size="13" lengthAdjust="spacing" textLength="198" x="11" y="299.4082">to show the user the plans with</text><text fill="#000000" font-family="sans-serif" font-size="13" lengthAdjust="spacing" textLength="204" x="11" y="314.7188">"plansViewMapper" as plansView</text><polygon fill="#181818" points="129,344.7715,119,348.7715,129,352.7715,125,348.7715" style="stroke:#181818;stroke-width:1.0;"/><line style="stroke:#181818;stroke-width:1.0;stroke-dasharray:2.0,2.0;" x1="123" x2="238.5" y1="348.7715" y2="348.7715"/><text fill="#000000" font-family="sans-serif" font-size="13" font-weight="bold" lengthAdjust="spacing" textLength="9" x="135" y="344.0293">6</text><text fill="#000000" font-family="sans-serif" font-size="13" lengthAdjust="spacing" textLength="34" x="148" y="344.0293">plans</text><!--SRC=[ZL6nJiCm5Dpz5QSim12oHwLIL13g048KiRlkQsFXsC5-QUZVOpjfnT21pU_bxjxbxgPbxaDTLRsHbeVEt2lNLO6-1xAAofsM1oyx8GTsKh4-IYOucsSxT5loWZKR0ZOp1OyJ1HMQ00bB8zGGs7NaiSOOhu0TlgmR8Oq1_UZ0sXwG30JnLrd4YywZU8qIgrcYW0nebEYbPwrqd-IA-YroLywoTyRCc1LxSmKLDkIFMb76fFSrp3lrBkXu-vHXQHIDGhdCggZnJ8ngCfmtyKlIGhrcyd9hQ95rbjDFuG5xRNUDCRTtGcHW92JL_n0ohfmlr7DCaqYvJDVFE-jYDuRsBF3H4jGb3xJaAOOTd83o52kCnTXe8FJE1dgoiSAJIAs4DhR2aJo4I4kFoS-ekHKeyl2fQNoHVJ_dVDa9iZia3ocgHLcUivhC_G80]--></g></svg>