<?xml version="1.0" encoding="us-ascii" standalone="no"?><svg xmlns="http://www.w3.org/2000/svg" xmlns:xlink="http://www.w3.org/1999/xlink" contentStyleType="text/css" height="801px" preserveAspectRatio="none" style="width:1073px;height:801px;background:#FFFFFF;" version="1.1" viewBox="0 0 1073 801" width="1073px" zoomAndPan="magnify"><defs/><g><text fill="#000000" font-family="sans-serif" font-size="14" font-weight="bold" lengthAdjust="spacing" textLength="469" x="295.25" y="25.1074">Class Diagram / As a new customer I want to know all existing plans</text><!--class PlansRepository--><g id="elem_PlansRepository"><rect codeLine="31" fill="#F1F1F1" height="97.8242" id="PlansRepository" rx="2.5" ry="2.5" style="stroke:#181818;stroke-width:0.5;" width="308" x="492.5" y="386.6211"/><text fill="#000000" font-family="sans-serif" font-size="12" font-style="italic" lengthAdjust="spacing" textLength="61" x="616" y="404.5703">&#171;interface&#187;</text><text fill="#000000" font-family="sans-serif" font-size="14" font-style="italic" lengthAdjust="spacing" textLength="103" x="595" y="422.6895">PlansRepository</text><line style="stroke:#181818;stroke-width:0.5;" x1="493.5" x2="799.5" y1="431.2031" y2="431.2031"/><line style="stroke:#181818;stroke-width:0.5;" x1="493.5" x2="799.5" y1="439.2031" y2="439.2031"/><ellipse cx="503.5" cy="454.0137" fill="#84BE84" rx="3" ry="3" style="stroke:#038048;stroke-width:1.0;"/><text fill="#000000" font-family="sans-serif" font-size="14" lengthAdjust="spacing" textLength="231" x="512.5" y="458.3105">getPlansFromOtherAPI(String name)</text><ellipse cx="503.5" cy="472.6348" fill="#84BE84" rx="3" ry="3" style="stroke:#038048;stroke-width:1.0;"/><text fill="#000000" font-family="sans-serif" font-size="14" lengthAdjust="spacing" textLength="282" x="512.5" y="476.9316">doPlansPatchAPI(name,desiredVersion,json)</text></g><!--class CrudRepository--><g id="elem_CrudRepository"><rect codeLine="39" fill="#F1F1F1" height="79.2031" id="CrudRepository" rx="2.5" ry="2.5" style="stroke:#181818;stroke-width:0.5;" width="150" x="916.5" y="218.1211"/><text fill="#000000" font-family="sans-serif" font-size="12" font-style="italic" lengthAdjust="spacing" textLength="61" x="961" y="236.0703">&#171;interface&#187;</text><text fill="#000000" font-family="sans-serif" font-size="14" font-style="italic" lengthAdjust="spacing" textLength="99" x="942" y="254.1895">CrudRepository</text><line style="stroke:#181818;stroke-width:0.5;" x1="917.5" x2="1065.5" y1="262.7031" y2="262.7031"/><line style="stroke:#181818;stroke-width:0.5;" x1="917.5" x2="1065.5" y1="270.7031" y2="270.7031"/><ellipse cx="927.5" cy="285.5137" fill="#84BE84" rx="3" ry="3" style="stroke:#038048;stroke-width:1.0;"/><text fill="#000000" font-family="sans-serif" font-size="14" lengthAdjust="spacing" textLength="124" x="936.5" y="289.8105">Iterable&lt;T&gt; findAll()</text></g><!--class Plans--><g id="elem_Plans"><rect codeLine="8" fill="#F1F1F1" height="230.832" id="Plans" rx="2.5" ry="2.5" style="stroke:#181818;stroke-width:0.5;" width="184" x="115.5" y="563.6211"/><text fill="#000000" font-family="sans-serif" font-size="14" lengthAdjust="spacing" textLength="35" x="190" y="583.7285">Plans</text><line style="stroke:#181818;stroke-width:0.5;" x1="116.5" x2="298.5" y1="592.2422" y2="592.2422"/><rect fill="none" height="6" style="stroke:#C82930;stroke-width:1.0;" width="6" x="123.5" y="604.0527"/><text fill="#000000" font-family="sans-serif" font-size="14" lengthAdjust="spacing" textLength="35" x="135.5" y="611.3496">name</text><rect fill="none" height="6" style="stroke:#C82930;stroke-width:1.0;" width="6" x="123.5" y="622.6738"/><text fill="#000000" font-family="sans-serif" font-size="14" lengthAdjust="spacing" textLength="69" x="135.5" y="629.9707">description</text><rect fill="none" height="6" style="stroke:#C82930;stroke-width:1.0;" width="6" x="123.5" y="641.2949"/><text fill="#000000" font-family="sans-serif" font-size="14" lengthAdjust="spacing" textLength="112" x="135.5" y="648.5918">numberOfMinutes</text><rect fill="none" height="6" style="stroke:#C82930;stroke-width:1.0;" width="6" x="123.5" y="659.916"/><text fill="#000000" font-family="sans-serif" font-size="14" lengthAdjust="spacing" textLength="158" x="135.5" y="667.2129">maximumNumberOfUsers</text><rect fill="none" height="6" style="stroke:#C82930;stroke-width:1.0;" width="6" x="123.5" y="678.5371"/><text fill="#000000" font-family="sans-serif" font-size="14" lengthAdjust="spacing" textLength="98" x="135.5" y="685.834">musicCollection</text><rect fill="none" height="6" style="stroke:#C82930;stroke-width:1.0;" width="6" x="123.5" y="697.1582"/><text fill="#000000" font-family="sans-serif" font-size="14" lengthAdjust="spacing" textLength="107" x="135.5" y="704.4551">musicSuggestion</text><rect fill="none" height="6" style="stroke:#C82930;stroke-width:1.0;" width="6" x="123.5" y="715.7793"/><text fill="#000000" font-family="sans-serif" font-size="14" lengthAdjust="spacing" textLength="68" x="135.5" y="723.0762">annualFee</text><rect fill="none" height="6" style="stroke:#C82930;stroke-width:1.0;" width="6" x="123.5" y="734.4004"/><text fill="#000000" font-family="sans-serif" font-size="14" lengthAdjust="spacing" textLength="74" x="135.5" y="741.6973">monthlyFee</text><rect fill="none" height="6" style="stroke:#C82930;stroke-width:1.0;" width="6" x="123.5" y="753.0215"/><text fill="#000000" font-family="sans-serif" font-size="14" lengthAdjust="spacing" textLength="37" x="135.5" y="760.3184">active</text><rect fill="none" height="6" style="stroke:#C82930;stroke-width:1.0;" width="6" x="123.5" y="771.6426"/><text fill="#000000" font-family="sans-serif" font-size="14" lengthAdjust="spacing" textLength="60" x="135.5" y="778.9395">promoted</text><line style="stroke:#181818;stroke-width:0.5;" x1="116.5" x2="298.5" y1="786.4531" y2="786.4531"/></g><!--class PlansController--><g id="elem_PlansController"><rect codeLine="21" fill="#F1F1F1" height="81.8633" id="PlansController" rx="2.5" ry="2.5" style="stroke:#181818;stroke-width:0.5;" width="283" x="331" y="46.6211"/><text fill="#000000" font-family="sans-serif" font-size="14" lengthAdjust="spacing" textLength="97" x="424" y="66.7285">PlansController</text><line style="stroke:#181818;stroke-width:0.5;" x1="332" x2="613" y1="75.2422" y2="75.2422"/><line style="stroke:#181818;stroke-width:0.5;" x1="332" x2="613" y1="83.2422" y2="83.2422"/><ellipse cx="342" cy="98.0527" fill="#84BE84" rx="3" ry="3" style="stroke:#038048;stroke-width:1.0;"/><text fill="#000000" font-family="sans-serif" font-size="14" lengthAdjust="spacing" textLength="206" x="351" y="102.3496">findActive() :Iterable&lt;PlansView&gt;</text><ellipse cx="342" cy="116.6738" fill="#84BE84" rx="3" ry="3" style="stroke:#038048;stroke-width:1.0;"/><text fill="#000000" font-family="sans-serif" font-size="14" lengthAdjust="spacing" textLength="257" x="351" y="120.9707">findActiveExternal() :Iterable&lt;PlansView&gt;</text></g><!--class PlansService--><g id="elem_PlansService"><rect codeLine="25" fill="#F1F1F1" height="100.4844" id="PlansService" rx="2.5" ry="2.5" style="stroke:#181818;stroke-width:0.5;" width="482" x="231.5" y="207.6211"/><text fill="#000000" font-family="sans-serif" font-size="14" lengthAdjust="spacing" textLength="82" x="431.5" y="227.7285">PlansService</text><line style="stroke:#181818;stroke-width:0.5;" x1="232.5" x2="712.5" y1="236.2422" y2="236.2422"/><line style="stroke:#181818;stroke-width:0.5;" x1="232.5" x2="712.5" y1="244.2422" y2="244.2422"/><ellipse cx="242.5" cy="259.0527" fill="#84BE84" rx="3" ry="3" style="stroke:#038048;stroke-width:1.0;"/><text fill="#000000" font-family="sans-serif" font-size="14" lengthAdjust="spacing" textLength="170" x="251.5" y="263.3496">findAtive() :Iterable&lt;Plans&gt;</text><ellipse cx="242.5" cy="277.6738" fill="#84BE84" rx="3" ry="3" style="stroke:#038048;stroke-width:1.0;"/><text fill="#000000" font-family="sans-serif" font-size="14" lengthAdjust="spacing" textLength="217" x="251.5" y="281.9707">findAtiveExternal():Iterable&lt;Plans&gt;</text><ellipse cx="242.5" cy="296.2949" fill="#84BE84" rx="3" ry="3" style="stroke:#038048;stroke-width:1.0;"/><text fill="#000000" font-family="sans-serif" font-size="14" lengthAdjust="spacing" textLength="456" x="251.5" y="300.5918">addPlanToIterable(Iterable&lt;Plans&gt; plans, Plans newPlan):Iterable&lt;Plans</text></g><!--class PlansMapperInverse--><g id="elem_PlansMapperInverse"><rect codeLine="36" fill="#F1F1F1" height="63.2422" id="PlansMapperInverse" rx="2.5" ry="2.5" style="stroke:#181818;stroke-width:0.5;" width="231" x="692" y="56.1211"/><text fill="#000000" font-family="sans-serif" font-size="14" lengthAdjust="spacing" textLength="129" x="743" y="76.2285">PlansMapperInverse</text><line style="stroke:#181818;stroke-width:0.5;" x1="693" x2="922" y1="84.7422" y2="84.7422"/><line style="stroke:#181818;stroke-width:0.5;" x1="693" x2="922" y1="92.7422" y2="92.7422"/><ellipse cx="703" cy="107.5527" fill="#84BE84" rx="3" ry="3" style="stroke:#038048;stroke-width:1.0;"/><text fill="#000000" font-family="sans-serif" font-size="14" lengthAdjust="spacing" textLength="205" x="712" y="111.8496">toPlansView(PlanRequest plans)</text></g><!--class PlansViewMapper--><g id="elem_PlansViewMapper"><rect codeLine="44" fill="#F1F1F1" height="63.2422" id="PlansViewMapper" rx="2.5" ry="2.5" style="stroke:#181818;stroke-width:0.5;" width="253" x="7" y="56.1211"/><text fill="#000000" font-family="sans-serif" font-size="14" lengthAdjust="spacing" textLength="112" x="77.5" y="76.2285">PlansViewMapper</text><line style="stroke:#181818;stroke-width:0.5;" x1="8" x2="259" y1="84.7422" y2="84.7422"/><line style="stroke:#181818;stroke-width:0.5;" x1="8" x2="259" y1="92.7422" y2="92.7422"/><ellipse cx="18" cy="107.5527" fill="#84BE84" rx="3" ry="3" style="stroke:#038048;stroke-width:1.0;"/><text fill="#000000" font-family="sans-serif" font-size="14" lengthAdjust="spacing" textLength="227" x="27" y="111.8496">toPlansView(Plans plans):PlansView</text></g><!--reverse link CrudRepository to PlansRepository--><g id="link_CrudRepository_PlansRepository"><path d="M905.6659,305.9468 C872.0059,324.2968 846.77,337.6811 809.5,356.6211 C790.06,366.5011 769.16,376.7611 749.03,386.4711 " fill="none" id="CrudRepository-backto-PlansRepository" style="stroke:#181818;stroke-width:1.0;"/><polygon fill="none" points="921.47,297.3311,902.794,300.6788,908.5378,311.2148,921.47,297.3311" style="stroke:#181818;stroke-width:1.0;"/></g><!--link PlansController to PlansService--><g id="link_PlansController_PlansService"><path codeLine="47" d="M472.5,128.8611 C472.5,152.4511 472.5,176.4311 472.5,201.4111 " fill="none" id="PlansController-to-PlansService" style="stroke:#181818;stroke-width:1.0;stroke-dasharray:7.0,7.0;"/><polygon fill="#181818" points="472.5,207.4111,476.5,198.4111,472.5,202.4111,468.5,198.4111,472.5,207.4111" style="stroke:#181818;stroke-width:1.0;"/><polygon fill="#000000" points="477.5,173.2666,480.4389,164.2215,474.5611,164.2215,477.5,173.2666" style="stroke:#000000;stroke-width:1.0;"/><text fill="#000000" font-family="sans-serif" font-size="13" lengthAdjust="spacing" textLength="28" x="486.5" y="173.6494">uses</text></g><!--link PlansController to Plans--><g id="link_PlansController_Plans"><path codeLine="48" d="M330.89,121.2511 C285.66,139.0311 240.4,166.2411 213.5,207.6211 C145.04,312.9211 155.4833,455.5656 175.6733,557.4156 " fill="none" id="PlansController-to-Plans" style="stroke:#181818;stroke-width:1.0;stroke-dasharray:7.0,7.0;"/><polygon fill="#181818" points="176.84,563.3011,179.0136,553.6951,175.8678,558.3965,171.1663,555.2507,176.84,563.3011" style="stroke:#181818;stroke-width:1.0;"/></g><!--link PlansService to PlansRepository--><g id="link_PlansService_PlansRepository"><path codeLine="49" d="M520.97,307.6511 C545.3,332.2611 570.4627,357.7033 594.6727,382.2033 " fill="none" id="PlansService-to-PlansRepository" style="stroke:#181818;stroke-width:1.0;stroke-dasharray:7.0,7.0;"/><polygon fill="#181818" points="598.89,386.4711,595.4093,377.2578,595.3756,382.9146,589.7188,382.8809,598.89,386.4711" style="stroke:#181818;stroke-width:1.0;"/><polygon fill="#000000" points="573.0152,350.8223,568.7461,342.3238,564.5661,346.4561,573.0152,350.8223" style="stroke:#000000;stroke-width:1.0;"/><text fill="#000000" font-family="sans-serif" font-size="13" lengthAdjust="spacing" textLength="28" x="578.5" y="352.6494">uses</text></g><!--link PlansRepository to PlansController--><g id="link_PlansRepository_PlansController"><path codeLine="50" d="M689.07,386.2611 C725.81,338.3411 767.72,264.1311 731.5,207.6211 C704.79,165.9611 665.0168,140.8793 619.6468,123.1093 " fill="none" id="PlansRepository-to-PlansController" style="stroke:#181818;stroke-width:1.0;stroke-dasharray:7.0,7.0;"/><polygon fill="#181818" points="614.06,120.9211,620.9814,127.9278,618.7156,122.7446,623.8989,120.4788,614.06,120.9211" style="stroke:#181818;stroke-width:1.0;"/><polygon fill="#000000" points="748.2246,252.932,747.6901,262.4275,753.3735,260.9282,748.2246,252.932" style="stroke:#000000;stroke-width:1.0;"/><text fill="#000000" font-family="sans-serif" font-size="13" lengthAdjust="spacing" textLength="83" x="758.5" y="263.1494">HTPP API call</text></g><!--link PlansRepository to Plans--><g id="link_PlansRepository_Plans"><path codeLine="51" d="M559.24,484.6211 C484.1,525.9611 381.2573,582.5396 304.7673,624.6096 " fill="none" id="PlansRepository-to-Plans" style="stroke:#181818;stroke-width:1.0;stroke-dasharray:7.0,7.0;"/><polygon fill="#181818" points="299.51,627.5011,309.3236,626.6686,303.8911,625.0915,305.4682,619.6589,299.51,627.5011" style="stroke:#181818;stroke-width:1.0;"/><polygon fill="#000000" points="505.1191,526.6766,514.4607,524.8919,511.6277,519.7419,505.1191,526.6766" style="stroke:#000000;stroke-width:1.0;"/><text fill="#000000" font-family="sans-serif" font-size="13" lengthAdjust="spacing" textLength="43" x="518.5" y="529.6494">records</text></g><!--link PlansController to PlansMapperInverse--><g id="link_PlansController_PlansMapperInverse"><path codeLine="52" d="M614.08,87.6211 C639.98,87.6211 660.72,87.6211 685.75,87.6211 " fill="none" id="PlansController-to-PlansMapperInverse" style="stroke:#181818;stroke-width:1.0;stroke-dasharray:7.0,7.0;"/><polygon fill="#181818" points="691.75,87.6211,682.75,83.6211,686.75,87.6211,682.75,91.6211,691.75,87.6211" style="stroke:#181818;stroke-width:1.0;"/><polygon fill="#000000" points="641.5,75.2666,632.4549,72.3277,632.4549,78.2055,641.5,75.2666" style="stroke:#000000;stroke-width:1.0;"/><text fill="#000000" font-family="sans-serif" font-size="13" lengthAdjust="spacing" textLength="28" x="645.5" y="80.6494">uses</text></g><!--reverse link PlansViewMapper to PlansController--><g id="link_PlansViewMapper_PlansController"><path codeLine="53" d="M266.21,87.6211 C289.25,87.6211 307.42,87.6211 330.85,87.6211 " fill="none" id="PlansViewMapper-backto-PlansController" style="stroke:#181818;stroke-width:1.0;stroke-dasharray:7.0,7.0;"/><polygon fill="#181818" points="260.21,87.6211,269.21,91.6211,265.21,87.6211,269.21,83.6211,260.21,87.6211" style="stroke:#181818;stroke-width:1.0;"/><polygon fill="#000000" points="277.5,75.2666,286.5451,78.2055,286.5451,72.3277,277.5,75.2666" style="stroke:#000000;stroke-width:1.0;"/><text fill="#000000" font-family="sans-serif" font-size="13" lengthAdjust="spacing" textLength="21" x="291.5" y="80.6494">use</text></g><!--SRC=[VPDDSzem48Rl-XLxAmp4t3sCPnZIJ3cayGIQko8jjbfPSlK1P3BvxvLiWy50EOdTP_VTBtyhdQjjEflLaYhdAvamNSsOfDO-S44BGojI2ex0X64IIUE1FC3s5MjjXTFc0-PpeHoQBMMOPHspD9xVHOWJJY8i6_AnrO4PB2nGKBW7vgtJ5HfOmJxK1Kx37wNtGAK4F0ZhX2eWbcp9UKcV1CBlGT4AsnTmjCo8sWcjEelorJkQb-spKDwXRQqLFOZALpyxto-BvkZnLh2bbXBPAKbdNVkYG7jcfKfvAfyGZvHMhfGVlO667BlZdzheIZlavEkYXsK8Cb7FjDrCjaBnHHCu6aEw2aEaxnBd3VmcS9yDiU-7m2Wg_uT_dKkkqUm4mw3NPhcj5GDxVozoZKqev_6zqKVNQC2qkvksyd7ZyJ7C50TpEfghcyDGWEB3EoEVP085keP-2XD-SIMQHRuQhPs9HnDlOnmOhXiafuwLqHtjqt0jmY1_2ziFMvt-jbgDoSMedcbTercfNK2mMv3Jf-6EukiL__fm5ssFCRvluhhOKykR39hXoZ3ImKd4pAtm7KNRQQKdSyWmk2P8aknYtIbuYnQo-o0vntjpty1bYhFb17QGDOKVcpo7C6fWyIk-6TFcJy4WquRVhis8edJPZMtSwoT996wF4Vqe6ppGv1y0]--></g></svg>