<?xml version="1.0" encoding="us-ascii" standalone="no"?><svg xmlns="http://www.w3.org/2000/svg" xmlns:xlink="http://www.w3.org/1999/xlink" contentStyleType="text/css" height="819px" preserveAspectRatio="none" style="width:924px;height:819px;background:#FFFFFF;" version="1.1" viewBox="0 0 924 819" width="924px" zoomAndPan="magnify"><defs/><g><text fill="#000000" font-family="sans-serif" font-size="14" font-weight="bold" lengthAdjust="spacing" textLength="438" x="236" y="25.1074">Class Diagram / As marketing director, I want to promote a plan</text><!--class PlansRepository--><g id="elem_PlansRepository"><rect codeLine="40" fill="#F1F1F1" height="116.4453" id="PlansRepository" rx="2.5" ry="2.5" style="stroke:#181818;stroke-width:0.5;" width="432" x="180" y="330.6211"/><text fill="#000000" font-family="sans-serif" font-size="12" font-style="italic" lengthAdjust="spacing" textLength="61" x="365.5" y="348.5703">&#171;interface&#187;</text><text fill="#000000" font-family="sans-serif" font-size="14" font-style="italic" lengthAdjust="spacing" textLength="103" x="344.5" y="366.6895">PlansRepository</text><line style="stroke:#181818;stroke-width:0.5;" x1="181" x2="611" y1="375.2031" y2="375.2031"/><line style="stroke:#181818;stroke-width:0.5;" x1="181" x2="611" y1="383.2031" y2="383.2031"/><ellipse cx="191" cy="398.0137" fill="#84BE84" rx="3" ry="3" style="stroke:#038048;stroke-width:1.0;"/><text fill="#000000" font-family="sans-serif" font-size="14" lengthAdjust="spacing" textLength="317" x="200" y="402.3105">findByName_Name(String name): Optional&lt;Plans&gt;</text><ellipse cx="191" cy="416.6348" fill="#84BE84" rx="3" ry="3" style="stroke:#038048;stroke-width:1.0;"/><text fill="#000000" font-family="sans-serif" font-size="14" lengthAdjust="spacing" textLength="406" x="200" y="420.9316">findByPromoted_Promoted(boolean promoted): Optional&lt;Plans&gt;</text><ellipse cx="191" cy="435.2559" fill="#84BE84" rx="3" ry="3" style="stroke:#038048;stroke-width:1.0;"/><text fill="#000000" font-family="sans-serif" font-size="14" lengthAdjust="spacing" textLength="195" x="200" y="439.5527">&lt;S extends T&gt; S save(S entity)</text></g><!--class Plans--><g id="elem_Plans"><rect codeLine="7" fill="#F1F1F1" height="286.6953" id="Plans" rx="2.5" ry="2.5" style="stroke:#181818;stroke-width:0.5;" width="278" x="400" y="525.6211"/><text fill="#000000" font-family="sans-serif" font-size="14" lengthAdjust="spacing" textLength="35" x="521.5" y="545.7285">Plans</text><line style="stroke:#181818;stroke-width:0.5;" x1="401" x2="677" y1="554.2422" y2="554.2422"/><rect fill="none" height="6" style="stroke:#C82930;stroke-width:1.0;" width="6" x="408" y="566.0527"/><text fill="#000000" font-family="sans-serif" font-size="14" lengthAdjust="spacing" textLength="35" x="420" y="573.3496">name</text><rect fill="none" height="6" style="stroke:#C82930;stroke-width:1.0;" width="6" x="408" y="584.6738"/><text fill="#000000" font-family="sans-serif" font-size="14" lengthAdjust="spacing" textLength="69" x="420" y="591.9707">description</text><rect fill="none" height="6" style="stroke:#C82930;stroke-width:1.0;" width="6" x="408" y="603.2949"/><text fill="#000000" font-family="sans-serif" font-size="14" lengthAdjust="spacing" textLength="112" x="420" y="610.5918">numberOfMinutes</text><rect fill="none" height="6" style="stroke:#C82930;stroke-width:1.0;" width="6" x="408" y="621.916"/><text fill="#000000" font-family="sans-serif" font-size="14" lengthAdjust="spacing" textLength="158" x="420" y="629.2129">maximumNumberOfUsers</text><rect fill="none" height="6" style="stroke:#C82930;stroke-width:1.0;" width="6" x="408" y="640.5371"/><text fill="#000000" font-family="sans-serif" font-size="14" lengthAdjust="spacing" textLength="98" x="420" y="647.834">musicCollection</text><rect fill="none" height="6" style="stroke:#C82930;stroke-width:1.0;" width="6" x="408" y="659.1582"/><text fill="#000000" font-family="sans-serif" font-size="14" lengthAdjust="spacing" textLength="107" x="420" y="666.4551">musicSuggestion</text><rect fill="none" height="6" style="stroke:#C82930;stroke-width:1.0;" width="6" x="408" y="677.7793"/><text fill="#000000" font-family="sans-serif" font-size="14" lengthAdjust="spacing" textLength="68" x="420" y="685.0762">annualFee</text><rect fill="none" height="6" style="stroke:#C82930;stroke-width:1.0;" width="6" x="408" y="696.4004"/><text fill="#000000" font-family="sans-serif" font-size="14" lengthAdjust="spacing" textLength="74" x="420" y="703.6973">monthlyFee</text><rect fill="none" height="6" style="stroke:#C82930;stroke-width:1.0;" width="6" x="408" y="715.0215"/><text fill="#000000" font-family="sans-serif" font-size="14" lengthAdjust="spacing" textLength="37" x="420" y="722.3184">active</text><rect fill="none" height="6" style="stroke:#C82930;stroke-width:1.0;" width="6" x="408" y="733.6426"/><text fill="#000000" font-family="sans-serif" font-size="14" lengthAdjust="spacing" textLength="60" x="420" y="740.9395">promoted</text><rect fill="none" height="6" style="stroke:#C82930;stroke-width:1.0;" width="6" x="408" y="752.2637"/><text fill="#000000" font-family="sans-serif" font-size="14" lengthAdjust="spacing" textLength="74" x="420" y="759.5605">feeRevision</text><rect fill="none" height="6" style="stroke:#C82930;stroke-width:1.0;" width="6" x="408" y="770.8848"/><text fill="#000000" font-family="sans-serif" font-size="14" lengthAdjust="spacing" textLength="47" x="420" y="778.1816">deleted</text><line style="stroke:#181818;stroke-width:0.5;" x1="401" x2="677" y1="785.6953" y2="785.6953"/><ellipse cx="411" cy="800.5059" fill="#84BE84" rx="3" ry="3" style="stroke:#038048;stroke-width:1.0;"/><text fill="#000000" font-family="sans-serif" font-size="14" lengthAdjust="spacing" textLength="252" x="420" y="804.8027">promote(final long desiredVersion): void</text></g><!--class PromotionResult--><g id="elem_PromotionResult"><rect codeLine="23" fill="#F1F1F1" height="81.8633" id="PromotionResult" rx="2.5" ry="2.5" style="stroke:#181818;stroke-width:0.5;" width="169" x="747.5" y="347.6211"/><text fill="#000000" font-family="sans-serif" font-size="14" lengthAdjust="spacing" textLength="104" x="780" y="367.7285">PromotionResult</text><line style="stroke:#181818;stroke-width:0.5;" x1="748.5" x2="915.5" y1="376.2422" y2="376.2422"/><rect fill="none" height="6" style="stroke:#C82930;stroke-width:1.0;" width="6" x="755.5" y="388.0527"/><text fill="#000000" font-family="sans-serif" font-size="14" lengthAdjust="spacing" textLength="114" x="767.5" y="395.3496">newPromotedPlan</text><rect fill="none" height="6" style="stroke:#C82930;stroke-width:1.0;" width="6" x="755.5" y="406.6738"/><text fill="#000000" font-family="sans-serif" font-size="14" lengthAdjust="spacing" textLength="143" x="767.5" y="413.9707">previousPromotedPlan</text><line style="stroke:#181818;stroke-width:0.5;" x1="748.5" x2="915.5" y1="421.4844" y2="421.4844"/></g><!--class PlansViewMapper--><g id="elem_PlansViewMapper"><rect codeLine="28" fill="#F1F1F1" height="63.2422" id="PlansViewMapper" rx="2.5" ry="2.5" style="stroke:#181818;stroke-width:0.5;" width="257" x="154.5" y="188.6211"/><text fill="#000000" font-family="sans-serif" font-size="14" lengthAdjust="spacing" textLength="112" x="227" y="208.7285">PlansViewMapper</text><line style="stroke:#181818;stroke-width:0.5;" x1="155.5" x2="410.5" y1="217.2422" y2="217.2422"/><line style="stroke:#181818;stroke-width:0.5;" x1="155.5" x2="410.5" y1="225.2422" y2="225.2422"/><ellipse cx="165.5" cy="240.0527" fill="#84BE84" rx="3" ry="3" style="stroke:#038048;stroke-width:1.0;"/><text fill="#000000" font-family="sans-serif" font-size="14" lengthAdjust="spacing" textLength="231" x="174.5" y="244.3496">toPlansView(Plans plans): PlansView</text></g><!--class PlansController--><g id="elem_PlansController"><rect codeLine="32" fill="#F1F1F1" height="63.2422" id="PlansController" rx="2.5" ry="2.5" style="stroke:#181818;stroke-width:0.5;" width="622" x="7" y="46.6211"/><text fill="#000000" font-family="sans-serif" font-size="14" lengthAdjust="spacing" textLength="97" x="269.5" y="66.7285">PlansController</text><line style="stroke:#181818;stroke-width:0.5;" x1="8" x2="628" y1="75.2422" y2="75.2422"/><line style="stroke:#181818;stroke-width:0.5;" x1="8" x2="628" y1="83.2422" y2="83.2422"/><ellipse cx="18" cy="98.0527" fill="#84BE84" rx="3" ry="3" style="stroke:#038048;stroke-width:1.0;"/><text fill="#000000" font-family="sans-serif" font-size="14" lengthAdjust="spacing" textLength="596" x="27" y="102.3496">promote(final WebRequest request, final String name): ResponseEntity&lt;PromotionResultView&gt;</text></g><!--class PlansService--><g id="elem_PlansService"><rect codeLine="36" fill="#F1F1F1" height="63.2422" id="PlansService" rx="2.5" ry="2.5" style="stroke:#181818;stroke-width:0.5;" width="470" x="447" y="188.6211"/><text fill="#000000" font-family="sans-serif" font-size="14" lengthAdjust="spacing" textLength="82" x="641" y="208.7285">PlansService</text><line style="stroke:#181818;stroke-width:0.5;" x1="448" x2="916" y1="217.2422" y2="217.2422"/><line style="stroke:#181818;stroke-width:0.5;" x1="448" x2="916" y1="225.2422" y2="225.2422"/><ellipse cx="458" cy="240.0527" fill="#84BE84" rx="3" ry="3" style="stroke:#038048;stroke-width:1.0;"/><text fill="#000000" font-family="sans-serif" font-size="14" lengthAdjust="spacing" textLength="444" x="467" y="244.3496">promote(final String name, final long desiredVersion): PromotionResult</text></g><!--link PlansController to PlansService--><g id="link_PlansController_PlansService"><path codeLine="46" d="M397.43,109.6711 C456.66,132.4511 537.4,163.5011 597.75,186.7211 " fill="none" id="PlansController-to-PlansService" style="stroke:#181818;stroke-width:1.0;"/><polygon fill="#181818" points="602.42,188.5111,595.4673,181.5355,597.7562,186.7085,592.5832,188.9975,602.42,188.5111" style="stroke:#181818;stroke-width:1.0;"/><text fill="#000000" font-family="sans-serif" font-size="13" lengthAdjust="spacing" textLength="28" x="523" y="154.6494">uses</text></g><!--link PlansService to PlansRepository--><g id="link_PlansService_PlansRepository"><path codeLine="47" d="M629.54,251.6611 C592.98,272.9411 543.01,302.0411 498.67,327.8511 " fill="none" id="PlansService-to-PlansRepository" style="stroke:#181818;stroke-width:1.0;"/><polygon fill="#181818" points="494.12,330.5011,503.9099,329.4254,498.4399,327.9835,499.8818,322.5135,494.12,330.5011" style="stroke:#181818;stroke-width:1.0;"/><text fill="#000000" font-family="sans-serif" font-size="13" lengthAdjust="spacing" textLength="28" x="575" y="296.6494">uses</text></g><!--link PlansRepository to Plans--><g id="link_PlansRepository_Plans"><path codeLine="48" d="M425.28,446.6511 C436.48,468.4611 449.84,494.4711 463.39,520.8611 " fill="none" id="PlansRepository-to-Plans" style="stroke:#181818;stroke-width:1.0;"/><polygon fill="#181818" points="465.74,525.4511,465.1796,515.6182,463.4526,521.005,458.0658,519.278,465.74,525.4511" style="stroke:#181818;stroke-width:1.0;"/><text fill="#000000" font-family="sans-serif" font-size="13" lengthAdjust="spacing" textLength="50" x="448" y="491.6494">&#171;record&#187;</text></g><!--link PlansService to Plans--><g id="link_PlansService_Plans"><path codeLine="49" d="M676.36,251.8011 C667.96,295.5711 650.79,378.2211 629,446.6211 C621.29,470.8111 612.13,496.0911 602.65,520.5611 " fill="none" id="PlansService-to-Plans" style="stroke:#181818;stroke-width:1.0;"/><polygon fill="#181818" points="600.75,525.4411,607.7441,518.507,602.565,520.7821,600.2898,515.603,600.75,525.4411" style="stroke:#181818;stroke-width:1.0;"/><text fill="#000000" font-family="sans-serif" font-size="13" lengthAdjust="spacing" textLength="28" x="661" y="394.1494">uses</text></g><!--link PlansService to PromotionResult--><g id="link_PlansService_PromotionResult"><path codeLine="50" d="M709.51,251.6611 C732.74,277.4411 766.3,314.6911 792.42,343.6811 " fill="none" id="PlansService-to-PromotionResult" style="stroke:#181818;stroke-width:1.0;"/><polygon fill="#181818" points="795.89,347.5411,792.8425,338.1756,792.5452,343.8246,786.8961,343.5273,795.89,347.5411" style="stroke:#181818;stroke-width:1.0;"/><text fill="#000000" font-family="sans-serif" font-size="13" lengthAdjust="spacing" textLength="28" x="753" y="296.6494">uses</text></g><!--link PlansController to PlansViewMapper--><g id="link_PlansController_PlansViewMapper"><path codeLine="51" d="M310.32,109.8411 C304.89,131.5411 297.61,160.6911 291.92,183.4311 " fill="none" id="PlansController-to-PlansViewMapper" style="stroke:#181818;stroke-width:1.0;"/><polygon fill="#181818" points="290.66,188.4711,296.7288,180.7142,291.876,183.6212,288.969,178.7685,290.66,188.4711" style="stroke:#181818;stroke-width:1.0;"/><text fill="#000000" font-family="sans-serif" font-size="13" lengthAdjust="spacing" textLength="28" x="304" y="154.6494">uses</text></g><!--SRC=[TLF9Rjim4BthA-PM1udhko48QDqMw24Bh3Oz1hGujeboKRd8COhyUuTQQ4brT90elfdtPXw77uxUrswzMjMIQH-K_5WPjQeaSsx91JjOfhAZu0YLi9N4h4NWYOBT5clZX3Vs37akj4UxPnKMHPPvuIN2fWtzqf702ZuvKCp-HY_q0RYmM57k7No74oc3Dr1Reun7O12BoSPQy3S3UfQQAUnM75rbHUs5qJqKr0xju_vUwE3HTPkAlGeLr4EF_NHe1oGuKMsCb5H6ucWtot0ueBjiCgq3az-m5rP6-wCyftz6-Ks_xZlWtTyUSOkDS8c9eyG1lUrZ5tkXcGHfeYdeo1R-J4LIpiqQ6YDuzfQSQ3C8sQ8BqYTFyFJKwqQlXaf8sGGtGTucdZuBFDspkaRRCzrwau15Ptiy24U5fFqPnuRCiD74n35jwnVkjlWda9rWk-yTT4ZfRPo3UA34JntLHZlygcbsplciqoXSp9HBj8seyBhiY7pGksxmJ2Xgf4d-RyfxAUBZdyyFnFqINujf9u_jI3APjzd5E6KuYvTXiTWP8v7fOVBvU_bv2VZgKNC7FmeemR66T05RjsvYrVFJM2wBYKzh28uknSIw57FfSHmswZn5hkcgqyKrbjCzlqxshjBKwd7OjRelqzb7_WC0]--></g></svg>