<?xml version="1.0" encoding="us-ascii" standalone="no"?><svg xmlns="http://www.w3.org/2000/svg" xmlns:xlink="http://www.w3.org/1999/xlink" contentStyleType="text/css" height="1046px" preserveAspectRatio="none" style="width:1950px;height:1046px;background:#FFFFFF;" version="1.1" viewBox="0 0 1950 1046" width="1950px" zoomAndPan="magnify"><defs/><g><rect fill="#FFFFFF" height="861.1484" style="stroke:#181818;stroke-width:1.0;" width="10" x="61" y="93.6211"/><rect fill="#FFFFFF" height="828.8574" style="stroke:#181818;stroke-width:1.0;" width="10" x="281" y="116.9121"/><rect fill="#FFFFFF" height="515.9473" style="stroke:#181818;stroke-width:1.0;" width="10" x="774" y="148.2031"/><rect fill="#FFFFFF" height="42.9365" style="stroke:#181818;stroke-width:1.0;" width="10" x="1255" y="179.4941"/><rect fill="#FFFFFF" height="31.291" style="stroke:#181818;stroke-width:1.0;" width="10" x="1255" y="327.9492"/><rect fill="#FFFFFF" height="42.9365" style="stroke:#181818;stroke-width:1.0;" width="10" x="1255" y="453.1133"/><rect fill="#FFFFFF" height="31.291" style="stroke:#181818;stroke-width:1.0;" width="10" x="1255" y="538.9863"/><rect fill="#FFFFFF" height="31.291" style="stroke:#181818;stroke-width:1.0;" width="10" x="1352" y="265.3672"/><rect fill="#FFFFFF" height="31.291" style="stroke:#181818;stroke-width:1.0;" width="10" x="1596" y="820.6055"/><rect fill="#FFFFFF" height="31.291" style="stroke:#181818;stroke-width:1.0;" width="10" x="1596" y="883.1875"/><rect fill="#FFFFFF" height="31.291" style="stroke:#181818;stroke-width:1.0;" width="10" x="1746.5" y="695.4414"/><rect fill="#FFFFFF" height="31.291" style="stroke:#181818;stroke-width:1.0;" width="10" x="1746.5" y="758.0234"/><rect fill="#FFFFFF" height="31.291" style="stroke:#181818;stroke-width:1.0;" width="10" x="1880.5" y="390.5313"/><rect fill="#FFFFFF" height="31.291" style="stroke:#181818;stroke-width:1.0;" width="10" x="1880.5" y="601.5684"/><line style="stroke:#181818;stroke-width:0.5;stroke-dasharray:5.0,5.0;" x1="66" x2="66" y1="83.6211" y2="963.7695"/><line style="stroke:#181818;stroke-width:0.5;stroke-dasharray:5.0,5.0;" x1="286" x2="286" y1="83.6211" y2="963.7695"/><line style="stroke:#181818;stroke-width:0.5;stroke-dasharray:5.0,5.0;" x1="779" x2="779" y1="83.6211" y2="963.7695"/><line style="stroke:#181818;stroke-width:0.5;stroke-dasharray:5.0,5.0;" x1="1259.5" x2="1259.5" y1="83.6211" y2="963.7695"/><line style="stroke:#181818;stroke-width:0.5;stroke-dasharray:5.0,5.0;" x1="1356.5" x2="1356.5" y1="83.6211" y2="963.7695"/><line style="stroke:#181818;stroke-width:0.5;stroke-dasharray:5.0,5.0;" x1="1454.5" x2="1454.5" y1="83.6211" y2="963.7695"/><line style="stroke:#181818;stroke-width:0.5;stroke-dasharray:5.0,5.0;" x1="1600.5" x2="1600.5" y1="83.6211" y2="963.7695"/><line style="stroke:#181818;stroke-width:0.5;stroke-dasharray:5.0,5.0;" x1="1751.5" x2="1751.5" y1="83.6211" y2="963.7695"/><line style="stroke:#181818;stroke-width:0.5;stroke-dasharray:5.0,5.0;" x1="1885.5" x2="1885.5" y1="83.6211" y2="963.7695"/><text fill="#000000" font-family="sans-serif" font-size="14" lengthAdjust="spacing" textLength="116" x="5" y="80.1074">Marketing Director</text><ellipse cx="66" cy="13.5" fill="#E2E2F0" rx="8" ry="8" style="stroke:#181818;stroke-width:0.5;"/><path d="M66,21.5 L66,48.5 M53,29.5 L79,29.5 M66,48.5 L53,63.5 M66,48.5 L79,63.5 " fill="none" style="stroke:#181818;stroke-width:0.5;"/><text fill="#000000" font-family="sans-serif" font-size="14" lengthAdjust="spacing" textLength="116" x="5" y="977.877">Marketing Director</text><ellipse cx="66" cy="989.8906" fill="#E2E2F0" rx="8" ry="8" style="stroke:#181818;stroke-width:0.5;"/><path d="M66,997.8906 L66,1024.8906 M53,1005.8906 L79,1005.8906 M66,1024.8906 L53,1039.8906 M66,1024.8906 L79,1039.8906 " fill="none" style="stroke:#181818;stroke-width:0.5;"/><rect fill="#E2E2F0" height="32.6211" rx="2.5" ry="2.5" style="stroke:#181818;stroke-width:0.5;" width="108" x="232" y="50"/><text fill="#000000" font-family="sans-serif" font-size="14" lengthAdjust="spacing" textLength="94" x="239" y="72.1074">:PlanController</text><rect fill="#E2E2F0" height="32.6211" rx="2.5" ry="2.5" style="stroke:#181818;stroke-width:0.5;" width="108" x="232" y="962.7695"/><text fill="#000000" font-family="sans-serif" font-size="14" lengthAdjust="spacing" textLength="94" x="239" y="984.877">:PlanController</text><rect fill="#E2E2F0" height="32.6211" rx="2.5" ry="2.5" style="stroke:#181818;stroke-width:0.5;" width="100" x="729" y="50"/><text fill="#000000" font-family="sans-serif" font-size="14" lengthAdjust="spacing" textLength="86" x="736" y="72.1074">:PlansService</text><rect fill="#E2E2F0" height="32.6211" rx="2.5" ry="2.5" style="stroke:#181818;stroke-width:0.5;" width="100" x="729" y="962.7695"/><text fill="#000000" font-family="sans-serif" font-size="14" lengthAdjust="spacing" textLength="86" x="736" y="984.877">:PlansService</text><rect fill="#E2E2F0" height="32.6211" rx="2.5" ry="2.5" style="stroke:#181818;stroke-width:0.5;" width="121" x="1199.5" y="50"/><text fill="#000000" font-family="sans-serif" font-size="14" lengthAdjust="spacing" textLength="107" x="1206.5" y="72.1074">:PlansRepository</text><rect fill="#E2E2F0" height="32.6211" rx="2.5" ry="2.5" style="stroke:#181818;stroke-width:0.5;" width="121" x="1199.5" y="962.7695"/><text fill="#000000" font-family="sans-serif" font-size="14" lengthAdjust="spacing" textLength="107" x="1206.5" y="984.877">:PlansRepository</text><rect fill="#E2E2F0" height="32.6211" rx="2.5" ry="2.5" style="stroke:#181818;stroke-width:0.5;" width="53" x="1330.5" y="50"/><text fill="#000000" font-family="sans-serif" font-size="14" lengthAdjust="spacing" textLength="39" x="1337.5" y="72.1074">:Plans</text><rect fill="#E2E2F0" height="32.6211" rx="2.5" ry="2.5" style="stroke:#181818;stroke-width:0.5;" width="53" x="1330.5" y="962.7695"/><text fill="#000000" font-family="sans-serif" font-size="14" lengthAdjust="spacing" textLength="39" x="1337.5" y="984.877">:Plans</text><rect fill="#E2E2F0" height="32.6211" rx="2.5" ry="2.5" style="stroke:#181818;stroke-width:0.5;" width="122" x="1393.5" y="50"/><text fill="#000000" font-family="sans-serif" font-size="14" lengthAdjust="spacing" textLength="108" x="1400.5" y="72.1074">:PromotionResult</text><rect fill="#E2E2F0" height="32.6211" rx="2.5" ry="2.5" style="stroke:#181818;stroke-width:0.5;" width="122" x="1393.5" y="962.7695"/><text fill="#000000" font-family="sans-serif" font-size="14" lengthAdjust="spacing" textLength="108" x="1400.5" y="984.877">:PromotionResult</text><rect fill="#E2E2F0" height="32.6211" rx="2.5" ry="2.5" style="stroke:#181818;stroke-width:0.5;" width="151" x="1525.5" y="50"/><text fill="#000000" font-family="sans-serif" font-size="14" lengthAdjust="spacing" textLength="137" x="1532.5" y="72.1074">:PromotionResultView</text><rect fill="#E2E2F0" height="32.6211" rx="2.5" ry="2.5" style="stroke:#181818;stroke-width:0.5;" width="151" x="1525.5" y="962.7695"/><text fill="#000000" font-family="sans-serif" font-size="14" lengthAdjust="spacing" textLength="137" x="1532.5" y="984.877">:PromotionResultView</text><rect fill="#E2E2F0" height="32.6211" rx="2.5" ry="2.5" style="stroke:#181818;stroke-width:0.5;" width="130" x="1686.5" y="50"/><text fill="#000000" font-family="sans-serif" font-size="14" lengthAdjust="spacing" textLength="116" x="1693.5" y="72.1074">:PlansViewMapper</text><rect fill="#E2E2F0" height="32.6211" rx="2.5" ry="2.5" style="stroke:#181818;stroke-width:0.5;" width="130" x="1686.5" y="962.7695"/><text fill="#000000" font-family="sans-serif" font-size="14" lengthAdjust="spacing" textLength="116" x="1693.5" y="984.877">:PlansViewMapper</text><rect fill="#E2E2F0" height="32.6211" rx="2.5" ry="2.5" style="stroke:#181818;stroke-width:0.5;" width="118" x="1826.5" y="50"/><text fill="#000000" font-family="sans-serif" font-size="14" lengthAdjust="spacing" textLength="104" x="1833.5" y="72.1074">PromotionResult</text><rect fill="#E2E2F0" height="32.6211" rx="2.5" ry="2.5" style="stroke:#181818;stroke-width:0.5;" width="118" x="1826.5" y="962.7695"/><text fill="#000000" font-family="sans-serif" font-size="14" lengthAdjust="spacing" textLength="104" x="1833.5" y="984.877">PromotionResult</text><rect fill="#FFFFFF" height="861.1484" style="stroke:#181818;stroke-width:1.0;" width="10" x="61" y="93.6211"/><rect fill="#FFFFFF" height="828.8574" style="stroke:#181818;stroke-width:1.0;" width="10" x="281" y="116.9121"/><rect fill="#FFFFFF" height="515.9473" style="stroke:#181818;stroke-width:1.0;" width="10" x="774" y="148.2031"/><rect fill="#FFFFFF" height="42.9365" style="stroke:#181818;stroke-width:1.0;" width="10" x="1255" y="179.4941"/><rect fill="#FFFFFF" height="31.291" style="stroke:#181818;stroke-width:1.0;" width="10" x="1255" y="327.9492"/><rect fill="#FFFFFF" height="42.9365" style="stroke:#181818;stroke-width:1.0;" width="10" x="1255" y="453.1133"/><rect fill="#FFFFFF" height="31.291" style="stroke:#181818;stroke-width:1.0;" width="10" x="1255" y="538.9863"/><rect fill="#FFFFFF" height="31.291" style="stroke:#181818;stroke-width:1.0;" width="10" x="1352" y="265.3672"/><rect fill="#FFFFFF" height="31.291" style="stroke:#181818;stroke-width:1.0;" width="10" x="1596" y="820.6055"/><rect fill="#FFFFFF" height="31.291" style="stroke:#181818;stroke-width:1.0;" width="10" x="1596" y="883.1875"/><rect fill="#FFFFFF" height="31.291" style="stroke:#181818;stroke-width:1.0;" width="10" x="1746.5" y="695.4414"/><rect fill="#FFFFFF" height="31.291" style="stroke:#181818;stroke-width:1.0;" width="10" x="1746.5" y="758.0234"/><rect fill="#FFFFFF" height="31.291" style="stroke:#181818;stroke-width:1.0;" width="10" x="1880.5" y="390.5313"/><rect fill="#FFFFFF" height="31.291" style="stroke:#181818;stroke-width:1.0;" width="10" x="1880.5" y="601.5684"/><polygon fill="#181818" points="269,112.9121,279,116.9121,269,120.9121,273,116.9121" style="stroke:#181818;stroke-width:1.0;"/><line style="stroke:#181818;stroke-width:1.0;" x1="71" x2="275" y1="116.9121" y2="116.9121"/><text fill="#000000" font-family="sans-serif" font-size="13" font-weight="bold" lengthAdjust="spacing" textLength="7" x="78" y="111.6494">1</text><text fill="#000000" font-family="sans-serif" font-size="13" lengthAdjust="spacing" textLength="180" x="89" y="111.6494">PATCH /plans/promote?name=</text><polygon fill="#181818" points="762,144.2031,772,148.2031,762,152.2031,766,148.2031" style="stroke:#181818;stroke-width:1.0;"/><line style="stroke:#181818;stroke-width:1.0;" x1="291" x2="768" y1="148.2031" y2="148.2031"/><text fill="#000000" font-family="sans-serif" font-size="13" font-weight="bold" lengthAdjust="spacing" textLength="7" x="298" y="142.9404">2</text><text fill="#000000" font-family="sans-serif" font-size="13" lengthAdjust="spacing" textLength="453" x="309" y="142.9404">PromotionResult promote(name, getVersionFromIfMatchHeader(ifMatchValue))</text><polygon fill="#181818" points="1243,175.4941,1253,179.4941,1243,183.4941,1247,179.4941" style="stroke:#181818;stroke-width:1.0;"/><line style="stroke:#181818;stroke-width:1.0;" x1="784" x2="1249" y1="179.4941" y2="179.4941"/><text fill="#000000" font-family="sans-serif" font-size="13" font-weight="bold" lengthAdjust="spacing" textLength="7" x="791" y="174.2314">3</text><text fill="#000000" font-family="sans-serif" font-size="13" lengthAdjust="spacing" textLength="228" x="802" y="174.2314">Plans plan = findByName_Name(name)</text><polygon fill="#181818" points="795,218.4307,785,222.4307,795,226.4307,791,222.4307" style="stroke:#181818;stroke-width:1.0;"/><line style="stroke:#181818;stroke-width:1.0;stroke-dasharray:2.0,2.0;" x1="789" x2="1259" y1="222.4307" y2="222.4307"/><text fill="#000000" font-family="sans-serif" font-size="13" font-weight="bold" lengthAdjust="spacing" textLength="7" x="801" y="217.168">4</text><text fill="#000000" font-family="sans-serif" font-size="13" lengthAdjust="spacing" textLength="24" x="812" y="217.168">plan</text><path d="M1270,192.4941 L1270,236.4941 L1560,236.4941 L1560,202.4941 L1550,192.4941 L1270,192.4941 " fill="#FEFFDD" style="stroke:#181818;stroke-width:0.5;"/><path d="M1550,192.4941 L1550,202.4941 L1560,202.4941 L1550,192.4941 " fill="#FEFFDD" style="stroke:#181818;stroke-width:0.5;"/><text fill="#000000" font-family="sans-serif" font-size="13" lengthAdjust="spacing" textLength="158" x="1276" y="211.5225">3. Finds a plan by its name</text><text fill="#000000" font-family="sans-serif" font-size="13" lengthAdjust="spacing" textLength="269" x="1276" y="228.8135">If it doesn't exist, it throws NotFoundException</text><polygon fill="#181818" points="1340,261.3672,1350,265.3672,1340,269.3672,1344,265.3672" style="stroke:#181818;stroke-width:1.0;"/><line style="stroke:#181818;stroke-width:1.0;" x1="784" x2="1346" y1="265.3672" y2="265.3672"/><text fill="#000000" font-family="sans-serif" font-size="13" font-weight="bold" lengthAdjust="spacing" textLength="7" x="791" y="260.1045">5</text><text fill="#000000" font-family="sans-serif" font-size="13" lengthAdjust="spacing" textLength="169" x="802" y="260.1045">plan.promote(desiredVersion)</text><polygon fill="#181818" points="795,292.6582,785,296.6582,795,300.6582,791,296.6582" style="stroke:#181818;stroke-width:1.0;"/><line style="stroke:#181818;stroke-width:1.0;stroke-dasharray:2.0,2.0;" x1="789" x2="1356" y1="296.6582" y2="296.6582"/><text fill="#000000" font-family="sans-serif" font-size="13" font-weight="bold" lengthAdjust="spacing" textLength="7" x="801" y="291.3955">6</text><text fill="#000000" font-family="sans-serif" font-size="13" lengthAdjust="spacing" textLength="76" x="812" y="291.3955">Updated plan</text><polygon fill="#181818" points="1243,323.9492,1253,327.9492,1243,331.9492,1247,327.9492" style="stroke:#181818;stroke-width:1.0;"/><line style="stroke:#181818;stroke-width:1.0;" x1="784" x2="1249" y1="327.9492" y2="327.9492"/><text fill="#000000" font-family="sans-serif" font-size="13" font-weight="bold" lengthAdjust="spacing" textLength="7" x="791" y="322.6865">7</text><text fill="#000000" font-family="sans-serif" font-size="13" lengthAdjust="spacing" textLength="119" x="802" y="322.6865">repository.save(plan)</text><polygon fill="#181818" points="795,355.2402,785,359.2402,795,363.2402,791,359.2402" style="stroke:#181818;stroke-width:1.0;"/><line style="stroke:#181818;stroke-width:1.0;stroke-dasharray:2.0,2.0;" x1="789" x2="1259" y1="359.2402" y2="359.2402"/><text fill="#000000" font-family="sans-serif" font-size="13" font-weight="bold" lengthAdjust="spacing" textLength="7" x="801" y="353.9775">8</text><text fill="#000000" font-family="sans-serif" font-size="13" lengthAdjust="spacing" textLength="63" x="812" y="353.9775">Saved plan</text><polygon fill="#181818" points="1868.5,386.5313,1878.5,390.5313,1868.5,394.5313,1872.5,390.5313" style="stroke:#181818;stroke-width:1.0;"/><line style="stroke:#181818;stroke-width:1.0;" x1="784" x2="1874.5" y1="390.5313" y2="390.5313"/><text fill="#000000" font-family="sans-serif" font-size="13" font-weight="bold" lengthAdjust="spacing" textLength="7" x="791" y="385.2686">9</text><text fill="#000000" font-family="sans-serif" font-size="13" lengthAdjust="spacing" textLength="228" x="802" y="385.2686">result.setNewPromotedPlan(savedPlan)</text><polygon fill="#181818" points="795,417.8223,785,421.8223,795,425.8223,791,421.8223" style="stroke:#181818;stroke-width:1.0;"/><line style="stroke:#181818;stroke-width:1.0;stroke-dasharray:2.0,2.0;" x1="789" x2="1884.5" y1="421.8223" y2="421.8223"/><text fill="#000000" font-family="sans-serif" font-size="13" font-weight="bold" lengthAdjust="spacing" textLength="14" x="801" y="416.5596">10</text><text fill="#000000" font-family="sans-serif" font-size="13" lengthAdjust="spacing" textLength="82" x="819" y="416.5596">updated result</text><polygon fill="#181818" points="1243,449.1133,1253,453.1133,1243,457.1133,1247,453.1133" style="stroke:#181818;stroke-width:1.0;"/><line style="stroke:#181818;stroke-width:1.0;" x1="784" x2="1249" y1="453.1133" y2="453.1133"/><text fill="#000000" font-family="sans-serif" font-size="13" font-weight="bold" lengthAdjust="spacing" textLength="14" x="791" y="447.8506">11</text><text fill="#000000" font-family="sans-serif" font-size="13" lengthAdjust="spacing" textLength="434" x="809" y="447.8506">Optional&lt;Plans&gt; existingPlan = repository.findByPromoted_Promoted(true)</text><polygon fill="#181818" points="795,492.0498,785,496.0498,795,500.0498,791,496.0498" style="stroke:#181818;stroke-width:1.0;"/><line style="stroke:#181818;stroke-width:1.0;stroke-dasharray:2.0,2.0;" x1="789" x2="1259" y1="496.0498" y2="496.0498"/><text fill="#000000" font-family="sans-serif" font-size="13" font-weight="bold" lengthAdjust="spacing" textLength="14" x="801" y="490.7871">12</text><text fill="#000000" font-family="sans-serif" font-size="13" lengthAdjust="spacing" textLength="71" x="819" y="490.7871">existingPlan</text><path d="M1270,466.1133 L1270,510.1133 L1553,510.1133 L1553,476.1133 L1543,466.1133 L1270,466.1133 " fill="#FEFFDD" style="stroke:#181818;stroke-width:0.5;"/><path d="M1543,466.1133 L1543,476.1133 L1553,476.1133 L1543,466.1133 " fill="#FEFFDD" style="stroke:#181818;stroke-width:0.5;"/><text fill="#000000" font-family="sans-serif" font-size="13" lengthAdjust="spacing" textLength="262" x="1276" y="485.1416">8. Checks if another plan is already promoted</text><text fill="#000000" font-family="sans-serif" font-size="13" lengthAdjust="spacing" textLength="207" x="1276" y="502.4326">If it exists, set its promotion to false</text><polygon fill="#181818" points="1243,534.9863,1253,538.9863,1243,542.9863,1247,538.9863" style="stroke:#181818;stroke-width:1.0;"/><line style="stroke:#181818;stroke-width:1.0;" x1="784" x2="1249" y1="538.9863" y2="538.9863"/><text fill="#000000" font-family="sans-serif" font-size="13" font-weight="bold" lengthAdjust="spacing" textLength="14" x="791" y="533.7236">13</text><text fill="#000000" font-family="sans-serif" font-size="13" lengthAdjust="spacing" textLength="222" x="809" y="533.7236">repository.save(existingPromotedPlan)</text><polygon fill="#181818" points="795,566.2773,785,570.2773,795,574.2773,791,570.2773" style="stroke:#181818;stroke-width:1.0;"/><line style="stroke:#181818;stroke-width:1.0;stroke-dasharray:2.0,2.0;" x1="789" x2="1259" y1="570.2773" y2="570.2773"/><text fill="#000000" font-family="sans-serif" font-size="13" font-weight="bold" lengthAdjust="spacing" textLength="14" x="801" y="565.0146">14</text><text fill="#000000" font-family="sans-serif" font-size="13" lengthAdjust="spacing" textLength="166" x="819" y="565.0146">Saved existingPromotedPlan</text><polygon fill="#181818" points="1868.5,597.5684,1878.5,601.5684,1868.5,605.5684,1872.5,601.5684" style="stroke:#181818;stroke-width:1.0;"/><line style="stroke:#181818;stroke-width:1.0;" x1="784" x2="1874.5" y1="601.5684" y2="601.5684"/><text fill="#000000" font-family="sans-serif" font-size="13" font-weight="bold" lengthAdjust="spacing" textLength="14" x="791" y="596.3057">15</text><text fill="#000000" font-family="sans-serif" font-size="13" lengthAdjust="spacing" textLength="355" x="809" y="596.3057">result.setPreviousPromotedPlan(savedExistingPromotedPlan)</text><polygon fill="#181818" points="795,628.8594,785,632.8594,795,636.8594,791,632.8594" style="stroke:#181818;stroke-width:1.0;"/><line style="stroke:#181818;stroke-width:1.0;stroke-dasharray:2.0,2.0;" x1="789" x2="1884.5" y1="632.8594" y2="632.8594"/><text fill="#000000" font-family="sans-serif" font-size="13" font-weight="bold" lengthAdjust="spacing" textLength="14" x="801" y="627.5967">16</text><text fill="#000000" font-family="sans-serif" font-size="13" lengthAdjust="spacing" textLength="82" x="819" y="627.5967">updated result</text><polygon fill="#181818" points="302,660.1504,292,664.1504,302,668.1504,298,664.1504" style="stroke:#181818;stroke-width:1.0;"/><line style="stroke:#181818;stroke-width:1.0;stroke-dasharray:2.0,2.0;" x1="296" x2="778" y1="664.1504" y2="664.1504"/><text fill="#000000" font-family="sans-serif" font-size="13" font-weight="bold" lengthAdjust="spacing" textLength="14" x="308" y="658.8877">17</text><text fill="#000000" font-family="sans-serif" font-size="13" lengthAdjust="spacing" textLength="32" x="326" y="658.8877">result</text><polygon fill="#181818" points="1734.5,691.4414,1744.5,695.4414,1734.5,699.4414,1738.5,695.4414" style="stroke:#181818;stroke-width:1.0;"/><line style="stroke:#181818;stroke-width:1.0;" x1="291" x2="1740.5" y1="695.4414" y2="695.4414"/><text fill="#000000" font-family="sans-serif" font-size="13" font-weight="bold" lengthAdjust="spacing" textLength="14" x="298" y="690.1787">18</text><text fill="#000000" font-family="sans-serif" font-size="13" lengthAdjust="spacing" textLength="355" x="316" y="690.1787">plansViewMapper.toPlansView(result.getNewPromotedPlan())</text><polygon fill="#181818" points="302,722.7324,292,726.7324,302,730.7324,298,726.7324" style="stroke:#181818;stroke-width:1.0;"/><line style="stroke:#181818;stroke-width:1.0;stroke-dasharray:2.0,2.0;" x1="296" x2="1750.5" y1="726.7324" y2="726.7324"/><text fill="#000000" font-family="sans-serif" font-size="13" font-weight="bold" lengthAdjust="spacing" textLength="14" x="308" y="721.4697">19</text><text fill="#000000" font-family="sans-serif" font-size="13" lengthAdjust="spacing" textLength="133" x="326" y="721.4697">newPromotedPlanView</text><polygon fill="#181818" points="1734.5,754.0234,1744.5,758.0234,1734.5,762.0234,1738.5,758.0234" style="stroke:#181818;stroke-width:1.0;"/><line style="stroke:#181818;stroke-width:1.0;" x1="291" x2="1740.5" y1="758.0234" y2="758.0234"/><text fill="#000000" font-family="sans-serif" font-size="13" font-weight="bold" lengthAdjust="spacing" textLength="14" x="298" y="752.7607">20</text><text fill="#000000" font-family="sans-serif" font-size="13" lengthAdjust="spacing" textLength="379" x="316" y="752.7607">plansViewMapper.toPlansView(result.getPreviousPromotedPlan())</text><polygon fill="#181818" points="302,785.3145,292,789.3145,302,793.3145,298,789.3145" style="stroke:#181818;stroke-width:1.0;"/><line style="stroke:#181818;stroke-width:1.0;stroke-dasharray:2.0,2.0;" x1="296" x2="1750.5" y1="789.3145" y2="789.3145"/><text fill="#000000" font-family="sans-serif" font-size="13" font-weight="bold" lengthAdjust="spacing" textLength="14" x="308" y="784.0518">21</text><text fill="#000000" font-family="sans-serif" font-size="13" lengthAdjust="spacing" textLength="157" x="326" y="784.0518">previousPromotedPlanView</text><polygon fill="#181818" points="1584,816.6055,1594,820.6055,1584,824.6055,1588,820.6055" style="stroke:#181818;stroke-width:1.0;"/><line style="stroke:#181818;stroke-width:1.0;" x1="291" x2="1590" y1="820.6055" y2="820.6055"/><text fill="#000000" font-family="sans-serif" font-size="13" font-weight="bold" lengthAdjust="spacing" textLength="14" x="298" y="815.3428">22</text><text fill="#000000" font-family="sans-serif" font-size="13" lengthAdjust="spacing" textLength="330" x="316" y="815.3428">resultView.setNewPromotedPlan(newPromotedPlanView)</text><polygon fill="#181818" points="302,847.8965,292,851.8965,302,855.8965,298,851.8965" style="stroke:#181818;stroke-width:1.0;"/><line style="stroke:#181818;stroke-width:1.0;stroke-dasharray:2.0,2.0;" x1="296" x2="1600" y1="851.8965" y2="851.8965"/><text fill="#000000" font-family="sans-serif" font-size="13" font-weight="bold" lengthAdjust="spacing" textLength="14" x="308" y="846.6338">23</text><text fill="#000000" font-family="sans-serif" font-size="13" lengthAdjust="spacing" textLength="110" x="326" y="846.6338">updated resultView</text><polygon fill="#181818" points="1584,879.1875,1594,883.1875,1584,887.1875,1588,883.1875" style="stroke:#181818;stroke-width:1.0;"/><line style="stroke:#181818;stroke-width:1.0;" x1="291" x2="1590" y1="883.1875" y2="883.1875"/><text fill="#000000" font-family="sans-serif" font-size="13" font-weight="bold" lengthAdjust="spacing" textLength="14" x="298" y="877.9248">24</text><text fill="#000000" font-family="sans-serif" font-size="13" lengthAdjust="spacing" textLength="378" x="316" y="877.9248">resultView.setPreviousPromotedPlan(previousPromotedPlanView)</text><polygon fill="#181818" points="302,910.4785,292,914.4785,302,918.4785,298,914.4785" style="stroke:#181818;stroke-width:1.0;"/><line style="stroke:#181818;stroke-width:1.0;stroke-dasharray:2.0,2.0;" x1="296" x2="1600" y1="914.4785" y2="914.4785"/><text fill="#000000" font-family="sans-serif" font-size="13" font-weight="bold" lengthAdjust="spacing" textLength="14" x="308" y="909.2158">25</text><text fill="#000000" font-family="sans-serif" font-size="13" lengthAdjust="spacing" textLength="110" x="326" y="909.2158">updated resultView</text><polygon fill="#181818" points="82,941.7695,72,945.7695,82,949.7695,78,945.7695" style="stroke:#181818;stroke-width:1.0;"/><line style="stroke:#181818;stroke-width:1.0;stroke-dasharray:2.0,2.0;" x1="76" x2="285" y1="945.7695" y2="945.7695"/><text fill="#000000" font-family="sans-serif" font-size="13" font-weight="bold" lengthAdjust="spacing" textLength="14" x="88" y="940.5068">26</text><text fill="#000000" font-family="sans-serif" font-size="13" lengthAdjust="spacing" textLength="60" x="106" y="940.5068">resultView</text><!--SRC=[dLJ1Rjim3BthAuXSbW2jUzXbADOEMTQWFIGBsYxNGhMPHAWZ6PASD7y_KhOJnr6ATJuOalZ4H_9HbAKtkbo_eXMIbZBrQYCzWj52qCPOw4saVKElz19-AOjyrWFfO9YAGbglKbL8xQ5tFSkb7XdjhSbph30ZR_C8oZsXtQWK0uRNCSmZ5iOfOji566zZi63aLTTepTfuPVGZkZBtjGzUVWoSAzosmBoDqVBvH1P5dMY0YNtrg3PYcCBbRQW0NCDi-3owXwk2hruLWH5_QBd66o42XA1S28OUnmCrki_e2rYYdwDrP1xJ-SDY8dswkaUPeUshQZUNUOc3WH318Jdcqh5Z9WSE0MvWeNJsSpSbdo_y2zu78Y0l3x4mM6XY1wkMAo-0lgy9ZEco0rdvUjs1yWxOGR0_B6WFcK6dltZ0T-Ny1P_ubJLR1rFZnwRKsTrxYWMdAL1dm1o7W3dIcZrfqi_GKVTbTV834J2jKFyK6LK-gqBkP6xthPGukS4-OqwJVI9JvtvN2tR5YyIXd-AsCcF6iVJPSrXHR9rhBPAo3hFoSwBHxr0IcNyFOjrMvQEdDwjKQoLI2TX4yD8i-jwM4I7RVhg2VajWjCBqpO5QW2JZ2cqbhIAHSqlDjMkwC6j977ow2w1QX0uecgp16rZ8t654sZEAxEDhLVISGZ7iFoasixXHfdIdijr5wJyju-6zD-VDs-RvK7TqQtGatko7IR-EStdQMVIMm_sMVtqC2UFdlxYYDOaG5X5SDVGQsiEytEVFczXJYKJFOk_ljtYF2tsKvmU4qQpEfV09wfgRC3JTswJYBm00]--></g></svg>