<?xml version="1.0" encoding="us-ascii" standalone="no"?><svg xmlns="http://www.w3.org/2000/svg" xmlns:xlink="http://www.w3.org/1999/xlink" contentStyleType="text/css" height="782px" preserveAspectRatio="none" style="width:991px;height:782px;background:#FFFFFF;" version="1.1" viewBox="0 0 991 782" width="991px" zoomAndPan="magnify"><defs/><g><text fill="#000000" font-family="sans-serif" font-size="14" font-weight="bold" lengthAdjust="spacing" textLength="421" x="278" y="25.1074">Class Diagram / As marketing director, I want to cease a plan</text><!--class PlansRepository--><g id="elem_PlansRepository"><rect codeLine="33" fill="#F1F1F1" height="97.8242" id="PlansRepository" rx="2.5" ry="2.5" style="stroke:#181818;stroke-width:0.5;" width="353" x="150" y="330.6211"/><text fill="#000000" font-family="sans-serif" font-size="12" font-style="italic" lengthAdjust="spacing" textLength="61" x="296" y="348.5703">&#171;interface&#187;</text><text fill="#000000" font-family="sans-serif" font-size="14" font-style="italic" lengthAdjust="spacing" textLength="103" x="275" y="366.6895">PlansRepository</text><line style="stroke:#181818;stroke-width:0.5;" x1="151" x2="502" y1="375.2031" y2="375.2031"/><line style="stroke:#181818;stroke-width:0.5;" x1="151" x2="502" y1="383.2031" y2="383.2031"/><ellipse cx="161" cy="398.0137" fill="#84BE84" rx="3" ry="3" style="stroke:#038048;stroke-width:1.0;"/><text fill="#000000" font-family="sans-serif" font-size="14" lengthAdjust="spacing" textLength="317" x="170" y="402.3105">findByName_Name(String name): Optional&lt;Plans&gt;</text><ellipse cx="161" cy="416.6348" fill="#84BE84" rx="3" ry="3" style="stroke:#038048;stroke-width:1.0;"/><text fill="#000000" font-family="sans-serif" font-size="14" lengthAdjust="spacing" textLength="327" x="170" y="420.9316">ceaseByPlan(Plans plans, Long desiredVersion): int</text></g><!--class Plans--><g id="elem_Plans"><rect codeLine="6" fill="#F1F1F1" height="268.0742" id="Plans" rx="2.5" ry="2.5" style="stroke:#181818;stroke-width:0.5;" width="184" x="357.5" y="507.6211"/><text fill="#000000" font-family="sans-serif" font-size="14" lengthAdjust="spacing" textLength="35" x="432" y="527.7285">Plans</text><line style="stroke:#181818;stroke-width:0.5;" x1="358.5" x2="540.5" y1="536.2422" y2="536.2422"/><rect fill="none" height="6" style="stroke:#C82930;stroke-width:1.0;" width="6" x="365.5" y="548.0527"/><text fill="#000000" font-family="sans-serif" font-size="14" lengthAdjust="spacing" textLength="35" x="377.5" y="555.3496">name</text><rect fill="none" height="6" style="stroke:#C82930;stroke-width:1.0;" width="6" x="365.5" y="566.6738"/><text fill="#000000" font-family="sans-serif" font-size="14" lengthAdjust="spacing" textLength="69" x="377.5" y="573.9707">description</text><rect fill="none" height="6" style="stroke:#C82930;stroke-width:1.0;" width="6" x="365.5" y="585.2949"/><text fill="#000000" font-family="sans-serif" font-size="14" lengthAdjust="spacing" textLength="112" x="377.5" y="592.5918">numberOfMinutes</text><rect fill="none" height="6" style="stroke:#C82930;stroke-width:1.0;" width="6" x="365.5" y="603.916"/><text fill="#000000" font-family="sans-serif" font-size="14" lengthAdjust="spacing" textLength="158" x="377.5" y="611.2129">maximumNumberOfUsers</text><rect fill="none" height="6" style="stroke:#C82930;stroke-width:1.0;" width="6" x="365.5" y="622.5371"/><text fill="#000000" font-family="sans-serif" font-size="14" lengthAdjust="spacing" textLength="98" x="377.5" y="629.834">musicCollection</text><rect fill="none" height="6" style="stroke:#C82930;stroke-width:1.0;" width="6" x="365.5" y="641.1582"/><text fill="#000000" font-family="sans-serif" font-size="14" lengthAdjust="spacing" textLength="107" x="377.5" y="648.4551">musicSuggestion</text><rect fill="none" height="6" style="stroke:#C82930;stroke-width:1.0;" width="6" x="365.5" y="659.7793"/><text fill="#000000" font-family="sans-serif" font-size="14" lengthAdjust="spacing" textLength="68" x="377.5" y="667.0762">annualFee</text><rect fill="none" height="6" style="stroke:#C82930;stroke-width:1.0;" width="6" x="365.5" y="678.4004"/><text fill="#000000" font-family="sans-serif" font-size="14" lengthAdjust="spacing" textLength="74" x="377.5" y="685.6973">monthlyFee</text><rect fill="none" height="6" style="stroke:#C82930;stroke-width:1.0;" width="6" x="365.5" y="697.0215"/><text fill="#000000" font-family="sans-serif" font-size="14" lengthAdjust="spacing" textLength="37" x="377.5" y="704.3184">active</text><rect fill="none" height="6" style="stroke:#C82930;stroke-width:1.0;" width="6" x="365.5" y="715.6426"/><text fill="#000000" font-family="sans-serif" font-size="14" lengthAdjust="spacing" textLength="60" x="377.5" y="722.9395">promoted</text><rect fill="none" height="6" style="stroke:#C82930;stroke-width:1.0;" width="6" x="365.5" y="734.2637"/><text fill="#000000" font-family="sans-serif" font-size="14" lengthAdjust="spacing" textLength="74" x="377.5" y="741.5605">feeRevision</text><rect fill="none" height="6" style="stroke:#C82930;stroke-width:1.0;" width="6" x="365.5" y="752.8848"/><text fill="#000000" font-family="sans-serif" font-size="14" lengthAdjust="spacing" textLength="47" x="377.5" y="760.1816">deleted</text><line style="stroke:#181818;stroke-width:0.5;" x1="358.5" x2="540.5" y1="767.6953" y2="767.6953"/></g><!--class PlansViewMapper--><g id="elem_PlansViewMapper"><rect codeLine="21" fill="#F1F1F1" height="63.2422" id="PlansViewMapper" rx="2.5" ry="2.5" style="stroke:#181818;stroke-width:0.5;" width="257" x="113" y="188.6211"/><text fill="#000000" font-family="sans-serif" font-size="14" lengthAdjust="spacing" textLength="112" x="185.5" y="208.7285">PlansViewMapper</text><line style="stroke:#181818;stroke-width:0.5;" x1="114" x2="369" y1="217.2422" y2="217.2422"/><line style="stroke:#181818;stroke-width:0.5;" x1="114" x2="369" y1="225.2422" y2="225.2422"/><ellipse cx="124" cy="240.0527" fill="#84BE84" rx="3" ry="3" style="stroke:#038048;stroke-width:1.0;"/><text fill="#000000" font-family="sans-serif" font-size="14" lengthAdjust="spacing" textLength="231" x="133" y="244.3496">toPlansView(Plans plans): PlansView</text></g><!--class PlansController--><g id="elem_PlansController"><rect codeLine="25" fill="#F1F1F1" height="63.2422" id="PlansController" rx="2.5" ry="2.5" style="stroke:#181818;stroke-width:0.5;" width="539" x="7" y="46.6211"/><text fill="#000000" font-family="sans-serif" font-size="14" lengthAdjust="spacing" textLength="97" x="228" y="66.7285">PlansController</text><line style="stroke:#181818;stroke-width:0.5;" x1="8" x2="545" y1="75.2422" y2="75.2422"/><line style="stroke:#181818;stroke-width:0.5;" x1="8" x2="545" y1="83.2422" y2="83.2422"/><ellipse cx="18" cy="98.0527" fill="#84BE84" rx="3" ry="3" style="stroke:#038048;stroke-width:1.0;"/><text fill="#000000" font-family="sans-serif" font-size="14" lengthAdjust="spacing" textLength="513" x="27" y="102.3496">cease(final WebRequest request, final String name): ResponseEntity&lt;PlansView&gt;</text></g><!--class PlansService--><g id="elem_PlansService"><rect codeLine="29" fill="#F1F1F1" height="63.2422" id="PlansService" rx="2.5" ry="2.5" style="stroke:#181818;stroke-width:0.5;" width="337" x="405" y="188.6211"/><text fill="#000000" font-family="sans-serif" font-size="14" lengthAdjust="spacing" textLength="82" x="532.5" y="208.7285">PlansService</text><line style="stroke:#181818;stroke-width:0.5;" x1="406" x2="741" y1="217.2422" y2="217.2422"/><line style="stroke:#181818;stroke-width:0.5;" x1="406" x2="741" y1="225.2422" y2="225.2422"/><ellipse cx="416" cy="240.0527" fill="#84BE84" rx="3" ry="3" style="stroke:#038048;stroke-width:1.0;"/><text fill="#000000" font-family="sans-serif" font-size="14" lengthAdjust="spacing" textLength="311" x="425" y="244.3496">cease(String name, final long desiredVersion): int</text></g><!--class SubscriptionsRepository--><g id="elem_SubscriptionsRepository"><rect codeLine="38" fill="#F1F1F1" height="63.2422" id="SubscriptionsRepository" rx="2.5" ry="2.5" style="stroke:#181818;stroke-width:0.5;" width="345" x="639" y="348.1211"/><text fill="#000000" font-family="sans-serif" font-size="14" font-style="italic" lengthAdjust="spacing" textLength="153" x="735" y="368.2285">SubscriptionsRepository</text><line style="stroke:#181818;stroke-width:0.5;" x1="640" x2="983" y1="376.7422" y2="376.7422"/><line style="stroke:#181818;stroke-width:0.5;" x1="640" x2="983" y1="384.7422" y2="384.7422"/><ellipse cx="650" cy="399.5527" fill="#84BE84" rx="3" ry="3" style="stroke:#038048;stroke-width:1.0;"/><text fill="#000000" font-family="sans-serif" font-size="14" lengthAdjust="spacing" textLength="319" x="659" y="403.8496">existsByPlanAndUserNotNull(Plans plans): boolean</text></g><!--link PlansController to PlansService--><g id="link_PlansController_PlansService"><path codeLine="42" d="M341.31,109.6711 C389.34,132.3111 454.72,163.1311 503.87,186.3011 " fill="none" id="PlansController-to-PlansService" style="stroke:#181818;stroke-width:1.0;"/><polygon fill="#181818" points="508.57,188.5111,502.1355,181.0547,504.0475,186.3787,498.7236,188.2907,508.57,188.5111" style="stroke:#181818;stroke-width:1.0;"/><text fill="#000000" font-family="sans-serif" font-size="13" lengthAdjust="spacing" textLength="28" x="444.5" y="154.6494">uses</text></g><!--link PlansService to PlansRepository--><g id="link_PlansService_PlansRepository"><path codeLine="43" d="M525.58,251.6711 C491.74,273.2511 445.6,302.6711 406.26,327.7611 " fill="none" id="PlansService-to-PlansRepository" style="stroke:#181818;stroke-width:1.0;"/><polygon fill="#181818" points="401.99,330.4811,411.7259,328.994,406.2001,327.7838,407.4103,322.2579,401.99,330.4811" style="stroke:#181818;stroke-width:1.0;"/><text fill="#000000" font-family="sans-serif" font-size="13" lengthAdjust="spacing" textLength="28" x="473.5" y="296.6494">uses</text></g><!--link PlansService to SubscriptionsRepository--><g id="link_PlansService_SubscriptionsRepository"><path codeLine="44" d="M619.67,251.6711 C660.19,278.4911 719,317.4111 760.81,345.0711 " fill="none" id="PlansService-to-SubscriptionsRepository" style="stroke:#181818;stroke-width:1.0;"/><polygon fill="#181818" points="765.05,347.8811,759.7474,339.5815,760.8788,345.1241,755.3362,346.2555,765.05,347.8811" style="stroke:#181818;stroke-width:1.0;"/><text fill="#000000" font-family="sans-serif" font-size="13" lengthAdjust="spacing" textLength="28" x="693.5" y="296.6494">uses</text></g><!--link PlansRepository to Plans--><g id="link_PlansRepository_Plans"><path codeLine="45" d="M349.35,428.9111 C359.4,450.1511 371.76,476.2911 384.33,502.8611 " fill="none" id="PlansRepository-to-Plans" style="stroke:#181818;stroke-width:1.0;"/><polygon fill="#181818" points="386.51,507.4711,386.2641,497.6253,384.3659,502.9542,379.037,501.0559,386.51,507.4711" style="stroke:#181818;stroke-width:1.0;"/><text fill="#000000" font-family="sans-serif" font-size="13" lengthAdjust="spacing" textLength="50" x="371.5" y="473.6494">&#171;record&#187;</text></g><!--link PlansService to Plans--><g id="link_PlansService_Plans"><path codeLine="46" d="M566.38,251.9011 C556.8,292.5811 538.84,366.3911 520.5,428.6211 C513.43,452.6211 505.42,477.9711 497.39,502.4711 " fill="none" id="PlansService-to-Plans" style="stroke:#181818;stroke-width:1.0;"/><polygon fill="#181818" points="495.78,507.3611,502.4076,500.0759,497.3526,502.6148,494.8136,497.5598,495.78,507.3611" style="stroke:#181818;stroke-width:1.0;"/><text fill="#000000" font-family="sans-serif" font-size="13" lengthAdjust="spacing" textLength="28" x="548.5" y="385.1494">uses</text></g><!--link PlansController to PlansViewMapper--><g id="link_PlansController_PlansViewMapper"><path codeLine="47" d="M268.82,109.8411 C263.39,131.5411 256.11,160.6911 250.42,183.4311 " fill="none" id="PlansController-to-PlansViewMapper" style="stroke:#181818;stroke-width:1.0;"/><polygon fill="#181818" points="249.16,188.4711,255.2288,180.7142,250.376,183.6212,247.469,178.7685,249.16,188.4711" style="stroke:#181818;stroke-width:1.0;"/><text fill="#000000" font-family="sans-serif" font-size="13" lengthAdjust="spacing" textLength="28" x="262.5" y="154.6494">uses</text></g><!--SRC=[ZLFBRXin3BplL_3ee3PwDum54ZS52YHEOQFfiP0bsX6gnrQKd2oA_difxzDR1-WUza5oXyFXw4Kh1Ac3D5X88uZWgn6EjbXvqj676bOhxIA6Wv1ObaKHTJG8wtFf9osEGLZu2BS4LeIV6BKxWj819VyxXo_mAbo4w46Y80G15QCNuqxmkm2-5k24nVPL8ScWgwYzwvB9xZ4y7HwrIn6fZLhnfcsocpRvZJ3qgKHQhhqnp6I0EKTtwNX46aM5SqcOpzYrjzx55rCF0S4Of-wZ2jxwYAhzF21kyQHfW5DeCEV_NCpvhF7rKLGLXdRY3onBdvarMcHrw6Ov_341MJEpa8SQGCx2pWxQ2GFVSR_5Nuc7Wz0yvz1aTZ7apMID6NwBL7b7UEzuc_MgxrPEskqmdBJ4IQyHLWTlV5ux4YzUFVCIM0nkmxx9WBrz_h5MXyiWwgxUCE2FV9jTidqw6q6OXcSvvd9NvzXOl3ay_1-NNTht9hl62TyqHMeQt3gLlRNnSPECcUngxxr1DZMZJtUqM9GNGYuX4PltGjk-Pk3mNjaxbCVbeq5wu2KVOJwGFYW-lzTxZo6kyH_CsrR-1G00]--></g></svg>