<?xml version="1.0" encoding="us-ascii" standalone="no"?><svg xmlns="http://www.w3.org/2000/svg" xmlns:xlink="http://www.w3.org/1999/xlink" contentStyleType="text/css" height="676px" preserveAspectRatio="none" style="width:1220px;height:676px;background:#FFFFFF;" version="1.1" viewBox="0 0 1220 676" width="1220px" zoomAndPan="magnify"><defs/><g><!--class SubscriptionsRepository--><g id="elem_SubscriptionsRepository"><rect codeLine="21" fill="#F1F1F1" height="172.0391" id="SubscriptionsRepository" rx="2.5" ry="2.5" style="stroke:#181818;stroke-width:0.5;" width="658" x="555" y="278.95"/><text fill="#000000" font-family="sans-serif" font-size="12" font-style="italic" lengthAdjust="spacing" textLength="62" x="853" y="295.5516">&#171;interface&#187;</text><text fill="#000000" font-family="sans-serif" font-size="14" font-style="italic" lengthAdjust="spacing" textLength="166" x="801" y="311.618">SubscriptionsRepository</text><line style="stroke:#181818;stroke-width:0.5;" x1="556" x2="1212" y1="319.5711" y2="319.5711"/><line style="stroke:#181818;stroke-width:0.5;" x1="556" x2="1212" y1="327.5711" y2="327.5711"/><ellipse cx="566" cy="341.3152" fill="#84BE84" rx="3" ry="3" style="stroke:#038048;stroke-width:1.0;"/><text fill="#000000" font-family="sans-serif" font-size="14" lengthAdjust="spacing" textLength="632" x="575" y="345.1063">findByActiveStatus_ActiveAndUser(Boolean true, String username): Optional&lt;Subscriptions&gt;</text><ellipse cx="566" cy="357.8035" fill="#84BE84" rx="3" ry="3" style="stroke:#038048;stroke-width:1.0;"/><text fill="#000000" font-family="sans-serif" font-size="14" lengthAdjust="spacing" textLength="288" x="575" y="361.5945">save(S entity) : &lt;S extends Subscriptions&gt;</text><ellipse cx="566" cy="374.2918" fill="#84BE84" rx="3" ry="3" style="stroke:#038048;stroke-width:1.0;"/><text fill="#000000" font-family="sans-serif" font-size="14" lengthAdjust="spacing" textLength="414" x="575" y="378.0828">getPlansFromOtherAPI(String name): HttpResponse&lt;String&gt;</text><ellipse cx="566" cy="390.7801" fill="#84BE84" rx="3" ry="3" style="stroke:#038048;stroke-width:1.0;"/><text fill="#000000" font-family="sans-serif" font-size="14" lengthAdjust="spacing" textLength="413" x="575" y="394.5711">getUserFromOtherAPI(String name) : HttpResponse&lt;String&gt;</text><ellipse cx="566" cy="407.2684" fill="#84BE84" rx="3" ry="3" style="stroke:#038048;stroke-width:1.0;"/><text fill="#000000" font-family="sans-serif" font-size="14" lengthAdjust="spacing" textLength="496" x="575" y="411.0594">getSubsFromOtherApi(String name,String auth) : HttpResponse&lt;String&gt;</text><ellipse cx="566" cy="423.7566" fill="#84BE84" rx="3" ry="3" style="stroke:#038048;stroke-width:1.0;"/><text fill="#000000" font-family="sans-serif" font-size="14" lengthAdjust="spacing" textLength="445" x="575" y="427.5477">planExists(String plan,String auth,String resource): Subscriptions</text><ellipse cx="566" cy="440.2449" fill="#84BE84" rx="3" ry="3" style="stroke:#038048;stroke-width:1.0;"/><text fill="#000000" font-family="sans-serif" font-size="14" lengthAdjust="spacing" textLength="342" x="575" y="444.0359">changePlan(newString,auth,name,desiredVersion)</text></g><!--class Subscriptions--><g id="elem_Subscriptions"><rect codeLine="5" fill="#F1F1F1" height="141.418" id="Subscriptions" rx="2.5" ry="2.5" style="stroke:#181818;stroke-width:0.5;" width="118" x="825" y="527.99"/><text fill="#000000" font-family="sans-serif" font-size="14" lengthAdjust="spacing" textLength="93" x="837.5" y="546.5252">Subscriptions</text><line style="stroke:#181818;stroke-width:0.5;" x1="826" x2="942" y1="554.4783" y2="554.4783"/><rect fill="none" height="6" style="stroke:#C82930;stroke-width:1.0;" width="6" x="833" y="565.2224"/><text fill="#000000" font-family="sans-serif" font-size="14" lengthAdjust="spacing" textLength="62" x="845" y="572.0134">startDate</text><rect fill="none" height="6" style="stroke:#C82930;stroke-width:1.0;" width="6" x="833" y="581.7107"/><text fill="#000000" font-family="sans-serif" font-size="14" lengthAdjust="spacing" textLength="57" x="845" y="588.5017">endDate</text><rect fill="none" height="6" style="stroke:#C82930;stroke-width:1.0;" width="6" x="833" y="598.199"/><text fill="#000000" font-family="sans-serif" font-size="14" lengthAdjust="spacing" textLength="92" x="845" y="604.99">paymentType</text><rect fill="none" height="6" style="stroke:#C82930;stroke-width:1.0;" width="6" x="833" y="614.6873"/><text fill="#000000" font-family="sans-serif" font-size="14" lengthAdjust="spacing" textLength="81" x="845" y="621.4783">activeStatus</text><rect fill="none" height="6" style="stroke:#C82930;stroke-width:1.0;" width="6" x="833" y="631.1755"/><text fill="#000000" font-family="sans-serif" font-size="14" lengthAdjust="spacing" textLength="30" x="845" y="637.9666">plan</text><rect fill="none" height="6" style="stroke:#C82930;stroke-width:1.0;" width="6" x="833" y="647.6638"/><text fill="#000000" font-family="sans-serif" font-size="14" lengthAdjust="spacing" textLength="30" x="845" y="654.4548">user</text><line style="stroke:#181818;stroke-width:0.5;" x1="826" x2="942" y1="661.408" y2="661.408"/></g><!--class SubscriptionsController--><g id="elem_SubscriptionsController"><rect codeLine="14" fill="#F1F1F1" height="58.9766" id="SubscriptionsController" rx="2.5" ry="2.5" style="stroke:#181818;stroke-width:0.5;" width="756" x="7" y="7"/><text fill="#000000" font-family="sans-serif" font-size="14" lengthAdjust="spacing" textLength="163" x="303.5" y="25.5352">SubscriptionsController</text><line style="stroke:#181818;stroke-width:0.5;" x1="8" x2="762" y1="33.4883" y2="33.4883"/><line style="stroke:#181818;stroke-width:0.5;" x1="8" x2="762" y1="41.4883" y2="41.4883"/><text fill="#000000" font-family="sans-serif" font-size="14" lengthAdjust="spacing" textLength="744" x="13" y="59.0234">changePlan(final request,  final String name,String authorizationToken):ResponseEntity&lt;SubscriptionsView&gt;</text></g><!--class SubscriptionsViewMapper--><g id="elem_SubscriptionsViewMapper"><rect codeLine="18" fill="#F1F1F1" height="58.9766" id="SubscriptionsViewMapper" rx="2.5" ry="2.5" style="stroke:#181818;stroke-width:0.5;" width="486" x="100" y="142.98"/><text fill="#000000" font-family="sans-serif" font-size="14" lengthAdjust="spacing" textLength="177" x="254.5" y="161.5152">SubscriptionsViewMapper</text><line style="stroke:#181818;stroke-width:0.5;" x1="101" x2="585" y1="169.4683" y2="169.4683"/><line style="stroke:#181818;stroke-width:0.5;" x1="101" x2="585" y1="177.4683" y2="177.4683"/><ellipse cx="111" cy="191.2124" fill="#84BE84" rx="3" ry="3" style="stroke:#038048;stroke-width:1.0;"/><text fill="#000000" font-family="sans-serif" font-size="14" lengthAdjust="spacing" textLength="460" x="120" y="195.0034">toSubscriptionsView(Subscription subscriptions):SubscriptionsView</text></g><!--class SubscriptionsService--><g id="elem_SubscriptionsService"><rect codeLine="32" fill="#F1F1F1" height="58.9766" id="SubscriptionsService" rx="2.5" ry="2.5" style="stroke:#181818;stroke-width:0.5;" width="525" x="621.5" y="142.98"/><text fill="#000000" font-family="sans-serif" font-size="14" lengthAdjust="spacing" textLength="141" x="813.5" y="161.5152">SubscriptionsService</text><line style="stroke:#181818;stroke-width:0.5;" x1="622.5" x2="1145.5" y1="169.4683" y2="169.4683"/><line style="stroke:#181818;stroke-width:0.5;" x1="622.5" x2="1145.5" y1="177.4683" y2="177.4683"/><ellipse cx="632.5" cy="191.2124" fill="#84BE84" rx="3" ry="3" style="stroke:#038048;stroke-width:1.0;"/><text fill="#000000" font-family="sans-serif" font-size="14" lengthAdjust="spacing" textLength="499" x="641.5" y="195.0034">changePlan(long desiredVersion, String name, String auth):Subscriptions</text></g><!--link SubscriptionsController to SubscriptionsService--><g id="link_SubscriptionsController_SubscriptionsService"><path codeLine="40" d="M492.66,66.39 C576.46,88.89 686.4453,118.4239 770.3053,140.9439 " fill="none" id="SubscriptionsController-to-SubscriptionsService" style="stroke:#181818;stroke-width:1.0;stroke-dasharray:7.0,7.0;"/><polygon fill="#181818" points="776.1,142.5,768.4454,136.3027,771.2711,141.2032,766.3705,144.0289,776.1,142.5" style="stroke:#181818;stroke-width:1.0;"/><polygon fill="#000000" points="673.8289,105.9319,665.8555,100.7479,664.3311,106.4246,673.8289,105.9319" style="stroke:#000000;stroke-width:1.0;"/><text fill="#000000" font-family="sans-serif" font-size="13" lengthAdjust="spacing" textLength="29" x="678" y="109.5484">uses</text></g><!--link SubscriptionsService to SubscriptionsRepository--><g id="link_SubscriptionsService_SubscriptionsRepository"><path codeLine="41" d="M884,202.4 C884,222.8 884,245.26 884,272.62 " fill="none" id="SubscriptionsService-to-SubscriptionsRepository" style="stroke:#181818;stroke-width:1.0;stroke-dasharray:7.0,7.0;"/><polygon fill="#181818" points="884,278.62,888,269.62,884,273.62,880,269.62,884,278.62" style="stroke:#181818;stroke-width:1.0;"/><polygon fill="#000000" points="889,245.6053,891.9389,236.5602,886.0611,236.5602,889,245.6053" style="stroke:#000000;stroke-width:1.0;"/><text fill="#000000" font-family="sans-serif" font-size="13" lengthAdjust="spacing" textLength="29" x="898" y="245.5184">uses</text></g><!--link SubscriptionsRepository to Subscriptions--><g id="link_SubscriptionsRepository_Subscriptions"><path codeLine="42" d="M884,451.27 C884,476.44 884,497.67 884,521.75 " fill="none" id="SubscriptionsRepository-to-Subscriptions" style="stroke:#181818;stroke-width:1.0;stroke-dasharray:7.0,7.0;"/><polygon fill="#181818" points="884,527.75,888,518.75,884,522.75,880,518.75,884,527.75" style="stroke:#181818;stroke-width:1.0;"/><polygon fill="#000000" points="889,484.6453,886.0611,493.6904,891.9389,493.6904,889,484.6453" style="stroke:#000000;stroke-width:1.0;"/><text fill="#000000" font-family="sans-serif" font-size="13" lengthAdjust="spacing" textLength="40" x="898" y="494.5584">record</text></g><!--link SubscriptionsController to SubscriptionsViewMapper--><g id="link_SubscriptionsController_SubscriptionsViewMapper"><path codeLine="43" d="M375.99,66.23 C368.9,88.83 360.8744,114.4546 353.7944,137.0446 " fill="none" id="SubscriptionsController-to-SubscriptionsViewMapper" style="stroke:#181818;stroke-width:1.0;stroke-dasharray:7.0,7.0;"/><polygon fill="#181818" points="352,142.77,358.5085,135.3782,353.4953,137.9988,350.8747,132.9856,352,142.77" style="stroke:#181818;stroke-width:1.0;"/><polygon fill="#000000" points="370.5046,109.4064,376.0142,101.6543,370.4054,99.8964,370.5046,109.4064" style="stroke:#000000;stroke-width:1.0;"/><text fill="#000000" font-family="sans-serif" font-size="13" lengthAdjust="spacing" textLength="29" x="381" y="109.5484">uses</text></g><!--SRC=[VLHDRvmm4BtxL_XMq9BTEq98cpPLUwWIXJJNoZMJnQgnwNZOX4RzxxLXoK8NufF7Csy-df_zeI9gNBhRDLeOQckzbRRUIIsSkogLEA2eMQLAu5AXrC1w3o_QdqwYQaXPu-wXiKwHnOvdcJ84-2Gav3bR2kQlZFjrvKWWVH84WmccF1kDw6emzD0rfmCXIHsX846jEuNuReTTwm3PtyLQ7wqXj5e33aLb9Sm1xZmqUb96Q8xmkmL72UU3NH0gS-16r92SzgAbogBw8qB61_iBJ9pUWsjyUhWnfAZBPZKV5JpdZ2yt59pVHDEC3Mt8NlYZwGbtKtUSNaJxoTyONxiLziesVhxokjjFUFmn67jJVlSCHjVMQX264xQGZ4G4RWCPSSfl-wn2pwVDsSQ98qG5XvwBcASyyyOB-GlzRtWVUm0AxBlFQEjRgW3tTr-Z2Uc-pXSlnv7VR70DmD3bAew_0mnDd86DYbPkUJr94DlDYtBaHcmucMB7FOApBSemo6nsjfbepy3p49xqqBwF4fn2A1y1dO-FLmHT01wL12-UQJvjVULvWcGcPJwTSguX5YhvjV9k-7QRBxQG1cqudhCbvoNgBCPbuEGBkS1wHNbUfSNolIvNtjbOxXy0]--></g></svg>