<?xml version="1.0" encoding="us-ascii" standalone="no"?><svg xmlns="http://www.w3.org/2000/svg" xmlns:xlink="http://www.w3.org/1999/xlink" contentStyleType="text/css" height="649px" preserveAspectRatio="none" style="width:1557px;height:649px;background:#FFFFFF;" version="1.1" viewBox="0 0 1557 649" width="1557px" zoomAndPan="magnify"><defs/><g><rect fill="#FFFFFF" height="463.6563" style="stroke:#181818;stroke-width:1.0;" width="10" x="61" y="93.6211"/><rect fill="#FFFFFF" height="368.7832" style="stroke:#181818;stroke-width:1.0;" width="10" x="352" y="116.9121"/><rect fill="#FFFFFF" height="117.1641" style="stroke:#181818;stroke-width:1.0;" width="10" x="751" y="148.2031"/><rect fill="#FFFFFF" height="42.9365" style="stroke:#181818;stroke-width:1.0;" width="10" x="1026" y="179.4941"/><rect fill="#FFFFFF" height="42.9365" style="stroke:#181818;stroke-width:1.0;" width="10" x="1026" y="399.8223"/><rect fill="#FFFFFF" height="51.582" style="stroke:#181818;stroke-width:1.0;" width="10" x="1182" y="296.6582"/><line style="stroke:#181818;stroke-width:0.5;stroke-dasharray:5.0,5.0;" x1="66" x2="66" y1="83.6211" y2="566.2773"/><line style="stroke:#181818;stroke-width:0.5;stroke-dasharray:5.0,5.0;" x1="357" x2="357" y1="83.6211" y2="566.2773"/><line style="stroke:#181818;stroke-width:0.5;stroke-dasharray:5.0,5.0;" x1="756" x2="756" y1="83.6211" y2="566.2773"/><line style="stroke:#181818;stroke-width:0.5;stroke-dasharray:5.0,5.0;" x1="1030.5" x2="1030.5" y1="83.6211" y2="566.2773"/><line style="stroke:#181818;stroke-width:0.5;stroke-dasharray:5.0,5.0;" x1="1186.5" x2="1186.5" y1="83.6211" y2="566.2773"/><text fill="#000000" font-family="sans-serif" font-size="14" lengthAdjust="spacing" textLength="116" x="5" y="80.1074">Marketing Director</text><ellipse cx="66" cy="13.5" fill="#E2E2F0" rx="8" ry="8" style="stroke:#181818;stroke-width:0.5;"/><path d="M66,21.5 L66,48.5 M53,29.5 L79,29.5 M66,48.5 L53,63.5 M66,48.5 L79,63.5 " fill="none" style="stroke:#181818;stroke-width:0.5;"/><text fill="#000000" font-family="sans-serif" font-size="14" lengthAdjust="spacing" textLength="116" x="5" y="580.3848">Marketing Director</text><ellipse cx="66" cy="592.3984" fill="#E2E2F0" rx="8" ry="8" style="stroke:#181818;stroke-width:0.5;"/><path d="M66,600.3984 L66,627.3984 M53,608.3984 L79,608.3984 M66,627.3984 L53,642.3984 M66,627.3984 L79,642.3984 " fill="none" style="stroke:#181818;stroke-width:0.5;"/><rect fill="#E2E2F0" height="32.6211" rx="2.5" ry="2.5" style="stroke:#181818;stroke-width:0.5;" width="108" x="303" y="50"/><text fill="#000000" font-family="sans-serif" font-size="14" lengthAdjust="spacing" textLength="94" x="310" y="72.1074">:PlanController</text><rect fill="#E2E2F0" height="32.6211" rx="2.5" ry="2.5" style="stroke:#181818;stroke-width:0.5;" width="108" x="303" y="565.2773"/><text fill="#000000" font-family="sans-serif" font-size="14" lengthAdjust="spacing" textLength="94" x="310" y="587.3848">:PlanController</text><rect fill="#E2E2F0" height="32.6211" rx="2.5" ry="2.5" style="stroke:#181818;stroke-width:0.5;" width="100" x="706" y="50"/><text fill="#000000" font-family="sans-serif" font-size="14" lengthAdjust="spacing" textLength="86" x="713" y="72.1074">:PlansService</text><rect fill="#E2E2F0" height="32.6211" rx="2.5" ry="2.5" style="stroke:#181818;stroke-width:0.5;" width="100" x="706" y="565.2773"/><text fill="#000000" font-family="sans-serif" font-size="14" lengthAdjust="spacing" textLength="86" x="713" y="587.3848">:PlansService</text><rect fill="#E2E2F0" height="32.6211" rx="2.5" ry="2.5" style="stroke:#181818;stroke-width:0.5;" width="121" x="970.5" y="50"/><text fill="#000000" font-family="sans-serif" font-size="14" lengthAdjust="spacing" textLength="107" x="977.5" y="72.1074">:PlansRepository</text><rect fill="#E2E2F0" height="32.6211" rx="2.5" ry="2.5" style="stroke:#181818;stroke-width:0.5;" width="121" x="970.5" y="565.2773"/><text fill="#000000" font-family="sans-serif" font-size="14" lengthAdjust="spacing" textLength="107" x="977.5" y="587.3848">:PlansRepository</text><rect fill="#E2E2F0" height="32.6211" rx="2.5" ry="2.5" style="stroke:#181818;stroke-width:0.5;" width="171" x="1101.5" y="50"/><text fill="#000000" font-family="sans-serif" font-size="14" lengthAdjust="spacing" textLength="157" x="1108.5" y="72.1074">:SubscriptionsRepository</text><rect fill="#E2E2F0" height="32.6211" rx="2.5" ry="2.5" style="stroke:#181818;stroke-width:0.5;" width="171" x="1101.5" y="565.2773"/><text fill="#000000" font-family="sans-serif" font-size="14" lengthAdjust="spacing" textLength="157" x="1108.5" y="587.3848">:SubscriptionsRepository</text><rect fill="#FFFFFF" height="463.6563" style="stroke:#181818;stroke-width:1.0;" width="10" x="61" y="93.6211"/><rect fill="#FFFFFF" height="368.7832" style="stroke:#181818;stroke-width:1.0;" width="10" x="352" y="116.9121"/><rect fill="#FFFFFF" height="117.1641" style="stroke:#181818;stroke-width:1.0;" width="10" x="751" y="148.2031"/><rect fill="#FFFFFF" height="42.9365" style="stroke:#181818;stroke-width:1.0;" width="10" x="1026" y="179.4941"/><rect fill="#FFFFFF" height="42.9365" style="stroke:#181818;stroke-width:1.0;" width="10" x="1026" y="399.8223"/><rect fill="#FFFFFF" height="51.582" style="stroke:#181818;stroke-width:1.0;" width="10" x="1182" y="296.6582"/><polygon fill="#181818" points="340,112.9121,350,116.9121,340,120.9121,344,116.9121" style="stroke:#181818;stroke-width:1.0;"/><line style="stroke:#181818;stroke-width:1.0;" x1="71" x2="346" y1="116.9121" y2="116.9121"/><text fill="#000000" font-family="sans-serif" font-size="13" font-weight="bold" lengthAdjust="spacing" textLength="7" x="78" y="111.6494">1</text><text fill="#000000" font-family="sans-serif" font-size="13" lengthAdjust="spacing" textLength="136" x="89" y="111.6494">DELETE /plans?name=</text><polygon fill="#181818" points="739,144.2031,749,148.2031,739,152.2031,743,148.2031" style="stroke:#181818;stroke-width:1.0;"/><line style="stroke:#181818;stroke-width:1.0;" x1="362" x2="745" y1="148.2031" y2="148.2031"/><text fill="#000000" font-family="sans-serif" font-size="13" font-weight="bold" lengthAdjust="spacing" textLength="7" x="369" y="142.9404">2</text><text fill="#000000" font-family="sans-serif" font-size="13" lengthAdjust="spacing" textLength="359" x="380" y="142.9404">int cease(name, getVersionFromIfMatchHeader(ifMatchValue))</text><polygon fill="#181818" points="1014,175.4941,1024,179.4941,1014,183.4941,1018,179.4941" style="stroke:#181818;stroke-width:1.0;"/><line style="stroke:#181818;stroke-width:1.0;" x1="761" x2="1020" y1="179.4941" y2="179.4941"/><text fill="#000000" font-family="sans-serif" font-size="13" font-weight="bold" lengthAdjust="spacing" textLength="7" x="768" y="174.2314">3</text><text fill="#000000" font-family="sans-serif" font-size="13" lengthAdjust="spacing" textLength="235" x="779" y="174.2314">Plans plans = findByName_Name(name)</text><polygon fill="#181818" points="772,218.4307,762,222.4307,772,226.4307,768,222.4307" style="stroke:#181818;stroke-width:1.0;"/><line style="stroke:#181818;stroke-width:1.0;stroke-dasharray:2.0,2.0;" x1="766" x2="1030" y1="222.4307" y2="222.4307"/><text fill="#000000" font-family="sans-serif" font-size="13" font-weight="bold" lengthAdjust="spacing" textLength="7" x="778" y="217.168">4</text><text fill="#000000" font-family="sans-serif" font-size="13" lengthAdjust="spacing" textLength="31" x="789" y="217.168">plans</text><path d="M1041,192.4941 L1041,236.4941 L1331,236.4941 L1331,202.4941 L1321,192.4941 L1041,192.4941 " fill="#FEFFDD" style="stroke:#181818;stroke-width:0.5;"/><path d="M1321,192.4941 L1321,202.4941 L1331,202.4941 L1321,192.4941 " fill="#FEFFDD" style="stroke:#181818;stroke-width:0.5;"/><text fill="#000000" font-family="sans-serif" font-size="13" lengthAdjust="spacing" textLength="162" x="1047" y="211.5225">3. Finds a plan by its name.</text><text fill="#000000" font-family="sans-serif" font-size="13" lengthAdjust="spacing" textLength="269" x="1047" y="228.8135">If it doesn't exist, it throws NotFoundException</text><polygon fill="#181818" points="373,261.3672,363,265.3672,373,269.3672,369,265.3672" style="stroke:#181818;stroke-width:1.0;"/><line style="stroke:#181818;stroke-width:1.0;stroke-dasharray:2.0,2.0;" x1="367" x2="755" y1="265.3672" y2="265.3672"/><text fill="#000000" font-family="sans-serif" font-size="13" font-weight="bold" lengthAdjust="spacing" textLength="7" x="379" y="260.1045">5</text><text fill="#000000" font-family="sans-serif" font-size="13" lengthAdjust="spacing" textLength="31" x="390" y="260.1045">plans</text><polygon fill="#181818" points="1170,292.6582,1180,296.6582,1170,300.6582,1174,296.6582" style="stroke:#181818;stroke-width:1.0;"/><line style="stroke:#181818;stroke-width:1.0;" x1="362" x2="1176" y1="296.6582" y2="296.6582"/><text fill="#000000" font-family="sans-serif" font-size="13" font-weight="bold" lengthAdjust="spacing" textLength="7" x="369" y="291.3955">6</text><text fill="#000000" font-family="sans-serif" font-size="13" lengthAdjust="spacing" textLength="208" x="380" y="291.3955">existsByPlanAndUserNotNull(plans)</text><polygon fill="#181818" points="373,344.2402,363,348.2402,373,352.2402,369,348.2402" style="stroke:#181818;stroke-width:1.0;"/><line style="stroke:#181818;stroke-width:1.0;stroke-dasharray:2.0,2.0;" x1="367" x2="1186" y1="348.2402" y2="348.2402"/><text fill="#000000" font-family="sans-serif" font-size="13" font-weight="bold" lengthAdjust="spacing" textLength="7" x="379" y="342.9775">7</text><text fill="#000000" font-family="sans-serif" font-size="13" lengthAdjust="spacing" textLength="35" x="390" y="342.9775">exists</text><path d="M1197,309.6582 L1197,370.6582 L1550,370.6582 L1550,319.6582 L1540,309.6582 L1197,309.6582 " fill="#FEFFDD" style="stroke:#181818;stroke-width:0.5;"/><path d="M1540,309.6582 L1540,319.6582 L1550,319.6582 L1540,309.6582 " fill="#FEFFDD" style="stroke:#181818;stroke-width:0.5;"/><text fill="#000000" font-family="sans-serif" font-size="13" lengthAdjust="spacing" textLength="183" x="1203" y="328.6865">6. Finds a subscription that has</text><text fill="#000000" font-family="sans-serif" font-size="13" lengthAdjust="spacing" textLength="332" x="1203" y="345.9775">the corresponding plan and information in user parameter.</text><text fill="#000000" font-family="sans-serif" font-size="13" lengthAdjust="spacing" textLength="289" x="1203" y="363.2686">If it does exist, it throws IllegalArgumentException</text><polygon fill="#181818" points="1014,395.8223,1024,399.8223,1014,403.8223,1018,399.8223" style="stroke:#181818;stroke-width:1.0;"/><line style="stroke:#181818;stroke-width:1.0;" x1="362" x2="1020" y1="399.8223" y2="399.8223"/><text fill="#000000" font-family="sans-serif" font-size="13" font-weight="bold" lengthAdjust="spacing" textLength="7" x="369" y="394.5596">8</text><text fill="#000000" font-family="sans-serif" font-size="13" lengthAdjust="spacing" textLength="210" x="380" y="394.5596">ceaseByPlan(plans, desiredVersion)</text><polygon fill="#181818" points="373,438.7588,363,442.7588,373,446.7588,369,442.7588" style="stroke:#181818;stroke-width:1.0;"/><line style="stroke:#181818;stroke-width:1.0;stroke-dasharray:2.0,2.0;" x1="367" x2="1030" y1="442.7588" y2="442.7588"/><text fill="#000000" font-family="sans-serif" font-size="13" font-weight="bold" lengthAdjust="spacing" textLength="7" x="379" y="437.4961">9</text><text fill="#000000" font-family="sans-serif" font-size="13" lengthAdjust="spacing" textLength="32" x="390" y="437.4961">count</text><path d="M1041,412.8223 L1041,456.8223 L1413,456.8223 L1413,422.8223 L1403,412.8223 L1041,412.8223 " fill="#FEFFDD" style="stroke:#181818;stroke-width:0.5;"/><path d="M1403,412.8223 L1403,422.8223 L1413,422.8223 L1403,412.8223 " fill="#FEFFDD" style="stroke:#181818;stroke-width:0.5;"/><text fill="#000000" font-family="sans-serif" font-size="13" lengthAdjust="spacing" textLength="227" x="1047" y="431.8506">8. This function performs a soft deletion</text><text fill="#000000" font-family="sans-serif" font-size="13" lengthAdjust="spacing" textLength="351" x="1047" y="449.1416">(remains in database, but is removed from dashboards, etc..)</text><polygon fill="#181818" points="82,481.6953,72,485.6953,82,489.6953,78,485.6953" style="stroke:#181818;stroke-width:1.0;"/><line style="stroke:#181818;stroke-width:1.0;stroke-dasharray:2.0,2.0;" x1="76" x2="356" y1="485.6953" y2="485.6953"/><text fill="#000000" font-family="sans-serif" font-size="13" font-weight="bold" lengthAdjust="spacing" textLength="14" x="88" y="480.4326">10</text><text fill="#000000" font-family="sans-serif" font-size="13" lengthAdjust="spacing" textLength="171" x="106" y="480.4326">Conflict response if count is 0</text><polygon fill="#181818" points="82,512.9863,72,516.9863,82,520.9863,78,516.9863" style="stroke:#181818;stroke-width:1.0;"/><line style="stroke:#181818;stroke-width:1.0;stroke-dasharray:2.0,2.0;" x1="76" x2="356" y1="516.9863" y2="516.9863"/><text fill="#000000" font-family="sans-serif" font-size="13" font-weight="bold" lengthAdjust="spacing" textLength="14" x="88" y="511.7236">11</text><text fill="#000000" font-family="sans-serif" font-size="13" lengthAdjust="spacing" textLength="147" x="106" y="511.7236">OK response if count is 1</text><polygon fill="#181818" points="82,544.2773,72,548.2773,82,552.2773,78,548.2773" style="stroke:#181818;stroke-width:1.0;"/><line style="stroke:#181818;stroke-width:1.0;stroke-dasharray:2.0,2.0;" x1="76" x2="356" y1="548.2773" y2="548.2773"/><text fill="#000000" font-family="sans-serif" font-size="13" font-weight="bold" lengthAdjust="spacing" textLength="14" x="88" y="543.0146">12</text><text fill="#000000" font-family="sans-serif" font-size="13" lengthAdjust="spacing" textLength="244" x="106" y="543.0146">Conflict response if count is greater than 1</text><!--SRC=[bLF1RXCn4BtxAqQva4Xf024X5AcWj4r412s8bbwHrvxTjTYrL-FPqFmzOsz2eYGNSeZMdkStxpsFTS_1zss1fBHyQiDkenaXUALa4GX6zvf-8pjVmPqZJ7iZq14MHdMQs1dNQSymcdzljByDdYaq3GwOMwRc0Ye-8csSmOn9tvSmFx0BqKctROQbvGdiiI-Y8TUn2sTmgUKJwfyZqQiM1gu-PbKmXxlbr-NJ4bvtgTidhrkyLYhN19DK2SP98uCwuZZLfr0XFoD5QRYYqAxBUysc_epQ8etTi7hMJO-JYLAPGgYI3g7AfY0tWsiedRStsmSX_PN-Clr4PUZLeNr6Anz4FhcgPWNoUpU3bPoEe7CTYYquZf0OPXcmBcK3RC3eNp7WYuiyJJjSK_WJuI7mAlJUBbyCvkmKUWkfoLxp8QD1m26L8LKfPDPuiqsk5jx-Z4Z2-z0tpJYVcQWzzeXjE7Jgv_t1JpowKP6h6MeTCuXh11E8C7R1spICsRiMvSwNWLgTppWFlKW16HI9Wv5E4pcFOotJMkbcGLNVekTBgUpjxxpdWHYi3sQdO37Asx2xsJYwo9rp8u7pgV4FCtYgNOIozoQhxv2IbPn4A4KmDfYb9FIOiDLEXaSyMisw415JA7e6eP1QsA25KgPIgh4kWYOhmf3DR3OvyoBAv2tCGTvhsJZ3C0GR4LmvY4siRqxGtxvSnhtzBzQAKDuZfVlrSlGl]--></g></svg>