<?xml version="1.0" encoding="us-ascii" standalone="no"?><svg xmlns="http://www.w3.org/2000/svg" xmlns:xlink="http://www.w3.org/1999/xlink" contentStyleType="text/css" height="277px" preserveAspectRatio="none" style="width:939px;height:277px;background:#FFFFFF;" version="1.1" viewBox="0 0 939 277" width="939px" zoomAndPan="magnify"><defs/><g><text fill="#000000" font-family="sans-serif" font-size="14" font-weight="bold" lengthAdjust="spacing" textLength="222" x="351.5" y="25.1074">Class Diagram /Login a  account</text><!--class User--><g id="elem_User"><rect codeLine="9" fill="#F1F1F1" height="81.8633" id="User" rx="2.5" ry="2.5" style="stroke:#181818;stroke-width:0.5;" width="93" x="114.5" y="188.6211"/><text fill="#000000" font-family="sans-serif" font-size="14" lengthAdjust="spacing" textLength="29" x="146.5" y="208.7285">User</text><line style="stroke:#181818;stroke-width:0.5;" x1="115.5" x2="206.5" y1="217.2422" y2="217.2422"/><rect fill="none" height="6" style="stroke:#C82930;stroke-width:1.0;" width="6" x="122.5" y="229.0527"/><text fill="#000000" font-family="sans-serif" font-size="14" lengthAdjust="spacing" textLength="67" x="134.5" y="236.3496">username;</text><rect fill="none" height="6" style="stroke:#C82930;stroke-width:1.0;" width="6" x="122.5" y="247.6738"/><text fill="#000000" font-family="sans-serif" font-size="14" lengthAdjust="spacing" textLength="64" x="134.5" y="254.9707">password;</text><line style="stroke:#181818;stroke-width:0.5;" x1="115.5" x2="206.5" y1="262.4844" y2="262.4844"/></g><!--class Role--><g id="elem_Role"><rect codeLine="14" fill="#F1F1F1" height="63.2422" id="Role" rx="2.5" ry="2.5" style="stroke:#181818;stroke-width:0.5;" width="50" x="7" y="198.1211"/><text fill="#000000" font-family="sans-serif" font-size="14" lengthAdjust="spacing" textLength="29" x="17.5" y="218.2285">Role</text><line style="stroke:#181818;stroke-width:0.5;" x1="8" x2="56" y1="226.7422" y2="226.7422"/><rect fill="none" height="6" style="stroke:#C82930;stroke-width:1.0;" width="6" x="15" y="238.5527"/><text fill="#000000" font-family="sans-serif" font-size="14" lengthAdjust="spacing" textLength="24" x="27" y="245.8496">role</text><line style="stroke:#181818;stroke-width:0.5;" x1="8" x2="56" y1="253.3633" y2="253.3633"/></g><!--class AuthApi--><g id="elem_AuthApi"><rect codeLine="18" fill="#F1F1F1" height="63.2422" id="AuthApi" rx="2.5" ry="2.5" style="stroke:#181818;stroke-width:0.5;" width="220" x="322" y="46.6211"/><text fill="#000000" font-family="sans-serif" font-size="14" lengthAdjust="spacing" textLength="49" x="407.5" y="66.7285">AuthApi</text><line style="stroke:#181818;stroke-width:0.5;" x1="323" x2="541" y1="75.2422" y2="75.2422"/><line style="stroke:#181818;stroke-width:0.5;" x1="323" x2="541" y1="83.2422" y2="83.2422"/><text fill="#000000" font-family="sans-serif" font-size="14" lengthAdjust="spacing" textLength="208" x="328" y="102.3496">login( final AuthRequest request)</text></g><!--class Authentication--><g id="elem_Authentication"><rect codeLine="24" fill="#F1F1F1" height="81.8633" id="Authentication" rx="2.5" ry="2.5" style="stroke:#181818;stroke-width:0.5;" width="378" x="243" y="188.6211"/><text fill="#000000" font-family="sans-serif" font-size="14" font-style="italic" lengthAdjust="spacing" textLength="90" x="387" y="208.7285">Authentication</text><line style="stroke:#181818;stroke-width:0.5;" x1="244" x2="620" y1="217.2422" y2="217.2422"/><line style="stroke:#181818;stroke-width:0.5;" x1="244" x2="620" y1="225.2422" y2="225.2422"/><ellipse cx="254" cy="240.0527" fill="#84BE84" rx="3" ry="3" style="stroke:#038048;stroke-width:1.0;"/><text fill="#000000" font-family="sans-serif" font-size="14" lengthAdjust="spacing" textLength="129" x="263" y="244.3496">Object getPrincipal()</text><ellipse cx="254" cy="258.6738" fill="#84BE84" rx="3" ry="3" style="stroke:#038048;stroke-width:1.0;"/><text fill="#000000" font-family="sans-serif" font-size="14" lengthAdjust="spacing" textLength="352" x="263" y="262.9707">Collection&lt;? extends GrantedAuthority&gt; getAuthorities()</text></g><!--class JwtClaimsSet--><g id="elem_JwtClaimsSet"><rect codeLine="30" fill="#F1F1F1" height="63.2422" id="JwtClaimsSet" rx="2.5" ry="2.5" style="stroke:#181818;stroke-width:0.5;" width="276" x="656" y="198.1211"/><text fill="#000000" font-family="sans-serif" font-size="14" lengthAdjust="spacing" textLength="82" x="753" y="218.2285">JwtClaimsSet</text><line style="stroke:#181818;stroke-width:0.5;" x1="657" x2="931" y1="226.7422" y2="226.7422"/><line style="stroke:#181818;stroke-width:0.5;" x1="657" x2="931" y1="234.7422" y2="234.7422"/><text fill="#000000" font-family="sans-serif" font-size="14" lengthAdjust="spacing" textLength="264" x="662" y="253.8496">JwtClaimsSet(Map&lt;String, Object&gt; claims)</text></g><!--reverse link Role to User--><g id="link_Role_User"><path codeLine="36" d="M63.18,229.6211 C79.46,229.6211 95.14,229.6211 114.48,229.6211 " fill="none" id="Role-backto-User" style="stroke:#181818;stroke-width:1.0;stroke-dasharray:7.0,7.0;"/><polygon fill="#181818" points="57.18,229.6211,66.18,233.6211,62.18,229.6211,66.18,225.6211,57.18,229.6211" style="stroke:#181818;stroke-width:1.0;"/><text fill="#000000" font-family="sans-serif" font-size="13" lengthAdjust="spacing" textLength="21" x="75.25" y="222.6494">has</text></g><!--link AuthApi to Authentication--><g id="link_AuthApi_Authentication"><path codeLine="37" d="M432,109.7311 C432,132.4611 432,157.6611 432,182.4011 " fill="none" id="AuthApi-to-Authentication" style="stroke:#181818;stroke-width:1.0;stroke-dasharray:7.0,7.0;"/><polygon fill="#181818" points="432,188.4011,436,179.4011,432,183.4011,428,179.4011,432,188.4011" style="stroke:#181818;stroke-width:1.0;"/><polygon fill="#000000" points="437,154.2666,439.9389,145.2215,434.0611,145.2215,437,154.2666" style="stroke:#000000;stroke-width:1.0;"/><text fill="#000000" font-family="sans-serif" font-size="13" lengthAdjust="spacing" textLength="28" x="446" y="154.6494">uses</text></g><!--link AuthApi to User--><g id="link_AuthApi_User"><path codeLine="38" d="M371.14,109.8511 C329.56,131.2011 273.44,160.7211 225,188.6211 C219.32,191.8911 218.5462,192.2931 212.7262,195.8331 " fill="none" id="AuthApi-to-User" style="stroke:#181818;stroke-width:1.0;stroke-dasharray:7.0,7.0;"/><polygon fill="#181818" points="207.6,198.9511,217.368,197.6916,211.8718,196.3528,213.2106,190.8566,207.6,198.9511" style="stroke:#181818;stroke-width:1.0;"/><polygon fill="#000000" points="310.6056,151.6518,319.9571,149.9199,317.1532,144.754,310.6056,151.6518" style="stroke:#000000;stroke-width:1.0;"/><text fill="#000000" font-family="sans-serif" font-size="13" lengthAdjust="spacing" textLength="28" x="324" y="154.6494">uses</text></g><!--link AuthApi to JwtClaimsSet--><g id="link_AuthApi_JwtClaimsSet"><path codeLine="39" d="M506.13,109.7311 C568.6,135.5311 651.9844,169.9706 714.4244,195.7606 " fill="none" id="AuthApi-to-JwtClaimsSet" style="stroke:#181818;stroke-width:1.0;stroke-dasharray:7.0,7.0;"/><polygon fill="#181818" points="719.97,198.0511,713.1786,190.9182,715.3487,196.1423,710.1246,198.3124,719.97,198.0511" style="stroke:#181818;stroke-width:1.0;"/><polygon fill="#000000" points="633.6213,151.1753,626.3832,145.0061,624.1393,150.4388,633.6213,151.1753" style="stroke:#000000;stroke-width:1.0;"/><text fill="#000000" font-family="sans-serif" font-size="13" lengthAdjust="spacing" textLength="28" x="638" y="154.6494">uses</text></g><!--SRC=[RP3HJiCm34NVynL-OnEqVT-cecb8I0W4siG7XDHjZTAa9Au6clRlEDqA4-8fiU_9jNElMkO-BegYjzhnqDdS-AumLiUOLQIRe3lLKeLWA1YBIYacjWYRHC3TYO3YqJVaG0DeO_pWM3Wrci1hn71G01aCSdEwmwLKaFKYxdsebkeueLjlyQ2o8CTlSprmk-ufMTWqP0OrEMt7_XO_1emCuNJEap4SqsnoZA7M1aSE7PFHJDwfWxeMvldj7Gr3W_mIo1dgjPtDHsNZhHL9qDKju2UZgoBS1ya6gsJb0_5NcLvE5M6Kjp_xFknPig4kxf1bscKvUzBzQiSoiRavhr226TNHGAMiyjnYpMNAOj7ggCx_Xpml__nbaHADK4w84CdWd_Rb4fFy3G00]--></g></svg>