<?xml version="1.0" encoding="us-ascii" standalone="no"?><svg xmlns="http://www.w3.org/2000/svg" xmlns:xlink="http://www.w3.org/1999/xlink" contentStyleType="text/css" height="548px" preserveAspectRatio="none" style="width:1241px;height:548px;background:#FFFFFF;" version="1.1" viewBox="0 0 1241 548" width="1241px" zoomAndPan="magnify"><defs/><g><text fill="#000000" font-family="sans-serif" font-size="14" font-weight="bold" lengthAdjust="spacing" textLength="673" x="283.25" y="28.5352">Sequence Diagram / As marketing director, I want to know the price change history of a plan</text><rect fill="#FFFFFF" height="299.416" style="stroke:#181818;stroke-width:1.0;" width="10" x="259" y="150.2871"/><rect fill="#FFFFFF" height="145.8633" style="stroke:#181818;stroke-width:1.0;" width="10" x="616" y="179.5977"/><rect fill="#FFFFFF" height="55.2764" style="stroke:#181818;stroke-width:1.0;" width="10" x="974" y="208.9082"/><rect fill="#FFFFFF" height="29.3105" style="stroke:#181818;stroke-width:1.0;" width="10" x="1139" y="391.082"/><line style="stroke:#181818;stroke-width:0.5;stroke-dasharray:5.0,5.0;" x1="58" x2="58" y1="118.9766" y2="467.7031"/><line style="stroke:#181818;stroke-width:0.5;stroke-dasharray:5.0,5.0;" x1="263.5" x2="263.5" y1="118.9766" y2="467.7031"/><line style="stroke:#181818;stroke-width:0.5;stroke-dasharray:5.0,5.0;" x1="621" x2="621" y1="118.9766" y2="467.7031"/><line style="stroke:#181818;stroke-width:0.5;stroke-dasharray:5.0,5.0;" x1="978.5" x2="978.5" y1="118.9766" y2="467.7031"/><line style="stroke:#181818;stroke-width:0.5;stroke-dasharray:5.0,5.0;" x1="1143.5" x2="1143.5" y1="118.9766" y2="467.7031"/><text fill="#000000" font-family="sans-serif" font-size="14" lengthAdjust="spacing" textLength="100" x="5" y="116.0234">New Customer</text><ellipse cx="58" cy="50.9883" fill="#E2E2F0" rx="8" ry="8" style="stroke:#181818;stroke-width:0.5;"/><path d="M58,58.9883 L58,85.9883 M45,66.9883 L71,66.9883 M58,85.9883 L45,100.9883 M58,85.9883 L71,100.9883 " fill="none" style="stroke:#181818;stroke-width:0.5;"/><text fill="#000000" font-family="sans-serif" font-size="14" lengthAdjust="spacing" textLength="100" x="5" y="480.2383">New Customer</text><ellipse cx="58" cy="491.6914" fill="#E2E2F0" rx="8" ry="8" style="stroke:#181818;stroke-width:0.5;"/><path d="M58,499.6914 L58,526.6914 M45,507.6914 L71,507.6914 M58,526.6914 L45,541.6914 M58,526.6914 L71,541.6914 " fill="none" style="stroke:#181818;stroke-width:0.5;"/><rect fill="#E2E2F0" height="30.4883" rx="2.5" ry="2.5" style="stroke:#181818;stroke-width:0.5;" width="117" x="205.5" y="87.4883"/><text fill="#000000" font-family="sans-serif" font-size="14" lengthAdjust="spacing" textLength="103" x="212.5" y="108.0234">:PlanController</text><rect fill="#E2E2F0" height="30.4883" rx="2.5" ry="2.5" style="stroke:#181818;stroke-width:0.5;" width="117" x="205.5" y="466.7031"/><text fill="#000000" font-family="sans-serif" font-size="14" lengthAdjust="spacing" textLength="103" x="212.5" y="487.2383">:PlanController</text><rect fill="#E2E2F0" height="30.4883" rx="2.5" ry="2.5" style="stroke:#181818;stroke-width:0.5;" width="102" x="570" y="87.4883"/><text fill="#000000" font-family="sans-serif" font-size="14" lengthAdjust="spacing" textLength="88" x="577" y="108.0234">:PlansService</text><rect fill="#E2E2F0" height="30.4883" rx="2.5" ry="2.5" style="stroke:#181818;stroke-width:0.5;" width="102" x="570" y="466.7031"/><text fill="#000000" font-family="sans-serif" font-size="14" lengthAdjust="spacing" textLength="88" x="577" y="487.2383">:PlansService</text><rect fill="#E2E2F0" height="30.4883" rx="2.5" ry="2.5" style="stroke:#181818;stroke-width:0.5;" width="127" x="915.5" y="87.4883"/><text fill="#000000" font-family="sans-serif" font-size="14" lengthAdjust="spacing" textLength="113" x="922.5" y="108.0234">:PlansRepository</text><rect fill="#E2E2F0" height="30.4883" rx="2.5" ry="2.5" style="stroke:#181818;stroke-width:0.5;" width="127" x="915.5" y="466.7031"/><text fill="#000000" font-family="sans-serif" font-size="14" lengthAdjust="spacing" textLength="113" x="922.5" y="487.2383">:PlansRepository</text><rect fill="#E2E2F0" height="30.4883" rx="2.5" ry="2.5" style="stroke:#181818;stroke-width:0.5;" width="183" x="1052.5" y="87.4883"/><text fill="#000000" font-family="sans-serif" font-size="14" lengthAdjust="spacing" textLength="169" x="1059.5" y="108.0234">:FeeRevisionViewMapper</text><rect fill="#E2E2F0" height="30.4883" rx="2.5" ry="2.5" style="stroke:#181818;stroke-width:0.5;" width="183" x="1052.5" y="466.7031"/><text fill="#000000" font-family="sans-serif" font-size="14" lengthAdjust="spacing" textLength="169" x="1059.5" y="487.2383">:FeeRevisionViewMapper</text><rect fill="#FFFFFF" height="299.416" style="stroke:#181818;stroke-width:1.0;" width="10" x="259" y="150.2871"/><rect fill="#FFFFFF" height="145.8633" style="stroke:#181818;stroke-width:1.0;" width="10" x="616" y="179.5977"/><rect fill="#FFFFFF" height="55.2764" style="stroke:#181818;stroke-width:1.0;" width="10" x="974" y="208.9082"/><rect fill="#FFFFFF" height="29.3105" style="stroke:#181818;stroke-width:1.0;" width="10" x="1139" y="391.082"/><polygon fill="#181818" points="247,146.2871,257,150.2871,247,154.2871,251,150.2871" style="stroke:#181818;stroke-width:1.0;"/><line style="stroke:#181818;stroke-width:1.0;" x1="58" x2="253" y1="150.2871" y2="150.2871"/><text fill="#000000" font-family="sans-serif" font-size="13" font-weight="bold" lengthAdjust="spacing" textLength="9" x="65" y="145.5449">1</text><text fill="#000000" font-family="sans-serif" font-size="13" lengthAdjust="spacing" textLength="169" x="78" y="145.5449">GET /plans/history/{name}</text><polygon fill="#181818" points="604,175.5977,614,179.5977,604,183.5977,608,179.5977" style="stroke:#181818;stroke-width:1.0;"/><line style="stroke:#181818;stroke-width:1.0;" x1="269" x2="610" y1="179.5977" y2="179.5977"/><text fill="#000000" font-family="sans-serif" font-size="13" font-weight="bold" lengthAdjust="spacing" textLength="9" x="276" y="174.8555">2</text><text fill="#000000" font-family="sans-serif" font-size="13" lengthAdjust="spacing" textLength="315" x="289" y="174.8555">List&lt;FeeRevisionView&gt; list = history(string name)</text><polygon fill="#181818" points="962,204.9082,972,208.9082,962,212.9082,966,208.9082" style="stroke:#181818;stroke-width:1.0;"/><line style="stroke:#181818;stroke-width:1.0;" x1="626" x2="968" y1="208.9082" y2="208.9082"/><text fill="#000000" font-family="sans-serif" font-size="13" font-weight="bold" lengthAdjust="spacing" textLength="9" x="633" y="204.166">3</text><text fill="#000000" font-family="sans-serif" font-size="13" lengthAdjust="spacing" textLength="316" x="646" y="204.166">Optional&lt;Plans&gt; plan = findByName_Name(name)</text><polygon fill="#181818" points="637,260.1846,627,264.1846,637,268.1846,633,264.1846" style="stroke:#181818;stroke-width:1.0;"/><line style="stroke:#181818;stroke-width:1.0;stroke-dasharray:2.0,2.0;" x1="631" x2="978" y1="264.1846" y2="264.1846"/><text fill="#000000" font-family="sans-serif" font-size="13" font-weight="bold" lengthAdjust="spacing" textLength="9" x="643" y="259.4424">4</text><text fill="#000000" font-family="sans-serif" font-size="13" lengthAdjust="spacing" textLength="27" x="656" y="259.4424">plan</text><path d="M322,221.9082 L322,292.9082 L611,292.9082 L611,231.9082 L601,221.9082 L322,221.9082 " fill="#FEFFDD" style="stroke:#181818;stroke-width:0.5;"/><path d="M601,221.9082 L601,231.9082 L611,231.9082 L601,221.9082 " fill="#FEFFDD" style="stroke:#181818;stroke-width:0.5;"/><text fill="#000000" font-family="sans-serif" font-size="13" lengthAdjust="spacing" textLength="213" x="328" y="239.4766">1) Service will check if plan exists</text><text fill="#000000" font-family="sans-serif" font-size="13" lengthAdjust="spacing" textLength="4" x="328" y="254.7871">&#160;</text><text fill="#000000" font-family="sans-serif" font-size="13" lengthAdjust="spacing" textLength="99" x="328" y="270.0977">If 1 comes true,</text><text fill="#000000" font-family="sans-serif" font-size="13" lengthAdjust="spacing" textLength="268" x="328" y="285.4082">Service will trow IllegalArgumentException</text><line style="stroke:#181818;stroke-width:1.0;stroke-dasharray:2.0,2.0;" x1="626" x2="668" y1="324.4609" y2="324.4609"/><line style="stroke:#181818;stroke-width:1.0;stroke-dasharray:2.0,2.0;" x1="668" x2="668" y1="324.4609" y2="337.4609"/><line style="stroke:#181818;stroke-width:1.0;stroke-dasharray:2.0,2.0;" x1="621" x2="668" y1="337.4609" y2="337.4609"/><polygon fill="#181818" points="631,333.4609,621,337.4609,631,341.4609,627,337.4609" style="stroke:#181818;stroke-width:1.0;"/><text fill="#000000" font-family="sans-serif" font-size="13" font-weight="bold" lengthAdjust="spacing" textLength="9" x="633" y="319.7188">5</text><text fill="#000000" font-family="sans-serif" font-size="13" lengthAdjust="spacing" textLength="310" x="646" y="319.7188">List&lt;FeeRevision&gt; list = plans.getFeeRevisions();</text><polygon fill="#181818" points="280,357.7715,270,361.7715,280,365.7715,276,361.7715" style="stroke:#181818;stroke-width:1.0;"/><line style="stroke:#181818;stroke-width:1.0;stroke-dasharray:2.0,2.0;" x1="274" x2="620" y1="361.7715" y2="361.7715"/><text fill="#000000" font-family="sans-serif" font-size="13" font-weight="bold" lengthAdjust="spacing" textLength="9" x="286" y="357.0293">6</text><text fill="#000000" font-family="sans-serif" font-size="13" lengthAdjust="spacing" textLength="20" x="299" y="357.0293">list</text><polygon fill="#181818" points="1127,387.082,1137,391.082,1127,395.082,1131,391.082" style="stroke:#181818;stroke-width:1.0;"/><line style="stroke:#181818;stroke-width:1.0;" x1="269" x2="1133" y1="391.082" y2="391.082"/><text fill="#000000" font-family="sans-serif" font-size="13" font-weight="bold" lengthAdjust="spacing" textLength="9" x="276" y="386.3398">7</text><text fill="#000000" font-family="sans-serif" font-size="13" lengthAdjust="spacing" textLength="98" x="289" y="386.3398">toFeesView(list)</text><polygon fill="#181818" points="280,416.3926,270,420.3926,280,424.3926,276,420.3926" style="stroke:#181818;stroke-width:1.0;"/><line style="stroke:#181818;stroke-width:1.0;stroke-dasharray:2.0,2.0;" x1="274" x2="1143" y1="420.3926" y2="420.3926"/><text fill="#000000" font-family="sans-serif" font-size="13" font-weight="bold" lengthAdjust="spacing" textLength="9" x="286" y="415.6504">8</text><text fill="#000000" font-family="sans-serif" font-size="13" lengthAdjust="spacing" textLength="48" x="299" y="415.6504">feeView</text><polygon fill="#181818" points="69,445.7031,59,449.7031,69,453.7031,65,449.7031" style="stroke:#181818;stroke-width:1.0;"/><line style="stroke:#181818;stroke-width:1.0;stroke-dasharray:2.0,2.0;" x1="63" x2="263" y1="449.7031" y2="449.7031"/><text fill="#000000" font-family="sans-serif" font-size="13" font-weight="bold" lengthAdjust="spacing" textLength="9" x="75" y="444.9609">9</text><text fill="#000000" font-family="sans-serif" font-size="13" lengthAdjust="spacing" textLength="48" x="88" y="444.9609">feeView</text><!--SRC=[RPBDRjim48JlV8g1BxM1E4Akgcl0STF2G9iMIT5hmSWhcJ15gkJAIb3qtRkavIGrSX7uCz_kS5RlTinTB8kYizfntzhBohT5fDyzkOhcMwERe5kbU_QwOdFGJF0kxrtVFb1GRDWIS3yY-7X4K60LqUgm9pQkmTO4gjY72smmI2kmnzxv0RmZTC48MUsqQmWx4qNt15z38zbIhzifdQfWSai3rhqeMmeJw8XLfJeTs5IcI-KdvNT1rzvnyDQEcZK7-uOgtbCuY8EiIUktD7VK-MYIionBspFP9w8xEfXelFjfQFYgksxicxPAhIhCbza3Ido- -O4SUYp61nT_d6xfhye24IOZAB_8vUAiyX9MJl7X5DKqSaWP9twcL0QbGBA8ybl7WccxoAzOvaG5hOtRNZ_T2l4hVQOZcvdvsBqynk-y3DrIpUfgXZ4g3CPQcHXLUvZwM9GUnKvKQbFZ2l8RKGI7dYxKVupCOy16Hj9ekmfDtvBZcyUAiar5RelKx_IAvnnm7iHp23d4ouRurMMSpjw_b4Y9bbb-2ZUbMCelA4XCwscwdAcqV05geZmucTjYFZyDxdJw3m00]--></g></svg>