<?xml version="1.0" encoding="us-ascii" standalone="no"?><svg xmlns="http://www.w3.org/2000/svg" xmlns:xlink="http://www.w3.org/1999/xlink" contentStyleType="text/css" height="556px" preserveAspectRatio="none" style="width:1110px;height:556px;background:#FFFFFF;" version="1.1" viewBox="0 0 1110 556" width="1110px" zoomAndPan="magnify"><defs/><g><!--class DeviceRepository--><g id="elem_DeviceRepository"><rect codeLine="24" fill="#F1F1F1" height="79.2031" id="DeviceRepository" rx="2.5" ry="2.5" style="stroke:#181818;stroke-width:0.5;" width="422" x="7" y="291"/><text fill="#000000" font-family="sans-serif" font-size="12" font-style="italic" lengthAdjust="spacing" textLength="61" x="187.5" y="308.9492">&#171;interface&#187;</text><text fill="#000000" font-family="sans-serif" font-size="14" font-style="italic" lengthAdjust="spacing" textLength="110" x="163" y="327.0684">DeviceRepository</text><line style="stroke:#181818;stroke-width:0.5;" x1="8" x2="428" y1="335.582" y2="335.582"/><line style="stroke:#181818;stroke-width:0.5;" x1="8" x2="428" y1="343.582" y2="343.582"/><ellipse cx="18" cy="358.3926" fill="#84BE84" rx="3" ry="3" style="stroke:#038048;stroke-width:1.0;"/><text fill="#000000" font-family="sans-serif" font-size="14" lengthAdjust="spacing" textLength="396" x="27" y="362.6895">findAllBySubscription(Subscriptions subscription): List&lt;Device&gt;</text></g><!--class UserRepository--><g id="elem_UserRepository"><rect codeLine="29" fill="#F1F1F1" height="79.2031" id="UserRepository" rx="2.5" ry="2.5" style="stroke:#181818;stroke-width:0.5;" width="277" x="464.5" y="291"/><text fill="#000000" font-family="sans-serif" font-size="12" font-style="italic" lengthAdjust="spacing" textLength="61" x="572.5" y="308.9492">&#171;interface&#187;</text><text fill="#000000" font-family="sans-serif" font-size="14" font-style="italic" lengthAdjust="spacing" textLength="98" x="554" y="327.0684">UserRepository</text><line style="stroke:#181818;stroke-width:0.5;" x1="465.5" x2="740.5" y1="335.582" y2="335.582"/><line style="stroke:#181818;stroke-width:0.5;" x1="465.5" x2="740.5" y1="343.582" y2="343.582"/><ellipse cx="475.5" cy="358.3926" fill="#84BE84" rx="3" ry="3" style="stroke:#038048;stroke-width:1.0;"/><text fill="#000000" font-family="sans-serif" font-size="14" lengthAdjust="spacing" textLength="251" x="484.5" y="362.6895">findById(Long objectId): Optional&lt;User&gt;</text></g><!--class SubscriptionRepository--><g id="elem_SubscriptionRepository"><rect codeLine="34" fill="#F1F1F1" height="79.2031" id="SubscriptionRepository" rx="2.5" ry="2.5" style="stroke:#181818;stroke-width:0.5;" width="327" x="776.5" y="291"/><text fill="#000000" font-family="sans-serif" font-size="12" font-style="italic" lengthAdjust="spacing" textLength="61" x="909.5" y="308.9492">&#171;interface&#187;</text><text fill="#000000" font-family="sans-serif" font-size="14" font-style="italic" lengthAdjust="spacing" textLength="146" x="867" y="327.0684">SubscriptionRepository</text><line style="stroke:#181818;stroke-width:0.5;" x1="777.5" x2="1102.5" y1="335.582" y2="335.582"/><line style="stroke:#181818;stroke-width:0.5;" x1="777.5" x2="1102.5" y1="343.582" y2="343.582"/><ellipse cx="787.5" cy="358.3926" fill="#84BE84" rx="3" ry="3" style="stroke:#038048;stroke-width:1.0;"/><text fill="#000000" font-family="sans-serif" font-size="14" lengthAdjust="spacing" textLength="301" x="796.5" y="362.6895">findByUser(User user): Optional&lt;Subscriptions&gt;</text></g><!--class Device--><g id="elem_Device"><rect codeLine="8" fill="#F1F1F1" height="100.4844" id="Device" rx="2.5" ry="2.5" style="stroke:#181818;stroke-width:0.5;" width="104" x="166" y="449"/><text fill="#000000" font-family="sans-serif" font-size="14" lengthAdjust="spacing" textLength="43" x="196.5" y="469.1074">Device</text><line style="stroke:#181818;stroke-width:0.5;" x1="167" x2="269" y1="477.6211" y2="477.6211"/><rect fill="none" height="6" style="stroke:#C82930;stroke-width:1.0;" width="6" x="174" y="489.4316"/><text fill="#000000" font-family="sans-serif" font-size="14" lengthAdjust="spacing" textLength="78" x="186" y="496.7285">macAddress</text><rect fill="none" height="6" style="stroke:#C82930;stroke-width:1.0;" width="6" x="174" y="508.0527"/><text fill="#000000" font-family="sans-serif" font-size="14" lengthAdjust="spacing" textLength="35" x="186" y="515.3496">name</text><rect fill="none" height="6" style="stroke:#C82930;stroke-width:1.0;" width="6" x="174" y="526.6738"/><text fill="#000000" font-family="sans-serif" font-size="14" lengthAdjust="spacing" textLength="69" x="186" y="533.9707">description</text><line style="stroke:#181818;stroke-width:0.5;" x1="167" x2="269" y1="541.4844" y2="541.4844"/></g><!--class DeviceViewMapper--><g id="elem_DeviceViewMapper"><rect codeLine="13" fill="#F1F1F1" height="63.2422" id="DeviceViewMapper" rx="2.5" ry="2.5" style="stroke:#181818;stroke-width:0.5;" width="428" x="11" y="149"/><text fill="#000000" font-family="sans-serif" font-size="14" lengthAdjust="spacing" textLength="120" x="165" y="169.1074">DeviceViewMapper</text><line style="stroke:#181818;stroke-width:0.5;" x1="12" x2="438" y1="177.6211" y2="177.6211"/><line style="stroke:#181818;stroke-width:0.5;" x1="12" x2="438" y1="185.6211" y2="185.6211"/><ellipse cx="22" cy="200.4316" fill="#84BE84" rx="3" ry="3" style="stroke:#038048;stroke-width:1.0;"/><text fill="#000000" font-family="sans-serif" font-size="14" lengthAdjust="spacing" textLength="402" x="31" y="204.7285">toDevicesView(Iterable&lt;Device&gt; devices): Iterable&lt;DeviceView&gt;</text></g><!--class DeviceController--><g id="elem_DeviceController"><rect codeLine="16" fill="#F1F1F1" height="63.2422" id="DeviceController" rx="2.5" ry="2.5" style="stroke:#181818;stroke-width:0.5;" width="298" x="117" y="7"/><text fill="#000000" font-family="sans-serif" font-size="14" lengthAdjust="spacing" textLength="105" x="213.5" y="27.1074">DeviceController</text><line style="stroke:#181818;stroke-width:0.5;" x1="118" x2="414" y1="35.6211" y2="35.6211"/><line style="stroke:#181818;stroke-width:0.5;" x1="118" x2="414" y1="43.6211" y2="43.6211"/><text fill="#000000" font-family="sans-serif" font-size="14" lengthAdjust="spacing" textLength="286" x="123" y="62.7285">findAllDevicesByUser(): Iterable&lt;DeviceView&gt;</text></g><!--class DeviceService--><g id="elem_DeviceService"><rect codeLine="19" fill="#F1F1F1" height="63.2422" id="DeviceService" rx="2.5" ry="2.5" style="stroke:#181818;stroke-width:0.5;" width="258" x="474" y="149"/><text fill="#000000" font-family="sans-serif" font-size="14" lengthAdjust="spacing" textLength="90" x="558" y="169.1074">DeviceService</text><line style="stroke:#181818;stroke-width:0.5;" x1="475" x2="731" y1="177.6211" y2="177.6211"/><line style="stroke:#181818;stroke-width:0.5;" x1="475" x2="731" y1="185.6211" y2="185.6211"/><ellipse cx="485" cy="200.4316" fill="#84BE84" rx="3" ry="3" style="stroke:#038048;stroke-width:1.0;"/><text fill="#000000" font-family="sans-serif" font-size="14" lengthAdjust="spacing" textLength="232" x="494" y="204.7285">findAllDevicesByUser(): List&lt;Device&gt;</text></g><!--link DeviceController to DeviceService--><g id="link_DeviceController_DeviceService"><path codeLine="40" d="M339.54,70.05 C394.26,92.78 468.82,123.76 524.66,146.96 " fill="none" id="DeviceController-to-DeviceService" style="stroke:#181818;stroke-width:1.0;stroke-dasharray:7.0,7.0;"/><polygon fill="#181818" points="529.33,148.89,522.5498,141.7466,524.7117,146.974,519.4842,149.1359,529.33,148.89" style="stroke:#181818;stroke-width:1.0;"/><polygon fill="#000000" points="463.6174,111.5638,456.392,105.3795,454.1369,110.8076,463.6174,111.5638" style="stroke:#000000;stroke-width:1.0;"/><text fill="#000000" font-family="sans-serif" font-size="13" lengthAdjust="spacing" textLength="28" x="468" y="115.0283">uses</text></g><!--link DeviceService to DeviceRepository--><g id="link_DeviceService_DeviceRepository"><path codeLine="41" d="M523.23,212.17 C465.27,234.45 386.26,264.82 323.15,289.08 " fill="none" id="DeviceService-to-DeviceRepository" style="stroke:#181818;stroke-width:1.0;stroke-dasharray:7.0,7.0;"/><polygon fill="#181818" points="318.25,290.96,328.0863,291.4565,322.9156,289.1622,325.2099,283.9915,318.25,290.96" style="stroke:#181818;stroke-width:1.0;"/><polygon fill="#000000" points="444.3329,253.4395,453.8302,252.9374,451.7213,247.4509,444.3329,253.4395" style="stroke:#000000;stroke-width:1.0;"/><text fill="#000000" font-family="sans-serif" font-size="13" lengthAdjust="spacing" textLength="28" x="458" y="257.0283">uses</text></g><!--link DeviceService to UserRepository--><g id="link_DeviceService_UserRepository"><path codeLine="42" d="M603,212.17 C603,233.42 603,262.03 603,285.69 " fill="none" id="DeviceService-to-UserRepository" style="stroke:#181818;stroke-width:1.0;stroke-dasharray:7.0,7.0;"/><polygon fill="#181818" points="603,290.96,607,281.96,603,285.96,599,281.96,603,290.96" style="stroke:#181818;stroke-width:1.0;"/><polygon fill="#000000" points="608,256.6455,610.9389,247.6004,605.0611,247.6004,608,256.6455" style="stroke:#000000;stroke-width:1.0;"/><text fill="#000000" font-family="sans-serif" font-size="13" lengthAdjust="spacing" textLength="28" x="617" y="257.0283">uses</text></g><!--link DeviceService to SubscriptionRepository--><g id="link_DeviceService_SubscriptionRepository"><path codeLine="43" d="M672.83,212.17 C723.46,234.4 792.44,264.7 847.63,288.93 " fill="none" id="DeviceService-to-SubscriptionRepository" style="stroke:#181818;stroke-width:1.0;stroke-dasharray:7.0,7.0;"/><polygon fill="#181818" points="852.25,290.96,845.6079,283.688,847.6692,288.9559,842.4013,291.0173,852.25,290.96" style="stroke:#181818;stroke-width:1.0;"/><polygon fill="#000000" points="790.578,253.6559,783.4779,247.3282,781.1146,252.71,790.578,253.6559" style="stroke:#000000;stroke-width:1.0;"/><text fill="#000000" font-family="sans-serif" font-size="13" lengthAdjust="spacing" textLength="28" x="795" y="257.0283">uses</text></g><!--link DeviceRepository to Device--><g id="link_DeviceRepository_Device"><path codeLine="44" d="M218,370.12 C218,392 218,419.73 218,443.76 " fill="none" id="DeviceRepository-to-Device" style="stroke:#181818;stroke-width:1.0;stroke-dasharray:7.0,7.0;"/><polygon fill="#181818" points="218,448.83,222,439.83,218,443.83,214,439.83,218,448.83" style="stroke:#181818;stroke-width:1.0;"/><polygon fill="#000000" points="223,404.6455,220.0611,413.6906,225.9389,413.6906,223,404.6455" style="stroke:#000000;stroke-width:1.0;"/><text fill="#000000" font-family="sans-serif" font-size="13" lengthAdjust="spacing" textLength="36" x="232" y="415.0283">record</text></g><!--link DeviceController to DeviceViewMapper--><g id="link_DeviceController_DeviceViewMapper"><path codeLine="45" d="M257,70.22 C250.65,91.92 242.11,121.07 235.45,143.81 " fill="none" id="DeviceController-to-DeviceViewMapper" style="stroke:#181818;stroke-width:1.0;stroke-dasharray:7.0,7.0;"/><polygon fill="#181818" points="233.98,148.85,240.34,141.33,235.38,144.05,232.66,139.09,233.98,148.85" style="stroke:#181818;stroke-width:1.0;"/><polygon fill="#000000" points="251.5948,114.444,256.9573,106.5894,251.3163,104.9375,251.5948,114.444" style="stroke:#000000;stroke-width:1.0;"/><text fill="#000000" font-family="sans-serif" font-size="13" lengthAdjust="spacing" textLength="28" x="262" y="115.0283">uses</text></g><!--SRC=[XPBVQy8m4CVVyrVaRHsYlfTIqEsbu1XCjlUOd9gH9YMNRXJP_xwcjTfarVKXz7BV-zolF1oTgp1TBYl5jAjBjU2cN7B54ET2ieDb9JbA0PHBonMGpaEVuKjoU8FAe7J6DZJBf7PWzun3dfz5xmZs7ycstY6tidBIw9jI4YGz4Tf-yvBnbH0M47jRinBwFm4N9Fa9GZyaVB-mgWBRGsREz0xqdgHeKxATWgo_pAdedOyfZLnUdaVm9wETDKeDyBtKOgNKES6wyTD8Rg5yG8ZRWZrtExj5saXqGwsahOPSXlPdF-H41iow6Gyz6Hj8SMJ56O84uMu7_BefHB8n-a3DxXEuAqGBUUreJ6K-9i9Cx_-Awrhr1wtROmmBwkwe9Du3NIpoS9gfno3DIN0xqbrhk2CDUxyZdEuk2XWz-siTASse1MwicEmgViu3yXS0]--></g></svg>