<?xml version="1.0" encoding="us-ascii" standalone="no"?><svg xmlns="http://www.w3.org/2000/svg" xmlns:xlink="http://www.w3.org/1999/xlink" contentStyleType="text/css" height="707px" preserveAspectRatio="none" style="width:941px;height:707px;background:#FFFFFF;" version="1.1" viewBox="0 0 941 707" width="941px" zoomAndPan="magnify"><defs/><g><rect fill="#FFFFFF" height="489.8203" style="stroke:#181818;stroke-width:1.0;" width="10" x="215" y="116.9121"/><rect fill="#FFFFFF" height="398.3018" style="stroke:#181818;stroke-width:1.0;" width="10" x="390" y="148.2031"/><rect fill="#FFFFFF" height="68.873" style="stroke:#181818;stroke-width:1.0;" width="10" x="560" y="179.4941"/><rect fill="#FFFFFF" height="68.873" style="stroke:#181818;stroke-width:1.0;" width="10" x="709.5" y="317.2402"/><rect fill="#FFFFFF" height="31.291" style="stroke:#181818;stroke-width:1.0;" width="10" x="866" y="454.9863"/><line style="stroke:#181818;stroke-width:0.5;stroke-dasharray:5.0,5.0;" x1="72" x2="72" y1="83.6211" y2="624.7324"/><line style="stroke:#181818;stroke-width:0.5;stroke-dasharray:5.0,5.0;" x1="219.5" x2="219.5" y1="83.6211" y2="624.7324"/><line style="stroke:#181818;stroke-width:0.5;stroke-dasharray:5.0,5.0;" x1="395" x2="395" y1="83.6211" y2="624.7324"/><line style="stroke:#181818;stroke-width:0.5;stroke-dasharray:5.0,5.0;" x1="564.5" x2="564.5" y1="83.6211" y2="624.7324"/><line style="stroke:#181818;stroke-width:0.5;stroke-dasharray:5.0,5.0;" x1="714.5" x2="714.5" y1="83.6211" y2="624.7324"/><line style="stroke:#181818;stroke-width:0.5;stroke-dasharray:5.0,5.0;" x1="870.5" x2="870.5" y1="83.6211" y2="624.7324"/><text fill="#000000" font-family="sans-serif" font-size="14" lengthAdjust="spacing" textLength="68" x="35" y="80.1074">Subscriber</text><ellipse cx="72" cy="13.5" fill="#E2E2F0" rx="8" ry="8" style="stroke:#181818;stroke-width:0.5;"/><path d="M72,21.5 L72,48.5 M59,29.5 L85,29.5 M72,48.5 L59,63.5 M72,48.5 L85,63.5 " fill="none" style="stroke:#181818;stroke-width:0.5;"/><text fill="#000000" font-family="sans-serif" font-size="14" lengthAdjust="spacing" textLength="68" x="35" y="638.8398">Subscriber</text><ellipse cx="72" cy="650.8535" fill="#E2E2F0" rx="8" ry="8" style="stroke:#181818;stroke-width:0.5;"/><path d="M72,658.8535 L72,685.8535 M59,666.8535 L85,666.8535 M72,685.8535 L59,700.8535 M72,685.8535 L85,700.8535 " fill="none" style="stroke:#181818;stroke-width:0.5;"/><rect fill="#E2E2F0" height="32.6211" rx="2.5" ry="2.5" style="stroke:#181818;stroke-width:0.5;" width="123" x="158.5" y="50"/><text fill="#000000" font-family="sans-serif" font-size="14" lengthAdjust="spacing" textLength="109" x="165.5" y="72.1074">:DeviceController</text><rect fill="#E2E2F0" height="32.6211" rx="2.5" ry="2.5" style="stroke:#181818;stroke-width:0.5;" width="123" x="158.5" y="623.7324"/><text fill="#000000" font-family="sans-serif" font-size="14" lengthAdjust="spacing" textLength="109" x="165.5" y="645.8398">:DeviceController</text><rect fill="#E2E2F0" height="32.6211" rx="2.5" ry="2.5" style="stroke:#181818;stroke-width:0.5;" width="108" x="341" y="50"/><text fill="#000000" font-family="sans-serif" font-size="14" lengthAdjust="spacing" textLength="94" x="348" y="72.1074">:DeviceService</text><rect fill="#E2E2F0" height="32.6211" rx="2.5" ry="2.5" style="stroke:#181818;stroke-width:0.5;" width="108" x="341" y="623.7324"/><text fill="#000000" font-family="sans-serif" font-size="14" lengthAdjust="spacing" textLength="94" x="348" y="645.8398">:DeviceService</text><rect fill="#E2E2F0" height="32.6211" rx="2.5" ry="2.5" style="stroke:#181818;stroke-width:0.5;" width="115" x="507.5" y="50"/><text fill="#000000" font-family="sans-serif" font-size="14" lengthAdjust="spacing" textLength="101" x="514.5" y="72.1074">:UserRepository</text><rect fill="#E2E2F0" height="32.6211" rx="2.5" ry="2.5" style="stroke:#181818;stroke-width:0.5;" width="115" x="507.5" y="623.7324"/><text fill="#000000" font-family="sans-serif" font-size="14" lengthAdjust="spacing" textLength="101" x="514.5" y="645.8398">:UserRepository</text><rect fill="#E2E2F0" height="32.6211" rx="2.5" ry="2.5" style="stroke:#181818;stroke-width:0.5;" width="164" x="632.5" y="50"/><text fill="#000000" font-family="sans-serif" font-size="14" lengthAdjust="spacing" textLength="150" x="639.5" y="72.1074">:SubscriptionRepository</text><rect fill="#E2E2F0" height="32.6211" rx="2.5" ry="2.5" style="stroke:#181818;stroke-width:0.5;" width="164" x="632.5" y="623.7324"/><text fill="#000000" font-family="sans-serif" font-size="14" lengthAdjust="spacing" textLength="150" x="639.5" y="645.8398">:SubscriptionRepository</text><rect fill="#E2E2F0" height="32.6211" rx="2.5" ry="2.5" style="stroke:#181818;stroke-width:0.5;" width="129" x="806.5" y="50"/><text fill="#000000" font-family="sans-serif" font-size="14" lengthAdjust="spacing" textLength="115" x="813.5" y="72.1074">:DeviceRepository</text><rect fill="#E2E2F0" height="32.6211" rx="2.5" ry="2.5" style="stroke:#181818;stroke-width:0.5;" width="129" x="806.5" y="623.7324"/><text fill="#000000" font-family="sans-serif" font-size="14" lengthAdjust="spacing" textLength="115" x="813.5" y="645.8398">:DeviceRepository</text><rect fill="#FFFFFF" height="489.8203" style="stroke:#181818;stroke-width:1.0;" width="10" x="215" y="116.9121"/><rect fill="#FFFFFF" height="398.3018" style="stroke:#181818;stroke-width:1.0;" width="10" x="390" y="148.2031"/><rect fill="#FFFFFF" height="68.873" style="stroke:#181818;stroke-width:1.0;" width="10" x="560" y="179.4941"/><rect fill="#FFFFFF" height="68.873" style="stroke:#181818;stroke-width:1.0;" width="10" x="709.5" y="317.2402"/><rect fill="#FFFFFF" height="31.291" style="stroke:#181818;stroke-width:1.0;" width="10" x="866" y="454.9863"/><polygon fill="#181818" points="203,112.9121,213,116.9121,203,120.9121,207,116.9121" style="stroke:#181818;stroke-width:1.0;"/><line style="stroke:#181818;stroke-width:1.0;" x1="72" x2="209" y1="116.9121" y2="116.9121"/><text fill="#000000" font-family="sans-serif" font-size="13" font-weight="bold" lengthAdjust="spacing" textLength="7" x="79" y="111.6494">1</text><text fill="#000000" font-family="sans-serif" font-size="13" lengthAdjust="spacing" textLength="87" x="90" y="111.6494">GET /device/all</text><polygon fill="#181818" points="378,144.2031,388,148.2031,378,152.2031,382,148.2031" style="stroke:#181818;stroke-width:1.0;"/><line style="stroke:#181818;stroke-width:1.0;" x1="225" x2="384" y1="148.2031" y2="148.2031"/><text fill="#000000" font-family="sans-serif" font-size="13" font-weight="bold" lengthAdjust="spacing" textLength="7" x="232" y="142.9404">2</text><text fill="#000000" font-family="sans-serif" font-size="13" lengthAdjust="spacing" textLength="135" x="243" y="142.9404">findAllDevicesByUser();</text><polygon fill="#181818" points="548,175.4941,558,179.4941,548,183.4941,552,179.4941" style="stroke:#181818;stroke-width:1.0;"/><line style="stroke:#181818;stroke-width:1.0;" x1="400" x2="554" y1="179.4941" y2="179.4941"/><text fill="#000000" font-family="sans-serif" font-size="13" font-weight="bold" lengthAdjust="spacing" textLength="7" x="407" y="174.2314">3</text><text fill="#000000" font-family="sans-serif" font-size="13" lengthAdjust="spacing" textLength="130" x="418" y="174.2314">user = findById(userId)</text><polygon fill="#181818" points="411,244.3672,401,248.3672,411,252.3672,407,248.3672" style="stroke:#181818;stroke-width:1.0;"/><line style="stroke:#181818;stroke-width:1.0;stroke-dasharray:2.0,2.0;" x1="405" x2="564" y1="248.3672" y2="248.3672"/><text fill="#000000" font-family="sans-serif" font-size="13" font-weight="bold" lengthAdjust="spacing" textLength="7" x="417" y="243.1045">4</text><text fill="#000000" font-family="sans-serif" font-size="13" lengthAdjust="spacing" textLength="25" x="428" y="243.1045">user</text><path d="M575,192.4941 L575,288.4941 L755,288.4941 L755,202.4941 L745,192.4941 L575,192.4941 " fill="#FEFFDD" style="stroke:#181818;stroke-width:0.5;"/><path d="M745,192.4941 L745,202.4941 L755,202.4941 L745,192.4941 " fill="#FEFFDD" style="stroke:#181818;stroke-width:0.5;"/><text fill="#000000" font-family="sans-serif" font-size="13" lengthAdjust="spacing" textLength="84" x="581" y="211.5225">if the user isn't</text><text fill="#000000" font-family="sans-serif" font-size="13" lengthAdjust="spacing" textLength="52" x="581" y="228.8135">logged in</text><text fill="#000000" font-family="sans-serif" font-size="13" lengthAdjust="spacing" textLength="72" x="581" y="246.1045">the code will</text><text fill="#000000" font-family="sans-serif" font-size="13" lengthAdjust="spacing" textLength="110" x="581" y="263.3955">end here and throw</text><text fill="#000000" font-family="sans-serif" font-size="13" lengthAdjust="spacing" textLength="159" x="581" y="280.6865">a EntityNotFoundException</text><polygon fill="#181818" points="697.5,313.2402,707.5,317.2402,697.5,321.2402,701.5,317.2402" style="stroke:#181818;stroke-width:1.0;"/><line style="stroke:#181818;stroke-width:1.0;" x1="400" x2="703.5" y1="317.2402" y2="317.2402"/><text fill="#000000" font-family="sans-serif" font-size="13" font-weight="bold" lengthAdjust="spacing" textLength="7" x="407" y="311.9775">5</text><text fill="#000000" font-family="sans-serif" font-size="13" lengthAdjust="spacing" textLength="182" x="418" y="311.9775">subscription = findByUser(user)</text><polygon fill="#181818" points="411,382.1133,401,386.1133,411,390.1133,407,386.1133" style="stroke:#181818;stroke-width:1.0;"/><line style="stroke:#181818;stroke-width:1.0;stroke-dasharray:2.0,2.0;" x1="405" x2="713.5" y1="386.1133" y2="386.1133"/><text fill="#000000" font-family="sans-serif" font-size="13" font-weight="bold" lengthAdjust="spacing" textLength="7" x="417" y="380.8506">6</text><text fill="#000000" font-family="sans-serif" font-size="13" lengthAdjust="spacing" textLength="70" x="428" y="380.8506">subscription</text><path d="M724,330.2402 L724,426.2402 L904,426.2402 L904,340.2402 L894,330.2402 L724,330.2402 " fill="#FEFFDD" style="stroke:#181818;stroke-width:0.5;"/><path d="M894,330.2402 L894,340.2402 L904,340.2402 L894,330.2402 " fill="#FEFFDD" style="stroke:#181818;stroke-width:0.5;"/><text fill="#000000" font-family="sans-serif" font-size="13" lengthAdjust="spacing" textLength="137" x="730" y="349.2686">if subscription not found</text><text fill="#000000" font-family="sans-serif" font-size="13" lengthAdjust="spacing" textLength="99" x="730" y="366.5596">for user logged in</text><text fill="#000000" font-family="sans-serif" font-size="13" lengthAdjust="spacing" textLength="72" x="730" y="383.8506">the code will</text><text fill="#000000" font-family="sans-serif" font-size="13" lengthAdjust="spacing" textLength="110" x="730" y="401.1416">end here and throw</text><text fill="#000000" font-family="sans-serif" font-size="13" lengthAdjust="spacing" textLength="159" x="730" y="418.4326">a EntityNotFoundException</text><polygon fill="#181818" points="854,450.9863,864,454.9863,854,458.9863,858,454.9863" style="stroke:#181818;stroke-width:1.0;"/><line style="stroke:#181818;stroke-width:1.0;" x1="400" x2="860" y1="454.9863" y2="454.9863"/><text fill="#000000" font-family="sans-serif" font-size="13" font-weight="bold" lengthAdjust="spacing" textLength="7" x="407" y="449.7236">7</text><text fill="#000000" font-family="sans-serif" font-size="13" lengthAdjust="spacing" textLength="201" x="418" y="449.7236">findAllBySubscription(subscription)</text><polygon fill="#181818" points="411,482.2773,401,486.2773,411,490.2773,407,486.2773" style="stroke:#181818;stroke-width:1.0;"/><line style="stroke:#181818;stroke-width:1.0;stroke-dasharray:2.0,2.0;" x1="405" x2="870" y1="486.2773" y2="486.2773"/><text fill="#000000" font-family="sans-serif" font-size="13" font-weight="bold" lengthAdjust="spacing" textLength="7" x="417" y="481.0146">8</text><text fill="#000000" font-family="sans-serif" font-size="13" lengthAdjust="spacing" textLength="73" x="428" y="481.0146">List&lt;device&gt;</text><polygon fill="#181818" points="236,542.5049,226,546.5049,236,550.5049,232,546.5049" style="stroke:#181818;stroke-width:1.0;"/><line style="stroke:#181818;stroke-width:1.0;stroke-dasharray:2.0,2.0;" x1="230" x2="394" y1="546.5049" y2="546.5049"/><text fill="#000000" font-family="sans-serif" font-size="13" font-weight="bold" lengthAdjust="spacing" textLength="7" x="242" y="541.2422">9</text><text fill="#000000" font-family="sans-serif" font-size="13" lengthAdjust="spacing" textLength="73" x="253" y="541.2422">List&lt;device&gt;</text><path d="M5,499.2773 L5,578.2773 L210,578.2773 L210,509.2773 L200,499.2773 L5,499.2773 " fill="#FEFFDD" style="stroke:#181818;stroke-width:0.5;"/><path d="M200,499.2773 L200,509.2773 L210,509.2773 L200,499.2773 " fill="#FEFFDD" style="stroke:#181818;stroke-width:0.5;"/><text fill="#000000" font-family="sans-serif" font-size="13" lengthAdjust="spacing" textLength="135" x="11" y="518.3057">The controller here also</text><text fill="#000000" font-family="sans-serif" font-size="13" lengthAdjust="spacing" textLength="157" x="11" y="535.5967">creates an ResponseEntity</text><text fill="#000000" font-family="sans-serif" font-size="13" lengthAdjust="spacing" textLength="166" x="11" y="552.8877">to show the user the obj with</text><text fill="#000000" font-family="sans-serif" font-size="13" lengthAdjust="spacing" textLength="184" x="11" y="570.1787">"deviceViewMapper" as objView</text><polygon fill="#181818" points="83,602.7324,73,606.7324,83,610.7324,79,606.7324" style="stroke:#181818;stroke-width:1.0;"/><line style="stroke:#181818;stroke-width:1.0;stroke-dasharray:2.0,2.0;" x1="77" x2="219" y1="606.7324" y2="606.7324"/><text fill="#000000" font-family="sans-serif" font-size="13" font-weight="bold" lengthAdjust="spacing" textLength="14" x="89" y="601.4697">10</text><text fill="#000000" font-family="sans-serif" font-size="13" lengthAdjust="spacing" textLength="101" x="107" y="601.4697">List&lt;deviceView&gt;</text><!--SRC=[jLEnSjim3Dtn5JWliGVLkvhwpawTNkxQ3atQdQPWYpcQL4aehlw-82NPifkrao2yH-0z4BohcPjOBfUDLOxRe_sW_N4PwNTBJbDH6NK8wWYgPQyqcpV5XDxbVzSUTnJWEjRi0ywUsrtKmKXgXYhYMaEZ0Xjj6cc2i_8plHbD3zvnyDOEh0SEzbtUCuNqoQGKtv1-HWe_gF7HIEykiyRK3NEGrR3nxkQ4GEySwFlVK3CFOAsnM6NHMEANxGikgynUAci1Sbxmf1VBlN7Lsjg-NDnqITzyyH4Wmq8R1MFPIeIVC9tOT4_LFFq_LGiuCufpLKmOE2zN4ioXPa0qU-IQCe0ckhkKi_vme0gDapY1sbU49oCg4SbLM5CWL19m7Vn9aWgtZWrttpq_-jPLsp-QyimWqLE_Y_1XRbZ6oMpF-hFF96O18t4YVtha7njNzGJ4VP8Ys5uMBFlxhxwIrXA7UzjqqysPJwKj0AvibVZLHBxlLs4rrXiMvGRCbYtjnV5BrZy-Xq6wZHvG1v8t5yM8Q8gDTv5w5u3iCTR-TBdn5FZTgmo1Qy1Pt-UNeTCtrJJ3AnCyPIwMPO_lYs9Sv8d0H5l1Nm00]--></g></svg>