<?xml version="1.0" encoding="us-ascii" standalone="no"?><svg xmlns="http://www.w3.org/2000/svg" xmlns:xlink="http://www.w3.org/1999/xlink" contentStyleType="text/css" height="860px" preserveAspectRatio="none" style="width:1995px;height:860px;background:#FFFFFF;" version="1.1" viewBox="0 0 1995 860" width="1995px" zoomAndPan="magnify"><defs/><g><rect fill="#FFFFFF" height="648.832" style="stroke:#181818;stroke-width:1.0;" width="10" x="317.5" y="112.7988"/><rect fill="#FFFFFF" height="564.2451" style="stroke:#181818;stroke-width:1.0;" width="10" x="756.5" y="142.1094"/><rect fill="#FFFFFF" height="39.4658" style="stroke:#181818;stroke-width:1.0;" width="10" x="1200.5" y="171.4199"/><rect fill="#FFFFFF" height="29.3105" style="stroke:#181818;stroke-width:1.0;" width="10" x="1200.5" y="621.7676"/><rect fill="none" height="202.8633" style="stroke:#000000;stroke-width:1.5;" width="1317" x="672" y="287.6621"/><rect fill="none" height="88.9316" style="stroke:#000000;stroke-width:1.5;" width="1123.5" x="672" y="504.5254"/><line style="stroke:#181818;stroke-width:0.5;stroke-dasharray:5.0,5.0;" x1="44" x2="44" y1="81.4883" y2="779.6309"/><line style="stroke:#181818;stroke-width:0.5;stroke-dasharray:5.0,5.0;" x1="322" x2="322" y1="81.4883" y2="779.6309"/><line style="stroke:#181818;stroke-width:0.5;stroke-dasharray:5.0,5.0;" x1="761" x2="761" y1="81.4883" y2="779.6309"/><line style="stroke:#181818;stroke-width:0.5;stroke-dasharray:5.0,5.0;" x1="1205.5" x2="1205.5" y1="81.4883" y2="779.6309"/><line style="stroke:#181818;stroke-width:0.5;stroke-dasharray:5.0,5.0;" x1="1790" x2="1790" y1="81.4883" y2="779.6309"/><line style="stroke:#181818;stroke-width:0.5;stroke-dasharray:5.0,5.0;" x1="1923" x2="1923" y1="81.4883" y2="779.6309"/><text fill="#000000" font-family="sans-serif" font-size="14" lengthAdjust="spacing" textLength="73" x="5" y="78.5352">Subscriber</text><ellipse cx="44.5" cy="13.5" fill="#E2E2F0" rx="8" ry="8" style="stroke:#181818;stroke-width:0.5;"/><path d="M44.5,21.5 L44.5,48.5 M31.5,29.5 L57.5,29.5 M44.5,48.5 L31.5,63.5 M44.5,48.5 L57.5,63.5 " fill="none" style="stroke:#181818;stroke-width:0.5;"/><text fill="#000000" font-family="sans-serif" font-size="14" lengthAdjust="spacing" textLength="73" x="5" y="792.166">Subscriber</text><ellipse cx="44.5" cy="803.6191" fill="#E2E2F0" rx="8" ry="8" style="stroke:#181818;stroke-width:0.5;"/><path d="M44.5,811.6191 L44.5,838.6191 M31.5,819.6191 L57.5,819.6191 M44.5,838.6191 L31.5,853.6191 M44.5,838.6191 L57.5,853.6191 " fill="none" style="stroke:#181818;stroke-width:0.5;"/><rect fill="#E2E2F0" height="30.4883" rx="2.5" ry="2.5" style="stroke:#181818;stroke-width:0.5;" width="181" x="232" y="50"/><text fill="#000000" font-family="sans-serif" font-size="14" lengthAdjust="spacing" textLength="167" x="239" y="70.5352">:SubscriptionsController</text><rect fill="#E2E2F0" height="30.4883" rx="2.5" ry="2.5" style="stroke:#181818;stroke-width:0.5;" width="181" x="232" y="778.6309"/><text fill="#000000" font-family="sans-serif" font-size="14" lengthAdjust="spacing" textLength="167" x="239" y="799.166">:SubscriptionsController</text><rect fill="#E2E2F0" height="30.4883" rx="2.5" ry="2.5" style="stroke:#181818;stroke-width:0.5;" width="159" x="682" y="50"/><text fill="#000000" font-family="sans-serif" font-size="14" lengthAdjust="spacing" textLength="145" x="689" y="70.5352">:SubscriptionsService</text><rect fill="#E2E2F0" height="30.4883" rx="2.5" ry="2.5" style="stroke:#181818;stroke-width:0.5;" width="159" x="682" y="778.6309"/><text fill="#000000" font-family="sans-serif" font-size="14" lengthAdjust="spacing" textLength="145" x="689" y="799.166">:SubscriptionsService</text><rect fill="#E2E2F0" height="30.4883" rx="2.5" ry="2.5" style="stroke:#181818;stroke-width:0.5;" width="184" x="1113.5" y="50"/><text fill="#000000" font-family="sans-serif" font-size="14" lengthAdjust="spacing" textLength="170" x="1120.5" y="70.5352">:SubscriptionsRepository</text><rect fill="#E2E2F0" height="30.4883" rx="2.5" ry="2.5" style="stroke:#181818;stroke-width:0.5;" width="184" x="1113.5" y="778.6309"/><text fill="#000000" font-family="sans-serif" font-size="14" lengthAdjust="spacing" textLength="170" x="1120.5" y="799.166">:SubscriptionsRepository</text><rect fill="#E2E2F0" height="30.4883" rx="2.5" ry="2.5" style="stroke:#181818;stroke-width:0.5;" width="135" x="1723" y="50"/><text fill="#000000" font-family="sans-serif" font-size="14" lengthAdjust="spacing" textLength="121" x="1730" y="70.5352">:DeviceRepository</text><rect fill="#E2E2F0" height="30.4883" rx="2.5" ry="2.5" style="stroke:#181818;stroke-width:0.5;" width="135" x="1723" y="778.6309"/><text fill="#000000" font-family="sans-serif" font-size="14" lengthAdjust="spacing" textLength="121" x="1730" y="799.166">:DeviceRepository</text><rect fill="#E2E2F0" height="30.4883" rx="2.5" ry="2.5" style="stroke:#181818;stroke-width:0.5;" width="111" x="1868" y="50"/><text fill="#000000" font-family="sans-serif" font-size="14" lengthAdjust="spacing" textLength="97" x="1875" y="70.5352">:Subscriptions</text><rect fill="#E2E2F0" height="30.4883" rx="2.5" ry="2.5" style="stroke:#181818;stroke-width:0.5;" width="111" x="1868" y="778.6309"/><text fill="#000000" font-family="sans-serif" font-size="14" lengthAdjust="spacing" textLength="97" x="1875" y="799.166">:Subscriptions</text><rect fill="#FFFFFF" height="648.832" style="stroke:#181818;stroke-width:1.0;" width="10" x="317.5" y="112.7988"/><rect fill="#FFFFFF" height="564.2451" style="stroke:#181818;stroke-width:1.0;" width="10" x="756.5" y="142.1094"/><rect fill="#FFFFFF" height="39.4658" style="stroke:#181818;stroke-width:1.0;" width="10" x="1200.5" y="171.4199"/><rect fill="#FFFFFF" height="29.3105" style="stroke:#181818;stroke-width:1.0;" width="10" x="1200.5" y="621.7676"/><polygon fill="#181818" points="305.5,108.7988,315.5,112.7988,305.5,116.7988,309.5,112.7988" style="stroke:#181818;stroke-width:1.0;"/><line style="stroke:#181818;stroke-width:1.0;" x1="44.5" x2="311.5" y1="112.7988" y2="112.7988"/><text fill="#000000" font-family="sans-serif" font-size="13" font-weight="bold" lengthAdjust="spacing" textLength="9" x="51.5" y="108.0566">1</text><text fill="#000000" font-family="sans-serif" font-size="13" lengthAdjust="spacing" textLength="241" x="64.5" y="108.0566">PATCH /subscriptions/change/{name}</text><polygon fill="#181818" points="744.5,138.1094,754.5,142.1094,744.5,146.1094,748.5,142.1094" style="stroke:#181818;stroke-width:1.0;"/><line style="stroke:#181818;stroke-width:1.0;" x1="327.5" x2="750.5" y1="142.1094" y2="142.1094"/><text fill="#000000" font-family="sans-serif" font-size="13" font-weight="bold" lengthAdjust="spacing" textLength="9" x="334.5" y="137.3672">2</text><text fill="#000000" font-family="sans-serif" font-size="13" lengthAdjust="spacing" textLength="397" x="347.5" y="137.3672">subscriptions = (long desiredVersion, String name, String auth)</text><polygon fill="#181818" points="1188.5,167.4199,1198.5,171.4199,1188.5,175.4199,1192.5,171.4199" style="stroke:#181818;stroke-width:1.0;"/><line style="stroke:#181818;stroke-width:1.0;" x1="766.5" x2="1194.5" y1="171.4199" y2="171.4199"/><text fill="#000000" font-family="sans-serif" font-size="13" font-weight="bold" lengthAdjust="spacing" textLength="9" x="773.5" y="166.6777">3</text><text fill="#000000" font-family="sans-serif" font-size="13" lengthAdjust="spacing" textLength="402" x="786.5" y="166.6777">Subscriptions changePlan(newString,auth,name,desiredVersion);</text><line style="stroke:#181818;stroke-width:1.0;stroke-dasharray:2.0,2.0;" x1="1210.5" x2="1252.5" y1="209.8857" y2="209.8857"/><line style="stroke:#181818;stroke-width:1.0;stroke-dasharray:2.0,2.0;" x1="1252.5" x2="1252.5" y1="209.8857" y2="222.8857"/><line style="stroke:#181818;stroke-width:1.0;stroke-dasharray:2.0,2.0;" x1="1205.5" x2="1252.5" y1="222.8857" y2="222.8857"/><polygon fill="#181818" points="1215.5,218.8857,1205.5,222.8857,1215.5,226.8857,1211.5,222.8857" style="stroke:#181818;stroke-width:1.0;"/><text fill="#000000" font-family="sans-serif" font-size="13" font-weight="bold" lengthAdjust="spacing" textLength="9" x="1217.5" y="205.1436">4</text><text fill="#000000" font-family="sans-serif" font-size="13" lengthAdjust="spacing" textLength="403" x="1230.5" y="205.1436">HttpResponse&lt;String&gt; user = getUserFromOtherAPI(newString);</text><path d="M972,184.4199 L972,224.4199 L1195,224.4199 L1195,194.4199 L1185,184.4199 L972,184.4199 " fill="#FEFFDD" style="stroke:#181818;stroke-width:0.5;"/><path d="M1185,184.4199 L1185,194.4199 L1195,194.4199 L1185,184.4199 " fill="#FEFFDD" style="stroke:#181818;stroke-width:0.5;"/><text fill="#000000" font-family="sans-serif" font-size="13" lengthAdjust="spacing" textLength="160" x="978" y="201.9883">if user does not exist will</text><text fill="#000000" font-family="sans-serif" font-size="13" lengthAdjust="spacing" textLength="202" x="978" y="217.2988">throw IllegalArgumentException</text><line style="stroke:#181818;stroke-width:1.0;stroke-dasharray:2.0,2.0;" x1="1205.5" x2="1247.5" y1="260.5068" y2="260.5068"/><line style="stroke:#181818;stroke-width:1.0;stroke-dasharray:2.0,2.0;" x1="1247.5" x2="1247.5" y1="260.5068" y2="273.5068"/><line style="stroke:#181818;stroke-width:1.0;stroke-dasharray:2.0,2.0;" x1="1200.5" x2="1247.5" y1="273.5068" y2="273.5068"/><polygon fill="#181818" points="1210.5,269.5068,1200.5,273.5068,1210.5,277.5068,1206.5,273.5068" style="stroke:#181818;stroke-width:1.0;"/><text fill="#000000" font-family="sans-serif" font-size="13" font-weight="bold" lengthAdjust="spacing" textLength="9" x="1212.5" y="255.7646">5</text><text fill="#000000" font-family="sans-serif" font-size="13" lengthAdjust="spacing" textLength="445" x="1225.5" y="255.7646">Subscriptions sub = findByActiveStatus_ActiveAndUser(true,username)</text><path d="M944,235.041 L944,275.041 L1200,275.041 L1200,245.041 L1190,235.041 L944,235.041 " fill="#FEFFDD" style="stroke:#181818;stroke-width:0.5;"/><path d="M1190,235.041 L1190,245.041 L1200,245.041 L1190,235.041 " fill="#FEFFDD" style="stroke:#181818;stroke-width:0.5;"/><text fill="#000000" font-family="sans-serif" font-size="13" lengthAdjust="spacing" textLength="235" x="950" y="252.6094">if sub does does not exist locally will</text><text fill="#000000" font-family="sans-serif" font-size="13" lengthAdjust="spacing" textLength="131" x="950" y="267.9199">check other machine</text><path d="M672,287.6621 L734,287.6621 L734,294.9727 L724,304.9727 L672,304.9727 L672,287.6621 " fill="#EEEEEE" style="stroke:#000000;stroke-width:1.5;"/><rect fill="none" height="202.8633" style="stroke:#000000;stroke-width:1.5;" width="1317" x="672" y="287.6621"/><text fill="#000000" font-family="sans-serif" font-size="13" font-weight="bold" lengthAdjust="spacing" textLength="17" x="687" y="301.2305">alt</text><text fill="#000000" font-family="sans-serif" font-size="11" font-weight="bold" lengthAdjust="spacing" textLength="88" x="749" y="300.2969">[change locally]</text><line style="stroke:#181818;stroke-width:1.0;stroke-dasharray:2.0,2.0;" x1="1205.5" x2="1247.5" y1="331.2832" y2="331.2832"/><line style="stroke:#181818;stroke-width:1.0;stroke-dasharray:2.0,2.0;" x1="1247.5" x2="1247.5" y1="331.2832" y2="344.2832"/><line style="stroke:#181818;stroke-width:1.0;stroke-dasharray:2.0,2.0;" x1="1200.5" x2="1247.5" y1="344.2832" y2="344.2832"/><polygon fill="#181818" points="1210.5,340.2832,1200.5,344.2832,1210.5,348.2832,1206.5,344.2832" style="stroke:#181818;stroke-width:1.0;"/><text fill="#000000" font-family="sans-serif" font-size="13" font-weight="bold" lengthAdjust="spacing" textLength="9" x="1212.5" y="326.541">6</text><text fill="#000000" font-family="sans-serif" font-size="13" lengthAdjust="spacing" textLength="380" x="1225.5" y="326.541">HttpResponse&lt;String&gt; plan = getPlansFromOtherAPI(name);</text><line style="stroke:#181818;stroke-width:1.0;stroke-dasharray:2.0,2.0;" x1="1205.5" x2="1247.5" y1="373.5938" y2="373.5938"/><line style="stroke:#181818;stroke-width:1.0;stroke-dasharray:2.0,2.0;" x1="1247.5" x2="1247.5" y1="373.5938" y2="386.5938"/><line style="stroke:#181818;stroke-width:1.0;stroke-dasharray:2.0,2.0;" x1="1200.5" x2="1247.5" y1="386.5938" y2="386.5938"/><polygon fill="#181818" points="1210.5,382.5938,1200.5,386.5938,1210.5,390.5938,1206.5,386.5938" style="stroke:#181818;stroke-width:1.0;"/><text fill="#000000" font-family="sans-serif" font-size="13" font-weight="bold" lengthAdjust="spacing" textLength="9" x="1212.5" y="368.8516">7</text><text fill="#000000" font-family="sans-serif" font-size="13" lengthAdjust="spacing" textLength="491" x="1225.5" y="368.8516">HttpResponse&lt;String&gt; plan2 = getPlansFromOtherAPI(subscription.getPlan());</text><line style="stroke:#181818;stroke-width:1.0;stroke-dasharray:2.0,2.0;" x1="1205.5" x2="1247.5" y1="415.9043" y2="415.9043"/><line style="stroke:#181818;stroke-width:1.0;stroke-dasharray:2.0,2.0;" x1="1247.5" x2="1247.5" y1="415.9043" y2="428.9043"/><line style="stroke:#181818;stroke-width:1.0;stroke-dasharray:2.0,2.0;" x1="1200.5" x2="1247.5" y1="428.9043" y2="428.9043"/><polygon fill="#181818" points="1210.5,424.9043,1200.5,428.9043,1210.5,432.9043,1206.5,428.9043" style="stroke:#181818;stroke-width:1.0;"/><text fill="#000000" font-family="sans-serif" font-size="13" font-weight="bold" lengthAdjust="spacing" textLength="9" x="1212.5" y="411.1621">8</text><text fill="#000000" font-family="sans-serif" font-size="13" lengthAdjust="spacing" textLength="377" x="1225.5" y="411.1621">if(subscription.getPlan().getName().getName().equals(name))</text><polygon fill="#181818" points="1911.5,449.2148,1921.5,453.2148,1911.5,457.2148,1915.5,453.2148" style="stroke:#181818;stroke-width:1.0;"/><line style="stroke:#181818;stroke-width:1.0;stroke-dasharray:2.0,2.0;" x1="1205.5" x2="1917.5" y1="453.2148" y2="453.2148"/><text fill="#000000" font-family="sans-serif" font-size="13" font-weight="bold" lengthAdjust="spacing" textLength="9" x="1212.5" y="448.4727">9</text><text fill="#000000" font-family="sans-serif" font-size="13" lengthAdjust="spacing" textLength="353" x="1225.5" y="448.4727">changePlan(desiredVersion, jsonArray.getString("name"))</text><polygon fill="#181818" points="777.5,478.5254,767.5,482.5254,777.5,486.5254,773.5,482.5254" style="stroke:#181818;stroke-width:1.0;"/><line style="stroke:#181818;stroke-width:1.0;stroke-dasharray:2.0,2.0;" x1="771.5" x2="1204.5" y1="482.5254" y2="482.5254"/><text fill="#000000" font-family="sans-serif" font-size="13" font-weight="bold" lengthAdjust="spacing" textLength="18" x="783.5" y="477.7832">10</text><text fill="#000000" font-family="sans-serif" font-size="13" lengthAdjust="spacing" textLength="23" x="805.5" y="477.7832">sub</text><path d="M672,504.5254 L734,504.5254 L734,511.8359 L724,521.8359 L672,521.8359 L672,504.5254 " fill="#EEEEEE" style="stroke:#000000;stroke-width:1.5;"/><rect fill="none" height="88.9316" style="stroke:#000000;stroke-width:1.5;" width="1123.5" x="672" y="504.5254"/><text fill="#000000" font-family="sans-serif" font-size="13" font-weight="bold" lengthAdjust="spacing" textLength="17" x="687" y="518.0938">alt</text><text fill="#000000" font-family="sans-serif" font-size="11" font-weight="bold" lengthAdjust="spacing" textLength="110" x="749" y="517.1602">[change not locally]</text><line style="stroke:#181818;stroke-width:1.0;stroke-dasharray:2.0,2.0;" x1="1205.5" x2="1247.5" y1="548.1465" y2="548.1465"/><line style="stroke:#181818;stroke-width:1.0;stroke-dasharray:2.0,2.0;" x1="1247.5" x2="1247.5" y1="548.1465" y2="561.1465"/><line style="stroke:#181818;stroke-width:1.0;stroke-dasharray:2.0,2.0;" x1="1200.5" x2="1247.5" y1="561.1465" y2="561.1465"/><polygon fill="#181818" points="1210.5,557.1465,1200.5,561.1465,1210.5,565.1465,1206.5,561.1465" style="stroke:#181818;stroke-width:1.0;"/><text fill="#000000" font-family="sans-serif" font-size="13" font-weight="bold" lengthAdjust="spacing" textLength="18" x="1212.5" y="543.4043">11</text><text fill="#000000" font-family="sans-serif" font-size="13" lengthAdjust="spacing" textLength="549" x="1234.5" y="543.4043">HttpResponse&lt;String&gt; existingSubscription2 = getSubsFromOtherApi(newString, auth)</text><polygon fill="#181818" points="777.5,581.457,767.5,585.457,777.5,589.457,773.5,585.457" style="stroke:#181818;stroke-width:1.0;"/><line style="stroke:#181818;stroke-width:1.0;stroke-dasharray:2.0,2.0;" x1="771.5" x2="1204.5" y1="585.457" y2="585.457"/><text fill="#000000" font-family="sans-serif" font-size="13" font-weight="bold" lengthAdjust="spacing" textLength="18" x="783.5" y="580.7148">12</text><text fill="#000000" font-family="sans-serif" font-size="13" lengthAdjust="spacing" textLength="23" x="805.5" y="580.7148">sub</text><polygon fill="#181818" points="1188.5,617.7676,1198.5,621.7676,1188.5,625.7676,1192.5,621.7676" style="stroke:#181818;stroke-width:1.0;"/><line style="stroke:#181818;stroke-width:1.0;" x1="766.5" x2="1194.5" y1="621.7676" y2="621.7676"/><text fill="#000000" font-family="sans-serif" font-size="13" font-weight="bold" lengthAdjust="spacing" textLength="18" x="773.5" y="617.0254">13</text><text fill="#000000" font-family="sans-serif" font-size="13" lengthAdjust="spacing" textLength="59" x="795.5" y="617.0254">save(sub)</text><polygon fill="#181818" points="777.5,647.0781,767.5,651.0781,777.5,655.0781,773.5,651.0781" style="stroke:#181818;stroke-width:1.0;"/><line style="stroke:#181818;stroke-width:1.0;stroke-dasharray:2.0,2.0;" x1="771.5" x2="1204.5" y1="651.0781" y2="651.0781"/><text fill="#000000" font-family="sans-serif" font-size="13" font-weight="bold" lengthAdjust="spacing" textLength="18" x="783.5" y="646.3359">14</text><text fill="#000000" font-family="sans-serif" font-size="13" lengthAdjust="spacing" textLength="79" x="805.5" y="646.3359">subscription</text><polygon fill="#181818" points="338.5,702.3545,328.5,706.3545,338.5,710.3545,334.5,706.3545" style="stroke:#181818;stroke-width:1.0;"/><line style="stroke:#181818;stroke-width:1.0;stroke-dasharray:2.0,2.0;" x1="332.5" x2="760.5" y1="706.3545" y2="706.3545"/><text fill="#000000" font-family="sans-serif" font-size="13" font-weight="bold" lengthAdjust="spacing" textLength="18" x="344.5" y="701.6123">15</text><text fill="#000000" font-family="sans-serif" font-size="13" lengthAdjust="spacing" textLength="79" x="366.5" y="701.6123">subscription</text><path d="M48,664.0781 L48,735.0781 L312,735.0781 L312,674.0781 L302,664.0781 L48,664.0781 " fill="#FEFFDD" style="stroke:#181818;stroke-width:0.5;"/><path d="M302,664.0781 L302,674.0781 L312,674.0781 L302,664.0781 " fill="#FEFFDD" style="stroke:#181818;stroke-width:0.5;"/><text fill="#000000" font-family="sans-serif" font-size="13" lengthAdjust="spacing" textLength="149" x="54" y="681.6465">The controller here also</text><text fill="#000000" font-family="sans-serif" font-size="13" lengthAdjust="spacing" textLength="164" x="54" y="696.957">creates an ResponseEntity</text><text fill="#000000" font-family="sans-serif" font-size="13" lengthAdjust="spacing" textLength="243" x="54" y="712.2676">to show the user the subscription with</text><text fill="#000000" font-family="sans-serif" font-size="13" lengthAdjust="spacing" textLength="242" x="54" y="727.5781">"subscriptionsViewMapper" as objView</text><polygon fill="#181818" points="55.5,757.6309,45.5,761.6309,55.5,765.6309,51.5,761.6309" style="stroke:#181818;stroke-width:1.0;"/><line style="stroke:#181818;stroke-width:1.0;stroke-dasharray:2.0,2.0;" x1="49.5" x2="321.5" y1="761.6309" y2="761.6309"/><text fill="#000000" font-family="sans-serif" font-size="13" font-weight="bold" lengthAdjust="spacing" textLength="18" x="61.5" y="756.8887">16</text><text fill="#000000" font-family="sans-serif" font-size="13" lengthAdjust="spacing" textLength="108" x="83.5" y="756.8887">subscriptionView</text><!--SRC=[bLJ1Rjim3BthAuXSbW190-oOTWMyhaDxs5OqRQ-38ZEnEbdo9BffCEpVHybEOdjjWTueYdnwV2BveI2gmc8-huoqL9VcHBbo7l1tZLRXBDTousKfP4rEAj9FaX2SJMTRbolqGWY-S1v6oteLbDVi6u4Ca2bHIKzQwOgHORHexolIpeOBPyaxOzhW2_BchV0b-YUjCCL6MxmLV8kL2vevxPhuUXKzWuml6047eUny8RG7leVakZC5i_D47HPmazrTNC4yT6Fdgf1sW_C_LfRuLwH8peW5S4Ol53x1s3YxWHo3zfW_e0_idyAIl6PtH3WSMFrY8X9CX6lgOyGUKMWUl-5_7LlSDgdJc3fDOFs79gTSq1vfTaHTm1Kto2s6YY7nh44vXpgWPyeRf7ksldfN_g02VNPpVNoB8QtZTZ6u9g7NJKxkC02x0Pzr8DXgOmGLtctXcfjX8qtcDtM9bYwV5QP21DeyPk3BzFeriwPCQwrj_dcNnNx59Kcgmy_caDayyXsJht4Q-KGb9dsQ4IAn750rJabZTWrbLQ3w1IxM3ALKXRPuv2aDjUBlazwXR9p3HjduSw4lRMHx-awmZw-XTVllf8qOJrx6v-RIwrSoelMTcVKiNY3IX8RnP8YuwBJciDyVWxEPzt8NmPewngC8CnhYf2bYIaburbnqXO__zdxnqq-prMsgLh_eEifNwSvCxUVnJN8v7lPdsXw3wULr89ymAlm_K7zLj9djvXdSYKulmrs1e0vx5fWtCfNW12YFJ2G0jzfUWqjBcdO2o44eU1ovp6PYez5zWmU02W6ZtlfwqBZz9gkgNUTkzHWznv7WLNasc-rtPJSrnVq3]--></g></svg>