<?xml version="1.0" encoding="us-ascii" standalone="no"?><svg xmlns="http://www.w3.org/2000/svg" xmlns:xlink="http://www.w3.org/1999/xlink" contentStyleType="text/css" height="485px" preserveAspectRatio="none" style="width:670px;height:485px;background:#FFFFFF;" version="1.1" viewBox="0 0 670 485" width="670px" zoomAndPan="magnify"><defs/><g><rect fill="#FFFFFF" height="303.4395" style="stroke:#181818;stroke-width:1.0;" width="10" x="54.5" y="91.4883"/><rect fill="#FFFFFF" height="145.1973" style="stroke:#181818;stroke-width:1.0;" width="10" x="324.5" y="234.7305"/><rect fill="none" height="133.1973" style="stroke:#000000;stroke-width:1.5;" width="653.5" x="10" y="254.7305"/><line style="stroke:#181818;stroke-width:0.5;stroke-dasharray:5.0,5.0;" x1="59" x2="59" y1="81.4883" y2="404.9277"/><line style="stroke:#181818;stroke-width:0.5;stroke-dasharray:5.0,5.0;" x1="329.5" x2="329.5" y1="81.4883" y2="404.9277"/><text fill="#000000" font-family="sans-serif" font-size="14" lengthAdjust="spacing" textLength="73" x="20" y="78.5352">Subscriber</text><ellipse cx="59.5" cy="13.5" fill="#E2E2F0" rx="8" ry="8" style="stroke:#181818;stroke-width:0.5;"/><path d="M59.5,21.5 L59.5,48.5 M46.5,29.5 L72.5,29.5 M59.5,48.5 L46.5,63.5 M59.5,48.5 L72.5,63.5 " fill="none" style="stroke:#181818;stroke-width:0.5;"/><text fill="#000000" font-family="sans-serif" font-size="14" lengthAdjust="spacing" textLength="73" x="20" y="417.4629">Subscriber</text><ellipse cx="59.5" cy="428.916" fill="#E2E2F0" rx="8" ry="8" style="stroke:#181818;stroke-width:0.5;"/><path d="M59.5,436.916 L59.5,463.916 M46.5,444.916 L72.5,444.916 M59.5,463.916 L46.5,478.916 M59.5,463.916 L72.5,478.916 " fill="none" style="stroke:#181818;stroke-width:0.5;"/><rect fill="#E2E2F0" height="30.4883" rx="2.5" ry="2.5" style="stroke:#181818;stroke-width:0.5;" width="66" x="296.5" y="50"/><text fill="#000000" font-family="sans-serif" font-size="14" lengthAdjust="spacing" textLength="52" x="303.5" y="70.5352">:System</text><rect fill="#E2E2F0" height="30.4883" rx="2.5" ry="2.5" style="stroke:#181818;stroke-width:0.5;" width="66" x="296.5" y="403.9277"/><text fill="#000000" font-family="sans-serif" font-size="14" lengthAdjust="spacing" textLength="52" x="303.5" y="424.4629">:System</text><rect fill="#FFFFFF" height="303.4395" style="stroke:#181818;stroke-width:1.0;" width="10" x="54.5" y="91.4883"/><rect fill="#FFFFFF" height="145.1973" style="stroke:#181818;stroke-width:1.0;" width="10" x="324.5" y="234.7305"/><polygon fill="#181818" points="317.5,108.7988,327.5,112.7988,317.5,116.7988,321.5,112.7988" style="stroke:#181818;stroke-width:1.0;"/><line style="stroke:#181818;stroke-width:1.0;" x1="64.5" x2="323.5" y1="112.7988" y2="112.7988"/><text fill="#000000" font-family="sans-serif" font-size="13" lengthAdjust="spacing" textLength="241" x="71.5" y="108.0566">PATCH /subscriptions/change/{name}</text><line style="stroke:#181818;stroke-width:1.0;stroke-dasharray:2.0,2.0;" x1="329.5" x2="371.5" y1="142.1094" y2="142.1094"/><line style="stroke:#181818;stroke-width:1.0;stroke-dasharray:2.0,2.0;" x1="371.5" x2="371.5" y1="142.1094" y2="155.1094"/><line style="stroke:#181818;stroke-width:1.0;stroke-dasharray:2.0,2.0;" x1="330.5" x2="371.5" y1="155.1094" y2="155.1094"/><polygon fill="#181818" points="340.5,151.1094,330.5,155.1094,340.5,159.1094,336.5,155.1094" style="stroke:#181818;stroke-width:1.0;"/><text fill="#000000" font-family="sans-serif" font-size="13" lengthAdjust="spacing" textLength="188" x="336.5" y="137.3672">Checks User in other machine</text><line style="stroke:#181818;stroke-width:1.0;stroke-dasharray:2.0,2.0;" x1="329.5" x2="371.5" y1="184.4199" y2="184.4199"/><line style="stroke:#181818;stroke-width:1.0;stroke-dasharray:2.0,2.0;" x1="371.5" x2="371.5" y1="184.4199" y2="197.4199"/><line style="stroke:#181818;stroke-width:1.0;stroke-dasharray:2.0,2.0;" x1="330.5" x2="371.5" y1="197.4199" y2="197.4199"/><polygon fill="#181818" points="340.5,193.4199,330.5,197.4199,340.5,201.4199,336.5,197.4199" style="stroke:#181818;stroke-width:1.0;"/><text fill="#000000" font-family="sans-serif" font-size="13" lengthAdjust="spacing" textLength="193" x="336.5" y="179.6777">Checks Plans in other machine</text><line style="stroke:#181818;stroke-width:1.0;stroke-dasharray:2.0,2.0;" x1="329.5" x2="376.5" y1="221.7305" y2="221.7305"/><line style="stroke:#181818;stroke-width:1.0;stroke-dasharray:2.0,2.0;" x1="376.5" x2="376.5" y1="221.7305" y2="234.7305"/><line style="stroke:#181818;stroke-width:1.0;stroke-dasharray:2.0,2.0;" x1="335.5" x2="376.5" y1="234.7305" y2="234.7305"/><polygon fill="#181818" points="345.5,230.7305,335.5,234.7305,345.5,238.7305,341.5,234.7305" style="stroke:#181818;stroke-width:1.0;"/><text fill="#000000" font-family="sans-serif" font-size="13" lengthAdjust="spacing" textLength="190" x="341.5" y="216.9883">Checks Subs in other machine</text><path d="M10,254.7305 L72,254.7305 L72,262.041 L62,272.041 L10,272.041 L10,254.7305 " fill="#EEEEEE" style="stroke:#000000;stroke-width:1.5;"/><rect fill="none" height="133.1973" style="stroke:#000000;stroke-width:1.5;" width="653.5" x="10" y="254.7305"/><text fill="#000000" font-family="sans-serif" font-size="13" font-weight="bold" lengthAdjust="spacing" textLength="17" x="25" y="268.2988">alt</text><text fill="#000000" font-family="sans-serif" font-size="11" font-weight="bold" lengthAdjust="spacing" textLength="265" x="87" y="267.3652">[successful case - Plan and User and Sub exist]</text><line style="stroke:#181818;stroke-width:1.0;stroke-dasharray:2.0,2.0;" x1="334.5" x2="376.5" y1="293.3516" y2="293.3516"/><line style="stroke:#181818;stroke-width:1.0;stroke-dasharray:2.0,2.0;" x1="376.5" x2="376.5" y1="293.3516" y2="306.3516"/><line style="stroke:#181818;stroke-width:1.0;stroke-dasharray:2.0,2.0;" x1="335.5" x2="376.5" y1="306.3516" y2="306.3516"/><polygon fill="#181818" points="345.5,302.3516,335.5,306.3516,345.5,310.3516,341.5,306.3516" style="stroke:#181818;stroke-width:1.0;"/><text fill="#000000" font-family="sans-serif" font-size="13" lengthAdjust="spacing" textLength="310" x="341.5" y="288.6094">Advance to upgrade/downgrade to specified plan</text><polygon fill="#181818" points="75.5,331.6621,65.5,335.6621,75.5,339.6621,71.5,335.6621" style="stroke:#181818;stroke-width:1.0;"/><line style="stroke:#181818;stroke-width:1.0;stroke-dasharray:2.0,2.0;" x1="69.5" x2="323.5" y1="335.6621" y2="335.6621"/><text fill="#000000" font-family="sans-serif" font-size="13" lengthAdjust="spacing" textLength="167" x="81.5" y="330.9199">Informs operation success</text><line style="stroke:#000000;stroke-width:1.0;stroke-dasharray:2.0,2.0;" x1="10" x2="663.5" y1="344.6621" y2="344.6621"/><text fill="#000000" font-family="sans-serif" font-size="11" font-weight="bold" lengthAdjust="spacing" textLength="279" x="15" y="355.2969">[failure case - Plan or User or Sub does not exist]</text><polygon fill="#181818" points="75.5,375.9277,65.5,379.9277,75.5,383.9277,71.5,379.9277" style="stroke:#181818;stroke-width:1.0;"/><line style="stroke:#181818;stroke-width:1.0;stroke-dasharray:2.0,2.0;" x1="69.5" x2="328.5" y1="379.9277" y2="379.9277"/><text fill="#000000" font-family="sans-serif" font-size="13" lengthAdjust="spacing" textLength="133" x="81.5" y="375.1855">Shows error message</text><!--SRC=[XL6zJiCm4Dxz5ASiJC5x1gIg7M2eL2dm05VxabZ4TkgpMn3YtR5Je50gEldiytVVpzqCCKxSI3cDw6AouwtoLZBj4Zb5jJRO1xG2LVG1gZPjMGMpfL01CgnNedJC7YELote5zHrKJVlAaMm53MmMZyjxa7p4JT5unr8Dw7gIRmujlOlJz_eCl1n8FJCyCGKm3dmSSc5H3SQHk8xRP4Vy5tWLLqnUuCCn0YUbYBbB8oXaWdec0NJwgB8K6GxqOZYUelac-OTyeVUO4uVe8KqvSqrI-uERg_B84odJ6T9GDdKsA0VVm8FhVB0CVgA09UalkKBGcCLsQCOKw9VolDHPU3wBRks9mVduQU0IIplu0mE5a24s3yUUXAOBLWKv_REpNdq0]--></g></svg>