<?xml version="1.0" encoding="us-ascii" standalone="no"?><svg xmlns="http://www.w3.org/2000/svg" xmlns:xlink="http://www.w3.org/1999/xlink" contentStyleType="text/css" height="678px" preserveAspectRatio="none" style="width:1330px;height:678px;background:#FFFFFF;" version="1.1" viewBox="0 0 1330 678" width="1330px" zoomAndPan="magnify"><defs/><g><text fill="#000000" font-family="sans-serif" font-size="14" font-weight="bold" lengthAdjust="spacing" textLength="1302" x="10" y="28.5352">Sequence Diagram/ As Marketing director, I want to define a new Plan detailing the monthly and annual cost, the maximum number of devices and other characteristics of the plan</text><rect fill="#FFFFFF" height="428.9004" style="stroke:#181818;stroke-width:1.0;" width="10" x="252.5" y="150.2871"/><rect fill="#FFFFFF" height="344.3135" style="stroke:#181818;stroke-width:1.0;" width="10" x="603.5" y="179.5977"/><rect fill="#FFFFFF" height="85.8975" style="stroke:#181818;stroke-width:1.0;" width="10" x="1056.5" y="208.9082"/><rect fill="#FFFFFF" height="29.3105" style="stroke:#181818;stroke-width:1.0;" width="10" x="1056.5" y="439.3242"/><rect fill="#FFFFFF" height="29.3105" style="stroke:#181818;stroke-width:1.0;" width="10" x="1205.5" y="380.7031"/><line style="stroke:#181818;stroke-width:0.5;stroke-dasharray:5.0,5.0;" x1="122" x2="122" y1="118.9766" y2="597.1875"/><line style="stroke:#181818;stroke-width:0.5;stroke-dasharray:5.0,5.0;" x1="257" x2="257" y1="118.9766" y2="597.1875"/><line style="stroke:#181818;stroke-width:0.5;stroke-dasharray:5.0,5.0;" x1="608.5" x2="608.5" y1="118.9766" y2="597.1875"/><line style="stroke:#181818;stroke-width:0.5;stroke-dasharray:5.0,5.0;" x1="1061" x2="1061" y1="118.9766" y2="597.1875"/><line style="stroke:#181818;stroke-width:0.5;stroke-dasharray:5.0,5.0;" x1="1210" x2="1210" y1="118.9766" y2="597.1875"/><text fill="#000000" font-family="sans-serif" font-size="14" lengthAdjust="spacing" textLength="128" x="55" y="116.0234">Marketing Director</text><ellipse cx="122" cy="50.9883" fill="#E2E2F0" rx="8" ry="8" style="stroke:#181818;stroke-width:0.5;"/><path d="M122,58.9883 L122,85.9883 M109,66.9883 L135,66.9883 M122,85.9883 L109,100.9883 M122,85.9883 L135,100.9883 " fill="none" style="stroke:#181818;stroke-width:0.5;"/><text fill="#000000" font-family="sans-serif" font-size="14" lengthAdjust="spacing" textLength="128" x="55" y="609.7227">Marketing Director</text><ellipse cx="122" cy="621.1758" fill="#E2E2F0" rx="8" ry="8" style="stroke:#181818;stroke-width:0.5;"/><path d="M122,629.1758 L122,656.1758 M109,637.1758 L135,637.1758 M122,656.1758 L109,671.1758 M122,656.1758 L135,671.1758 " fill="none" style="stroke:#181818;stroke-width:0.5;"/><rect fill="#E2E2F0" height="30.4883" rx="2.5" ry="2.5" style="stroke:#181818;stroke-width:0.5;" width="117" x="199" y="87.4883"/><text fill="#000000" font-family="sans-serif" font-size="14" lengthAdjust="spacing" textLength="103" x="206" y="108.0234">:PlanController</text><rect fill="#E2E2F0" height="30.4883" rx="2.5" ry="2.5" style="stroke:#181818;stroke-width:0.5;" width="117" x="199" y="596.1875"/><text fill="#000000" font-family="sans-serif" font-size="14" lengthAdjust="spacing" textLength="103" x="206" y="616.7227">:PlanController</text><rect fill="#E2E2F0" height="30.4883" rx="2.5" ry="2.5" style="stroke:#181818;stroke-width:0.5;" width="102" x="557.5" y="87.4883"/><text fill="#000000" font-family="sans-serif" font-size="14" lengthAdjust="spacing" textLength="88" x="564.5" y="108.0234">:PlansService</text><rect fill="#E2E2F0" height="30.4883" rx="2.5" ry="2.5" style="stroke:#181818;stroke-width:0.5;" width="102" x="557.5" y="596.1875"/><text fill="#000000" font-family="sans-serif" font-size="14" lengthAdjust="spacing" textLength="88" x="564.5" y="616.7227">:PlansService</text><rect fill="#E2E2F0" height="30.4883" rx="2.5" ry="2.5" style="stroke:#181818;stroke-width:0.5;" width="127" x="998" y="87.4883"/><text fill="#000000" font-family="sans-serif" font-size="14" lengthAdjust="spacing" textLength="113" x="1005" y="108.0234">:PlansRepository</text><rect fill="#E2E2F0" height="30.4883" rx="2.5" ry="2.5" style="stroke:#181818;stroke-width:0.5;" width="127" x="998" y="596.1875"/><text fill="#000000" font-family="sans-serif" font-size="14" lengthAdjust="spacing" textLength="113" x="1005" y="616.7227">:PlansRepository</text><rect fill="#E2E2F0" height="30.4883" rx="2.5" ry="2.5" style="stroke:#181818;stroke-width:0.5;" width="151" x="1135" y="87.4883"/><text fill="#000000" font-family="sans-serif" font-size="14" lengthAdjust="spacing" textLength="137" x="1142" y="108.0234">:CreatePlansMapper</text><rect fill="#E2E2F0" height="30.4883" rx="2.5" ry="2.5" style="stroke:#181818;stroke-width:0.5;" width="151" x="1135" y="596.1875"/><text fill="#000000" font-family="sans-serif" font-size="14" lengthAdjust="spacing" textLength="137" x="1142" y="616.7227">:CreatePlansMapper</text><rect fill="#FFFFFF" height="428.9004" style="stroke:#181818;stroke-width:1.0;" width="10" x="252.5" y="150.2871"/><rect fill="#FFFFFF" height="344.3135" style="stroke:#181818;stroke-width:1.0;" width="10" x="603.5" y="179.5977"/><rect fill="#FFFFFF" height="85.8975" style="stroke:#181818;stroke-width:1.0;" width="10" x="1056.5" y="208.9082"/><rect fill="#FFFFFF" height="29.3105" style="stroke:#181818;stroke-width:1.0;" width="10" x="1056.5" y="439.3242"/><rect fill="#FFFFFF" height="29.3105" style="stroke:#181818;stroke-width:1.0;" width="10" x="1205.5" y="380.7031"/><polygon fill="#181818" points="240.5,146.2871,250.5,150.2871,240.5,154.2871,244.5,150.2871" style="stroke:#181818;stroke-width:1.0;"/><line style="stroke:#181818;stroke-width:1.0;" x1="122" x2="246.5" y1="150.2871" y2="150.2871"/><text fill="#000000" font-family="sans-serif" font-size="13" font-weight="bold" lengthAdjust="spacing" textLength="9" x="129" y="145.5449">1</text><text fill="#000000" font-family="sans-serif" font-size="13" lengthAdjust="spacing" textLength="77" x="142" y="145.5449">POST /plans</text><polygon fill="#181818" points="591.5,175.5977,601.5,179.5977,591.5,183.5977,595.5,179.5977" style="stroke:#181818;stroke-width:1.0;"/><line style="stroke:#181818;stroke-width:1.0;" x1="262.5" x2="597.5" y1="179.5977" y2="179.5977"/><text fill="#000000" font-family="sans-serif" font-size="13" font-weight="bold" lengthAdjust="spacing" textLength="9" x="269.5" y="174.8555">2</text><text fill="#000000" font-family="sans-serif" font-size="13" lengthAdjust="spacing" textLength="309" x="282.5" y="174.8555">Plans plans = create(CreatePlanRequest resource)</text><polygon fill="#181818" points="1044.5,204.9082,1054.5,208.9082,1044.5,212.9082,1048.5,208.9082" style="stroke:#181818;stroke-width:1.0;"/><line style="stroke:#181818;stroke-width:1.0;" x1="613.5" x2="1050.5" y1="208.9082" y2="208.9082"/><text fill="#000000" font-family="sans-serif" font-size="13" font-weight="bold" lengthAdjust="spacing" textLength="9" x="620.5" y="204.166">3</text><text fill="#000000" font-family="sans-serif" font-size="13" lengthAdjust="spacing" textLength="411" x="633.5" y="204.166">Optional&lt;Plans&gt; plans = findByName_Name(resource.getName())</text><polygon fill="#181818" points="624.5,290.8057,614.5,294.8057,624.5,298.8057,620.5,294.8057" style="stroke:#181818;stroke-width:1.0;"/><line style="stroke:#181818;stroke-width:1.0;stroke-dasharray:2.0,2.0;" x1="618.5" x2="1060.5" y1="294.8057" y2="294.8057"/><text fill="#000000" font-family="sans-serif" font-size="13" font-weight="bold" lengthAdjust="spacing" textLength="9" x="630.5" y="290.0635">4</text><text fill="#000000" font-family="sans-serif" font-size="13" lengthAdjust="spacing" textLength="34" x="643.5" y="290.0635">plans</text><path d="M1071,221.9082 L1071,353.9082 L1215,353.9082 L1215,231.9082 L1205,221.9082 L1071,221.9082 " fill="#FEFFDD" style="stroke:#181818;stroke-width:0.5;"/><path d="M1205,221.9082 L1205,231.9082 L1215,231.9082 L1205,221.9082 " fill="#FEFFDD" style="stroke:#181818;stroke-width:0.5;"/><text fill="#000000" font-family="sans-serif" font-size="13" lengthAdjust="spacing" textLength="79" x="1077" y="239.4766">if the user is</text><text fill="#000000" font-family="sans-serif" font-size="13" lengthAdjust="spacing" textLength="93" x="1077" y="254.7871">tryint to create</text><text fill="#000000" font-family="sans-serif" font-size="13" lengthAdjust="spacing" textLength="80" x="1077" y="270.0977">a plan with a</text><text fill="#000000" font-family="sans-serif" font-size="13" lengthAdjust="spacing" textLength="63" x="1077" y="285.4082">name that</text><text fill="#000000" font-family="sans-serif" font-size="13" lengthAdjust="spacing" textLength="80" x="1077" y="300.7188">already exist</text><text fill="#000000" font-family="sans-serif" font-size="13" lengthAdjust="spacing" textLength="80" x="1077" y="316.0293">the code will</text><text fill="#000000" font-family="sans-serif" font-size="13" lengthAdjust="spacing" textLength="121" x="1077" y="331.3398">end here and throw</text><text fill="#000000" font-family="sans-serif" font-size="13" lengthAdjust="spacing" textLength="123" x="1077" y="346.6504">a ConflictException</text><polygon fill="#181818" points="1193.5,376.7031,1203.5,380.7031,1193.5,384.7031,1197.5,380.7031" style="stroke:#181818;stroke-width:1.0;"/><line style="stroke:#181818;stroke-width:1.0;" x1="613.5" x2="1199.5" y1="380.7031" y2="380.7031"/><text fill="#000000" font-family="sans-serif" font-size="13" font-weight="bold" lengthAdjust="spacing" textLength="9" x="620.5" y="375.9609">5</text><text fill="#000000" font-family="sans-serif" font-size="13" lengthAdjust="spacing" textLength="179" x="633.5" y="375.9609">Plans obj  = create(resource)</text><polygon fill="#181818" points="624.5,406.0137,614.5,410.0137,624.5,414.0137,620.5,410.0137" style="stroke:#181818;stroke-width:1.0;"/><line style="stroke:#181818;stroke-width:1.0;stroke-dasharray:2.0,2.0;" x1="618.5" x2="1209.5" y1="410.0137" y2="410.0137"/><text fill="#000000" font-family="sans-serif" font-size="13" font-weight="bold" lengthAdjust="spacing" textLength="9" x="630.5" y="405.2715">6</text><text fill="#000000" font-family="sans-serif" font-size="13" lengthAdjust="spacing" textLength="20" x="643.5" y="405.2715">obj</text><polygon fill="#181818" points="1044.5,435.3242,1054.5,439.3242,1044.5,443.3242,1048.5,439.3242" style="stroke:#181818;stroke-width:1.0;"/><line style="stroke:#181818;stroke-width:1.0;" x1="613.5" x2="1050.5" y1="439.3242" y2="439.3242"/><text fill="#000000" font-family="sans-serif" font-size="13" font-weight="bold" lengthAdjust="spacing" textLength="9" x="620.5" y="434.582">7</text><text fill="#000000" font-family="sans-serif" font-size="13" lengthAdjust="spacing" textLength="56" x="633.5" y="434.582">save(obj)</text><polygon fill="#181818" points="624.5,464.6348,614.5,468.6348,624.5,472.6348,620.5,468.6348" style="stroke:#181818;stroke-width:1.0;"/><line style="stroke:#181818;stroke-width:1.0;stroke-dasharray:2.0,2.0;" x1="618.5" x2="1060.5" y1="468.6348" y2="468.6348"/><text fill="#000000" font-family="sans-serif" font-size="13" font-weight="bold" lengthAdjust="spacing" textLength="9" x="630.5" y="463.8926">8</text><text fill="#000000" font-family="sans-serif" font-size="13" lengthAdjust="spacing" textLength="20" x="643.5" y="463.8926">obj</text><polygon fill="#181818" points="273.5,519.9111,263.5,523.9111,273.5,527.9111,269.5,523.9111" style="stroke:#181818;stroke-width:1.0;"/><line style="stroke:#181818;stroke-width:1.0;stroke-dasharray:2.0,2.0;" x1="267.5" x2="607.5" y1="523.9111" y2="523.9111"/><text fill="#000000" font-family="sans-serif" font-size="13" font-weight="bold" lengthAdjust="spacing" textLength="9" x="279.5" y="519.1689">9</text><text fill="#000000" font-family="sans-serif" font-size="13" lengthAdjust="spacing" textLength="20" x="292.5" y="519.1689">obj</text><path d="M37,481.6348 L37,552.6348 L248,552.6348 L248,491.6348 L238,481.6348 L37,481.6348 " fill="#FEFFDD" style="stroke:#181818;stroke-width:0.5;"/><path d="M238,481.6348 L238,491.6348 L248,491.6348 L238,481.6348 " fill="#FEFFDD" style="stroke:#181818;stroke-width:0.5;"/><text fill="#000000" font-family="sans-serif" font-size="13" lengthAdjust="spacing" textLength="149" x="43" y="499.2031">The controller here also</text><text fill="#000000" font-family="sans-serif" font-size="13" lengthAdjust="spacing" textLength="164" x="43" y="514.5137">creates an ResponseEntity</text><text fill="#000000" font-family="sans-serif" font-size="13" lengthAdjust="spacing" textLength="184" x="43" y="529.8242">to show the user the obj with</text><text fill="#000000" font-family="sans-serif" font-size="13" lengthAdjust="spacing" textLength="190" x="43" y="545.1348">"plansViewMapper" as objView</text><polygon fill="#181818" points="133,575.1875,123,579.1875,133,583.1875,129,579.1875" style="stroke:#181818;stroke-width:1.0;"/><line style="stroke:#181818;stroke-width:1.0;stroke-dasharray:2.0,2.0;" x1="127" x2="256.5" y1="579.1875" y2="579.1875"/><text fill="#000000" font-family="sans-serif" font-size="13" font-weight="bold" lengthAdjust="spacing" textLength="18" x="139" y="574.4453">10</text><text fill="#000000" font-family="sans-serif" font-size="13" lengthAdjust="spacing" textLength="49" x="161" y="574.4453">objView</text><!--SRC=[RLF1Rjim3BthAuXSbW1DSpUw0bdQmmvTYwROTL1b9jOcIvv4n_7VZvJjE2jwI21Hxv6FZ_INYgX9nMRJEEsfhTsj2VKcuTyMlS5rQVKnwbhfbe8sP4-Q48BFTz_MxnWLMN88-v413mDZ0zi4Jph-GRB-2AMDQ2Z46_WE7HS22b3YmNe43HuxUE7o725jdU2fGgY3fyhre7t9Fzzg1oOakXaUzTdMRGs320W79f-imPJXWI4HJAKZYyPe4rcJ12HKwLHTTw2qI8F5BFTXbBi0dM1hLACZPx2DA5yKedN7uc9m3WVCZgBx19Ns64LLniZvCymhDY5PhjPdc5m_m7OHsVSCVj9DCzOSZcfhO7sV1K01By_xDyYpJ2g7-4dgmb0gzvxWAvYSSJadVfNv9OA8ARJHu4fb6jD53nJF3TdWjRlBUUulYNY4vRV-Xwxnb_mj9_xj4Ia7LYkLCwmlIWQkye5NATfZHGh03gDf4u_D9WvGxEsm9eDK3kbCXCvI1PhldjCpImjVEqQLFU2PPorqJcP2YOnsZk_8Iy4hWNaxg8gXombvYWTd3JsU3UO6bG15sQNzmUN9l_3-6sRxPhD6rDHa8S3_72mWwHCkEVp1ZsleECSXbFrnUE1std8tqyADZRWKr2X4bfwhf2RuX8-UlyXUYNMf2jtignn4lnYeO96dyDDYTxLI_2oHsGLUhhlrUjgkwVaV]--></g></svg>