<?xml version="1.0" encoding="us-ascii" standalone="no"?><svg xmlns="http://www.w3.org/2000/svg" xmlns:xlink="http://www.w3.org/1999/xlink" contentStyleType="text/css" height="801px" preserveAspectRatio="none" style="width:1092px;height:801px;background:#FFFFFF;" version="1.1" viewBox="0 0 1092 801" width="1092px" zoomAndPan="magnify"><defs/><g><text fill="#000000" font-family="sans-serif" font-size="14" font-weight="bold" lengthAdjust="spacing" textLength="453" x="312.75" y="25.1074">Class Diagram / As marketing director, I want to deactivate a plan</text><!--class PlansRepository--><g id="elem_PlansRepository"><rect codeLine="33" fill="#F1F1F1" height="135.0664" id="PlansRepository" rx="2.5" ry="2.5" style="stroke:#181818;stroke-width:0.5;" width="400" x="353.5" y="330.6211"/><text fill="#000000" font-family="sans-serif" font-size="12" font-style="italic" lengthAdjust="spacing" textLength="61" x="523" y="348.5703">&#171;interface&#187;</text><text fill="#000000" font-family="sans-serif" font-size="14" font-style="italic" lengthAdjust="spacing" textLength="103" x="502" y="366.6895">PlansRepository</text><line style="stroke:#181818;stroke-width:0.5;" x1="354.5" x2="752.5" y1="375.2031" y2="375.2031"/><line style="stroke:#181818;stroke-width:0.5;" x1="354.5" x2="752.5" y1="383.2031" y2="383.2031"/><ellipse cx="364.5" cy="398.0137" fill="#84BE84" rx="3" ry="3" style="stroke:#038048;stroke-width:1.0;"/><text fill="#000000" font-family="sans-serif" font-size="14" lengthAdjust="spacing" textLength="317" x="373.5" y="402.3105">findByName_Name(String name): Optional&lt;Plans&gt;</text><ellipse cx="364.5" cy="416.6348" fill="#84BE84" rx="3" ry="3" style="stroke:#038048;stroke-width:1.0;"/><text fill="#000000" font-family="sans-serif" font-size="14" lengthAdjust="spacing" textLength="231" x="373.5" y="420.9316">getPlansFromOtherAPI(String name)</text><ellipse cx="364.5" cy="435.2559" fill="#84BE84" rx="3" ry="3" style="stroke:#038048;stroke-width:1.0;"/><text fill="#000000" font-family="sans-serif" font-size="14" lengthAdjust="spacing" textLength="374" x="373.5" y="439.5527">doPlansPatchDeactivate(String name, long desiredVersion)</text><ellipse cx="364.5" cy="453.877" fill="#84BE84" rx="3" ry="3" style="stroke:#038048;stroke-width:1.0;"/><text fill="#000000" font-family="sans-serif" font-size="14" lengthAdjust="spacing" textLength="216" x="373.5" y="458.1738">save(S entity) : &lt;S extends Plans&gt;</text></g><!--class Plans--><g id="elem_Plans"><rect codeLine="7" fill="#F1F1F1" height="249.4531" id="Plans" rx="2.5" ry="2.5" style="stroke:#181818;stroke-width:0.5;" width="261" x="558" y="544.6211"/><text fill="#000000" font-family="sans-serif" font-size="14" lengthAdjust="spacing" textLength="35" x="671" y="564.7285">Plans</text><line style="stroke:#181818;stroke-width:0.5;" x1="559" x2="818" y1="573.2422" y2="573.2422"/><rect fill="none" height="6" style="stroke:#C82930;stroke-width:1.0;" width="6" x="566" y="585.0527"/><text fill="#000000" font-family="sans-serif" font-size="14" lengthAdjust="spacing" textLength="35" x="578" y="592.3496">name</text><rect fill="none" height="6" style="stroke:#C82930;stroke-width:1.0;" width="6" x="566" y="603.6738"/><text fill="#000000" font-family="sans-serif" font-size="14" lengthAdjust="spacing" textLength="69" x="578" y="610.9707">description</text><rect fill="none" height="6" style="stroke:#C82930;stroke-width:1.0;" width="6" x="566" y="622.2949"/><text fill="#000000" font-family="sans-serif" font-size="14" lengthAdjust="spacing" textLength="112" x="578" y="629.5918">numberOfMinutes</text><rect fill="none" height="6" style="stroke:#C82930;stroke-width:1.0;" width="6" x="566" y="640.916"/><text fill="#000000" font-family="sans-serif" font-size="14" lengthAdjust="spacing" textLength="158" x="578" y="648.2129">maximumNumberOfUsers</text><rect fill="none" height="6" style="stroke:#C82930;stroke-width:1.0;" width="6" x="566" y="659.5371"/><text fill="#000000" font-family="sans-serif" font-size="14" lengthAdjust="spacing" textLength="98" x="578" y="666.834">musicCollection</text><rect fill="none" height="6" style="stroke:#C82930;stroke-width:1.0;" width="6" x="566" y="678.1582"/><text fill="#000000" font-family="sans-serif" font-size="14" lengthAdjust="spacing" textLength="107" x="578" y="685.4551">musicSuggestion</text><rect fill="none" height="6" style="stroke:#C82930;stroke-width:1.0;" width="6" x="566" y="696.7793"/><text fill="#000000" font-family="sans-serif" font-size="14" lengthAdjust="spacing" textLength="68" x="578" y="704.0762">annualFee</text><rect fill="none" height="6" style="stroke:#C82930;stroke-width:1.0;" width="6" x="566" y="715.4004"/><text fill="#000000" font-family="sans-serif" font-size="14" lengthAdjust="spacing" textLength="74" x="578" y="722.6973">monthlyFee</text><rect fill="none" height="6" style="stroke:#C82930;stroke-width:1.0;" width="6" x="566" y="734.0215"/><text fill="#000000" font-family="sans-serif" font-size="14" lengthAdjust="spacing" textLength="37" x="578" y="741.3184">active</text><rect fill="none" height="6" style="stroke:#C82930;stroke-width:1.0;" width="6" x="566" y="752.6426"/><text fill="#000000" font-family="sans-serif" font-size="14" lengthAdjust="spacing" textLength="60" x="578" y="759.9395">promoted</text><line style="stroke:#181818;stroke-width:0.5;" x1="559" x2="818" y1="767.4531" y2="767.4531"/><ellipse cx="569" cy="782.2637" fill="#84BE84" rx="3" ry="3" style="stroke:#038048;stroke-width:1.0;"/><text fill="#000000" font-family="sans-serif" font-size="14" lengthAdjust="spacing" textLength="235" x="578" y="786.5605">deactivate(long desiredVersion): void</text></g><!--class PlansViewMapper--><g id="elem_PlansViewMapper"><rect codeLine="20" fill="#F1F1F1" height="63.2422" id="PlansViewMapper" rx="2.5" ry="2.5" style="stroke:#181818;stroke-width:0.5;" width="253" x="177" y="188.6211"/><text fill="#000000" font-family="sans-serif" font-size="14" lengthAdjust="spacing" textLength="112" x="247.5" y="208.7285">PlansViewMapper</text><line style="stroke:#181818;stroke-width:0.5;" x1="178" x2="429" y1="217.2422" y2="217.2422"/><line style="stroke:#181818;stroke-width:0.5;" x1="178" x2="429" y1="225.2422" y2="225.2422"/><ellipse cx="188" cy="240.0527" fill="#84BE84" rx="3" ry="3" style="stroke:#038048;stroke-width:1.0;"/><text fill="#000000" font-family="sans-serif" font-size="14" lengthAdjust="spacing" textLength="227" x="197" y="244.3496">toPlansView(Plans plans):PlansView</text></g><!--class PlansMapperInverse--><g id="elem_PlansMapperInverse"><rect codeLine="23" fill="#F1F1F1" height="63.2422" id="PlansMapperInverse" rx="2.5" ry="2.5" style="stroke:#181818;stroke-width:0.5;" width="231" x="465" y="188.6211"/><text fill="#000000" font-family="sans-serif" font-size="14" lengthAdjust="spacing" textLength="129" x="516" y="208.7285">PlansMapperInverse</text><line style="stroke:#181818;stroke-width:0.5;" x1="466" x2="695" y1="217.2422" y2="217.2422"/><line style="stroke:#181818;stroke-width:0.5;" x1="466" x2="695" y1="225.2422" y2="225.2422"/><ellipse cx="476" cy="240.0527" fill="#84BE84" rx="3" ry="3" style="stroke:#038048;stroke-width:1.0;"/><text fill="#000000" font-family="sans-serif" font-size="14" lengthAdjust="spacing" textLength="205" x="485" y="244.3496">toPlansView(PlanRequest plans)</text></g><!--class PlansController--><g id="elem_PlansController"><rect codeLine="26" fill="#F1F1F1" height="63.2422" id="PlansController" rx="2.5" ry="2.5" style="stroke:#181818;stroke-width:0.5;" width="562" x="160.5" y="46.6211"/><text fill="#000000" font-family="sans-serif" font-size="14" lengthAdjust="spacing" textLength="97" x="393" y="66.7285">PlansController</text><line style="stroke:#181818;stroke-width:0.5;" x1="161.5" x2="721.5" y1="75.2422" y2="75.2422"/><line style="stroke:#181818;stroke-width:0.5;" x1="161.5" x2="721.5" y1="83.2422" y2="83.2422"/><ellipse cx="171.5" cy="98.0527" fill="#84BE84" rx="3" ry="3" style="stroke:#038048;stroke-width:1.0;"/><text fill="#000000" font-family="sans-serif" font-size="14" lengthAdjust="spacing" textLength="536" x="180.5" y="102.3496">deactivate(final WebRequest request,final String name): ResponseEntity&lt;PlansView&gt;</text></g><!--class PlansService--><g id="elem_PlansService"><rect codeLine="29" fill="#F1F1F1" height="63.2422" id="PlansService" rx="2.5" ry="2.5" style="stroke:#181818;stroke-width:0.5;" width="354" x="731.5" y="188.6211"/><text fill="#000000" font-family="sans-serif" font-size="14" lengthAdjust="spacing" textLength="82" x="867.5" y="208.7285">PlansService</text><line style="stroke:#181818;stroke-width:0.5;" x1="732.5" x2="1084.5" y1="217.2422" y2="217.2422"/><line style="stroke:#181818;stroke-width:0.5;" x1="732.5" x2="1084.5" y1="225.2422" y2="225.2422"/><ellipse cx="742.5" cy="240.0527" fill="#84BE84" rx="3" ry="3" style="stroke:#038048;stroke-width:1.0;"/><text fill="#000000" font-family="sans-serif" font-size="14" lengthAdjust="spacing" textLength="328" x="751.5" y="244.3496">deactivate(String name, long desiredVersion): Plans</text></g><!--class PlansRepositoryCustomImpl--><g id="elem_PlansRepositoryCustomImpl"><rect fill="#F1F1F1" height="44.6211" id="PlansRepositoryCustomImpl" rx="2.5" ry="2.5" style="stroke:#181818;stroke-width:0.5;" width="182" x="901.5" y="375.6211"/><text fill="#000000" font-family="sans-serif" font-size="14" lengthAdjust="spacing" textLength="176" x="904.5" y="395.7285">PlansRepositoryCustomImpl</text><line style="stroke:#181818;stroke-width:0.5;" x1="902.5" x2="1082.5" y1="404.2422" y2="404.2422"/><line style="stroke:#181818;stroke-width:0.5;" x1="902.5" x2="1082.5" y1="412.2422" y2="412.2422"/></g><!--link PlansController to PlansService--><g id="link_PlansController_PlansService"><path codeLine="42" d="M543.41,109.6711 C621.38,133.0411 722.6526,163.4086 800.6626,186.7886 " fill="none" id="PlansController-to-PlansService" style="stroke:#181818;stroke-width:1.0;stroke-dasharray:7.0,7.0;"/><polygon fill="#181818" points="806.41,188.5111,798.9372,182.0957,801.6205,187.0756,796.6405,189.7589,806.41,188.5111" style="stroke:#181818;stroke-width:1.0;"/><polygon fill="#000000" points="712.2894,150.7023,704.4692,145.2899,702.7814,150.9202,712.2894,150.7023" style="stroke:#000000;stroke-width:1.0;"/><text fill="#000000" font-family="sans-serif" font-size="13" lengthAdjust="spacing" textLength="28" x="716.5" y="154.6494">uses</text></g><!--link PlansService to PlansRepository--><g id="link_PlansService_PlansRepository"><path codeLine="43" d="M824.02,251.7311 C801.17,260.7011 776.64,270.9811 754.5,281.6211 C724.03,296.2611 697.1249,310.7463 667.7249,327.6063 " fill="none" id="PlansService-to-PlansRepository" style="stroke:#181818;stroke-width:1.0;stroke-dasharray:7.0,7.0;"/><polygon fill="#181818" points="662.52,330.5911,672.3172,329.5838,666.8574,328.1037,668.3374,322.6439,662.52,330.5911" style="stroke:#181818;stroke-width:1.0;"/><polygon fill="#000000" points="755.002,293.4502,764.4224,292.1439,761.8555,286.8562,755.002,293.4502" style="stroke:#000000;stroke-width:1.0;"/><text fill="#000000" font-family="sans-serif" font-size="13" lengthAdjust="spacing" textLength="28" x="768.5" y="296.6494">uses</text></g><!--link PlansService to PlansRepositoryCustomImpl--><g id="link_PlansService_PlansRepositoryCustomImpl"><path codeLine="44" d="M923.14,251.7811 C940.01,287.1311 964.7469,338.9456 979.5569,369.9956 " fill="none" id="PlansService-to-PlansRepositoryCustomImpl" style="stroke:#181818;stroke-width:1.0;stroke-dasharray:7.0,7.0;"/><polygon fill="#181818" points="982.14,375.4111,981.8758,365.5658,979.9875,370.8982,974.6551,369.0099,982.14,375.4111" style="stroke:#181818;stroke-width:1.0;"/><polygon fill="#000000" points="951.6535,295.7791,950.4101,286.3501,945.1054,288.8818,951.6535,295.7791" style="stroke:#000000;stroke-width:1.0;"/><text fill="#000000" font-family="sans-serif" font-size="13" lengthAdjust="spacing" textLength="28" x="958.5" y="296.6494">uses</text></g><!--link PlansRepository to Plans--><g id="link_PlansRepository_Plans"><path codeLine="45" d="M587.05,465.9611 C599,489.7711 610.1672,512.0393 623.7472,539.0793 " fill="none" id="PlansRepository-to-Plans" style="stroke:#181818;stroke-width:1.0;stroke-dasharray:7.0,7.0;"/><polygon fill="#181818" points="626.44,544.4411,625.9753,534.6032,624.196,539.9729,618.8263,538.1936,626.44,544.4411" style="stroke:#181818;stroke-width:1.0;"/><polygon fill="#000000" points="611.2572,500.7978,612.6878,510.2002,617.9411,507.5636,611.2572,500.7978" style="stroke:#000000;stroke-width:1.0;"/><text fill="#000000" font-family="sans-serif" font-size="13" lengthAdjust="spacing" textLength="36" x="622.5" y="510.6494">record</text></g><!--reverse link PlansController to PlansRepository--><g id="link_PlansController_PlansRepository"><path codeLine="46" d="M204.0269,110.9708 C95.1469,135.5208 6,177.3311 61.5,251.6211 C97.66,300.0111 233.59,337.9711 353.44,362.9611 " fill="none" id="PlansController-backto-PlansRepository" style="stroke:#181818;stroke-width:1.0;stroke-dasharray:7.0,7.0;"/><polygon fill="#181818" points="209.88,109.6511,200.2206,107.7287,205.0025,110.7509,201.9802,115.5327,209.88,109.6511" style="stroke:#181818;stroke-width:1.0;"/><polygon fill="#000000" points="63.9499,215.9658,66.0351,225.2449,71.091,222.2471,63.9499,215.9658" style="stroke:#000000;stroke-width:1.0;"/><text fill="#000000" font-family="sans-serif" font-size="13" lengthAdjust="spacing" textLength="83" x="75.5" y="225.6494">HTPP API call</text></g><!--link PlansService to Plans--><g id="link_PlansService_Plans"><path codeLine="47" d="M888.4,251.6811 C874.52,273.3211 856.01,303.2511 841.5,330.6211 C804.75,399.9711 770.6725,474.3687 742.5625,539.0187 " fill="none" id="PlansService-to-Plans" style="stroke:#181818;stroke-width:1.0;stroke-dasharray:7.0,7.0;"/><polygon fill="#181818" points="740.17,544.5211,747.4269,537.8625,742.1637,539.9358,740.0904,534.6726,740.17,544.5211" style="stroke:#181818;stroke-width:1.0;"/><polygon fill="#000000" points="844.2371,402.7252,850.9515,395.9897,845.7101,393.3294,844.2371,402.7252" style="stroke:#000000;stroke-width:1.0;"/><text fill="#000000" font-family="sans-serif" font-size="13" lengthAdjust="spacing" textLength="28" x="855.5" y="403.6494">uses</text></g><!--link PlansController to PlansMapperInverse--><g id="link_PlansController_PlansMapperInverse"><path codeLine="48" d="M472.01,109.8411 C495.18,133.1911 522.6829,160.883 545.8429,184.213 " fill="none" id="PlansController-to-PlansMapperInverse" style="stroke:#181818;stroke-width:1.0;stroke-dasharray:7.0,7.0;"/><polygon fill="#181818" points="550.07,188.4711,546.5681,179.2658,546.5474,184.9227,540.8906,184.902,550.07,188.4711" style="stroke:#181818;stroke-width:1.0;"/><polygon fill="#000000" points="527.0227,152.815,522.7358,144.3253,518.5644,148.4665,527.0227,152.815" style="stroke:#000000;stroke-width:1.0;"/><text fill="#000000" font-family="sans-serif" font-size="13" lengthAdjust="spacing" textLength="28" x="532.5" y="154.6494">uses</text></g><!--link PlansController to PlansViewMapper--><g id="link_PlansController_PlansViewMapper"><path codeLine="49" d="M411.22,109.8411 C388.21,133.1911 360.9214,160.8674 337.9314,184.1974 " fill="none" id="PlansController-to-PlansViewMapper" style="stroke:#181818;stroke-width:1.0;stroke-dasharray:7.0,7.0;"/><polygon fill="#181818" points="333.72,188.4711,342.8862,184.8682,337.2295,184.9097,337.188,179.253,333.72,188.4711" style="stroke:#181818;stroke-width:1.0;"/><polygon fill="#000000" points="382.9901,152.8276,391.4327,148.4487,387.2464,144.3226,382.9901,152.8276" style="stroke:#000000;stroke-width:1.0;"/><text fill="#000000" font-family="sans-serif" font-size="13" lengthAdjust="spacing" textLength="28" x="395.5" y="154.6494">uses</text></g><!--SRC=[bLDDRzf04BtlhvXRGH2uMyXIIXgLGmA2DZr6c_K0g-w7kpicGL7_UyTVO2DIjJxOkpDlPjwR6N_Q4-KncKvp8nqLraoKjrDbP8mtcPQx8AtOwmn1wQ0CYie3AmR7DUO-QlBX2BEPTeHXAnMcgH2aoI3CA-XTdGIcS1l1ol0JIRiTP3gWujWnBE2LAmDvo50gqWT9219AFg9Rxbq0FpTEMgnFZ8ygw9oqTut55VO5mtBxe5r166khbM_Q5lQnyNsF65fF4RMQUsEOIfkaiMwAtGvZnogTAwIvHsnHtj7U7C-6YdjxoOEtdZ2hhwEpie7nfNgCh3zxOYPSOPZ0mUjC_ExAVTBu-Y3p74CjV4J-P1zKfwf5SPYSpFq4TV327RW8Vf1ZZRyALjbawiVFMM0eUzCIw8ZOQYSD_C2NDa6el-FQiQ5GphWS5MjROyozY_Z5yLuSPoS6QPcsLtA3uQ1LIRPRh9Dj3DVRLqKBvdzQmyiL5UzYnEIopyT7plDSlWPzcijgaQIf2QPY13kawdpFmrpI7iFjQj4BOanMTtGbIUtl_eEp64LvO1nWrPKX933ZonkXovfkfAn7Y8jPm6IIzfgLG14nGYgwnZFgt85_1iwBIDukR6xw8Pt__HJ5h7dsoeVi2iRWbj8B_Wby_RPQ0NSIb3JcGphzqjVqz_RxR_2Btwc5_W40]--></g></svg>