<?xml version="1.0" encoding="us-ascii" standalone="no"?><svg xmlns="http://www.w3.org/2000/svg" xmlns:xlink="http://www.w3.org/1999/xlink" contentStyleType="text/css" height="1067px" preserveAspectRatio="none" style="width:1816px;height:1067px;background:#FFFFFF;" version="1.1" viewBox="0 0 1816 1067" width="1816px" zoomAndPan="magnify"><defs/><g><text fill="#000000" font-family="sans-serif" font-size="14" font-weight="bold" lengthAdjust="spacing" textLength="486" x="666.75" y="30.1074">Sequence Diagram / As marketing director, I want to deactivate a plan</text><rect fill="#FFFFFF" height="809.8574" style="stroke:#181818;stroke-width:1.0;" width="10" x="284" y="156.5332"/><rect fill="#FFFFFF" height="684.6934" style="stroke:#181818;stroke-width:1.0;" width="10" x="670" y="187.8242"/><rect fill="#FFFFFF" height="86.1641" style="stroke:#181818;stroke-width:1.0;" width="10" x="1062" y="219.1152"/><rect fill="#FFFFFF" height="37.291" style="stroke:#181818;stroke-width:1.0;" width="10" x="1062" y="417.7344"/><rect fill="#FFFFFF" height="42.291" style="stroke:#181818;stroke-width:1.0;" width="10" x="1062" y="501.3164"/><rect fill="#FFFFFF" height="31.291" style="stroke:#181818;stroke-width:1.0;" width="10" x="1062" y="802.9355"/><rect fill="#FFFFFF" height="31.291" style="stroke:#181818;stroke-width:1.0;" width="10" x="1459.5" y="903.8086"/><rect fill="#FFFFFF" height="31.291" style="stroke:#181818;stroke-width:1.0;" width="10" x="1584" y="581.8984"/><rect fill="#FFFFFF" height="31.291" style="stroke:#181818;stroke-width:1.0;" width="10" x="1719.5" y="644.4805"/><rect fill="none" height="339.9102" style="stroke:#000000;stroke-width:1.5;" width="1195.5" x="615" y="375.1523"/><rect fill="none" height="113.1641" style="stroke:#000000;stroke-width:1.5;" width="784.5" x="615" y="729.0625"/><line style="stroke:#181818;stroke-width:0.5;stroke-dasharray:5.0,5.0;" x1="66" x2="66" y1="123.2422" y2="984.3906"/><line style="stroke:#181818;stroke-width:0.5;stroke-dasharray:5.0,5.0;" x1="289" x2="289" y1="123.2422" y2="984.3906"/><line style="stroke:#181818;stroke-width:0.5;stroke-dasharray:5.0,5.0;" x1="675" x2="675" y1="123.2422" y2="984.3906"/><line style="stroke:#181818;stroke-width:0.5;stroke-dasharray:5.0,5.0;" x1="1066.5" x2="1066.5" y1="123.2422" y2="984.3906"/><line style="stroke:#181818;stroke-width:0.5;stroke-dasharray:5.0,5.0;" x1="1362.5" x2="1362.5" y1="123.2422" y2="984.3906"/><line style="stroke:#181818;stroke-width:0.5;stroke-dasharray:5.0,5.0;" x1="1464.5" x2="1464.5" y1="123.2422" y2="984.3906"/><line style="stroke:#181818;stroke-width:0.5;stroke-dasharray:5.0,5.0;" x1="1588.5" x2="1588.5" y1="123.2422" y2="984.3906"/><line style="stroke:#181818;stroke-width:0.5;stroke-dasharray:5.0,5.0;" x1="1724.5" x2="1724.5" y1="123.2422" y2="984.3906"/><text fill="#000000" font-family="sans-serif" font-size="14" lengthAdjust="spacing" textLength="116" x="5" y="119.7285">Marketing Director</text><ellipse cx="66" cy="53.1211" fill="#E2E2F0" rx="8" ry="8" style="stroke:#181818;stroke-width:0.5;"/><path d="M66,61.1211 L66,88.1211 M53,69.1211 L79,69.1211 M66,88.1211 L53,103.1211 M66,88.1211 L79,103.1211 " fill="none" style="stroke:#181818;stroke-width:0.5;"/><text fill="#000000" font-family="sans-serif" font-size="14" lengthAdjust="spacing" textLength="116" x="5" y="998.498">Marketing Director</text><ellipse cx="66" cy="1010.5117" fill="#E2E2F0" rx="8" ry="8" style="stroke:#181818;stroke-width:0.5;"/><path d="M66,1018.5117 L66,1045.5117 M53,1026.5117 L79,1026.5117 M66,1045.5117 L53,1060.5117 M66,1045.5117 L79,1060.5117 " fill="none" style="stroke:#181818;stroke-width:0.5;"/><rect fill="#E2E2F0" height="32.6211" rx="2.5" ry="2.5" style="stroke:#181818;stroke-width:0.5;" width="108" x="235" y="89.6211"/><text fill="#000000" font-family="sans-serif" font-size="14" lengthAdjust="spacing" textLength="94" x="242" y="111.7285">:PlanController</text><rect fill="#E2E2F0" height="32.6211" rx="2.5" ry="2.5" style="stroke:#181818;stroke-width:0.5;" width="108" x="235" y="983.3906"/><text fill="#000000" font-family="sans-serif" font-size="14" lengthAdjust="spacing" textLength="94" x="242" y="1005.498">:PlanController</text><rect fill="#E2E2F0" height="32.6211" rx="2.5" ry="2.5" style="stroke:#181818;stroke-width:0.5;" width="100" x="625" y="89.6211"/><text fill="#000000" font-family="sans-serif" font-size="14" lengthAdjust="spacing" textLength="86" x="632" y="111.7285">:PlansService</text><rect fill="#E2E2F0" height="32.6211" rx="2.5" ry="2.5" style="stroke:#181818;stroke-width:0.5;" width="100" x="625" y="983.3906"/><text fill="#000000" font-family="sans-serif" font-size="14" lengthAdjust="spacing" textLength="86" x="632" y="1005.498">:PlansService</text><rect fill="#E2E2F0" height="32.6211" rx="2.5" ry="2.5" style="stroke:#181818;stroke-width:0.5;" width="121" x="1006.5" y="89.6211"/><text fill="#000000" font-family="sans-serif" font-size="14" lengthAdjust="spacing" textLength="107" x="1013.5" y="111.7285">:PlansRepository</text><rect fill="#E2E2F0" height="32.6211" rx="2.5" ry="2.5" style="stroke:#181818;stroke-width:0.5;" width="121" x="1006.5" y="983.3906"/><text fill="#000000" font-family="sans-serif" font-size="14" lengthAdjust="spacing" textLength="107" x="1013.5" y="1005.498">:PlansRepository</text><rect fill="#E2E2F0" height="32.6211" rx="2.5" ry="2.5" style="stroke:#181818;stroke-width:0.5;" width="53" x="1336.5" y="89.6211"/><text fill="#000000" font-family="sans-serif" font-size="14" lengthAdjust="spacing" textLength="39" x="1343.5" y="111.7285">:Plans</text><rect fill="#E2E2F0" height="32.6211" rx="2.5" ry="2.5" style="stroke:#181818;stroke-width:0.5;" width="53" x="1336.5" y="983.3906"/><text fill="#000000" font-family="sans-serif" font-size="14" lengthAdjust="spacing" textLength="39" x="1343.5" y="1005.498">:Plans</text><rect fill="#E2E2F0" height="32.6211" rx="2.5" ry="2.5" style="stroke:#181818;stroke-width:0.5;" width="130" x="1399.5" y="89.6211"/><text fill="#000000" font-family="sans-serif" font-size="14" lengthAdjust="spacing" textLength="116" x="1406.5" y="111.7285">:PlansViewMapper</text><rect fill="#E2E2F0" height="32.6211" rx="2.5" ry="2.5" style="stroke:#181818;stroke-width:0.5;" width="130" x="1399.5" y="983.3906"/><text fill="#000000" font-family="sans-serif" font-size="14" lengthAdjust="spacing" textLength="116" x="1406.5" y="1005.498">:PlansViewMapper</text><rect fill="#E2E2F0" height="32.6211" rx="2.5" ry="2.5" style="stroke:#181818;stroke-width:0.5;" width="99" x="1539.5" y="89.6211"/><text fill="#000000" font-family="sans-serif" font-size="14" lengthAdjust="spacing" textLength="85" x="1546.5" y="111.7285">:PlanRequest</text><rect fill="#E2E2F0" height="32.6211" rx="2.5" ry="2.5" style="stroke:#181818;stroke-width:0.5;" width="99" x="1539.5" y="983.3906"/><text fill="#000000" font-family="sans-serif" font-size="14" lengthAdjust="spacing" textLength="85" x="1546.5" y="1005.498">:PlanRequest</text><rect fill="#E2E2F0" height="32.6211" rx="2.5" ry="2.5" style="stroke:#181818;stroke-width:0.5;" width="152" x="1648.5" y="89.6211"/><text fill="#000000" font-family="sans-serif" font-size="14" lengthAdjust="spacing" textLength="138" x="1655.5" y="111.7285">:PlansMapperInverser</text><rect fill="#E2E2F0" height="32.6211" rx="2.5" ry="2.5" style="stroke:#181818;stroke-width:0.5;" width="152" x="1648.5" y="983.3906"/><text fill="#000000" font-family="sans-serif" font-size="14" lengthAdjust="spacing" textLength="138" x="1655.5" y="1005.498">:PlansMapperInverser</text><rect fill="#FFFFFF" height="809.8574" style="stroke:#181818;stroke-width:1.0;" width="10" x="284" y="156.5332"/><rect fill="#FFFFFF" height="684.6934" style="stroke:#181818;stroke-width:1.0;" width="10" x="670" y="187.8242"/><rect fill="#FFFFFF" height="86.1641" style="stroke:#181818;stroke-width:1.0;" width="10" x="1062" y="219.1152"/><rect fill="#FFFFFF" height="37.291" style="stroke:#181818;stroke-width:1.0;" width="10" x="1062" y="417.7344"/><rect fill="#FFFFFF" height="42.291" style="stroke:#181818;stroke-width:1.0;" width="10" x="1062" y="501.3164"/><rect fill="#FFFFFF" height="31.291" style="stroke:#181818;stroke-width:1.0;" width="10" x="1062" y="802.9355"/><rect fill="#FFFFFF" height="31.291" style="stroke:#181818;stroke-width:1.0;" width="10" x="1459.5" y="903.8086"/><rect fill="#FFFFFF" height="31.291" style="stroke:#181818;stroke-width:1.0;" width="10" x="1584" y="581.8984"/><rect fill="#FFFFFF" height="31.291" style="stroke:#181818;stroke-width:1.0;" width="10" x="1719.5" y="644.4805"/><polygon fill="#181818" points="272,152.5332,282,156.5332,272,160.5332,276,156.5332" style="stroke:#181818;stroke-width:1.0;"/><line style="stroke:#181818;stroke-width:1.0;" x1="66" x2="278" y1="156.5332" y2="156.5332"/><text fill="#000000" font-family="sans-serif" font-size="13" font-weight="bold" lengthAdjust="spacing" textLength="7" x="73" y="151.2705">1</text><text fill="#000000" font-family="sans-serif" font-size="13" lengthAdjust="spacing" textLength="188" x="84" y="151.2705">PATCH /plans/deactivate/{name}</text><polygon fill="#181818" points="658,183.8242,668,187.8242,658,191.8242,662,187.8242" style="stroke:#181818;stroke-width:1.0;"/><line style="stroke:#181818;stroke-width:1.0;" x1="294" x2="664" y1="187.8242" y2="187.8242"/><text fill="#000000" font-family="sans-serif" font-size="13" font-weight="bold" lengthAdjust="spacing" textLength="7" x="301" y="182.5615">2</text><text fill="#000000" font-family="sans-serif" font-size="13" lengthAdjust="spacing" textLength="346" x="312" y="182.5615">Plans plans = deactivate(String name , long desiredVersion)</text><polygon fill="#181818" points="1050,215.1152,1060,219.1152,1050,223.1152,1054,219.1152" style="stroke:#181818;stroke-width:1.0;"/><line style="stroke:#181818;stroke-width:1.0;" x1="680" x2="1056" y1="219.1152" y2="219.1152"/><text fill="#000000" font-family="sans-serif" font-size="13" font-weight="bold" lengthAdjust="spacing" textLength="7" x="687" y="213.8525">3</text><text fill="#000000" font-family="sans-serif" font-size="13" lengthAdjust="spacing" textLength="292" x="698" y="213.8525">Optional&lt;Plans&gt; plan = findByName_Name(name)</text><polygon fill="#181818" points="691,301.2793,681,305.2793,691,309.2793,687,305.2793" style="stroke:#181818;stroke-width:1.0;"/><line style="stroke:#181818;stroke-width:1.0;stroke-dasharray:2.0,2.0;" x1="685" x2="1066" y1="305.2793" y2="305.2793"/><text fill="#000000" font-family="sans-serif" font-size="13" font-weight="bold" lengthAdjust="spacing" textLength="7" x="697" y="300.0166">4</text><text fill="#000000" font-family="sans-serif" font-size="13" lengthAdjust="spacing" textLength="24" x="708" y="300.0166">plan</text><path d="M403,232.1152 L403,363.1152 L665,363.1152 L665,242.1152 L655,232.1152 L403,232.1152 " fill="#FEFFDD" style="stroke:#181818;stroke-width:0.5;"/><path d="M655,232.1152 L655,242.1152 L665,242.1152 L655,232.1152 " fill="#FEFFDD" style="stroke:#181818;stroke-width:0.5;"/><text fill="#000000" font-family="sans-serif" font-size="13" lengthAdjust="spacing" textLength="236" x="409" y="251.1436">1) Service will check if plan exists locally</text><text fill="#000000" font-family="sans-serif" font-size="13" lengthAdjust="spacing" textLength="241" x="409" y="268.4346">2)If the plan doesn&#180;t exist locally it does a</text><text fill="#000000" font-family="sans-serif" font-size="13" lengthAdjust="spacing" textLength="200" x="409" y="285.7256">HTPP API Call to another instance</text><text fill="#000000" font-family="sans-serif" font-size="13" lengthAdjust="spacing" textLength="186" x="409" y="303.0166">3) If Plan does exist will check if</text><text fill="#000000" font-family="sans-serif" font-size="13" lengthAdjust="spacing" textLength="129" x="409" y="320.3076">it is already deactivate</text><text fill="#000000" font-family="sans-serif" font-size="13" lengthAdjust="spacing" textLength="4" x="409" y="337.5986">&#160;</text><text fill="#000000" font-family="sans-serif" font-size="13" lengthAdjust="spacing" textLength="4" x="409" y="354.8896">&#160;</text><path d="M615,375.1523 L676,375.1523 L676,384.4434 L666,394.4434 L615,394.4434 L615,375.1523 " fill="#EEEEEE" style="stroke:#000000;stroke-width:1.5;"/><rect fill="none" height="339.9102" style="stroke:#000000;stroke-width:1.5;" width="1195.5" x="615" y="375.1523"/><text fill="#000000" font-family="sans-serif" font-size="13" font-weight="bold" lengthAdjust="spacing" textLength="16" x="630" y="390.1807">alt</text><text fill="#000000" font-family="sans-serif" font-size="11" font-weight="bold" lengthAdjust="spacing" textLength="320" x="691" y="389.0225">[Check if the Plan exist on other instances if plan==empty]</text><polygon fill="#181818" points="1050,413.7344,1060,417.7344,1050,421.7344,1054,417.7344" style="stroke:#181818;stroke-width:1.0;"/><line style="stroke:#181818;stroke-width:1.0;" x1="680" x2="1056" y1="417.7344" y2="417.7344"/><text fill="#000000" font-family="sans-serif" font-size="13" font-weight="bold" lengthAdjust="spacing" textLength="7" x="687" y="412.4717">5</text><text fill="#000000" font-family="sans-serif" font-size="13" lengthAdjust="spacing" textLength="352" x="698" y="412.4717">deactivateNotLocal(name,desiredVersion,authorizationToken)</text><line style="stroke:#181818;stroke-width:1.0;stroke-dasharray:2.0,2.0;" x1="1072" x2="1114" y1="454.0254" y2="454.0254"/><line style="stroke:#181818;stroke-width:1.0;stroke-dasharray:2.0,2.0;" x1="1114" x2="1114" y1="454.0254" y2="467.0254"/><line style="stroke:#181818;stroke-width:1.0;stroke-dasharray:2.0,2.0;" x1="1067" x2="1114" y1="467.0254" y2="467.0254"/><polygon fill="#181818" points="1077,463.0254,1067,467.0254,1077,471.0254,1073,467.0254" style="stroke:#181818;stroke-width:1.0;"/><text fill="#000000" font-family="sans-serif" font-size="13" font-weight="bold" lengthAdjust="spacing" textLength="7" x="1079" y="448.7627">6</text><text fill="#000000" font-family="sans-serif" font-size="13" lengthAdjust="spacing" textLength="57" x="1090" y="448.7627">HTTP 200</text><line style="stroke:#181818;stroke-width:1.0;" x1="1067" x2="1114" y1="488.3164" y2="488.3164"/><line style="stroke:#181818;stroke-width:1.0;" x1="1114" x2="1114" y1="488.3164" y2="501.3164"/><line style="stroke:#181818;stroke-width:1.0;" x1="1073" x2="1114" y1="501.3164" y2="501.3164"/><polygon fill="#181818" points="1083,497.3164,1073,501.3164,1083,505.3164,1079,501.3164" style="stroke:#181818;stroke-width:1.0;"/><text fill="#000000" font-family="sans-serif" font-size="13" font-weight="bold" lengthAdjust="spacing" textLength="7" x="1079" y="483.0537">7</text><text fill="#000000" font-family="sans-serif" font-size="13" lengthAdjust="spacing" textLength="271" x="1090" y="483.0537">doPlansPatchDeactivate(name,desiredVersion)</text><line style="stroke:#181818;stroke-width:1.0;stroke-dasharray:2.0,2.0;" x1="1072" x2="1114" y1="542.6074" y2="542.6074"/><line style="stroke:#181818;stroke-width:1.0;stroke-dasharray:2.0,2.0;" x1="1114" x2="1114" y1="542.6074" y2="555.6074"/><line style="stroke:#181818;stroke-width:1.0;stroke-dasharray:2.0,2.0;" x1="1067" x2="1114" y1="555.6074" y2="555.6074"/><polygon fill="#181818" points="1077,551.6074,1067,555.6074,1077,559.6074,1073,555.6074" style="stroke:#181818;stroke-width:1.0;"/><text fill="#000000" font-family="sans-serif" font-size="13" font-weight="bold" lengthAdjust="spacing" textLength="7" x="1079" y="537.3447">8</text><text fill="#000000" font-family="sans-serif" font-size="13" lengthAdjust="spacing" textLength="57" x="1090" y="537.3447">HTTP 200</text><polygon fill="#181818" points="1572,577.8984,1582,581.8984,1572,585.8984,1576,581.8984" style="stroke:#181818;stroke-width:1.0;"/><line style="stroke:#181818;stroke-width:1.0;" x1="1067" x2="1578" y1="581.8984" y2="581.8984"/><text fill="#000000" font-family="sans-serif" font-size="13" font-weight="bold" lengthAdjust="spacing" textLength="7" x="1074" y="576.6357">9</text><text fill="#000000" font-family="sans-serif" font-size="13" lengthAdjust="spacing" textLength="309" x="1085" y="576.6357">gson.fromJson(responses.body(), PlanRequest.class)</text><polygon fill="#181818" points="1078,609.1895,1068,613.1895,1078,617.1895,1074,613.1895" style="stroke:#181818;stroke-width:1.0;"/><line style="stroke:#181818;stroke-width:1.0;stroke-dasharray:2.0,2.0;" x1="1072" x2="1588" y1="613.1895" y2="613.1895"/><text fill="#000000" font-family="sans-serif" font-size="13" font-weight="bold" lengthAdjust="spacing" textLength="14" x="1084" y="607.9268">10</text><text fill="#000000" font-family="sans-serif" font-size="13" lengthAdjust="spacing" textLength="150" x="1102" y="607.9268">PlanRequest planRequest</text><polygon fill="#181818" points="1707.5,640.4805,1717.5,644.4805,1707.5,648.4805,1711.5,644.4805" style="stroke:#181818;stroke-width:1.0;"/><line style="stroke:#181818;stroke-width:1.0;" x1="1067" x2="1713.5" y1="644.4805" y2="644.4805"/><text fill="#000000" font-family="sans-serif" font-size="13" font-weight="bold" lengthAdjust="spacing" textLength="14" x="1074" y="639.2178">11</text><text fill="#000000" font-family="sans-serif" font-size="13" lengthAdjust="spacing" textLength="152" x="1092" y="639.2178">toPlansView(planRequest)</text><polygon fill="#181818" points="1078,671.7715,1068,675.7715,1078,679.7715,1074,675.7715" style="stroke:#181818;stroke-width:1.0;"/><line style="stroke:#181818;stroke-width:1.0;stroke-dasharray:2.0,2.0;" x1="1072" x2="1723.5" y1="675.7715" y2="675.7715"/><text fill="#000000" font-family="sans-serif" font-size="13" font-weight="bold" lengthAdjust="spacing" textLength="14" x="1084" y="670.5088">12</text><text fill="#000000" font-family="sans-serif" font-size="13" lengthAdjust="spacing" textLength="24" x="1102" y="670.5088">plan</text><polygon fill="#181818" points="691,703.0625,681,707.0625,691,711.0625,687,707.0625" style="stroke:#181818;stroke-width:1.0;"/><line style="stroke:#181818;stroke-width:1.0;stroke-dasharray:2.0,2.0;" x1="685" x2="1066" y1="707.0625" y2="707.0625"/><text fill="#000000" font-family="sans-serif" font-size="13" font-weight="bold" lengthAdjust="spacing" textLength="14" x="697" y="701.7998">13</text><text fill="#000000" font-family="sans-serif" font-size="13" lengthAdjust="spacing" textLength="24" x="715" y="701.7998">plan</text><path d="M615,729.0625 L676,729.0625 L676,738.3535 L666,748.3535 L615,748.3535 L615,729.0625 " fill="#EEEEEE" style="stroke:#000000;stroke-width:1.5;"/><rect fill="none" height="113.1641" style="stroke:#000000;stroke-width:1.5;" width="784.5" x="615" y="729.0625"/><text fill="#000000" font-family="sans-serif" font-size="13" font-weight="bold" lengthAdjust="spacing" textLength="16" x="630" y="744.0908">alt</text><text fill="#000000" font-family="sans-serif" font-size="11" font-weight="bold" lengthAdjust="spacing" textLength="165" x="691" y="742.9326">[If Plan exist in Local Machine]</text><polygon fill="#181818" points="1346,767.6445,1356,771.6445,1346,775.6445,1350,771.6445" style="stroke:#181818;stroke-width:1.0;"/><line style="stroke:#181818;stroke-width:1.0;" x1="680" x2="1352" y1="771.6445" y2="771.6445"/><text fill="#000000" font-family="sans-serif" font-size="13" font-weight="bold" lengthAdjust="spacing" textLength="14" x="687" y="766.3818">14</text><text fill="#000000" font-family="sans-serif" font-size="13" lengthAdjust="spacing" textLength="180" x="705" y="766.3818">plan.deactivate(desiredVersion)</text><polygon fill="#181818" points="1050,798.9355,1060,802.9355,1050,806.9355,1054,802.9355" style="stroke:#181818;stroke-width:1.0;"/><line style="stroke:#181818;stroke-width:1.0;" x1="680" x2="1056" y1="802.9355" y2="802.9355"/><text fill="#000000" font-family="sans-serif" font-size="13" font-weight="bold" lengthAdjust="spacing" textLength="14" x="687" y="797.6729">15</text><text fill="#000000" font-family="sans-serif" font-size="13" lengthAdjust="spacing" textLength="58" x="705" y="797.6729">save(plan)</text><polygon fill="#181818" points="691,830.2266,681,834.2266,691,838.2266,687,834.2266" style="stroke:#181818;stroke-width:1.0;"/><line style="stroke:#181818;stroke-width:1.0;stroke-dasharray:2.0,2.0;" x1="685" x2="1066" y1="834.2266" y2="834.2266"/><text fill="#000000" font-family="sans-serif" font-size="13" font-weight="bold" lengthAdjust="spacing" textLength="14" x="697" y="828.9639">16</text><text fill="#000000" font-family="sans-serif" font-size="13" lengthAdjust="spacing" textLength="24" x="715" y="828.9639">plan</text><polygon fill="#181818" points="305,868.5176,295,872.5176,305,876.5176,301,872.5176" style="stroke:#181818;stroke-width:1.0;"/><line style="stroke:#181818;stroke-width:1.0;stroke-dasharray:2.0,2.0;" x1="299" x2="674" y1="872.5176" y2="872.5176"/><text fill="#000000" font-family="sans-serif" font-size="13" font-weight="bold" lengthAdjust="spacing" textLength="14" x="311" y="867.2549">17</text><text fill="#000000" font-family="sans-serif" font-size="13" lengthAdjust="spacing" textLength="24" x="329" y="867.2549">plan</text><polygon fill="#181818" points="1447.5,899.8086,1457.5,903.8086,1447.5,907.8086,1451.5,903.8086" style="stroke:#181818;stroke-width:1.0;"/><line style="stroke:#181818;stroke-width:1.0;" x1="294" x2="1453.5" y1="903.8086" y2="903.8086"/><text fill="#000000" font-family="sans-serif" font-size="13" font-weight="bold" lengthAdjust="spacing" textLength="14" x="301" y="898.5459">18</text><text fill="#000000" font-family="sans-serif" font-size="13" lengthAdjust="spacing" textLength="104" x="319" y="898.5459">toPlansView(plan)</text><polygon fill="#181818" points="305,931.0996,295,935.0996,305,939.0996,301,935.0996" style="stroke:#181818;stroke-width:1.0;"/><line style="stroke:#181818;stroke-width:1.0;stroke-dasharray:2.0,2.0;" x1="299" x2="1463.5" y1="935.0996" y2="935.0996"/><text fill="#000000" font-family="sans-serif" font-size="13" font-weight="bold" lengthAdjust="spacing" textLength="14" x="311" y="929.8369">19</text><text fill="#000000" font-family="sans-serif" font-size="13" lengthAdjust="spacing" textLength="52" x="329" y="929.8369">planView</text><polygon fill="#181818" points="77,962.3906,67,966.3906,77,970.3906,73,966.3906" style="stroke:#181818;stroke-width:1.0;"/><line style="stroke:#181818;stroke-width:1.0;stroke-dasharray:2.0,2.0;" x1="71" x2="288" y1="966.3906" y2="966.3906"/><text fill="#000000" font-family="sans-serif" font-size="13" font-weight="bold" lengthAdjust="spacing" textLength="14" x="83" y="961.1279">20</text><text fill="#000000" font-family="sans-serif" font-size="13" lengthAdjust="spacing" textLength="52" x="101" y="961.1279">planView</text><!--SRC=[TLJBRjim4BppAnQvr08iEqrlGcB0TGvnqQH2OkHQCD8w8aAHAhbswXRzgtv1lwnyIBASgXU18cTdbpExV5SHDJQRpnl95UrgEIjqFRVuROUgmBGK_Ddmcl4TQLwGs7D2q2hygrtzX8QH88dmq4R0TOo0EImjrDoy80dr3AKmM90sKrZ3gyi4fA74dfA3py-6l8nxF9pTzXpNBSSPS0lBWZNSa2X4u-dEijmHhBGYewN4Y5cHaICe-u1cBmeC6ByUmznZewrmsGu1vd_7OE4mhCPE7mM-tlAcQUlnloEmUw-TfJPFMBCnjiYqLdiqTi3ORJ36bWMaYt1jo21VRbOt48orywFMyv-Ar_YB1PH3Um4W9WWcMBWQE3Dv8EErzp4m1QczbsYT4-MZoogqIbXWS4nU8yY-DEHskRmCb8l0wIYtGfKV3tUEvgl_J3nXma98sbSHkq1frn4IjyJU9z1w1Qz2IYWgB5v0R2CfVXUMhAkfu58Us4MotW9L60zBZLRz-KqHrO50K3W1pcusUGxBV0qhT-3RaRky5HeGoX9thSm-9E0OyuwjPJefX3a-uTYaGLuU1hevCr2LuA_2k2HOTPNx0lE-UZTBS9hLTjUxkiAweKDGDrrueR8Z_Pscp_v6GSRfgI5JDqILDk87zqPiz0kgA7JQqi3DPfF3nVavYzijkGw6vPoAwlhe_qY2_x55CnTT3pixuTbgDTiQNNzoYub1ssXbqSwUT7cO95COjF-iaDnQpnr-E_e18iZI3KYNR3W1BYFfVl0c0tZ2Jd1zxQ7VsjjueREmuPnZRF0wnVdsDdRz4CqJ2e8BSCkBIYXdUZSA8IBIpmR3z5P7TZ8x6LY-nr3scybe2_LrnO1sojlzTfJz5VzL85xTXnmZmaFaNulBDEsUYtx_Bm00]--></g></svg>