<?xml version="1.0" encoding="us-ascii" standalone="no"?><svg xmlns="http://www.w3.org/2000/svg" xmlns:xlink="http://www.w3.org/1999/xlink" contentStyleType="text/css" height="739px" preserveAspectRatio="none" style="width:756px;height:739px;background:#FFFFFF;" version="1.1" viewBox="0 0 756 739" width="756px" zoomAndPan="magnify"><defs/><g><text fill="#000000" font-family="sans-serif" font-size="14" font-weight="bold" lengthAdjust="spacing" textLength="544" x="107.5" y="30.1074">Software Design Document / As marketing director, I want to deactivate a plan</text><rect fill="#FFFFFF" height="513.0742" style="stroke:#181818;stroke-width:1.0;" width="10" x="86" y="133.2422"/><rect fill="#FFFFFF" height="216.7461" style="stroke:#181818;stroke-width:1.0;" width="10" x="471" y="156.5332"/><rect fill="none" height="172.4551" style="stroke:#000000;stroke-width:1.5;" width="740" x="10" y="215.8242"/><rect fill="none" height="94.873" style="stroke:#000000;stroke-width:1.5;" width="590" x="20" y="286.4063"/><rect fill="none" height="172.4551" style="stroke:#000000;stroke-width:1.5;" width="605" x="10" y="402.2793"/><rect fill="none" height="94.873" style="stroke:#000000;stroke-width:1.5;" width="585" x="20" y="472.8613"/><rect fill="none" height="50.582" style="stroke:#000000;stroke-width:1.5;" width="498" x="20" y="588.7344"/><line style="stroke:#181818;stroke-width:0.5;stroke-dasharray:5.0,5.0;" x1="91" x2="91" y1="123.2422" y2="656.3164"/><line style="stroke:#181818;stroke-width:0.5;stroke-dasharray:5.0,5.0;" x1="476" x2="476" y1="123.2422" y2="656.3164"/><text fill="#000000" font-family="sans-serif" font-size="14" lengthAdjust="spacing" textLength="116" x="30" y="119.7285">Marketing Director</text><ellipse cx="91" cy="53.1211" fill="#E2E2F0" rx="8" ry="8" style="stroke:#181818;stroke-width:0.5;"/><path d="M91,61.1211 L91,88.1211 M78,69.1211 L104,69.1211 M91,88.1211 L78,103.1211 M91,88.1211 L104,103.1211 " fill="none" style="stroke:#181818;stroke-width:0.5;"/><text fill="#000000" font-family="sans-serif" font-size="14" lengthAdjust="spacing" textLength="116" x="30" y="670.4238">Marketing Director</text><ellipse cx="91" cy="682.4375" fill="#E2E2F0" rx="8" ry="8" style="stroke:#181818;stroke-width:0.5;"/><path d="M91,690.4375 L91,717.4375 M78,698.4375 L104,698.4375 M91,717.4375 L78,732.4375 M91,717.4375 L104,732.4375 " fill="none" style="stroke:#181818;stroke-width:0.5;"/><rect fill="#E2E2F0" height="32.6211" rx="2.5" ry="2.5" style="stroke:#181818;stroke-width:0.5;" width="64" x="444" y="89.6211"/><text fill="#000000" font-family="sans-serif" font-size="14" lengthAdjust="spacing" textLength="50" x="451" y="111.7285">:System</text><rect fill="#E2E2F0" height="32.6211" rx="2.5" ry="2.5" style="stroke:#181818;stroke-width:0.5;" width="64" x="444" y="655.3164"/><text fill="#000000" font-family="sans-serif" font-size="14" lengthAdjust="spacing" textLength="50" x="451" y="677.4238">:System</text><rect fill="#FFFFFF" height="513.0742" style="stroke:#181818;stroke-width:1.0;" width="10" x="86" y="133.2422"/><rect fill="#FFFFFF" height="216.7461" style="stroke:#181818;stroke-width:1.0;" width="10" x="471" y="156.5332"/><polygon fill="#181818" points="459,152.5332,469,156.5332,459,160.5332,463,156.5332" style="stroke:#181818;stroke-width:1.0;"/><line style="stroke:#181818;stroke-width:1.0;" x1="96" x2="465" y1="156.5332" y2="156.5332"/><text fill="#000000" font-family="sans-serif" font-size="13" lengthAdjust="spacing" textLength="188" x="103" y="151.2705">PATCH /plans/deactivate/{name}</text><line style="stroke:#181818;stroke-width:1.0;stroke-dasharray:2.0,2.0;" x1="481" x2="523" y1="187.8242" y2="187.8242"/><line style="stroke:#181818;stroke-width:1.0;stroke-dasharray:2.0,2.0;" x1="523" x2="523" y1="187.8242" y2="200.8242"/><line style="stroke:#181818;stroke-width:1.0;stroke-dasharray:2.0,2.0;" x1="482" x2="523" y1="200.8242" y2="200.8242"/><polygon fill="#181818" points="492,196.8242,482,200.8242,492,204.8242,488,200.8242" style="stroke:#181818;stroke-width:1.0;"/><text fill="#000000" font-family="sans-serif" font-size="13" lengthAdjust="spacing" textLength="205" x="488" y="182.5615">Checks if Plan with that name exits</text><path d="M10,215.8242 L71,215.8242 L71,225.1152 L61,235.1152 L10,235.1152 L10,215.8242 " fill="#EEEEEE" style="stroke:#000000;stroke-width:1.5;"/><rect fill="none" height="172.4551" style="stroke:#000000;stroke-width:1.5;" width="740" x="10" y="215.8242"/><text fill="#000000" font-family="sans-serif" font-size="13" font-weight="bold" lengthAdjust="spacing" textLength="16" x="25" y="230.8525">alt</text><text fill="#000000" font-family="sans-serif" font-size="11" font-weight="bold" lengthAdjust="spacing" textLength="174" x="86" y="229.6943">[successful case - plan is exits]</text><line style="stroke:#181818;stroke-width:1.0;stroke-dasharray:2.0,2.0;" x1="481" x2="523" y1="258.4063" y2="258.4063"/><line style="stroke:#181818;stroke-width:1.0;stroke-dasharray:2.0,2.0;" x1="523" x2="523" y1="258.4063" y2="271.4063"/><line style="stroke:#181818;stroke-width:1.0;stroke-dasharray:2.0,2.0;" x1="482" x2="523" y1="271.4063" y2="271.4063"/><polygon fill="#181818" points="492,267.4063,482,271.4063,492,275.4063,488,271.4063" style="stroke:#181818;stroke-width:1.0;"/><text fill="#000000" font-family="sans-serif" font-size="13" lengthAdjust="spacing" textLength="250" x="488" y="253.1436">Checks if Plan is already deactivated or not</text><path d="M20,286.4063 L81,286.4063 L81,295.6973 L71,305.6973 L20,305.6973 L20,286.4063 " fill="#EEEEEE" style="stroke:#000000;stroke-width:1.5;"/><rect fill="none" height="94.873" style="stroke:#000000;stroke-width:1.5;" width="590" x="20" y="286.4063"/><text fill="#000000" font-family="sans-serif" font-size="13" font-weight="bold" lengthAdjust="spacing" textLength="16" x="35" y="301.4346">alt</text><text fill="#000000" font-family="sans-serif" font-size="11" font-weight="bold" lengthAdjust="spacing" textLength="196" x="96" y="300.2764">[successful case - plan is activated]</text><line style="stroke:#181818;stroke-width:1.0;stroke-dasharray:2.0,2.0;" x1="481" x2="523" y1="328.9883" y2="328.9883"/><line style="stroke:#181818;stroke-width:1.0;stroke-dasharray:2.0,2.0;" x1="523" x2="523" y1="328.9883" y2="341.9883"/><line style="stroke:#181818;stroke-width:1.0;stroke-dasharray:2.0,2.0;" x1="482" x2="523" y1="341.9883" y2="341.9883"/><polygon fill="#181818" points="492,337.9883,482,341.9883,492,345.9883,488,341.9883" style="stroke:#181818;stroke-width:1.0;"/><text fill="#000000" font-family="sans-serif" font-size="13" lengthAdjust="spacing" textLength="110" x="488" y="323.7256">Deactivate the plan</text><polygon fill="#181818" points="107,369.2793,97,373.2793,107,377.2793,103,373.2793" style="stroke:#181818;stroke-width:1.0;"/><line style="stroke:#181818;stroke-width:1.0;" x1="101" x2="475" y1="373.2793" y2="373.2793"/><text fill="#000000" font-family="sans-serif" font-size="13" lengthAdjust="spacing" textLength="237" x="113" y="368.0166">Shows the Plan with deactivated settings</text><path d="M10,402.2793 L71,402.2793 L71,411.5703 L61,421.5703 L10,421.5703 L10,402.2793 " fill="#EEEEEE" style="stroke:#000000;stroke-width:1.5;"/><rect fill="none" height="172.4551" style="stroke:#000000;stroke-width:1.5;" width="605" x="10" y="402.2793"/><text fill="#000000" font-family="sans-serif" font-size="13" font-weight="bold" lengthAdjust="spacing" textLength="16" x="25" y="417.3076">alt</text><text fill="#000000" font-family="sans-serif" font-size="11" font-weight="bold" lengthAdjust="spacing" textLength="269" x="86" y="416.1494">[Plan doesn&#180;t exist on instance 1-HTPP API CALL]</text><line style="stroke:#181818;stroke-width:1.0;stroke-dasharray:2.0,2.0;" x1="476" x2="518" y1="444.8613" y2="444.8613"/><line style="stroke:#181818;stroke-width:1.0;stroke-dasharray:2.0,2.0;" x1="518" x2="518" y1="444.8613" y2="457.8613"/><line style="stroke:#181818;stroke-width:1.0;stroke-dasharray:2.0,2.0;" x1="477" x2="518" y1="457.8613" y2="457.8613"/><polygon fill="#181818" points="487,453.8613,477,457.8613,487,461.8613,483,457.8613" style="stroke:#181818;stroke-width:1.0;"/><text fill="#000000" font-family="sans-serif" font-size="13" lengthAdjust="spacing" textLength="81" x="483" y="439.5986">Returns a 200</text><path d="M20,472.8613 L81,472.8613 L81,482.1523 L71,492.1523 L20,492.1523 L20,472.8613 " fill="#EEEEEE" style="stroke:#000000;stroke-width:1.5;"/><rect fill="none" height="94.873" style="stroke:#000000;stroke-width:1.5;" width="585" x="20" y="472.8613"/><text fill="#000000" font-family="sans-serif" font-size="13" font-weight="bold" lengthAdjust="spacing" textLength="16" x="35" y="487.8896">alt</text><text fill="#000000" font-family="sans-serif" font-size="11" font-weight="bold" lengthAdjust="spacing" textLength="196" x="96" y="486.7314">[successful case - plan is activated]</text><line style="stroke:#181818;stroke-width:1.0;stroke-dasharray:2.0,2.0;" x1="476" x2="518" y1="515.4434" y2="515.4434"/><line style="stroke:#181818;stroke-width:1.0;stroke-dasharray:2.0,2.0;" x1="518" x2="518" y1="515.4434" y2="528.4434"/><line style="stroke:#181818;stroke-width:1.0;stroke-dasharray:2.0,2.0;" x1="477" x2="518" y1="528.4434" y2="528.4434"/><polygon fill="#181818" points="487,524.4434,477,528.4434,487,532.4434,483,528.4434" style="stroke:#181818;stroke-width:1.0;"/><text fill="#000000" font-family="sans-serif" font-size="13" lengthAdjust="spacing" textLength="110" x="483" y="510.1807">Deactivate the plan</text><polygon fill="#181818" points="107,555.7344,97,559.7344,107,563.7344,103,559.7344" style="stroke:#181818;stroke-width:1.0;"/><line style="stroke:#181818;stroke-width:1.0;" x1="101" x2="475" y1="559.7344" y2="559.7344"/><text fill="#000000" font-family="sans-serif" font-size="13" lengthAdjust="spacing" textLength="237" x="113" y="554.4717">Shows the Plan with deactivated settings</text><path d="M20,588.7344 L81,588.7344 L81,598.0254 L71,608.0254 L20,608.0254 L20,588.7344 " fill="#EEEEEE" style="stroke:#000000;stroke-width:1.5;"/><rect fill="none" height="50.582" style="stroke:#000000;stroke-width:1.5;" width="498" x="20" y="588.7344"/><text fill="#000000" font-family="sans-serif" font-size="13" font-weight="bold" lengthAdjust="spacing" textLength="16" x="35" y="603.7627">alt</text><text fill="#000000" font-family="sans-serif" font-size="11" font-weight="bold" lengthAdjust="spacing" textLength="187" x="96" y="602.6045">[failure case - plan does not exist]</text><polygon fill="#181818" points="107,627.3164,97,631.3164,107,635.3164,103,631.3164" style="stroke:#181818;stroke-width:1.0;"/><line style="stroke:#181818;stroke-width:1.0;stroke-dasharray:2.0,2.0;" x1="101" x2="475" y1="631.3164" y2="631.3164"/><text fill="#000000" font-family="sans-serif" font-size="13" lengthAdjust="spacing" textLength="356" x="113" y="626.0537">Tells the user plan is already deactivateddeactivate ":System"</text><!--SRC=[jLDBRjim4Dtp50_UT1DLRfPQ132iHGnOW53x0eGqjeXGfAiPrGc2tgedwCbAoe6afFaKABeZE7ppFZFyr8YSE4lJazLE-jP-hdoRCdthoLMKr4OVEzqgNOdli2XqTqTYt16vwIZUBQ0PHQx4Y2Ni_47EkYFanEReaFkgRya9KgmOxOYkdz1NsE0SU24UDGKIyrqBGIEgKMgy20H5ZkG6Ysptm4Bj0XdArNvzYq4ufnCwVNIwfHyJUCGeDS6J5ytM3LLt37D06VhXRAI1D5eGcu7kZN3GOmNSLnKn7tgBIZCX6RJ2yDEZlwO826qxqlN3p7gD4BFpeZuY6m7l4EPJejBG9TFPwviGQuPTuyyyr2VZSprC4aV6QZQVMQAANAtUgCLIT34qhZsn-_LJOamiyC65Oz5XoV0bkTsN9LRb1klLTZjf38R6S_QLfEzSS8xhvV8_fVCFyKIpGnPHsK4RsuTlC9SL0uYZlGJmsde-rneMFiEUhBtGzqpTvE_FnNbr157Gh53alm40]--></g></svg>