<?xml version="1.0" encoding="us-ascii" standalone="no"?><svg xmlns="http://www.w3.org/2000/svg" xmlns:xlink="http://www.w3.org/1999/xlink" contentStyleType="text/css" height="801px" preserveAspectRatio="none" style="width:1289px;height:801px;background:#FFFFFF;" version="1.1" viewBox="0 0 1289 801" width="1289px" zoomAndPan="magnify"><defs/><g><text fill="#000000" font-family="sans-serif" font-size="14" font-weight="bold" lengthAdjust="spacing" textLength="628" x="323.5" y="25.1074">Class Diagram /  As marketing director, I want to change a plan&#8217;s details other than pricing</text><!--class PlansRepository--><g id="elem_PlansRepository"><rect codeLine="34" fill="#F1F1F1" height="135.0664" id="PlansRepository" rx="2.5" ry="2.5" style="stroke:#181818;stroke-width:0.5;" width="343" x="234" y="330.6211"/><text fill="#000000" font-family="sans-serif" font-size="12" font-style="italic" lengthAdjust="spacing" textLength="61" x="375" y="348.5703">&#171;interface&#187;</text><text fill="#000000" font-family="sans-serif" font-size="14" font-style="italic" lengthAdjust="spacing" textLength="103" x="354" y="366.6895">PlansRepository</text><line style="stroke:#181818;stroke-width:0.5;" x1="235" x2="576" y1="375.2031" y2="375.2031"/><line style="stroke:#181818;stroke-width:0.5;" x1="235" x2="576" y1="383.2031" y2="383.2031"/><ellipse cx="245" cy="398.0137" fill="#84BE84" rx="3" ry="3" style="stroke:#038048;stroke-width:1.0;"/><text fill="#000000" font-family="sans-serif" font-size="14" lengthAdjust="spacing" textLength="317" x="254" y="402.3105">findByName_Name(String name): Optional&lt;Plans&gt;</text><ellipse cx="245" cy="416.6348" fill="#84BE84" rx="3" ry="3" style="stroke:#038048;stroke-width:1.0;"/><text fill="#000000" font-family="sans-serif" font-size="14" lengthAdjust="spacing" textLength="231" x="254" y="420.9316">getPlansFromOtherAPI(String name)</text><ellipse cx="245" cy="435.2559" fill="#84BE84" rx="3" ry="3" style="stroke:#038048;stroke-width:1.0;"/><text fill="#000000" font-family="sans-serif" font-size="14" lengthAdjust="spacing" textLength="282" x="254" y="439.5527">doPlansPatchAPI(name,desiredVersion,json)</text><ellipse cx="245" cy="453.877" fill="#84BE84" rx="3" ry="3" style="stroke:#038048;stroke-width:1.0;"/><text fill="#000000" font-family="sans-serif" font-size="14" lengthAdjust="spacing" textLength="216" x="254" y="458.1738">save(S entity) : &lt;S extends Plans&gt;</text></g><!--class Plans--><g id="elem_Plans"><rect codeLine="7" fill="#F1F1F1" height="249.4531" id="Plans" rx="2.5" ry="2.5" style="stroke:#181818;stroke-width:0.5;" width="1039" x="7" y="544.6211"/><text fill="#000000" font-family="sans-serif" font-size="14" lengthAdjust="spacing" textLength="35" x="509" y="564.7285">Plans</text><line style="stroke:#181818;stroke-width:0.5;" x1="8" x2="1045" y1="573.2422" y2="573.2422"/><rect fill="none" height="6" style="stroke:#C82930;stroke-width:1.0;" width="6" x="15" y="585.0527"/><text fill="#000000" font-family="sans-serif" font-size="14" lengthAdjust="spacing" textLength="35" x="27" y="592.3496">name</text><rect fill="none" height="6" style="stroke:#C82930;stroke-width:1.0;" width="6" x="15" y="603.6738"/><text fill="#000000" font-family="sans-serif" font-size="14" lengthAdjust="spacing" textLength="69" x="27" y="610.9707">description</text><rect fill="none" height="6" style="stroke:#C82930;stroke-width:1.0;" width="6" x="15" y="622.2949"/><text fill="#000000" font-family="sans-serif" font-size="14" lengthAdjust="spacing" textLength="112" x="27" y="629.5918">numberOfMinutes</text><rect fill="none" height="6" style="stroke:#C82930;stroke-width:1.0;" width="6" x="15" y="640.916"/><text fill="#000000" font-family="sans-serif" font-size="14" lengthAdjust="spacing" textLength="158" x="27" y="648.2129">maximumNumberOfUsers</text><rect fill="none" height="6" style="stroke:#C82930;stroke-width:1.0;" width="6" x="15" y="659.5371"/><text fill="#000000" font-family="sans-serif" font-size="14" lengthAdjust="spacing" textLength="98" x="27" y="666.834">musicCollection</text><rect fill="none" height="6" style="stroke:#C82930;stroke-width:1.0;" width="6" x="15" y="678.1582"/><text fill="#000000" font-family="sans-serif" font-size="14" lengthAdjust="spacing" textLength="107" x="27" y="685.4551">musicSuggestion</text><rect fill="none" height="6" style="stroke:#C82930;stroke-width:1.0;" width="6" x="15" y="696.7793"/><text fill="#000000" font-family="sans-serif" font-size="14" lengthAdjust="spacing" textLength="68" x="27" y="704.0762">annualFee</text><rect fill="none" height="6" style="stroke:#C82930;stroke-width:1.0;" width="6" x="15" y="715.4004"/><text fill="#000000" font-family="sans-serif" font-size="14" lengthAdjust="spacing" textLength="74" x="27" y="722.6973">monthlyFee</text><rect fill="none" height="6" style="stroke:#C82930;stroke-width:1.0;" width="6" x="15" y="734.0215"/><text fill="#000000" font-family="sans-serif" font-size="14" lengthAdjust="spacing" textLength="37" x="27" y="741.3184">active</text><rect fill="none" height="6" style="stroke:#C82930;stroke-width:1.0;" width="6" x="15" y="752.6426"/><text fill="#000000" font-family="sans-serif" font-size="14" lengthAdjust="spacing" textLength="60" x="27" y="759.9395">promoted</text><line style="stroke:#181818;stroke-width:0.5;" x1="8" x2="1045" y1="767.4531" y2="767.4531"/><ellipse cx="18" cy="782.2637" fill="#84BE84" rx="3" ry="3" style="stroke:#038048;stroke-width:1.0;"/><text fill="#000000" font-family="sans-serif" font-size="14" lengthAdjust="spacing" textLength="1013" x="27" y="786.5605">updateData(long desiredVersion, String description,double maximumNumberOfUsers,String numberOfMinutes ,double musicCollections,String musicSuggestions)</text></g><!--class PlansMapperInverse--><g id="elem_PlansMapperInverse"><rect codeLine="20" fill="#F1F1F1" height="63.2422" id="PlansMapperInverse" rx="2.5" ry="2.5" style="stroke:#181818;stroke-width:0.5;" width="231" x="205" y="188.6211"/><text fill="#000000" font-family="sans-serif" font-size="14" lengthAdjust="spacing" textLength="129" x="256" y="208.7285">PlansMapperInverse</text><line style="stroke:#181818;stroke-width:0.5;" x1="206" x2="435" y1="217.2422" y2="217.2422"/><line style="stroke:#181818;stroke-width:0.5;" x1="206" x2="435" y1="225.2422" y2="225.2422"/><ellipse cx="216" cy="240.0527" fill="#84BE84" rx="3" ry="3" style="stroke:#038048;stroke-width:1.0;"/><text fill="#000000" font-family="sans-serif" font-size="14" lengthAdjust="spacing" textLength="205" x="225" y="244.3496">toPlansView(PlanRequest plans)</text></g><!--class PlansController--><g id="elem_PlansController"><rect codeLine="23" fill="#F1F1F1" height="63.2422" id="PlansController" rx="2.5" ry="2.5" style="stroke:#181818;stroke-width:0.5;" width="783" x="135" y="46.6211"/><text fill="#000000" font-family="sans-serif" font-size="14" lengthAdjust="spacing" textLength="97" x="478" y="66.7285">PlansController</text><line style="stroke:#181818;stroke-width:0.5;" x1="136" x2="917" y1="75.2422" y2="75.2422"/><line style="stroke:#181818;stroke-width:0.5;" x1="136" x2="917" y1="83.2422" y2="83.2422"/><ellipse cx="146" cy="98.0527" fill="#84BE84" rx="3" ry="3" style="stroke:#038048;stroke-width:1.0;"/><text fill="#000000" font-family="sans-serif" font-size="14" lengthAdjust="spacing" textLength="757" x="155" y="102.3496">partialUpdate(final WebRequest request,final String name,final EditPlansRequest resource):ResponseEntity&lt;PlansView&gt;</text></g><!--class PlansService--><g id="elem_PlansService"><rect codeLine="26" fill="#F1F1F1" height="63.2422" id="PlansService" rx="2.5" ry="2.5" style="stroke:#181818;stroke-width:0.5;" width="522" x="471.5" y="188.6211"/><text fill="#000000" font-family="sans-serif" font-size="14" lengthAdjust="spacing" textLength="82" x="691.5" y="208.7285">PlansService</text><line style="stroke:#181818;stroke-width:0.5;" x1="472.5" x2="992.5" y1="217.2422" y2="217.2422"/><line style="stroke:#181818;stroke-width:0.5;" x1="472.5" x2="992.5" y1="225.2422" y2="225.2422"/><ellipse cx="482.5" cy="240.0527" fill="#84BE84" rx="3" ry="3" style="stroke:#038048;stroke-width:1.0;"/><text fill="#000000" font-family="sans-serif" font-size="14" lengthAdjust="spacing" textLength="496" x="491.5" y="244.3496">partialUpdate(String name, EditPlansRequest resource, long parseLong):Plans</text></g><!--class PlansViewMapper--><g id="elem_PlansViewMapper"><rect codeLine="31" fill="#F1F1F1" height="63.2422" id="PlansViewMapper" rx="2.5" ry="2.5" style="stroke:#181818;stroke-width:0.5;" width="253" x="1029" y="188.6211"/><text fill="#000000" font-family="sans-serif" font-size="14" lengthAdjust="spacing" textLength="112" x="1099.5" y="208.7285">PlansViewMapper</text><line style="stroke:#181818;stroke-width:0.5;" x1="1030" x2="1281" y1="217.2422" y2="217.2422"/><line style="stroke:#181818;stroke-width:0.5;" x1="1030" x2="1281" y1="225.2422" y2="225.2422"/><ellipse cx="1040" cy="240.0527" fill="#84BE84" rx="3" ry="3" style="stroke:#038048;stroke-width:1.0;"/><text fill="#000000" font-family="sans-serif" font-size="14" lengthAdjust="spacing" textLength="227" x="1049" y="244.3496">toPlansView(Plans plans):PlansView</text></g><!--class PlansRepositoryCustomImpl--><g id="elem_PlansRepositoryCustomImpl"><rect fill="#F1F1F1" height="44.6211" id="PlansRepositoryCustomImpl" rx="2.5" ry="2.5" style="stroke:#181818;stroke-width:0.5;" width="182" x="725.5" y="375.6211"/><text fill="#000000" font-family="sans-serif" font-size="14" lengthAdjust="spacing" textLength="176" x="728.5" y="395.7285">PlansRepositoryCustomImpl</text><line style="stroke:#181818;stroke-width:0.5;" x1="726.5" x2="906.5" y1="404.2422" y2="404.2422"/><line style="stroke:#181818;stroke-width:0.5;" x1="726.5" x2="906.5" y1="412.2422" y2="412.2422"/></g><!--link PlansController to PlansService--><g id="link_PlansController_PlansService"><path codeLine="43" d="M571.45,109.6711 C605.78,133.0011 647.927,161.6494 682.327,185.0194 " fill="none" id="PlansController-to-PlansService" style="stroke:#181818;stroke-width:1.0;stroke-dasharray:7.0,7.0;"/><polygon fill="#181818" points="687.29,188.3911,682.0932,180.0249,683.1541,185.5814,677.5977,186.6422,687.29,188.3911" style="stroke:#181818;stroke-width:1.0;"/><polygon fill="#000000" points="651.6355,152.0769,645.8062,144.5622,642.5025,149.4238,651.6355,152.0769" style="stroke:#000000;stroke-width:1.0;"/><text fill="#000000" font-family="sans-serif" font-size="13" lengthAdjust="spacing" textLength="28" x="656.5" y="154.6494">uses</text></g><!--link PlansService to PlansRepository--><g id="link_PlansService_PlansRepository"><path codeLine="44" d="M645.12,251.7011 C622.96,260.4611 599.5,270.6511 578.5,281.6211 C551.29,295.8411 528.0708,310.0106 502.5208,327.0606 " fill="none" id="PlansService-to-PlansRepository" style="stroke:#181818;stroke-width:1.0;stroke-dasharray:7.0,7.0;"/><polygon fill="#181818" points="497.53,330.3911,507.2365,328.7226,501.689,327.6157,502.7959,322.0682,497.53,330.3911" style="stroke:#181818;stroke-width:1.0;"/><polygon fill="#000000" points="579.0793,293.6028,588.4496,291.975,585.7032,286.7782,579.0793,293.6028" style="stroke:#000000;stroke-width:1.0;"/><text fill="#000000" font-family="sans-serif" font-size="13" lengthAdjust="spacing" textLength="28" x="592.5" y="296.6494">uses</text></g><!--link PlansService to PlansRepositoryCustomImpl--><g id="link_PlansService_PlansRepositoryCustomImpl"><path codeLine="45" d="M747.13,251.7811 C764.01,287.1311 788.7355,338.9463 803.5555,369.9963 " fill="none" id="PlansService-to-PlansRepositoryCustomImpl" style="stroke:#181818;stroke-width:1.0;stroke-dasharray:7.0,7.0;"/><polygon fill="#181818" points="806.14,375.4111,805.8732,365.5659,803.9863,370.8987,798.6534,369.0118,806.14,375.4111" style="stroke:#181818;stroke-width:1.0;"/><polygon fill="#000000" points="776.6538,295.7789,775.4098,286.3501,770.1053,288.882,776.6538,295.7789" style="stroke:#000000;stroke-width:1.0;"/><text fill="#000000" font-family="sans-serif" font-size="13" lengthAdjust="spacing" textLength="28" x="783.5" y="296.6494">uses</text></g><!--link PlansRepository to Plans--><g id="link_PlansRepository_Plans"><path codeLine="46" d="M435.57,465.9611 C446.27,489.7711 456.2375,511.9297 468.4075,538.9697 " fill="none" id="PlansRepository-to-Plans" style="stroke:#181818;stroke-width:1.0;stroke-dasharray:7.0,7.0;"/><polygon fill="#181818" points="470.87,544.4411,470.8238,534.5923,468.8179,539.8816,463.5286,537.8757,470.87,544.4411" style="stroke:#181818;stroke-width:1.0;"/><polygon fill="#000000" points="458.449,500.7066,459.479,510.1612,464.8396,507.7502,458.449,500.7066" style="stroke:#000000;stroke-width:1.0;"/><text fill="#000000" font-family="sans-serif" font-size="13" lengthAdjust="spacing" textLength="36" x="469.5" y="510.6494">record</text></g><!--link PlansService to Plans--><g id="link_PlansService_Plans"><path codeLine="47" d="M711.42,251.9411 C697.2,273.4411 678.54,303.1111 664.5,330.6211 C629.32,399.5511 598.4232,474.0108 573.4932,538.8508 " fill="none" id="PlansService-to-Plans" style="stroke:#181818;stroke-width:1.0;stroke-dasharray:7.0,7.0;"/><polygon fill="#181818" points="571.34,544.4511,578.3034,537.4861,573.1344,539.7842,570.8363,534.6151,571.34,544.4511" style="stroke:#181818;stroke-width:1.0;"/><polygon fill="#000000" points="667.3337,402.7729,673.9014,395.8942,668.6039,393.3476,667.3337,402.7729" style="stroke:#000000;stroke-width:1.0;"/><text fill="#000000" font-family="sans-serif" font-size="13" lengthAdjust="spacing" textLength="28" x="678.5" y="403.6494">uses</text></g><!--reverse link PlansController to PlansRepository--><g id="link_PlansController_PlansRepository"><path codeLine="48" d="M295.6056,110.7519 C203.2556,128.3119 117.32,152.9711 89.5,188.6211 C33.04,260.9711 132.17,316.4211 233.96,351.8911 " fill="none" id="PlansController-backto-PlansRepository" style="stroke:#181818;stroke-width:1.0;stroke-dasharray:7.0,7.0;"/><polygon fill="#181818" points="301.5,109.6311,291.9112,107.3827,296.588,110.5651,293.4056,115.2419,301.5,109.6311" style="stroke:#181818;stroke-width:1.0;"/><polygon fill="#000000" points="95.7384,215.4224,90.6508,223.4577,96.3455,224.9136,95.7384,215.4224" style="stroke:#000000;stroke-width:1.0;"/><text fill="#000000" font-family="sans-serif" font-size="13" lengthAdjust="spacing" textLength="83" x="103.5" y="225.6494">HTPP API call</text></g><!--link PlansController to PlansMapperInverse--><g id="link_PlansController_PlansMapperInverse"><path codeLine="49" d="M481.55,109.6711 C447.22,133.0011 405.073,161.6494 370.673,185.0194 " fill="none" id="PlansController-to-PlansMapperInverse" style="stroke:#181818;stroke-width:1.0;stroke-dasharray:7.0,7.0;"/><polygon fill="#181818" points="365.71,188.3911,375.4023,186.6422,369.8459,185.5814,370.9068,180.0249,365.71,188.3911" style="stroke:#181818;stroke-width:1.0;"/><polygon fill="#000000" points="437.3645,152.0769,446.4975,149.4238,443.1938,144.5622,437.3645,152.0769" style="stroke:#000000;stroke-width:1.0;"/><text fill="#000000" font-family="sans-serif" font-size="13" lengthAdjust="spacing" textLength="28" x="450.5" y="154.6494">uses</text></g><!--link PlansController to PlansViewMapper--><g id="link_PlansController_PlansViewMapper"><path codeLine="50" d="M663.76,109.6711 C772.47,133.8711 917.2834,166.0972 1023.1034,189.6572 " fill="none" id="PlansController-to-PlansViewMapper" style="stroke:#181818;stroke-width:1.0;stroke-dasharray:7.0,7.0;"/><polygon fill="#181818" points="1028.96,190.9611,1021.0444,185.1008,1024.0795,189.8745,1019.3058,192.9096,1028.96,190.9611" style="stroke:#181818;stroke-width:1.0;"/><polygon fill="#000000" points="889.3806,150.353,881.1901,145.519,879.913,151.2564,889.3806,150.353" style="stroke:#000000;stroke-width:1.0;"/><text fill="#000000" font-family="sans-serif" font-size="13" lengthAdjust="spacing" textLength="28" x="893.5" y="154.6494">uses</text></g><!--SRC=[ZLJRRjim37ttL_1j3P8sxqPWe4jRBC3Q1kswFGwgn2JQPCcJgBH1CM2_iT_Rbuo-nZRQONb8RF8SakU8ohiTKH7I-RmmmbBCpPbq-LmQ4SAfqcBhHPxij4AGsak3IPM1DOF37HOkQ7B-08k5jeH-8oHcMPAG9eEmhA0NTH6O0vm7o8N_ZgJj5fJsA9ayWnKySMiW1t8dx1P1G3dCdr-_0oWaeKq0HplqG9o7mcl91PB-A2y9yEVKYXph9oO6wNL1sjacOcF-YFvsSwrj90nrD1VFEe_vJPDx2EZRJ0nQBfqnF6LRf8dUn-qMGoygh8t2N26sA6TfPmx7WE0Q-_Qby2vtXAf-dSP22S8BGUB4kD8O36oD-ioJS8SPt9FNTRWLD5CkFhB1hmq_Q-0ZjT1nXh8w_4XOc2G_-mPVYw90lx9xRe6rsrDoLUgpngUJykaEVqHcLuStvY_P4LzszGsv49wqC0-L-9EDjiB05tniQ_ZwTrOdMaryl4taKcbgbh0b11Uzn4bwXw5W0NXfUGqFYsx6h6eycEeU_LxBKizeddx3jtlDe3emfWRyo4-Jj8Anyi5obirh_zumBZIMfLsOItGNQdpPafTaoYQezuSR7kzh-TMVTvB2RRKbmjJQisGAMwmLNF7gtPPNwNoz6f0Oe-gfreBahanNuaVB-2quozWWzjmJi79u0Yai-EMPqAf6SbPvC3fvE3lB1hwd40ElPfRqWqVKKV9_0vSnaCjNUM66bDvVLSVYgVaafVFgZRB_A65mGzb8NWeVFgtNmDQ15CQqlDVq3sxJiCrhyEC2TTY_]--></g></svg>