<?xml version="1.0" encoding="us-ascii" standalone="no"?><svg xmlns="http://www.w3.org/2000/svg" xmlns:xlink="http://www.w3.org/1999/xlink" contentStyleType="text/css" height="1042px" preserveAspectRatio="none" style="width:2436px;height:1042px;background:#FFFFFF;" version="1.1" viewBox="0 0 2436 1042" width="2436px" zoomAndPan="magnify"><defs/><g><text fill="#000000" font-family="sans-serif" font-size="14" font-weight="bold" lengthAdjust="spacing" textLength="657" x="891.25" y="30.1074">Sequence Diagram/  As marketing director, I want to change a plan&#8217;s details other than pricing</text><rect fill="#FFFFFF" height="784.9844" style="stroke:#181818;stroke-width:1.0;" width="10" x="265" y="156.5332"/><rect fill="#FFFFFF" height="659.8203" style="stroke:#181818;stroke-width:1.0;" width="10" x="762" y="187.8242"/><rect fill="#FFFFFF" height="51.582" style="stroke:#181818;stroke-width:1.0;" width="10" x="1176" y="219.1152"/><rect fill="#FFFFFF" height="333.6191" style="stroke:#181818;stroke-width:1.0;" width="10" x="1176" y="348.5703"/><rect fill="#FFFFFF" height="42.291" style="stroke:#181818;stroke-width:1.0;" width="10" x="1181" y="387.8613"/><rect fill="#FFFFFF" height="42.291" style="stroke:#181818;stroke-width:1.0;" width="10" x="1181" y="476.4434"/><rect fill="#FFFFFF" height="31.291" style="stroke:#181818;stroke-width:1.0;" width="10" x="1176" y="778.0625"/><rect fill="#FFFFFF" height="31.291" style="stroke:#181818;stroke-width:1.0;" width="10" x="2079.5" y="878.9355"/><rect fill="#FFFFFF" height="31.291" style="stroke:#181818;stroke-width:1.0;" width="10" x="2204" y="557.0254"/><rect fill="#FFFFFF" height="31.291" style="stroke:#181818;stroke-width:1.0;" width="10" x="2339.5" y="619.6074"/><rect fill="none" height="384.2012" style="stroke:#000000;stroke-width:1.5;" width="1723.5" x="707" y="305.9883"/><rect fill="none" height="113.1641" style="stroke:#000000;stroke-width:1.5;" width="1312.5" x="707" y="704.1895"/><line style="stroke:#181818;stroke-width:0.5;stroke-dasharray:5.0,5.0;" x1="66" x2="66" y1="123.2422" y2="959.5176"/><line style="stroke:#181818;stroke-width:0.5;stroke-dasharray:5.0,5.0;" x1="270" x2="270" y1="123.2422" y2="959.5176"/><line style="stroke:#181818;stroke-width:0.5;stroke-dasharray:5.0,5.0;" x1="767" x2="767" y1="123.2422" y2="959.5176"/><line style="stroke:#181818;stroke-width:0.5;stroke-dasharray:5.0,5.0;" x1="1180.5" x2="1180.5" y1="123.2422" y2="959.5176"/><line style="stroke:#181818;stroke-width:0.5;stroke-dasharray:5.0,5.0;" x1="1982.5" x2="1982.5" y1="123.2422" y2="959.5176"/><line style="stroke:#181818;stroke-width:0.5;stroke-dasharray:5.0,5.0;" x1="2084.5" x2="2084.5" y1="123.2422" y2="959.5176"/><line style="stroke:#181818;stroke-width:0.5;stroke-dasharray:5.0,5.0;" x1="2208.5" x2="2208.5" y1="123.2422" y2="959.5176"/><line style="stroke:#181818;stroke-width:0.5;stroke-dasharray:5.0,5.0;" x1="2344.5" x2="2344.5" y1="123.2422" y2="959.5176"/><text fill="#000000" font-family="sans-serif" font-size="14" lengthAdjust="spacing" textLength="116" x="5" y="119.7285">Marketing Director</text><ellipse cx="66" cy="53.1211" fill="#E2E2F0" rx="8" ry="8" style="stroke:#181818;stroke-width:0.5;"/><path d="M66,61.1211 L66,88.1211 M53,69.1211 L79,69.1211 M66,88.1211 L53,103.1211 M66,88.1211 L79,103.1211 " fill="none" style="stroke:#181818;stroke-width:0.5;"/><text fill="#000000" font-family="sans-serif" font-size="14" lengthAdjust="spacing" textLength="116" x="5" y="973.625">Marketing Director</text><ellipse cx="66" cy="985.6387" fill="#E2E2F0" rx="8" ry="8" style="stroke:#181818;stroke-width:0.5;"/><path d="M66,993.6387 L66,1020.6387 M53,1001.6387 L79,1001.6387 M66,1020.6387 L53,1035.6387 M66,1020.6387 L79,1035.6387 " fill="none" style="stroke:#181818;stroke-width:0.5;"/><rect fill="#E2E2F0" height="32.6211" rx="2.5" ry="2.5" style="stroke:#181818;stroke-width:0.5;" width="108" x="216" y="89.6211"/><text fill="#000000" font-family="sans-serif" font-size="14" lengthAdjust="spacing" textLength="94" x="223" y="111.7285">:PlanController</text><rect fill="#E2E2F0" height="32.6211" rx="2.5" ry="2.5" style="stroke:#181818;stroke-width:0.5;" width="108" x="216" y="958.5176"/><text fill="#000000" font-family="sans-serif" font-size="14" lengthAdjust="spacing" textLength="94" x="223" y="980.625">:PlanController</text><rect fill="#E2E2F0" height="32.6211" rx="2.5" ry="2.5" style="stroke:#181818;stroke-width:0.5;" width="100" x="717" y="89.6211"/><text fill="#000000" font-family="sans-serif" font-size="14" lengthAdjust="spacing" textLength="86" x="724" y="111.7285">:PlansService</text><rect fill="#E2E2F0" height="32.6211" rx="2.5" ry="2.5" style="stroke:#181818;stroke-width:0.5;" width="100" x="717" y="958.5176"/><text fill="#000000" font-family="sans-serif" font-size="14" lengthAdjust="spacing" textLength="86" x="724" y="980.625">:PlansService</text><rect fill="#E2E2F0" height="32.6211" rx="2.5" ry="2.5" style="stroke:#181818;stroke-width:0.5;" width="121" x="1120.5" y="89.6211"/><text fill="#000000" font-family="sans-serif" font-size="14" lengthAdjust="spacing" textLength="107" x="1127.5" y="111.7285">:PlansRepository</text><rect fill="#E2E2F0" height="32.6211" rx="2.5" ry="2.5" style="stroke:#181818;stroke-width:0.5;" width="121" x="1120.5" y="958.5176"/><text fill="#000000" font-family="sans-serif" font-size="14" lengthAdjust="spacing" textLength="107" x="1127.5" y="980.625">:PlansRepository</text><rect fill="#E2E2F0" height="32.6211" rx="2.5" ry="2.5" style="stroke:#181818;stroke-width:0.5;" width="53" x="1956.5" y="89.6211"/><text fill="#000000" font-family="sans-serif" font-size="14" lengthAdjust="spacing" textLength="39" x="1963.5" y="111.7285">:Plans</text><rect fill="#E2E2F0" height="32.6211" rx="2.5" ry="2.5" style="stroke:#181818;stroke-width:0.5;" width="53" x="1956.5" y="958.5176"/><text fill="#000000" font-family="sans-serif" font-size="14" lengthAdjust="spacing" textLength="39" x="1963.5" y="980.625">:Plans</text><rect fill="#E2E2F0" height="32.6211" rx="2.5" ry="2.5" style="stroke:#181818;stroke-width:0.5;" width="130" x="2019.5" y="89.6211"/><text fill="#000000" font-family="sans-serif" font-size="14" lengthAdjust="spacing" textLength="116" x="2026.5" y="111.7285">:PlansViewMapper</text><rect fill="#E2E2F0" height="32.6211" rx="2.5" ry="2.5" style="stroke:#181818;stroke-width:0.5;" width="130" x="2019.5" y="958.5176"/><text fill="#000000" font-family="sans-serif" font-size="14" lengthAdjust="spacing" textLength="116" x="2026.5" y="980.625">:PlansViewMapper</text><rect fill="#E2E2F0" height="32.6211" rx="2.5" ry="2.5" style="stroke:#181818;stroke-width:0.5;" width="99" x="2159.5" y="89.6211"/><text fill="#000000" font-family="sans-serif" font-size="14" lengthAdjust="spacing" textLength="85" x="2166.5" y="111.7285">:PlanRequest</text><rect fill="#E2E2F0" height="32.6211" rx="2.5" ry="2.5" style="stroke:#181818;stroke-width:0.5;" width="99" x="2159.5" y="958.5176"/><text fill="#000000" font-family="sans-serif" font-size="14" lengthAdjust="spacing" textLength="85" x="2166.5" y="980.625">:PlanRequest</text><rect fill="#E2E2F0" height="32.6211" rx="2.5" ry="2.5" style="stroke:#181818;stroke-width:0.5;" width="152" x="2268.5" y="89.6211"/><text fill="#000000" font-family="sans-serif" font-size="14" lengthAdjust="spacing" textLength="138" x="2275.5" y="111.7285">:PlansMapperInverser</text><rect fill="#E2E2F0" height="32.6211" rx="2.5" ry="2.5" style="stroke:#181818;stroke-width:0.5;" width="152" x="2268.5" y="958.5176"/><text fill="#000000" font-family="sans-serif" font-size="14" lengthAdjust="spacing" textLength="138" x="2275.5" y="980.625">:PlansMapperInverser</text><rect fill="#FFFFFF" height="784.9844" style="stroke:#181818;stroke-width:1.0;" width="10" x="265" y="156.5332"/><rect fill="#FFFFFF" height="659.8203" style="stroke:#181818;stroke-width:1.0;" width="10" x="762" y="187.8242"/><rect fill="#FFFFFF" height="51.582" style="stroke:#181818;stroke-width:1.0;" width="10" x="1176" y="219.1152"/><rect fill="#FFFFFF" height="333.6191" style="stroke:#181818;stroke-width:1.0;" width="10" x="1176" y="348.5703"/><rect fill="#FFFFFF" height="42.291" style="stroke:#181818;stroke-width:1.0;" width="10" x="1181" y="387.8613"/><rect fill="#FFFFFF" height="42.291" style="stroke:#181818;stroke-width:1.0;" width="10" x="1181" y="476.4434"/><rect fill="#FFFFFF" height="31.291" style="stroke:#181818;stroke-width:1.0;" width="10" x="1176" y="778.0625"/><rect fill="#FFFFFF" height="31.291" style="stroke:#181818;stroke-width:1.0;" width="10" x="2079.5" y="878.9355"/><rect fill="#FFFFFF" height="31.291" style="stroke:#181818;stroke-width:1.0;" width="10" x="2204" y="557.0254"/><rect fill="#FFFFFF" height="31.291" style="stroke:#181818;stroke-width:1.0;" width="10" x="2339.5" y="619.6074"/><polygon fill="#181818" points="253,152.5332,263,156.5332,253,160.5332,257,156.5332" style="stroke:#181818;stroke-width:1.0;"/><line style="stroke:#181818;stroke-width:1.0;" x1="66" x2="259" y1="156.5332" y2="156.5332"/><text fill="#000000" font-family="sans-serif" font-size="13" font-weight="bold" lengthAdjust="spacing" textLength="7" x="73" y="151.2705">1</text><text fill="#000000" font-family="sans-serif" font-size="13" lengthAdjust="spacing" textLength="169" x="84" y="151.2705">PATCH /plans/update/{name}</text><polygon fill="#181818" points="750,183.8242,760,187.8242,750,191.8242,754,187.8242" style="stroke:#181818;stroke-width:1.0;"/><line style="stroke:#181818;stroke-width:1.0;" x1="275" x2="756" y1="187.8242" y2="187.8242"/><text fill="#000000" font-family="sans-serif" font-size="13" font-weight="bold" lengthAdjust="spacing" textLength="7" x="282" y="182.5615">2</text><text fill="#000000" font-family="sans-serif" font-size="13" lengthAdjust="spacing" textLength="457" x="293" y="182.5615">Plans partialUpdate(String name, EditPlansRequest resource, long parseLong);</text><polygon fill="#181818" points="1164,215.1152,1174,219.1152,1164,223.1152,1168,219.1152" style="stroke:#181818;stroke-width:1.0;"/><line style="stroke:#181818;stroke-width:1.0;" x1="772" x2="1170" y1="219.1152" y2="219.1152"/><text fill="#000000" font-family="sans-serif" font-size="13" font-weight="bold" lengthAdjust="spacing" textLength="7" x="779" y="213.8525">3</text><text fill="#000000" font-family="sans-serif" font-size="13" lengthAdjust="spacing" textLength="374" x="790" y="213.8525">Optional&lt;Plans&gt; plan = findByName_Name(resource.getName())</text><polygon fill="#181818" points="783,266.6973,773,270.6973,783,274.6973,779,270.6973" style="stroke:#181818;stroke-width:1.0;"/><line style="stroke:#181818;stroke-width:1.0;stroke-dasharray:2.0,2.0;" x1="777" x2="1180" y1="270.6973" y2="270.6973"/><text fill="#000000" font-family="sans-serif" font-size="13" font-weight="bold" lengthAdjust="spacing" textLength="7" x="789" y="265.4346">4</text><text fill="#000000" font-family="sans-serif" font-size="13" lengthAdjust="spacing" textLength="24" x="800" y="265.4346">plan</text><path d="M495,232.1152 L495,293.1152 L757,293.1152 L757,242.1152 L747,232.1152 L495,232.1152 " fill="#FEFFDD" style="stroke:#181818;stroke-width:0.5;"/><path d="M747,232.1152 L747,242.1152 L757,242.1152 L747,232.1152 " fill="#FEFFDD" style="stroke:#181818;stroke-width:0.5;"/><text fill="#000000" font-family="sans-serif" font-size="13" lengthAdjust="spacing" textLength="195" x="501" y="251.1436">1) Service will check if plan exists</text><text fill="#000000" font-family="sans-serif" font-size="13" lengthAdjust="spacing" textLength="241" x="501" y="268.4346">2)If the plan doesn&#180;t exist locally it does a</text><text fill="#000000" font-family="sans-serif" font-size="13" lengthAdjust="spacing" textLength="200" x="501" y="285.7256">HTPP API Call to another instance</text><path d="M707,305.9883 L768,305.9883 L768,315.2793 L758,325.2793 L707,325.2793 L707,305.9883 " fill="#EEEEEE" style="stroke:#000000;stroke-width:1.5;"/><rect fill="none" height="384.2012" style="stroke:#000000;stroke-width:1.5;" width="1723.5" x="707" y="305.9883"/><text fill="#000000" font-family="sans-serif" font-size="13" font-weight="bold" lengthAdjust="spacing" textLength="16" x="722" y="321.0166">alt</text><text fill="#000000" font-family="sans-serif" font-size="11" font-weight="bold" lengthAdjust="spacing" textLength="320" x="783" y="319.8584">[Check if the Plan exist on other instances if plan==empty]</text><polygon fill="#181818" points="1164,344.5703,1174,348.5703,1164,352.5703,1168,348.5703" style="stroke:#181818;stroke-width:1.0;"/><line style="stroke:#181818;stroke-width:1.0;" x1="772" x2="1170" y1="348.5703" y2="348.5703"/><text fill="#000000" font-family="sans-serif" font-size="13" font-weight="bold" lengthAdjust="spacing" textLength="7" x="779" y="343.3076">5</text><text fill="#000000" font-family="sans-serif" font-size="13" lengthAdjust="spacing" textLength="303" x="790" y="343.3076">updateNotLocal(resource,name,desiredVersion,auth)</text><line style="stroke:#181818;stroke-width:1.0;" x1="1186" x2="1233" y1="374.8613" y2="374.8613"/><line style="stroke:#181818;stroke-width:1.0;" x1="1233" x2="1233" y1="374.8613" y2="387.8613"/><line style="stroke:#181818;stroke-width:1.0;" x1="1192" x2="1233" y1="387.8613" y2="387.8613"/><polygon fill="#181818" points="1202,383.8613,1192,387.8613,1202,391.8613,1198,387.8613" style="stroke:#181818;stroke-width:1.0;"/><text fill="#000000" font-family="sans-serif" font-size="13" font-weight="bold" lengthAdjust="spacing" textLength="7" x="1198" y="369.5986">6</text><text fill="#000000" font-family="sans-serif" font-size="13" lengthAdjust="spacing" textLength="256" x="1209" y="369.5986">getPlansFromOtherAPI(resource.getName())</text><line style="stroke:#181818;stroke-width:1.0;stroke-dasharray:2.0,2.0;" x1="1191" x2="1233" y1="429.1523" y2="429.1523"/><line style="stroke:#181818;stroke-width:1.0;stroke-dasharray:2.0,2.0;" x1="1233" x2="1233" y1="429.1523" y2="442.1523"/><line style="stroke:#181818;stroke-width:1.0;stroke-dasharray:2.0,2.0;" x1="1186" x2="1233" y1="442.1523" y2="442.1523"/><polygon fill="#181818" points="1196,438.1523,1186,442.1523,1196,446.1523,1192,442.1523" style="stroke:#181818;stroke-width:1.0;"/><text fill="#000000" font-family="sans-serif" font-size="13" font-weight="bold" lengthAdjust="spacing" textLength="7" x="1198" y="423.8896">7</text><text fill="#000000" font-family="sans-serif" font-size="13" lengthAdjust="spacing" textLength="57" x="1209" y="423.8896">HTTP 200</text><line style="stroke:#181818;stroke-width:1.0;" x1="1186" x2="1233" y1="463.4434" y2="463.4434"/><line style="stroke:#181818;stroke-width:1.0;" x1="1233" x2="1233" y1="463.4434" y2="476.4434"/><line style="stroke:#181818;stroke-width:1.0;" x1="1192" x2="1233" y1="476.4434" y2="476.4434"/><polygon fill="#181818" points="1202,472.4434,1192,476.4434,1202,480.4434,1198,476.4434" style="stroke:#181818;stroke-width:1.0;"/><text fill="#000000" font-family="sans-serif" font-size="13" font-weight="bold" lengthAdjust="spacing" textLength="7" x="1198" y="458.1807">8</text><text fill="#000000" font-family="sans-serif" font-size="13" lengthAdjust="spacing" textLength="260" x="1209" y="458.1807">doPlansPatchAPI(name,desiredVersion,json)</text><line style="stroke:#181818;stroke-width:1.0;stroke-dasharray:2.0,2.0;" x1="1191" x2="1233" y1="517.7344" y2="517.7344"/><line style="stroke:#181818;stroke-width:1.0;stroke-dasharray:2.0,2.0;" x1="1233" x2="1233" y1="517.7344" y2="530.7344"/><line style="stroke:#181818;stroke-width:1.0;stroke-dasharray:2.0,2.0;" x1="1186" x2="1233" y1="530.7344" y2="530.7344"/><polygon fill="#181818" points="1196,526.7344,1186,530.7344,1196,534.7344,1192,530.7344" style="stroke:#181818;stroke-width:1.0;"/><text fill="#000000" font-family="sans-serif" font-size="13" font-weight="bold" lengthAdjust="spacing" textLength="7" x="1198" y="512.4717">9</text><text fill="#000000" font-family="sans-serif" font-size="13" lengthAdjust="spacing" textLength="57" x="1209" y="512.4717">HTTP 200</text><polygon fill="#181818" points="2192,553.0254,2202,557.0254,2192,561.0254,2196,557.0254" style="stroke:#181818;stroke-width:1.0;"/><line style="stroke:#181818;stroke-width:1.0;" x1="1186" x2="2198" y1="557.0254" y2="557.0254"/><text fill="#000000" font-family="sans-serif" font-size="13" font-weight="bold" lengthAdjust="spacing" textLength="14" x="1193" y="551.7627">10</text><text fill="#000000" font-family="sans-serif" font-size="13" lengthAdjust="spacing" textLength="309" x="1211" y="551.7627">gson.fromJson(responses.body(), PlanRequest.class)</text><polygon fill="#181818" points="1197,584.3164,1187,588.3164,1197,592.3164,1193,588.3164" style="stroke:#181818;stroke-width:1.0;"/><line style="stroke:#181818;stroke-width:1.0;stroke-dasharray:2.0,2.0;" x1="1191" x2="2208" y1="588.3164" y2="588.3164"/><text fill="#000000" font-family="sans-serif" font-size="13" font-weight="bold" lengthAdjust="spacing" textLength="14" x="1203" y="583.0537">11</text><text fill="#000000" font-family="sans-serif" font-size="13" lengthAdjust="spacing" textLength="150" x="1221" y="583.0537">PlanRequest planRequest</text><polygon fill="#181818" points="2327.5,615.6074,2337.5,619.6074,2327.5,623.6074,2331.5,619.6074" style="stroke:#181818;stroke-width:1.0;"/><line style="stroke:#181818;stroke-width:1.0;" x1="1186" x2="2333.5" y1="619.6074" y2="619.6074"/><text fill="#000000" font-family="sans-serif" font-size="13" font-weight="bold" lengthAdjust="spacing" textLength="14" x="1193" y="614.3447">12</text><text fill="#000000" font-family="sans-serif" font-size="13" lengthAdjust="spacing" textLength="152" x="1211" y="614.3447">toPlansView(planRequest)</text><polygon fill="#181818" points="1197,646.8984,1187,650.8984,1197,654.8984,1193,650.8984" style="stroke:#181818;stroke-width:1.0;"/><line style="stroke:#181818;stroke-width:1.0;stroke-dasharray:2.0,2.0;" x1="1191" x2="2343.5" y1="650.8984" y2="650.8984"/><text fill="#000000" font-family="sans-serif" font-size="13" font-weight="bold" lengthAdjust="spacing" textLength="14" x="1203" y="645.6357">13</text><text fill="#000000" font-family="sans-serif" font-size="13" lengthAdjust="spacing" textLength="24" x="1221" y="645.6357">plan</text><polygon fill="#181818" points="783,678.1895,773,682.1895,783,686.1895,779,682.1895" style="stroke:#181818;stroke-width:1.0;"/><line style="stroke:#181818;stroke-width:1.0;stroke-dasharray:2.0,2.0;" x1="777" x2="1180" y1="682.1895" y2="682.1895"/><text fill="#000000" font-family="sans-serif" font-size="13" font-weight="bold" lengthAdjust="spacing" textLength="14" x="789" y="676.9268">14</text><text fill="#000000" font-family="sans-serif" font-size="13" lengthAdjust="spacing" textLength="24" x="807" y="676.9268">plan</text><path d="M707,704.1895 L768,704.1895 L768,713.4805 L758,723.4805 L707,723.4805 L707,704.1895 " fill="#EEEEEE" style="stroke:#000000;stroke-width:1.5;"/><rect fill="none" height="113.1641" style="stroke:#000000;stroke-width:1.5;" width="1312.5" x="707" y="704.1895"/><text fill="#000000" font-family="sans-serif" font-size="13" font-weight="bold" lengthAdjust="spacing" textLength="16" x="722" y="719.2178">alt</text><text fill="#000000" font-family="sans-serif" font-size="11" font-weight="bold" lengthAdjust="spacing" textLength="165" x="783" y="718.0596">[If Plan exist in Local Machine]</text><polygon fill="#181818" points="1966,742.7715,1976,746.7715,1966,750.7715,1970,746.7715" style="stroke:#181818;stroke-width:1.0;"/><line style="stroke:#181818;stroke-width:1.0;" x1="772" x2="1972" y1="746.7715" y2="746.7715"/><text fill="#000000" font-family="sans-serif" font-size="13" font-weight="bold" lengthAdjust="spacing" textLength="14" x="779" y="741.5088">15</text><text fill="#000000" font-family="sans-serif" font-size="13" lengthAdjust="spacing" textLength="1169" x="797" y="741.5088">plan.updateData(long desiredVersion, String description,Integer maximumNumberOfUsers,String numberOfMinutes ,Integer musicCollections,String musicSuggestions, Boolean active, Boolean promoted)</text><polygon fill="#181818" points="1164,774.0625,1174,778.0625,1164,782.0625,1168,778.0625" style="stroke:#181818;stroke-width:1.0;"/><line style="stroke:#181818;stroke-width:1.0;" x1="772" x2="1170" y1="778.0625" y2="778.0625"/><text fill="#000000" font-family="sans-serif" font-size="13" font-weight="bold" lengthAdjust="spacing" textLength="14" x="779" y="772.7998">16</text><text fill="#000000" font-family="sans-serif" font-size="13" lengthAdjust="spacing" textLength="58" x="797" y="772.7998">save(plan)</text><polygon fill="#181818" points="783,805.3535,773,809.3535,783,813.3535,779,809.3535" style="stroke:#181818;stroke-width:1.0;"/><line style="stroke:#181818;stroke-width:1.0;stroke-dasharray:2.0,2.0;" x1="777" x2="1180" y1="809.3535" y2="809.3535"/><text fill="#000000" font-family="sans-serif" font-size="13" font-weight="bold" lengthAdjust="spacing" textLength="14" x="789" y="804.0908">17</text><text fill="#000000" font-family="sans-serif" font-size="13" lengthAdjust="spacing" textLength="24" x="807" y="804.0908">plan</text><polygon fill="#181818" points="286,843.6445,276,847.6445,286,851.6445,282,847.6445" style="stroke:#181818;stroke-width:1.0;"/><line style="stroke:#181818;stroke-width:1.0;stroke-dasharray:2.0,2.0;" x1="280" x2="766" y1="847.6445" y2="847.6445"/><text fill="#000000" font-family="sans-serif" font-size="13" font-weight="bold" lengthAdjust="spacing" textLength="14" x="292" y="842.3818">18</text><text fill="#000000" font-family="sans-serif" font-size="13" lengthAdjust="spacing" textLength="24" x="310" y="842.3818">plan</text><polygon fill="#181818" points="2067.5,874.9355,2077.5,878.9355,2067.5,882.9355,2071.5,878.9355" style="stroke:#181818;stroke-width:1.0;"/><line style="stroke:#181818;stroke-width:1.0;" x1="275" x2="2073.5" y1="878.9355" y2="878.9355"/><text fill="#000000" font-family="sans-serif" font-size="13" font-weight="bold" lengthAdjust="spacing" textLength="14" x="282" y="873.6729">19</text><text fill="#000000" font-family="sans-serif" font-size="13" lengthAdjust="spacing" textLength="104" x="300" y="873.6729">toPlansView(plan)</text><polygon fill="#181818" points="286,906.2266,276,910.2266,286,914.2266,282,910.2266" style="stroke:#181818;stroke-width:1.0;"/><line style="stroke:#181818;stroke-width:1.0;stroke-dasharray:2.0,2.0;" x1="280" x2="2083.5" y1="910.2266" y2="910.2266"/><text fill="#000000" font-family="sans-serif" font-size="13" font-weight="bold" lengthAdjust="spacing" textLength="14" x="292" y="904.9639">20</text><text fill="#000000" font-family="sans-serif" font-size="13" lengthAdjust="spacing" textLength="52" x="310" y="904.9639">planView</text><polygon fill="#181818" points="77,937.5176,67,941.5176,77,945.5176,73,941.5176" style="stroke:#181818;stroke-width:1.0;"/><line style="stroke:#181818;stroke-width:1.0;stroke-dasharray:2.0,2.0;" x1="71" x2="269" y1="941.5176" y2="941.5176"/><text fill="#000000" font-family="sans-serif" font-size="13" font-weight="bold" lengthAdjust="spacing" textLength="14" x="83" y="936.2549">21</text><text fill="#000000" font-family="sans-serif" font-size="13" lengthAdjust="spacing" textLength="52" x="101" y="936.2549">planView</text><!--SRC=[TLHTRXCn47x6fnZrXKJA3_0OQAMGWXf4suWMNf7nJXA3rrxisPO88N4Dxi49E0edOJpxqnJ2FgpiySmtu- -RySCjKPLcqsdbjAUwT1CJocd2ppLwW-F2watKfT8r1Mt8tcX225xslYu_O5HaoI5SjH5msaHC0UO9IXq_8Lc_WS96D1JY29Pmovc00fYjzXi43Jdtx-y_4XH8she4WROOWVWSgcWD0wZzb4fdA3Wwx-5FM_WZq0dcHbKw4iTLETFHRCNuY-0f1kUmyLbGT0UyqXN66sjGVFBwaCyRh4Aod6qdRdbxo4qEy-hGuJkBj-UwgjfoylQ0svlCQg8sZQmFWJL0It-3CUq1TWR5tzp0-4Hk3JDOpQyNPo2IfsbT5IpgzAlN9NvJIbpODLyUPWy47oIdTc_5TN15CNEU0qRmeh3KiYBrGSGKwcZuo0Nsuj24htarVAgKW39ufWncbnNPuBLx9l4dqWPm36lhY-Ux2qP_dt-33d2oGHB3SAW4ODoNAQ7A1svEXsjIZuVG2WctrZdkD3IVmAwR5FZ59ahgoN2vvXx3nbW4JFxNJsfEkNQZdTk19Ja1hSwkLokOhvQmu8FSljetRMfz8isjhz0Na6jG1VQp8lfhHx3eIiWPLtqPF4nm7oPrTHuVOrdHJaWRd-GRpngjBWAzpkNrp8n4YW8JJq7nZZLdMaSyBzk6g3QOwHEYNyPGNkQKV9d_aZjkW-3i-de5Jnuzoasq1rO4mLffCjkCSwY2Zodu_w4r0fvqNSqImeRT9sikxXKlSc5Ly0dJv4CeTeFX2FO6OcASJYbZoxQ3t_CG1hkHwPBj3mLdfD2Fuc3FVQZk-VMrIu-rjycQpCJ0eek-t4jxgbeF8X6SQxEr7llE5n-9d3HYdchI0vcKlzY3TipORAALKHajFU66Qohr5rlMvOKyXvVhjrnd6dLZsHhFhQ-9k-akg4xMBF8JQ39O7o3sgtgpuRkB7Pw7u93hb2x6ktt5ud1_5yDxWpo3f6zG6FnhC5lECaLDGFi4jVRsgSbi_oj6eq8EkOkGLv9VicVZSVUKzUO_]--></g></svg>