<?xml version="1.0" encoding="us-ascii" standalone="no"?><svg xmlns="http://www.w3.org/2000/svg" xmlns:xlink="http://www.w3.org/1999/xlink" contentStyleType="text/css" height="706px" preserveAspectRatio="none" style="width:1334px;height:706px;background:#FFFFFF;" version="1.1" viewBox="0 0 1334 706" width="1334px" zoomAndPan="magnify"><defs/><g><text fill="#000000" font-family="sans-serif" font-size="14" font-weight="bold" lengthAdjust="spacing" textLength="1306" x="10" y="30.1074">Software Design Document/ As Marketing director, I want to define a new Plan detailing the monthly and annual cost, the maximum number of devices and other characteristics of the plan</text><rect fill="#FFFFFF" height="479.7832" style="stroke:#181818;stroke-width:1.0;" width="10" x="467.5" y="133.2422"/><rect fill="#FFFFFF" height="480.7832" style="stroke:#181818;stroke-width:1.0;" width="10" x="783.5" y="133.2422"/><rect fill="none" height="325.6191" style="stroke:#000000;stroke-width:1.5;" width="544" x="391.5" y="215.8242"/><rect fill="none" height="94.873" style="stroke:#000000;stroke-width:1.5;" width="519" x="401.5" y="286.4063"/><rect fill="none" height="139.1641" style="stroke:#000000;stroke-width:1.5;" width="509" x="401.5" y="395.2793"/><rect fill="none" height="50.582" style="stroke:#000000;stroke-width:1.5;" width="429" x="401.5" y="555.4434"/><line style="stroke:#181818;stroke-width:0.5;stroke-dasharray:5.0,5.0;" x1="472.5" x2="472.5" y1="123.2422" y2="623.0254"/><line style="stroke:#181818;stroke-width:0.5;stroke-dasharray:5.0,5.0;" x1="788.5" x2="788.5" y1="123.2422" y2="623.0254"/><text fill="#000000" font-family="sans-serif" font-size="14" lengthAdjust="spacing" textLength="116" x="411.5" y="119.7285">Marketing Director</text><ellipse cx="472.5" cy="53.1211" fill="#E2E2F0" rx="8" ry="8" style="stroke:#181818;stroke-width:0.5;"/><path d="M472.5,61.1211 L472.5,88.1211 M459.5,69.1211 L485.5,69.1211 M472.5,88.1211 L459.5,103.1211 M472.5,88.1211 L485.5,103.1211 " fill="none" style="stroke:#181818;stroke-width:0.5;"/><text fill="#000000" font-family="sans-serif" font-size="14" lengthAdjust="spacing" textLength="116" x="411.5" y="637.1328">Marketing Director</text><ellipse cx="472.5" cy="649.1465" fill="#E2E2F0" rx="8" ry="8" style="stroke:#181818;stroke-width:0.5;"/><path d="M472.5,657.1465 L472.5,684.1465 M459.5,665.1465 L485.5,665.1465 M472.5,684.1465 L459.5,699.1465 M472.5,684.1465 L485.5,699.1465 " fill="none" style="stroke:#181818;stroke-width:0.5;"/><rect fill="#E2E2F0" height="32.6211" rx="2.5" ry="2.5" style="stroke:#181818;stroke-width:0.5;" width="64" x="756.5" y="89.6211"/><text fill="#000000" font-family="sans-serif" font-size="14" lengthAdjust="spacing" textLength="50" x="763.5" y="111.7285">:System</text><rect fill="#E2E2F0" height="32.6211" rx="2.5" ry="2.5" style="stroke:#181818;stroke-width:0.5;" width="64" x="756.5" y="622.0254"/><text fill="#000000" font-family="sans-serif" font-size="14" lengthAdjust="spacing" textLength="50" x="763.5" y="644.1328">:System</text><rect fill="#FFFFFF" height="479.7832" style="stroke:#181818;stroke-width:1.0;" width="10" x="467.5" y="133.2422"/><rect fill="#FFFFFF" height="480.7832" style="stroke:#181818;stroke-width:1.0;" width="10" x="783.5" y="133.2422"/><polygon fill="#181818" points="771.5,152.5332,781.5,156.5332,771.5,160.5332,775.5,156.5332" style="stroke:#181818;stroke-width:1.0;"/><line style="stroke:#181818;stroke-width:1.0;" x1="477.5" x2="777.5" y1="156.5332" y2="156.5332"/><text fill="#000000" font-family="sans-serif" font-size="13" lengthAdjust="spacing" textLength="169" x="484.5" y="151.2705">PATCH /plans/update/{name}</text><line style="stroke:#181818;stroke-width:1.0;stroke-dasharray:2.0,2.0;" x1="793.5" x2="835.5" y1="187.8242" y2="187.8242"/><line style="stroke:#181818;stroke-width:1.0;stroke-dasharray:2.0,2.0;" x1="835.5" x2="835.5" y1="187.8242" y2="200.8242"/><line style="stroke:#181818;stroke-width:1.0;stroke-dasharray:2.0,2.0;" x1="794.5" x2="835.5" y1="200.8242" y2="200.8242"/><polygon fill="#181818" points="804.5,196.8242,794.5,200.8242,804.5,204.8242,800.5,200.8242" style="stroke:#181818;stroke-width:1.0;"/><text fill="#000000" font-family="sans-serif" font-size="13" lengthAdjust="spacing" textLength="124" x="800.5" y="182.5615">Gets data from Patch</text><path d="M391.5,215.8242 L452.5,215.8242 L452.5,225.1152 L442.5,235.1152 L391.5,235.1152 L391.5,215.8242 " fill="#EEEEEE" style="stroke:#000000;stroke-width:1.5;"/><rect fill="none" height="325.6191" style="stroke:#000000;stroke-width:1.5;" width="544" x="391.5" y="215.8242"/><text fill="#000000" font-family="sans-serif" font-size="13" font-weight="bold" lengthAdjust="spacing" textLength="16" x="406.5" y="230.8525">alt</text><text fill="#000000" font-family="sans-serif" font-size="11" font-weight="bold" lengthAdjust="spacing" textLength="197" x="467.5" y="229.6943">[successful case - data is accepted]</text><line style="stroke:#181818;stroke-width:1.0;stroke-dasharray:2.0,2.0;" x1="793.5" x2="835.5" y1="258.4063" y2="258.4063"/><line style="stroke:#181818;stroke-width:1.0;stroke-dasharray:2.0,2.0;" x1="835.5" x2="835.5" y1="258.4063" y2="271.4063"/><line style="stroke:#181818;stroke-width:1.0;stroke-dasharray:2.0,2.0;" x1="794.5" x2="835.5" y1="271.4063" y2="271.4063"/><polygon fill="#181818" points="804.5,267.4063,794.5,271.4063,804.5,275.4063,800.5,271.4063" style="stroke:#181818;stroke-width:1.0;"/><text fill="#000000" font-family="sans-serif" font-size="13" lengthAdjust="spacing" textLength="123" x="800.5" y="253.1436">Checks if Plan exists</text><path d="M401.5,286.4063 L462.5,286.4063 L462.5,295.6973 L452.5,305.6973 L401.5,305.6973 L401.5,286.4063 " fill="#EEEEEE" style="stroke:#000000;stroke-width:1.5;"/><rect fill="none" height="94.873" style="stroke:#000000;stroke-width:1.5;" width="519" x="401.5" y="286.4063"/><text fill="#000000" font-family="sans-serif" font-size="13" font-weight="bold" lengthAdjust="spacing" textLength="16" x="416.5" y="301.4346">alt</text><text fill="#000000" font-family="sans-serif" font-size="11" font-weight="bold" lengthAdjust="spacing" textLength="168" x="477.5" y="300.2764">[successful case - Plan exists]</text><line style="stroke:#181818;stroke-width:1.0;stroke-dasharray:2.0,2.0;" x1="793.5" x2="835.5" y1="328.9883" y2="328.9883"/><line style="stroke:#181818;stroke-width:1.0;stroke-dasharray:2.0,2.0;" x1="835.5" x2="835.5" y1="328.9883" y2="341.9883"/><line style="stroke:#181818;stroke-width:1.0;stroke-dasharray:2.0,2.0;" x1="794.5" x2="835.5" y1="341.9883" y2="341.9883"/><polygon fill="#181818" points="804.5,337.9883,794.5,341.9883,804.5,345.9883,800.5,341.9883" style="stroke:#181818;stroke-width:1.0;"/><text fill="#000000" font-family="sans-serif" font-size="13" lengthAdjust="spacing" textLength="108" x="800.5" y="323.7256">Apply data on plan</text><polygon fill="#181818" points="488.5,369.2793,478.5,373.2793,488.5,377.2793,484.5,373.2793" style="stroke:#181818;stroke-width:1.0;"/><line style="stroke:#181818;stroke-width:1.0;stroke-dasharray:2.0,2.0;" x1="482.5" x2="782.5" y1="373.2793" y2="373.2793"/><text fill="#000000" font-family="sans-serif" font-size="13" lengthAdjust="spacing" textLength="287" x="494.5" y="368.0166">Tells users plan haves been updated and shows it</text><path d="M401.5,395.2793 L462.5,395.2793 L462.5,404.5703 L452.5,414.5703 L401.5,414.5703 L401.5,395.2793 " fill="#EEEEEE" style="stroke:#000000;stroke-width:1.5;"/><rect fill="none" height="139.1641" style="stroke:#000000;stroke-width:1.5;" width="509" x="401.5" y="395.2793"/><text fill="#000000" font-family="sans-serif" font-size="13" font-weight="bold" lengthAdjust="spacing" textLength="16" x="416.5" y="410.3076">alt</text><text fill="#000000" font-family="sans-serif" font-size="11" font-weight="bold" lengthAdjust="spacing" textLength="269" x="477.5" y="409.1494">[Plan doesn&#180;t exist on instance 1-HTPP API CALL]</text><line style="stroke:#181818;stroke-width:1.0;stroke-dasharray:2.0,2.0;" x1="793.5" x2="835.5" y1="437.8613" y2="437.8613"/><line style="stroke:#181818;stroke-width:1.0;stroke-dasharray:2.0,2.0;" x1="835.5" x2="835.5" y1="437.8613" y2="450.8613"/><line style="stroke:#181818;stroke-width:1.0;stroke-dasharray:2.0,2.0;" x1="794.5" x2="835.5" y1="450.8613" y2="450.8613"/><polygon fill="#181818" points="804.5,446.8613,794.5,450.8613,804.5,454.8613,800.5,450.8613" style="stroke:#181818;stroke-width:1.0;"/><text fill="#000000" font-family="sans-serif" font-size="13" lengthAdjust="spacing" textLength="81" x="800.5" y="432.5986">Returns a 200</text><line style="stroke:#181818;stroke-width:1.0;stroke-dasharray:2.0,2.0;" x1="793.5" x2="835.5" y1="482.1523" y2="482.1523"/><line style="stroke:#181818;stroke-width:1.0;stroke-dasharray:2.0,2.0;" x1="835.5" x2="835.5" y1="482.1523" y2="495.1523"/><line style="stroke:#181818;stroke-width:1.0;stroke-dasharray:2.0,2.0;" x1="794.5" x2="835.5" y1="495.1523" y2="495.1523"/><polygon fill="#181818" points="804.5,491.1523,794.5,495.1523,804.5,499.1523,800.5,495.1523" style="stroke:#181818;stroke-width:1.0;"/><text fill="#000000" font-family="sans-serif" font-size="13" lengthAdjust="spacing" textLength="98" x="800.5" y="476.8896">Updates the plan</text><polygon fill="#181818" points="488.5,522.4434,478.5,526.4434,488.5,530.4434,484.5,526.4434" style="stroke:#181818;stroke-width:1.0;"/><line style="stroke:#181818;stroke-width:1.0;" x1="482.5" x2="782.5" y1="526.4434" y2="526.4434"/><text fill="#000000" font-family="sans-serif" font-size="13" lengthAdjust="spacing" textLength="263" x="494.5" y="521.1807">Shows plan haves been updated and shows it</text><path d="M401.5,555.4434 L462.5,555.4434 L462.5,564.7344 L452.5,574.7344 L401.5,574.7344 L401.5,555.4434 " fill="#EEEEEE" style="stroke:#000000;stroke-width:1.5;"/><rect fill="none" height="50.582" style="stroke:#000000;stroke-width:1.5;" width="429" x="401.5" y="555.4434"/><text fill="#000000" font-family="sans-serif" font-size="13" font-weight="bold" lengthAdjust="spacing" textLength="16" x="416.5" y="570.4717">alt</text><text fill="#000000" font-family="sans-serif" font-size="11" font-weight="bold" lengthAdjust="spacing" textLength="309" x="477.5" y="569.3135">[failure case - data is not accepted or Plan doesn&#180;t exist]</text><polygon fill="#181818" points="488.5,594.0254,478.5,598.0254,488.5,602.0254,484.5,598.0254" style="stroke:#181818;stroke-width:1.0;"/><line style="stroke:#181818;stroke-width:1.0;stroke-dasharray:2.0,2.0;" x1="482.5" x2="782.5" y1="598.0254" y2="598.0254"/><text fill="#000000" font-family="sans-serif" font-size="13" lengthAdjust="spacing" textLength="126" x="494.5" y="592.7627">Shows error message</text><!--SRC=[ZPF1Qjj048RlUeh1brwYAkrHXuAne0d486ht0IQhaRL4kwlkpDe9fM_L9-YJTIGLsGb9w44WjD_i_Fy_em-ToC1bKGmzUack_sY2AvX-9FA6yiRY8QBBq4Y8iDfYV22n_W2LZJH-Mm4oRAjChFG4kz3A2ID1HMmF7gfWaYCl1QoLMegRVyLNS0idRGiIeA7MUW84JoUeLOn-4RJzo4j7u8ANhdy2z8q-Fc4F9h1SpOVuQ5rou9ExfmYXrUAZDSGJ7XI9O3gCQeEYPR66HsWi7NrdepzxHA7HIhQj8Fy2gtBtn49k1INKw_tc1gQCk4X3esJnqwEZNzaPoryKVILXK1IXZS51ZM8wxTGBS3AgZTka7f09yXcpAbSF1g4cU-VUJKVcWS6sSqpqg8RuZNilYRTlN0-39Zjf27vEv3ciYPImfxvdI4oH9mOwF6h2zqGUvaoQAMxkmadbIPPbv9lPyJpGGEp__9PPqDZAUXRKFODF-Ss-hc5Tty9cVNTtRg_Tb_Vo6qcANbE2pzVNx_ZvFgdXytmlqD5C2Rj9u_-v64qiHbfToQGB_c9kFiWoEz0_vHM_vnrRrBoMygoCOjHRd0uJ3pHBQEXYIVy2]--></g></svg>