<?xml version="1.0" encoding="us-ascii" standalone="no"?><svg xmlns="http://www.w3.org/2000/svg" xmlns:xlink="http://www.w3.org/1999/xlink" contentStyleType="text/css" height="575px" preserveAspectRatio="none" style="width:1315px;height:575px;background:#FFFFFF;" version="1.1" viewBox="0 0 1315 575" width="1315px" zoomAndPan="magnify"><defs/><g><!--class DeviceRepository--><g id="elem_DeviceRepository"><rect codeLine="22" fill="#F1F1F1" height="97.8242" id="DeviceRepository" rx="2.5" ry="2.5" style="stroke:#181818;stroke-width:0.5;" width="478" x="697.5" y="291"/><text fill="#000000" font-family="sans-serif" font-size="12" font-style="italic" lengthAdjust="spacing" textLength="61" x="906" y="308.9492">&#171;interface&#187;</text><text fill="#000000" font-family="sans-serif" font-size="14" font-style="italic" lengthAdjust="spacing" textLength="110" x="881.5" y="327.0684">DeviceRepository</text><line style="stroke:#181818;stroke-width:0.5;" x1="698.5" x2="1174.5" y1="335.582" y2="335.582"/><line style="stroke:#181818;stroke-width:0.5;" x1="698.5" x2="1174.5" y1="343.582" y2="343.582"/><ellipse cx="708.5" cy="358.3926" fill="#84BE84" rx="3" ry="3" style="stroke:#038048;stroke-width:1.0;"/><text fill="#000000" font-family="sans-serif" font-size="14" lengthAdjust="spacing" textLength="452" x="717.5" y="362.6895">findByMacAddress_MacAddress(String macAddress): Optional&lt;Device&gt;</text><ellipse cx="708.5" cy="377.0137" fill="#84BE84" rx="3" ry="3" style="stroke:#038048;stroke-width:1.0;"/><text fill="#000000" font-family="sans-serif" font-size="14" lengthAdjust="spacing" textLength="224" x="717.5" y="381.3105">save(S entity) : &lt;S extends Device&gt;</text></g><!--class Device--><g id="elem_Device"><rect codeLine="6" fill="#F1F1F1" height="100.4844" id="Device" rx="2.5" ry="2.5" style="stroke:#181818;stroke-width:0.5;" width="104" x="884.5" y="468"/><text fill="#000000" font-family="sans-serif" font-size="14" lengthAdjust="spacing" textLength="43" x="915" y="488.1074">Device</text><line style="stroke:#181818;stroke-width:0.5;" x1="885.5" x2="987.5" y1="496.6211" y2="496.6211"/><rect fill="none" height="6" style="stroke:#C82930;stroke-width:1.0;" width="6" x="892.5" y="508.4316"/><text fill="#000000" font-family="sans-serif" font-size="14" lengthAdjust="spacing" textLength="78" x="904.5" y="515.7285">macAddress</text><rect fill="none" height="6" style="stroke:#C82930;stroke-width:1.0;" width="6" x="892.5" y="527.0527"/><text fill="#000000" font-family="sans-serif" font-size="14" lengthAdjust="spacing" textLength="35" x="904.5" y="534.3496">name</text><rect fill="none" height="6" style="stroke:#C82930;stroke-width:1.0;" width="6" x="892.5" y="545.6738"/><text fill="#000000" font-family="sans-serif" font-size="14" lengthAdjust="spacing" textLength="69" x="904.5" y="552.9707">description</text><line style="stroke:#181818;stroke-width:0.5;" x1="885.5" x2="987.5" y1="560.4844" y2="560.4844"/></g><!--class DeviceViewMapper--><g id="elem_DeviceViewMapper"><rect codeLine="11" fill="#F1F1F1" height="63.2422" id="DeviceViewMapper" rx="2.5" ry="2.5" style="stroke:#181818;stroke-width:0.5;" width="288" x="241.5" y="149"/><text fill="#000000" font-family="sans-serif" font-size="14" lengthAdjust="spacing" textLength="120" x="325.5" y="169.1074">DeviceViewMapper</text><line style="stroke:#181818;stroke-width:0.5;" x1="242.5" x2="528.5" y1="177.6211" y2="177.6211"/><line style="stroke:#181818;stroke-width:0.5;" x1="242.5" x2="528.5" y1="185.6211" y2="185.6211"/><ellipse cx="252.5" cy="200.4316" fill="#84BE84" rx="3" ry="3" style="stroke:#038048;stroke-width:1.0;"/><text fill="#000000" font-family="sans-serif" font-size="14" lengthAdjust="spacing" textLength="262" x="261.5" y="204.7285">toDeviceView(Device device): DeviceView</text></g><!--class DeviceController--><g id="elem_DeviceController"><rect codeLine="14" fill="#F1F1F1" height="63.2422" id="DeviceController" rx="2.5" ry="2.5" style="stroke:#181818;stroke-width:0.5;" width="839" x="7" y="7"/><text fill="#000000" font-family="sans-serif" font-size="14" lengthAdjust="spacing" textLength="105" x="374" y="27.1074">DeviceController</text><line style="stroke:#181818;stroke-width:0.5;" x1="8" x2="845" y1="35.6211" y2="35.6211"/><line style="stroke:#181818;stroke-width:0.5;" x1="8" x2="845" y1="43.6211" y2="43.6211"/><text fill="#000000" font-family="sans-serif" font-size="14" lengthAdjust="spacing" textLength="827" x="13" y="62.7285">upsert(WebRequest request, String macAddress, EditDeviceRequest resource, final MultipartFile file):ResponseEntity&lt;DeviceView&gt;</text></g><!--class DeviceService--><g id="elem_DeviceService"><rect codeLine="17" fill="#F1F1F1" height="63.2422" id="DeviceService" rx="2.5" ry="2.5" style="stroke:#181818;stroke-width:0.5;" width="744" x="564.5" y="149"/><text fill="#000000" font-family="sans-serif" font-size="14" lengthAdjust="spacing" textLength="90" x="891.5" y="169.1074">DeviceService</text><line style="stroke:#181818;stroke-width:0.5;" x1="565.5" x2="1307.5" y1="177.6211" y2="177.6211"/><line style="stroke:#181818;stroke-width:0.5;" x1="565.5" x2="1307.5" y1="185.6211" y2="185.6211"/><ellipse cx="575.5" cy="200.4316" fill="#84BE84" rx="3" ry="3" style="stroke:#038048;stroke-width:1.0;"/><text fill="#000000" font-family="sans-serif" font-size="14" lengthAdjust="spacing" textLength="718" x="584.5" y="204.7285">update(String macAddress, EditDeviceRequest resource, DeviceImage deviceImage, long desiredVersion): Device</text></g><!--link DeviceController to DeviceService--><g id="link_DeviceController_DeviceService"><path codeLine="30" d="M537.79,70.05 C621.27,92.97 735.26,124.26 819.98,147.51 " fill="none" id="DeviceController-to-DeviceService" style="stroke:#181818;stroke-width:1.0;stroke-dasharray:7.0,7.0;"/><polygon fill="#181818" points="825.01,148.89,817.3936,142.6457,820.1892,147.5636,815.2713,150.3591,825.01,148.89" style="stroke:#181818;stroke-width:1.0;"/><polygon fill="#000000" points="722.3216,110.969,714.3772,105.7407,712.8213,111.4088,722.3216,110.969" style="stroke:#000000;stroke-width:1.0;"/><text fill="#000000" font-family="sans-serif" font-size="13" lengthAdjust="spacing" textLength="28" x="726.5" y="115.0283">uses</text></g><!--link DeviceService to DeviceRepository--><g id="link_DeviceService_DeviceRepository"><path codeLine="31" d="M936.5,212.24 C936.5,233.14 936.5,261.32 936.5,285.81 " fill="none" id="DeviceService-to-DeviceRepository" style="stroke:#181818;stroke-width:1.0;stroke-dasharray:7.0,7.0;"/><polygon fill="#181818" points="936.5,290.97,940.5,281.97,936.5,285.97,932.5,281.97,936.5,290.97" style="stroke:#181818;stroke-width:1.0;"/><polygon fill="#000000" points="941.5,256.6455,944.4389,247.6004,938.5611,247.6004,941.5,256.6455" style="stroke:#000000;stroke-width:1.0;"/><text fill="#000000" font-family="sans-serif" font-size="13" lengthAdjust="spacing" textLength="28" x="950.5" y="257.0283">uses</text></g><!--link DeviceRepository to Device--><g id="link_DeviceRepository_Device"><path codeLine="32" d="M936.5,389.09 C936.5,411.8 936.5,439.01 936.5,462.48 " fill="none" id="DeviceRepository-to-Device" style="stroke:#181818;stroke-width:1.0;stroke-dasharray:7.0,7.0;"/><polygon fill="#181818" points="936.5,467.74,940.5,458.74,936.5,462.74,932.5,458.74,936.5,467.74" style="stroke:#181818;stroke-width:1.0;"/><polygon fill="#000000" points="941.5,423.6455,938.5611,432.6906,944.4389,432.6906,941.5,423.6455" style="stroke:#000000;stroke-width:1.0;"/><text fill="#000000" font-family="sans-serif" font-size="13" lengthAdjust="spacing" textLength="36" x="950.5" y="434.0283">record</text></g><!--link DeviceController to DeviceViewMapper--><g id="link_DeviceController_DeviceViewMapper"><path codeLine="33" d="M417.5,70.22 C411.15,91.92 402.61,121.07 395.95,143.81 " fill="none" id="DeviceController-to-DeviceViewMapper" style="stroke:#181818;stroke-width:1.0;stroke-dasharray:7.0,7.0;"/><polygon fill="#181818" points="394.48,148.85,400.84,141.33,395.88,144.05,393.16,139.09,394.48,148.85" style="stroke:#181818;stroke-width:1.0;"/><polygon fill="#000000" points="412.0948,114.444,417.4573,106.5894,411.8163,104.9375,412.0948,114.444" style="stroke:#000000;stroke-width:1.0;"/><text fill="#000000" font-family="sans-serif" font-size="13" lengthAdjust="spacing" textLength="28" x="422.5" y="115.0283">uses</text></g><!--SRC=[bP9DRy8m38Rl-HM-3LG-xWXLsWUJTa2JG6B7AKiyY9GccUEo8RJ_lgobb9PTraiSntdx-7LkTimXpgRJOANZih0JvOkfiZB6iJPoIx8GEwCHb25bKLGdy81xet25mKV3dWumdnl7IEzIOPuBqIax2aZVk93gLcl26EkzamNMaSQeo0GstedlpjMDmS-b306f5idOjmU3EWHTBSFPnPsUpBrtJDxQHgOC4Oa7B_YsmeyI8mFLwmZMJCPjeOKTmK8RRXfkggClIU48tesJ5fQbPHCayQEnc78sqQmm1kyYBXmRFinRjhn2w0AkaKvEPMNGad7mJuuw_rJ8RUD75O_0-gII33Q4UeCKayTdfqIoIPpdTZLKSHHPwa_V7PPdYjSsl4PCmi_L5AKzzPkBBCfzwWQmic48CvYdpHUZqqtp-I-64FrHmMIIT-sPGHanGYuwsOkwbhrNUl5Is-g4aXnKdlIV_-w_m4Ro1m00]--></g></svg>