<?xml version="1.0" encoding="us-ascii" standalone="no"?><svg xmlns="http://www.w3.org/2000/svg" xmlns:xlink="http://www.w3.org/1999/xlink" contentStyleType="text/css" height="786px" preserveAspectRatio="none" style="width:1313px;height:786px;background:#FFFFFF;" version="1.1" viewBox="0 0 1313 786" width="1313px" zoomAndPan="magnify"><defs/><g><text fill="#000000" font-family="sans-serif" font-size="14" font-weight="bold" lengthAdjust="spacing" textLength="502" x="407" y="30.1074">Sequence Diagram / As a new customer I want to know all existing plans</text><rect fill="#FFFFFF" height="528.6563" style="stroke:#181818;stroke-width:1.0;" width="10" x="161" y="156.5332"/><rect fill="#FFFFFF" height="403.4922" style="stroke:#181818;stroke-width:1.0;" width="10" x="406" y="187.8242"/><rect fill="#FFFFFF" height="31.291" style="stroke:#181818;stroke-width:1.0;" width="10" x="715" y="219.1152"/><rect fill="#FFFFFF" height="245.0371" style="stroke:#181818;stroke-width:1.0;" width="10" x="715" y="307.9883"/><rect fill="#FFFFFF" height="167.4551" style="stroke:#181818;stroke-width:1.0;" width="10" x="720" y="347.2793"/><rect fill="#FFFFFF" height="31.291" style="stroke:#181818;stroke-width:1.0;" width="10" x="956" y="622.6074"/><rect fill="#FFFFFF" height="31.291" style="stroke:#181818;stroke-width:1.0;" width="10" x="1080.5" y="383.5703"/><rect fill="#FFFFFF" height="31.291" style="stroke:#181818;stroke-width:1.0;" width="10" x="1216" y="446.1523"/><rect fill="none" height="295.6191" style="stroke:#000000;stroke-width:1.5;" width="956" x="351" y="265.4063"/><line style="stroke:#181818;stroke-width:0.5;stroke-dasharray:5.0,5.0;" x1="53" x2="53" y1="123.2422" y2="703.1895"/><line style="stroke:#181818;stroke-width:0.5;stroke-dasharray:5.0,5.0;" x1="166" x2="166" y1="123.2422" y2="703.1895"/><line style="stroke:#181818;stroke-width:0.5;stroke-dasharray:5.0,5.0;" x1="411" x2="411" y1="123.2422" y2="703.1895"/><line style="stroke:#181818;stroke-width:0.5;stroke-dasharray:5.0,5.0;" x1="719.5" x2="719.5" y1="123.2422" y2="703.1895"/><line style="stroke:#181818;stroke-width:0.5;stroke-dasharray:5.0,5.0;" x1="961" x2="961" y1="123.2422" y2="703.1895"/><line style="stroke:#181818;stroke-width:0.5;stroke-dasharray:5.0,5.0;" x1="1085" x2="1085" y1="123.2422" y2="703.1895"/><line style="stroke:#181818;stroke-width:0.5;stroke-dasharray:5.0,5.0;" x1="1221" x2="1221" y1="123.2422" y2="703.1895"/><text fill="#000000" font-family="sans-serif" font-size="14" lengthAdjust="spacing" textLength="91" x="5" y="119.7285">New Customer</text><ellipse cx="53.5" cy="53.1211" fill="#E2E2F0" rx="8" ry="8" style="stroke:#181818;stroke-width:0.5;"/><path d="M53.5,61.1211 L53.5,88.1211 M40.5,69.1211 L66.5,69.1211 M53.5,88.1211 L40.5,103.1211 M53.5,88.1211 L66.5,103.1211 " fill="none" style="stroke:#181818;stroke-width:0.5;"/><text fill="#000000" font-family="sans-serif" font-size="14" lengthAdjust="spacing" textLength="91" x="5" y="717.2969">New Customer</text><ellipse cx="53.5" cy="729.3105" fill="#E2E2F0" rx="8" ry="8" style="stroke:#181818;stroke-width:0.5;"/><path d="M53.5,737.3105 L53.5,764.3105 M40.5,745.3105 L66.5,745.3105 M53.5,764.3105 L40.5,779.3105 M53.5,764.3105 L66.5,779.3105 " fill="none" style="stroke:#181818;stroke-width:0.5;"/><rect fill="#E2E2F0" height="32.6211" rx="2.5" ry="2.5" style="stroke:#181818;stroke-width:0.5;" width="108" x="112" y="89.6211"/><text fill="#000000" font-family="sans-serif" font-size="14" lengthAdjust="spacing" textLength="94" x="119" y="111.7285">:PlanController</text><rect fill="#E2E2F0" height="32.6211" rx="2.5" ry="2.5" style="stroke:#181818;stroke-width:0.5;" width="108" x="112" y="702.1895"/><text fill="#000000" font-family="sans-serif" font-size="14" lengthAdjust="spacing" textLength="94" x="119" y="724.2969">:PlanController</text><rect fill="#E2E2F0" height="32.6211" rx="2.5" ry="2.5" style="stroke:#181818;stroke-width:0.5;" width="100" x="361" y="89.6211"/><text fill="#000000" font-family="sans-serif" font-size="14" lengthAdjust="spacing" textLength="86" x="368" y="111.7285">:PlansService</text><rect fill="#E2E2F0" height="32.6211" rx="2.5" ry="2.5" style="stroke:#181818;stroke-width:0.5;" width="100" x="361" y="702.1895"/><text fill="#000000" font-family="sans-serif" font-size="14" lengthAdjust="spacing" textLength="86" x="368" y="724.2969">:PlansService</text><rect fill="#E2E2F0" height="32.6211" rx="2.5" ry="2.5" style="stroke:#181818;stroke-width:0.5;" width="121" x="659.5" y="89.6211"/><text fill="#000000" font-family="sans-serif" font-size="14" lengthAdjust="spacing" textLength="107" x="666.5" y="111.7285">:PlansRepository</text><rect fill="#E2E2F0" height="32.6211" rx="2.5" ry="2.5" style="stroke:#181818;stroke-width:0.5;" width="121" x="659.5" y="702.1895"/><text fill="#000000" font-family="sans-serif" font-size="14" lengthAdjust="spacing" textLength="107" x="666.5" y="724.2969">:PlansRepository</text><rect fill="#E2E2F0" height="32.6211" rx="2.5" ry="2.5" style="stroke:#181818;stroke-width:0.5;" width="130" x="896" y="89.6211"/><text fill="#000000" font-family="sans-serif" font-size="14" lengthAdjust="spacing" textLength="116" x="903" y="111.7285">:PlansViewMapper</text><rect fill="#E2E2F0" height="32.6211" rx="2.5" ry="2.5" style="stroke:#181818;stroke-width:0.5;" width="130" x="896" y="702.1895"/><text fill="#000000" font-family="sans-serif" font-size="14" lengthAdjust="spacing" textLength="116" x="903" y="724.2969">:PlansViewMapper</text><rect fill="#E2E2F0" height="32.6211" rx="2.5" ry="2.5" style="stroke:#181818;stroke-width:0.5;" width="99" x="1036" y="89.6211"/><text fill="#000000" font-family="sans-serif" font-size="14" lengthAdjust="spacing" textLength="85" x="1043" y="111.7285">:PlanRequest</text><rect fill="#E2E2F0" height="32.6211" rx="2.5" ry="2.5" style="stroke:#181818;stroke-width:0.5;" width="99" x="1036" y="702.1895"/><text fill="#000000" font-family="sans-serif" font-size="14" lengthAdjust="spacing" textLength="85" x="1043" y="724.2969">:PlanRequest</text><rect fill="#E2E2F0" height="32.6211" rx="2.5" ry="2.5" style="stroke:#181818;stroke-width:0.5;" width="152" x="1145" y="89.6211"/><text fill="#000000" font-family="sans-serif" font-size="14" lengthAdjust="spacing" textLength="138" x="1152" y="111.7285">:PlansMapperInverser</text><rect fill="#E2E2F0" height="32.6211" rx="2.5" ry="2.5" style="stroke:#181818;stroke-width:0.5;" width="152" x="1145" y="702.1895"/><text fill="#000000" font-family="sans-serif" font-size="14" lengthAdjust="spacing" textLength="138" x="1152" y="724.2969">:PlansMapperInverser</text><rect fill="#FFFFFF" height="528.6563" style="stroke:#181818;stroke-width:1.0;" width="10" x="161" y="156.5332"/><rect fill="#FFFFFF" height="403.4922" style="stroke:#181818;stroke-width:1.0;" width="10" x="406" y="187.8242"/><rect fill="#FFFFFF" height="31.291" style="stroke:#181818;stroke-width:1.0;" width="10" x="715" y="219.1152"/><rect fill="#FFFFFF" height="245.0371" style="stroke:#181818;stroke-width:1.0;" width="10" x="715" y="307.9883"/><rect fill="#FFFFFF" height="167.4551" style="stroke:#181818;stroke-width:1.0;" width="10" x="720" y="347.2793"/><rect fill="#FFFFFF" height="31.291" style="stroke:#181818;stroke-width:1.0;" width="10" x="956" y="622.6074"/><rect fill="#FFFFFF" height="31.291" style="stroke:#181818;stroke-width:1.0;" width="10" x="1080.5" y="383.5703"/><rect fill="#FFFFFF" height="31.291" style="stroke:#181818;stroke-width:1.0;" width="10" x="1216" y="446.1523"/><polygon fill="#181818" points="149,152.5332,159,156.5332,149,160.5332,153,156.5332" style="stroke:#181818;stroke-width:1.0;"/><line style="stroke:#181818;stroke-width:1.0;" x1="53.5" x2="155" y1="156.5332" y2="156.5332"/><text fill="#000000" font-family="sans-serif" font-size="13" font-weight="bold" lengthAdjust="spacing" textLength="7" x="60.5" y="151.2705">1</text><text fill="#000000" font-family="sans-serif" font-size="13" lengthAdjust="spacing" textLength="65" x="71.5" y="151.2705">GET /plans</text><polygon fill="#181818" points="394,183.8242,404,187.8242,394,191.8242,398,187.8242" style="stroke:#181818;stroke-width:1.0;"/><line style="stroke:#181818;stroke-width:1.0;" x1="171" x2="400" y1="187.8242" y2="187.8242"/><text fill="#000000" font-family="sans-serif" font-size="13" font-weight="bold" lengthAdjust="spacing" textLength="7" x="178" y="182.5615">2</text><text fill="#000000" font-family="sans-serif" font-size="13" lengthAdjust="spacing" textLength="205" x="189" y="182.5615">Iterable&lt;Plans&gt; plans = findActive()</text><polygon fill="#181818" points="703,215.1152,713,219.1152,703,223.1152,707,219.1152" style="stroke:#181818;stroke-width:1.0;"/><line style="stroke:#181818;stroke-width:1.0;" x1="416" x2="709" y1="219.1152" y2="219.1152"/><text fill="#000000" font-family="sans-serif" font-size="13" font-weight="bold" lengthAdjust="spacing" textLength="7" x="423" y="213.8525">3</text><text fill="#000000" font-family="sans-serif" font-size="13" lengthAdjust="spacing" textLength="269" x="434" y="213.8525">Iterable&lt;Plans&gt; plans = findActive_Active(true)</text><polygon fill="#181818" points="427,246.4063,417,250.4063,427,254.4063,423,250.4063" style="stroke:#181818;stroke-width:1.0;"/><line style="stroke:#181818;stroke-width:1.0;stroke-dasharray:2.0,2.0;" x1="421" x2="719" y1="250.4063" y2="250.4063"/><text fill="#000000" font-family="sans-serif" font-size="13" font-weight="bold" lengthAdjust="spacing" textLength="7" x="433" y="245.1436">4</text><text fill="#000000" font-family="sans-serif" font-size="13" lengthAdjust="spacing" textLength="62" x="444" y="245.1436">plansLocal</text><path d="M351,265.4063 L412,265.4063 L412,274.6973 L402,284.6973 L351,284.6973 L351,265.4063 " fill="#EEEEEE" style="stroke:#000000;stroke-width:1.5;"/><rect fill="none" height="295.6191" style="stroke:#000000;stroke-width:1.5;" width="956" x="351" y="265.4063"/><text fill="#000000" font-family="sans-serif" font-size="13" font-weight="bold" lengthAdjust="spacing" textLength="16" x="366" y="280.4346">alt</text><text fill="#000000" font-family="sans-serif" font-size="11" font-weight="bold" lengthAdjust="spacing" textLength="152" x="427" y="279.2764">[Check other Plan instance]</text><polygon fill="#181818" points="703,303.9883,713,307.9883,703,311.9883,707,307.9883" style="stroke:#181818;stroke-width:1.0;"/><line style="stroke:#181818;stroke-width:1.0;" x1="416" x2="709" y1="307.9883" y2="307.9883"/><text fill="#000000" font-family="sans-serif" font-size="13" font-weight="bold" lengthAdjust="spacing" textLength="7" x="423" y="302.7256">5</text><text fill="#000000" font-family="sans-serif" font-size="13" lengthAdjust="spacing" textLength="164" x="434" y="302.7256">addLocalPlusNot(planslocal)</text><line style="stroke:#181818;stroke-width:1.0;" x1="725" x2="772" y1="334.2793" y2="334.2793"/><line style="stroke:#181818;stroke-width:1.0;" x1="772" x2="772" y1="334.2793" y2="347.2793"/><line style="stroke:#181818;stroke-width:1.0;" x1="731" x2="772" y1="347.2793" y2="347.2793"/><polygon fill="#181818" points="741,343.2793,731,347.2793,741,351.2793,737,347.2793" style="stroke:#181818;stroke-width:1.0;"/><text fill="#000000" font-family="sans-serif" font-size="13" font-weight="bold" lengthAdjust="spacing" textLength="7" x="737" y="329.0166">6</text><text fill="#000000" font-family="sans-serif" font-size="13" lengthAdjust="spacing" textLength="142" x="748" y="329.0166">getPlansFromOtherAPI()</text><polygon fill="#181818" points="1068.5,379.5703,1078.5,383.5703,1068.5,387.5703,1072.5,383.5703" style="stroke:#181818;stroke-width:1.0;"/><line style="stroke:#181818;stroke-width:1.0;" x1="730" x2="1074.5" y1="383.5703" y2="383.5703"/><text fill="#000000" font-family="sans-serif" font-size="13" font-weight="bold" lengthAdjust="spacing" textLength="7" x="737" y="378.3076">7</text><text fill="#000000" font-family="sans-serif" font-size="13" lengthAdjust="spacing" textLength="122" x="748" y="378.3076">Planrequest newPlan</text><polygon fill="#181818" points="741,410.8613,731,414.8613,741,418.8613,737,414.8613" style="stroke:#181818;stroke-width:1.0;"/><line style="stroke:#181818;stroke-width:1.0;stroke-dasharray:2.0,2.0;" x1="735" x2="1084.5" y1="414.8613" y2="414.8613"/><text fill="#000000" font-family="sans-serif" font-size="13" font-weight="bold" lengthAdjust="spacing" textLength="7" x="747" y="409.5986">8</text><text fill="#000000" font-family="sans-serif" font-size="13" lengthAdjust="spacing" textLength="49" x="758" y="409.5986">newPlan</text><polygon fill="#181818" points="1204,442.1523,1214,446.1523,1204,450.1523,1208,446.1523" style="stroke:#181818;stroke-width:1.0;"/><line style="stroke:#181818;stroke-width:1.0;" x1="730" x2="1210" y1="446.1523" y2="446.1523"/><text fill="#000000" font-family="sans-serif" font-size="13" font-weight="bold" lengthAdjust="spacing" textLength="7" x="737" y="440.8896">9</text><text fill="#000000" font-family="sans-serif" font-size="13" lengthAdjust="spacing" textLength="129" x="748" y="440.8896">toPlansView(newPlan)</text><polygon fill="#181818" points="741,473.4434,731,477.4434,741,481.4434,737,477.4434" style="stroke:#181818;stroke-width:1.0;"/><line style="stroke:#181818;stroke-width:1.0;stroke-dasharray:2.0,2.0;" x1="735" x2="1220" y1="477.4434" y2="477.4434"/><text fill="#000000" font-family="sans-serif" font-size="13" font-weight="bold" lengthAdjust="spacing" textLength="14" x="747" y="472.1807">10</text><text fill="#000000" font-family="sans-serif" font-size="13" lengthAdjust="spacing" textLength="47" x="765" y="472.1807">Plan obj</text><line style="stroke:#181818;stroke-width:1.0;stroke-dasharray:2.0,2.0;" x1="730" x2="772" y1="513.7344" y2="513.7344"/><line style="stroke:#181818;stroke-width:1.0;stroke-dasharray:2.0,2.0;" x1="772" x2="772" y1="513.7344" y2="526.7344"/><line style="stroke:#181818;stroke-width:1.0;stroke-dasharray:2.0,2.0;" x1="725" x2="772" y1="526.7344" y2="526.7344"/><polygon fill="#181818" points="735,522.7344,725,526.7344,735,530.7344,731,526.7344" style="stroke:#181818;stroke-width:1.0;"/><text fill="#000000" font-family="sans-serif" font-size="13" font-weight="bold" lengthAdjust="spacing" textLength="14" x="737" y="508.4717">11</text><text fill="#000000" font-family="sans-serif" font-size="13" lengthAdjust="spacing" textLength="194" x="755" y="508.4717">addPlanToIterable(planslocal, obj)</text><polygon fill="#181818" points="427,549.0254,417,553.0254,427,557.0254,423,553.0254" style="stroke:#181818;stroke-width:1.0;"/><line style="stroke:#181818;stroke-width:1.0;stroke-dasharray:2.0,2.0;" x1="421" x2="719" y1="553.0254" y2="553.0254"/><text fill="#000000" font-family="sans-serif" font-size="13" font-weight="bold" lengthAdjust="spacing" textLength="14" x="433" y="547.7627">12</text><text fill="#000000" font-family="sans-serif" font-size="13" lengthAdjust="spacing" textLength="31" x="451" y="547.7627">plans</text><polygon fill="#181818" points="182,587.3164,172,591.3164,182,595.3164,178,591.3164" style="stroke:#181818;stroke-width:1.0;"/><line style="stroke:#181818;stroke-width:1.0;stroke-dasharray:2.0,2.0;" x1="176" x2="410" y1="591.3164" y2="591.3164"/><text fill="#000000" font-family="sans-serif" font-size="13" font-weight="bold" lengthAdjust="spacing" textLength="14" x="188" y="586.0537">13</text><text fill="#000000" font-family="sans-serif" font-size="13" lengthAdjust="spacing" textLength="31" x="206" y="586.0537">plans</text><polygon fill="#181818" points="944,618.6074,954,622.6074,944,626.6074,948,622.6074" style="stroke:#181818;stroke-width:1.0;"/><line style="stroke:#181818;stroke-width:1.0;" x1="171" x2="950" y1="622.6074" y2="622.6074"/><text fill="#000000" font-family="sans-serif" font-size="13" font-weight="bold" lengthAdjust="spacing" textLength="14" x="178" y="617.3447">14</text><text fill="#000000" font-family="sans-serif" font-size="13" lengthAdjust="spacing" textLength="111" x="196" y="617.3447">toPlansView(plans)</text><polygon fill="#181818" points="182,649.8984,172,653.8984,182,657.8984,178,653.8984" style="stroke:#181818;stroke-width:1.0;"/><line style="stroke:#181818;stroke-width:1.0;stroke-dasharray:2.0,2.0;" x1="176" x2="960" y1="653.8984" y2="653.8984"/><text fill="#000000" font-family="sans-serif" font-size="13" font-weight="bold" lengthAdjust="spacing" textLength="14" x="188" y="648.6357">15</text><text fill="#000000" font-family="sans-serif" font-size="13" lengthAdjust="spacing" textLength="59" x="206" y="648.6357">plansView</text><polygon fill="#181818" points="64.5,681.1895,54.5,685.1895,64.5,689.1895,60.5,685.1895" style="stroke:#181818;stroke-width:1.0;"/><line style="stroke:#181818;stroke-width:1.0;stroke-dasharray:2.0,2.0;" x1="58.5" x2="165" y1="685.1895" y2="685.1895"/><text fill="#000000" font-family="sans-serif" font-size="13" font-weight="bold" lengthAdjust="spacing" textLength="14" x="70.5" y="679.9268">16</text><text fill="#000000" font-family="sans-serif" font-size="13" lengthAdjust="spacing" textLength="59" x="88.5" y="679.9268">plansView</text><!--SRC=[ZLF1Rjim3BthAuXSbW3pV3Uw04RM3G6sBcYBNGT5PXEjikH9TBBz_KHPMjt1X-LaKkyzae_CcpFH49gw7eoqDFRcdN9z7V3dY5PXrMbvyh8NSYGd5UcB90HdKsp7_eXUa2Q300-P0Xyc2jJG1f1WyGfg3EHwzB27Qwm2vE3PkYj8Om1_wK3Qde0R26AkB695vs5r5oLsMM85Ca2hn20zQQK7bbirXyZTEKlU6PCnE_9c0HKUq5-qmeJXxoNCFGukw5ZxTu9nk0Jxfl7wHGv3hiZX0koUZGcKbTBtajWajBSNz64cM18Y_be5rJOD1Wrykds4Ul8iPU8BZmFDdj3Bey6R9BkTV8NtyAHjr_8ASRqH8c4ZXsVx7yxtJ2K_uaOaLfLBDXFyirFI26a8TcTKp-3e73VEWg1j81blerHbUWEownBdOCPmvsYTL0ndOdzJXOmy8QN6FdhNVsNPzh1VbowsnTLe2gDyZkBXSIZAQvMdRMOl4t_kSnGXztUxwmpTY5UO5waqdZl-I5fLxZSEnlb7LsoTZVQMqPi2J_PDIqJRPNkgBI-qAN-8l5rku7LlwNtgx1zIkiHuBJTLLSxb9I_-0000]--></g></svg>