<?xml version="1.0" encoding="us-ascii" standalone="no"?><svg xmlns="http://www.w3.org/2000/svg" xmlns:xlink="http://www.w3.org/1999/xlink" contentStyleType="text/css" height="730px" preserveAspectRatio="none" style="width:1242px;height:730px;background:#FFFFFF;" version="1.1" viewBox="0 0 1242 730" width="1242px" zoomAndPan="magnify"><defs/><g><text fill="#000000" font-family="sans-serif" font-size="14" font-weight="bold" lengthAdjust="spacing" textLength="566" x="331" y="23.5352">Class Diagram /  As marketing director, I want to change the pricing of a plan</text><!--class PlansRepository--><g id="elem_PlansRepository"><rect codeLine="33" fill="#F1F1F1" height="89.5977" id="PlansRepository" rx="2.5" ry="2.5" style="stroke:#181818;stroke-width:0.5;" width="371" x="526" y="316.4883"/><text fill="#000000" font-family="sans-serif" font-size="12" font-style="italic" lengthAdjust="spacing" textLength="62" x="680.5" y="333.0898">&#171;interface&#187;</text><text fill="#000000" font-family="sans-serif" font-size="14" font-style="italic" lengthAdjust="spacing" textLength="109" x="657" y="349.1563">PlansRepository</text><line style="stroke:#181818;stroke-width:0.5;" x1="527" x2="896" y1="357.1094" y2="357.1094"/><line style="stroke:#181818;stroke-width:0.5;" x1="527" x2="896" y1="365.1094" y2="365.1094"/><ellipse cx="537" cy="378.8535" fill="#84BE84" rx="3" ry="3" style="stroke:#038048;stroke-width:1.0;"/><text fill="#000000" font-family="sans-serif" font-size="14" lengthAdjust="spacing" textLength="345" x="546" y="382.6445">findByName_Name(String name): Optional&lt;Plans&gt;</text><ellipse cx="537" cy="395.3418" fill="#84BE84" rx="3" ry="3" style="stroke:#038048;stroke-width:1.0;"/><text fill="#000000" font-family="sans-serif" font-size="14" lengthAdjust="spacing" textLength="208" x="546" y="399.1328">&lt;S extends T&gt; S save(S entity)</text></g><!--class Plans--><g id="elem_Plans"><rect codeLine="7" fill="#F1F1F1" height="240.3477" id="Plans" rx="2.5" ry="2.5" style="stroke:#181818;stroke-width:0.5;" width="791" x="444" y="483.4883"/><text fill="#000000" font-family="sans-serif" font-size="14" lengthAdjust="spacing" textLength="36" x="821.5" y="502.0234">Plans</text><line style="stroke:#181818;stroke-width:0.5;" x1="445" x2="1234" y1="509.9766" y2="509.9766"/><rect fill="none" height="6" style="stroke:#C82930;stroke-width:1.0;" width="6" x="452" y="520.7207"/><text fill="#000000" font-family="sans-serif" font-size="14" lengthAdjust="spacing" textLength="38" x="464" y="527.5117">name</text><rect fill="none" height="6" style="stroke:#C82930;stroke-width:1.0;" width="6" x="452" y="537.209"/><text fill="#000000" font-family="sans-serif" font-size="14" lengthAdjust="spacing" textLength="77" x="464" y="544">description</text><rect fill="none" height="6" style="stroke:#C82930;stroke-width:1.0;" width="6" x="452" y="553.6973"/><text fill="#000000" font-family="sans-serif" font-size="14" lengthAdjust="spacing" textLength="124" x="464" y="560.4883">numberOfMinutes</text><rect fill="none" height="6" style="stroke:#C82930;stroke-width:1.0;" width="6" x="452" y="570.1855"/><text fill="#000000" font-family="sans-serif" font-size="14" lengthAdjust="spacing" textLength="178" x="464" y="576.9766">maximumNumberOfUsers</text><rect fill="none" height="6" style="stroke:#C82930;stroke-width:1.0;" width="6" x="452" y="586.6738"/><text fill="#000000" font-family="sans-serif" font-size="14" lengthAdjust="spacing" textLength="109" x="464" y="593.4648">musicCollection</text><rect fill="none" height="6" style="stroke:#C82930;stroke-width:1.0;" width="6" x="452" y="603.1621"/><text fill="#000000" font-family="sans-serif" font-size="14" lengthAdjust="spacing" textLength="117" x="464" y="609.9531">musicSuggestion</text><rect fill="none" height="6" style="stroke:#C82930;stroke-width:1.0;" width="6" x="452" y="619.6504"/><text fill="#000000" font-family="sans-serif" font-size="14" lengthAdjust="spacing" textLength="71" x="464" y="626.4414">annualFee</text><rect fill="none" height="6" style="stroke:#C82930;stroke-width:1.0;" width="6" x="452" y="636.1387"/><text fill="#000000" font-family="sans-serif" font-size="14" lengthAdjust="spacing" textLength="80" x="464" y="642.9297">monthlyFee</text><rect fill="none" height="6" style="stroke:#C82930;stroke-width:1.0;" width="6" x="452" y="652.627"/><text fill="#000000" font-family="sans-serif" font-size="14" lengthAdjust="spacing" textLength="39" x="464" y="659.418">active</text><rect fill="none" height="6" style="stroke:#C82930;stroke-width:1.0;" width="6" x="452" y="669.1152"/><text fill="#000000" font-family="sans-serif" font-size="14" lengthAdjust="spacing" textLength="68" x="464" y="675.9063">promoted</text><rect fill="none" height="6" style="stroke:#C82930;stroke-width:1.0;" width="6" x="452" y="685.6035"/><text fill="#000000" font-family="sans-serif" font-size="14" lengthAdjust="spacing" textLength="78" x="464" y="692.3945">feeRevision</text><line style="stroke:#181818;stroke-width:0.5;" x1="445" x2="1234" y1="699.3477" y2="699.3477"/><ellipse cx="455" cy="713.0918" fill="#84BE84" rx="3" ry="3" style="stroke:#038048;stroke-width:1.0;"/><text fill="#000000" font-family="sans-serif" font-size="14" lengthAdjust="spacing" textLength="765" x="464" y="716.8828">moneyData(long desiredVersion, long desiredVersion, Double annualFee, Double monthlyFee, String username)</text></g><!--class PlansViewMapper--><g id="elem_PlansViewMapper"><rect codeLine="21" fill="#F1F1F1" height="58.9766" id="PlansViewMapper" rx="2.5" ry="2.5" style="stroke:#181818;stroke-width:0.5;" width="267" x="272" y="180.4883"/><text fill="#000000" font-family="sans-serif" font-size="14" lengthAdjust="spacing" textLength="120" x="345.5" y="199.0234">PlansViewMapper</text><line style="stroke:#181818;stroke-width:0.5;" x1="273" x2="538" y1="206.9766" y2="206.9766"/><line style="stroke:#181818;stroke-width:0.5;" x1="273" x2="538" y1="214.9766" y2="214.9766"/><ellipse cx="283" cy="228.7207" fill="#84BE84" rx="3" ry="3" style="stroke:#038048;stroke-width:1.0;"/><text fill="#000000" font-family="sans-serif" font-size="14" lengthAdjust="spacing" textLength="241" x="292" y="232.5117">toPlansView(Plans plans):PlansView</text></g><!--class PlansController--><g id="elem_PlansController"><rect codeLine="24" fill="#F1F1F1" height="58.9766" id="PlansController" rx="2.5" ry="2.5" style="stroke:#181818;stroke-width:0.5;" width="881" x="7" y="44.4883"/><text fill="#000000" font-family="sans-serif" font-size="14" lengthAdjust="spacing" textLength="106" x="394.5" y="63.0234">PlansController</text><line style="stroke:#181818;stroke-width:0.5;" x1="8" x2="887" y1="70.9766" y2="70.9766"/><line style="stroke:#181818;stroke-width:0.5;" x1="8" x2="887" y1="78.9766" y2="78.9766"/><ellipse cx="18" cy="92.7207" fill="#84BE84" rx="3" ry="3" style="stroke:#038048;stroke-width:1.0;"/><text fill="#000000" font-family="sans-serif" font-size="14" lengthAdjust="spacing" textLength="855" x="27" y="96.5117">moneyUpdate(final WebRequest request,final String name,final EditPlanMoneyRequest resource):ResponseEntity&lt;PlansView&gt;</text></g><!--class PlansService--><g id="elem_PlansService"><rect codeLine="27" fill="#F1F1F1" height="58.9766" id="PlansService" rx="2.5" ry="2.5" style="stroke:#181818;stroke-width:0.5;" width="627" x="574" y="180.4883"/><text fill="#000000" font-family="sans-serif" font-size="14" lengthAdjust="spacing" textLength="84" x="845.5" y="199.0234">PlansService</text><line style="stroke:#181818;stroke-width:0.5;" x1="575" x2="1200" y1="206.9766" y2="206.9766"/><line style="stroke:#181818;stroke-width:0.5;" x1="575" x2="1200" y1="214.9766" y2="214.9766"/><ellipse cx="585" cy="228.7207" fill="#84BE84" rx="3" ry="3" style="stroke:#038048;stroke-width:1.0;"/><text fill="#000000" font-family="sans-serif" font-size="14" lengthAdjust="spacing" textLength="601" x="594" y="232.5117">moneyUpdate(String name, EditPlanMoneyRequest resource, long desiredVersion):Plans</text></g><!--link PlansController to PlansService--><g id="link_PlansController_PlansService"><path codeLine="41" d="M542.7,103.9783 C614.74,125.9183 713.45,155.9783 786.8,178.3183 " fill="none" id="PlansController-to-PlansService" style="stroke:#181818;stroke-width:1.0;stroke-dasharray:7.0,7.0;"/><polygon fill="#181818" points="791.48,180.0483,784.0353,173.6002,786.6968,178.5919,781.7051,181.2534,791.48,180.0483" style="stroke:#181818;stroke-width:1.0;"/><polygon fill="#000000" points="703.2831,143.6002,695.4866,138.1536,693.7742,143.7765,703.2831,143.6002" style="stroke:#000000;stroke-width:1.0;"/><text fill="#000000" font-family="sans-serif" font-size="13" lengthAdjust="spacing" textLength="29" x="707.5" y="147.0566">uses</text></g><!--link PlansService to PlansRepository--><g id="link_PlansService_PlansRepository"><path codeLine="42" d="M853.57,239.8183 C829.39,260.3483 796.32,288.4383 768.17,312.3483 " fill="none" id="PlansService-to-PlansRepository" style="stroke:#181818;stroke-width:1.0;stroke-dasharray:7.0,7.0;"/><polygon fill="#181818" points="764.7,316.1483,774.1477,313.3662,768.5093,312.9096,768.9659,307.2712,764.7,316.1483" style="stroke:#181818;stroke-width:1.0;"/><polygon fill="#000000" points="815.689,281.3802,824.4857,277.7651,820.6807,273.285,815.689,281.3802" style="stroke:#000000;stroke-width:1.0;"/><text fill="#000000" font-family="sans-serif" font-size="13" lengthAdjust="spacing" textLength="29" x="828.5" y="283.0566">uses</text></g><!--link PlansRepository to Plans--><g id="link_PlansRepository_Plans"><path codeLine="43" d="M735.13,406.7883 C746,427.1683 759.49,452.4683 773.13,478.0483 " fill="none" id="PlansRepository-to-Plans" style="stroke:#181818;stroke-width:1.0;stroke-dasharray:7.0,7.0;"/><polygon fill="#181818" points="775.86,482.1583,775.1739,472.3333,773.516,477.7418,768.1075,476.0838,775.86,482.1583" style="stroke:#181818;stroke-width:1.0;"/><polygon fill="#000000" points="759.1473,440.7317,760.8101,450.0957,765.9966,447.33,759.1473,440.7317" style="stroke:#000000;stroke-width:1.0;"/><text fill="#000000" font-family="sans-serif" font-size="13" lengthAdjust="spacing" textLength="40" x="770.5" y="450.0566">record</text></g><!--link PlansService to Plans--><g id="link_PlansService_Plans"><path codeLine="44" d="M896.93,239.7183 C903.32,260.7183 911.17,290.0383 914.5,316.4883 C919.5,356.1783 921.77,367.1583 914.5,406.4883 C910.15,430.0383 903.09,454.4183 894.99,477.6483 " fill="none" id="PlansService-to-Plans" style="stroke:#181818;stroke-width:1.0;stroke-dasharray:7.0,7.0;"/><polygon fill="#181818" points="893.03,482.2083,899.8075,475.0623,894.7008,477.4957,892.2674,472.389,893.03,482.2083" style="stroke:#181818;stroke-width:1.0;"/><polygon fill="#000000" points="923.4592,366.6434,926.4718,357.6226,920.5942,357.5746,923.4592,366.6434" style="stroke:#000000;stroke-width:1.0;"/><text fill="#000000" font-family="sans-serif" font-size="13" lengthAdjust="spacing" textLength="29" x="932.5" y="366.5566">uses</text></g><!--link PlansController to PlansViewMapper--><g id="link_PlansController_PlansViewMapper"><path codeLine="45" d="M438.49,103.7383 C431.96,124.5783 423.1,152.8483 416.2,174.8383 " fill="none" id="PlansController-to-PlansViewMapper" style="stroke:#181818;stroke-width:1.0;stroke-dasharray:7.0,7.0;"/><polygon fill="#181818" points="414.5,179.2883,420.9948,171.8844,415.9865,174.5144,413.3565,169.506,414.5,179.2883" style="stroke:#181818;stroke-width:1.0;"/><polygon fill="#000000" points="433.0043,146.9146,438.5144,139.1629,432.9057,137.4045,433.0043,146.9146" style="stroke:#000000;stroke-width:1.0;"/><text fill="#000000" font-family="sans-serif" font-size="13" lengthAdjust="spacing" textLength="29" x="443.5" y="147.0566">uses</text></g><!--SRC=[VLDDRnen5BpxLxnRGH2uhz1ABQHI3oGLDEcnClO3h7hjhJz8KDJ_tkVzteXq3ylkU3mpR_1-EeTG-covB3Kt8HPw8Mon59fxVoSLFpbUiBEI248veP5LA_2To7w7fVKgM7U5rKgPWEx81UOvOq45ZR2kg9jQ19O0dpqKtFt6eCm9f78eQFCSli4BMKEm8CxSd1326Q5qIYIQFGA7b8qDhTyOq7LdU87r4qZqmgaoA6iQnCJYWExnk5Kc1lGrMl1NLSJYeLbxykZQbUYLM5kjALKhqg3xU3gX7w3ScCZrLyIMPKquwsiFSDAuj2-biuKDA9lN8-8EByftSZFQZjSD3toYRMe6FNKZdoaQSUPm4zpOUA2EkoGTqcUPmpwur66aALDLK_PtMEApmfSjBqjqTPspO3jyKZrLnVjfri5ZWJLPkTHOAr0DybHA7d1oL8Ph-8c77Vw9r1wu-dTUBpJHKgm6kPSg9Dbj4katUHkTm6csGrzQu_7UqEcwhhf8UMKzohL7Tr42ATGeqT3o_sutEszge0hewexx-q-1lR4PpIE_N1_8vrUw3Osd6JnMXvJhUeISpLPxmDU0HdhuaSCUFB_G7i1gq2ch3D_r3Oj5FferIt-oXvmDmPxLvniJ1vzmnyrWHKK8w-G7OcE9Mw7wazLo_m40]--></g></svg>