<?xml version="1.0" encoding="us-ascii" standalone="no"?><svg xmlns="http://www.w3.org/2000/svg" xmlns:xlink="http://www.w3.org/1999/xlink" contentStyleType="text/css" height="2339px" preserveAspectRatio="none" style="width:1670px;height:2339px;background:#FFFFFF;" version="1.1" viewBox="0 0 1670 2339" width="1670px" zoomAndPan="magnify"><defs/><g><!--cluster Setup--><g id="cluster_Setup"><rect fill="none" height="180" rx="2.5" ry="2.5" style="stroke:#181818;stroke-width:1.0;" width="261" x="498" y="1946"/><text fill="#000000" font-family="sans-serif" font-size="14" font-weight="bold" lengthAdjust="spacing" textLength="41" x="608" y="1963.1074">Setup</text></g><!--cluster Plans--><g id="cluster_Plans"><rect fill="none" height="656" rx="2.5" ry="2.5" style="stroke:#181818;stroke-width:1.0;" width="765.5" x="487.5" y="1266"/><text fill="#000000" font-family="sans-serif" font-size="14" font-weight="bold" lengthAdjust="spacing" textLength="38" x="851.25" y="1283.1074">Plans</text></g><!--cluster Subscriptions--><g id="cluster_Subscriptions"><rect fill="none" height="207" rx="2.5" ry="2.5" style="stroke:#181818;stroke-width:1.0;" width="1136.5" x="527.5" y="487"/><text fill="#000000" font-family="sans-serif" font-size="14" font-weight="bold" lengthAdjust="spacing" textLength="97" x="1047.25" y="504.1074">Subscriptions</text></g><!--cluster Dashboard--><g id="cluster_Dashboard"><rect fill="none" height="456" rx="2.5" ry="2.5" style="stroke:#181818;stroke-width:1.0;" width="641" x="308" y="7"/><text fill="#000000" font-family="sans-serif" font-size="14" font-weight="bold" lengthAdjust="spacing" textLength="76" x="590.5" y="24.1074">Dashboard</text></g><!--cluster Devices--><g id="cluster_Devices"><rect fill="none" height="303" rx="2.5" ry="2.5" style="stroke:#181818;stroke-width:1.0;" width="213" x="1037.5" y="718"/><text fill="#000000" font-family="sans-serif" font-size="14" font-weight="bold" lengthAdjust="spacing" textLength="57" x="1115.5" y="735.1074">Devices</text></g><!--cluster Bonus use cases--><g id="cluster_Bonus use cases"><rect fill="none" height="197" rx="2.5" ry="2.5" style="stroke:#181818;stroke-width:1.0;" width="334" x="977" y="1045"/><text fill="#000000" font-family="sans-serif" font-size="14" font-weight="bold" lengthAdjust="spacing" textLength="120" x="1084" y="1062.1074">Bonus use cases</text></g><!--cluster Non-functional requirements--><g id="cluster_Non-functional requirements"><rect fill="none" height="183" rx="2.5" ry="2.5" style="stroke:#181818;stroke-width:1.0;" width="715" x="7" y="2150"/><text fill="#000000" font-family="sans-serif" font-size="14" font-weight="bold" lengthAdjust="spacing" textLength="202" x="263.5" y="2167.1074">Non-functional requirements</text></g><g id="elem_Bootstrap user credential data"><ellipse cx="628.6665" cy="2008.8333" fill="#F1F1F1" rx="114.6665" ry="25.3333" style="stroke:#181818;stroke-width:0.5;"/><text fill="#000000" font-family="sans-serif" font-size="14" lengthAdjust="spacing" textLength="191" x="533.1665" y="2012.6302">Bootstrap user credential data</text></g><g id="elem_Bootstrap plans data"><ellipse cx="628.2523" cy="2090.1505" fill="#F1F1F1" rx="88.7523" ry="20.1505" style="stroke:#181818;stroke-width:0.5;"/><text fill="#000000" font-family="sans-serif" font-size="14" lengthAdjust="spacing" textLength="131" x="559.7523" y="2094.9542">Bootstrap plans data</text></g><g id="elem_Define new Plan"><ellipse cx="628.6807" cy="1320.9361" fill="#F1F1F1" rx="77.6807" ry="17.9361" style="stroke:#181818;stroke-width:0.5;"/><text fill="#000000" font-family="sans-serif" font-size="14" lengthAdjust="spacing" textLength="102" x="574.6807" y="1325.7399">Define new Plan</text></g><g id="elem_Deactivate a plan"><ellipse cx="628.6222" cy="1393.0244" fill="#F1F1F1" rx="80.6222" ry="18.5244" style="stroke:#181818;stroke-width:0.5;"/><text fill="#000000" font-family="sans-serif" font-size="14" lengthAdjust="spacing" textLength="110" x="570.6222" y="1397.8282">Deactivate a plan</text></g><g id="elem_Change plan's details"><ellipse cx="628.2622" cy="1467.0524" fill="#F1F1F1" rx="90.7622" ry="20.5524" style="stroke:#181818;stroke-width:0.5;"/><text fill="#000000" font-family="sans-serif" font-size="14" lengthAdjust="spacing" textLength="136" x="557.2622" y="1471.8562">Change plan's details</text></g><g id="elem_Change plan's price"><ellipse cx="628.2688" cy="1542.7538" fill="#F1F1F1" rx="86.7688" ry="19.7538" style="stroke:#181818;stroke-width:0.5;"/><text fill="#000000" font-family="sans-serif" font-size="14" lengthAdjust="spacing" textLength="126" x="562.2688" y="1547.5575">Change plan's price</text></g><g id="elem_Get price change history of a plan"><ellipse cx="628.7136" cy="1625.9427" fill="#F1F1F1" rx="125.2136" ry="27.4427" style="stroke:#181818;stroke-width:0.5;"/><text fill="#000000" font-family="sans-serif" font-size="14" lengthAdjust="spacing" textLength="214" x="521.7136" y="1629.7396">Get price change history of a plan</text></g><g id="elem_Promote a plan"><ellipse cx="628.5411" cy="1706.0082" fill="#F1F1F1" rx="75.5411" ry="17.5082" style="stroke:#181818;stroke-width:0.5;"/><text fill="#000000" font-family="sans-serif" font-size="14" lengthAdjust="spacing" textLength="96" x="577.5411" y="1710.8119">Promote a plan</text></g><g id="elem_cease a plan"><ellipse cx="628.4347" cy="1775.0022" fill="#F1F1F1" rx="70.4347" ry="16.5022" style="stroke:#181818;stroke-width:0.5;"/><text fill="#000000" font-family="sans-serif" font-size="14" lengthAdjust="spacing" textLength="81" x="584.9347" y="1779.8059">cease a plan</text></g><!--entity newCustomer--><g id="elem_newCustomer"><ellipse cx="628.5" cy="1835" fill="#F1F1F1" rx="8" ry="8" style="stroke:#181818;stroke-width:0.5;"/><path d="M628.5,1843 L628.5,1870 M615.5,1851 L641.5,1851 M628.5,1870 L615.5,1885 M628.5,1870 L641.5,1885 " fill="none" style="stroke:#181818;stroke-width:0.5;"/><text fill="#000000" font-family="sans-serif" font-size="14" lengthAdjust="spacing" textLength="86" x="585.5" y="1901.6074">newCustomer</text></g><g id="elem_Know all existing plans"><ellipse cx="1143.7968" cy="1865.9594" fill="#F1F1F1" rx="92.7968" ry="20.9594" style="stroke:#181818;stroke-width:0.5;"/><text fill="#000000" font-family="sans-serif" font-size="14" lengthAdjust="spacing" textLength="141" x="1070.2968" y="1870.7631">Know all existing plans</text></g><g id="elem_Subscribe to a plan"><ellipse cx="628.7022" cy="543.9404" fill="#F1F1F1" rx="85.2022" ry="19.4404" style="stroke:#181818;stroke-width:0.5;"/><text fill="#000000" font-family="sans-serif" font-size="14" lengthAdjust="spacing" textLength="122" x="564.7022" y="548.7442">Subscribe to a plan</text></g><!--entity Subscriber--><g id="elem_Subscriber"><ellipse cx="628.5" cy="607" fill="#F1F1F1" rx="8" ry="8" style="stroke:#181818;stroke-width:0.5;"/><path d="M628.5,615 L628.5,642 M615.5,623 L641.5,623 M628.5,642 L615.5,657 M628.5,642 L641.5,657 " fill="none" style="stroke:#181818;stroke-width:0.5;"/><text fill="#000000" font-family="sans-serif" font-size="14" lengthAdjust="spacing" textLength="68" x="594.5" y="673.6074">Subscriber</text></g><g id="elem_Cancel subscription"><ellipse cx="1143.9832" cy="649.0966" fill="#F1F1F1" rx="85.9832" ry="19.5966" style="stroke:#181818;stroke-width:0.5;"/><text fill="#000000" font-family="sans-serif" font-size="14" lengthAdjust="spacing" textLength="124" x="1078.9832" y="653.9003">Cancel subscription</text></g><g id="elem_Know plan details"><ellipse cx="1144.1222" cy="576.0244" fill="#F1F1F1" rx="80.6222" ry="18.5244" style="stroke:#181818;stroke-width:0.5;"/><text fill="#000000" font-family="sans-serif" font-size="14" lengthAdjust="spacing" textLength="110" x="1086.1222" y="580.8282">Know plan details</text></g><g id="elem_Funny Quote of the Day"><ellipse cx="1501.3725" cy="650.8745" fill="#F1F1F1" rx="97.3725" ry="21.8745" style="stroke:#181818;stroke-width:0.5;"/><text fill="#000000" font-family="sans-serif" font-size="14" lengthAdjust="spacing" textLength="152" x="1423.4599" y="655.3452">Funny Quote of the Day</text></g><g id="elem_Weather Forecast based on the Location"><ellipse cx="1501.2739" cy="562.1548" fill="#F1F1F1" rx="146.2739" ry="31.6548" style="stroke:#181818;stroke-width:0.5;"/><text fill="#000000" font-family="sans-serif" font-size="14" lengthAdjust="spacing" textLength="259" x="1371.7739" y="565.9517">Weather Forecast based on the Location</text></g><g id="elem_Know new subscribers and cancellations in a specific month"><ellipse cx="628.5211" cy="86.8042" fill="#F1F1F1" rx="202.0211" ry="42.8042" style="stroke:#181818;stroke-width:0.5;"/><text fill="#000000" font-family="sans-serif" font-size="14" lengthAdjust="spacing" textLength="375" x="441.0211" y="90.6011">Know new subscribers and cancellations in a specific month</text></g><g id="elem_  Wants to know the future cashflows for the upcoming n months filtered/broken down by plan"><ellipse cx="628.6143" cy="228.8229" fill="#F1F1F1" rx="304.6143" ry="63.3229" style="stroke:#181818;stroke-width:0.5;"/><text fill="#000000" font-family="sans-serif" font-size="14" lengthAdjust="spacing" textLength="576" x="344.6143" y="232.6197">Wants to know the future cashflows for the upcoming n months filtered/broken down by plan</text></g><g id="elem_ Wants to know the year-to-date revenue of my  company filtered/broken down by plan"><ellipse cx="628.3777" cy="386.7755" fill="#F1F1F1" rx="284.3777" ry="59.2755" style="stroke:#181818;stroke-width:0.5;"/><text fill="#000000" font-family="sans-serif" font-size="14" lengthAdjust="spacing" textLength="539" x="360.8777" y="390.5724">Wants to know the year-to-date revenue of my  company filtered/broken down by plan</text></g><g id="elem_Add new device"><ellipse cx="1144.1034" cy="773.2207" fill="#F1F1F1" rx="76.6034" ry="17.7207" style="stroke:#181818;stroke-width:0.5;"/><text fill="#000000" font-family="sans-serif" font-size="14" lengthAdjust="spacing" textLength="99" x="1091.6034" y="778.0244">Add new device</text></g><g id="elem_Remove device"><ellipse cx="1143.8935" cy="843.0787" fill="#F1F1F1" rx="75.8935" ry="17.5787" style="stroke:#181818;stroke-width:0.5;"/><text fill="#000000" font-family="sans-serif" font-size="14" lengthAdjust="spacing" textLength="97" x="1092.3935" y="847.8824">Remove device</text></g><g id="elem_Update device details"><ellipse cx="1143.8582" cy="915.9716" fill="#F1F1F1" rx="90.3582" ry="20.4716" style="stroke:#181818;stroke-width:0.5;"/><text fill="#000000" font-family="sans-serif" font-size="14" lengthAdjust="spacing" textLength="135" x="1073.3582" y="920.7754">Update device details</text></g><g id="elem_List devices"><ellipse cx="1144.2135" cy="987.9707" fill="#F1F1F1" rx="65.2135" ry="16.4707" style="stroke:#181818;stroke-width:0.5;"/><text fill="#000000" font-family="sans-serif" font-size="14" lengthAdjust="spacing" textLength="74" x="1104.2135" y="992.7745">List devices</text></g><g id="elem_Upload image to profile"><ellipse cx="1143.9412" cy="1103.7882" fill="#F1F1F1" rx="94.4412" ry="21.2882" style="stroke:#181818;stroke-width:0.5;"/><text fill="#000000" font-family="sans-serif" font-size="14" lengthAdjust="spacing" textLength="145" x="1068.5517" y="1108.5596">Upload image to profile</text></g><g id="elem_Upload image when creating/editing device"><ellipse cx="1144.0115" cy="1193.1023" fill="#F1F1F1" rx="151.0115" ry="32.6023" style="stroke:#181818;stroke-width:0.5;"/><text fill="#000000" font-family="sans-serif" font-size="14" lengthAdjust="spacing" textLength="269" x="1009.5115" y="1196.8992">Upload image when creating/editing device</text></g><g id="elem_OpenAPI specification"><ellipse cx="143.5732" cy="2296.2146" fill="#F1F1F1" rx="91.5732" ry="20.7146" style="stroke:#181818;stroke-width:0.5;"/><text fill="#000000" font-family="sans-serif" font-size="14" lengthAdjust="spacing" textLength="138" x="71.5732" y="2301.0183">OpenAPI specification</text></g><g id="elem_Sample requests and responses"><ellipse cx="143.6059" cy="2214.0212" fill="#F1F1F1" rx="120.6059" ry="26.5212" style="stroke:#181818;stroke-width:0.5;"/><text fill="#000000" font-family="sans-serif" font-size="14" lengthAdjust="spacing" textLength="204" x="41.6059" y="2217.8181">Sample requests and responses</text></g><g id="elem_Automated tests"><ellipse cx="628.6807" cy="2295.9361" fill="#F1F1F1" rx="77.6807" ry="17.9361" style="stroke:#181818;stroke-width:0.5;"/><text fill="#000000" font-family="sans-serif" font-size="14" lengthAdjust="spacing" textLength="102" x="574.6807" y="2300.7399">Automated tests</text></g><!--entity Admin--><g id="elem_Admin"><ellipse cx="143.5" cy="2019" fill="#F1F1F1" rx="8" ry="8" style="stroke:#181818;stroke-width:0.5;"/><path d="M143.5,2027 L143.5,2054 M130.5,2035 L156.5,2035 M143.5,2054 L130.5,2069 M143.5,2054 L156.5,2069 " fill="none" style="stroke:#181818;stroke-width:0.5;"/><text fill="#000000" font-family="sans-serif" font-size="14" lengthAdjust="spacing" textLength="39" x="124" y="2085.6074">Admin</text></g><!--entity MarketingDirector--><g id="elem_MarketingDirector"><ellipse cx="143.5" cy="1512" fill="#F1F1F1" rx="8" ry="8" style="stroke:#181818;stroke-width:0.5;"/><path d="M143.5,1520 L143.5,1547 M130.5,1528 L156.5,1528 M143.5,1547 L130.5,1562 M143.5,1547 L156.5,1562 " fill="none" style="stroke:#181818;stroke-width:0.5;"/><text fill="#000000" font-family="sans-serif" font-size="14" lengthAdjust="spacing" textLength="112" x="87.5" y="1578.6074">MarketingDirector</text></g><!--entity NewCustomer--><g id="elem_NewCustomer"><ellipse cx="143.5" cy="513" fill="#F1F1F1" rx="8" ry="8" style="stroke:#181818;stroke-width:0.5;"/><path d="M143.5,521 L143.5,548 M130.5,529 L156.5,529 M143.5,548 L130.5,563 M143.5,548 L156.5,563 " fill="none" style="stroke:#181818;stroke-width:0.5;"/><text fill="#000000" font-family="sans-serif" font-size="14" lengthAdjust="spacing" textLength="87" x="100" y="579.6074">NewCustomer</text></g><!--entity ProductManager--><g id="elem_ProductManager"><ellipse cx="143.5" cy="56" fill="#F1F1F1" rx="8" ry="8" style="stroke:#181818;stroke-width:0.5;"/><path d="M143.5,64 L143.5,91 M130.5,72 L156.5,72 M143.5,91 L130.5,106 M143.5,91 L156.5,106 " fill="none" style="stroke:#181818;stroke-width:0.5;"/><text fill="#000000" font-family="sans-serif" font-size="14" lengthAdjust="spacing" textLength="105" x="91" y="122.6074">ProductManager</text></g><!--entity ProductManager/FinanceDirector--><g id="elem_ProductManager/FinanceDirector"><ellipse cx="143.5" cy="277" fill="#F1F1F1" rx="8" ry="8" style="stroke:#181818;stroke-width:0.5;"/><path d="M143.5,285 L143.5,312 M130.5,293 L156.5,293 M143.5,312 L130.5,327 M143.5,312 L156.5,327 " fill="none" style="stroke:#181818;stroke-width:0.5;"/><text fill="#000000" font-family="sans-serif" font-size="14" lengthAdjust="spacing" textLength="210" x="38.5" y="343.6074">ProductManager/FinanceDirector</text></g><!--link Admin to Bootstrap user credential data--><g id="link_Admin_Bootstrap user credential data"><path d="M163.14,2048.42 C220.54,2043.55 397.87,2028.49 516.03,2018.46 " fill="none" id="Admin-to-Bootstrap user credential data" style="stroke:#181818;stroke-width:1.0;"/><polygon fill="#181818" points="521.26,2018.02,511.9497,2014.8078,516.2785,2018.4494,512.6368,2022.7782,521.26,2018.02" style="stroke:#181818;stroke-width:1.0;"/></g><!--link Admin to Bootstrap plans data--><g id="link_Admin_Bootstrap plans data"><path d="M163.14,2051.54 C224.47,2056.62 422.71,2073.04 539.41,2082.7 " fill="none" id="Admin-to-Bootstrap plans data" style="stroke:#181818;stroke-width:1.0;"/><polygon fill="#181818" points="544.56,2083.13,535.9221,2078.3985,539.5772,2082.716,535.2597,2086.371,544.56,2083.13" style="stroke:#181818;stroke-width:1.0;"/></g><!--link MarketingDirector to Define new Plan--><g id="link_MarketingDirector_Define new Plan"><path d="M165.35,1503.23 C190.75,1459.24 238.05,1390.2 300,1357 C378.13,1315.13 481.67,1310.76 551.23,1313.83 " fill="none" id="MarketingDirector-to-Define new Plan" style="stroke:#181818;stroke-width:1.0;"/><polygon fill="#181818" points="556.6,1314.08,547.8047,1309.6481,551.6059,1313.8374,547.4165,1317.6387,556.6,1314.08" style="stroke:#181818;stroke-width:1.0;"/></g><!--link MarketingDirector to Deactivate a plan--><g id="link_MarketingDirector_Deactivate a plan"><path d="M185.72,1503.34 C215.13,1477.57 256.95,1445.75 300,1429 C378.71,1398.38 475.57,1391.1 543.46,1390.43 " fill="none" id="MarketingDirector-to-Deactivate a plan" style="stroke:#181818;stroke-width:1.0;"/><polygon fill="#181818" points="548.71,1390.39,539.6873,1386.4415,543.7101,1390.4186,539.733,1394.4414,548.71,1390.39" style="stroke:#181818;stroke-width:1.0;"/></g><!--link MarketingDirector to Change plan's details--><g id="link_MarketingDirector_Change plan's details"><path d="M199.56,1527.78 C229.14,1520.05 266.35,1511.04 300,1505 C379.75,1490.69 471.45,1480.58 537.49,1474.41 " fill="none" id="MarketingDirector-to-Change plan's details" style="stroke:#181818;stroke-width:1.0;"/><polygon fill="#181818" points="542.6,1473.94,533.2715,1470.7809,537.621,1474.3978,534.0041,1478.7473,542.6,1473.94" style="stroke:#181818;stroke-width:1.0;"/></g><!--link MarketingDirector to Change plan's price--><g id="link_MarketingDirector_Change plan's price"><path d="M199.91,1543 C282.07,1543 437.14,1543 536.23,1543 " fill="none" id="MarketingDirector-to-Change plan's price" style="stroke:#181818;stroke-width:1.0;"/><polygon fill="#181818" points="541.49,1543,532.49,1539,536.49,1543,532.49,1547,541.49,1543" style="stroke:#181818;stroke-width:1.0;"/></g><!--link MarketingDirector to Get price change history of a plan--><g id="link_MarketingDirector_Get price change history of a plan"><path d="M199.64,1557.46 C229.25,1564.88 266.46,1573.67 300,1580 C370.1,1593.23 449.31,1604.46 512.27,1612.51 " fill="none" id="MarketingDirector-to-Get price change history of a plan" style="stroke:#181818;stroke-width:1.0;"/><polygon fill="#181818" points="517.54,1613.18,509.1147,1608.0796,512.5797,1612.551,508.1083,1616.0161,517.54,1613.18" style="stroke:#181818;stroke-width:1.0;"/></g><!--link MarketingDirector to Promote a plan--><g id="link_MarketingDirector_Promote a plan"><path d="M179.89,1582.64 C208.97,1612.38 252.93,1651.23 300,1671 C380.41,1704.77 481.26,1710.72 549.65,1710.02 " fill="none" id="MarketingDirector-to-Promote a plan" style="stroke:#181818;stroke-width:1.0;"/><polygon fill="#181818" points="554.93,1709.95,545.8849,1706.0531,549.9303,1710.0071,545.9763,1714.0526,554.93,1709.95" style="stroke:#181818;stroke-width:1.0;"/></g><!--link MarketingDirector to cease a plan--><g id="link_MarketingDirector_cease a plan"><path d="M163.33,1582.87 C187.72,1629.57 234.94,1705.1 300,1741 C380.97,1785.68 490.4,1787.47 559.98,1782.73 " fill="none" id="MarketingDirector-to-cease a plan" style="stroke:#181818;stroke-width:1.0;"/><polygon fill="#181818" points="565.33,1782.35,556.0672,1779.0033,560.3428,1782.7073,556.6388,1786.9828,565.33,1782.35" style="stroke:#181818;stroke-width:1.0;"/></g><!--link newCustomer to Know all existing plans--><g id="link_newCustomer_Know all existing plans"><path d="M671.52,1866 C752.63,1866 932.69,1866 1045.33,1866 " fill="none" id="newCustomer-to-Know all existing plans" style="stroke:#181818;stroke-width:1.0;"/><polygon fill="#181818" points="1050.64,1866,1041.64,1862,1045.64,1866,1041.64,1870,1050.64,1866" style="stroke:#181818;stroke-width:1.0;"/></g><!--link NewCustomer to Subscribe to a plan--><g id="link_NewCustomer_Subscribe to a plan"><path d="M187.36,544 C265.81,544 433.96,544 538.22,544 " fill="none" id="NewCustomer-to-Subscribe to a plan" style="stroke:#181818;stroke-width:1.0;"/><polygon fill="#181818" points="543.44,544,534.44,540,538.44,544,534.44,548,543.44,544" style="stroke:#181818;stroke-width:1.0;"/></g><!--link Subscriber to Cancel subscription--><g id="link_Subscriber_Cancel subscription"><path d="M662.8,638.71 C740.65,640.38 936.75,644.58 1052.85,647.07 " fill="none" id="Subscriber-to-Cancel subscription" style="stroke:#181818;stroke-width:1.0;"/><polygon fill="#181818" points="1057.98,647.18,1049.0618,643.0008,1052.981,647.08,1048.9018,650.9992,1057.98,647.18" style="stroke:#181818;stroke-width:1.0;"/></g><!--link Subscriber to Know plan details--><g id="link_Subscriber_Know plan details"><path d="M662.8,633.98 C743.93,624.18 953.51,598.88 1067.11,585.16 " fill="none" id="Subscriber-to-Know plan details" style="stroke:#181818;stroke-width:1.0;"/><polygon fill="#181818" points="1072.11,584.56,1062.6956,581.6672,1067.146,585.1591,1063.6541,589.6096,1072.11,584.56" style="stroke:#181818;stroke-width:1.0;"/></g><!--link Know plan details to Funny Quote of the Day--><g id="link_Know plan details_Funny Quote of the Day"><path d="M1204.62,588.22 C1238.22,595.13 1280.97,603.98 1319,612 C1353.87,619.35 1392.49,627.63 1425.1,634.66 " fill="none" id="Know plan details-to-Funny Quote of the Day" style="stroke:#181818;stroke-width:1.0;"/><polygon fill="#181818" points="1430.28,635.78,1422.3295,629.9671,1425.3931,634.7226,1420.6376,637.7862,1430.28,635.78" style="stroke:#181818;stroke-width:1.0;"/></g><!--link Know plan details to Weather Forecast based on the Location--><g id="link_Know plan details_Weather Forecast based on the Location"><path d="M1223.46,572.91 C1261.26,571.42 1307.88,569.59 1352.03,567.85 " fill="none" id="Know plan details-to-Weather Forecast based on the Location" style="stroke:#181818;stroke-width:1.0;"/><polygon fill="#181818" points="1357.12,567.65,1347.9777,563.9868,1352.1234,567.8356,1348.2747,571.9813,1357.12,567.65" style="stroke:#181818;stroke-width:1.0;"/></g><!--link ProductManager to Know new subscribers and cancellations in a specific month--><g id="link_ProductManager_Know new subscribers and cancellations in a specific month"><path d="M196.19,87 C250.19,87 338.38,87 421,87 " fill="none" id="ProductManager-to-Know new subscribers and cancellations in a specific month" style="stroke:#181818;stroke-width:1.0;"/><polygon fill="#181818" points="426.43,87,417.43,83,421.43,87,417.43,91,426.43,87" style="stroke:#181818;stroke-width:1.0;"/></g><!--link ProductManager/FinanceDirector to   Wants to know the future cashflows for the upcoming n months filtered/broken down by plan--><g id="link_ProductManager/FinanceDirector_  Wants to know the future cashflows for the upcoming n months filtered/broken down by plan"><path d="M248.71,290.96 C288.44,284.46 335.6,276.74 382.92,269 " fill="none" id="ProductManager/FinanceDirector-to-  Wants to know the future cashflows for the upcoming n months filtered/broken down by plan" style="stroke:#181818;stroke-width:1.0;"/><polygon fill="#181818" points="388.09,268.16,378.5654,265.6537,383.1546,268.9611,379.8472,273.5503,388.09,268.16" style="stroke:#181818;stroke-width:1.0;"/></g><!--link ProductManager/FinanceDirector to  Wants to know the year-to-date revenue of my  company filtered/broken down by plan--><g id="link_ProductManager/FinanceDirector_ Wants to know the year-to-date revenue of my  company filtered/broken down by plan"><path d="M248.71,325.04 C292.9,332.27 346.28,341 398.85,349.6 " fill="none" id="ProductManager/FinanceDirector-to- Wants to know the year-to-date revenue of my  company filtered/broken down by plan" style="stroke:#181818;stroke-width:1.0;"/><polygon fill="#181818" points="403.93,350.43,395.7024,345.0164,398.9969,349.615,394.3983,352.9094,403.93,350.43" style="stroke:#181818;stroke-width:1.0;"/></g><!--link Subscriber to Add new device--><g id="link_Subscriber_Add new device"><path d="M662.8,646.75 C749.21,669.47 981.32,730.5 1088,758.54 " fill="none" id="Subscriber-to-Add new device" style="stroke:#181818;stroke-width:1.0;"/><polygon fill="#181818" points="1092.99,759.85,1085.3052,753.6901,1088.1548,758.5768,1083.2681,761.4264,1092.99,759.85" style="stroke:#181818;stroke-width:1.0;"/></g><!--link Subscriber to Remove device--><g id="link_Subscriber_Remove device"><path d="M662.88,658.51 C722.29,694.12 851.19,767.47 969,808 C1002.47,819.51 1040.93,827.74 1073.16,833.31 " fill="none" id="Subscriber-to-Remove device" style="stroke:#181818;stroke-width:1.0;"/><polygon fill="#181818" points="1078.28,834.19,1070.0831,828.7301,1073.3515,833.3472,1068.7345,836.6157,1078.28,834.19" style="stroke:#181818;stroke-width:1.0;"/></g><!--link Subscriber to Update device details--><g id="link_Subscriber_Update device details"><path d="M662.81,668.63 C720.6,720.04 845.16,823.41 969,878 C997.48,890.56 1030.48,899.11 1060.02,904.88 " fill="none" id="Subscriber-to-Update device details" style="stroke:#181818;stroke-width:1.0;"/><polygon fill="#181818" points="1065.12,905.85,1057.0192,900.2485,1060.2069,904.9217,1055.5338,908.1094,1065.12,905.85" style="stroke:#181818;stroke-width:1.0;"/></g><!--link Subscriber to List devices--><g id="link_Subscriber_List devices"><path d="M659.44,677.68 C713.29,745.96 833.58,885 969,954 C1001.8,970.71 1041.93,979.23 1075.38,983.56 " fill="none" id="Subscriber-to-List devices" style="stroke:#181818;stroke-width:1.0;"/><polygon fill="#181818" points="1080.69,984.22,1072.2502,979.1436,1075.728,983.6051,1071.2664,987.0828,1080.69,984.22" style="stroke:#181818;stroke-width:1.0;"/></g><!--link Subscriber to Upload image to profile--><g id="link_Subscriber_Upload image to profile"><path d="M656.37,677.72 C708.92,752.97 832.17,917.99 969,1021 C1005.08,1048.16 1051.47,1069.75 1087.28,1084.1 " fill="none" id="Subscriber-to-Upload image to profile" style="stroke:#181818;stroke-width:1.0;"/><polygon fill="#181818" points="1092.03,1085.98,1085.1332,1078.9491,1087.3808,1084.1403,1082.1896,1086.3879,1092.03,1085.98" style="stroke:#181818;stroke-width:1.0;"/></g><!--link Subscriber to Upload image when creating/editing device--><g id="link_Subscriber_Upload image when creating/editing device"><path d="M644.84,677.74 C683.74,773.19 795.63,1016.76 969,1143 C985.05,1154.68 1003.76,1163.64 1022.86,1170.52 " fill="none" id="Subscriber-to-Upload image when creating/editing device" style="stroke:#181818;stroke-width:1.0;"/><polygon fill="#181818" points="1027.72,1172.22,1020.5558,1165.4617,1023.0029,1170.5619,1017.9028,1173.009,1027.72,1172.22" style="stroke:#181818;stroke-width:1.0;"/></g><!--SRC=[bPNFRXen4CRlFCM8Iya1yGQLI52ggacQDefo7knPri9hk_u3HLNUlMCl2xkKa9GRwsyyFtypOskg8aGBNgtg259v4b5PCngXYDR3N3QA_-IlQ5QQOFn4CRan_1a1_yeoJAUVON9jRGpHeuCKo8Fm9Cb4XHeaHhnwM-uqch0NlNPvxz6lAIgpMXGYwmSCZpcaO_X7sYPOKAKCWQ4jPFdLPIrdLHkC15XuBgflQiQWell4u1HHwV0V4SuhGHVrNoYsAX1jPAq2B-x0LXy1VFIsiHyxYo0CH-6eIDcocyJv6jgBlXcx1TGQw3Tpy1vjpNhbUZY639ibBOFmokMMEXJiuNJ_lMf9kH7xq8U5paSqWZI4tgxdXOKuxpCipvdlhVus6RE37ocxnXx7cc21ktU2NWXPwE7MyeanH5YobnAiAV5tLc0BUBHfp9MHISHxDBWYFsR3-sujCDHBYrvsJWtblQFbhWw7CmT08q4KStH96e3d324u4gfI0XfhOds1P7QhJ0xlckDTilVYMrQ05pGnvBAkCtRsfKenUMvith7ITXkWOfoya9omJMukq-BoYjAH-1wPBRrT4zjljmQMkrw3V8XZSePYH-YdqKvbddbF6pAfLBxP0J26Gsw7o-bV1_xGXgVrqE6dxJYNifHC5jdvblr9ZTtGHScpAxYjPDZPfz8x7jIzi9tJ7korDIdaMpeNuMtePwSjIb0D6vkzSzwo8s-YzSJRcjtY1m3pNJ4ZgSgTqPri2FDWpRHAfZmw_5Pu-fMuTWq_7GUmoNT7PlxuzT3EU1pyoHCsJbE9en3RIV0K7Cy0TLC_JtpPi7CIOjPaXBy0]--></g></svg>