<?xml version="1.0" encoding="us-ascii" standalone="no"?><svg xmlns="http://www.w3.org/2000/svg" xmlns:xlink="http://www.w3.org/1999/xlink" contentStyleType="text/css" height="556px" preserveAspectRatio="none" style="width:531px;height:556px;background:#FFFFFF;" version="1.1" viewBox="0 0 531 556" width="531px" zoomAndPan="magnify"><defs/><g><!--class DeviceRepository--><g id="elem_DeviceRepository"><rect codeLine="19" fill="#F1F1F1" height="79.2031" id="DeviceRepository" rx="2.5" ry="2.5" style="stroke:#181818;stroke-width:0.5;" width="407" x="62" y="291"/><text fill="#000000" font-family="sans-serif" font-size="12" font-style="italic" lengthAdjust="spacing" textLength="61" x="235" y="308.9492">&#171;interface&#187;</text><text fill="#000000" font-family="sans-serif" font-size="14" font-style="italic" lengthAdjust="spacing" textLength="110" x="210.5" y="327.0684">DeviceRepository</text><line style="stroke:#181818;stroke-width:0.5;" x1="63" x2="468" y1="335.582" y2="335.582"/><line style="stroke:#181818;stroke-width:0.5;" x1="63" x2="468" y1="343.582" y2="343.582"/><ellipse cx="73" cy="358.3926" fill="#84BE84" rx="3" ry="3" style="stroke:#038048;stroke-width:1.0;"/><text fill="#000000" font-family="sans-serif" font-size="14" lengthAdjust="spacing" textLength="381" x="82" y="362.6895">deleteByIdIfMatches(Long deviceId, long desiredVersion): int</text></g><!--class Device--><g id="elem_Device"><rect codeLine="6" fill="#F1F1F1" height="100.4844" id="Device" rx="2.5" ry="2.5" style="stroke:#181818;stroke-width:0.5;" width="104" x="213.5" y="449"/><text fill="#000000" font-family="sans-serif" font-size="14" lengthAdjust="spacing" textLength="43" x="244" y="469.1074">Device</text><line style="stroke:#181818;stroke-width:0.5;" x1="214.5" x2="316.5" y1="477.6211" y2="477.6211"/><rect fill="none" height="6" style="stroke:#C82930;stroke-width:1.0;" width="6" x="221.5" y="489.4316"/><text fill="#000000" font-family="sans-serif" font-size="14" lengthAdjust="spacing" textLength="78" x="233.5" y="496.7285">macAddress</text><rect fill="none" height="6" style="stroke:#C82930;stroke-width:1.0;" width="6" x="221.5" y="508.0527"/><text fill="#000000" font-family="sans-serif" font-size="14" lengthAdjust="spacing" textLength="35" x="233.5" y="515.3496">name</text><rect fill="none" height="6" style="stroke:#C82930;stroke-width:1.0;" width="6" x="221.5" y="526.6738"/><text fill="#000000" font-family="sans-serif" font-size="14" lengthAdjust="spacing" textLength="69" x="233.5" y="533.9707">description</text><line style="stroke:#181818;stroke-width:0.5;" x1="214.5" x2="316.5" y1="541.4844" y2="541.4844"/></g><!--class DeviceController--><g id="elem_DeviceController"><rect codeLine="11" fill="#F1F1F1" height="63.2422" id="DeviceController" rx="2.5" ry="2.5" style="stroke:#181818;stroke-width:0.5;" width="517" x="7" y="7"/><text fill="#000000" font-family="sans-serif" font-size="14" lengthAdjust="spacing" textLength="105" x="213" y="27.1074">DeviceController</text><line style="stroke:#181818;stroke-width:0.5;" x1="8" x2="523" y1="35.6211" y2="35.6211"/><line style="stroke:#181818;stroke-width:0.5;" x1="8" x2="523" y1="43.6211" y2="43.6211"/><text fill="#000000" font-family="sans-serif" font-size="14" lengthAdjust="spacing" textLength="505" x="13" y="62.7285">delete( WebRequest request, String macAddress):ResponseEntity&lt;DeviceView&gt;</text></g><!--class DeviceService--><g id="elem_DeviceService"><rect codeLine="14" fill="#F1F1F1" height="63.2422" id="DeviceService" rx="2.5" ry="2.5" style="stroke:#181818;stroke-width:0.5;" width="394" x="68.5" y="149"/><text fill="#000000" font-family="sans-serif" font-size="14" lengthAdjust="spacing" textLength="90" x="220.5" y="169.1074">DeviceService</text><line style="stroke:#181818;stroke-width:0.5;" x1="69.5" x2="461.5" y1="177.6211" y2="177.6211"/><line style="stroke:#181818;stroke-width:0.5;" x1="69.5" x2="461.5" y1="185.6211" y2="185.6211"/><ellipse cx="79.5" cy="200.4316" fill="#84BE84" rx="3" ry="3" style="stroke:#038048;stroke-width:1.0;"/><text fill="#000000" font-family="sans-serif" font-size="14" lengthAdjust="spacing" textLength="368" x="88.5" y="204.7285">deleteDevice(String macAddress, long desiredVersion): int</text></g><!--link DeviceController to DeviceService--><g id="link_DeviceController_DeviceService"><path codeLine="25" d="M265.5,70.22 C265.5,91.92 265.5,121.07 265.5,143.81 " fill="none" id="DeviceController-to-DeviceService" style="stroke:#181818;stroke-width:1.0;stroke-dasharray:7.0,7.0;"/><polygon fill="#181818" points="265.5,148.85,269.5,139.85,265.5,143.85,261.5,139.85,265.5,148.85" style="stroke:#181818;stroke-width:1.0;"/><polygon fill="#000000" points="270.5,114.6455,273.4389,105.6004,267.5611,105.6004,270.5,114.6455" style="stroke:#000000;stroke-width:1.0;"/><text fill="#000000" font-family="sans-serif" font-size="13" lengthAdjust="spacing" textLength="28" x="279.5" y="115.0283">uses</text></g><!--link DeviceService to DeviceRepository--><g id="link_DeviceService_DeviceRepository"><path codeLine="26" d="M265.5,212.17 C265.5,233.42 265.5,262.03 265.5,285.69 " fill="none" id="DeviceService-to-DeviceRepository" style="stroke:#181818;stroke-width:1.0;stroke-dasharray:7.0,7.0;"/><polygon fill="#181818" points="265.5,290.96,269.5,281.96,265.5,285.96,261.5,281.96,265.5,290.96" style="stroke:#181818;stroke-width:1.0;"/><polygon fill="#000000" points="270.5,256.6455,273.4389,247.6004,267.5611,247.6004,270.5,256.6455" style="stroke:#000000;stroke-width:1.0;"/><text fill="#000000" font-family="sans-serif" font-size="13" lengthAdjust="spacing" textLength="28" x="279.5" y="257.0283">uses</text></g><!--link DeviceRepository to Device--><g id="link_DeviceRepository_Device"><path codeLine="27" d="M265.5,370.12 C265.5,392 265.5,419.73 265.5,443.76 " fill="none" id="DeviceRepository-to-Device" style="stroke:#181818;stroke-width:1.0;stroke-dasharray:7.0,7.0;"/><polygon fill="#181818" points="265.5,448.83,269.5,439.83,265.5,443.83,261.5,439.83,265.5,448.83" style="stroke:#181818;stroke-width:1.0;"/><polygon fill="#000000" points="270.5,404.6455,267.5611,413.6906,273.4389,413.6906,270.5,404.6455" style="stroke:#000000;stroke-width:1.0;"/><text fill="#000000" font-family="sans-serif" font-size="13" lengthAdjust="spacing" textLength="36" x="279.5" y="415.0283">record</text></g><!--SRC=[VP51Jm8n48Nl_HLp4o8izyrc4qKF97fP4ZpNTc2RTDjrPj1iYF_TIecmaDXBs-dhDw-lTwr8p-LYqNiTPD_vmiHkORncdbkdTwGxrJgBO1mPZ-fu0a_uwGmss4Ts4cc0gd91aBRQO5qhDP8T5AGnxxHvi9QGEU-3xZ2lBB8XrukBGNsFhYvZ48hU8sM8HO-24tZ3zmO_ziW2bESPh8LSsC6vpRHiaFiO69-3E1cgpDmu_AgFj76lDTB9xNrkaykJ6-uCV4o5vDeHsWqI9-FJ4b82AlbNVqdSnAGEwiH-75PsjNtLObhaoKlc_OfNzZzyeglhPA0ewl4JIjWpCjHgLBtGdHrTIIz-zAmkeKefcqZs1m00]--></g></svg>