<?xml version="1.0" encoding="us-ascii" standalone="no"?><svg xmlns="http://www.w3.org/2000/svg" xmlns:xlink="http://www.w3.org/1999/xlink" contentStyleType="text/css" height="594px" preserveAspectRatio="none" style="width:1717px;height:594px;background:#FFFFFF;" version="1.1" viewBox="0 0 1717 594" width="1717px" zoomAndPan="magnify"><defs/><g><text fill="#000000" font-family="sans-serif" font-size="14" font-weight="bold" lengthAdjust="spacing" textLength="583" x="566" y="28.5352">Sequence Diagram/ As marketing director, I want to change the pricing of a plan</text><rect fill="#FFFFFF" height="345.0371" style="stroke:#181818;stroke-width:1.0;" width="10" x="332" y="150.2871"/><rect fill="#FFFFFF" height="227.7949" style="stroke:#181818;stroke-width:1.0;" width="10" x="894" y="179.5977"/><rect fill="#FFFFFF" height="55.2764" style="stroke:#181818;stroke-width:1.0;" width="10" x="1340" y="208.9082"/><rect fill="#FFFFFF" height="29.3105" style="stroke:#181818;stroke-width:1.0;" width="10" x="1340" y="348.7715"/><rect fill="#FFFFFF" height="29.3105" style="stroke:#181818;stroke-width:1.0;" width="10" x="1637" y="436.7031"/><line style="stroke:#181818;stroke-width:0.5;stroke-dasharray:5.0,5.0;" x1="72" x2="72" y1="118.9766" y2="513.3242"/><line style="stroke:#181818;stroke-width:0.5;stroke-dasharray:5.0,5.0;" x1="336.5" x2="336.5" y1="118.9766" y2="513.3242"/><line style="stroke:#181818;stroke-width:0.5;stroke-dasharray:5.0,5.0;" x1="899" x2="899" y1="118.9766" y2="513.3242"/><line style="stroke:#181818;stroke-width:0.5;stroke-dasharray:5.0,5.0;" x1="1344.5" x2="1344.5" y1="118.9766" y2="513.3242"/><line style="stroke:#181818;stroke-width:0.5;stroke-dasharray:5.0,5.0;" x1="1536" x2="1536" y1="118.9766" y2="513.3242"/><line style="stroke:#181818;stroke-width:0.5;stroke-dasharray:5.0,5.0;" x1="1642" x2="1642" y1="118.9766" y2="513.3242"/><text fill="#000000" font-family="sans-serif" font-size="14" lengthAdjust="spacing" textLength="128" x="5" y="116.0234">Marketing Director</text><ellipse cx="72" cy="50.9883" fill="#E2E2F0" rx="8" ry="8" style="stroke:#181818;stroke-width:0.5;"/><path d="M72,58.9883 L72,85.9883 M59,66.9883 L85,66.9883 M72,85.9883 L59,100.9883 M72,85.9883 L85,100.9883 " fill="none" style="stroke:#181818;stroke-width:0.5;"/><text fill="#000000" font-family="sans-serif" font-size="14" lengthAdjust="spacing" textLength="128" x="5" y="525.8594">Marketing Director</text><ellipse cx="72" cy="537.3125" fill="#E2E2F0" rx="8" ry="8" style="stroke:#181818;stroke-width:0.5;"/><path d="M72,545.3125 L72,572.3125 M59,553.3125 L85,553.3125 M72,572.3125 L59,587.3125 M72,572.3125 L85,587.3125 " fill="none" style="stroke:#181818;stroke-width:0.5;"/><rect fill="#E2E2F0" height="30.4883" rx="2.5" ry="2.5" style="stroke:#181818;stroke-width:0.5;" width="117" x="278.5" y="87.4883"/><text fill="#000000" font-family="sans-serif" font-size="14" lengthAdjust="spacing" textLength="103" x="285.5" y="108.0234">:PlanController</text><rect fill="#E2E2F0" height="30.4883" rx="2.5" ry="2.5" style="stroke:#181818;stroke-width:0.5;" width="117" x="278.5" y="512.3242"/><text fill="#000000" font-family="sans-serif" font-size="14" lengthAdjust="spacing" textLength="103" x="285.5" y="532.8594">:PlanController</text><rect fill="#E2E2F0" height="30.4883" rx="2.5" ry="2.5" style="stroke:#181818;stroke-width:0.5;" width="102" x="848" y="87.4883"/><text fill="#000000" font-family="sans-serif" font-size="14" lengthAdjust="spacing" textLength="88" x="855" y="108.0234">:PlansService</text><rect fill="#E2E2F0" height="30.4883" rx="2.5" ry="2.5" style="stroke:#181818;stroke-width:0.5;" width="102" x="848" y="512.3242"/><text fill="#000000" font-family="sans-serif" font-size="14" lengthAdjust="spacing" textLength="88" x="855" y="532.8594">:PlansService</text><rect fill="#E2E2F0" height="30.4883" rx="2.5" ry="2.5" style="stroke:#181818;stroke-width:0.5;" width="127" x="1281.5" y="87.4883"/><text fill="#000000" font-family="sans-serif" font-size="14" lengthAdjust="spacing" textLength="113" x="1288.5" y="108.0234">:PlansRepository</text><rect fill="#E2E2F0" height="30.4883" rx="2.5" ry="2.5" style="stroke:#181818;stroke-width:0.5;" width="127" x="1281.5" y="512.3242"/><text fill="#000000" font-family="sans-serif" font-size="14" lengthAdjust="spacing" textLength="113" x="1288.5" y="532.8594">:PlansRepository</text><rect fill="#E2E2F0" height="30.4883" rx="2.5" ry="2.5" style="stroke:#181818;stroke-width:0.5;" width="54" x="1509" y="87.4883"/><text fill="#000000" font-family="sans-serif" font-size="14" lengthAdjust="spacing" textLength="40" x="1516" y="108.0234">:Plans</text><rect fill="#E2E2F0" height="30.4883" rx="2.5" ry="2.5" style="stroke:#181818;stroke-width:0.5;" width="54" x="1509" y="512.3242"/><text fill="#000000" font-family="sans-serif" font-size="14" lengthAdjust="spacing" textLength="40" x="1516" y="532.8594">:Plans</text><rect fill="#E2E2F0" height="30.4883" rx="2.5" ry="2.5" style="stroke:#181818;stroke-width:0.5;" width="138" x="1573" y="87.4883"/><text fill="#000000" font-family="sans-serif" font-size="14" lengthAdjust="spacing" textLength="124" x="1580" y="108.0234">:PlansViewMapper</text><rect fill="#E2E2F0" height="30.4883" rx="2.5" ry="2.5" style="stroke:#181818;stroke-width:0.5;" width="138" x="1573" y="512.3242"/><text fill="#000000" font-family="sans-serif" font-size="14" lengthAdjust="spacing" textLength="124" x="1580" y="532.8594">:PlansViewMapper</text><rect fill="#FFFFFF" height="345.0371" style="stroke:#181818;stroke-width:1.0;" width="10" x="332" y="150.2871"/><rect fill="#FFFFFF" height="227.7949" style="stroke:#181818;stroke-width:1.0;" width="10" x="894" y="179.5977"/><rect fill="#FFFFFF" height="55.2764" style="stroke:#181818;stroke-width:1.0;" width="10" x="1340" y="208.9082"/><rect fill="#FFFFFF" height="29.3105" style="stroke:#181818;stroke-width:1.0;" width="10" x="1340" y="348.7715"/><rect fill="#FFFFFF" height="29.3105" style="stroke:#181818;stroke-width:1.0;" width="10" x="1637" y="436.7031"/><polygon fill="#181818" points="320,146.2871,330,150.2871,320,154.2871,324,150.2871" style="stroke:#181818;stroke-width:1.0;"/><line style="stroke:#181818;stroke-width:1.0;" x1="72" x2="326" y1="150.2871" y2="150.2871"/><text fill="#000000" font-family="sans-serif" font-size="13" font-weight="bold" lengthAdjust="spacing" textLength="9" x="79" y="145.5449">1</text><text fill="#000000" font-family="sans-serif" font-size="13" lengthAdjust="spacing" textLength="228" x="92" y="145.5449">PATCH /plans/updateMoney/{name}</text><polygon fill="#181818" points="882,175.5977,892,179.5977,882,183.5977,886,179.5977" style="stroke:#181818;stroke-width:1.0;"/><line style="stroke:#181818;stroke-width:1.0;" x1="342" x2="888" y1="179.5977" y2="179.5977"/><text fill="#000000" font-family="sans-serif" font-size="13" font-weight="bold" lengthAdjust="spacing" textLength="9" x="349" y="174.8555">2</text><text fill="#000000" font-family="sans-serif" font-size="13" lengthAdjust="spacing" textLength="520" x="362" y="174.8555">Plans updateMoney(String name, EditPlanMoneyRequest resource, long parseLong);</text><polygon fill="#181818" points="1328,204.9082,1338,208.9082,1328,212.9082,1332,208.9082" style="stroke:#181818;stroke-width:1.0;"/><line style="stroke:#181818;stroke-width:1.0;" x1="904" x2="1334" y1="208.9082" y2="208.9082"/><text fill="#000000" font-family="sans-serif" font-size="13" font-weight="bold" lengthAdjust="spacing" textLength="9" x="911" y="204.166">3</text><text fill="#000000" font-family="sans-serif" font-size="13" lengthAdjust="spacing" textLength="404" x="924" y="204.166">Optional&lt;Plans&gt; plan = findByName_Name(resource.getName())</text><polygon fill="#181818" points="915,260.1846,905,264.1846,915,268.1846,911,264.1846" style="stroke:#181818;stroke-width:1.0;"/><line style="stroke:#181818;stroke-width:1.0;stroke-dasharray:2.0,2.0;" x1="909" x2="1344" y1="264.1846" y2="264.1846"/><text fill="#000000" font-family="sans-serif" font-size="13" font-weight="bold" lengthAdjust="spacing" textLength="9" x="921" y="259.4424">4</text><text fill="#000000" font-family="sans-serif" font-size="13" lengthAdjust="spacing" textLength="27" x="934" y="259.4424">plan</text><path d="M600,221.9082 L600,292.9082 L889,292.9082 L889,231.9082 L879,221.9082 L600,221.9082 " fill="#FEFFDD" style="stroke:#181818;stroke-width:0.5;"/><path d="M879,221.9082 L879,231.9082 L889,231.9082 L879,221.9082 " fill="#FEFFDD" style="stroke:#181818;stroke-width:0.5;"/><text fill="#000000" font-family="sans-serif" font-size="13" lengthAdjust="spacing" textLength="213" x="606" y="239.4766">1) Service will check if plan exists</text><text fill="#000000" font-family="sans-serif" font-size="13" lengthAdjust="spacing" textLength="4" x="606" y="254.7871">&#160;</text><text fill="#000000" font-family="sans-serif" font-size="13" lengthAdjust="spacing" textLength="99" x="606" y="270.0977">If 1 comes true,</text><text fill="#000000" font-family="sans-serif" font-size="13" lengthAdjust="spacing" textLength="268" x="606" y="285.4082">Service will trow IllegalArgumentException</text><polygon fill="#181818" points="1519,315.4609,1529,319.4609,1519,323.4609,1523,319.4609" style="stroke:#181818;stroke-width:1.0;"/><line style="stroke:#181818;stroke-width:1.0;" x1="904" x2="1525" y1="319.4609" y2="319.4609"/><text fill="#000000" font-family="sans-serif" font-size="13" font-weight="bold" lengthAdjust="spacing" textLength="9" x="911" y="314.7188">5</text><text fill="#000000" font-family="sans-serif" font-size="13" lengthAdjust="spacing" textLength="595" x="924" y="314.7188">plan.moneyData(long desiredVersion, Double annualFee, Double monthlyFee, String username)</text><polygon fill="#181818" points="1328,344.7715,1338,348.7715,1328,352.7715,1332,348.7715" style="stroke:#181818;stroke-width:1.0;"/><line style="stroke:#181818;stroke-width:1.0;" x1="904" x2="1334" y1="348.7715" y2="348.7715"/><text fill="#000000" font-family="sans-serif" font-size="13" font-weight="bold" lengthAdjust="spacing" textLength="9" x="911" y="344.0293">6</text><text fill="#000000" font-family="sans-serif" font-size="13" lengthAdjust="spacing" textLength="63" x="924" y="344.0293">save(plan)</text><polygon fill="#181818" points="915,374.082,905,378.082,915,382.082,911,378.082" style="stroke:#181818;stroke-width:1.0;"/><line style="stroke:#181818;stroke-width:1.0;stroke-dasharray:2.0,2.0;" x1="909" x2="1344" y1="378.082" y2="378.082"/><text fill="#000000" font-family="sans-serif" font-size="13" font-weight="bold" lengthAdjust="spacing" textLength="9" x="921" y="373.3398">7</text><text fill="#000000" font-family="sans-serif" font-size="13" lengthAdjust="spacing" textLength="27" x="934" y="373.3398">plan</text><polygon fill="#181818" points="353,403.3926,343,407.3926,353,411.3926,349,407.3926" style="stroke:#181818;stroke-width:1.0;"/><line style="stroke:#181818;stroke-width:1.0;stroke-dasharray:2.0,2.0;" x1="347" x2="898" y1="407.3926" y2="407.3926"/><text fill="#000000" font-family="sans-serif" font-size="13" font-weight="bold" lengthAdjust="spacing" textLength="9" x="359" y="402.6504">8</text><text fill="#000000" font-family="sans-serif" font-size="13" lengthAdjust="spacing" textLength="27" x="372" y="402.6504">plan</text><polygon fill="#181818" points="1625,432.7031,1635,436.7031,1625,440.7031,1629,436.7031" style="stroke:#181818;stroke-width:1.0;"/><line style="stroke:#181818;stroke-width:1.0;" x1="342" x2="1631" y1="436.7031" y2="436.7031"/><text fill="#000000" font-family="sans-serif" font-size="13" font-weight="bold" lengthAdjust="spacing" textLength="9" x="349" y="431.9609">9</text><text fill="#000000" font-family="sans-serif" font-size="13" lengthAdjust="spacing" textLength="110" x="362" y="431.9609">toPlansView(plan)</text><polygon fill="#181818" points="353,462.0137,343,466.0137,353,470.0137,349,466.0137" style="stroke:#181818;stroke-width:1.0;"/><line style="stroke:#181818;stroke-width:1.0;stroke-dasharray:2.0,2.0;" x1="347" x2="1641" y1="466.0137" y2="466.0137"/><text fill="#000000" font-family="sans-serif" font-size="13" font-weight="bold" lengthAdjust="spacing" textLength="18" x="359" y="461.2715">10</text><text fill="#000000" font-family="sans-serif" font-size="13" lengthAdjust="spacing" textLength="56" x="381" y="461.2715">planView</text><polygon fill="#181818" points="83,491.3242,73,495.3242,83,499.3242,79,495.3242" style="stroke:#181818;stroke-width:1.0;"/><line style="stroke:#181818;stroke-width:1.0;stroke-dasharray:2.0,2.0;" x1="77" x2="336" y1="495.3242" y2="495.3242"/><text fill="#000000" font-family="sans-serif" font-size="13" font-weight="bold" lengthAdjust="spacing" textLength="18" x="89" y="490.582">11</text><text fill="#000000" font-family="sans-serif" font-size="13" lengthAdjust="spacing" textLength="56" x="111" y="490.582">planView</text><!--SRC=[RLF1RXen43tNNp7YKf20LQxRD1A5L4KgRHIgN2l7EonMlFRMdWr1LV-zCsRP9XKNP8_Vl3Vxvl5-JzIciYXQfprrZPkRq1G9VtNe3Sugg-ke6wKx2jgGVTQ447o- -wvvnAZ8aaFOzXsmEdKKi4ZGwFY4P7qDbOreACGfhE70Ga01p5xx6e7s26sqHc1X1nfa4lLQGMbfXT5ce5lrT2FG2HP6jJeICxJ2F2hlc60PFCNW79umIuhk0YfjCJvRWnaZvqkOUsn3ignsp32vNeBbHpbTUdomUDZejkt7aQjI2mEpcpmQb72t-B7y0daDgUZQYetU18_7uhVN3VvHAkCOBsD2-IxJmYlWU4jHl17u56uhImB9J_Uod4GGCOKk6dvsWP4yPyAlV9fyK2hJChry7fJVMxB1QtUTPMxoJk0ZxAolFXs_iS9F-HcV2USrKYvC9YeJp8P1J-lqWNFZS4VgQWAzwN2mpd4Aq3o1tPqayCKcIagjTt05d4HCGB73gNhJmvizm9gNMsktY7NNeAVR5uDvQ8M-0j5J5GwHpNivVw9Se1IzUIFsh3JfSNQamiJ9gXum9cQQmYfqZnnkxNsdtMV4eS9zj7V7NEfzxn96yNxonieIadx6iOZzPqtlp0dSvw2lzQkMb9JyJnaIrDF8KLh-TUGySPokPxDpdeRoNm00]--></g></svg>