<?xml version="1.0" encoding="us-ascii" standalone="no"?><svg xmlns="http://www.w3.org/2000/svg" xmlns:xlink="http://www.w3.org/1999/xlink" contentStyleType="text/css" height="589px" preserveAspectRatio="none" style="width:675px;height:589px;background:#FFFFFF;" version="1.1" viewBox="0 0 675 589" width="675px" zoomAndPan="magnify"><defs/><g><text fill="#000000" font-family="sans-serif" font-size="14" font-weight="bold" lengthAdjust="spacing" textLength="647" x="10" y="28.5352">Software Design Document/ As marketing director, I want to change the pricing of a plan</text><rect fill="#FFFFFF" height="369.416" style="stroke:#181818;stroke-width:1.0;" width="10" x="124.5" y="128.9766"/><rect fill="#FFFFFF" height="370.416" style="stroke:#181818;stroke-width:1.0;" width="10" x="465.5" y="128.9766"/><rect fill="none" height="223.1738" style="stroke:#000000;stroke-width:1.5;" width="583" x="42.5" y="207.5977"/><rect fill="none" height="88.9316" style="stroke:#000000;stroke-width:1.5;" width="560" x="52.5" y="274.2188"/><rect fill="none" height="46.6211" style="stroke:#000000;stroke-width:1.5;" width="461" x="52.5" y="377.1504"/><rect fill="none" height="46.6211" style="stroke:#000000;stroke-width:1.5;" width="461" x="52.5" y="444.7715"/><line style="stroke:#181818;stroke-width:0.5;stroke-dasharray:5.0,5.0;" x1="129.5" x2="129.5" y1="118.9766" y2="508.3926"/><line style="stroke:#181818;stroke-width:0.5;stroke-dasharray:5.0,5.0;" x1="470.5" x2="470.5" y1="118.9766" y2="508.3926"/><text fill="#000000" font-family="sans-serif" font-size="14" lengthAdjust="spacing" textLength="128" x="62.5" y="116.0234">Marketing Director</text><ellipse cx="129.5" cy="50.9883" fill="#E2E2F0" rx="8" ry="8" style="stroke:#181818;stroke-width:0.5;"/><path d="M129.5,58.9883 L129.5,85.9883 M116.5,66.9883 L142.5,66.9883 M129.5,85.9883 L116.5,100.9883 M129.5,85.9883 L142.5,100.9883 " fill="none" style="stroke:#181818;stroke-width:0.5;"/><text fill="#000000" font-family="sans-serif" font-size="14" lengthAdjust="spacing" textLength="128" x="62.5" y="520.9277">Marketing Director</text><ellipse cx="129.5" cy="532.3809" fill="#E2E2F0" rx="8" ry="8" style="stroke:#181818;stroke-width:0.5;"/><path d="M129.5,540.3809 L129.5,567.3809 M116.5,548.3809 L142.5,548.3809 M129.5,567.3809 L116.5,582.3809 M129.5,567.3809 L142.5,582.3809 " fill="none" style="stroke:#181818;stroke-width:0.5;"/><rect fill="#E2E2F0" height="30.4883" rx="2.5" ry="2.5" style="stroke:#181818;stroke-width:0.5;" width="66" x="437.5" y="87.4883"/><text fill="#000000" font-family="sans-serif" font-size="14" lengthAdjust="spacing" textLength="52" x="444.5" y="108.0234">:System</text><rect fill="#E2E2F0" height="30.4883" rx="2.5" ry="2.5" style="stroke:#181818;stroke-width:0.5;" width="66" x="437.5" y="507.3926"/><text fill="#000000" font-family="sans-serif" font-size="14" lengthAdjust="spacing" textLength="52" x="444.5" y="527.9277">:System</text><rect fill="#FFFFFF" height="369.416" style="stroke:#181818;stroke-width:1.0;" width="10" x="124.5" y="128.9766"/><rect fill="#FFFFFF" height="370.416" style="stroke:#181818;stroke-width:1.0;" width="10" x="465.5" y="128.9766"/><polygon fill="#181818" points="453.5,146.2871,463.5,150.2871,453.5,154.2871,457.5,150.2871" style="stroke:#181818;stroke-width:1.0;"/><line style="stroke:#181818;stroke-width:1.0;" x1="134.5" x2="459.5" y1="150.2871" y2="150.2871"/><text fill="#000000" font-family="sans-serif" font-size="13" lengthAdjust="spacing" textLength="228" x="141.5" y="145.5449">PATCH /plans/updateMoney/{name}</text><line style="stroke:#181818;stroke-width:1.0;stroke-dasharray:2.0,2.0;" x1="475.5" x2="517.5" y1="179.5977" y2="179.5977"/><line style="stroke:#181818;stroke-width:1.0;stroke-dasharray:2.0,2.0;" x1="517.5" x2="517.5" y1="179.5977" y2="192.5977"/><line style="stroke:#181818;stroke-width:1.0;stroke-dasharray:2.0,2.0;" x1="476.5" x2="517.5" y1="192.5977" y2="192.5977"/><polygon fill="#181818" points="486.5,188.5977,476.5,192.5977,486.5,196.5977,482.5,192.5977" style="stroke:#181818;stroke-width:1.0;"/><text fill="#000000" font-family="sans-serif" font-size="13" lengthAdjust="spacing" textLength="131" x="482.5" y="174.8555">Gets data from Patch</text><path d="M42.5,207.5977 L104.5,207.5977 L104.5,214.9082 L94.5,224.9082 L42.5,224.9082 L42.5,207.5977 " fill="#EEEEEE" style="stroke:#000000;stroke-width:1.5;"/><rect fill="none" height="223.1738" style="stroke:#000000;stroke-width:1.5;" width="583" x="42.5" y="207.5977"/><text fill="#000000" font-family="sans-serif" font-size="13" font-weight="bold" lengthAdjust="spacing" textLength="17" x="57.5" y="221.166">alt</text><text fill="#000000" font-family="sans-serif" font-size="11" font-weight="bold" lengthAdjust="spacing" textLength="199" x="119.5" y="220.2324">[successful case - data is accepted]</text><line style="stroke:#181818;stroke-width:1.0;stroke-dasharray:2.0,2.0;" x1="475.5" x2="517.5" y1="246.2188" y2="246.2188"/><line style="stroke:#181818;stroke-width:1.0;stroke-dasharray:2.0,2.0;" x1="517.5" x2="517.5" y1="246.2188" y2="259.2188"/><line style="stroke:#181818;stroke-width:1.0;stroke-dasharray:2.0,2.0;" x1="476.5" x2="517.5" y1="259.2188" y2="259.2188"/><polygon fill="#181818" points="486.5,255.2188,476.5,259.2188,486.5,263.2188,482.5,259.2188" style="stroke:#181818;stroke-width:1.0;"/><text fill="#000000" font-family="sans-serif" font-size="13" lengthAdjust="spacing" textLength="131" x="482.5" y="241.4766">Checks if Plan exists</text><path d="M52.5,274.2188 L114.5,274.2188 L114.5,281.5293 L104.5,291.5293 L52.5,291.5293 L52.5,274.2188 " fill="#EEEEEE" style="stroke:#000000;stroke-width:1.5;"/><rect fill="none" height="88.9316" style="stroke:#000000;stroke-width:1.5;" width="560" x="52.5" y="274.2188"/><text fill="#000000" font-family="sans-serif" font-size="13" font-weight="bold" lengthAdjust="spacing" textLength="17" x="67.5" y="287.7871">alt</text><text fill="#000000" font-family="sans-serif" font-size="11" font-weight="bold" lengthAdjust="spacing" textLength="170" x="129.5" y="286.8535">[successful case - Plan exists]</text><line style="stroke:#181818;stroke-width:1.0;stroke-dasharray:2.0,2.0;" x1="475.5" x2="517.5" y1="312.8398" y2="312.8398"/><line style="stroke:#181818;stroke-width:1.0;stroke-dasharray:2.0,2.0;" x1="517.5" x2="517.5" y1="312.8398" y2="325.8398"/><line style="stroke:#181818;stroke-width:1.0;stroke-dasharray:2.0,2.0;" x1="476.5" x2="517.5" y1="325.8398" y2="325.8398"/><polygon fill="#181818" points="486.5,321.8398,476.5,325.8398,486.5,329.8398,482.5,325.8398" style="stroke:#181818;stroke-width:1.0;"/><text fill="#000000" font-family="sans-serif" font-size="13" lengthAdjust="spacing" textLength="118" x="482.5" y="308.0977">Apply data on plan</text><polygon fill="#181818" points="145.5,351.1504,135.5,355.1504,145.5,359.1504,141.5,355.1504" style="stroke:#181818;stroke-width:1.0;"/><line style="stroke:#181818;stroke-width:1.0;stroke-dasharray:2.0,2.0;" x1="139.5" x2="464.5" y1="355.1504" y2="355.1504"/><text fill="#000000" font-family="sans-serif" font-size="13" lengthAdjust="spacing" textLength="312" x="151.5" y="350.4082">Tells users plan haves been updated and shows it</text><path d="M52.5,377.1504 L114.5,377.1504 L114.5,384.4609 L104.5,394.4609 L52.5,394.4609 L52.5,377.1504 " fill="#EEEEEE" style="stroke:#000000;stroke-width:1.5;"/><rect fill="none" height="46.6211" style="stroke:#000000;stroke-width:1.5;" width="461" x="52.5" y="377.1504"/><text fill="#000000" font-family="sans-serif" font-size="13" font-weight="bold" lengthAdjust="spacing" textLength="17" x="67.5" y="390.7188">alt</text><text fill="#000000" font-family="sans-serif" font-size="11" font-weight="bold" lengthAdjust="spacing" textLength="222" x="129.5" y="389.7852">[successful case - Plan does not exists]</text><polygon fill="#181818" points="145.5,411.7715,135.5,415.7715,145.5,419.7715,141.5,415.7715" style="stroke:#181818;stroke-width:1.0;"/><line style="stroke:#181818;stroke-width:1.0;stroke-dasharray:2.0,2.0;" x1="139.5" x2="464.5" y1="415.7715" y2="415.7715"/><text fill="#000000" font-family="sans-serif" font-size="13" lengthAdjust="spacing" textLength="193" x="151.5" y="411.0293">Tells user plan does not exists</text><path d="M52.5,444.7715 L114.5,444.7715 L114.5,452.082 L104.5,462.082 L52.5,462.082 L52.5,444.7715 " fill="#EEEEEE" style="stroke:#000000;stroke-width:1.5;"/><rect fill="none" height="46.6211" style="stroke:#000000;stroke-width:1.5;" width="461" x="52.5" y="444.7715"/><text fill="#000000" font-family="sans-serif" font-size="13" font-weight="bold" lengthAdjust="spacing" textLength="17" x="67.5" y="458.3398">alt</text><text fill="#000000" font-family="sans-serif" font-size="11" font-weight="bold" lengthAdjust="spacing" textLength="199" x="129.5" y="457.4063">[failure case - data is not accepted]</text><polygon fill="#181818" points="145.5,479.3926,135.5,483.3926,145.5,487.3926,141.5,483.3926" style="stroke:#181818;stroke-width:1.0;"/><line style="stroke:#181818;stroke-width:1.0;stroke-dasharray:2.0,2.0;" x1="139.5" x2="464.5" y1="483.3926" y2="483.3926"/><text fill="#000000" font-family="sans-serif" font-size="13" lengthAdjust="spacing" textLength="133" x="151.5" y="478.6504">Shows error message</text><!--SRC=[VPBDRjim48JlV8g1Bxt4qTs70aO493aOCE2ym9PSIKJuet1NSOsYxnxAAjp4I7BWHPpPRpZQ7uFgA9kc6GCbdMAujJasmYyJ9yjhvwal50rPpGMh7PLdLfzwjBxm_6q54knQeru3uv0xFL9Xj2o-JsYpdI8dRR0Ln8lP_JFVu177YeLcs85Ipz21CHPlPrdkG9XpcPdlNqbvHfbTY_LFh3Q7aoZ75JRORv_k7d1-WpJJwAfobnEVcZ-98lyr_xNhA-Szgw3g2Lt94NjIErHSKCXaBOjqKu0bOQmNcHTGlHYLdVbcxjt0zbdWE-nhAF1lBofVp7sl-7hYTXp3QScGqrBBHt6jPOCd3a4m2HSvQp3GAmj-CISinJXGSf0X7siyDPpSTx5ShkwKzVDyLyY5U6sP2VCnIwyT-J3L5RagTJPSYhtyxWlkC_3X_0OkfQvchDcfPtCcENwtBsy0]--></g></svg>