<?xml version="1.0" encoding="us-ascii" standalone="no"?><svg xmlns="http://www.w3.org/2000/svg" xmlns:xlink="http://www.w3.org/1999/xlink" contentStyleType="text/css" height="593px" preserveAspectRatio="none" style="width:725px;height:593px;background:#FFFFFF;" version="1.1" viewBox="0 0 725 593" width="725px" zoomAndPan="magnify"><defs/><g><!--class SubscriptionsRepository--><g id="elem_SubscriptionsRepository"><rect codeLine="37" fill="#F1F1F1" height="79.2031" id="SubscriptionsRepository" rx="2.5" ry="2.5" style="stroke:#181818;stroke-width:0.5;" width="327" x="7" y="291"/><text fill="#000000" font-family="sans-serif" font-size="12" font-style="italic" lengthAdjust="spacing" textLength="61" x="140" y="308.9492">&#171;interface&#187;</text><text fill="#000000" font-family="sans-serif" font-size="14" font-style="italic" lengthAdjust="spacing" textLength="153" x="94" y="327.0684">SubscriptionsRepository</text><line style="stroke:#181818;stroke-width:0.5;" x1="8" x2="333" y1="335.582" y2="335.582"/><line style="stroke:#181818;stroke-width:0.5;" x1="8" x2="333" y1="343.582" y2="343.582"/><ellipse cx="18" cy="358.3926" fill="#84BE84" rx="3" ry="3" style="stroke:#038048;stroke-width:1.0;"/><text fill="#000000" font-family="sans-serif" font-size="14" lengthAdjust="spacing" textLength="301" x="27" y="362.6895">findByUser(User user): Optional&lt;Subscriptions&gt;</text></g><!--class UserRepository--><g id="elem_UserRepository"><rect codeLine="31" fill="#F1F1F1" height="79.2031" id="UserRepository" rx="2.5" ry="2.5" style="stroke:#181818;stroke-width:0.5;" width="277" x="369" y="291"/><text fill="#000000" font-family="sans-serif" font-size="12" font-style="italic" lengthAdjust="spacing" textLength="61" x="477" y="308.9492">&#171;interface&#187;</text><text fill="#000000" font-family="sans-serif" font-size="14" font-style="italic" lengthAdjust="spacing" textLength="98" x="458.5" y="327.0684">UserRepository</text><line style="stroke:#181818;stroke-width:0.5;" x1="370" x2="645" y1="335.582" y2="335.582"/><line style="stroke:#181818;stroke-width:0.5;" x1="370" x2="645" y1="343.582" y2="343.582"/><ellipse cx="380" cy="358.3926" fill="#84BE84" rx="3" ry="3" style="stroke:#038048;stroke-width:1.0;"/><text fill="#000000" font-family="sans-serif" font-size="14" lengthAdjust="spacing" textLength="251" x="389" y="362.6895">findById(Long objectId): Optional&lt;User&gt;</text></g><!--class Subscriptions--><g id="elem_Subscriptions"><rect codeLine="8" fill="#F1F1F1" height="137.7266" id="Subscriptions" rx="2.5" ry="2.5" style="stroke:#181818;stroke-width:0.5;" width="116" x="385.5" y="449"/><text fill="#000000" font-family="sans-serif" font-size="14" lengthAdjust="spacing" textLength="85" x="401" y="469.1074">Subscriptions</text><line style="stroke:#181818;stroke-width:0.5;" x1="386.5" x2="500.5" y1="477.6211" y2="477.6211"/><rect fill="none" height="6" style="stroke:#C82930;stroke-width:1.0;" width="6" x="393.5" y="489.4316"/><text fill="#000000" font-family="sans-serif" font-size="14" lengthAdjust="spacing" textLength="58" x="405.5" y="496.7285">startDate</text><rect fill="none" height="6" style="stroke:#C82930;stroke-width:1.0;" width="6" x="393.5" y="508.0527"/><text fill="#000000" font-family="sans-serif" font-size="14" lengthAdjust="spacing" textLength="54" x="405.5" y="515.3496">endDate</text><rect fill="none" height="6" style="stroke:#C82930;stroke-width:1.0;" width="6" x="393.5" y="526.6738"/><text fill="#000000" font-family="sans-serif" font-size="14" lengthAdjust="spacing" textLength="86" x="405.5" y="533.9707">paymentType</text><rect fill="none" height="6" style="stroke:#C82930;stroke-width:1.0;" width="6" x="393.5" y="545.2949"/><text fill="#000000" font-family="sans-serif" font-size="14" lengthAdjust="spacing" textLength="77" x="405.5" y="552.5918">activeStatus</text><line style="stroke:#181818;stroke-width:0.5;" x1="386.5" x2="500.5" y1="560.1055" y2="560.1055"/><ellipse cx="396.5" cy="574.916" fill="#84BE84" rx="3" ry="3" style="stroke:#038048;stroke-width:1.0;"/><text fill="#000000" font-family="sans-serif" font-size="14" lengthAdjust="spacing" textLength="90" x="405.5" y="579.2129">getPlan():Plan</text></g><!--class PlansViewMapper--><g id="elem_PlansViewMapper"><rect codeLine="18" fill="#F1F1F1" height="63.2422" id="PlansViewMapper" rx="2.5" ry="2.5" style="stroke:#181818;stroke-width:0.5;" width="246" x="157.5" y="149"/><text fill="#000000" font-family="sans-serif" font-size="14" lengthAdjust="spacing" textLength="112" x="224.5" y="169.1074">PlansViewMapper</text><line style="stroke:#181818;stroke-width:0.5;" x1="158.5" x2="402.5" y1="177.6211" y2="177.6211"/><line style="stroke:#181818;stroke-width:0.5;" x1="158.5" x2="402.5" y1="185.6211" y2="185.6211"/><ellipse cx="168.5" cy="200.4316" fill="#84BE84" rx="3" ry="3" style="stroke:#038048;stroke-width:1.0;"/><text fill="#000000" font-family="sans-serif" font-size="14" lengthAdjust="spacing" textLength="220" x="177.5" y="204.7285">toPlansView(Plans plan):PlansView</text></g><!--class SubscriptionsController--><g id="elem_SubscriptionsController"><rect codeLine="21" fill="#F1F1F1" height="63.2422" id="SubscriptionsController" rx="2.5" ry="2.5" style="stroke:#181818;stroke-width:0.5;" width="275" x="184" y="7"/><text fill="#000000" font-family="sans-serif" font-size="14" lengthAdjust="spacing" textLength="147" x="248" y="27.1074">SubscriptionsController</text><line style="stroke:#181818;stroke-width:0.5;" x1="185" x2="458" y1="35.6211" y2="35.6211"/><line style="stroke:#181818;stroke-width:0.5;" x1="185" x2="458" y1="43.6211" y2="43.6211"/><text fill="#000000" font-family="sans-serif" font-size="14" lengthAdjust="spacing" textLength="263" x="190" y="62.7285">planDetails():ResponseEntity&lt;PlansView&gt;</text></g><!--class SubscriptionsService--><g id="elem_SubscriptionsService"><rect codeLine="24" fill="#F1F1F1" height="63.2422" id="SubscriptionsService" rx="2.5" ry="2.5" style="stroke:#181818;stroke-width:0.5;" width="138" x="438.5" y="149"/><text fill="#000000" font-family="sans-serif" font-size="14" lengthAdjust="spacing" textLength="132" x="441.5" y="169.1074">SubscriptionsService</text><line style="stroke:#181818;stroke-width:0.5;" x1="439.5" x2="575.5" y1="177.6211" y2="177.6211"/><line style="stroke:#181818;stroke-width:0.5;" x1="439.5" x2="575.5" y1="185.6211" y2="185.6211"/><ellipse cx="449.5" cy="200.4316" fill="#84BE84" rx="3" ry="3" style="stroke:#038048;stroke-width:1.0;"/><text fill="#000000" font-family="sans-serif" font-size="14" lengthAdjust="spacing" textLength="112" x="458.5" y="204.7285">planDetails():Plan</text></g><!--link SubscriptionsController to SubscriptionsService--><g id="link_SubscriptionsController_SubscriptionsService"><path codeLine="44" d="M362.32,70.22 C392,92.56 432.16,122.79 462.72,145.79 " fill="none" id="SubscriptionsController-to-SubscriptionsService" style="stroke:#181818;stroke-width:1.0;stroke-dasharray:7.0,7.0;"/><polygon fill="#181818" points="466.78,148.85,461.98,140.25,462.78,145.85,457.18,146.65,466.78,148.85" style="stroke:#181818;stroke-width:1.0;"/><polygon fill="#000000" points="435.4948,112.6524,430.0355,104.8648,426.5007,109.561,435.4948,112.6524" style="stroke:#000000;stroke-width:1.0;"/><text fill="#000000" font-family="sans-serif" font-size="13" lengthAdjust="spacing" textLength="28" x="440.5" y="115.0283">uses</text></g><!--link SubscriptionsService to SubscriptionsRepository--><g id="link_SubscriptionsService_SubscriptionsRepository"><path codeLine="45" d="M438.49,211.81 C387.83,234.06 318.46,264.52 263,288.88 " fill="none" id="SubscriptionsService-to-SubscriptionsRepository" style="stroke:#181818;stroke-width:1.0;stroke-dasharray:7.0,7.0;"/><polygon fill="#181818" points="258.36,290.92,268.2088,290.9628,262.9378,288.9092,264.9914,283.6382,258.36,290.92" style="stroke:#181818;stroke-width:1.0;"/><polygon fill="#000000" points="369.922,253.656,379.3854,252.7098,377.0219,247.3281,369.922,253.656" style="stroke:#000000;stroke-width:1.0;"/><text fill="#000000" font-family="sans-serif" font-size="13" lengthAdjust="spacing" textLength="28" x="383.5" y="257.0283">uses</text></g><!--link SubscriptionsService to UserRepository--><g id="link_SubscriptionsService_UserRepository"><path codeLine="46" d="M507.5,212.17 C507.5,233.42 507.5,262.03 507.5,285.69 " fill="none" id="SubscriptionsService-to-UserRepository" style="stroke:#181818;stroke-width:1.0;stroke-dasharray:7.0,7.0;"/><polygon fill="#181818" points="507.5,290.96,511.5,281.96,507.5,285.96,503.5,281.96,507.5,290.96" style="stroke:#181818;stroke-width:1.0;"/><polygon fill="#000000" points="512.5,256.6455,515.4389,247.6004,509.5611,247.6004,512.5,256.6455" style="stroke:#000000;stroke-width:1.0;"/><text fill="#000000" font-family="sans-serif" font-size="13" lengthAdjust="spacing" textLength="28" x="521.5" y="257.0283">uses</text></g><!--link SubscriptionsService to Subscriptions--><g id="link_SubscriptionsService_Subscriptions"><path codeLine="47" d="M576.89,211.32 C609.47,229.29 645.11,255.62 663.5,291 C679.69,322.15 680.05,339.03 663.5,370 C630.5,431.74 558.82,472.07 506.21,494.6 " fill="none" id="SubscriptionsService-to-Subscriptions" style="stroke:#181818;stroke-width:1.0;stroke-dasharray:7.0,7.0;"/><polygon fill="#181818" points="501.5,496.59,511.3472,496.7731,506.106,494.6446,508.2345,489.4035,501.5,496.59" style="stroke:#181818;stroke-width:1.0;"/><polygon fill="#000000" points="679.2896,335.4968,684.3308,327.4322,678.6277,326.0093,679.2896,335.4968" style="stroke:#000000;stroke-width:1.0;"/><text fill="#000000" font-family="sans-serif" font-size="13" lengthAdjust="spacing" textLength="28" x="689.5" y="336.0283">uses</text></g><!--link SubscriptionsRepository to Subscriptions--><g id="link_SubscriptionsRepository_Subscriptions"><path codeLine="48" d="M227.4,370.16 C272.3,400.67 334.86,443.18 381.12,474.61 " fill="none" id="SubscriptionsRepository-to-Subscriptions" style="stroke:#181818;stroke-width:1.0;stroke-dasharray:7.0,7.0;"/><polygon fill="#181818" points="385.26,477.43,380.0432,469.0763,381.1174,474.6302,375.5635,475.7044,385.26,477.43" style="stroke:#181818;stroke-width:1.0;"/><polygon fill="#000000" points="300.3644,406.8354,306.1941,414.3498,309.4975,409.4881,300.3644,406.8354" style="stroke:#000000;stroke-width:1.0;"/><text fill="#000000" font-family="sans-serif" font-size="13" lengthAdjust="spacing" textLength="36" x="313.5" y="415.0283">record</text></g><!--link SubscriptionsController to PlansViewMapper--><g id="link_SubscriptionsController_PlansViewMapper"><path codeLine="49" d="M312.5,70.22 C306.15,91.92 297.61,121.07 290.95,143.81 " fill="none" id="SubscriptionsController-to-PlansViewMapper" style="stroke:#181818;stroke-width:1.0;stroke-dasharray:7.0,7.0;"/><polygon fill="#181818" points="289.48,148.85,295.84,141.33,290.88,144.05,288.16,139.09,289.48,148.85" style="stroke:#181818;stroke-width:1.0;"/><polygon fill="#000000" points="307.0948,114.444,312.4573,106.5894,306.8163,104.9375,307.0948,114.444" style="stroke:#000000;stroke-width:1.0;"/><text fill="#000000" font-family="sans-serif" font-size="13" lengthAdjust="spacing" textLength="28" x="317.5" y="115.0283">uses</text></g><!--SRC=[bP91JyCW5CVlV0fkTcdSxatJWyx34ercK-yCtZOC1GAlCytYTnVQRTqcqyY1yXxl_tlmBpSRHEkBoSGgfh6frPYRUi8Ly_vMIBPsh2ORAO1owRW2qktGHRFqt4cBqcW_1skyHEDQMfPI8xWLur1L-zet3-vgIHW98jqH6iQjH-PmoX3w4BGO0ilQ6ZI-jdQVO1pb5XR8iF5T9by3leHRPQCYViZNq2t6_bt2vnEp5bpVBaTpp6VTYaPJUdMN3OZ4QU-DHcUKEd2YQ0h8fFAXzHoy3KNme55YMnvPLLUR12x0RIM7GClFMSCroD742t_9ZkGhgSLTEnFPez5hQfOVm74cHWLzxlXCbL5JTQI1S-MV3i0eok94cp2TuiwaFPTSiOYEnrNojaMaUbgHrEPFrN30luNd3lspKRhyv44d52Lrm8qJlvbmyGGFRRu1]--></g></svg>