<?xml version="1.0" encoding="us-ascii" standalone="no"?><svg xmlns="http://www.w3.org/2000/svg" xmlns:xlink="http://www.w3.org/1999/xlink" contentStyleType="text/css" height="690px" preserveAspectRatio="none" style="width:1150px;height:690px;background:#FFFFFF;" version="1.1" viewBox="0 0 1150 690" width="1150px" zoomAndPan="magnify"><defs/><g><rect fill="#FFFFFF" height="472.5293" style="stroke:#181818;stroke-width:1.0;" width="10" x="210" y="116.9121"/><rect fill="#FFFFFF" height="381.0107" style="stroke:#181818;stroke-width:1.0;" width="10" x="392" y="148.2031"/><rect fill="#FFFFFF" height="51.582" style="stroke:#181818;stroke-width:1.0;" width="10" x="788" y="179.4941"/><rect fill="#FFFFFF" height="77.5186" style="stroke:#181818;stroke-width:1.0;" width="10" x="941" y="282.6582"/><rect fill="#FFFFFF" height="31.291" style="stroke:#181818;stroke-width:1.0;" width="10" x="1088" y="437.6953"/><line style="stroke:#181818;stroke-width:0.5;stroke-dasharray:5.0,5.0;" x1="65" x2="65" y1="83.6211" y2="607.4414"/><line style="stroke:#181818;stroke-width:0.5;stroke-dasharray:5.0,5.0;" x1="214.5" x2="214.5" y1="83.6211" y2="607.4414"/><line style="stroke:#181818;stroke-width:0.5;stroke-dasharray:5.0,5.0;" x1="397" x2="397" y1="83.6211" y2="607.4414"/><line style="stroke:#181818;stroke-width:0.5;stroke-dasharray:5.0,5.0;" x1="792.5" x2="792.5" y1="83.6211" y2="607.4414"/><line style="stroke:#181818;stroke-width:0.5;stroke-dasharray:5.0,5.0;" x1="945.5" x2="945.5" y1="83.6211" y2="607.4414"/><line style="stroke:#181818;stroke-width:0.5;stroke-dasharray:5.0,5.0;" x1="1092.5" x2="1092.5" y1="83.6211" y2="607.4414"/><text fill="#000000" font-family="sans-serif" font-size="14" lengthAdjust="spacing" textLength="68" x="28" y="80.1074">Subscriber</text><ellipse cx="65" cy="13.5" fill="#E2E2F0" rx="8" ry="8" style="stroke:#181818;stroke-width:0.5;"/><path d="M65,21.5 L65,48.5 M52,29.5 L78,29.5 M65,48.5 L52,63.5 M65,48.5 L78,63.5 " fill="none" style="stroke:#181818;stroke-width:0.5;"/><text fill="#000000" font-family="sans-serif" font-size="14" lengthAdjust="spacing" textLength="68" x="28" y="621.5488">Subscriber</text><ellipse cx="65" cy="633.5625" fill="#E2E2F0" rx="8" ry="8" style="stroke:#181818;stroke-width:0.5;"/><path d="M65,641.5625 L65,668.5625 M52,649.5625 L78,649.5625 M65,668.5625 L52,683.5625 M65,668.5625 L78,683.5625 " fill="none" style="stroke:#181818;stroke-width:0.5;"/><rect fill="#E2E2F0" height="32.6211" rx="2.5" ry="2.5" style="stroke:#181818;stroke-width:0.5;" width="165" x="132.5" y="50"/><text fill="#000000" font-family="sans-serif" font-size="14" lengthAdjust="spacing" textLength="151" x="139.5" y="72.1074">:SubscriptionsController</text><rect fill="#E2E2F0" height="32.6211" rx="2.5" ry="2.5" style="stroke:#181818;stroke-width:0.5;" width="165" x="132.5" y="606.4414"/><text fill="#000000" font-family="sans-serif" font-size="14" lengthAdjust="spacing" textLength="151" x="139.5" y="628.5488">:SubscriptionsController</text><rect fill="#E2E2F0" height="32.6211" rx="2.5" ry="2.5" style="stroke:#181818;stroke-width:0.5;" width="150" x="322" y="50"/><text fill="#000000" font-family="sans-serif" font-size="14" lengthAdjust="spacing" textLength="136" x="329" y="72.1074">:SubscriptionsService</text><rect fill="#E2E2F0" height="32.6211" rx="2.5" ry="2.5" style="stroke:#181818;stroke-width:0.5;" width="150" x="322" y="606.4414"/><text fill="#000000" font-family="sans-serif" font-size="14" lengthAdjust="spacing" textLength="136" x="329" y="628.5488">:SubscriptionsService</text><rect fill="#E2E2F0" height="32.6211" rx="2.5" ry="2.5" style="stroke:#181818;stroke-width:0.5;" width="115" x="735.5" y="50"/><text fill="#000000" font-family="sans-serif" font-size="14" lengthAdjust="spacing" textLength="101" x="742.5" y="72.1074">:UserRepository</text><rect fill="#E2E2F0" height="32.6211" rx="2.5" ry="2.5" style="stroke:#181818;stroke-width:0.5;" width="115" x="735.5" y="606.4414"/><text fill="#000000" font-family="sans-serif" font-size="14" lengthAdjust="spacing" textLength="101" x="742.5" y="628.5488">:UserRepository</text><rect fill="#E2E2F0" height="32.6211" rx="2.5" ry="2.5" style="stroke:#181818;stroke-width:0.5;" width="171" x="860.5" y="50"/><text fill="#000000" font-family="sans-serif" font-size="14" lengthAdjust="spacing" textLength="157" x="867.5" y="72.1074">:SubscriptionsRepository</text><rect fill="#E2E2F0" height="32.6211" rx="2.5" ry="2.5" style="stroke:#181818;stroke-width:0.5;" width="171" x="860.5" y="606.4414"/><text fill="#000000" font-family="sans-serif" font-size="14" lengthAdjust="spacing" textLength="157" x="867.5" y="628.5488">:SubscriptionsRepository</text><rect fill="#E2E2F0" height="32.6211" rx="2.5" ry="2.5" style="stroke:#181818;stroke-width:0.5;" width="103" x="1041.5" y="50"/><text fill="#000000" font-family="sans-serif" font-size="14" lengthAdjust="spacing" textLength="89" x="1048.5" y="72.1074">:Subscriptions</text><rect fill="#E2E2F0" height="32.6211" rx="2.5" ry="2.5" style="stroke:#181818;stroke-width:0.5;" width="103" x="1041.5" y="606.4414"/><text fill="#000000" font-family="sans-serif" font-size="14" lengthAdjust="spacing" textLength="89" x="1048.5" y="628.5488">:Subscriptions</text><rect fill="#FFFFFF" height="472.5293" style="stroke:#181818;stroke-width:1.0;" width="10" x="210" y="116.9121"/><rect fill="#FFFFFF" height="381.0107" style="stroke:#181818;stroke-width:1.0;" width="10" x="392" y="148.2031"/><rect fill="#FFFFFF" height="51.582" style="stroke:#181818;stroke-width:1.0;" width="10" x="788" y="179.4941"/><rect fill="#FFFFFF" height="77.5186" style="stroke:#181818;stroke-width:1.0;" width="10" x="941" y="282.6582"/><rect fill="#FFFFFF" height="31.291" style="stroke:#181818;stroke-width:1.0;" width="10" x="1088" y="437.6953"/><polygon fill="#181818" points="198,112.9121,208,116.9121,198,120.9121,202,116.9121" style="stroke:#181818;stroke-width:1.0;"/><line style="stroke:#181818;stroke-width:1.0;" x1="65" x2="204" y1="116.9121" y2="116.9121"/><text fill="#000000" font-family="sans-serif" font-size="13" font-weight="bold" lengthAdjust="spacing" textLength="7" x="72" y="111.6494">1</text><text fill="#000000" font-family="sans-serif" font-size="13" lengthAdjust="spacing" textLength="115" x="83" y="111.6494">GET /subscriptions/</text><polygon fill="#181818" points="380,144.2031,390,148.2031,380,152.2031,384,148.2031" style="stroke:#181818;stroke-width:1.0;"/><line style="stroke:#181818;stroke-width:1.0;" x1="220" x2="386" y1="148.2031" y2="148.2031"/><text fill="#000000" font-family="sans-serif" font-size="13" font-weight="bold" lengthAdjust="spacing" textLength="7" x="227" y="142.9404">2</text><text fill="#000000" font-family="sans-serif" font-size="13" lengthAdjust="spacing" textLength="142" x="238" y="142.9404">Plan plan = planDetails()</text><polygon fill="#181818" points="776,175.4941,786,179.4941,776,183.4941,780,179.4941" style="stroke:#181818;stroke-width:1.0;"/><line style="stroke:#181818;stroke-width:1.0;" x1="402" x2="782" y1="179.4941" y2="179.4941"/><text fill="#000000" font-family="sans-serif" font-size="13" font-weight="bold" lengthAdjust="spacing" textLength="7" x="409" y="174.2314">3</text><text fill="#000000" font-family="sans-serif" font-size="13" lengthAdjust="spacing" textLength="356" x="420" y="174.2314">User user = userRepository.findById(Long.valueOf(newString))</text><polygon fill="#181818" points="413,227.0762,403,231.0762,413,235.0762,409,231.0762" style="stroke:#181818;stroke-width:1.0;"/><line style="stroke:#181818;stroke-width:1.0;stroke-dasharray:2.0,2.0;" x1="407" x2="792" y1="231.0762" y2="231.0762"/><text fill="#000000" font-family="sans-serif" font-size="13" font-weight="bold" lengthAdjust="spacing" textLength="7" x="419" y="225.8135">4</text><text fill="#000000" font-family="sans-serif" font-size="13" lengthAdjust="spacing" textLength="25" x="430" y="225.8135">user</text><path d="M803,192.4941 L803,253.4941 L1122,253.4941 L1122,202.4941 L1112,192.4941 L803,192.4941 " fill="#FEFFDD" style="stroke:#181818;stroke-width:0.5;"/><path d="M1112,192.4941 L1112,202.4941 L1122,202.4941 L1112,192.4941 " fill="#FEFFDD" style="stroke:#181818;stroke-width:0.5;"/><text fill="#000000" font-family="sans-serif" font-size="13" lengthAdjust="spacing" textLength="235" x="809" y="211.5225">if the user who is trying to get the details</text><text fill="#000000" font-family="sans-serif" font-size="13" lengthAdjust="spacing" textLength="241" x="809" y="228.8135">does not exist in the system the code will</text><text fill="#000000" font-family="sans-serif" font-size="13" lengthAdjust="spacing" textLength="298" x="809" y="246.1045">end here and throw a UsernameNotFoundException</text><polygon fill="#181818" points="929,278.6582,939,282.6582,929,286.6582,933,282.6582" style="stroke:#181818;stroke-width:1.0;"/><line style="stroke:#181818;stroke-width:1.0;" x1="402" x2="935" y1="282.6582" y2="282.6582"/><text fill="#000000" font-family="sans-serif" font-size="13" font-weight="bold" lengthAdjust="spacing" textLength="7" x="409" y="277.3955">5</text><text fill="#000000" font-family="sans-serif" font-size="13" lengthAdjust="spacing" textLength="394" x="420" y="277.3955">Optional &lt;Subscriptions&gt; subscription = repository.findByUser(user)</text><polygon fill="#181818" points="413,356.1768,403,360.1768,413,364.1768,409,360.1768" style="stroke:#181818;stroke-width:1.0;"/><line style="stroke:#181818;stroke-width:1.0;stroke-dasharray:2.0,2.0;" x1="407" x2="945" y1="360.1768" y2="360.1768"/><text fill="#000000" font-family="sans-serif" font-size="13" font-weight="bold" lengthAdjust="spacing" textLength="7" x="419" y="354.9141">6</text><text fill="#000000" font-family="sans-serif" font-size="13" lengthAdjust="spacing" textLength="70" x="430" y="354.9141">subscription</text><path d="M956,295.6582 L956,408.6582 L1135,408.6582 L1135,305.6582 L1125,295.6582 L956,295.6582 " fill="#FEFFDD" style="stroke:#181818;stroke-width:0.5;"/><path d="M1125,295.6582 L1125,305.6582 L1135,305.6582 L1125,295.6582 " fill="#FEFFDD" style="stroke:#181818;stroke-width:0.5;"/><text fill="#000000" font-family="sans-serif" font-size="13" lengthAdjust="spacing" textLength="57" x="962" y="314.6865">if the user</text><text fill="#000000" font-family="sans-serif" font-size="13" lengthAdjust="spacing" textLength="148" x="962" y="331.9775">who is trying to subscribe</text><text fill="#000000" font-family="sans-serif" font-size="13" lengthAdjust="spacing" textLength="156" x="962" y="349.2686">already has a subscription,</text><text fill="#000000" font-family="sans-serif" font-size="13" lengthAdjust="spacing" textLength="72" x="962" y="366.5596">the code will</text><text fill="#000000" font-family="sans-serif" font-size="13" lengthAdjust="spacing" textLength="110" x="962" y="383.8506">end here and throw</text><text fill="#000000" font-family="sans-serif" font-size="13" lengthAdjust="spacing" textLength="158" x="962" y="401.1416">a IllegalArgumentException</text><polygon fill="#181818" points="1076,433.6953,1086,437.6953,1076,441.6953,1080,437.6953" style="stroke:#181818;stroke-width:1.0;"/><line style="stroke:#181818;stroke-width:1.0;" x1="402" x2="1082" y1="437.6953" y2="437.6953"/><text fill="#000000" font-family="sans-serif" font-size="13" font-weight="bold" lengthAdjust="spacing" textLength="7" x="409" y="432.4326">7</text><text fill="#000000" font-family="sans-serif" font-size="13" lengthAdjust="spacing" textLength="196" x="420" y="432.4326">Plan plan = subscription.getPlan()</text><polygon fill="#181818" points="413,464.9863,403,468.9863,413,472.9863,409,468.9863" style="stroke:#181818;stroke-width:1.0;"/><line style="stroke:#181818;stroke-width:1.0;stroke-dasharray:2.0,2.0;" x1="407" x2="1092" y1="468.9863" y2="468.9863"/><text fill="#000000" font-family="sans-serif" font-size="13" font-weight="bold" lengthAdjust="spacing" textLength="7" x="419" y="463.7236">8</text><text fill="#000000" font-family="sans-serif" font-size="13" lengthAdjust="spacing" textLength="24" x="430" y="463.7236">plan</text><polygon fill="#181818" points="231,525.2139,221,529.2139,231,533.2139,227,529.2139" style="stroke:#181818;stroke-width:1.0;"/><line style="stroke:#181818;stroke-width:1.0;stroke-dasharray:2.0,2.0;" x1="225" x2="396" y1="529.2139" y2="529.2139"/><text fill="#000000" font-family="sans-serif" font-size="13" font-weight="bold" lengthAdjust="spacing" textLength="7" x="237" y="523.9512">9</text><text fill="#000000" font-family="sans-serif" font-size="13" lengthAdjust="spacing" textLength="24" x="248" y="523.9512">plan</text><path d="M5,481.9863 L5,560.9863 L205,560.9863 L205,491.9863 L195,481.9863 L5,481.9863 " fill="#FEFFDD" style="stroke:#181818;stroke-width:0.5;"/><path d="M195,481.9863 L195,491.9863 L205,491.9863 L195,481.9863 " fill="#FEFFDD" style="stroke:#181818;stroke-width:0.5;"/><text fill="#000000" font-family="sans-serif" font-size="13" lengthAdjust="spacing" textLength="135" x="11" y="501.0146">The controller here also</text><text fill="#000000" font-family="sans-serif" font-size="13" lengthAdjust="spacing" textLength="157" x="11" y="518.3057">creates an ResponseEntity</text><text fill="#000000" font-family="sans-serif" font-size="13" lengthAdjust="spacing" textLength="173" x="11" y="535.5967">to show the user the plan with</text><text fill="#000000" font-family="sans-serif" font-size="13" lengthAdjust="spacing" textLength="179" x="11" y="552.8877">"plansViewMapper" as objView</text><polygon fill="#181818" points="76,585.4414,66,589.4414,76,593.4414,72,589.4414" style="stroke:#181818;stroke-width:1.0;"/><line style="stroke:#181818;stroke-width:1.0;stroke-dasharray:2.0,2.0;" x1="70" x2="214" y1="589.4414" y2="589.4414"/><text fill="#000000" font-family="sans-serif" font-size="13" font-weight="bold" lengthAdjust="spacing" textLength="14" x="82" y="584.1787">10</text><text fill="#000000" font-family="sans-serif" font-size="13" lengthAdjust="spacing" textLength="52" x="100" y="584.1787">planView</text><!--SRC=[XLF1Rjim3BthAuXSbW1pV0_Q0bcR3GMsTMYwtHMPiJN8aYVHSVtterGxSRArlTYK-FH8Ff8VAg8chFAyCT9IMvkbSdKUy4-BLc5MQ5bwMGlPafEAz44IWhFfRDjwXru8mGxdORPjTq5vpNSpa07MIZJIarQwOMQOhGP_GzhPSEiiUMVC0BubRzw2Rz4VjCA4ZVO5zcT0_uYD2vepwHDgl7gBzU89-zvxCUA4M2l8RbBUi88lcoV8mnIOY-HYI4oN8JzONuWYmtNwtI59RS9y8KH2C79C6L8zqCRFTVgT4btkjIq-zVV5_AkpvV8WJOiF-xd5RajUstAn44UQx1GzaWXX7NVFwx8Y0Q3tG1M-HEag1pe0-PufW1oKICbRl6J9yC9X02O0VDQ1GDla3tqWh9EfN87GQMCOZBQ02Zs2P8CgxpgGgJmhQ_pkwBDhRR5vLfZ44X4USpj9CRG2LWy98GrSdVNX1gPgiqh-Kg4ORHwBMuYHRAB7zFNhkl3f7sN2EENibCQZB7geU2Za6UT7zhulIgI0Urw2KfgrBziQBVrFbQaivvCqZRdafaNVF5Lyh7QLi0F5CBB3tL2vmJqN_fJI7RTooDG49q1nbSJTvuYF61gM7pUMDFKY2L9nTu-J58sKMwUf4Z2BTlYbiViccsPOThVx7MzE1V8kNMNPk4pnIVB_1G00]--></g></svg>