<?xml version="1.0" encoding="us-ascii" standalone="no"?><svg xmlns="http://www.w3.org/2000/svg" xmlns:xlink="http://www.w3.org/1999/xlink" contentStyleType="text/css" height="643px" preserveAspectRatio="none" style="width:1210px;height:643px;background:#FFFFFF;" version="1.1" viewBox="0 0 1210 643" width="1210px" zoomAndPan="magnify"><defs/><g><!--class SubscriptionsRepository--><g id="elem_SubscriptionsRepository"><rect codeLine="30" fill="#F1F1F1" height="139.0625" id="SubscriptionsRepository" rx="2.5" ry="2.5" style="stroke:#181818;stroke-width:0.5;" width="658" x="545" y="278.95"/><text fill="#000000" font-family="sans-serif" font-size="12" font-style="italic" lengthAdjust="spacing" textLength="62" x="843" y="295.5516">&#171;interface&#187;</text><text fill="#000000" font-family="sans-serif" font-size="14" font-style="italic" lengthAdjust="spacing" textLength="166" x="791" y="311.618">SubscriptionsRepository</text><line style="stroke:#181818;stroke-width:0.5;" x1="546" x2="1202" y1="319.5711" y2="319.5711"/><line style="stroke:#181818;stroke-width:0.5;" x1="546" x2="1202" y1="327.5711" y2="327.5711"/><ellipse cx="556" cy="341.3152" fill="#84BE84" rx="3" ry="3" style="stroke:#038048;stroke-width:1.0;"/><text fill="#000000" font-family="sans-serif" font-size="14" lengthAdjust="spacing" textLength="632" x="565" y="345.1062">findByActiveStatus_ActiveAndUser(Boolean true, String username): Optional&lt;Subscriptions&gt;</text><ellipse cx="556" cy="357.8035" fill="#84BE84" rx="3" ry="3" style="stroke:#038048;stroke-width:1.0;"/><text fill="#000000" font-family="sans-serif" font-size="14" lengthAdjust="spacing" textLength="288" x="565" y="361.5945">save(S entity) : &lt;S extends Subscriptions&gt;</text><ellipse cx="556" cy="374.2918" fill="#84BE84" rx="3" ry="3" style="stroke:#038048;stroke-width:1.0;"/><text fill="#000000" font-family="sans-serif" font-size="14" lengthAdjust="spacing" textLength="414" x="565" y="378.0828">getPlansFromOtherAPI(String name): HttpResponse&lt;String&gt;</text><ellipse cx="556" cy="390.7801" fill="#84BE84" rx="3" ry="3" style="stroke:#038048;stroke-width:1.0;"/><text fill="#000000" font-family="sans-serif" font-size="14" lengthAdjust="spacing" textLength="413" x="565" y="394.5711">getUserFromOtherAPI(String name) : HttpResponse&lt;String&gt;</text><ellipse cx="556" cy="407.2684" fill="#84BE84" rx="3" ry="3" style="stroke:#038048;stroke-width:1.0;"/><text fill="#000000" font-family="sans-serif" font-size="14" lengthAdjust="spacing" textLength="496" x="565" y="411.0594">getSubsFromOtherApi(String name,String auth) : HttpResponse&lt;String&gt;</text></g><!--class Subscriptions--><g id="elem_Subscriptions"><rect codeLine="5" fill="#F1F1F1" height="141.418" id="Subscriptions" rx="2.5" ry="2.5" style="stroke:#181818;stroke-width:0.5;" width="118" x="815" y="495.01"/><text fill="#000000" font-family="sans-serif" font-size="14" lengthAdjust="spacing" textLength="93" x="827.5" y="513.5452">Subscriptions</text><line style="stroke:#181818;stroke-width:0.5;" x1="816" x2="932" y1="521.4983" y2="521.4983"/><rect fill="none" height="6" style="stroke:#C82930;stroke-width:1.0;" width="6" x="823" y="532.2424"/><text fill="#000000" font-family="sans-serif" font-size="14" lengthAdjust="spacing" textLength="62" x="835" y="539.0334">startDate</text><rect fill="none" height="6" style="stroke:#C82930;stroke-width:1.0;" width="6" x="823" y="548.7307"/><text fill="#000000" font-family="sans-serif" font-size="14" lengthAdjust="spacing" textLength="57" x="835" y="555.5217">endDate</text><rect fill="none" height="6" style="stroke:#C82930;stroke-width:1.0;" width="6" x="823" y="565.219"/><text fill="#000000" font-family="sans-serif" font-size="14" lengthAdjust="spacing" textLength="92" x="835" y="572.01">paymentType</text><rect fill="none" height="6" style="stroke:#C82930;stroke-width:1.0;" width="6" x="823" y="581.7073"/><text fill="#000000" font-family="sans-serif" font-size="14" lengthAdjust="spacing" textLength="81" x="835" y="588.4983">activeStatus</text><rect fill="none" height="6" style="stroke:#C82930;stroke-width:1.0;" width="6" x="823" y="598.1955"/><text fill="#000000" font-family="sans-serif" font-size="14" lengthAdjust="spacing" textLength="30" x="835" y="604.9866">plan</text><rect fill="none" height="6" style="stroke:#C82930;stroke-width:1.0;" width="6" x="823" y="614.6838"/><text fill="#000000" font-family="sans-serif" font-size="14" lengthAdjust="spacing" textLength="30" x="835" y="621.4748">user</text><line style="stroke:#181818;stroke-width:0.5;" x1="816" x2="932" y1="628.428" y2="628.428"/></g><!--class SubscriptionsViewMapper--><g id="elem_SubscriptionsViewMapper"><rect codeLine="16" fill="#F1F1F1" height="58.9766" id="SubscriptionsViewMapper" rx="2.5" ry="2.5" style="stroke:#181818;stroke-width:0.5;" width="486" x="91" y="142.97"/><text fill="#000000" font-family="sans-serif" font-size="14" lengthAdjust="spacing" textLength="177" x="245.5" y="161.5052">SubscriptionsViewMapper</text><line style="stroke:#181818;stroke-width:0.5;" x1="92" x2="576" y1="169.4583" y2="169.4583"/><line style="stroke:#181818;stroke-width:0.5;" x1="92" x2="576" y1="177.4583" y2="177.4583"/><ellipse cx="102" cy="191.2024" fill="#84BE84" rx="3" ry="3" style="stroke:#038048;stroke-width:1.0;"/><text fill="#000000" font-family="sans-serif" font-size="14" lengthAdjust="spacing" textLength="460" x="111" y="194.9934">toSubscriptionsView(Subscription subscriptions):SubscriptionsView</text></g><!--class SubscriptionsController--><g id="elem_SubscriptionsController"><rect codeLine="19" fill="#F1F1F1" height="58.9766" id="SubscriptionsController" rx="2.5" ry="2.5" style="stroke:#181818;stroke-width:0.5;" width="738" x="7" y="7"/><text fill="#000000" font-family="sans-serif" font-size="14" lengthAdjust="spacing" textLength="163" x="294.5" y="25.5352">SubscriptionsController</text><line style="stroke:#181818;stroke-width:0.5;" x1="8" x2="744" y1="33.4883" y2="33.4883"/><line style="stroke:#181818;stroke-width:0.5;" x1="8" x2="744" y1="41.4883" y2="41.4883"/><ellipse cx="18" cy="55.2324" fill="#84BE84" rx="3" ry="3" style="stroke:#038048;stroke-width:1.0;"/><text fill="#000000" font-family="sans-serif" font-size="14" lengthAdjust="spacing" textLength="712" x="27" y="59.0234">renewAnualSubscription(final WebRequest request,final Strin auth):ResponseEntity&lt;SubscriptionsView&gt;</text></g><!--class SubscriptionsService--><g id="elem_SubscriptionsService"><rect codeLine="22" fill="#F1F1F1" height="58.9766" id="SubscriptionsService" rx="2.5" ry="2.5" style="stroke:#181818;stroke-width:0.5;" width="523" x="612.5" y="142.97"/><text fill="#000000" font-family="sans-serif" font-size="14" lengthAdjust="spacing" textLength="141" x="803.5" y="161.5052">SubscriptionsService</text><line style="stroke:#181818;stroke-width:0.5;" x1="613.5" x2="1134.5" y1="169.4583" y2="169.4583"/><line style="stroke:#181818;stroke-width:0.5;" x1="613.5" x2="1134.5" y1="177.4583" y2="177.4583"/><ellipse cx="623.5" cy="191.2024" fill="#84BE84" rx="3" ry="3" style="stroke:#038048;stroke-width:1.0;"/><text fill="#000000" font-family="sans-serif" font-size="14" lengthAdjust="spacing" textLength="497" x="632.5" y="194.9934">renewAnualSubscription(long desiredVersion, String auth):Subscriptions</text></g><!--link SubscriptionsController to SubscriptionsService--><g id="link_SubscriptionsController_SubscriptionsService"><path codeLine="42" d="M483.45,66.39 C567.08,88.89 676.8259,118.4217 760.5259,140.9317 " fill="none" id="SubscriptionsController-to-SubscriptionsService" style="stroke:#181818;stroke-width:1.0;stroke-dasharray:7.0,7.0;"/><polygon fill="#181818" points="766.32,142.49,758.6677,136.2899,761.4916,141.1915,756.59,144.0154,766.32,142.49" style="stroke:#181818;stroke-width:1.0;"/><polygon fill="#000000" points="663.8283,105.9242,655.8573,100.7364,654.3303,106.4124,663.8283,105.9242" style="stroke:#000000;stroke-width:1.0;"/><text fill="#000000" font-family="sans-serif" font-size="13" lengthAdjust="spacing" textLength="29" x="668" y="109.5384">uses</text></g><!--link SubscriptionsService to SubscriptionsRepository--><g id="link_SubscriptionsService_SubscriptionsRepository"><path codeLine="43" d="M874,202.2 C874,222.95 874,245.89 874,272.49 " fill="none" id="SubscriptionsService-to-SubscriptionsRepository" style="stroke:#181818;stroke-width:1.0;stroke-dasharray:7.0,7.0;"/><polygon fill="#181818" points="874,278.49,878,269.49,874,273.49,870,269.49,874,278.49" style="stroke:#181818;stroke-width:1.0;"/><polygon fill="#000000" points="879,245.6053,881.9389,236.5602,876.0611,236.5602,879,245.6053" style="stroke:#000000;stroke-width:1.0;"/><text fill="#000000" font-family="sans-serif" font-size="13" lengthAdjust="spacing" textLength="29" x="888" y="245.5184">uses</text></g><!--link SubscriptionsRepository to Subscriptions--><g id="link_SubscriptionsRepository_Subscriptions"><path codeLine="44" d="M874,418.47 C874,442.82 874,464.21 874,488.64 " fill="none" id="SubscriptionsRepository-to-Subscriptions" style="stroke:#181818;stroke-width:1.0;stroke-dasharray:7.0,7.0;"/><polygon fill="#181818" points="874,494.64,878,485.64,874,489.64,870,485.64,874,494.64" style="stroke:#181818;stroke-width:1.0;"/><polygon fill="#000000" points="879,451.6653,876.0611,460.7104,881.9389,460.7104,879,451.6653" style="stroke:#000000;stroke-width:1.0;"/><text fill="#000000" font-family="sans-serif" font-size="13" lengthAdjust="spacing" textLength="40" x="888" y="461.5784">record</text></g><!--link SubscriptionsController to SubscriptionsViewMapper--><g id="link_SubscriptionsController_SubscriptionsViewMapper"><path codeLine="45" d="M366.99,66.23 C359.9,88.83 351.8737,114.4444 344.7937,137.0444 " fill="none" id="SubscriptionsController-to-SubscriptionsViewMapper" style="stroke:#181818;stroke-width:1.0;stroke-dasharray:7.0,7.0;"/><polygon fill="#181818" points="343,142.77,349.5076,135.3774,344.4947,137.9987,341.8735,132.9858,343,142.77" style="stroke:#181818;stroke-width:1.0;"/><polygon fill="#000000" points="361.5045,109.3964,367.0143,101.6444,361.4055,99.8863,361.5045,109.3964" style="stroke:#000000;stroke-width:1.0;"/><text fill="#000000" font-family="sans-serif" font-size="13" lengthAdjust="spacing" textLength="29" x="372" y="109.5384">uses</text></g><!--SRC=[VLF1Rjim3BthAtIRWwJ9tJ0CfEs6zb2qYBVkEB0scmYG9PMYqnd5_drAv2PkRTSNco8Vt_CZzMt7x7owMZaDXfjQBqjRhqeDtbzK2hO4jTYf2cMfgDGeZXbPD4- -9ELOMUCtwAnNRAcLMQOC8pr3YNaknehbcv3XkV0CnDV064CqrJbmqDPe-6VhkWCeMUsnOE36ToL1RVngF9Bu9yGeswF2rpjm3YdIpjaEyad_HFf-UfOEgWFL2C-LDKnMwnCFeS7NjMb0z-kIPsL0oz_ujC6N1ZrBYkz5J1HCoaXeU3TBD-XTw8pV3Ijkiu6G_4WqggP0sgiIWvGf7TgQhQpGAyBg4Sc7iqLattRq7ngAQB0u3NTg0SIRc8TVgIxRTMzaVsAmDjMlCApaqbgDO2HJWoVMmnWDr3XBvVsnA-YF_voBkOSz9eN4eoCpcSei17yvxCud0qBj5laXx8Z_GRQ-vntI-k4swRWwdfkm-UykPp4LWGULapZv1V0WuWnqgWzSzEsTQX9jdbWjkLpceuDE3-vvcOknv11r7jSui7UV1zZWUTZPqbBrbSg9E_XEzny0]--></g></svg>