<?xml version="1.0" encoding="us-ascii" standalone="no"?><svg xmlns="http://www.w3.org/2000/svg" xmlns:xlink="http://www.w3.org/1999/xlink" contentStyleType="text/css" height="443px" preserveAspectRatio="none" style="width:543px;height:443px;background:#FFFFFF;" version="1.1" viewBox="0 0 543 443" width="543px" zoomAndPan="magnify"><defs/><g><rect fill="#FFFFFF" height="261.1289" style="stroke:#181818;stroke-width:1.0;" width="10" x="54.5" y="91.4883"/><rect fill="#FFFFFF" height="187.5078" style="stroke:#181818;stroke-width:1.0;" width="10" x="267.5" y="150.1094"/><rect fill="none" height="175.5078" style="stroke:#000000;stroke-width:1.5;" width="526.5" x="10" y="170.1094"/><line style="stroke:#181818;stroke-width:0.5;stroke-dasharray:5.0,5.0;" x1="59" x2="59" y1="81.4883" y2="362.6172"/><line style="stroke:#181818;stroke-width:0.5;stroke-dasharray:5.0,5.0;" x1="272.5" x2="272.5" y1="81.4883" y2="362.6172"/><text fill="#000000" font-family="sans-serif" font-size="14" lengthAdjust="spacing" textLength="73" x="20" y="78.5352">Subscriber</text><ellipse cx="59.5" cy="13.5" fill="#E2E2F0" rx="8" ry="8" style="stroke:#181818;stroke-width:0.5;"/><path d="M59.5,21.5 L59.5,48.5 M46.5,29.5 L72.5,29.5 M59.5,48.5 L46.5,63.5 M59.5,48.5 L72.5,63.5 " fill="none" style="stroke:#181818;stroke-width:0.5;"/><text fill="#000000" font-family="sans-serif" font-size="14" lengthAdjust="spacing" textLength="73" x="20" y="375.1523">Subscriber</text><ellipse cx="59.5" cy="386.6055" fill="#E2E2F0" rx="8" ry="8" style="stroke:#181818;stroke-width:0.5;"/><path d="M59.5,394.6055 L59.5,421.6055 M46.5,402.6055 L72.5,402.6055 M59.5,421.6055 L46.5,436.6055 M59.5,421.6055 L72.5,436.6055 " fill="none" style="stroke:#181818;stroke-width:0.5;"/><rect fill="#E2E2F0" height="30.4883" rx="2.5" ry="2.5" style="stroke:#181818;stroke-width:0.5;" width="66" x="239.5" y="50"/><text fill="#000000" font-family="sans-serif" font-size="14" lengthAdjust="spacing" textLength="52" x="246.5" y="70.5352">:System</text><rect fill="#E2E2F0" height="30.4883" rx="2.5" ry="2.5" style="stroke:#181818;stroke-width:0.5;" width="66" x="239.5" y="361.6172"/><text fill="#000000" font-family="sans-serif" font-size="14" lengthAdjust="spacing" textLength="52" x="246.5" y="382.1523">:System</text><rect fill="#FFFFFF" height="261.1289" style="stroke:#181818;stroke-width:1.0;" width="10" x="54.5" y="91.4883"/><rect fill="#FFFFFF" height="187.5078" style="stroke:#181818;stroke-width:1.0;" width="10" x="267.5" y="150.1094"/><polygon fill="#181818" points="260.5,108.7988,270.5,112.7988,260.5,116.7988,264.5,112.7988" style="stroke:#181818;stroke-width:1.0;"/><line style="stroke:#181818;stroke-width:1.0;" x1="64.5" x2="266.5" y1="112.7988" y2="112.7988"/><text fill="#000000" font-family="sans-serif" font-size="13" lengthAdjust="spacing" textLength="184" x="71.5" y="108.0566">PATCH /subscriptions/renew</text><line style="stroke:#181818;stroke-width:1.0;stroke-dasharray:2.0,2.0;" x1="272.5" x2="319.5" y1="137.1094" y2="137.1094"/><line style="stroke:#181818;stroke-width:1.0;stroke-dasharray:2.0,2.0;" x1="319.5" x2="319.5" y1="137.1094" y2="150.1094"/><line style="stroke:#181818;stroke-width:1.0;stroke-dasharray:2.0,2.0;" x1="278.5" x2="319.5" y1="150.1094" y2="150.1094"/><polygon fill="#181818" points="288.5,146.1094,278.5,150.1094,288.5,154.1094,284.5,150.1094" style="stroke:#181818;stroke-width:1.0;"/><text fill="#000000" font-family="sans-serif" font-size="13" lengthAdjust="spacing" textLength="202" x="284.5" y="132.3672">Checks Users in other machines</text><path d="M10,170.1094 L72,170.1094 L72,177.4199 L62,187.4199 L10,187.4199 L10,170.1094 " fill="#EEEEEE" style="stroke:#000000;stroke-width:1.5;"/><rect fill="none" height="175.5078" style="stroke:#000000;stroke-width:1.5;" width="526.5" x="10" y="170.1094"/><text fill="#000000" font-family="sans-serif" font-size="13" font-weight="bold" lengthAdjust="spacing" textLength="17" x="25" y="183.6777">alt</text><text fill="#000000" font-family="sans-serif" font-size="11" font-weight="bold" lengthAdjust="spacing" textLength="267" x="87" y="182.7441">[successful case - user exist and sub is locally]</text><line style="stroke:#181818;stroke-width:1.0;stroke-dasharray:2.0,2.0;" x1="277.5" x2="319.5" y1="208.7305" y2="208.7305"/><line style="stroke:#181818;stroke-width:1.0;stroke-dasharray:2.0,2.0;" x1="319.5" x2="319.5" y1="208.7305" y2="221.7305"/><line style="stroke:#181818;stroke-width:1.0;stroke-dasharray:2.0,2.0;" x1="278.5" x2="319.5" y1="221.7305" y2="221.7305"/><polygon fill="#181818" points="288.5,217.7305,278.5,221.7305,288.5,225.7305,284.5,221.7305" style="stroke:#181818;stroke-width:1.0;"/><text fill="#000000" font-family="sans-serif" font-size="13" lengthAdjust="spacing" textLength="118" x="284.5" y="203.9883">Checks Sub locally</text><line style="stroke:#181818;stroke-width:1.0;stroke-dasharray:2.0,2.0;" x1="277.5" x2="319.5" y1="251.041" y2="251.041"/><line style="stroke:#181818;stroke-width:1.0;stroke-dasharray:2.0,2.0;" x1="319.5" x2="319.5" y1="251.041" y2="264.041"/><line style="stroke:#181818;stroke-width:1.0;stroke-dasharray:2.0,2.0;" x1="278.5" x2="319.5" y1="264.041" y2="264.041"/><polygon fill="#181818" points="288.5,260.041,278.5,264.041,288.5,268.041,284.5,264.041" style="stroke:#181818;stroke-width:1.0;"/><text fill="#000000" font-family="sans-serif" font-size="13" lengthAdjust="spacing" textLength="240" x="284.5" y="246.2988">Advance to renew annual subscription</text><polygon fill="#181818" points="75.5,289.3516,65.5,293.3516,75.5,297.3516,71.5,293.3516" style="stroke:#181818;stroke-width:1.0;"/><line style="stroke:#181818;stroke-width:1.0;stroke-dasharray:2.0,2.0;" x1="69.5" x2="266.5" y1="293.3516" y2="293.3516"/><text fill="#000000" font-family="sans-serif" font-size="13" lengthAdjust="spacing" textLength="167" x="81.5" y="288.6094">Informs operation success</text><line style="stroke:#000000;stroke-width:1.0;stroke-dasharray:2.0,2.0;" x1="10" x2="536.5" y1="302.3516" y2="302.3516"/><text fill="#000000" font-family="sans-serif" font-size="11" font-weight="bold" lengthAdjust="spacing" textLength="311" x="15" y="312.9863">[failure case - user does not exist or sub is not locally]</text><polygon fill="#181818" points="75.5,333.6172,65.5,337.6172,75.5,341.6172,71.5,337.6172" style="stroke:#181818;stroke-width:1.0;"/><line style="stroke:#181818;stroke-width:1.0;stroke-dasharray:2.0,2.0;" x1="69.5" x2="271.5" y1="337.6172" y2="337.6172"/><text fill="#000000" font-family="sans-serif" font-size="13" lengthAdjust="spacing" textLength="133" x="81.5" y="332.875">Shows error message</text><!--SRC=[XP7DRi8m48JlVefHBZsbkUTG2S6XFI0XfNs0nLc8LV-aNXlAszUX52Zgpz7U6Sr-itT3IgEqJJDQyYaxUw-3QuJVCdlDTMze6yafqYb4L5rUYuvcpR422POBDKtCZX9FZ-K2zGEgjZj8ObUXnMhsF7z48v- -CPdWfOdiUQykilh6D1zOlmfUXAF0U8GqS8GZFHZFKY9jWcIjMMIJBJG9eqOkSl2xaGJoVH6iOGGsQBBsS5dp7FJ_0eNsxFz3FUjtLBf22ZYIbNYVoU8Q-iPUYchnv3SXEa4OET8a-e9IYcr1sf2nEV8tlZwmm8Tq0YqtEN5EVx_iUWphXh0NS8p5uae6RLdr_4ChYdr_FLakFW00]--></g></svg>