<?xml version="1.0" encoding="us-ascii" standalone="no"?><svg xmlns="http://www.w3.org/2000/svg" xmlns:xlink="http://www.w3.org/1999/xlink" contentStyleType="text/css" height="455px" preserveAspectRatio="none" style="width:1394px;height:455px;background:#FFFFFF;" version="1.1" viewBox="0 0 1394 455" width="1394px" zoomAndPan="magnify"><defs/><g><text fill="#000000" font-family="sans-serif" font-size="14" font-weight="bold" lengthAdjust="spacing" textLength="1366" x="10" y="28.5352">Software Design Document/ As Marketing director, I want to define a new Plan detailing the monthly and annual cost, the maximum number of devices and other characteristics of the plan</text><rect fill="#FFFFFF" height="235.1738" style="stroke:#181818;stroke-width:1.0;" width="10" x="538" y="128.9766"/><rect fill="#FFFFFF" height="100.9316" style="stroke:#181818;stroke-width:1.0;" width="10" x="739" y="187.5977"/><rect fill="none" height="88.9316" style="stroke:#000000;stroke-width:1.5;" width="455" x="466" y="207.5977"/><rect fill="none" height="46.6211" style="stroke:#000000;stroke-width:1.5;" width="321" x="466" y="310.5293"/><line style="stroke:#181818;stroke-width:0.5;stroke-dasharray:5.0,5.0;" x1="543" x2="543" y1="118.9766" y2="374.1504"/><line style="stroke:#181818;stroke-width:0.5;stroke-dasharray:5.0,5.0;" x1="744" x2="744" y1="118.9766" y2="374.1504"/><text fill="#000000" font-family="sans-serif" font-size="14" lengthAdjust="spacing" textLength="128" x="476" y="116.0234">Marketing Director</text><ellipse cx="543" cy="50.9883" fill="#E2E2F0" rx="8" ry="8" style="stroke:#181818;stroke-width:0.5;"/><path d="M543,58.9883 L543,85.9883 M530,66.9883 L556,66.9883 M543,85.9883 L530,100.9883 M543,85.9883 L556,100.9883 " fill="none" style="stroke:#181818;stroke-width:0.5;"/><text fill="#000000" font-family="sans-serif" font-size="14" lengthAdjust="spacing" textLength="128" x="476" y="386.6855">Marketing Director</text><ellipse cx="543" cy="398.1387" fill="#E2E2F0" rx="8" ry="8" style="stroke:#181818;stroke-width:0.5;"/><path d="M543,406.1387 L543,433.1387 M530,414.1387 L556,414.1387 M543,433.1387 L530,448.1387 M543,433.1387 L556,448.1387 " fill="none" style="stroke:#181818;stroke-width:0.5;"/><rect fill="#E2E2F0" height="30.4883" rx="2.5" ry="2.5" style="stroke:#181818;stroke-width:0.5;" width="66" x="711" y="87.4883"/><text fill="#000000" font-family="sans-serif" font-size="14" lengthAdjust="spacing" textLength="52" x="718" y="108.0234">:System</text><rect fill="#E2E2F0" height="30.4883" rx="2.5" ry="2.5" style="stroke:#181818;stroke-width:0.5;" width="66" x="711" y="373.1504"/><text fill="#000000" font-family="sans-serif" font-size="14" lengthAdjust="spacing" textLength="52" x="718" y="393.6855">:System</text><rect fill="#FFFFFF" height="235.1738" style="stroke:#181818;stroke-width:1.0;" width="10" x="538" y="128.9766"/><rect fill="#FFFFFF" height="100.9316" style="stroke:#181818;stroke-width:1.0;" width="10" x="739" y="187.5977"/><polygon fill="#181818" points="732,146.2871,742,150.2871,732,154.2871,736,150.2871" style="stroke:#181818;stroke-width:1.0;"/><line style="stroke:#181818;stroke-width:1.0;" x1="548" x2="738" y1="150.2871" y2="150.2871"/><text fill="#000000" font-family="sans-serif" font-size="13" lengthAdjust="spacing" textLength="77" x="555" y="145.5449">POST /plans</text><line style="stroke:#181818;stroke-width:1.0;stroke-dasharray:2.0,2.0;" x1="744" x2="791" y1="174.5977" y2="174.5977"/><line style="stroke:#181818;stroke-width:1.0;stroke-dasharray:2.0,2.0;" x1="791" x2="791" y1="174.5977" y2="187.5977"/><line style="stroke:#181818;stroke-width:1.0;stroke-dasharray:2.0,2.0;" x1="750" x2="791" y1="187.5977" y2="187.5977"/><polygon fill="#181818" points="760,183.5977,750,187.5977,760,191.5977,756,187.5977" style="stroke:#181818;stroke-width:1.0;"/><text fill="#000000" font-family="sans-serif" font-size="13" lengthAdjust="spacing" textLength="124" x="756" y="169.8555">Gets data from Post</text><path d="M466,207.5977 L528,207.5977 L528,214.9082 L518,224.9082 L466,224.9082 L466,207.5977 " fill="#EEEEEE" style="stroke:#000000;stroke-width:1.5;"/><rect fill="none" height="88.9316" style="stroke:#000000;stroke-width:1.5;" width="455" x="466" y="207.5977"/><text fill="#000000" font-family="sans-serif" font-size="13" font-weight="bold" lengthAdjust="spacing" textLength="17" x="481" y="221.166">alt</text><text fill="#000000" font-family="sans-serif" font-size="11" font-weight="bold" lengthAdjust="spacing" textLength="199" x="543" y="220.2324">[successful case - data is accepted]</text><line style="stroke:#181818;stroke-width:1.0;stroke-dasharray:2.0,2.0;" x1="749" x2="791" y1="246.2188" y2="246.2188"/><line style="stroke:#181818;stroke-width:1.0;stroke-dasharray:2.0,2.0;" x1="791" x2="791" y1="246.2188" y2="259.2188"/><line style="stroke:#181818;stroke-width:1.0;stroke-dasharray:2.0,2.0;" x1="750" x2="791" y1="259.2188" y2="259.2188"/><polygon fill="#181818" points="760,255.2188,750,259.2188,760,263.2188,756,259.2188" style="stroke:#181818;stroke-width:1.0;"/><text fill="#000000" font-family="sans-serif" font-size="13" lengthAdjust="spacing" textLength="153" x="756" y="241.4766">Advance to create a Plan</text><polygon fill="#181818" points="559,284.5293,549,288.5293,559,292.5293,555,288.5293" style="stroke:#181818;stroke-width:1.0;"/><line style="stroke:#181818;stroke-width:1.0;stroke-dasharray:2.0,2.0;" x1="553" x2="743" y1="288.5293" y2="288.5293"/><text fill="#000000" font-family="sans-serif" font-size="13" lengthAdjust="spacing" textLength="167" x="565" y="283.7871">Informs operation success</text><path d="M466,310.5293 L528,310.5293 L528,317.8398 L518,327.8398 L466,327.8398 L466,310.5293 " fill="#EEEEEE" style="stroke:#000000;stroke-width:1.5;"/><rect fill="none" height="46.6211" style="stroke:#000000;stroke-width:1.5;" width="321" x="466" y="310.5293"/><text fill="#000000" font-family="sans-serif" font-size="13" font-weight="bold" lengthAdjust="spacing" textLength="17" x="481" y="324.0977">alt</text><text fill="#000000" font-family="sans-serif" font-size="11" font-weight="bold" lengthAdjust="spacing" textLength="199" x="543" y="323.1641">[failure case - data is not accepted]</text><polygon fill="#181818" points="559,345.1504,549,349.1504,559,353.1504,555,349.1504" style="stroke:#181818;stroke-width:1.0;"/><line style="stroke:#181818;stroke-width:1.0;stroke-dasharray:2.0,2.0;" x1="553" x2="743" y1="349.1504" y2="349.1504"/><text fill="#000000" font-family="sans-serif" font-size="13" lengthAdjust="spacing" textLength="133" x="565" y="344.4082">Shows error message</text><!--SRC=[bPAnRW8n44Jx-ueHJHe8FKKaf9CY2XGayWCRUu-pShQ9lORmzraV2KGeGafnpNhcvitQ3xt8FY_cy_r0GOeV7atqyymVXOFXcNMqI-GRCX8J9cjAxomkxD2wn7Ks0MMisqQS38njxEH8YT5oThk0DfhYESWSIrLTpFRRFCKAHus5H5ZkN60G0X-nKHYT2BcXwgLd-1Ya7qwWOFKBXGQOc6LwFgHFvuj7AFwD4sAdveCpd4TvL4c2wIbf3KukYpEvYggrzcvgFtSWuLfbtMBsXCbYUyh2Ve85DY_RLumRoirrFhjHFRDaM192bwB7HkaQ6WIv62N9NL5YoepPMUGKJW_smlOQV_dVdPobFP3UJLsQILnTD2xing8r5bY5BYQlPVUSI5mCFpIDvJz26mws6Q4xNNtHYxmX3b7-GJqYRFjupE2Kz05vJQOTtmd_TR9klm00]--></g></svg>