<?xml version="1.0" encoding="UTF-8" standalone="no"?><svg xmlns="http://www.w3.org/2000/svg" xmlns:xlink="http://www.w3.org/1999/xlink" contentStyleType="text/css" height="337.6px" preserveAspectRatio="none" style="width:900px;height:337px;background:#FFFFFF;" version="1.1" viewBox="0 0 900 337" width="900.8px" zoomAndPan="magnify"><defs/><g><rect fill="none" height="22.0875" id="_title" style="stroke:none;stroke-width:0.8000000000000002;" width="886.4" x="4" y="8"/><text fill="#000000" font-family="sans-serif" font-size="11.2" font-weight="bold" lengthAdjust="spacing" textLength="878.4" x="8" y="23.6266">Software Design Document /  As Product Manager or Financial director, I want to know the year-to-date revenue of my  company filtered/broken down by plan</text><rect fill="#FFFFFF" height="159.2875" style="stroke:#181818;stroke-width:0.8000000000000002;" width="8" x="340.2" y="104.975"/><rect fill="#FFFFFF" height="79.2438" style="stroke:#181818;stroke-width:0.8000000000000002;" width="8" x="509.8" y="122.8563"/><rect fill="none" height="73.6438" style="stroke:#000000;stroke-width:1.2000000000000002;" width="402.8" x="246.2" y="134.8563"/><rect fill="none" height="38.9625" style="stroke:#000000;stroke-width:1.2000000000000002;" width="301.2" x="246.2" y="219.7"/><line style="stroke:#181818;stroke-width:0.4000000000000001;stroke-dasharray:5.0,5.0;" x1="343.8" x2="343.8" y1="96.975" y2="272.2625"/><line style="stroke:#181818;stroke-width:0.4000000000000001;stroke-dasharray:5.0,5.0;" x1="513.8" x2="513.8" y1="96.975" y2="272.2625"/><text fill="#000000" font-family="sans-serif" font-size="11.2" lengthAdjust="spacing" textLength="175.2" x="254.2" y="94.5141">Project Manager/Financial Director</text><ellipse cx="344.2" cy="41.6875" fill="#E2E2F0" rx="6.4" ry="6.4" style="stroke:#181818;stroke-width:0.4000000000000001;"/><path d="M344.2,48.0875 L344.2,69.6875 M333.8,54.4875 L354.6,54.4875 M344.2,69.6875 L333.8,81.6875 M344.2,69.6875 L354.6,81.6875 " fill="none" style="stroke:#181818;stroke-width:0.4000000000000001;"/><text fill="#000000" font-family="sans-serif" font-size="11.2" lengthAdjust="spacing" textLength="175.2" x="254.2" y="283.0891">Project Manager/Financial Director</text><ellipse cx="344.2" cy="292.35" fill="#E2E2F0" rx="6.4" ry="6.4" style="stroke:#181818;stroke-width:0.4000000000000001;"/><path d="M344.2,298.75 L344.2,320.35 M333.8,305.15 L354.6,305.15 M344.2,320.35 L333.8,332.35 M344.2,320.35 L354.6,332.35 " fill="none" style="stroke:#181818;stroke-width:0.4000000000000001;"/><rect fill="#E2E2F0" height="25.2875" rx="2" ry="2" style="stroke:#181818;stroke-width:0.4000000000000001;" width="51.2" x="488.2" y="70.8875"/><text fill="#000000" font-family="sans-serif" font-size="11.2" lengthAdjust="spacing" textLength="40" x="493.8" y="88.1141">:System</text><rect fill="#E2E2F0" height="25.2875" rx="2" ry="2" style="stroke:#181818;stroke-width:0.4000000000000001;" width="51.2" x="488.2" y="271.4625"/><text fill="#000000" font-family="sans-serif" font-size="11.2" lengthAdjust="spacing" textLength="40" x="493.8" y="288.6891">:System</text><rect fill="#FFFFFF" height="159.2875" style="stroke:#181818;stroke-width:0.8000000000000002;" width="8" x="340.2" y="104.975"/><rect fill="#FFFFFF" height="79.2438" style="stroke:#181818;stroke-width:0.8000000000000002;" width="8" x="509.8" y="122.8563"/><polygon fill="#181818" points="500.2,119.6563,508.2,122.8563,500.2,126.0563,503.4,122.8563" style="stroke:#181818;stroke-width:0.8000000000000002;"/><line style="stroke:#181818;stroke-width:0.8000000000000002;" x1="348.2" x2="505" y1="122.8563" y2="122.8563"/><text fill="#000000" font-family="sans-serif" font-size="10.4" lengthAdjust="spacing" textLength="146.4" x="353.8" y="118.9711">GET dashboard/currentRevenue</text><path d="M246.2,134.8563 L295,134.8563 L295,141.5375 L287,149.5375 L246.2,149.5375 L246.2,134.8563 " fill="#EEEEEE" style="stroke:#000000;stroke-width:1.2000000000000002;"/><rect fill="none" height="73.6438" style="stroke:#000000;stroke-width:1.2000000000000002;" width="402.8" x="246.2" y="134.8563"/><text fill="#000000" font-family="sans-serif" font-size="10.4" font-weight="bold" lengthAdjust="spacing" textLength="12.8" x="258.2" y="146.4523">alt</text><text fill="#000000" font-family="sans-serif" font-size="8.8" font-weight="bold" lengthAdjust="spacing" textLength="157.6" x="307" y="145.5914">[successful case - data is accepted]</text><line style="stroke:#181818;stroke-width:0.8000000000000002;stroke-dasharray:2.0,2.0;" x1="517.8" x2="551.4" y1="167.4188" y2="167.4188"/><line style="stroke:#181818;stroke-width:0.8000000000000002;stroke-dasharray:2.0,2.0;" x1="551.4" x2="551.4" y1="167.4188" y2="177.8188"/><line style="stroke:#181818;stroke-width:0.8000000000000002;stroke-dasharray:2.0,2.0;" x1="518.6" x2="551.4" y1="177.8188" y2="177.8188"/><polygon fill="#181818" points="526.6,174.6188,518.6,177.8188,526.6,181.0188,523.4,177.8188" style="stroke:#181818;stroke-width:0.8000000000000002;"/><text fill="#000000" font-family="sans-serif" font-size="10.4" lengthAdjust="spacing" textLength="116" x="523.4" y="163.5336">Gets data from Database</text><polygon fill="#181818" points="357,198.9,349,202.1,357,205.3,353.8,202.1" style="stroke:#181818;stroke-width:0.8000000000000002;"/><line style="stroke:#181818;stroke-width:0.8000000000000002;stroke-dasharray:2.0,2.0;" x1="352.2" x2="513" y1="202.1" y2="202.1"/><text fill="#000000" font-family="sans-serif" font-size="10.4" lengthAdjust="spacing" textLength="121.6" x="361.8" y="198.2148">Informs operation success</text><path d="M246.2,219.7 L295,219.7 L295,226.3813 L287,234.3813 L246.2,234.3813 L246.2,219.7 " fill="#EEEEEE" style="stroke:#000000;stroke-width:1.2000000000000002;"/><rect fill="none" height="38.9625" style="stroke:#000000;stroke-width:1.2000000000000002;" width="301.2" x="246.2" y="219.7"/><text fill="#000000" font-family="sans-serif" font-size="10.4" font-weight="bold" lengthAdjust="spacing" textLength="12.8" x="258.2" y="231.2961">alt</text><text fill="#000000" font-family="sans-serif" font-size="8.8" font-weight="bold" lengthAdjust="spacing" textLength="153.6" x="307" y="230.4352">[failure case - data is not accepted]</text><polygon fill="#181818" points="357,249.0625,349,252.2625,357,255.4625,353.8,252.2625" style="stroke:#181818;stroke-width:0.8000000000000002;"/><line style="stroke:#181818;stroke-width:0.8000000000000002;stroke-dasharray:2.0,2.0;" x1="352.2" x2="513" y1="252.2625" y2="252.2625"/><text fill="#000000" font-family="sans-serif" font-size="10.4" lengthAdjust="spacing" textLength="100.8" x="361.8" y="248.3773">Shows error message</text><!--MD5=[35dc18c0329c8475fd08f111e410a7ce]
@startuml
'https://plantuml.com/sequence-diagram
actor "Project Manager/Financial Director" as MD
title Software Design Document /  As Product Manager or Financial director, I want to know the year-to-date revenue of my  company filtered/broken down by plan


activate MD
MD -> ":System" : GET dashboard/currentRevenue
alt successful case - data is accepted
activate ":System"
":System" - -> ":System" : Gets data from Database
":System" - -> MD : Informs operation success
deactivate ":System"

end

alt failure case - data is not accepted
activate ":System"
":System" - -> MD : Shows error message
deactivate ":System"

end
deactivate MD
@enduml

@startuml
actor "Project Manager/Financial Director" as MD
title Software Design Document /  As Product Manager or Financial director, I want to know the year-to-date revenue of my  company filtered/broken down by plan


activate MD
MD -> ":System" : GET dashboard/currentRevenue
alt successful case - data is accepted
activate ":System"
":System" - -> ":System" : Gets data from Database
":System" - -> MD : Informs operation success
deactivate ":System"

end

alt failure case - data is not accepted
activate ":System"
":System" - -> MD : Shows error message
deactivate ":System"

end
deactivate MD
@enduml

PlantUML version 1.2022.12(Sun Oct 23 19:12:26 BST 2022)
(GPL source distribution)
Java Runtime: OpenJDK Runtime Environment
JVM: OpenJDK 64-Bit Server VM
Default Encoding: Cp1252
Language: pt
Country: PT
--></g></svg>