<?xml version="1.0" encoding="us-ascii" standalone="no"?><svg xmlns="http://www.w3.org/2000/svg" xmlns:xlink="http://www.w3.org/1999/xlink" contentStyleType="text/css" height="885px" preserveAspectRatio="none" style="width:1918px;height:885px;background:#FFFFFF;" version="1.1" viewBox="0 0 1918 885" width="1918px" zoomAndPan="magnify"><defs/><g><rect fill="#FFFFFF" height="673.3848" style="stroke:#181818;stroke-width:1.0;" width="10" x="273" y="112.7988"/><rect fill="#FFFFFF" height="588.7979" style="stroke:#181818;stroke-width:1.0;" width="10" x="840" y="142.1094"/><rect fill="#FFFFFF" height="55.2764" style="stroke:#181818;stroke-width:1.0;" width="10" x="1323" y="171.4199"/><rect fill="#FFFFFF" height="335.0371" style="stroke:#181818;stroke-width:1.0;" width="10" x="1323" y="281.9727"/><rect fill="#FFFFFF" height="59.7764" style="stroke:#181818;stroke-width:1.0;" width="10" x="1328" y="319.2832"/><rect fill="#FFFFFF" height="79.2422" style="stroke:#181818;stroke-width:1.0;" width="10" x="1328" y="442.8359"/><rect fill="#FFFFFF" height="29.3105" style="stroke:#181818;stroke-width:1.0;" width="10" x="1323" y="646.3203"/><rect fill="#FFFFFF" height="29.3105" style="stroke:#181818;stroke-width:1.0;" width="10" x="1803" y="558.3887"/><line style="stroke:#181818;stroke-width:0.5;stroke-dasharray:5.0,5.0;" x1="67" x2="67" y1="81.4883" y2="804.1836"/><line style="stroke:#181818;stroke-width:0.5;stroke-dasharray:5.0,5.0;" x1="277.5" x2="277.5" y1="81.4883" y2="804.1836"/><line style="stroke:#181818;stroke-width:0.5;stroke-dasharray:5.0,5.0;" x1="844.5" x2="844.5" y1="81.4883" y2="804.1836"/><line style="stroke:#181818;stroke-width:0.5;stroke-dasharray:5.0,5.0;" x1="1328" x2="1328" y1="81.4883" y2="804.1836"/><line style="stroke:#181818;stroke-width:0.5;stroke-dasharray:5.0,5.0;" x1="1808" x2="1808" y1="81.4883" y2="804.1836"/><text fill="#000000" font-family="sans-serif" font-size="14" lengthAdjust="spacing" textLength="100" x="14" y="78.5352">New Costumer</text><ellipse cx="67" cy="13.5" fill="#E2E2F0" rx="8" ry="8" style="stroke:#181818;stroke-width:0.5;"/><path d="M67,21.5 L67,48.5 M54,29.5 L80,29.5 M67,48.5 L54,63.5 M67,48.5 L80,63.5 " fill="none" style="stroke:#181818;stroke-width:0.5;"/><text fill="#000000" font-family="sans-serif" font-size="14" lengthAdjust="spacing" textLength="100" x="14" y="816.7188">New Costumer</text><ellipse cx="67" cy="828.1719" fill="#E2E2F0" rx="8" ry="8" style="stroke:#181818;stroke-width:0.5;"/><path d="M67,836.1719 L67,863.1719 M54,844.1719 L80,844.1719 M67,863.1719 L54,878.1719 M67,863.1719 L80,878.1719 " fill="none" style="stroke:#181818;stroke-width:0.5;"/><rect fill="#E2E2F0" height="30.4883" rx="2.5" ry="2.5" style="stroke:#181818;stroke-width:0.5;" width="181" x="187.5" y="50"/><text fill="#000000" font-family="sans-serif" font-size="14" lengthAdjust="spacing" textLength="167" x="194.5" y="70.5352">:SubscriptionsController</text><rect fill="#E2E2F0" height="30.4883" rx="2.5" ry="2.5" style="stroke:#181818;stroke-width:0.5;" width="181" x="187.5" y="803.1836"/><text fill="#000000" font-family="sans-serif" font-size="14" lengthAdjust="spacing" textLength="167" x="194.5" y="823.7188">:SubscriptionsController</text><rect fill="#E2E2F0" height="30.4883" rx="2.5" ry="2.5" style="stroke:#181818;stroke-width:0.5;" width="159" x="765.5" y="50"/><text fill="#000000" font-family="sans-serif" font-size="14" lengthAdjust="spacing" textLength="145" x="772.5" y="70.5352">:SubscriptionsService</text><rect fill="#E2E2F0" height="30.4883" rx="2.5" ry="2.5" style="stroke:#181818;stroke-width:0.5;" width="159" x="765.5" y="803.1836"/><text fill="#000000" font-family="sans-serif" font-size="14" lengthAdjust="spacing" textLength="145" x="772.5" y="823.7188">:SubscriptionsService</text><rect fill="#E2E2F0" height="30.4883" rx="2.5" ry="2.5" style="stroke:#181818;stroke-width:0.5;" width="184" x="1236" y="50"/><text fill="#000000" font-family="sans-serif" font-size="14" lengthAdjust="spacing" textLength="170" x="1243" y="70.5352">:SubscriptionsRepository</text><rect fill="#E2E2F0" height="30.4883" rx="2.5" ry="2.5" style="stroke:#181818;stroke-width:0.5;" width="184" x="1236" y="803.1836"/><text fill="#000000" font-family="sans-serif" font-size="14" lengthAdjust="spacing" textLength="170" x="1243" y="823.7188">:SubscriptionsRepository</text><rect fill="#E2E2F0" height="30.4883" rx="2.5" ry="2.5" style="stroke:#181818;stroke-width:0.5;" width="208" x="1704" y="50"/><text fill="#000000" font-family="sans-serif" font-size="14" lengthAdjust="spacing" textLength="194" x="1711" y="70.5352">:CreateSubscriptionsMapper</text><rect fill="#E2E2F0" height="30.4883" rx="2.5" ry="2.5" style="stroke:#181818;stroke-width:0.5;" width="208" x="1704" y="803.1836"/><text fill="#000000" font-family="sans-serif" font-size="14" lengthAdjust="spacing" textLength="194" x="1711" y="823.7188">:CreateSubscriptionsMapper</text><rect fill="#FFFFFF" height="673.3848" style="stroke:#181818;stroke-width:1.0;" width="10" x="273" y="112.7988"/><rect fill="#FFFFFF" height="588.7979" style="stroke:#181818;stroke-width:1.0;" width="10" x="840" y="142.1094"/><rect fill="#FFFFFF" height="55.2764" style="stroke:#181818;stroke-width:1.0;" width="10" x="1323" y="171.4199"/><rect fill="#FFFFFF" height="335.0371" style="stroke:#181818;stroke-width:1.0;" width="10" x="1323" y="281.9727"/><rect fill="#FFFFFF" height="59.7764" style="stroke:#181818;stroke-width:1.0;" width="10" x="1328" y="319.2832"/><rect fill="#FFFFFF" height="79.2422" style="stroke:#181818;stroke-width:1.0;" width="10" x="1328" y="442.8359"/><rect fill="#FFFFFF" height="29.3105" style="stroke:#181818;stroke-width:1.0;" width="10" x="1323" y="646.3203"/><rect fill="#FFFFFF" height="29.3105" style="stroke:#181818;stroke-width:1.0;" width="10" x="1803" y="558.3887"/><polygon fill="#181818" points="261,108.7988,271,112.7988,261,116.7988,265,112.7988" style="stroke:#181818;stroke-width:1.0;"/><line style="stroke:#181818;stroke-width:1.0;" x1="67" x2="267" y1="112.7988" y2="112.7988"/><text fill="#000000" font-family="sans-serif" font-size="13" font-weight="bold" lengthAdjust="spacing" textLength="9" x="74" y="108.0566">1</text><text fill="#000000" font-family="sans-serif" font-size="13" lengthAdjust="spacing" textLength="174" x="87" y="108.0566">POST /subscriptions/create</text><polygon fill="#181818" points="828,138.1094,838,142.1094,828,146.1094,832,142.1094" style="stroke:#181818;stroke-width:1.0;"/><line style="stroke:#181818;stroke-width:1.0;" x1="283" x2="834" y1="142.1094" y2="142.1094"/><text fill="#000000" font-family="sans-serif" font-size="13" font-weight="bold" lengthAdjust="spacing" textLength="9" x="290" y="137.3672">2</text><text fill="#000000" font-family="sans-serif" font-size="13" lengthAdjust="spacing" textLength="525" x="303" y="137.3672">subscriptions = create(final CreateSubscriptionsRequest resource, final String auth)</text><polygon fill="#181818" points="1311,167.4199,1321,171.4199,1311,175.4199,1315,171.4199" style="stroke:#181818;stroke-width:1.0;"/><line style="stroke:#181818;stroke-width:1.0;" x1="850" x2="1317" y1="171.4199" y2="171.4199"/><text fill="#000000" font-family="sans-serif" font-size="13" font-weight="bold" lengthAdjust="spacing" textLength="9" x="857" y="166.6777">3</text><text fill="#000000" font-family="sans-serif" font-size="13" lengthAdjust="spacing" textLength="401" x="870" y="166.6777">HttpResponse&lt;String&gt; getPlansFromOtherAPI(String planName)</text><polygon fill="#181818" points="861,222.6963,851,226.6963,861,230.6963,857,226.6963" style="stroke:#181818;stroke-width:1.0;"/><line style="stroke:#181818;stroke-width:1.0;stroke-dasharray:2.0,2.0;" x1="855" x2="1327" y1="226.6963" y2="226.6963"/><text fill="#000000" font-family="sans-serif" font-size="13" font-weight="bold" lengthAdjust="spacing" textLength="9" x="867" y="221.9541">4</text><text fill="#000000" font-family="sans-serif" font-size="13" lengthAdjust="spacing" textLength="27" x="880" y="221.9541">plan</text><path d="M1338,184.4199 L1338,255.4199 L1588,255.4199 L1588,194.4199 L1578,184.4199 L1338,184.4199 " fill="#FEFFDD" style="stroke:#181818;stroke-width:0.5;"/><path d="M1578,184.4199 L1578,194.4199 L1588,194.4199 L1578,184.4199 " fill="#FEFFDD" style="stroke:#181818;stroke-width:0.5;"/><text fill="#000000" font-family="sans-serif" font-size="13" lengthAdjust="spacing" textLength="193" x="1344" y="201.9883">In this point, its made a call to</text><text fill="#000000" font-family="sans-serif" font-size="13" lengthAdjust="spacing" textLength="229" x="1344" y="217.2988">the Plans Machines that will check if</text><text fill="#000000" font-family="sans-serif" font-size="13" lengthAdjust="spacing" textLength="188" x="1344" y="232.6094">plan exists, if not will throw a</text><text fill="#000000" font-family="sans-serif" font-size="13" lengthAdjust="spacing" textLength="160" x="1344" y="247.9199">EntityNotFoundException</text><polygon fill="#181818" points="1311,277.9727,1321,281.9727,1311,285.9727,1315,281.9727" style="stroke:#181818;stroke-width:1.0;"/><line style="stroke:#181818;stroke-width:1.0;" x1="850" x2="1317" y1="281.9727" y2="281.9727"/><text fill="#000000" font-family="sans-serif" font-size="13" font-weight="bold" lengthAdjust="spacing" textLength="9" x="857" y="277.2305">5</text><text fill="#000000" font-family="sans-serif" font-size="13" lengthAdjust="spacing" textLength="441" x="870" y="277.2305">Subscriptions subscriptionsRepository.planExists(plan,auth,resource);</text><line style="stroke:#181818;stroke-width:1.0;" x1="1333" x2="1380" y1="306.2832" y2="306.2832"/><line style="stroke:#181818;stroke-width:1.0;" x1="1380" x2="1380" y1="306.2832" y2="319.2832"/><line style="stroke:#181818;stroke-width:1.0;" x1="1339" x2="1380" y1="319.2832" y2="319.2832"/><polygon fill="#181818" points="1349,315.2832,1339,319.2832,1349,323.2832,1345,319.2832" style="stroke:#181818;stroke-width:1.0;"/><text fill="#000000" font-family="sans-serif" font-size="13" font-weight="bold" lengthAdjust="spacing" textLength="9" x="1345" y="301.541">6</text><text fill="#000000" font-family="sans-serif" font-size="13" lengthAdjust="spacing" textLength="367" x="1358" y="301.541">HttpResponse&lt;String&gt; getUserFromOtherAPI(String name)</text><line style="stroke:#181818;stroke-width:1.0;stroke-dasharray:2.0,2.0;" x1="1338" x2="1380" y1="378.0596" y2="378.0596"/><line style="stroke:#181818;stroke-width:1.0;stroke-dasharray:2.0,2.0;" x1="1380" x2="1380" y1="378.0596" y2="391.0596"/><line style="stroke:#181818;stroke-width:1.0;stroke-dasharray:2.0,2.0;" x1="1333" x2="1380" y1="391.0596" y2="391.0596"/><polygon fill="#181818" points="1343,387.0596,1333,391.0596,1343,395.0596,1339,391.0596" style="stroke:#181818;stroke-width:1.0;"/><text fill="#000000" font-family="sans-serif" font-size="13" font-weight="bold" lengthAdjust="spacing" textLength="9" x="1345" y="373.3174">7</text><text fill="#000000" font-family="sans-serif" font-size="13" lengthAdjust="spacing" textLength="27" x="1358" y="373.3174">user</text><path d="M1397,337.2832 L1397,408.2832 L1642,408.2832 L1642,347.2832 L1632,337.2832 L1397,337.2832 " fill="#FEFFDD" style="stroke:#181818;stroke-width:0.5;"/><path d="M1632,337.2832 L1632,347.2832 L1642,347.2832 L1632,337.2832 " fill="#FEFFDD" style="stroke:#181818;stroke-width:0.5;"/><text fill="#000000" font-family="sans-serif" font-size="13" lengthAdjust="spacing" textLength="193" x="1403" y="354.8516">In this point, its made a call to</text><text fill="#000000" font-family="sans-serif" font-size="13" lengthAdjust="spacing" textLength="224" x="1403" y="370.1621">the User Machines that will check if</text><text fill="#000000" font-family="sans-serif" font-size="13" lengthAdjust="spacing" textLength="188" x="1403" y="385.4727">user exists, if not will throw a</text><text fill="#000000" font-family="sans-serif" font-size="13" lengthAdjust="spacing" textLength="160" x="1403" y="400.7832">EntityNotFoundException</text><line style="stroke:#181818;stroke-width:1.0;" x1="1333" x2="1380" y1="429.8359" y2="429.8359"/><line style="stroke:#181818;stroke-width:1.0;" x1="1380" x2="1380" y1="429.8359" y2="442.8359"/><line style="stroke:#181818;stroke-width:1.0;" x1="1339" x2="1380" y1="442.8359" y2="442.8359"/><polygon fill="#181818" points="1349,438.8359,1339,442.8359,1349,446.8359,1345,442.8359" style="stroke:#181818;stroke-width:1.0;"/><text fill="#000000" font-family="sans-serif" font-size="13" font-weight="bold" lengthAdjust="spacing" textLength="9" x="1345" y="425.0938">8</text><text fill="#000000" font-family="sans-serif" font-size="13" lengthAdjust="spacing" textLength="443" x="1358" y="425.0938">HttpResponse&lt;String&gt; getSubsFromOtherApi(String name,String auth)</text><line style="stroke:#181818;stroke-width:1.0;stroke-dasharray:2.0,2.0;" x1="1338" x2="1380" y1="521.0781" y2="521.0781"/><line style="stroke:#181818;stroke-width:1.0;stroke-dasharray:2.0,2.0;" x1="1380" x2="1380" y1="521.0781" y2="534.0781"/><line style="stroke:#181818;stroke-width:1.0;stroke-dasharray:2.0,2.0;" x1="1333" x2="1380" y1="534.0781" y2="534.0781"/><polygon fill="#181818" points="1343,530.0781,1333,534.0781,1343,538.0781,1339,534.0781" style="stroke:#181818;stroke-width:1.0;"/><text fill="#000000" font-family="sans-serif" font-size="13" font-weight="bold" lengthAdjust="spacing" textLength="9" x="1345" y="516.3359">9</text><text fill="#000000" font-family="sans-serif" font-size="13" lengthAdjust="spacing" textLength="86" x="1358" y="516.3359">subscriptions</text><path d="M1456,460.8359 L1456,531.8359 L1740,531.8359 L1740,470.8359 L1730,460.8359 L1456,460.8359 " fill="#FEFFDD" style="stroke:#181818;stroke-width:0.5;"/><path d="M1730,460.8359 L1730,470.8359 L1740,470.8359 L1730,460.8359 " fill="#FEFFDD" style="stroke:#181818;stroke-width:0.5;"/><text fill="#000000" font-family="sans-serif" font-size="13" lengthAdjust="spacing" textLength="193" x="1462" y="478.4043">In this point, its made a call to</text><text fill="#000000" font-family="sans-serif" font-size="13" lengthAdjust="spacing" textLength="263" x="1462" y="493.7148">the other Subs Machines that will check if</text><text fill="#000000" font-family="sans-serif" font-size="13" lengthAdjust="spacing" textLength="244" x="1462" y="509.0254">user haves a subs, if yes it will throw a</text><text fill="#000000" font-family="sans-serif" font-size="13" lengthAdjust="spacing" textLength="160" x="1462" y="524.3359">EntityNotFoundException</text><path d="M1057,460.8359 L1057,531.8359 L1318,531.8359 L1318,470.8359 L1308,460.8359 L1057,460.8359 " fill="#FEFFDD" style="stroke:#181818;stroke-width:0.5;"/><path d="M1308,460.8359 L1308,470.8359 L1318,470.8359 L1308,460.8359 " fill="#FEFFDD" style="stroke:#181818;stroke-width:0.5;"/><text fill="#000000" font-family="sans-serif" font-size="13" lengthAdjust="spacing" textLength="182" x="1063" y="478.4043">If plan exists and user exists</text><text fill="#000000" font-family="sans-serif" font-size="13" lengthAdjust="spacing" textLength="240" x="1063" y="493.7148">and user does not have a subscription</text><text fill="#000000" font-family="sans-serif" font-size="13" lengthAdjust="spacing" textLength="217" x="1063" y="509.0254">in both machines it will create one</text><text fill="#000000" font-family="sans-serif" font-size="13" lengthAdjust="spacing" textLength="97" x="1063" y="524.3359">in this machine</text><polygon fill="#181818" points="1791,554.3887,1801,558.3887,1791,562.3887,1795,558.3887" style="stroke:#181818;stroke-width:1.0;"/><line style="stroke:#181818;stroke-width:1.0;" x1="1333" x2="1797" y1="558.3887" y2="558.3887"/><text fill="#000000" font-family="sans-serif" font-size="13" font-weight="bold" lengthAdjust="spacing" textLength="18" x="1340" y="553.6465">10</text><text fill="#000000" font-family="sans-serif" font-size="13" lengthAdjust="spacing" textLength="264" x="1362" y="553.6465">Subscriptions create(user, plan, resource);</text><polygon fill="#181818" points="1344,583.6992,1334,587.6992,1344,591.6992,1340,587.6992" style="stroke:#181818;stroke-width:1.0;"/><line style="stroke:#181818;stroke-width:1.0;stroke-dasharray:2.0,2.0;" x1="1338" x2="1807" y1="587.6992" y2="587.6992"/><text fill="#000000" font-family="sans-serif" font-size="13" font-weight="bold" lengthAdjust="spacing" textLength="18" x="1350" y="582.957">11</text><text fill="#000000" font-family="sans-serif" font-size="13" lengthAdjust="spacing" textLength="20" x="1372" y="582.957">obj</text><polygon fill="#181818" points="861,613.0098,851,617.0098,861,621.0098,857,617.0098" style="stroke:#181818;stroke-width:1.0;"/><line style="stroke:#181818;stroke-width:1.0;stroke-dasharray:2.0,2.0;" x1="855" x2="1327" y1="617.0098" y2="617.0098"/><text fill="#000000" font-family="sans-serif" font-size="13" font-weight="bold" lengthAdjust="spacing" textLength="18" x="867" y="612.2676">12</text><text fill="#000000" font-family="sans-serif" font-size="13" lengthAdjust="spacing" textLength="20" x="889" y="612.2676">obj</text><polygon fill="#181818" points="1311,642.3203,1321,646.3203,1311,650.3203,1315,646.3203" style="stroke:#181818;stroke-width:1.0;"/><line style="stroke:#181818;stroke-width:1.0;" x1="850" x2="1317" y1="646.3203" y2="646.3203"/><text fill="#000000" font-family="sans-serif" font-size="13" font-weight="bold" lengthAdjust="spacing" textLength="18" x="857" y="641.5781">13</text><text fill="#000000" font-family="sans-serif" font-size="13" lengthAdjust="spacing" textLength="56" x="879" y="641.5781">save(obj)</text><polygon fill="#181818" points="861,671.6309,851,675.6309,861,679.6309,857,675.6309" style="stroke:#181818;stroke-width:1.0;"/><line style="stroke:#181818;stroke-width:1.0;stroke-dasharray:2.0,2.0;" x1="855" x2="1327" y1="675.6309" y2="675.6309"/><text fill="#000000" font-family="sans-serif" font-size="13" font-weight="bold" lengthAdjust="spacing" textLength="18" x="867" y="670.8887">14</text><text fill="#000000" font-family="sans-serif" font-size="13" lengthAdjust="spacing" textLength="20" x="889" y="670.8887">obj</text><polygon fill="#181818" points="294,726.9072,284,730.9072,294,734.9072,290,730.9072" style="stroke:#181818;stroke-width:1.0;"/><line style="stroke:#181818;stroke-width:1.0;stroke-dasharray:2.0,2.0;" x1="288" x2="844" y1="730.9072" y2="730.9072"/><text fill="#000000" font-family="sans-serif" font-size="13" font-weight="bold" lengthAdjust="spacing" textLength="18" x="300" y="726.165">15</text><text fill="#000000" font-family="sans-serif" font-size="13" lengthAdjust="spacing" textLength="20" x="322" y="726.165">obj</text><path d="M5,688.6309 L5,759.6309 L268,759.6309 L268,698.6309 L258,688.6309 L5,688.6309 " fill="#FEFFDD" style="stroke:#181818;stroke-width:0.5;"/><path d="M258,688.6309 L258,698.6309 L268,698.6309 L258,688.6309 " fill="#FEFFDD" style="stroke:#181818;stroke-width:0.5;"/><text fill="#000000" font-family="sans-serif" font-size="13" lengthAdjust="spacing" textLength="149" x="11" y="706.1992">The controller here also</text><text fill="#000000" font-family="sans-serif" font-size="13" lengthAdjust="spacing" textLength="164" x="11" y="721.5098">creates an ResponseEntity</text><text fill="#000000" font-family="sans-serif" font-size="13" lengthAdjust="spacing" textLength="184" x="11" y="736.8203">to show the user the obj with</text><text fill="#000000" font-family="sans-serif" font-size="13" lengthAdjust="spacing" textLength="242" x="11" y="752.1309">"subscriptionsViewMapper" as objView</text><polygon fill="#181818" points="78,782.1836,68,786.1836,78,790.1836,74,786.1836" style="stroke:#181818;stroke-width:1.0;"/><line style="stroke:#181818;stroke-width:1.0;stroke-dasharray:2.0,2.0;" x1="72" x2="277" y1="786.1836" y2="786.1836"/><text fill="#000000" font-family="sans-serif" font-size="13" font-weight="bold" lengthAdjust="spacing" textLength="18" x="84" y="781.4414">16</text><text fill="#000000" font-family="sans-serif" font-size="13" lengthAdjust="spacing" textLength="49" x="106" y="781.4414">objView</text><!--SRC=[fPLDSzem48Rl-XKxN0ep9jnfcXc6IQOvD652shiG2rPgIwwq3k7VToNPmGuapL1EilJkXvvTBLzoeifF9vEga8RgihXGjfnu_5EZKJXUQxbriXIo9YiLwMT92DR4RrENAtI2jws3mHtkO6uzkq0t0EbXfaGb7McbA_OCW-coNddbT4NQ6Z-tXfmjYaOy9rTy95-YUzOAepQiFz8-O6MzvgJsILwlmiuRYxb3lahFxeUigYQTj1Gp1UEhc1jCON6_V8I9xrfCLFGYeeAL8JDMzZJm3P9gkD565d0Yy4EWxGaSUbixXHaawPASDbjWrlb8HDyXHheEX_dEbNj0Nx47l4pQAzWYBRYI_iRPyfvoTBF5xR1n54fy9qjaPusJyI7fS2YCvV8wlSr90DmQe5nxgAmsb84c3wLS8qXGiYY0B6iu0iHuZ4pbsg3dBKcmqwnGEQhVe3Ui2zu1NxGdpvusm86IXd9dTo1PScr8q_xEqesjpVhwHM6a8z2iWnpV4fX23sAV-g47BaBewnXv69PPm9crg4TVnG76P-3-zEXEiJN7N5zzrMmZ-7SMtH3m7t23__-5UvB2Un02-0E4IdSXPFskFGcaLwhpiDWGEdR0P-3ayfdFPGmS4UtvKvz1AILRu2RckkdsDKXMTKh1WjUTjULueImXaIQF5W3hj84LNuXlsjoaJIrD3Xwuc5GHJQFgF8n3wTBWWlv0R0TGI2MBAMVGUG2DpRZxjEpgIHnDYMRx-25wljMGpqRlc2I3PfIsNZea7xcWwlKF0RYo3AdmNEkKUM0BRIEc8Wbk1V0v5ovqGuGSssBrnEGe5p3eDTalZRlEV6TPs3aWv4b_EHwtexuz_Wi0]--></g></svg>