<?xml version="1.0" encoding="us-ascii" standalone="no"?><svg xmlns="http://www.w3.org/2000/svg" xmlns:xlink="http://www.w3.org/1999/xlink" contentStyleType="text/css" height="801px" preserveAspectRatio="none" style="width:1247px;height:801px;background:#FFFFFF;" version="1.1" viewBox="0 0 1247 801" width="1247px" zoomAndPan="magnify"><defs/><g><text fill="#000000" font-family="sans-serif" font-size="14" font-weight="bold" lengthAdjust="spacing" textLength="1219" x="10" y="25.1074">Class Diagram / As Marketing director, I want to define a new Plan detailing the monthly and annual cost, the maximum number of devices and other characteristics of the plan</text><!--class PlansRepository--><g id="elem_PlansRepository"><rect codeLine="38" fill="#F1F1F1" height="116.4453" id="PlansRepository" rx="2.5" ry="2.5" style="stroke:#181818;stroke-width:0.5;" width="343" x="235.75" y="368.6211"/><text fill="#000000" font-family="sans-serif" font-size="12" font-style="italic" lengthAdjust="spacing" textLength="61" x="376.75" y="386.5703">&#171;interface&#187;</text><text fill="#000000" font-family="sans-serif" font-size="14" font-style="italic" lengthAdjust="spacing" textLength="103" x="355.75" y="404.6895">PlansRepository</text><line style="stroke:#181818;stroke-width:0.5;" x1="236.75" x2="577.75" y1="413.2031" y2="413.2031"/><line style="stroke:#181818;stroke-width:0.5;" x1="236.75" x2="577.75" y1="421.2031" y2="421.2031"/><ellipse cx="246.75" cy="436.0137" fill="#84BE84" rx="3" ry="3" style="stroke:#038048;stroke-width:1.0;"/><text fill="#000000" font-family="sans-serif" font-size="14" lengthAdjust="spacing" textLength="317" x="255.75" y="440.3105">findByName_Name(String name): Optional&lt;Plans&gt;</text><ellipse cx="246.75" cy="454.6348" fill="#84BE84" rx="3" ry="3" style="stroke:#038048;stroke-width:1.0;"/><text fill="#000000" font-family="sans-serif" font-size="14" lengthAdjust="spacing" textLength="231" x="255.75" y="458.9316">getPlansFromOtherAPI(String name)</text><ellipse cx="246.75" cy="473.2559" fill="#84BE84" rx="3" ry="3" style="stroke:#038048;stroke-width:1.0;"/><text fill="#000000" font-family="sans-serif" font-size="14" lengthAdjust="spacing" textLength="216" x="255.75" y="477.5527">save(S entity) : &lt;S extends Plans&gt;</text></g><!--class Plans--><g id="elem_Plans"><rect codeLine="9" fill="#F1F1F1" height="230.832" id="Plans" rx="2.5" ry="2.5" style="stroke:#181818;stroke-width:0.5;" width="184" x="315.25" y="563.6211"/><text fill="#000000" font-family="sans-serif" font-size="14" lengthAdjust="spacing" textLength="35" x="389.75" y="583.7285">Plans</text><line style="stroke:#181818;stroke-width:0.5;" x1="316.25" x2="498.25" y1="592.2422" y2="592.2422"/><rect fill="none" height="6" style="stroke:#C82930;stroke-width:1.0;" width="6" x="323.25" y="604.0527"/><text fill="#000000" font-family="sans-serif" font-size="14" lengthAdjust="spacing" textLength="35" x="335.25" y="611.3496">name</text><rect fill="none" height="6" style="stroke:#C82930;stroke-width:1.0;" width="6" x="323.25" y="622.6738"/><text fill="#000000" font-family="sans-serif" font-size="14" lengthAdjust="spacing" textLength="69" x="335.25" y="629.9707">description</text><rect fill="none" height="6" style="stroke:#C82930;stroke-width:1.0;" width="6" x="323.25" y="641.2949"/><text fill="#000000" font-family="sans-serif" font-size="14" lengthAdjust="spacing" textLength="112" x="335.25" y="648.5918">numberOfMinutes</text><rect fill="none" height="6" style="stroke:#C82930;stroke-width:1.0;" width="6" x="323.25" y="659.916"/><text fill="#000000" font-family="sans-serif" font-size="14" lengthAdjust="spacing" textLength="158" x="335.25" y="667.2129">maximumNumberOfUsers</text><rect fill="none" height="6" style="stroke:#C82930;stroke-width:1.0;" width="6" x="323.25" y="678.5371"/><text fill="#000000" font-family="sans-serif" font-size="14" lengthAdjust="spacing" textLength="98" x="335.25" y="685.834">musicCollection</text><rect fill="none" height="6" style="stroke:#C82930;stroke-width:1.0;" width="6" x="323.25" y="697.1582"/><text fill="#000000" font-family="sans-serif" font-size="14" lengthAdjust="spacing" textLength="107" x="335.25" y="704.4551">musicSuggestion</text><rect fill="none" height="6" style="stroke:#C82930;stroke-width:1.0;" width="6" x="323.25" y="715.7793"/><text fill="#000000" font-family="sans-serif" font-size="14" lengthAdjust="spacing" textLength="68" x="335.25" y="723.0762">annualFee</text><rect fill="none" height="6" style="stroke:#C82930;stroke-width:1.0;" width="6" x="323.25" y="734.4004"/><text fill="#000000" font-family="sans-serif" font-size="14" lengthAdjust="spacing" textLength="74" x="335.25" y="741.6973">monthlyFee</text><rect fill="none" height="6" style="stroke:#C82930;stroke-width:1.0;" width="6" x="323.25" y="753.0215"/><text fill="#000000" font-family="sans-serif" font-size="14" lengthAdjust="spacing" textLength="37" x="335.25" y="760.3184">active</text><rect fill="none" height="6" style="stroke:#C82930;stroke-width:1.0;" width="6" x="323.25" y="771.6426"/><text fill="#000000" font-family="sans-serif" font-size="14" lengthAdjust="spacing" textLength="60" x="335.25" y="778.9395">promoted</text><line style="stroke:#181818;stroke-width:0.5;" x1="316.25" x2="498.25" y1="786.4531" y2="786.4531"/></g><!--class PlansViewMapper--><g id="elem_PlansViewMapper"><rect codeLine="21" fill="#F1F1F1" height="63.2422" id="PlansViewMapper" rx="2.5" ry="2.5" style="stroke:#181818;stroke-width:0.5;" width="253" x="430.75" y="217.1211"/><text fill="#000000" font-family="sans-serif" font-size="14" lengthAdjust="spacing" textLength="112" x="501.25" y="237.2285">PlansViewMapper</text><line style="stroke:#181818;stroke-width:0.5;" x1="431.75" x2="682.75" y1="245.7422" y2="245.7422"/><line style="stroke:#181818;stroke-width:0.5;" x1="431.75" x2="682.75" y1="253.7422" y2="253.7422"/><ellipse cx="441.75" cy="268.5527" fill="#84BE84" rx="3" ry="3" style="stroke:#038048;stroke-width:1.0;"/><text fill="#000000" font-family="sans-serif" font-size="14" lengthAdjust="spacing" textLength="227" x="450.75" y="272.8496">toPlansView(Plans plans):PlansView</text></g><!--class PlansController--><g id="elem_PlansController"><rect codeLine="24" fill="#F1F1F1" height="81.8633" id="PlansController" rx="2.5" ry="2.5" style="stroke:#181818;stroke-width:0.5;" width="459" x="327.75" y="46.6211"/><text fill="#000000" font-family="sans-serif" font-size="14" lengthAdjust="spacing" textLength="97" x="508.75" y="66.7285">PlansController</text><line style="stroke:#181818;stroke-width:0.5;" x1="328.75" x2="785.75" y1="75.2422" y2="75.2422"/><line style="stroke:#181818;stroke-width:0.5;" x1="328.75" x2="785.75" y1="83.2422" y2="83.2422"/><text fill="#000000" font-family="sans-serif" font-size="14" lengthAdjust="spacing" textLength="447" x="333.75" y="102.3496">create(final CreatePlanRequest resource):ResponseEntity&lt;PlansView&gt;</text><text fill="#000000" font-family="sans-serif" font-size="14" lengthAdjust="spacing" textLength="265" x="333.75" y="120.9707">getPlanByNameExternal(String planName)</text></g><!--class PlansService--><g id="elem_PlansService"><rect codeLine="28" fill="#F1F1F1" height="81.8633" id="PlansService" rx="2.5" ry="2.5" style="stroke:#181818;stroke-width:0.5;" width="298" x="719.25" y="207.6211"/><text fill="#000000" font-family="sans-serif" font-size="14" lengthAdjust="spacing" textLength="82" x="827.25" y="227.7285">PlansService</text><line style="stroke:#181818;stroke-width:0.5;" x1="720.25" x2="1016.25" y1="236.2422" y2="236.2422"/><line style="stroke:#181818;stroke-width:0.5;" x1="720.25" x2="1016.25" y1="244.2422" y2="244.2422"/><ellipse cx="730.25" cy="259.0527" fill="#84BE84" rx="3" ry="3" style="stroke:#038048;stroke-width:1.0;"/><text fill="#000000" font-family="sans-serif" font-size="14" lengthAdjust="spacing" textLength="272" x="739.25" y="263.3496">create(createPlansMapper resource):Plans</text><text fill="#000000" font-family="sans-serif" font-size="14" lengthAdjust="spacing" textLength="265" x="739.25" y="281.9707">getPlanByNameExternal(String planName)</text></g><!--class CreatePlansMapper--><g id="elem_CreatePlansMapper"><rect codeLine="34" fill="#F1F1F1" height="63.2422" id="CreatePlansMapper" rx="2.5" ry="2.5" style="stroke:#181818;stroke-width:0.5;" width="291" x="722.75" y="395.1211"/><text fill="#000000" font-family="sans-serif" font-size="14" lengthAdjust="spacing" textLength="126" x="805.25" y="415.2285">CreatePlansMapper</text><line style="stroke:#181818;stroke-width:0.5;" x1="723.75" x2="1012.75" y1="423.7422" y2="423.7422"/><line style="stroke:#181818;stroke-width:0.5;" x1="723.75" x2="1012.75" y1="431.7422" y2="431.7422"/><ellipse cx="733.75" cy="446.5527" fill="#84BE84" rx="3" ry="3" style="stroke:#038048;stroke-width:1.0;"/><text fill="#000000" font-family="sans-serif" font-size="14" lengthAdjust="spacing" textLength="265" x="742.75" y="450.8496">create(CreatePlanRequest request):Plans</text></g><!--link PlansController to PlansService--><g id="link_PlansController_PlansService"><path codeLine="48" d="M635.73,128.7411 C682.87,152.8511 737.3177,180.6799 784.4577,204.7799 " fill="none" id="PlansController-to-PlansService" style="stroke:#181818;stroke-width:1.0;stroke-dasharray:7.0,7.0;"/><polygon fill="#181818" points="789.8,207.5111,783.6073,199.8527,785.3481,205.2351,779.9657,206.9758,789.8,207.5111" style="stroke:#181818;stroke-width:1.0;"/><polygon fill="#000000" points="730.7019,170.5427,723.9862,163.8084,721.3105,169.042,730.7019,170.5427" style="stroke:#000000;stroke-width:1.0;"/><text fill="#000000" font-family="sans-serif" font-size="13" lengthAdjust="spacing" textLength="28" x="735.25" y="173.6494">uses</text></g><!--link PlansService to PlansRepository--><g id="link_PlansService_PlansRepository"><path codeLine="49" d="M763.35,289.6711 C702.24,313.0011 629.7852,340.6607 562.3252,366.4207 " fill="none" id="PlansService-to-PlansRepository" style="stroke:#181818;stroke-width:1.0;stroke-dasharray:7.0,7.0;"/><polygon fill="#181818" points="556.72,368.5611,566.5548,369.0873,561.391,366.7774,563.7009,361.6137,556.72,368.5611" style="stroke:#181818;stroke-width:1.0;"/><polygon fill="#000000" points="678.5789,331.05,688.0773,330.5694,685.9808,325.0782,678.5789,331.05" style="stroke:#000000;stroke-width:1.0;"/><text fill="#000000" font-family="sans-serif" font-size="13" lengthAdjust="spacing" textLength="28" x="692.25" y="334.6494">uses</text></g><!--link PlansRepository to Plans--><g id="link_PlansRepository_Plans"><path codeLine="50" d="M407.25,484.7811 C407.25,508.1711 407.25,530.1111 407.25,557.3911 " fill="none" id="PlansRepository-to-Plans" style="stroke:#181818;stroke-width:1.0;stroke-dasharray:7.0,7.0;"/><polygon fill="#181818" points="407.25,563.3911,411.25,554.3911,407.25,558.3911,403.25,554.3911,407.25,563.3911" style="stroke:#181818;stroke-width:1.0;"/><polygon fill="#000000" points="412.25,519.2666,409.3111,528.3117,415.1889,528.3117,412.25,519.2666" style="stroke:#000000;stroke-width:1.0;"/><text fill="#000000" font-family="sans-serif" font-size="13" lengthAdjust="spacing" textLength="36" x="421.25" y="529.6494">record</text></g><!--reverse link PlansController to PlansRepository--><g id="link_PlansController_PlansRepository"><path codeLine="51" d="M406.6066,131.2662 C368.6066,149.0662 337.52,171.8511 315.25,207.6211 C283.33,258.8811 318.41,323.1511 354.06,368.5911 " fill="none" id="PlansController-backto-PlansRepository" style="stroke:#181818;stroke-width:1.0;stroke-dasharray:7.0,7.0;"/><polygon fill="#181818" points="412.04,128.7211,402.1931,128.9165,407.5121,130.842,405.5866,136.1611,412.04,128.7211" style="stroke:#181818;stroke-width:1.0;"/><polygon fill="#000000" points="321.3309,243.8848,316.5061,252.0807,322.245,253.3514,321.3309,243.8848" style="stroke:#000000;stroke-width:1.0;"/><text fill="#000000" font-family="sans-serif" font-size="13" lengthAdjust="spacing" textLength="83" x="329.25" y="254.1494">HTPP API call</text></g><!--link PlansService to CreatePlansMapper--><g id="link_PlansService_CreatePlansMapper"><path codeLine="52" d="M868.25,290.0011 C868.25,321.9711 868.25,359.9311 868.25,389.0311 " fill="none" id="PlansService-to-CreatePlansMapper" style="stroke:#181818;stroke-width:1.0;stroke-dasharray:7.0,7.0;"/><polygon fill="#181818" points="868.25,395.0311,872.25,386.0311,868.25,390.0311,864.25,386.0311,868.25,395.0311" style="stroke:#181818;stroke-width:1.0;"/><polygon fill="#000000" points="873.25,334.2666,876.1889,325.2215,870.3111,325.2215,873.25,334.2666" style="stroke:#000000;stroke-width:1.0;"/><text fill="#000000" font-family="sans-serif" font-size="13" lengthAdjust="spacing" textLength="28" x="882.25" y="334.6494">uses</text></g><!--link PlansController to PlansViewMapper--><g id="link_PlansController_PlansViewMapper"><path codeLine="53" d="M557.25,128.7411 C557.25,156.1611 557.25,185.9311 557.25,211.0511 " fill="none" id="PlansController-to-PlansViewMapper" style="stroke:#181818;stroke-width:1.0;stroke-dasharray:7.0,7.0;"/><polygon fill="#181818" points="557.25,217.0511,561.25,208.0511,557.25,212.0511,553.25,208.0511,557.25,217.0511" style="stroke:#181818;stroke-width:1.0;"/><polygon fill="#000000" points="562.25,173.2666,565.1889,164.2215,559.3111,164.2215,562.25,173.2666" style="stroke:#000000;stroke-width:1.0;"/><text fill="#000000" font-family="sans-serif" font-size="13" lengthAdjust="spacing" textLength="28" x="571.25" y="173.6494">uses</text></g><!--SRC=[ZLHDZzem4BtxLyoj87RX7g58Mxghxe45GTjhvJe3M7NirEF0ejN-zuwT3mZTGoqbnC_FC-_Ds7mwX51HDfjLHjfGbsQgN3bJHXBT5rhklIp5GHS8IdjbKAGLM3EPDbWvqi7vCypdsWRqEwampuK8EXY4HQ9-QOB031u8bjB_ng3j7WhjKV7UEtY64sU6uA30dRO84YoUKWf6WjGcyiC1eNGs7CmPf2tuiRKqe1o5ksPHlkgoBi7MvI_qu7Qy-QWLKg8xfdXG1-cbOg6QWbOKIN5hj2vuN7bx4y3ZtieIco-EHihhAcXdMwJ9jDejjQq3KeEsCbxQjU-4lbkfIQk5CuPzTq5QT5llzqXNQEFk2R5ZDSul0BlGnsvIULUwW8LulxRmG-DfAQiAVMDc4boFZz9NCaxZh8U70HQSr4UzRG3bKGOSSO-uy8iqYRmD_gbPF7WaLtk5uso3L3bB-6Zv89pdVVWyXTbZYCZdymiNz_6Lky7nHjlWOvkZeeYF4tKWPui-zfErJ5ebgjT0ZT4h3GaL_vjCzCuNjp7RuhKfFxATVhkCxqBqL-7sceWtCU7g5OsQd_7LIOa7RPp1AfqlQPgQvMBI6Q0dxl4g7kA7zVDWavYGF78Sm5JjCMGmvmbRjKLRkJogud7JLPXEyq5fCwY9xqikhi4Bws9aIBpw7-YvB88hevmlFk0Ot8NyHam6Nx-jry3kG4bZFXBnJsk6CeR6Rgv0H_qB]--></g></svg>