<?xml version="1.0" encoding="us-ascii" standalone="no"?><svg xmlns="http://www.w3.org/2000/svg" xmlns:xlink="http://www.w3.org/1999/xlink" contentStyleType="text/css" height="914px" preserveAspectRatio="none" style="width:1484px;height:914px;background:#FFFFFF;" version="1.1" viewBox="0 0 1484 914" width="1484px" zoomAndPan="magnify"><defs/><g><text fill="#000000" font-family="sans-serif" font-size="14" font-weight="bold" lengthAdjust="spacing" textLength="1248" x="117" y="30.1074">Sequence Diagram/ As Marketing director, I want to define a new Plan detailing the monthly and annual cost, the maximum number of devices and other characteristics of the plan</text><rect fill="#FFFFFF" height="656.9844" style="stroke:#181818;stroke-width:1.0;" width="10" x="186" y="156.5332"/><rect fill="#FFFFFF" height="531.8203" style="stroke:#181818;stroke-width:1.0;" width="10" x="520" y="187.8242"/><rect fill="#FFFFFF" height="31.291" style="stroke:#181818;stroke-width:1.0;" width="10" x="941" y="219.1152"/><rect fill="#FFFFFF" height="540.8203" style="stroke:#181818;stroke-width:1.0;" width="10" x="941" y="281.6973"/><rect fill="#FFFFFF" height="501.5293" style="stroke:#181818;stroke-width:1.0;" width="10" x="946" y="320.9883"/><rect fill="#FFFFFF" height="179.6826" style="stroke:#181818;stroke-width:1.0;" width="10" x="951" y="365.2793"/><rect fill="#FFFFFF" height="31.291" style="stroke:#181818;stroke-width:1.0;" width="10" x="951" y="657.0625"/><rect fill="#FFFFFF" height="31.291" style="stroke:#181818;stroke-width:1.0;" width="10" x="1261" y="401.5703"/><rect fill="#FFFFFF" height="31.291" style="stroke:#181818;stroke-width:1.0;" width="10" x="1408" y="750.9355"/><line style="stroke:#181818;stroke-width:0.5;stroke-dasharray:5.0,5.0;" x1="66" x2="66" y1="123.2422" y2="831.5176"/><line style="stroke:#181818;stroke-width:0.5;stroke-dasharray:5.0,5.0;" x1="191" x2="191" y1="123.2422" y2="831.5176"/><line style="stroke:#181818;stroke-width:0.5;stroke-dasharray:5.0,5.0;" x1="525" x2="525" y1="123.2422" y2="831.5176"/><line style="stroke:#181818;stroke-width:0.5;stroke-dasharray:5.0,5.0;" x1="945.5" x2="945.5" y1="123.2422" y2="831.5176"/><line style="stroke:#181818;stroke-width:0.5;stroke-dasharray:5.0,5.0;" x1="1266" x2="1266" y1="123.2422" y2="831.5176"/><line style="stroke:#181818;stroke-width:0.5;stroke-dasharray:5.0,5.0;" x1="1413" x2="1413" y1="123.2422" y2="831.5176"/><text fill="#000000" font-family="sans-serif" font-size="14" lengthAdjust="spacing" textLength="116" x="5" y="119.7285">Marketing Director</text><ellipse cx="66" cy="53.1211" fill="#E2E2F0" rx="8" ry="8" style="stroke:#181818;stroke-width:0.5;"/><path d="M66,61.1211 L66,88.1211 M53,69.1211 L79,69.1211 M66,88.1211 L53,103.1211 M66,88.1211 L79,103.1211 " fill="none" style="stroke:#181818;stroke-width:0.5;"/><text fill="#000000" font-family="sans-serif" font-size="14" lengthAdjust="spacing" textLength="116" x="5" y="845.625">Marketing Director</text><ellipse cx="66" cy="857.6387" fill="#E2E2F0" rx="8" ry="8" style="stroke:#181818;stroke-width:0.5;"/><path d="M66,865.6387 L66,892.6387 M53,873.6387 L79,873.6387 M66,892.6387 L53,907.6387 M66,892.6387 L79,907.6387 " fill="none" style="stroke:#181818;stroke-width:0.5;"/><rect fill="#E2E2F0" height="32.6211" rx="2.5" ry="2.5" style="stroke:#181818;stroke-width:0.5;" width="108" x="137" y="89.6211"/><text fill="#000000" font-family="sans-serif" font-size="14" lengthAdjust="spacing" textLength="94" x="144" y="111.7285">:PlanController</text><rect fill="#E2E2F0" height="32.6211" rx="2.5" ry="2.5" style="stroke:#181818;stroke-width:0.5;" width="108" x="137" y="830.5176"/><text fill="#000000" font-family="sans-serif" font-size="14" lengthAdjust="spacing" textLength="94" x="144" y="852.625">:PlanController</text><rect fill="#E2E2F0" height="32.6211" rx="2.5" ry="2.5" style="stroke:#181818;stroke-width:0.5;" width="100" x="475" y="89.6211"/><text fill="#000000" font-family="sans-serif" font-size="14" lengthAdjust="spacing" textLength="86" x="482" y="111.7285">:PlansService</text><rect fill="#E2E2F0" height="32.6211" rx="2.5" ry="2.5" style="stroke:#181818;stroke-width:0.5;" width="100" x="475" y="830.5176"/><text fill="#000000" font-family="sans-serif" font-size="14" lengthAdjust="spacing" textLength="86" x="482" y="852.625">:PlansService</text><rect fill="#E2E2F0" height="32.6211" rx="2.5" ry="2.5" style="stroke:#181818;stroke-width:0.5;" width="121" x="885.5" y="89.6211"/><text fill="#000000" font-family="sans-serif" font-size="14" lengthAdjust="spacing" textLength="107" x="892.5" y="111.7285">:PlansRepository</text><rect fill="#E2E2F0" height="32.6211" rx="2.5" ry="2.5" style="stroke:#181818;stroke-width:0.5;" width="121" x="885.5" y="830.5176"/><text fill="#000000" font-family="sans-serif" font-size="14" lengthAdjust="spacing" textLength="107" x="892.5" y="852.625">:PlansRepository</text><rect fill="#E2E2F0" height="32.6211" rx="2.5" ry="2.5" style="stroke:#181818;stroke-width:0.5;" width="144" x="1194" y="89.6211"/><text fill="#000000" font-family="sans-serif" font-size="14" lengthAdjust="spacing" textLength="130" x="1201" y="111.7285">:CreatePlansMapper</text><rect fill="#E2E2F0" height="32.6211" rx="2.5" ry="2.5" style="stroke:#181818;stroke-width:0.5;" width="144" x="1194" y="830.5176"/><text fill="#000000" font-family="sans-serif" font-size="14" lengthAdjust="spacing" textLength="130" x="1201" y="852.625">:CreatePlansMapper</text><rect fill="#E2E2F0" height="32.6211" rx="2.5" ry="2.5" style="stroke:#181818;stroke-width:0.5;" width="130" x="1348" y="89.6211"/><text fill="#000000" font-family="sans-serif" font-size="14" lengthAdjust="spacing" textLength="116" x="1355" y="111.7285">:PlansViewMapper</text><rect fill="#E2E2F0" height="32.6211" rx="2.5" ry="2.5" style="stroke:#181818;stroke-width:0.5;" width="130" x="1348" y="830.5176"/><text fill="#000000" font-family="sans-serif" font-size="14" lengthAdjust="spacing" textLength="116" x="1355" y="852.625">:PlansViewMapper</text><rect fill="#FFFFFF" height="656.9844" style="stroke:#181818;stroke-width:1.0;" width="10" x="186" y="156.5332"/><rect fill="#FFFFFF" height="531.8203" style="stroke:#181818;stroke-width:1.0;" width="10" x="520" y="187.8242"/><rect fill="#FFFFFF" height="31.291" style="stroke:#181818;stroke-width:1.0;" width="10" x="941" y="219.1152"/><rect fill="#FFFFFF" height="540.8203" style="stroke:#181818;stroke-width:1.0;" width="10" x="941" y="281.6973"/><rect fill="#FFFFFF" height="501.5293" style="stroke:#181818;stroke-width:1.0;" width="10" x="946" y="320.9883"/><rect fill="#FFFFFF" height="179.6826" style="stroke:#181818;stroke-width:1.0;" width="10" x="951" y="365.2793"/><rect fill="#FFFFFF" height="31.291" style="stroke:#181818;stroke-width:1.0;" width="10" x="951" y="657.0625"/><rect fill="#FFFFFF" height="31.291" style="stroke:#181818;stroke-width:1.0;" width="10" x="1261" y="401.5703"/><rect fill="#FFFFFF" height="31.291" style="stroke:#181818;stroke-width:1.0;" width="10" x="1408" y="750.9355"/><polygon fill="#181818" points="174,152.5332,184,156.5332,174,160.5332,178,156.5332" style="stroke:#181818;stroke-width:1.0;"/><line style="stroke:#181818;stroke-width:1.0;" x1="66" x2="180" y1="156.5332" y2="156.5332"/><text fill="#000000" font-family="sans-serif" font-size="13" font-weight="bold" lengthAdjust="spacing" textLength="7" x="73" y="151.2705">1</text><text fill="#000000" font-family="sans-serif" font-size="13" lengthAdjust="spacing" textLength="74" x="84" y="151.2705">POST /plans</text><polygon fill="#181818" points="508,183.8242,518,187.8242,508,191.8242,512,187.8242" style="stroke:#181818;stroke-width:1.0;"/><line style="stroke:#181818;stroke-width:1.0;" x1="196" x2="514" y1="187.8242" y2="187.8242"/><text fill="#000000" font-family="sans-serif" font-size="13" font-weight="bold" lengthAdjust="spacing" textLength="7" x="203" y="182.5615">2</text><text fill="#000000" font-family="sans-serif" font-size="13" lengthAdjust="spacing" textLength="294" x="214" y="182.5615">Plans plans = create(CreatePlanRequest resource)</text><polygon fill="#181818" points="929,215.1152,939,219.1152,929,223.1152,933,219.1152" style="stroke:#181818;stroke-width:1.0;"/><line style="stroke:#181818;stroke-width:1.0;" x1="530" x2="935" y1="219.1152" y2="219.1152"/><text fill="#000000" font-family="sans-serif" font-size="13" font-weight="bold" lengthAdjust="spacing" textLength="7" x="537" y="213.8525">3</text><text fill="#000000" font-family="sans-serif" font-size="13" lengthAdjust="spacing" textLength="381" x="548" y="213.8525">Optional&lt;Plans&gt; plans = findByName_Name(resource.getName())</text><polygon fill="#181818" points="541,246.4063,531,250.4063,541,254.4063,537,250.4063" style="stroke:#181818;stroke-width:1.0;"/><line style="stroke:#181818;stroke-width:1.0;stroke-dasharray:2.0,2.0;" x1="535" x2="945" y1="250.4063" y2="250.4063"/><text fill="#000000" font-family="sans-serif" font-size="13" font-weight="bold" lengthAdjust="spacing" textLength="7" x="547" y="245.1436">4</text><text fill="#000000" font-family="sans-serif" font-size="13" lengthAdjust="spacing" textLength="83" x="558" y="245.1436">plans.isEmpty</text><polygon fill="#181818" points="929,277.6973,939,281.6973,929,285.6973,933,281.6973" style="stroke:#181818;stroke-width:1.0;"/><line style="stroke:#181818;stroke-width:1.0;" x1="530" x2="935" y1="281.6973" y2="281.6973"/><text fill="#000000" font-family="sans-serif" font-size="13" font-weight="bold" lengthAdjust="spacing" textLength="7" x="537" y="276.4346">5</text><text fill="#000000" font-family="sans-serif" font-size="13" lengthAdjust="spacing" textLength="178" x="548" y="276.4346">createNotLocal(auth,resource))</text><line style="stroke:#181818;stroke-width:1.0;" x1="951" x2="998" y1="307.9883" y2="307.9883"/><line style="stroke:#181818;stroke-width:1.0;" x1="998" x2="998" y1="307.9883" y2="320.9883"/><line style="stroke:#181818;stroke-width:1.0;" x1="957" x2="998" y1="320.9883" y2="320.9883"/><polygon fill="#181818" points="967,316.9883,957,320.9883,967,324.9883,963,320.9883" style="stroke:#181818;stroke-width:1.0;"/><text fill="#000000" font-family="sans-serif" font-size="13" font-weight="bold" lengthAdjust="spacing" textLength="7" x="963" y="302.7256">6</text><text fill="#000000" font-family="sans-serif" font-size="13" lengthAdjust="spacing" textLength="285" x="974" y="302.7256">getPlansFromOtherAPI(resource.getName(),auth)</text><line style="stroke:#181818;stroke-width:1.0;" x1="956" x2="1003" y1="352.2793" y2="352.2793"/><line style="stroke:#181818;stroke-width:1.0;" x1="1003" x2="1003" y1="352.2793" y2="365.2793"/><line style="stroke:#181818;stroke-width:1.0;" x1="962" x2="1003" y1="365.2793" y2="365.2793"/><polygon fill="#181818" points="972,361.2793,962,365.2793,972,369.2793,968,365.2793" style="stroke:#181818;stroke-width:1.0;"/><text fill="#000000" font-family="sans-serif" font-size="13" font-weight="bold" lengthAdjust="spacing" textLength="7" x="968" y="347.0166">7</text><text fill="#000000" font-family="sans-serif" font-size="13" lengthAdjust="spacing" textLength="59" x="979" y="347.0166">HTPP 404</text><polygon fill="#181818" points="1249,397.5703,1259,401.5703,1249,405.5703,1253,401.5703" style="stroke:#181818;stroke-width:1.0;"/><line style="stroke:#181818;stroke-width:1.0;" x1="961" x2="1255" y1="401.5703" y2="401.5703"/><text fill="#000000" font-family="sans-serif" font-size="13" font-weight="bold" lengthAdjust="spacing" textLength="7" x="968" y="396.3076">8</text><text fill="#000000" font-family="sans-serif" font-size="13" lengthAdjust="spacing" textLength="210" x="979" y="396.3076">createPlansMapper.create(resource)</text><polygon fill="#181818" points="972,428.8613,962,432.8613,972,436.8613,968,432.8613" style="stroke:#181818;stroke-width:1.0;"/><line style="stroke:#181818;stroke-width:1.0;stroke-dasharray:2.0,2.0;" x1="966" x2="1265" y1="432.8613" y2="432.8613"/><text fill="#000000" font-family="sans-serif" font-size="13" font-weight="bold" lengthAdjust="spacing" textLength="7" x="978" y="427.5986">9</text><text fill="#000000" font-family="sans-serif" font-size="13" lengthAdjust="spacing" textLength="51" x="989" y="427.5986">Plan obj;</text><polygon fill="#181818" points="541,540.9619,531,544.9619,541,548.9619,537,544.9619" style="stroke:#181818;stroke-width:1.0;"/><line style="stroke:#181818;stroke-width:1.0;stroke-dasharray:2.0,2.0;" x1="535" x2="945" y1="544.9619" y2="544.9619"/><text fill="#000000" font-family="sans-serif" font-size="13" font-weight="bold" lengthAdjust="spacing" textLength="14" x="547" y="539.6992">10</text><text fill="#000000" font-family="sans-serif" font-size="13" lengthAdjust="spacing" textLength="17" x="565" y="539.6992">obj</text><path d="M272,445.8613 L272,627.8613 L515,627.8613 L515,455.8613 L505,445.8613 L272,445.8613 " fill="#FEFFDD" style="stroke:#181818;stroke-width:0.5;"/><path d="M505,445.8613 L505,455.8613 L515,455.8613 L505,445.8613 " fill="#FEFFDD" style="stroke:#181818;stroke-width:0.5;"/><text fill="#000000" font-family="sans-serif" font-size="13" lengthAdjust="spacing" textLength="195" x="278" y="464.8896">1) Service will check if plan exists</text><text fill="#000000" font-family="sans-serif" font-size="13" lengthAdjust="spacing" textLength="4" x="278" y="482.1807">&#160;</text><text fill="#000000" font-family="sans-serif" font-size="13" lengthAdjust="spacing" textLength="90" x="278" y="499.4717">If 1 comes true,</text><text fill="#000000" font-family="sans-serif" font-size="13" lengthAdjust="spacing" textLength="92" x="278" y="516.7627">Service will trow</text><text fill="#000000" font-family="sans-serif" font-size="13" lengthAdjust="spacing" textLength="147" x="278" y="534.0537">IllegalArgumentException</text><text fill="#000000" font-family="sans-serif" font-size="13" lengthAdjust="spacing" textLength="4" x="278" y="551.3447">&#160;</text><text fill="#000000" font-family="sans-serif" font-size="13" lengthAdjust="spacing" textLength="164" x="278" y="568.6357">2)Server does and HTTP call</text><text fill="#000000" font-family="sans-serif" font-size="13" lengthAdjust="spacing" textLength="139" x="278" y="585.9268">to another plan instance</text><text fill="#000000" font-family="sans-serif" font-size="13" lengthAdjust="spacing" textLength="222" x="278" y="603.2178">If it doesn&#180;t exist on the other instance</text><text fill="#000000" font-family="sans-serif" font-size="13" lengthAdjust="spacing" textLength="70" x="278" y="620.5088">Returns 404</text><polygon fill="#181818" points="939,653.0625,949,657.0625,939,661.0625,943,657.0625" style="stroke:#181818;stroke-width:1.0;"/><line style="stroke:#181818;stroke-width:1.0;" x1="530" x2="945" y1="657.0625" y2="657.0625"/><text fill="#000000" font-family="sans-serif" font-size="13" font-weight="bold" lengthAdjust="spacing" textLength="14" x="537" y="651.7998">11</text><text fill="#000000" font-family="sans-serif" font-size="13" lengthAdjust="spacing" textLength="51" x="555" y="651.7998">save(obj)</text><polygon fill="#181818" points="541,684.3535,531,688.3535,541,692.3535,537,688.3535" style="stroke:#181818;stroke-width:1.0;"/><line style="stroke:#181818;stroke-width:1.0;stroke-dasharray:2.0,2.0;" x1="535" x2="945" y1="688.3535" y2="688.3535"/><text fill="#000000" font-family="sans-serif" font-size="13" font-weight="bold" lengthAdjust="spacing" textLength="14" x="547" y="683.0908">12</text><text fill="#000000" font-family="sans-serif" font-size="13" lengthAdjust="spacing" textLength="24" x="565" y="683.0908">plan</text><polygon fill="#181818" points="207,715.6445,197,719.6445,207,723.6445,203,719.6445" style="stroke:#181818;stroke-width:1.0;"/><line style="stroke:#181818;stroke-width:1.0;stroke-dasharray:2.0,2.0;" x1="201" x2="524" y1="719.6445" y2="719.6445"/><text fill="#000000" font-family="sans-serif" font-size="13" font-weight="bold" lengthAdjust="spacing" textLength="14" x="213" y="714.3818">13</text><text fill="#000000" font-family="sans-serif" font-size="13" lengthAdjust="spacing" textLength="24" x="231" y="714.3818">plan</text><polygon fill="#181818" points="1396,746.9355,1406,750.9355,1396,754.9355,1400,750.9355" style="stroke:#181818;stroke-width:1.0;"/><line style="stroke:#181818;stroke-width:1.0;" x1="196" x2="1402" y1="750.9355" y2="750.9355"/><text fill="#000000" font-family="sans-serif" font-size="13" font-weight="bold" lengthAdjust="spacing" textLength="14" x="203" y="745.6729">14</text><text fill="#000000" font-family="sans-serif" font-size="13" lengthAdjust="spacing" textLength="104" x="221" y="745.6729">toPlansView(plan)</text><polygon fill="#181818" points="207,778.2266,197,782.2266,207,786.2266,203,782.2266" style="stroke:#181818;stroke-width:1.0;"/><line style="stroke:#181818;stroke-width:1.0;stroke-dasharray:2.0,2.0;" x1="201" x2="1412" y1="782.2266" y2="782.2266"/><text fill="#000000" font-family="sans-serif" font-size="13" font-weight="bold" lengthAdjust="spacing" textLength="14" x="213" y="776.9639">15</text><text fill="#000000" font-family="sans-serif" font-size="13" lengthAdjust="spacing" textLength="52" x="231" y="776.9639">planView</text><polygon fill="#181818" points="77,809.5176,67,813.5176,77,817.5176,73,813.5176" style="stroke:#181818;stroke-width:1.0;"/><line style="stroke:#181818;stroke-width:1.0;stroke-dasharray:2.0,2.0;" x1="71" x2="190" y1="813.5176" y2="813.5176"/><text fill="#000000" font-family="sans-serif" font-size="13" font-weight="bold" lengthAdjust="spacing" textLength="14" x="83" y="808.2549">16</text><text fill="#000000" font-family="sans-serif" font-size="13" lengthAdjust="spacing" textLength="52" x="101" y="808.2549">planView</text><!--SRC=[RLJRRXen47ttLupoKf1OQAeyRLCacgGAKfCWWlfQEMO0DrvxQy-6y5_zWdnPnvT04e6qQ7Vsd9dZcJFxQKFKXdeqQesqr3Lcg5mp2lYtGwkmMcgvzh8HiYCd5UadIGZEfcVRDG_e1Mao2FU50PUPCO99W1lf7v6qNSDIUrJa_02ciEL2G0wMkD8MGOB5BSouF4T8QXFnj45edAMDsO6qIxvi9mqe5sYGNyfdtNGDP17WLan-qWf3WZk6U50RwLaqUXr8gn11aHfFAjwUGCWe3KuESY-Bt1EG0IPAjD9p1jr6vITrr7h1uhmp1ZFcWhmvWWhtwAEgX8dtnp1pR5tGN6sNOF5HVC1TUEJ69_IDRDjIDDyUI_bBu_ODC3wA-9iegCP9BDGmkxjVG9fx42d4hw96o3bIdm9y0vMAzmuQvd7MWS1ZS9rNs1U9nlIe7UgxbhIpqfodFEDz8XxtyllkLZRuE_xrNld3DL8AzFiYPQZsIZ9tgCDLqz8krQd64LDdLRUEVZebJO_7kHdi1UKy1SdPav0VtZLtqHYJsVH8xK5CyOvulPZDuEppMOdbXfR2RsOnB0qwj2F7gv8cMTiz_FcQyrJZU8gQ0q9On-jaS4NYj0_5Ax3LXfs-GVK8UfKQ0FZC5Wv2J5TmoalGiCt9TpWGxpXioAsOiYVNqapykclGqjMpmZGE8Rxq8vhtOkdAcbml5ZFWxXd1woXjtffKKDj0ajSvLjIK6FRb7sKX_058YvJnU-WSgVCywDWnvEpnSEATDMe8yWbxVFGFWyvpBjZYq18hpemMhlchiRTtBxxjYtWRAGT6CZiR_RogNfs-3_y7]--></g></svg>