<?xml version="1.0" encoding="us-ascii" standalone="no"?><svg xmlns="http://www.w3.org/2000/svg" xmlns:xlink="http://www.w3.org/1999/xlink" contentStyleType="text/css" height="597px" preserveAspectRatio="none" style="width:1334px;height:597px;background:#FFFFFF;" version="1.1" viewBox="0 0 1334 597" width="1334px" zoomAndPan="magnify"><defs/><g><text fill="#000000" font-family="sans-serif" font-size="14" font-weight="bold" lengthAdjust="spacing" textLength="1306" x="10" y="30.1074">Software Design Document/ As Marketing director, I want to define a new Plan detailing the monthly and annual cost, the maximum number of devices and other characteristics of the plan</text><rect fill="#FFFFFF" height="370.9102" style="stroke:#181818;stroke-width:1.0;" width="10" x="450.5" y="133.2422"/><rect fill="#FFFFFF" height="184.4551" style="stroke:#181818;stroke-width:1.0;" width="10" x="636.5" y="240.1152"/><rect fill="none" height="172.4551" style="stroke:#000000;stroke-width:1.5;" width="558" x="384.5" y="260.1152"/><rect fill="none" height="63.582" style="stroke:#000000;stroke-width:1.5;" width="333" x="599.5" y="286.4063"/><rect fill="none" height="50.582" style="stroke:#000000;stroke-width:1.5;" width="299" x="384.5" y="446.5703"/><line style="stroke:#181818;stroke-width:0.5;stroke-dasharray:5.0,5.0;" x1="455.5" x2="455.5" y1="123.2422" y2="514.1523"/><line style="stroke:#181818;stroke-width:0.5;stroke-dasharray:5.0,5.0;" x1="641.5" x2="641.5" y1="123.2422" y2="514.1523"/><text fill="#000000" font-family="sans-serif" font-size="14" lengthAdjust="spacing" textLength="116" x="394.5" y="119.7285">Marketing Director</text><ellipse cx="455.5" cy="53.1211" fill="#E2E2F0" rx="8" ry="8" style="stroke:#181818;stroke-width:0.5;"/><path d="M455.5,61.1211 L455.5,88.1211 M442.5,69.1211 L468.5,69.1211 M455.5,88.1211 L442.5,103.1211 M455.5,88.1211 L468.5,103.1211 " fill="none" style="stroke:#181818;stroke-width:0.5;"/><text fill="#000000" font-family="sans-serif" font-size="14" lengthAdjust="spacing" textLength="116" x="394.5" y="528.2598">Marketing Director</text><ellipse cx="455.5" cy="540.2734" fill="#E2E2F0" rx="8" ry="8" style="stroke:#181818;stroke-width:0.5;"/><path d="M455.5,548.2734 L455.5,575.2734 M442.5,556.2734 L468.5,556.2734 M455.5,575.2734 L442.5,590.2734 M455.5,575.2734 L468.5,590.2734 " fill="none" style="stroke:#181818;stroke-width:0.5;"/><rect fill="#E2E2F0" height="32.6211" rx="2.5" ry="2.5" style="stroke:#181818;stroke-width:0.5;" width="64" x="609.5" y="89.6211"/><text fill="#000000" font-family="sans-serif" font-size="14" lengthAdjust="spacing" textLength="50" x="616.5" y="111.7285">:System</text><rect fill="#E2E2F0" height="32.6211" rx="2.5" ry="2.5" style="stroke:#181818;stroke-width:0.5;" width="64" x="609.5" y="513.1523"/><text fill="#000000" font-family="sans-serif" font-size="14" lengthAdjust="spacing" textLength="50" x="616.5" y="535.2598">:System</text><rect fill="#FFFFFF" height="370.9102" style="stroke:#181818;stroke-width:1.0;" width="10" x="450.5" y="133.2422"/><rect fill="#FFFFFF" height="184.4551" style="stroke:#181818;stroke-width:1.0;" width="10" x="636.5" y="240.1152"/><polygon fill="#181818" points="629.5,152.5332,639.5,156.5332,629.5,160.5332,633.5,156.5332" style="stroke:#181818;stroke-width:1.0;"/><line style="stroke:#181818;stroke-width:1.0;" x1="460.5" x2="635.5" y1="156.5332" y2="156.5332"/><text fill="#000000" font-family="sans-serif" font-size="13" lengthAdjust="spacing" textLength="74" x="467.5" y="151.2705">POST /plans</text><line style="stroke:#181818;stroke-width:1.0;stroke-dasharray:2.0,2.0;" x1="641.5" x2="683.5" y1="187.8242" y2="187.8242"/><line style="stroke:#181818;stroke-width:1.0;stroke-dasharray:2.0,2.0;" x1="683.5" x2="683.5" y1="187.8242" y2="200.8242"/><line style="stroke:#181818;stroke-width:1.0;stroke-dasharray:2.0,2.0;" x1="642.5" x2="683.5" y1="200.8242" y2="200.8242"/><polygon fill="#181818" points="652.5,196.8242,642.5,200.8242,652.5,204.8242,648.5,200.8242" style="stroke:#181818;stroke-width:1.0;"/><text fill="#000000" font-family="sans-serif" font-size="13" lengthAdjust="spacing" textLength="117" x="648.5" y="182.5615">Gets data from Post</text><line style="stroke:#181818;stroke-width:1.0;stroke-dasharray:2.0,2.0;" x1="641.5" x2="688.5" y1="227.1152" y2="227.1152"/><line style="stroke:#181818;stroke-width:1.0;stroke-dasharray:2.0,2.0;" x1="688.5" x2="688.5" y1="227.1152" y2="240.1152"/><line style="stroke:#181818;stroke-width:1.0;stroke-dasharray:2.0,2.0;" x1="647.5" x2="688.5" y1="240.1152" y2="240.1152"/><polygon fill="#181818" points="657.5,236.1152,647.5,240.1152,657.5,244.1152,653.5,240.1152" style="stroke:#181818;stroke-width:1.0;"/><text fill="#000000" font-family="sans-serif" font-size="13" lengthAdjust="spacing" textLength="83" x="653.5" y="221.8525">Validates data</text><path d="M384.5,260.1152 L445.5,260.1152 L445.5,269.4063 L435.5,279.4063 L384.5,279.4063 L384.5,260.1152 " fill="#EEEEEE" style="stroke:#000000;stroke-width:1.5;"/><rect fill="none" height="172.4551" style="stroke:#000000;stroke-width:1.5;" width="558" x="384.5" y="260.1152"/><text fill="#000000" font-family="sans-serif" font-size="13" font-weight="bold" lengthAdjust="spacing" textLength="16" x="399.5" y="275.1436">alt</text><text fill="#000000" font-family="sans-serif" font-size="11" font-weight="bold" lengthAdjust="spacing" textLength="197" x="460.5" y="273.9854">[successful case - data is accepted]</text><path d="M599.5,286.4063 L660.5,286.4063 L660.5,295.6973 L650.5,305.6973 L599.5,305.6973 L599.5,286.4063 " fill="#EEEEEE" style="stroke:#000000;stroke-width:1.5;"/><rect fill="none" height="63.582" style="stroke:#000000;stroke-width:1.5;" width="333" x="599.5" y="286.4063"/><text fill="#000000" font-family="sans-serif" font-size="13" font-weight="bold" lengthAdjust="spacing" textLength="16" x="614.5" y="301.4346">alt</text><text fill="#000000" font-family="sans-serif" font-size="11" font-weight="bold" lengthAdjust="spacing" textLength="252" x="675.5" y="300.2764">[HTPP  API CALL TO ANOTHER PLAN INSTANCE]</text><line style="stroke:#181818;stroke-width:1.0;stroke-dasharray:2.0,2.0;" x1="646.5" x2="688.5" y1="328.9883" y2="328.9883"/><line style="stroke:#181818;stroke-width:1.0;stroke-dasharray:2.0,2.0;" x1="688.5" x2="688.5" y1="328.9883" y2="341.9883"/><line style="stroke:#181818;stroke-width:1.0;stroke-dasharray:2.0,2.0;" x1="647.5" x2="688.5" y1="341.9883" y2="341.9883"/><polygon fill="#181818" points="657.5,337.9883,647.5,341.9883,657.5,345.9883,653.5,341.9883" style="stroke:#181818;stroke-width:1.0;"/><text fill="#000000" font-family="sans-serif" font-size="13" lengthAdjust="spacing" textLength="85" x="653.5" y="323.7256">Returns a  404</text><line style="stroke:#181818;stroke-width:1.0;stroke-dasharray:2.0,2.0;" x1="646.5" x2="688.5" y1="380.2793" y2="380.2793"/><line style="stroke:#181818;stroke-width:1.0;stroke-dasharray:2.0,2.0;" x1="688.5" x2="688.5" y1="380.2793" y2="393.2793"/><line style="stroke:#181818;stroke-width:1.0;stroke-dasharray:2.0,2.0;" x1="647.5" x2="688.5" y1="393.2793" y2="393.2793"/><polygon fill="#181818" points="657.5,389.2793,647.5,393.2793,657.5,397.2793,653.5,393.2793" style="stroke:#181818;stroke-width:1.0;"/><text fill="#000000" font-family="sans-serif" font-size="13" lengthAdjust="spacing" textLength="145" x="653.5" y="375.0166">Advance to create a Plan</text><polygon fill="#181818" points="471.5,420.5703,461.5,424.5703,471.5,428.5703,467.5,424.5703" style="stroke:#181818;stroke-width:1.0;"/><line style="stroke:#181818;stroke-width:1.0;stroke-dasharray:2.0,2.0;" x1="465.5" x2="640.5" y1="424.5703" y2="424.5703"/><text fill="#000000" font-family="sans-serif" font-size="13" lengthAdjust="spacing" textLength="152" x="477.5" y="419.3076">Informs operation success</text><path d="M384.5,446.5703 L445.5,446.5703 L445.5,455.8613 L435.5,465.8613 L384.5,465.8613 L384.5,446.5703 " fill="#EEEEEE" style="stroke:#000000;stroke-width:1.5;"/><rect fill="none" height="50.582" style="stroke:#000000;stroke-width:1.5;" width="299" x="384.5" y="446.5703"/><text fill="#000000" font-family="sans-serif" font-size="13" font-weight="bold" lengthAdjust="spacing" textLength="16" x="399.5" y="461.5986">alt</text><text fill="#000000" font-family="sans-serif" font-size="11" font-weight="bold" lengthAdjust="spacing" textLength="192" x="460.5" y="460.4404">[failure case - data is not accepted]</text><polygon fill="#181818" points="471.5,485.1523,461.5,489.1523,471.5,493.1523,467.5,489.1523" style="stroke:#181818;stroke-width:1.0;"/><line style="stroke:#181818;stroke-width:1.0;stroke-dasharray:2.0,2.0;" x1="465.5" x2="640.5" y1="489.1523" y2="489.1523"/><text fill="#000000" font-family="sans-serif" font-size="13" lengthAdjust="spacing" textLength="126" x="477.5" y="483.8896">Shows error message</text><!--SRC=[VLBBRjim4BphAmQ-z1BNFUJaGm4X2Xe3VWYHqVkMMbb4HT8bbtRpzrt9RL8OYG-yxCvmPsRtKozoJCl5uZYGb-o6poQuHU9VcRtXUMlf4CaLP2H4p3OKVx9OVq1b8u-r6IXXKnLYPM0qePCpHKR5oHuygc2oOoyBb8fw9RT_oNTOuQnZ8G4jTzOp29xFg5MCLeJiCEAbPxZWfHzUGBxLvpCDC279tQL9lwtB3Zwx7nmHEYMVhE4qmOD28anFKMrmj4ciIIDef8w-Yz6VFP7mQ6LJOVuLisNpaeJT34lKksQFAQ5KlDNdLwXlB0aj2Q6BmQ5MTJVGtscm2kOBfQ11aB9HoQdBQeqIOtxvpQeBRHo5spUThrzDpATzNGDblS93kLvZlqEvtUsV7fzHhyijLjjcNsuV7Z-MyyoIezT1mFsN-u9zUqDwsPv8ZsFSceaygg5fOyKLHuDSOkMx49t6VUH8OeF_PxDe-Hqtq-Z9KwVBptfALr7u83VZU4T2quTp0iUe9-nqCXtunl3_Eflg3m00]--></g></svg>