<?xml version="1.0" encoding="UTF-8" standalone="no"?><svg xmlns="http://www.w3.org/2000/svg" xmlns:xlink="http://www.w3.org/1999/xlink" contentStyleType="text/css" height="422px" preserveAspectRatio="none" style="width:1060px;height:422px;background:#FFFFFF;" version="1.1" viewBox="0 0 1060 422" width="1060px" zoomAndPan="magnify"><defs/><g><rect fill="none" height="27.6094" id="_title" style="stroke:none;stroke-width:1.0;" width="1042" x="5" y="10"/><text fill="#000000" font-family="sans-serif" font-size="14" font-weight="bold" lengthAdjust="spacing" textLength="1032" x="10" y="29.5332">Software Design Document / As a Project Manager, I want to know the number of active subscriptions or canceled subscriptions in a specific month</text><rect fill="#FFFFFF" height="199.1094" style="stroke:#181818;stroke-width:1.0;" width="10" x="376.5" y="131.2188"/><rect fill="#FFFFFF" height="99.0547" style="stroke:#181818;stroke-width:1.0;" width="10" x="562.5" y="153.5703"/><rect fill="none" height="92.0547" style="stroke:#000000;stroke-width:1.5;" width="420" x="316.5" y="168.5703"/><rect fill="none" height="48.7031" style="stroke:#000000;stroke-width:1.5;" width="293" x="316.5" y="274.625"/><line style="stroke:#181818;stroke-width:0.5;stroke-dasharray:5.0,5.0;" x1="381.5" x2="381.5" y1="121.2188" y2="340.3281"/><line style="stroke:#181818;stroke-width:0.5;stroke-dasharray:5.0,5.0;" x1="567.5" x2="567.5" y1="121.2188" y2="340.3281"/><text fill="#000000" font-family="sans-serif" font-size="14" lengthAdjust="spacing" textLength="104" x="326.5" y="118.1426">Project Manager</text><ellipse cx="381.5" cy="52.1094" fill="#E2E2F0" rx="8" ry="8" style="stroke:#181818;stroke-width:0.5;"/><path d="M381.5,60.1094 L381.5,87.1094 M368.5,68.1094 L394.5,68.1094 M381.5,87.1094 L368.5,102.1094 M381.5,87.1094 L394.5,102.1094 " fill="none" style="stroke:#181818;stroke-width:0.5;"/><text fill="#000000" font-family="sans-serif" font-size="14" lengthAdjust="spacing" textLength="104" x="326.5" y="353.8613">Project Manager</text><ellipse cx="381.5" cy="365.4375" fill="#E2E2F0" rx="8" ry="8" style="stroke:#181818;stroke-width:0.5;"/><path d="M381.5,373.4375 L381.5,400.4375 M368.5,381.4375 L394.5,381.4375 M381.5,400.4375 L368.5,415.4375 M381.5,400.4375 L394.5,415.4375 " fill="none" style="stroke:#181818;stroke-width:0.5;"/><rect fill="#E2E2F0" height="31.6094" rx="2.5" ry="2.5" style="stroke:#181818;stroke-width:0.5;" width="64" x="535.5" y="88.6094"/><text fill="#000000" font-family="sans-serif" font-size="14" lengthAdjust="spacing" textLength="50" x="542.5" y="110.1426">:System</text><rect fill="#E2E2F0" height="31.6094" rx="2.5" ry="2.5" style="stroke:#181818;stroke-width:0.5;" width="64" x="535.5" y="339.3281"/><text fill="#000000" font-family="sans-serif" font-size="14" lengthAdjust="spacing" textLength="50" x="542.5" y="360.8613">:System</text><rect fill="#FFFFFF" height="199.1094" style="stroke:#181818;stroke-width:1.0;" width="10" x="376.5" y="131.2188"/><rect fill="#FFFFFF" height="99.0547" style="stroke:#181818;stroke-width:1.0;" width="10" x="562.5" y="153.5703"/><polygon fill="#181818" points="550.5,149.5703,560.5,153.5703,550.5,157.5703,554.5,153.5703" style="stroke:#181818;stroke-width:1.0;"/><line style="stroke:#181818;stroke-width:1.0;" x1="386.5" x2="556.5" y1="153.5703" y2="153.5703"/><text fill="#000000" font-family="sans-serif" font-size="13" lengthAdjust="spacing" textLength="130" x="393.5" y="148.7139">GET dashboard/status</text><path d="M316.5,168.5703 L377.5,168.5703 L377.5,176.9219 L367.5,186.9219 L316.5,186.9219 L316.5,168.5703 " fill="#EEEEEE" style="stroke:#000000;stroke-width:1.5;"/><rect fill="none" height="92.0547" style="stroke:#000000;stroke-width:1.5;" width="420" x="316.5" y="168.5703"/><text fill="#000000" font-family="sans-serif" font-size="13" font-weight="bold" lengthAdjust="spacing" textLength="16" x="331.5" y="183.0654">alt</text><text fill="#000000" font-family="sans-serif" font-size="11" font-weight="bold" lengthAdjust="spacing" textLength="197" x="392.5" y="181.9893">[successful case - data is accepted]</text><line style="stroke:#181818;stroke-width:1.0;stroke-dasharray:2.0,2.0;" x1="572.5" x2="614.5" y1="209.2734" y2="209.2734"/><line style="stroke:#181818;stroke-width:1.0;stroke-dasharray:2.0,2.0;" x1="614.5" x2="614.5" y1="209.2734" y2="222.2734"/><line style="stroke:#181818;stroke-width:1.0;stroke-dasharray:2.0,2.0;" x1="573.5" x2="614.5" y1="222.2734" y2="222.2734"/><polygon fill="#181818" points="583.5,218.2734,573.5,222.2734,583.5,226.2734,579.5,222.2734" style="stroke:#181818;stroke-width:1.0;"/><text fill="#000000" font-family="sans-serif" font-size="13" lengthAdjust="spacing" textLength="145" x="579.5" y="204.417">Gets data from Database</text><polygon fill="#181818" points="397.5,248.625,387.5,252.625,397.5,256.625,393.5,252.625" style="stroke:#181818;stroke-width:1.0;"/><line style="stroke:#181818;stroke-width:1.0;stroke-dasharray:2.0,2.0;" x1="391.5" x2="566.5" y1="252.625" y2="252.625"/><text fill="#000000" font-family="sans-serif" font-size="13" lengthAdjust="spacing" textLength="152" x="403.5" y="247.7686">Informs operation success</text><path d="M316.5,274.625 L377.5,274.625 L377.5,282.9766 L367.5,292.9766 L316.5,292.9766 L316.5,274.625 " fill="#EEEEEE" style="stroke:#000000;stroke-width:1.5;"/><rect fill="none" height="48.7031" style="stroke:#000000;stroke-width:1.5;" width="293" x="316.5" y="274.625"/><text fill="#000000" font-family="sans-serif" font-size="13" font-weight="bold" lengthAdjust="spacing" textLength="16" x="331.5" y="289.1201">alt</text><text fill="#000000" font-family="sans-serif" font-size="11" font-weight="bold" lengthAdjust="spacing" textLength="192" x="392.5" y="288.0439">[failure case - data is not accepted]</text><polygon fill="#181818" points="397.5,311.3281,387.5,315.3281,397.5,319.3281,393.5,315.3281" style="stroke:#181818;stroke-width:1.0;"/><line style="stroke:#181818;stroke-width:1.0;stroke-dasharray:2.0,2.0;" x1="391.5" x2="566.5" y1="315.3281" y2="315.3281"/><text fill="#000000" font-family="sans-serif" font-size="13" lengthAdjust="spacing" textLength="126" x="403.5" y="310.4717">Shows error message</text><!--MD5=[5a116e04d3e9ed71eda57dd27b7ae0ce]
@startuml
'https://plantuml.com/sequence-diagram
actor "Project Manager" as MD
title Software Design Document / As a Project Manager, I want to know the number of active subscriptions or canceled subscriptions in a specific month

activate MD
MD -> ":System" : GET dashboard/status
alt successful case - data is accepted
activate ":System"
":System" - -> ":System" : Gets data from Database
":System" - -> MD : Informs operation success
deactivate ":System"

end

alt failure case - data is not accepted
activate ":System"
":System" - -> MD : Shows error message
deactivate ":System"

end
deactivate MD
@enduml

@startuml
actor "Project Manager" as MD
title Software Design Document / As a Project Manager, I want to know the number of active subscriptions or canceled subscriptions in a specific month

activate MD
MD -> ":System" : GET dashboard/status
alt successful case - data is accepted
activate ":System"
":System" - -> ":System" : Gets data from Database
":System" - -> MD : Informs operation success
deactivate ":System"

end

alt failure case - data is not accepted
activate ":System"
":System" - -> MD : Shows error message
deactivate ":System"

end
deactivate MD
@enduml

PlantUML version 1.2022.12(Sun Oct 23 19:12:26 BST 2022)
(GPL source distribution)
Java Runtime: OpenJDK Runtime Environment
JVM: OpenJDK 64-Bit Server VM
Default Encoding: Cp1252
Language: pt
Country: PT
--></g></svg>