<?xml version="1.0" encoding="UTF-8" standalone="no"?><svg xmlns="http://www.w3.org/2000/svg" xmlns:xlink="http://www.w3.org/1999/xlink" contentStyleType="text/css" height="422px" preserveAspectRatio="none" style="width:1172px;height:422px;background:#FFFFFF;" version="1.1" viewBox="0 0 1172 422" width="1172px" zoomAndPan="magnify"><defs/><g><rect fill="none" height="27.6094" id="_title" style="stroke:none;stroke-width:1.0;" width="1154" x="5" y="10"/><text fill="#000000" font-family="sans-serif" font-size="14" font-weight="bold" lengthAdjust="spacing" textLength="1144" x="10" y="29.5332">Software Design Document / As Product Manager or Financial director, I want to know the future cashflows for the upcoming n months filtered/broken down by plan</text><rect fill="#FFFFFF" height="199.1094" style="stroke:#181818;stroke-width:1.0;" width="10" x="457.25" y="131.2188"/><rect fill="#FFFFFF" height="99.0547" style="stroke:#181818;stroke-width:1.0;" width="10" x="650.25" y="153.5703"/><rect fill="none" height="92.0547" style="stroke:#000000;stroke-width:1.5;" width="483.5" x="340.75" y="168.5703"/><rect fill="none" height="48.7031" style="stroke:#000000;stroke-width:1.5;" width="356.5" x="340.75" y="274.625"/><line style="stroke:#181818;stroke-width:0.5;stroke-dasharray:5.0,5.0;" x1="461.75" x2="461.75" y1="121.2188" y2="340.3281"/><line style="stroke:#181818;stroke-width:0.5;stroke-dasharray:5.0,5.0;" x1="655.25" x2="655.25" y1="121.2188" y2="340.3281"/><text fill="#000000" font-family="sans-serif" font-size="14" lengthAdjust="spacing" textLength="217" x="350.75" y="118.1426">Project Manager/Financial director</text><ellipse cx="462.25" cy="52.1094" fill="#E2E2F0" rx="8" ry="8" style="stroke:#181818;stroke-width:0.5;"/><path d="M462.25,60.1094 L462.25,87.1094 M449.25,68.1094 L475.25,68.1094 M462.25,87.1094 L449.25,102.1094 M462.25,87.1094 L475.25,102.1094 " fill="none" style="stroke:#181818;stroke-width:0.5;"/><text fill="#000000" font-family="sans-serif" font-size="14" lengthAdjust="spacing" textLength="217" x="350.75" y="353.8613">Project Manager/Financial director</text><ellipse cx="462.25" cy="365.4375" fill="#E2E2F0" rx="8" ry="8" style="stroke:#181818;stroke-width:0.5;"/><path d="M462.25,373.4375 L462.25,400.4375 M449.25,381.4375 L475.25,381.4375 M462.25,400.4375 L449.25,415.4375 M462.25,400.4375 L475.25,415.4375 " fill="none" style="stroke:#181818;stroke-width:0.5;"/><rect fill="#E2E2F0" height="31.6094" rx="2.5" ry="2.5" style="stroke:#181818;stroke-width:0.5;" width="64" x="623.25" y="88.6094"/><text fill="#000000" font-family="sans-serif" font-size="14" lengthAdjust="spacing" textLength="50" x="630.25" y="110.1426">:System</text><rect fill="#E2E2F0" height="31.6094" rx="2.5" ry="2.5" style="stroke:#181818;stroke-width:0.5;" width="64" x="623.25" y="339.3281"/><text fill="#000000" font-family="sans-serif" font-size="14" lengthAdjust="spacing" textLength="50" x="630.25" y="360.8613">:System</text><rect fill="#FFFFFF" height="199.1094" style="stroke:#181818;stroke-width:1.0;" width="10" x="457.25" y="131.2188"/><rect fill="#FFFFFF" height="99.0547" style="stroke:#181818;stroke-width:1.0;" width="10" x="650.25" y="153.5703"/><polygon fill="#181818" points="638.25,149.5703,648.25,153.5703,638.25,157.5703,642.25,153.5703" style="stroke:#181818;stroke-width:1.0;"/><line style="stroke:#181818;stroke-width:1.0;" x1="467.25" x2="644.25" y1="153.5703" y2="153.5703"/><text fill="#000000" font-family="sans-serif" font-size="13" lengthAdjust="spacing" textLength="164" x="474.25" y="148.7139">GET dashboard/revenuePlan</text><path d="M340.75,168.5703 L401.75,168.5703 L401.75,176.9219 L391.75,186.9219 L340.75,186.9219 L340.75,168.5703 " fill="#EEEEEE" style="stroke:#000000;stroke-width:1.5;"/><rect fill="none" height="92.0547" style="stroke:#000000;stroke-width:1.5;" width="483.5" x="340.75" y="168.5703"/><text fill="#000000" font-family="sans-serif" font-size="13" font-weight="bold" lengthAdjust="spacing" textLength="16" x="355.75" y="183.0654">alt</text><text fill="#000000" font-family="sans-serif" font-size="11" font-weight="bold" lengthAdjust="spacing" textLength="197" x="416.75" y="181.9893">[successful case - data is accepted]</text><line style="stroke:#181818;stroke-width:1.0;stroke-dasharray:2.0,2.0;" x1="660.25" x2="702.25" y1="209.2734" y2="209.2734"/><line style="stroke:#181818;stroke-width:1.0;stroke-dasharray:2.0,2.0;" x1="702.25" x2="702.25" y1="209.2734" y2="222.2734"/><line style="stroke:#181818;stroke-width:1.0;stroke-dasharray:2.0,2.0;" x1="661.25" x2="702.25" y1="222.2734" y2="222.2734"/><polygon fill="#181818" points="671.25,218.2734,661.25,222.2734,671.25,226.2734,667.25,222.2734" style="stroke:#181818;stroke-width:1.0;"/><text fill="#000000" font-family="sans-serif" font-size="13" lengthAdjust="spacing" textLength="145" x="667.25" y="204.417">Gets data from Database</text><polygon fill="#181818" points="478.25,248.625,468.25,252.625,478.25,256.625,474.25,252.625" style="stroke:#181818;stroke-width:1.0;"/><line style="stroke:#181818;stroke-width:1.0;stroke-dasharray:2.0,2.0;" x1="472.25" x2="654.25" y1="252.625" y2="252.625"/><text fill="#000000" font-family="sans-serif" font-size="13" lengthAdjust="spacing" textLength="152" x="484.25" y="247.7686">Informs operation success</text><path d="M340.75,274.625 L401.75,274.625 L401.75,282.9766 L391.75,292.9766 L340.75,292.9766 L340.75,274.625 " fill="#EEEEEE" style="stroke:#000000;stroke-width:1.5;"/><rect fill="none" height="48.7031" style="stroke:#000000;stroke-width:1.5;" width="356.5" x="340.75" y="274.625"/><text fill="#000000" font-family="sans-serif" font-size="13" font-weight="bold" lengthAdjust="spacing" textLength="16" x="355.75" y="289.1201">alt</text><text fill="#000000" font-family="sans-serif" font-size="11" font-weight="bold" lengthAdjust="spacing" textLength="192" x="416.75" y="288.0439">[failure case - data is not accepted]</text><polygon fill="#181818" points="478.25,311.3281,468.25,315.3281,478.25,319.3281,474.25,315.3281" style="stroke:#181818;stroke-width:1.0;"/><line style="stroke:#181818;stroke-width:1.0;stroke-dasharray:2.0,2.0;" x1="472.25" x2="654.25" y1="315.3281" y2="315.3281"/><text fill="#000000" font-family="sans-serif" font-size="13" lengthAdjust="spacing" textLength="126" x="484.25" y="310.4717">Shows error message</text><!--MD5=[ed154cd2ed93c78057571aca929462e1]
@startuml
'https://plantuml.com/sequence-diagram
actor "Project Manager/Financial director" as MD
title Software Design Document / As Product Manager or Financial director, I want to know the future cashflows for the upcoming n months filtered/broken down by plan

activate MD
MD -> ":System" : GET dashboard/revenuePlan
alt successful case - data is accepted
activate ":System"
":System" - -> ":System" : Gets data from Database
":System" - -> MD : Informs operation success
deactivate ":System"

end

alt failure case - data is not accepted
activate ":System"
":System" - -> MD : Shows error message
deactivate ":System"

end
deactivate MD
@enduml

@startuml
actor "Project Manager/Financial director" as MD
title Software Design Document / As Product Manager or Financial director, I want to know the future cashflows for the upcoming n months filtered/broken down by plan

activate MD
MD -> ":System" : GET dashboard/revenuePlan
alt successful case - data is accepted
activate ":System"
":System" - -> ":System" : Gets data from Database
":System" - -> MD : Informs operation success
deactivate ":System"

end

alt failure case - data is not accepted
activate ":System"
":System" - -> MD : Shows error message
deactivate ":System"

end
deactivate MD
@enduml

PlantUML version 1.2022.12(Sun Oct 23 19:12:26 BST 2022)
(GPL source distribution)
Java Runtime: OpenJDK Runtime Environment
JVM: OpenJDK 64-Bit Server VM
Default Encoding: Cp1252
Language: pt
Country: PT
--></g></svg>