<?xml version="1.0" encoding="us-ascii" standalone="no"?><svg xmlns="http://www.w3.org/2000/svg" xmlns:xlink="http://www.w3.org/1999/xlink" contentStyleType="text/css" height="596px" preserveAspectRatio="none" style="width:754px;height:596px;background:#FFFFFF;" version="1.1" viewBox="0 0 754 596" width="754px" zoomAndPan="magnify"><defs/><g><text fill="#000000" font-family="sans-serif" font-size="14" font-weight="bold" lengthAdjust="spacing" textLength="276" x="232" y="25.1074">Class Diagram / Register a new account</text><!--class UserRepository--><g id="elem_UserRepository"><rect codeLine="32" fill="#F1F1F1" height="97.8242" id="UserRepository" rx="2.5" ry="2.5" style="stroke:#181818;stroke-width:0.5;" width="243" x="39.5" y="330.6211"/><text fill="#000000" font-family="sans-serif" font-size="12" font-style="italic" lengthAdjust="spacing" textLength="61" x="130.5" y="348.5703">&#171;interface&#187;</text><text fill="#000000" font-family="sans-serif" font-size="14" font-style="italic" lengthAdjust="spacing" textLength="98" x="112" y="366.6895">UserRepository</text><line style="stroke:#181818;stroke-width:0.5;" x1="40.5" x2="281.5" y1="375.2031" y2="375.2031"/><line style="stroke:#181818;stroke-width:0.5;" x1="40.5" x2="281.5" y1="383.2031" y2="383.2031"/><ellipse cx="50.5" cy="398.0137" fill="#84BE84" rx="3" ry="3" style="stroke:#038048;stroke-width:1.0;"/><text fill="#000000" font-family="sans-serif" font-size="14" lengthAdjust="spacing" textLength="217" x="59.5" y="402.3105">findByUsername(String username)</text><ellipse cx="50.5" cy="416.6348" fill="#84BE84" rx="3" ry="3" style="stroke:#038048;stroke-width:1.0;"/><text fill="#000000" font-family="sans-serif" font-size="14" lengthAdjust="spacing" textLength="210" x="59.5" y="420.9316">save(S entity) : &lt;S extends User&gt;</text></g><!--class User--><g id="elem_User"><rect codeLine="9" fill="#F1F1F1" height="81.8633" id="User" rx="2.5" ry="2.5" style="stroke:#181818;stroke-width:0.5;" width="93" x="114.5" y="507.6211"/><text fill="#000000" font-family="sans-serif" font-size="14" lengthAdjust="spacing" textLength="29" x="146.5" y="527.7285">User</text><line style="stroke:#181818;stroke-width:0.5;" x1="115.5" x2="206.5" y1="536.2422" y2="536.2422"/><rect fill="none" height="6" style="stroke:#C82930;stroke-width:1.0;" width="6" x="122.5" y="548.0527"/><text fill="#000000" font-family="sans-serif" font-size="14" lengthAdjust="spacing" textLength="67" x="134.5" y="555.3496">username;</text><rect fill="none" height="6" style="stroke:#C82930;stroke-width:1.0;" width="6" x="122.5" y="566.6738"/><text fill="#000000" font-family="sans-serif" font-size="14" lengthAdjust="spacing" textLength="64" x="134.5" y="573.9707">password;</text><line style="stroke:#181818;stroke-width:0.5;" x1="115.5" x2="206.5" y1="581.4844" y2="581.4844"/></g><!--class Role--><g id="elem_Role"><rect codeLine="14" fill="#F1F1F1" height="63.2422" id="Role" rx="2.5" ry="2.5" style="stroke:#181818;stroke-width:0.5;" width="50" x="7" y="517.1211"/><text fill="#000000" font-family="sans-serif" font-size="14" lengthAdjust="spacing" textLength="29" x="17.5" y="537.2285">Role</text><line style="stroke:#181818;stroke-width:0.5;" x1="8" x2="56" y1="545.7422" y2="545.7422"/><rect fill="none" height="6" style="stroke:#C82930;stroke-width:1.0;" width="6" x="15" y="557.5527"/><text fill="#000000" font-family="sans-serif" font-size="14" lengthAdjust="spacing" textLength="24" x="27" y="564.8496">role</text><line style="stroke:#181818;stroke-width:0.5;" x1="8" x2="56" y1="572.3633" y2="572.3633"/></g><!--class UserViewMapper--><g id="elem_UserViewMapper"><rect codeLine="17" fill="#F1F1F1" height="63.2422" id="UserViewMapper" rx="2.5" ry="2.5" style="stroke:#181818;stroke-width:0.5;" width="229" x="166.5" y="188.6211"/><text fill="#000000" font-family="sans-serif" font-size="14" lengthAdjust="spacing" textLength="106" x="228" y="208.7285">UserViewMapper</text><line style="stroke:#181818;stroke-width:0.5;" x1="167.5" x2="394.5" y1="217.2422" y2="217.2422"/><line style="stroke:#181818;stroke-width:0.5;" x1="167.5" x2="394.5" y1="225.2422" y2="225.2422"/><ellipse cx="177.5" cy="240.0527" fill="#84BE84" rx="3" ry="3" style="stroke:#038048;stroke-width:1.0;"/><text fill="#000000" font-family="sans-serif" font-size="14" lengthAdjust="spacing" textLength="203" x="186.5" y="244.3496">toUserView(User user):UserView</text></g><!--class AuthApi--><g id="elem_AuthApi"><rect codeLine="20" fill="#F1F1F1" height="63.2422" id="AuthApi" rx="2.5" ry="2.5" style="stroke:#181818;stroke-width:0.5;" width="331" x="115.5" y="46.6211"/><text fill="#000000" font-family="sans-serif" font-size="14" lengthAdjust="spacing" textLength="49" x="256.5" y="66.7285">AuthApi</text><line style="stroke:#181818;stroke-width:0.5;" x1="116.5" x2="445.5" y1="75.2422" y2="75.2422"/><line style="stroke:#181818;stroke-width:0.5;" x1="116.5" x2="445.5" y1="83.2422" y2="83.2422"/><text fill="#000000" font-family="sans-serif" font-size="14" lengthAdjust="spacing" textLength="319" x="121.5" y="102.3496">create(final CreateUserRequest request) UserView</text></g><!--class UserService--><g id="elem_UserService"><rect codeLine="23" fill="#F1F1F1" height="63.2422" id="UserService" rx="2.5" ry="2.5" style="stroke:#181818;stroke-width:0.5;" width="316" x="431" y="188.6211"/><text fill="#000000" font-family="sans-serif" font-size="14" lengthAdjust="spacing" textLength="76" x="551" y="208.7285">UserService</text><line style="stroke:#181818;stroke-width:0.5;" x1="432" x2="746" y1="217.2422" y2="217.2422"/><line style="stroke:#181818;stroke-width:0.5;" x1="432" x2="746" y1="225.2422" y2="225.2422"/><ellipse cx="442" cy="240.0527" fill="#84BE84" rx="3" ry="3" style="stroke:#038048;stroke-width:1.0;"/><text fill="#000000" font-family="sans-serif" font-size="14" lengthAdjust="spacing" textLength="290" x="451" y="244.3496">create(final CreateUserRequest request):User</text></g><!--class UserEditMapper--><g id="elem_UserEditMapper"><rect codeLine="28" fill="#F1F1F1" height="63.2422" id="UserEditMapper" rx="2.5" ry="2.5" style="stroke:#181818;stroke-width:0.5;" width="286" x="446" y="348.1211"/><text fill="#000000" font-family="sans-serif" font-size="14" lengthAdjust="spacing" textLength="101" x="538.5" y="368.2285">UserEditMapper</text><line style="stroke:#181818;stroke-width:0.5;" x1="447" x2="731" y1="376.7422" y2="376.7422"/><line style="stroke:#181818;stroke-width:0.5;" x1="447" x2="731" y1="384.7422" y2="384.7422"/><ellipse cx="457" cy="399.5527" fill="#84BE84" rx="3" ry="3" style="stroke:#038048;stroke-width:1.0;"/><text fill="#000000" font-family="sans-serif" font-size="14" lengthAdjust="spacing" textLength="260" x="466" y="403.8496">create(CreateUserRequest request):User</text></g><!--reverse link Role to User--><g id="link_Role_User"><path codeLine="40" d="M63.18,548.6211 C79.46,548.6211 95.14,548.6211 114.48,548.6211 " fill="none" id="Role-backto-User" style="stroke:#181818;stroke-width:1.0;stroke-dasharray:7.0,7.0;"/><polygon fill="#181818" points="57.18,548.6211,66.18,552.6211,62.18,548.6211,66.18,544.6211,57.18,548.6211" style="stroke:#181818;stroke-width:1.0;"/><text fill="#000000" font-family="sans-serif" font-size="13" lengthAdjust="spacing" textLength="21" x="75.25" y="541.6494">has</text></g><!--link AuthApi to UserService--><g id="link_AuthApi_UserService"><path codeLine="41" d="M348.21,109.6711 C399.63,133.0411 464.7575,162.6488 516.2075,186.0288 " fill="none" id="AuthApi-to-UserService" style="stroke:#181818;stroke-width:1.0;stroke-dasharray:7.0,7.0;"/><polygon fill="#181818" points="521.67,188.5111,515.1312,181.1461,517.118,186.4425,511.8215,188.4293,521.67,188.5111" style="stroke:#181818;stroke-width:1.0;"/><polygon fill="#000000" points="462.5519,151.3355,455.5335,144.9173,453.1014,150.2683,462.5519,151.3355" style="stroke:#000000;stroke-width:1.0;"/><text fill="#000000" font-family="sans-serif" font-size="13" lengthAdjust="spacing" textLength="28" x="467" y="154.6494">uses</text></g><!--link UserService to UserRepository--><g id="link_UserService_UserRepository"><path codeLine="42" d="M505.97,251.6711 C442.52,275.0211 359.7507,305.4787 288.3207,331.7687 " fill="none" id="UserService-to-UserRepository" style="stroke:#181818;stroke-width:1.0;stroke-dasharray:7.0,7.0;"/><polygon fill="#181818" points="282.69,333.8411,292.5177,334.4863,287.3823,332.1141,289.7545,326.9787,282.69,333.8411" style="stroke:#181818;stroke-width:1.0;"/><polygon fill="#000000" points="413.3077,292.9934,422.8112,292.6276,420.7812,287.1115,413.3077,292.9934" style="stroke:#000000;stroke-width:1.0;"/><text fill="#000000" font-family="sans-serif" font-size="13" lengthAdjust="spacing" textLength="28" x="427" y="296.6494">uses</text></g><!--link UserRepository to User--><g id="link_UserRepository_User"><path codeLine="43" d="M161,428.9211 C161,453.8711 161,477.9511 161,501.5911 " fill="none" id="UserRepository-to-User" style="stroke:#181818;stroke-width:1.0;stroke-dasharray:7.0,7.0;"/><polygon fill="#181818" points="161,507.5911,165,498.5911,161,502.5911,157,498.5911,161,507.5911" style="stroke:#181818;stroke-width:1.0;"/><polygon fill="#000000" points="166,463.2666,163.0611,472.3117,168.9389,472.3117,166,463.2666" style="stroke:#000000;stroke-width:1.0;"/><text fill="#000000" font-family="sans-serif" font-size="13" lengthAdjust="spacing" textLength="36" x="175" y="473.6494">record</text></g><!--reverse link AuthApi to UserRepository--><g id="link_AuthApi_UserRepository"><path codeLine="44" d="M150.2206,111.9078 C109.7206,128.3478 74.73,151.0411 51,188.6211 C21.08,236.0011 61.8,291.6111 101.89,330.3811 " fill="none" id="AuthApi-backto-UserRepository" style="stroke:#181818;stroke-width:1.0;stroke-dasharray:7.0,7.0;"/><polygon fill="#181818" points="155.78,109.6511,145.9364,109.3299,151.1471,111.5317,148.9453,116.7425,155.78,109.6511" style="stroke:#181818;stroke-width:1.0;"/><polygon fill="#000000" points="57.08,215.3846,52.2567,223.5814,57.9958,224.851,57.08,215.3846" style="stroke:#000000;stroke-width:1.0;"/><text fill="#000000" font-family="sans-serif" font-size="13" lengthAdjust="spacing" textLength="83" x="65" y="225.6494">HTPP API call</text></g><!--link UserService to UserEditMapper--><g id="link_UserService_UserEditMapper"><path codeLine="45" d="M589,251.8611 C589,279.6111 589,314.2311 589,341.9611 " fill="none" id="UserService-to-UserEditMapper" style="stroke:#181818;stroke-width:1.0;stroke-dasharray:7.0,7.0;"/><polygon fill="#181818" points="589,347.9611,593,338.9611,589,342.9611,585,338.9611,589,347.9611" style="stroke:#181818;stroke-width:1.0;"/><polygon fill="#000000" points="594,296.2666,596.9389,287.2215,591.0611,287.2215,594,296.2666" style="stroke:#000000;stroke-width:1.0;"/><text fill="#000000" font-family="sans-serif" font-size="13" lengthAdjust="spacing" textLength="28" x="603" y="296.6494">uses</text></g><!--link AuthApi to UserViewMapper--><g id="link_AuthApi_UserViewMapper"><path codeLine="46" d="M281,109.8411 C281,133.1911 281,159.1411 281,182.4711 " fill="none" id="AuthApi-to-UserViewMapper" style="stroke:#181818;stroke-width:1.0;stroke-dasharray:7.0,7.0;"/><polygon fill="#181818" points="281,188.4711,285,179.4711,281,183.4711,277,179.4711,281,188.4711" style="stroke:#181818;stroke-width:1.0;"/><polygon fill="#000000" points="286,154.2666,288.9389,145.2215,283.0611,145.2215,286,154.2666" style="stroke:#000000;stroke-width:1.0;"/><text fill="#000000" font-family="sans-serif" font-size="13" lengthAdjust="spacing" textLength="28" x="295" y="154.6494">uses</text></g><!--SRC=[ZL9DJyCm3BtdL_Z6gchjlPigZO441wHfOzoZr5iZfMb9qerfuh_Zffy38SWbiVFy_FASkzovoYPnN2ckNLseI9H5B1ItTfv9VZIyOBdC48GqGY7pDx2tQBPObLQwqbnWkPJQeJbmWMdAc9DE8Qmzyg7bW1YsU9IMKC11uncu46Mj7QCrSbuPm1ngEcbUu88Yc5TqUIvDjc2VFNHRAhookQ6DacFvcyJp2w-gbWWWT6MVdZK7pnmaVMweNTKkNrNI5mc3tE7i83LNiFP1-zht6gq3q-x1qCytcehOeJb9GVeW_2UN5qG-J5aUC-bkdj9n_SL27Wsp-3OcTcKXISdkB_lEuDdE6QcFW-412oq_KHfGqn0l0IImfE33eSvQNMdJWR7c64KA3ovjXf7atBBEHOYYT6f4qj1RIDaaDs16TJUmoT_gaQI4dYhe8_n4U1rT-mIUNZSRM6sUGN2bVkaxsZlqxUe9SVkLUi0N]--></g></svg>